<?xml version="1.0" standalone="yes"?>
<!DOCTYPE svg PUBLIC "-//W3C//DTD SVG 1.1//EN"
 "http://www.w3.org/Graphics/SVG/1.1/DTD/svg11.dtd">
<svg xmlns="http://www.w3.org/2000/svg" version="1.1"
  width="100%" height="100%" viewBox="0 0 1024 768"
  style="fill: none; stroke-width: 3; font-family: Helvetica;
 font: Helvetica;
">

<!-- Creator: NGspice -->

<rect x="0" y="0" width="1024" height="768" fill="white" stroke="none"/>
<text stroke="none" fill="black" font-size="16" x="358" y="752">
time
</text>
<text stroke="none" fill="black" font-size="16" x="10" y="16">
tran1: Total Supply Current
</text>
<path stroke="black" stroke-width="3" d="M70 704l0 -637"/>
<text stroke="none" fill="black" font-size="16" x="55" y="728">
0.0
</text>
<path stroke="black" stroke-width="3" stroke-dasharray="1,2" d="M158 704l0 -637"/>
<text stroke="none" fill="black" font-size="16" x="138" y="728">
20.0
</text>
<path stroke="black" stroke-width="3" stroke-dasharray="1,2" d="M246 704l0 -637"/>
<text stroke="none" fill="black" font-size="16" x="226" y="728">
40.0
</text>
<path stroke="black" stroke-width="3" stroke-dasharray="1,2" d="M334 704l0 -637"/>
<text stroke="none" fill="black" font-size="16" x="314" y="728">
60.0
</text>
<path stroke="black" stroke-width="3" stroke-dasharray="1,2" d="M422 704l0 -637"/>
<text stroke="none" fill="black" font-size="16" x="402" y="728">
80.0
</text>
<path stroke="black" stroke-width="3" stroke-dasharray="1,2" d="M510 704l0 -637"/>
<text stroke="none" fill="black" font-size="16" x="485" y="728">
100.0
</text>
<path stroke="black" stroke-width="3" stroke-dasharray="1,2" d="M598 704l0 -637"/>
<text stroke="none" fill="black" font-size="16" x="573" y="728">
120.0
</text>
<path stroke="black" stroke-width="3" stroke-dasharray="1,2" d="M686 704l0 -637"/>
<text stroke="none" fill="black" font-size="16" x="661" y="728">
140.0
</text>
<path stroke="black" stroke-width="3" stroke-dasharray="1,2" d="M774 704l0 -637"/>
<text stroke="none" fill="black" font-size="16" x="749" y="728">
160.0
</text>
<path stroke="black" stroke-width="3" stroke-dasharray="1,2" d="M862 704l0 -637"/>
<text stroke="none" fill="black" font-size="16" x="837" y="728">
180.0
</text>
<path stroke="black" stroke-width="3" stroke-dasharray="1,2" d="M950 704l0 -637"/>
<text stroke="none" fill="black" font-size="16" x="925" y="728">
200.0
</text>
<text stroke="none" fill="black" font-size="16" x="614" y="752">
ns
</text>
<path stroke="black" stroke-width="3" stroke-dasharray="1,2" d="M70 704l880 0"/>
<text stroke="none" fill="black" font-size="16" x="8" y="712">
-800.0
</text>
<path stroke="black" stroke-width="3" stroke-dasharray="1,2" d="M70 613l880 0"/>
<text stroke="none" fill="black" font-size="16" x="8" y="621">
-600.0
</text>
<path stroke="black" stroke-width="3" stroke-dasharray="1,2" d="M70 522l880 0"/>
<text stroke="none" fill="black" font-size="16" x="8" y="530">
-400.0
</text>
<path stroke="black" stroke-width="3" stroke-dasharray="1,2" d="M70 431l880 0"/>
<text stroke="none" fill="black" font-size="16" x="8" y="439">
-200.0
</text>
<path stroke="black" stroke-width="3" d="M70 340l880 0"/>
<text stroke="none" fill="black" font-size="16" x="38" y="348">
0.0
</text>
<path stroke="black" stroke-width="3" stroke-dasharray="1,2" d="M70 249l880 0"/>
<text stroke="none" fill="black" font-size="16" x="18" y="257">
200.0
</text>
<path stroke="black" stroke-width="3" stroke-dasharray="1,2" d="M70 158l880 0"/>
<text stroke="none" fill="black" font-size="16" x="18" y="166">
400.0
</text>
<path stroke="black" stroke-width="3" stroke-dasharray="1,2" d="M70 67l880 0"/>
<text stroke="none" fill="black" font-size="16" x="18" y="75">
600.0
</text>
<text stroke="none" fill="black" font-size="16" x="10" y="32">
uA
</text>
<path stroke="red" d="M440 23l44 0"/>
<text stroke="none" fill="black" font-size="16" x="494" y="32">
-i(v_supply)
</text>
<path stroke="red" d="M70 340l4 0M74 682l0 -342M74 682l1 17 0 -582M75 341l1 -2M76 341l0 -2M76 341l1 -2M77 341l0 -2 1 2 0 -2 1 2 0 -2M79 341l1 -2M80 341l0 -2M80 340l12 0 0 -30M92 311l1 2M93 314l0 -118M93 199l1 85M94 351l0 -129M94 351l1 -22M95 351l0 -22"/>
<path stroke="red" d="M95 350l1 -20M96 350l0 -20M96 331l1 18 0 -18M97 348l1 -16M98 348l0 -16M98 347l1 -14M99 347l0 -14M99 334l1 12 0 -12 1 12 0 -11M101 345l1 -10M102 345l0 -10M102 336l1 8 0 -8 1 8 0 -8M104 343l1 -6M105 343l0 -6 1 6 0 -6M106 338l1 4"/>
<path stroke="red" d="M107 342l0 -4M107 342l1 -4M108 342l0 -4M108 339l1 2 0 -2 1 2 0 -2M110 341l1 -2M111 341l0 -2M111 340l3 0M114 341l0 -42 1 -6M115 301l0 -77M115 246l1 -2M116 344l0 -119M116 343l1 -7M117 346l0 -12M117 346l1 -12M118 374l0 -40"/>
<path stroke="red" d="M118 374l1 2M119 461l0 -290 1 87M120 344l0 -123M120 335l1 9M121 345l0 -10M121 345l1 -10M122 345l0 -10M122 345l1 -10M123 345l0 -10 1 10 0 -10M124 345l1 -10M125 345l0 -10M125 345l1 -10M126 346l0 -12 1 12 0 -12M127 346l1 -12"/>
<path stroke="red" d="M128 346l0 -12M128 346l1 -12M129 346l0 -12 1 12 0 -12 1 12 0 -12M131 346l1 -12M132 346l0 -12 1 12 0 -12 1 12 0 -12M134 346l1 -12M135 346l0 -12 1 12M136 347l0 -54 1 -5M137 291l0 -115M137 269l1 -20M138 352l0 -131M138 328l1 24"/>
<path stroke="red" d="M139 352l0 -24M139 329l1 22 0 -22M140 351l1 -22M141 351l0 -22M141 350l1 -20M142 350l0 -20 1 20 0 -20M143 349l1 -18M144 349l0 -18M144 349l1 -18M145 349l0 -18 1 18 0 -18M146 348l1 -16M147 348l0 -16M147 348l1 -16M148 348l0 -16"/>
<path stroke="red" d="M148 332l1 16 0 -16M149 347l1 -14M150 347l0 -14M150 347l1 -14M151 347l0 -14 1 14 0 -14 1 13 0 -12M153 346l1 -12M154 346l0 -12 1 12 0 -12 1 12 0 -12M156 346l1 -12M157 346l0 -12 1 11 0 -35M158 311l1 2M159 336l0 -162 1 84M160 340l0 -125"/>
<path stroke="red" d="M160 339l1 2 0 -2 1 2M162 424l0 -85M162 424l1 5 0 -143M163 340l17 0 0 -30M180 311l1 2M181 314l0 -121M181 239l1 13M182 353l0 -137M182 353l1 -26M183 355l0 -30M183 355l1 -30M184 355l0 -30M184 326l1 28 0 -28M185 327l1 26 0 -26"/>
<path stroke="red" d="M186 352l1 -24M187 352l0 -24M187 329l1 22 0 -22M188 330l1 20 0 -20M189 349l1 -18M190 349l0 -18 1 18 0 -17 1 16 0 -16M192 347l1 -14M193 347l0 -14 1 14 0 -14M194 334l1 12 0 -12M195 346l1 -12M196 345l0 -11M196 345l1 -10M197 345l0 -10"/>
<path stroke="red" d="M197 335l1 10 0 -10M198 344l1 -8M199 344l0 -8M199 344l1 -8M200 344l0 -8M200 337l1 6 0 -6M201 343l1 -6M202 343l0 -44 1 -6M203 320l0 -140 1 38M204 346l0 -128M204 346l1 -13M205 346l0 -13M205 346l1 -12M206 374l0 -40M206 374l1 2"/>
<path stroke="red" d="M207 458l0 -253M207 270l1 -31M208 377l0 -167M208 368l1 -55M209 366l0 -53M209 317l1 46 0 -46 1 45 0 -44M211 362l1 -44M212 362l0 -44 1 43 0 -42 1 42 0 -42M214 361l1 -42M215 360l0 -41M215 320l1 40 0 -40 1 40 0 -40M217 359l1 -38"/>
<path stroke="red" d="M218 359l0 -38 1 38 0 -38 1 38 0 -38M220 358l1 -36M221 358l0 -36M221 358l1 -36M222 358l0 -36 1 36 0 -36M223 357l1 -34M224 357l0 -64 1 -5M225 306l0 -131M225 231l1 -56M226 340l0 -165M226 338l1 3 0 -3M227 339l1 2 0 -2M228 341l1 -2"/>
<path stroke="red" d="M229 341l0 -2 1 2 0 -2 1 2 0 -2M231 341l1 -2M232 341l0 -2M232 341l1 -2M233 341l0 -2 1 2 0 -2M234 341l1 -2M235 341l0 -2M235 341l1 -2M236 341l0 -2 1 2 0 -2M237 341l1 -2M238 341l0 -2M238 341l1 -2M239 341l0 -2 1 2 0 -2M240 341l1 -2"/>
<path stroke="red" d="M241 341l0 -2M241 341l1 -2M242 341l0 -2 1 2 0 -2 1 2 0 -2M244 341l1 -2M245 341l0 -2 1 2 0 -42 1 -6M247 302l0 -98M247 248l1 -7M248 350l0 -131M248 329l1 22M249 352l0 -24 1 24M250 460l0 -132M250 460l1 5 0 -270 1 2M252 341l0 -144"/>
<path stroke="red" d="M252 338l1 3 0 -3M253 341l1 -2M254 341l0 -2M254 341l1 -2M255 341l0 -2 1 2 0 -2M256 341l1 -2M257 341l0 -2M257 341l1 -2M258 341l0 -2 1 2 0 -2M259 340l9 0 0 -30M268 311l1 2M269 314l0 -121M269 239l1 13M270 353l0 -137M270 353l1 -26"/>
<path stroke="red" d="M271 355l0 -30M271 355l1 -30M272 355l0 -30M272 326l1 28 0 -28M273 353l1 -26M274 353l0 -26M274 352l1 -24M275 352l0 -24M275 329l1 22 0 -22M276 330l1 20 0 -20M277 349l1 -18M278 349l0 -18 1 18 0 -17 1 16 0 -16M280 347l1 -14"/>
<path stroke="red" d="M281 347l0 -14 1 14 0 -14M282 334l1 12 0 -12M283 346l1 -12M284 345l0 -11M284 335l1 10 0 -10 1 10 0 -10M286 344l1 -8M287 344l0 -8M287 344l1 -8M288 344l0 -8M288 337l1 6 0 -6M289 343l1 -6M290 343l0 -44 1 -6M291 320l0 -140 1 38"/>
<path stroke="red" d="M292 346l0 -128M292 346l1 -13M293 346l0 -13M293 346l1 -12M294 374l0 -40M294 374l1 2M295 458l0 -253M295 270l1 -31M296 377l0 -167M296 368l1 -55M297 366l0 -53M297 317l1 46 0 -46 1 45 0 -44M299 362l1 -44M300 362l0 -44 1 43 0 -42"/>
<path stroke="red" d="M301 319l1 42 0 -42M302 361l1 -42M303 360l0 -41M303 320l1 40 0 -40 1 40 0 -40M305 359l1 -38M306 359l0 -38 1 38 0 -38 1 38 0 -38M308 358l1 -36M309 358l0 -36M309 358l1 -36M310 358l0 -36 1 36 0 -36M311 357l1 -34M312 357l0 -64"/>
<path stroke="red" d="M312 293l1 -5M313 306l0 -131M313 231l1 -56M314 340l0 -165M314 338l1 3 0 -3M315 339l1 2 0 -2M316 341l1 -2M317 341l0 -2 1 2 0 -2 1 2 0 -2M319 341l1 -2M320 341l0 -2M320 341l1 -2M321 341l0 -2 1 2 0 -2M322 341l1 -2M323 341l0 -2"/>
<path stroke="red" d="M323 341l1 -2M324 341l0 -2 1 2 0 -2M325 341l1 -2M326 341l0 -2M326 341l1 -2M327 341l0 -2 1 2 0 -2M328 341l1 -2M329 341l0 -2M329 341l1 -2M330 341l0 -2 1 2 0 -2 1 2 0 -2M332 341l1 -2M333 341l0 -2 1 2 0 -48 1 -5 0 -115M335 245l1 9"/>
<path stroke="red" d="M336 363l0 -148M336 359l1 -38M337 359l0 -38M337 357l1 -34M338 425l0 -102M338 425l1 5 0 -146M339 340l17 0 0 -30M356 311l1 2M357 314l0 -118M357 198l1 86M358 351l0 -129M358 351l1 -22M359 351l0 -22M359 350l1 -20M360 350l0 -20"/>
<path stroke="red" d="M360 331l1 18 0 -18M361 332l1 16 0 -16M362 347l1 -14M363 347l0 -14M363 334l1 12 0 -12 1 11 0 -10M365 345l1 -10M366 345l0 -10M366 336l1 8 0 -8 1 8 0 -8M368 343l1 -6M369 343l0 -6 1 6 0 -6M370 338l1 4 0 -4M371 342l1 -4M372 342l0 -4"/>
<path stroke="red" d="M372 341l1 -2M373 341l0 -2 1 2 0 -2M374 341l1 -2M375 341l0 -2M375 340l3 0M378 341l0 -42 1 -6M379 301l0 -77M379 246l1 -2M380 344l0 -119M380 343l1 -7M381 346l0 -12M381 346l1 -12M382 374l0 -40M382 374l1 2M383 461l0 -290M383 258l1 3"/>
<path stroke="red" d="M384 344l0 -122M384 335l1 10 0 -10M385 345l1 -10M386 345l0 -10M386 345l1 -10M387 345l0 -10 1 10 0 -10M388 345l1 -10M389 345l0 -10M389 345l1 -10M390 346l0 -12 1 12 0 -12M391 346l1 -12M392 346l0 -12M392 346l1 -12M393 346l0 -12"/>
<path stroke="red" d="M393 334l1 12 0 -12 1 12 0 -12M395 346l1 -12M396 346l0 -12 1 12 0 -12 1 12 0 -12M398 346l1 -12M399 347l0 -14 1 14 0 -54 1 -5M401 291l0 -115M401 269l1 -20M402 352l0 -132M402 328l1 24 0 -24M403 329l1 22 0 -22M404 351l1 -22"/>
<path stroke="red" d="M405 351l0 -22M405 350l1 -20M406 350l0 -20 1 20 0 -20M407 350l1 -19M408 349l0 -18M408 349l1 -18M409 349l0 -18 1 18 0 -18M410 348l1 -16M411 348l0 -16M411 348l1 -16M412 348l0 -16 1 16 0 -16M413 347l1 -14M414 347l0 -14M414 347l1 -14"/>
<path stroke="red" d="M415 347l0 -14 1 14 0 -14 1 14 0 -14M417 346l1 -12M418 346l0 -12 1 12 0 -12 1 12 0 -12M420 346l1 -12M421 346l0 -12 1 12 0 -36M422 311l1 2M423 314l0 -118M423 297l1 -5M424 345l0 -123M424 345l1 -10M425 345l0 -10M425 344l1 -8"/>
<path stroke="red" d="M426 511l0 -175M426 511l1 9 0 -292M427 339l1 2 0 -2M428 341l1 -2M429 341l0 -2M429 340l15 0 0 -30M444 311l1 2M445 314l0 -142 1 76M446 384l0 -155M446 367l1 -53M447 365l0 -51M447 361l1 -42M448 361l0 -42M448 320l1 40 0 -40M449 321l1 38"/>
<path stroke="red" d="M450 359l0 -38M450 359l1 -38M451 359l0 -38M451 322l1 36 0 -36M452 323l1 34 0 -34M453 357l1 -34M454 357l0 -34M454 324l1 32 0 -32M455 325l1 30 0 -30M456 355l1 -30M457 355l0 -30M457 326l1 28 0 -28 1 28 0 -28M459 354l1 -27M460 353l0 -26"/>
<path stroke="red" d="M460 353l1 -26M461 353l0 -26 1 26 0 -26M462 352l1 -24M463 352l0 -24M463 352l1 -24M464 352l0 -24 1 24 0 -24M465 351l1 -22M466 351l0 -52 1 -6M467 302l0 -78M467 235l1 41M468 353l0 -125M468 325l1 29 0 -29M469 327l1 26M470 374l0 -47"/>
<path stroke="red" d="M470 374l1 1M471 461l0 -282M471 196l1 55M472 342l0 -112M472 340l1 0M473 341l0 -2M473 341l1 -2M474 341l0 -2M474 341l1 -2M475 341l0 -2 1 2 0 -2M476 341l1 -2M477 341l0 -2M477 340l9 0 1 1 0 -2M487 341l1 -2M488 341l0 -48 1 -5"/>
<path stroke="red" d="M489 291l0 -115M489 251l1 -8M490 348l0 -117M490 348l1 -18M491 349l0 -19M491 349l1 -18M492 349l0 -18M492 332l1 16 0 -16M493 333l1 14 0 -14M494 346l1 -12M495 346l0 -12 1 12 0 -12M496 335l1 10 0 -10M497 345l1 -10M498 344l0 -9"/>
<path stroke="red" d="M498 336l1 8 0 -8 1 7 0 -6M500 343l1 -6M501 343l0 -6 1 6 0 -6M502 338l1 4 0 -4M503 342l1 -4M504 342l0 -4M504 342l1 -3M505 341l0 -2 1 2 0 -2M506 341l1 -2M507 341l0 -2M507 341l1 -2M508 341l0 -2M508 340l2 0 0 -30M510 311l1 2"/>
<path stroke="red" d="M511 333l0 -122 1 -14M512 347l0 -150M512 346l1 -12M513 346l0 -12M513 345l1 -10M514 424l0 -89M514 424l1 5 0 -143M515 340l17 0 0 -30M532 311l1 2M533 314l0 -121M533 228l1 57M534 345l0 -108M534 333l1 13 0 -12M535 335l1 10 0 -10"/>
<path stroke="red" d="M536 345l1 -10M537 345l0 -10M537 344l1 -8M538 344l0 -8M538 337l1 6 0 -6M539 343l1 -6M540 343l0 -6M540 342l1 -4M541 342l0 -4 1 4 0 -4M542 341l1 -2M543 341l0 -2M543 341l1 -2M544 341l0 -2 1 2 0 -2M545 340l3 0M548 341l0 -2M548 341l1 -2"/>
<path stroke="red" d="M549 341l0 -2 1 2 0 -2M550 341l1 -2M551 341l0 -2M551 341l1 -2M552 342l0 -4 1 4 0 -4M553 342l1 -4M554 342l0 -43 1 -6M555 319l0 -98M555 225l1 -34M556 366l0 -175M556 328l1 22 0 -19M557 334l1 12M558 374l0 -40M558 374l1 2M559 458l0 -253"/>
<path stroke="red" d="M559 247l1 66M560 356l0 -154M560 356l1 -33M561 356l0 -33M561 324l1 32 0 -32M562 325l1 30 0 -30M563 355l1 -30M564 355l0 -30M564 326l1 28 0 -28 1 28 0 -28M566 353l1 -26M567 353l0 -26 1 26 0 -26 1 26 0 -26M569 352l1 -24M570 352l0 -24"/>
<path stroke="red" d="M570 352l1 -24M571 352l0 -24 1 24 0 -24M572 351l1 -22M573 351l0 -22M573 351l1 -22M574 351l0 -22 1 22 0 -22M575 351l1 -22M576 351l0 -58 1 -5M577 305l0 -130M577 242l1 -18M578 359l0 -173M578 352l1 -23M579 350l0 -21M579 347l1 -14"/>
<path stroke="red" d="M580 347l0 -14 1 14M581 348l0 -16 1 16 0 -16M582 348l1 -16M583 348l0 -16 1 16 0 -16 1 16M585 349l0 -18M585 349l1 -18M586 349l0 -18 1 18 0 -18 1 18 0 -18M588 349l1 -18M589 349l0 -18 1 18 0 -18 1 19 0 -20M591 350l1 -20M592 350l0 -20"/>
<path stroke="red" d="M592 350l1 -20M593 350l0 -20 1 20 0 -20M594 350l1 -20M595 350l0 -20M595 350l1 -20M596 350l0 -20 1 20 0 -20M597 350l1 -20M598 350l0 -51 1 -6M599 302l0 -98M599 283l1 28M600 349l0 -113M600 349l1 -18M601 349l0 -18M601 348l1 -16"/>
<path stroke="red" d="M602 459l0 -127M602 459l1 7 0 -231 1 -47M604 380l0 -192M604 361l1 -40M605 358l0 -37M605 325l1 30 0 -30 1 30 0 -29M607 354l1 -28M608 354l0 -28 1 28 0 -28 1 28 0 -28M610 354l1 -28M611 354l0 -28 1 28 0 -28M612 327l1 26 0 -26"/>
<path stroke="red" d="M613 353l1 -26M614 353l0 -26M614 353l1 -26M615 353l0 -26 1 26 0 -26M616 353l1 -26M617 353l0 -26M617 353l1 -26M618 353l0 -26 1 26 0 -26M619 352l1 -24M620 352l0 -42M620 311l1 2M621 314l0 -121M621 228l1 57M622 345l0 -108M622 333l1 13"/>
<path stroke="red" d="M623 346l0 -12M623 335l1 10 0 -10M624 345l1 -10M625 345l0 -10M625 344l1 -8M626 344l0 -8M626 337l1 6 0 -6M627 343l1 -6M628 343l0 -6M628 342l1 -4M629 342l0 -4 1 4 0 -4M630 341l1 -2M631 341l0 -2M631 341l1 -2M632 341l0 -2 1 2"/>
<path stroke="red" d="M633 341l0 -2M633 340l3 0M636 341l0 -2M636 341l1 -2M637 341l0 -2 1 2 0 -2M638 341l1 -2M639 341l0 -2M639 341l1 -2M640 342l0 -4 1 4 0 -4M641 342l1 -4M642 342l0 -43 1 -6M643 319l0 -98M643 225l1 -34M644 366l0 -175M644 328l1 22"/>
<path stroke="red" d="M645 350l0 -19M645 334l1 12M646 374l0 -40M646 374l1 2M647 458l0 -253M647 247l1 66M648 356l0 -154M648 356l1 -33M649 356l0 -33M649 324l1 32 0 -32M650 325l1 30 0 -30M651 355l1 -30M652 355l0 -30M652 326l1 28 0 -28 1 28 0 -28"/>
<path stroke="red" d="M654 353l1 -26M655 353l0 -26 1 26 0 -26 1 26 0 -26M657 352l1 -24M658 352l0 -24M658 352l1 -24M659 352l0 -24 1 24 0 -24M660 351l1 -22M661 351l0 -22M661 351l1 -22M662 351l0 -22 1 22 0 -22M663 351l1 -22M664 351l0 -58 1 -5M665 305l0 -130"/>
<path stroke="red" d="M665 242l1 -18M666 359l0 -173M666 352l1 -23M667 350l0 -21M667 347l1 -14M668 347l0 -14 1 14M669 348l0 -16 1 16 0 -16M670 348l1 -16M671 348l0 -16 1 16 0 -16 1 16M673 349l0 -18M673 349l1 -18M674 349l0 -18 1 18 0 -18 1 18 0 -18"/>
<path stroke="red" d="M676 349l1 -18M677 349l0 -18 1 18 0 -19 1 20 0 -20M679 350l1 -20M680 350l0 -20M680 350l1 -20M681 350l0 -20 1 20 0 -20M682 350l1 -20M683 350l0 -20M683 350l1 -20M684 350l0 -20 1 20 0 -20M685 350l1 -20M686 350l0 -57 1 -5 0 -115"/>
<path stroke="red" d="M687 244l1 55M688 341l0 -123M688 341l1 -3M689 341l0 -3M689 341l1 -2M690 426l0 -87M690 426l1 4 0 -146M691 340l17 0 0 -30M708 311l1 2M709 314l0 -142 1 76M710 384l0 -155M710 367l1 -53M711 365l0 -51M711 361l1 -42M712 361l0 -42"/>
<path stroke="red" d="M712 320l1 40 0 -40M713 321l1 38 0 -38M714 359l1 -38M715 359l0 -38M715 322l1 36 0 -36M716 323l1 34 0 -34M717 357l1 -34M718 357l0 -34M718 324l1 32 0 -32M719 325l1 30 0 -30M720 355l1 -30M721 355l0 -30M721 326l1 28 0 -28 1 28"/>
<path stroke="red" d="M723 354l0 -28M723 353l1 -26M724 353l0 -26M724 353l1 -26M725 353l0 -26 1 26 0 -26M726 352l1 -24M727 352l0 -24M727 352l1 -24M728 352l0 -24 1 24 0 -24M729 351l1 -22M730 351l0 -52 1 -6M731 302l0 -78M731 235l1 42M732 353l0 -125"/>
<path stroke="red" d="M732 325l1 29 0 -29M733 327l1 26M734 374l0 -47M734 374l1 1M735 461l0 -281M735 196l1 55M736 342l0 -112M736 340l1 0M737 341l0 -2M737 341l1 -2M738 341l0 -2M738 341l1 -2M739 341l0 -2 1 2 0 -2M740 341l1 -2M741 341l0 -2M741 340l9 0"/>
<path stroke="red" d="M750 340l0 -1 1 2 0 -2M751 341l1 -2M752 341l0 -48 1 -5M753 291l0 -115M753 251l1 -8M754 348l0 -117M754 348l1 -18M755 349l0 -19M755 349l1 -18M756 348l0 -17M756 332l1 16 0 -16M757 333l1 14 0 -14M758 346l1 -12M759 346l0 -12"/>
<path stroke="red" d="M759 334l1 12 0 -12M760 335l1 10 0 -10M761 344l1 -8M762 344l0 -8 1 8 0 -8M763 337l1 6 0 -6M764 343l1 -6M765 343l0 -6 1 6 0 -5 1 4 0 -4M767 342l1 -4M768 342l0 -4M768 341l1 -2M769 341l0 -2 1 2 0 -2M770 341l1 -2M771 341l0 -2"/>
<path stroke="red" d="M771 340l3 0 0 -41 1 -6M775 301l0 -77M775 258l1 -14M776 346l0 -122M776 334l1 12M777 347l0 -14 1 14M778 545l0 -212M778 545l1 10 0 -378M779 262l1 53M780 352l0 -134M780 327l1 25 0 -24M781 352l1 -24M782 352l0 -24M782 352l1 -24"/>
<path stroke="red" d="M783 352l0 -24M783 329l1 22 0 -22M784 351l1 -22M785 351l0 -22M785 351l1 -22M786 351l0 -22M786 330l1 20 0 -20M787 350l1 -20M788 350l0 -20M788 350l1 -20M789 350l0 -20 1 20 0 -20M790 331l1 18 0 -18M791 349l1 -18M792 349l0 -18"/>
<path stroke="red" d="M792 331l1 18 0 -18 1 18 0 -18M794 349l1 -18M795 348l0 -17M795 332l1 16 0 -38M796 311l1 2M797 314l0 -142 1 76M798 384l0 -155M798 367l1 -53M799 365l0 -51M799 361l1 -42M800 361l0 -42M800 320l1 40 0 -40M801 321l1 38 0 -38M802 359l1 -38"/>
<path stroke="red" d="M803 359l0 -38M803 322l1 36 0 -36M804 323l1 34 0 -34M805 357l1 -34M806 357l0 -34M806 324l1 32 0 -32M807 325l1 30 0 -30M808 355l1 -30M809 355l0 -30M809 326l1 28 0 -28 1 28 0 -28M811 354l1 -27M812 353l0 -26M812 353l1 -26M813 353l0 -26"/>
<path stroke="red" d="M813 327l1 26 0 -26M814 352l1 -24M815 352l0 -24M815 352l1 -24M816 352l0 -24 1 24 0 -24M817 351l1 -22M818 351l0 -52 1 -6M819 302l0 -78M819 235l1 41M820 353l0 -125M820 325l1 29 0 -29M821 327l1 26M822 374l0 -47M822 374l1 1"/>
<path stroke="red" d="M823 461l0 -282M823 215l1 -19M824 342l0 -146M824 340l1 0M825 341l0 -2M825 341l1 -2M826 341l0 -2M826 341l1 -2M827 341l0 -2 1 2 0 -2M828 341l1 -2M829 341l0 -2M829 340l9 0 1 1 0 -2M839 341l1 -2M840 341l0 -48 1 -5M841 291l0 -115"/>
<path stroke="red" d="M841 251l1 -8M842 348l0 -117M842 348l1 -18M843 349l0 -19M843 349l1 -18M844 349l0 -18M844 332l1 16 0 -16M845 333l1 14 0 -14M846 346l1 -12M847 346l0 -12 1 12 0 -12M848 335l1 10 0 -10M849 345l1 -10M850 344l0 -9M850 336l1 8"/>
<path stroke="red" d="M851 344l0 -8 1 7 0 -6M852 343l1 -6M853 343l0 -6 1 6 0 -6M854 338l1 4 0 -4M855 342l1 -4M856 342l0 -4M856 342l1 -3M857 341l0 -2 1 2 0 -2M858 341l1 -2M859 341l0 -2M859 341l1 -2M860 341l0 -2M860 340l2 0 0 -30M862 311l1 2M863 333l0 -122"/>
<path stroke="red" d="M863 211l1 -14M864 347l0 -150M864 346l1 -12M865 346l0 -12M865 345l1 -10M866 424l0 -89M866 424l1 5 0 -143M867 340l17 0 0 -30M884 311l1 2M885 314l0 -121M885 228l1 57M886 345l0 -108M886 333l1 13 0 -12M887 335l1 10 0 -10M888 345l1 -10"/>
<path stroke="red" d="M889 345l0 -10M889 344l1 -8M890 344l0 -8M890 337l1 6 0 -6M891 343l1 -6M892 343l0 -6M892 342l1 -4M893 342l0 -4 1 4 0 -4M894 341l1 -2M895 341l0 -2M895 341l1 -2M896 341l0 -2 1 2 0 -2M897 340l3 0M900 341l0 -2M900 341l1 -2M901 341l0 -2"/>
<path stroke="red" d="M901 339l1 2 0 -2M902 341l1 -2M903 341l0 -2M903 341l1 -2M904 342l0 -4 1 4 0 -4M905 342l1 -4M906 342l0 -43 1 -6M907 319l0 -98M907 225l1 -34M908 366l0 -175M908 328l1 22 0 -19M909 334l1 12M910 374l0 -40M910 374l1 2M911 458l0 -253"/>
<path stroke="red" d="M911 253l1 -6M912 356l0 -154M912 356l1 -33M913 356l0 -33M913 324l1 32 0 -32M914 325l1 30 0 -30M915 355l1 -30M916 355l0 -30M916 326l1 28 0 -28 1 28 0 -28M918 353l1 -26M919 353l0 -26 1 26 0 -26 1 26 0 -26M921 352l1 -24M922 352l0 -24"/>
<path stroke="red" d="M922 352l1 -24M923 352l0 -24 1 24 0 -24M924 351l1 -22M925 351l0 -22M925 351l1 -22M926 351l0 -22 1 22 0 -22M927 351l1 -22M928 351l0 -58 1 -5M929 305l0 -130M929 242l1 -18M930 359l0 -173M930 352l1 -23M931 350l0 -21M931 347l1 -14"/>
<path stroke="red" d="M932 347l0 -14 1 14M933 348l0 -16 1 16 0 -16M934 348l1 -16M935 348l0 -16 1 16 0 -16 1 16M937 349l0 -18M937 349l1 -18M938 349l0 -18 1 18 0 -18 1 18 0 -18M940 349l1 -18M941 349l0 -18 1 18 0 -19 1 20 0 -20M943 350l1 -20M944 350l0 -20"/>
<path stroke="red" d="M944 350l1 -20M945 350l0 -20 1 20 0 -20M946 350l1 -20M947 350l0 -20M947 350l1 -20M948 350l0 -20 1 20 0 -20M949 350l1 -20M950 350l0 -20"/>
</svg>
