<?xml version="1.0" standalone="yes"?>
<!DOCTYPE svg PUBLIC "-//W3C//DTD SVG 1.1//EN"
 "http://www.w3.org/Graphics/SVG/1.1/DTD/svg11.dtd">
<svg xmlns="http://www.w3.org/2000/svg" version="1.1"
  width="100%" height="100%" viewBox="0 0 1024 768"
  style="fill: none; stroke-width: 3; font-family: Helvetica;
 font: Helvetica;
">

<!-- Creator: NGspice -->

<rect x="0" y="0" width="1024" height="768" fill="white" stroke="none"/>
<text stroke="none" fill="black" font-size="16" x="358" y="752">
time
</text>
<text stroke="none" fill="black" font-size="16" x="10" y="16">
tran1: Even Parity Output
</text>
<path stroke="black" stroke-width="3" d="M50 704l0 -638"/>
<text stroke="none" fill="black" font-size="16" x="35" y="728">
0.0
</text>
<path stroke="black" stroke-width="3" stroke-dasharray="1,2" d="M142 704l0 -638"/>
<text stroke="none" fill="black" font-size="16" x="122" y="728">
20.0
</text>
<path stroke="black" stroke-width="3" stroke-dasharray="1,2" d="M234 704l0 -638"/>
<text stroke="none" fill="black" font-size="16" x="214" y="728">
40.0
</text>
<path stroke="black" stroke-width="3" stroke-dasharray="1,2" d="M326 704l0 -638"/>
<text stroke="none" fill="black" font-size="16" x="306" y="728">
60.0
</text>
<path stroke="black" stroke-width="3" stroke-dasharray="1,2" d="M418 704l0 -638"/>
<text stroke="none" fill="black" font-size="16" x="398" y="728">
80.0
</text>
<path stroke="black" stroke-width="3" stroke-dasharray="1,2" d="M510 704l0 -638"/>
<text stroke="none" fill="black" font-size="16" x="485" y="728">
100.0
</text>
<path stroke="black" stroke-width="3" stroke-dasharray="1,2" d="M602 704l0 -638"/>
<text stroke="none" fill="black" font-size="16" x="577" y="728">
120.0
</text>
<path stroke="black" stroke-width="3" stroke-dasharray="1,2" d="M694 704l0 -638"/>
<text stroke="none" fill="black" font-size="16" x="669" y="728">
140.0
</text>
<path stroke="black" stroke-width="3" stroke-dasharray="1,2" d="M786 704l0 -638"/>
<text stroke="none" fill="black" font-size="16" x="761" y="728">
160.0
</text>
<path stroke="black" stroke-width="3" stroke-dasharray="1,2" d="M878 704l0 -638"/>
<text stroke="none" fill="black" font-size="16" x="853" y="728">
180.0
</text>
<path stroke="black" stroke-width="3" stroke-dasharray="1,2" d="M970 704l0 -638"/>
<text stroke="none" fill="black" font-size="16" x="945" y="728">
200.0
</text>
<text stroke="none" fill="black" font-size="16" x="614" y="752">
ns
</text>
<path stroke="black" stroke-width="3" stroke-dasharray="1,2" d="M50 704l920 0"/>
<text stroke="none" fill="black" font-size="16" x="8" y="712">
-0.2
</text>
<path stroke="black" stroke-width="3" d="M50 646l920 0"/>
<text stroke="none" fill="black" font-size="16" x="18" y="654">
0.0
</text>
<path stroke="black" stroke-width="3" stroke-dasharray="1,2" d="M50 588l920 0"/>
<text stroke="none" fill="black" font-size="16" x="18" y="596">
0.2
</text>
<path stroke="black" stroke-width="3" stroke-dasharray="1,2" d="M50 530l920 0"/>
<text stroke="none" fill="black" font-size="16" x="18" y="538">
0.4
</text>
<path stroke="black" stroke-width="3" stroke-dasharray="1,2" d="M50 472l920 0"/>
<text stroke="none" fill="black" font-size="16" x="18" y="480">
0.6
</text>
<path stroke="black" stroke-width="3" stroke-dasharray="1,2" d="M50 414l920 0"/>
<text stroke="none" fill="black" font-size="16" x="18" y="422">
0.8
</text>
<path stroke="black" stroke-width="3" stroke-dasharray="1,2" d="M50 356l920 0"/>
<text stroke="none" fill="black" font-size="16" x="18" y="364">
1.0
</text>
<path stroke="black" stroke-width="3" stroke-dasharray="1,2" d="M50 298l920 0"/>
<text stroke="none" fill="black" font-size="16" x="18" y="306">
1.2
</text>
<path stroke="black" stroke-width="3" stroke-dasharray="1,2" d="M50 240l920 0"/>
<text stroke="none" fill="black" font-size="16" x="18" y="248">
1.4
</text>
<path stroke="black" stroke-width="3" stroke-dasharray="1,2" d="M50 182l920 0"/>
<text stroke="none" fill="black" font-size="16" x="18" y="190">
1.6
</text>
<path stroke="black" stroke-width="3" stroke-dasharray="1,2" d="M50 124l920 0"/>
<text stroke="none" fill="black" font-size="16" x="18" y="132">
1.8
</text>
<path stroke="black" stroke-width="3" stroke-dasharray="1,2" d="M50 66l920 0"/>
<text stroke="none" fill="black" font-size="16" x="18" y="74">
2.0
</text>
<text stroke="none" fill="black" font-size="16" x="10" y="32">
V
</text>
<path stroke="red" d="M460 23l46 0"/>
<text stroke="none" fill="black" font-size="16" x="516" y="32">
v(out_parity)
</text>
<path stroke="red" d="M50 646l24 0 1 -1M75 669l0 -547M75 124l23 0M98 659l0 -562M98 650l1 -7M99 648l0 -5M99 646l3 0M102 653l0 -547M102 123l1 1 18 0M121 646l0 -560M121 646l22 0 1 -1M144 655l0 -548M144 124l23 0M167 657l0 -561M167 650l1 -7M168 648l0 -5"/>
<path stroke="red" d="M168 646l22 0M190 669l0 -548M190 124l4 0M194 666l0 -591M194 637l1 15 0 -11M195 646l18 0M213 668l0 -556M213 124l22 0 1 1M236 656l0 -561M236 644l1 4 0 -3M237 646l3 0M240 668l0 -546M240 124l19 0M259 657l0 -561M259 650l1 -7"/>
<path stroke="red" d="M260 648l0 -5M260 646l22 0M282 669l0 -548M282 124l4 0M286 666l0 -591M286 637l1 15 0 -11M287 646l18 0M305 668l0 -556M305 124l23 0M328 653l0 -573M328 644l1 3 0 -2M329 646l21 0 1 -1M351 669l0 -547M351 124l23 0M374 659l0 -562"/>
<path stroke="red" d="M374 650l1 -7M375 648l0 -5M375 646l3 0M378 653l0 -547M378 123l1 1 18 0M397 646l0 -560M397 646l22 0 1 -1M420 658l0 -547M420 124l23 0M443 670l0 -564M443 640l1 10 0 -7M444 646l22 0M466 666l0 -550M466 124l4 0M470 651l0 -558"/>
<path stroke="red" d="M470 644l1 4 0 -3M471 646l18 0M489 652l0 -544M489 126l1 -3M490 124l0 -1M490 124l22 0M512 648l0 -562M512 645l1 2 0 -2M513 646l22 0M535 666l0 -551M535 124l23 0M558 670l0 -564M558 654l1 -14M559 650l0 -10M559 646l3 0M562 659l0 -547"/>
<path stroke="red" d="M562 122l1 3 0 -2M563 124l18 0M581 661l0 -561M581 640l1 11 0 -9M582 646l22 0M604 665l0 -552M604 124l4 0M608 675l0 -566M608 634l1 21 0 -16M609 646l18 0M627 666l0 -551M627 124l23 0M650 670l0 -564M650 654l1 -14M651 650l0 -10"/>
<path stroke="red" d="M651 646l3 0M654 659l0 -547M654 122l1 3 0 -2M655 124l18 0M673 661l0 -561M673 640l1 11 0 -9M674 646l22 0M696 654l0 -547M696 123l1 1 22 0M719 670l0 -564M719 640l1 10 0 -7M720 646l22 0M742 666l0 -550M742 124l4 0M746 651l0 -558"/>
<path stroke="red" d="M746 644l1 4 0 -3M747 646l18 0M765 652l0 -544M765 126l1 -3M766 124l0 -1M766 124l21 0 1 1M788 654l0 -560M788 644l1 4 0 -3M789 646l3 0M792 667l0 -544M792 124l19 0M811 670l0 -564M811 640l1 10 0 -7M812 646l22 0M834 666l0 -550"/>
<path stroke="red" d="M834 124l4 0M838 651l0 -558M838 644l1 4 0 -3M839 646l18 0M857 652l0 -544M857 126l1 -3M858 124l0 -1M858 124l22 0M880 648l0 -562M880 645l1 2 0 -2M881 646l22 0M903 666l0 -551M903 124l23 0M926 670l0 -564M926 654l1 -14M927 650l0 -10"/>
<path stroke="red" d="M927 646l3 0M930 659l0 -547M930 122l1 3 0 -2M931 124l18 0M949 661l0 -561M949 640l1 11 0 -9M950 646l20 0"/>
</svg>
