<?xml version="1.0" standalone="yes"?>
<!DOCTYPE svg PUBLIC "-//W3C//DTD SVG 1.1//EN"
 "http://www.w3.org/Graphics/SVG/1.1/DTD/svg11.dtd">
<svg xmlns="http://www.w3.org/2000/svg" version="1.1"
  width="100%" height="100%" viewBox="0 0 1024 768"
  style="fill: none; stroke-width: 3; font-family: Helvetica;
 font: Helvetica;
">

<!-- Creator: NGspice -->

<rect x="0" y="0" width="1024" height="768" fill="white" stroke="none"/>
<text stroke="none" fill="black" font-size="16" x="358" y="752">
time
</text>
<text stroke="none" fill="black" font-size="16" x="10" y="16">
tran1: Even Parity Output
</text>
<path stroke="black" stroke-width="3" d="M50 704l0 -638"/>
<text stroke="none" fill="black" font-size="16" x="35" y="728">
0.0
</text>
<path stroke="black" stroke-width="3" stroke-dasharray="1,2" d="M204 704l0 -638"/>
<text stroke="none" fill="black" font-size="16" x="189" y="728">
0.5
</text>
<path stroke="black" stroke-width="3" stroke-dasharray="1,2" d="M358 704l0 -638"/>
<text stroke="none" fill="black" font-size="16" x="343" y="728">
1.0
</text>
<path stroke="black" stroke-width="3" stroke-dasharray="1,2" d="M512 704l0 -638"/>
<text stroke="none" fill="black" font-size="16" x="497" y="728">
1.5
</text>
<path stroke="black" stroke-width="3" stroke-dasharray="1,2" d="M666 704l0 -638"/>
<text stroke="none" fill="black" font-size="16" x="651" y="728">
2.0
</text>
<path stroke="black" stroke-width="3" stroke-dasharray="1,2" d="M820 704l0 -638"/>
<text stroke="none" fill="black" font-size="16" x="805" y="728">
2.5
</text>
<path stroke="black" stroke-width="3" stroke-dasharray="1,2" d="M974 704l0 -638"/>
<text stroke="none" fill="black" font-size="16" x="959" y="728">
3.0
</text>
<text stroke="none" fill="black" font-size="16" x="614" y="752">
us
</text>
<path stroke="black" stroke-width="3" stroke-dasharray="1,2" d="M50 704l924 0"/>
<text stroke="none" fill="black" font-size="16" x="8" y="712">
-0.2
</text>
<path stroke="black" stroke-width="3" d="M50 646l924 0"/>
<text stroke="none" fill="black" font-size="16" x="18" y="654">
0.0
</text>
<path stroke="black" stroke-width="3" stroke-dasharray="1,2" d="M50 588l924 0"/>
<text stroke="none" fill="black" font-size="16" x="18" y="596">
0.2
</text>
<path stroke="black" stroke-width="3" stroke-dasharray="1,2" d="M50 530l924 0"/>
<text stroke="none" fill="black" font-size="16" x="18" y="538">
0.4
</text>
<path stroke="black" stroke-width="3" stroke-dasharray="1,2" d="M50 472l924 0"/>
<text stroke="none" fill="black" font-size="16" x="18" y="480">
0.6
</text>
<path stroke="black" stroke-width="3" stroke-dasharray="1,2" d="M50 414l924 0"/>
<text stroke="none" fill="black" font-size="16" x="18" y="422">
0.8
</text>
<path stroke="black" stroke-width="3" stroke-dasharray="1,2" d="M50 356l924 0"/>
<text stroke="none" fill="black" font-size="16" x="18" y="364">
1.0
</text>
<path stroke="black" stroke-width="3" stroke-dasharray="1,2" d="M50 298l924 0"/>
<text stroke="none" fill="black" font-size="16" x="18" y="306">
1.2
</text>
<path stroke="black" stroke-width="3" stroke-dasharray="1,2" d="M50 240l924 0"/>
<text stroke="none" fill="black" font-size="16" x="18" y="248">
1.4
</text>
<path stroke="black" stroke-width="3" stroke-dasharray="1,2" d="M50 182l924 0"/>
<text stroke="none" fill="black" font-size="16" x="18" y="190">
1.6
</text>
<path stroke="black" stroke-width="3" stroke-dasharray="1,2" d="M50 124l924 0"/>
<text stroke="none" fill="black" font-size="16" x="18" y="132">
1.8
</text>
<path stroke="black" stroke-width="3" stroke-dasharray="1,2" d="M50 66l924 0"/>
<text stroke="none" fill="black" font-size="16" x="18" y="74">
2.0
</text>
<text stroke="none" fill="black" font-size="16" x="10" y="32">
V
</text>
<path stroke="red" d="M462 23l46 0"/>
<text stroke="none" fill="black" font-size="16" x="518" y="32">
v(out_parity)
</text>
<path stroke="red" d="M50 655l0 -531 1 0M51 652l0 -568M51 646l1 0M52 657l0 -545M52 646l1 0M53 659l0 -570M53 631l1 -27 0 -480 1 0M55 652l0 -569M55 646l2 0 0 -553M57 124l1 0M58 649l0 -566M58 646l2 0M60 648l0 -4M60 646l1 0 0 -522 2 0M63 652l0 -570"/>
<path stroke="red" d="M63 124l1 0M64 649l0 -566M64 646l2 0M66 648l0 -4M66 646l1 0 0 -522 2 0M69 652l0 -566M69 646l1 0 0 -522 2 0M72 641l0 -552M72 124l1 0M73 652l0 -569M73 646l2 0M75 647l0 -550M75 646l1 0M76 657l0 -573M76 646l2 0M78 667l0 -496"/>
<path stroke="red" d="M78 646l1 0M79 670l0 -546 2 0M81 667l0 -557M81 269l1 -84M82 662l0 -545M82 126l1 -1 0 -1 1 0M84 133l0 -21M84 124l1 0M85 125l0 -1M85 125l1 -5M86 646l0 -536M86 646l1 0M87 662l0 -538 1 0M88 669l0 -560M88 646l1 0M89 662l0 -538"/>
<path stroke="red" d="M89 124l1 0M90 133l0 -21M90 124l2 0M92 646l0 -536M92 646l1 0M93 656l0 -10M93 656l1 6 0 -552M94 124l1 0M95 646l0 -536M95 646l2 0M97 667l0 -496M97 646l1 0M98 670l0 -546 2 0M100 666l0 -556M100 646l1 0M101 669l0 -592M101 646l2 0"/>
<path stroke="red" d="M103 667l0 -466M103 646l1 0M104 670l0 -546 2 0M106 667l0 -557M106 646l1 0M107 662l0 -538 2 0M109 133l0 -21M109 124l1 0M110 646l0 -536M110 646l2 0M112 662l0 -553M112 646l1 0M113 669l0 -545 2 0M115 133l0 -21M115 124l1 0M116 646l0 -536"/>
<path stroke="red" d="M116 646l2 0M118 662l0 -552M118 170l1 -27M119 646l0 -536M119 646l2 0M121 667l0 -496M121 646l1 0M122 670l0 -312 1 -140 0 -94 1 0M124 646l0 -536M124 646l1 0M125 669l0 -584M125 646l1 0M126 651l0 -527 1 0M127 641l0 -552M127 124l2 0"/>
<path stroke="red" d="M129 652l0 -569M129 646l1 0 0 -308 1 -122M131 645l0 -552M131 124l1 0M132 649l0 -566M132 646l2 0M134 648l0 -4M134 646l1 0 0 -522 2 0M137 652l0 -570M137 124l1 0M138 649l0 -566M138 646l2 0M140 648l0 -4M140 646l1 0 0 -522 2 0"/>
<path stroke="red" d="M143 652l0 -566M143 646l1 0 0 -522 2 0M146 641l0 -552M146 124l1 0M147 652l0 -569M147 646l2 0M149 647l0 -550M149 646l1 0M150 657l0 -573M150 262l1 -81M151 646l0 -524M151 646l1 0M152 667l0 -465M152 646l1 0M153 670l0 -546 2 0"/>
<path stroke="red" d="M155 667l0 -557M155 645l1 0M156 662l0 -538 2 0M158 133l0 -21M158 124l1 0M159 645l0 -535M159 645l1 0M160 646l0 -1M160 646l1 0M161 662l0 -538 1 0M162 669l0 -560M162 647l1 2M163 662l0 -538 1 0M164 133l0 -21M164 124l2 0M166 646l0 -536"/>
<path stroke="red" d="M166 646l1 0M167 662l0 -538 1 0M168 633l0 -523M168 124l1 0M169 646l0 -536M169 646l1 0M170 667l0 -22M170 648l1 -180M171 646l0 -475M171 646l1 0M172 670l0 -546 2 0M174 666l0 -556M174 662l1 7 0 -576M175 124l2 0M177 641l0 -552"/>
<path stroke="red" d="M177 124l1 0M178 652l0 -569M178 646l2 0 0 -553M180 124l1 0M181 649l0 -566M181 646l2 0M183 648l0 -4M183 646l1 0 0 -522 2 0M186 652l0 -566M186 124l1 3M187 649l0 -567M187 646l2 0M189 648l0 -4M189 646l1 0 0 -522 2 0M192 652l0 -566"/>
<path stroke="red" d="M192 646l1 0 0 -522 2 0M195 641l0 -552M195 124l1 0M196 652l0 -569M196 646l2 0 0 -522 1 -1M199 652l0 -568M199 637l1 -5M200 633l0 -509 1 0M201 641l0 -552M201 124l2 0M203 652l0 -569M203 646l1 0 0 -522 1 0M205 645l0 -552M205 124l1 0"/>
<path stroke="red" d="M206 649l0 -566M206 646l1 0M207 648l0 -4M207 646l2 0 0 -522 2 0M211 652l0 -570M211 124l1 0M212 649l0 -566M212 646l2 0M214 648l0 -4M214 646l1 0 0 -522 2 0M217 652l0 -566M217 646l1 0 0 -522 2 0M220 641l0 -552M220 124l1 0M221 652l0 -569"/>
<path stroke="red" d="M221 646l2 0M223 647l0 -550M223 637l1 -46M224 658l0 -573M224 646l2 0M226 667l0 -496M226 646l1 0M227 670l0 -546 2 0M229 667l0 -557M229 646l1 0M230 662l0 -538 2 0M232 133l0 -21M232 124l1 0M233 646l0 -536M233 646l2 0M235 662l0 -553"/>
<path stroke="red" d="M235 401l1 174M236 669l0 -543 1 -1 0 -1 1 0M238 133l0 -21M238 124l1 0M239 125l0 -1M239 125l1 -5M240 646l0 -536M240 646l1 0M241 662l0 -538 1 0M242 633l0 -523M242 124l1 0M243 646l0 -536M243 646l1 0M244 667l0 -496M244 645l1 0"/>
<path stroke="red" d="M245 646l0 -1M245 646l1 0M246 670l0 -546 1 0 0 -9 1 -5M248 669l0 -559M248 124l1 0M249 661l0 -583M249 646l2 0M251 667l0 -466M251 646l1 0M252 670l0 -546 2 0M254 667l0 -557M254 646l1 0M255 662l0 -538 2 0M257 133l0 -21M257 124l1 0"/>
<path stroke="red" d="M258 646l0 -536M258 646l2 0M260 669l0 -560M260 643l1 1M261 662l0 -538 2 0M263 133l0 -21M263 124l1 0M264 646l0 -536M264 646l2 0M266 662l0 -552M266 124l1 0M267 646l0 -536M267 646l2 0M269 667l0 -496M269 646l1 0M270 670l0 -546"/>
<path stroke="red" d="M270 124l2 0M272 666l0 -556M272 125l1 -1M273 669l0 -576M273 125l1 0 0 -1 1 0M275 641l0 -552M275 124l1 0M276 240l0 -157M276 240l1 317M277 652l0 -95M277 646l1 0 0 -522 1 0M279 645l0 -552M279 124l1 0M280 649l0 -566M280 646l1 0"/>
<path stroke="red" d="M281 648l0 -4M281 646l2 0 0 -522 1 0M284 652l0 -566M284 643l1 4 0 -565M285 124l1 0M286 649l0 -566M286 646l2 0M288 648l0 -4M288 646l1 0 0 -522 2 0M291 652l0 -566M291 646l1 0 0 -522 2 0M294 641l0 -552M294 124l1 0M295 652l0 -569"/>
<path stroke="red" d="M295 646l2 0M297 647l0 -550M297 124l1 0M298 652l0 -568M298 124l2 0M300 641l0 -552M300 124l1 0M301 652l0 -569M301 646l2 0 0 -553M303 124l1 0M304 649l0 -566M304 646l2 0M306 648l0 -4M306 646l1 0 0 -522 2 0M309 652l0 -566M309 124l1 0"/>
<path stroke="red" d="M310 649l0 -567M310 646l2 0M312 648l0 -4M312 646l1 0 0 -518 1 -2 0 -2 1 0M315 652l0 -566M315 646l1 0M316 647l0 -504M316 646l1 0 0 -522 1 0M318 641l0 -552M318 124l2 0M320 652l0 -569M320 646l1 0 0 -521 1 0M322 658l0 -573M322 124l1 0"/>
<path stroke="red" d="M323 646l0 -536M323 646l1 0M324 667l0 -22M324 648l1 -180M325 646l0 -475M325 646l1 0M326 670l0 -546 2 0M328 667l0 -557M328 646l1 0M329 662l0 -538 2 0M331 133l0 -21M331 124l1 0M332 646l0 -536M332 646l2 0M334 669l0 -560M334 646l1 0"/>
<path stroke="red" d="M335 662l0 -538 2 0M337 133l0 -21M337 124l1 0M338 646l0 -536M338 646l2 0M340 662l0 -552M340 124l1 0M341 646l0 -536M341 646l2 0M343 667l0 -496M343 646l1 0M344 670l0 -546 2 0M346 666l0 -556M346 124l1 0M347 669l0 -591M347 124l1 0"/>
<path stroke="red" d="M348 532l0 -423M348 124l1 0M349 641l0 -552M349 124l1 0M350 652l0 -569M350 646l2 0 0 -522 1 -1M353 645l0 -562 1 100M354 649l0 -466M354 646l1 0M355 648l0 -4M355 646l2 0 0 -522 1 0M358 652l0 -566M358 646l1 0 0 -564M359 124l1 0"/>
<path stroke="red" d="M360 649l0 -566M360 646l1 0M361 648l0 -4M361 646l2 0 0 -522 2 0M365 652l0 -566M365 646l1 0 0 -522 2 0M368 641l0 -552M368 124l1 0M369 652l0 -569M369 646l2 0M371 647l0 -550M371 124l1 0M372 657l0 -573M372 646l2 0M374 667l0 -496"/>
<path stroke="red" d="M374 646l1 0M375 670l0 -546 2 0M377 667l0 -557M377 646l1 0M378 662l0 -538 2 0M380 133l0 -21M380 124l1 0M381 646l0 -536M381 646l2 0M383 662l0 -553M383 646l1 0M384 669l0 -545 2 0M386 133l0 -21M386 124l1 0M387 646l0 -536M387 646l2 0"/>
<path stroke="red" d="M389 662l0 -552M389 402l1 160M390 644l0 -534M390 644l1 1M391 646l0 -1M391 646l1 0M392 667l0 -496M392 646l1 0 0 -1 1 0M394 670l0 -546 1 0M395 646l0 -536M395 646l1 0M396 669l0 -558M396 124l1 0M397 656l0 -579M397 646l1 0M398 667l0 -466"/>
<path stroke="red" d="M398 645l1 1 0 -1M399 646l1 0M400 670l0 -546 1 0 0 -9 1 -5M402 667l0 -557M402 646l1 0M403 662l0 -538 2 0M405 133l0 -21M405 124l1 0M406 646l0 -536M406 646l2 0M408 669l0 -560M408 646l1 0M409 662l0 -538 2 0M411 133l0 -21M411 124l1 0"/>
<path stroke="red" d="M412 646l0 -536M412 646l2 0M414 662l0 -552M414 124l1 0M415 646l0 -536M415 646l2 0M417 667l0 -496M417 646l1 0M418 670l0 -546 2 0M420 666l0 -556M420 124l1 0M421 669l0 -584M421 124l2 0M423 641l0 -552M423 124l1 0M424 652l0 -569"/>
<path stroke="red" d="M424 646l2 0 0 -553M426 630l1 10M427 649l0 -566M427 646l2 0M429 648l0 -4M429 646l1 0 0 -15M430 635l1 -92 0 -419 1 0M432 652l0 -566M432 646l1 0 0 -564M433 124l1 0M434 649l0 -566M434 646l1 0M435 648l0 -4M435 646l2 0 0 -522"/>
<path stroke="red" d="M437 124l1 0M438 652l0 -566M438 643l1 4 0 -504M439 646l1 0 0 -522 2 0M442 641l0 -552M442 124l1 0M443 652l0 -569M443 646l2 0M445 647l0 -550M445 124l1 0M446 656l0 -572M446 335l1 196M447 659l0 -535 1 0M448 641l0 -552M448 124l1 0"/>
<path stroke="red" d="M449 652l0 -569M449 646l2 0 0 -553M451 124l1 0M452 649l0 -566M452 646l2 0M454 648l0 -4M454 646l1 0 0 -522 2 0M457 652l0 -566M457 124l1 0M458 649l0 -567M458 646l2 0M460 648l0 -4M460 646l1 0 0 -522 2 0M463 652l0 -566M463 645l1 1"/>
<path stroke="red" d="M464 646l0 -522 2 0M466 641l0 -552M466 124l1 0M467 652l0 -569M467 646l2 0 0 -522 1 0M470 657l0 -573M470 124l1 0M471 646l0 -536M471 646l1 0M472 667l0 -496M472 646l2 0M474 670l0 -546 1 0M475 645l0 -535M475 645l1 1M476 667l0 -550"/>
<path stroke="red" d="M476 646l1 0M477 662l0 -538 1 0M478 125l0 -13M478 121l1 8M479 133l0 -9 1 0M480 646l0 -536M480 646l2 0M482 669l0 -560M482 646l1 0M483 662l0 -538 2 0M485 133l0 -21M485 124l1 0M486 646l0 -536M486 646l2 0M488 662l0 -552M488 124l1 0"/>
<path stroke="red" d="M489 646l0 -536M489 646l2 0M491 667l0 -496M491 646l1 0M492 670l0 -546 2 0M494 666l0 -556M494 124l1 1M495 669l0 -592M495 646l2 0M497 667l0 -466M497 646l1 0M498 670l0 -546 2 0M500 667l0 -557M500 646l1 0M501 662l0 -538 2 0"/>
<path stroke="red" d="M503 133l0 -21M503 124l1 0M504 646l0 -536M504 646l2 0M506 662l0 -538 1 -1M507 669l0 -560M507 601l1 -195 0 -282 1 0M509 133l0 -21M509 124l2 0M511 646l0 -536M511 646l1 0M512 662l0 -538 1 0M513 633l0 -523M513 124l1 0M514 646l0 -536"/>
<path stroke="red" d="M514 646l1 0M515 667l0 -496M515 317l1 185M516 646l0 -144M516 646l1 0M517 670l0 -546 2 0M519 669l0 -584 1 63M520 651l0 -527 2 0M522 641l0 -552M522 124l1 0M523 652l0 -569M523 646l2 0 0 -553M525 124l1 0M526 649l0 -566M526 646l2 0"/>
<path stroke="red" d="M528 648l0 -4M528 646l1 0 0 -522 2 0M531 652l0 -570M531 644l1 -15M532 649l0 -566M532 646l2 0M534 648l0 -4M534 646l1 0 0 -522 2 0M537 652l0 -566M537 646l1 0 0 -522 2 0M540 641l0 -552M540 124l1 0M541 652l0 -569M541 646l2 0"/>
<path stroke="red" d="M543 646l0 -549M543 422l1 205M544 653l0 -569M544 643l1 1M545 657l0 -535M545 646l1 0M546 667l0 -465M546 646l1 0 0 -1 1 0M548 670l0 -546 1 0M549 646l0 -536M549 646l1 0M550 667l0 -550M550 646l1 0M551 662l0 -538 1 0M552 133l0 -21"/>
<path stroke="red" d="M552 124l2 0M554 646l0 -536M554 646l1 0M555 656l0 -10M555 656l1 6M556 669l0 -560M556 646l1 0M557 662l0 -538 2 0M559 133l0 -21M559 124l1 0M560 646l0 -536M560 646l2 0M562 662l0 -552M562 124l1 0M563 646l0 -536M563 646l2 0M565 667l0 -496"/>
<path stroke="red" d="M565 646l1 0M566 670l0 -546 2 0M568 666l0 -556M568 644l1 1M569 669l0 -576M569 124l2 0M571 641l0 -552M571 124l1 0M572 652l0 -569M572 646l2 0 0 -553M574 124l1 0M575 649l0 -566M575 646l2 0M577 648l0 -4M577 646l1 0 0 -522 2 0"/>
<path stroke="red" d="M580 652l0 -566M580 129l1 -2M581 649l0 -567M581 646l2 0M583 648l0 -4M583 646l1 0 0 -15M584 636l1 -93 0 -419 1 0M586 652l0 -566M586 646l1 0M587 647l0 -504M587 646l1 0 0 -522 1 0M589 641l0 -552M589 124l2 0M591 652l0 -569M591 646l1 0"/>
<path stroke="red" d="M592 646l0 -308 1 -122M593 652l0 -568M593 646l1 0 0 -522 2 0M596 641l0 -552M596 124l1 0M597 652l0 -569M597 646l2 0 0 -553M599 124l1 0M600 649l0 -566M600 646l2 0M602 648l0 -4M602 646l1 0 0 -522 2 0M605 652l0 -570M605 125l1 0"/>
<path stroke="red" d="M606 649l0 -566M606 646l2 0M608 648l0 -4M608 646l1 0 0 -522 2 0M611 652l0 -566M611 646l1 0 0 -522 2 0M614 641l0 -552M614 124l1 0M615 652l0 -569M615 646l2 0M617 647l0 -550M617 646l1 0M618 658l0 -573M618 646l2 0M620 667l0 -496"/>
<path stroke="red" d="M620 646l1 0M621 670l0 -545 1 0 0 -1 1 0M623 646l0 -536M623 646l1 0M624 667l0 -550M624 647l1 2M625 662l0 -538 1 0M626 133l0 -21M626 124l2 0M628 646l0 -536M628 646l1 0M629 662l0 -538 1 0M630 669l0 -560M630 646l1 0M631 662l0 -538"/>
<path stroke="red" d="M631 124l1 0M632 125l0 -13M632 121l1 8M633 133l0 -9 1 0M634 646l0 -536M634 646l2 0M636 662l0 -552M636 124l1 0M637 646l0 -536M637 646l2 0M639 667l0 -496M639 646l1 0M640 670l0 -546 2 0M642 666l0 -556M642 646l1 0M643 669l0 -591"/>
<path stroke="red" d="M643 646l1 0M644 660l0 -362M644 646l1 0M645 667l0 -466M645 646l1 0M646 670l0 -546 2 0M648 667l0 -557M648 646l1 0M649 662l0 -538 2 0M651 133l0 -21M651 124l1 0M652 646l0 -536M652 646l2 0M654 662l0 -553M654 646l1 0M655 669l0 -545"/>
<path stroke="red" d="M655 124l2 0M657 133l0 -21M657 124l1 0M658 646l0 -536M658 646l2 0M660 662l0 -538 1 -1M661 633l0 -523M661 123l1 57M662 646l0 -466M662 646l1 0M663 667l0 -496M663 646l2 0M665 670l0 -546 1 0M666 646l0 -536M666 646l1 0M667 669l0 -576"/>
<path stroke="red" d="M667 646l1 0M668 650l0 -526 1 0M669 641l0 -552M669 630l1 -23 0 -483 1 0M671 652l0 -569M671 646l2 0 0 -553M673 124l1 0M674 649l0 -566M674 646l2 0M676 648l0 -4M676 646l1 0 0 -522 2 0M679 652l0 -570M679 124l1 0M680 649l0 -566"/>
<path stroke="red" d="M680 646l2 0M682 648l0 -4M682 646l1 0 0 -522 2 0M685 652l0 -566M685 646l1 0 0 -522 2 0M688 641l0 -552M688 124l1 0M689 652l0 -569M689 646l2 0M691 647l0 -550M691 646l1 0M692 652l0 -568M692 124l2 0M694 641l0 -552M694 124l1 0"/>
<path stroke="red" d="M695 652l0 -569M695 646l2 0 0 -553M697 438l1 194M698 649l0 -566M698 647l1 -2M699 647l0 -2M699 646l1 0M700 648l0 -4M700 646l1 0 1 -2 0 -520 1 0M703 652l0 -566M703 646l1 0 0 -564M704 124l1 0M705 649l0 -566M705 646l1 0M706 648l0 -4"/>
<path stroke="red" d="M706 646l2 0 0 -522 1 0M709 128l0 -4M709 126l1 -16M710 652l0 -566M710 646l1 0 0 -522 2 0M713 641l0 -552M713 124l1 0M714 652l0 -569M714 646l2 0M716 647l0 -550M716 124l1 0M717 658l0 -573M717 646l2 0M719 667l0 -496M719 646l1 0"/>
<path stroke="red" d="M720 670l0 -546 2 0M722 667l0 -557M722 646l1 0M723 662l0 -538 2 0M725 133l0 -21M725 124l1 0M726 646l0 -536M726 646l2 0M728 662l0 -553M728 646l1 0M729 669l0 -545 2 0M731 133l0 -21M731 124l1 0M732 646l0 -536M732 646l2 0M734 662l0 -552"/>
<path stroke="red" d="M734 170l1 -27M735 646l0 -536M735 646l2 0M737 667l0 -496M737 646l1 0M738 670l0 -312 1 -140 0 -94 1 0M740 646l0 -536M740 646l1 0M741 669l0 -558M741 124l1 0M742 661l0 -583M742 124l1 0M743 641l0 -552M743 124l2 0M745 652l0 -569"/>
<path stroke="red" d="M745 646l1 0 0 -308 1 -122M747 645l0 -552M747 124l1 0M748 649l0 -566M748 646l2 0M750 648l0 -4M750 646l1 0 0 -522 2 0M753 652l0 -570M753 124l1 0M754 649l0 -566M754 646l2 0M756 648l0 -4M756 646l1 0 0 -522 2 0M759 652l0 -566"/>
<path stroke="red" d="M759 646l1 0 0 -522 2 0M762 641l0 -552M762 124l1 0M763 652l0 -569M763 646l2 0M765 647l0 -550M765 646l1 0M766 657l0 -573M766 646l2 0M768 667l0 -496M768 646l1 0M769 670l0 -546 2 0M771 667l0 -557M771 645l1 0M772 662l0 -538"/>
<path stroke="red" d="M772 124l2 0M774 133l0 -21M774 124l1 0M775 645l0 -535M775 645l1 0M776 646l0 -1M776 646l1 0M777 662l0 -538 1 0M778 669l0 -560M778 647l1 2M779 662l0 -538 1 0M780 133l0 -21M780 124l2 0M782 646l0 -536M782 646l1 0M783 662l0 -538"/>
<path stroke="red" d="M783 124l1 0M784 633l0 -523M784 124l1 0M785 646l0 -536M785 646l1 0M786 667l0 -22M786 648l1 -180M787 646l0 -475M787 646l1 0M788 670l0 -546 2 0M790 666l0 -556M790 663l1 6 0 -592M791 646l2 0M793 667l0 -466M793 646l1 0M794 670l0 -546"/>
<path stroke="red" d="M794 124l2 0M796 667l0 -557M796 646l1 0M797 662l0 -538 2 0M799 133l0 -21M799 124l1 0M800 646l0 -536M800 646l2 0M802 662l0 -553M802 646l1 6M803 669l0 -545 2 0M805 133l0 -21M805 124l1 0M806 646l0 -536M806 646l2 0M808 662l0 -552"/>
<path stroke="red" d="M808 124l1 0M809 646l0 -536M809 646l2 0M811 667l0 -496M811 646l1 0M812 670l0 -546 2 0M814 646l0 -536M814 646l1 -2M815 669l0 -584M815 645l1 6 0 -527 1 0M817 641l0 -552M817 124l2 0M819 652l0 -569M819 646l1 0 0 -522 1 0M821 645l0 -552"/>
<path stroke="red" d="M821 124l1 0M822 649l0 -566M822 646l1 0M823 648l0 -4M823 646l2 0 0 -522 2 0M827 652l0 -570M827 124l1 0M828 649l0 -566M828 646l2 0M830 648l0 -4M830 646l1 0 0 -522 2 0M833 652l0 -566M833 646l1 0 0 -522 2 0M836 641l0 -552M836 124l1 0"/>
<path stroke="red" d="M837 652l0 -569M837 646l2 0M839 647l0 -550M839 637l1 -46M840 656l0 -572M840 124l1 0M841 659l0 -547M841 124l1 0M842 641l0 -552M842 124l1 0M843 652l0 -569M843 646l2 0 0 -553M845 124l1 0M846 649l0 -566M846 646l2 0M848 648l0 -4"/>
<path stroke="red" d="M848 646l1 0 0 -522 2 0M851 652l0 -566M851 577l1 -186M852 649l0 -567M852 647l1 -2M853 647l0 -2M853 646l1 0M854 648l0 -4M854 646l1 0 1 -2 0 -520 1 0M857 652l0 -566M857 646l1 0M858 647l0 -504M858 646l1 0 0 -522 1 0M860 641l0 -552"/>
<path stroke="red" d="M860 130l1 -3 0 -3 1 0M862 652l0 -569M862 646l1 0 0 -2 1 -1M864 657l0 -573M864 255l1 -77M865 646l0 -536M865 646l2 0M867 667l0 -496M867 646l1 0M868 670l0 -546 2 0M870 667l0 -557M870 646l1 0M871 662l0 -538 2 0M873 133l0 -21"/>
<path stroke="red" d="M873 124l1 0M874 646l0 -536M874 646l2 0M876 669l0 -560M876 643l1 1M877 662l0 -538 2 0M879 133l0 -21M879 124l1 0M880 646l0 -536M880 646l2 0M882 662l0 -552M882 124l1 0M883 646l0 -536M883 646l2 0M885 667l0 -496M885 646l1 0"/>
<path stroke="red" d="M886 670l0 -546 2 0M888 666l0 -556M888 125l1 -1M889 669l0 -592M889 645l1 0M890 646l0 -1M890 646l1 0M891 667l0 -466M891 646l1 0M892 670l0 -312 1 -139 0 -95 1 0M894 646l0 -536M894 646l1 0M895 667l0 -550M895 646l1 0M896 662l0 -538"/>
<path stroke="red" d="M896 124l1 0M897 133l0 -21M897 124l2 0M899 646l0 -536M899 646l1 0M900 662l0 -521 1 -10M901 669l0 -560M901 646l1 0M902 662l0 -538 1 0M903 125l0 -1M903 125l1 -1M904 133l0 -21M904 124l1 0M905 646l0 -536M905 646l2 0M907 662l0 -552"/>
<path stroke="red" d="M907 124l1 0M908 646l0 -536M908 646l2 0M910 667l0 -496M910 646l1 0M911 670l0 -546 2 0M913 666l0 -556M913 646l1 0M914 669l0 -584M914 124l2 0M916 641l0 -552M916 124l1 0M917 652l0 -569M917 646l2 0 0 -553M919 124l1 0M920 649l0 -566"/>
<path stroke="red" d="M920 646l2 0M922 648l0 -4M922 646l1 0 0 -522 2 0M925 652l0 -566M925 124l1 0M926 649l0 -567M926 646l2 0M928 648l0 -4M928 646l1 0 0 -518 1 -2 0 -2 1 0M931 652l0 -566M931 646l1 0M932 647l0 -504M932 646l1 0 0 -522 1 0M934 641l0 -552"/>
<path stroke="red" d="M934 124l2 0M936 652l0 -569M936 646l1 0 0 -521 1 0M938 652l0 -568M938 646l1 0M939 657l0 -535M939 646l1 0M940 667l0 -22M940 648l1 -142M941 646l0 -444M941 646l1 0M942 670l0 -546 2 0M944 667l0 -557M944 646l1 0M945 662l0 -538"/>
<path stroke="red" d="M945 124l2 0M947 133l0 -21M947 124l1 0M948 646l0 -536M948 646l2 0M950 669l0 -560M950 646l1 0M951 662l0 -538 2 0M953 133l0 -21M953 124l1 0M954 646l0 -536M954 646l2 0M956 662l0 -552M956 124l1 0M957 646l0 -536M957 646l2 0M959 667l0 -496"/>
<path stroke="red" d="M959 646l1 0M960 670l0 -546 2 0M962 666l0 -556M962 124l1 0M963 669l0 -576M963 124l2 0M965 641l0 -552M965 124l1 0M966 652l0 -569M966 646l2 0 0 -522 1 -1M969 645l0 -562 1 100M970 649l0 -466M970 646l1 0M971 648l0 -4M971 646l2 0"/>
<path stroke="red" d="M973 646l0 -522 1 0"/>
</svg>
