<?xml version="1.0" standalone="yes"?>
<!DOCTYPE svg PUBLIC "-//W3C//DTD SVG 1.1//EN"
 "http://www.w3.org/Graphics/SVG/1.1/DTD/svg11.dtd">
<svg xmlns="http://www.w3.org/2000/svg" version="1.1"
  width="100%" height="100%" viewBox="0 0 1024 768"
  style="fill: none; stroke-width: 3; font-family: Helvetica;
 font: Helvetica;
">

<!-- Creator: NGspice -->

<rect x="0" y="0" width="1024" height="768" fill="white" stroke="none"/>
<text stroke="none" fill="black" font-size="16" x="358" y="752">
time
</text>
<text stroke="none" fill="black" font-size="16" x="10" y="16">
tran1: Even Parity Output
</text>
<path stroke="black" stroke-width="3" d="M50 704l0 -638"/>
<text stroke="none" fill="black" font-size="16" x="35" y="728">
0.0
</text>
<path stroke="black" stroke-width="3" stroke-dasharray="1,2" d="M204 704l0 -638"/>
<text stroke="none" fill="black" font-size="16" x="189" y="728">
0.5
</text>
<path stroke="black" stroke-width="3" stroke-dasharray="1,2" d="M358 704l0 -638"/>
<text stroke="none" fill="black" font-size="16" x="343" y="728">
1.0
</text>
<path stroke="black" stroke-width="3" stroke-dasharray="1,2" d="M512 704l0 -638"/>
<text stroke="none" fill="black" font-size="16" x="497" y="728">
1.5
</text>
<path stroke="black" stroke-width="3" stroke-dasharray="1,2" d="M666 704l0 -638"/>
<text stroke="none" fill="black" font-size="16" x="651" y="728">
2.0
</text>
<path stroke="black" stroke-width="3" stroke-dasharray="1,2" d="M820 704l0 -638"/>
<text stroke="none" fill="black" font-size="16" x="805" y="728">
2.5
</text>
<path stroke="black" stroke-width="3" stroke-dasharray="1,2" d="M974 704l0 -638"/>
<text stroke="none" fill="black" font-size="16" x="959" y="728">
3.0
</text>
<text stroke="none" fill="black" font-size="16" x="614" y="752">
us
</text>
<path stroke="black" stroke-width="3" stroke-dasharray="1,2" d="M50 704l924 0"/>
<text stroke="none" fill="black" font-size="16" x="8" y="712">
-0.2
</text>
<path stroke="black" stroke-width="3" d="M50 646l924 0"/>
<text stroke="none" fill="black" font-size="16" x="18" y="654">
0.0
</text>
<path stroke="black" stroke-width="3" stroke-dasharray="1,2" d="M50 588l924 0"/>
<text stroke="none" fill="black" font-size="16" x="18" y="596">
0.2
</text>
<path stroke="black" stroke-width="3" stroke-dasharray="1,2" d="M50 530l924 0"/>
<text stroke="none" fill="black" font-size="16" x="18" y="538">
0.4
</text>
<path stroke="black" stroke-width="3" stroke-dasharray="1,2" d="M50 472l924 0"/>
<text stroke="none" fill="black" font-size="16" x="18" y="480">
0.6
</text>
<path stroke="black" stroke-width="3" stroke-dasharray="1,2" d="M50 414l924 0"/>
<text stroke="none" fill="black" font-size="16" x="18" y="422">
0.8
</text>
<path stroke="black" stroke-width="3" stroke-dasharray="1,2" d="M50 356l924 0"/>
<text stroke="none" fill="black" font-size="16" x="18" y="364">
1.0
</text>
<path stroke="black" stroke-width="3" stroke-dasharray="1,2" d="M50 298l924 0"/>
<text stroke="none" fill="black" font-size="16" x="18" y="306">
1.2
</text>
<path stroke="black" stroke-width="3" stroke-dasharray="1,2" d="M50 240l924 0"/>
<text stroke="none" fill="black" font-size="16" x="18" y="248">
1.4
</text>
<path stroke="black" stroke-width="3" stroke-dasharray="1,2" d="M50 182l924 0"/>
<text stroke="none" fill="black" font-size="16" x="18" y="190">
1.6
</text>
<path stroke="black" stroke-width="3" stroke-dasharray="1,2" d="M50 124l924 0"/>
<text stroke="none" fill="black" font-size="16" x="18" y="132">
1.8
</text>
<path stroke="black" stroke-width="3" stroke-dasharray="1,2" d="M50 66l924 0"/>
<text stroke="none" fill="black" font-size="16" x="18" y="74">
2.0
</text>
<text stroke="none" fill="black" font-size="16" x="10" y="32">
V
</text>
<path stroke="red" d="M462 23l46 0"/>
<text stroke="none" fill="black" font-size="16" x="518" y="32">
v(out_parity)
</text>
<path stroke="red" d="M50 646l2 0M52 648l0 -524 1 0M53 648l0 -564M53 378l1 -145 0 -109 1 0M55 652l0 -569M55 646l1 0 0 -522 2 0M58 647l0 -563M58 646l1 0 0 -522 1 0M60 648l0 -564M60 646l1 0 0 -522 1 0M62 650l0 -553M62 646l1 0 0 -522 1 0M64 647l0 -563"/>
<path stroke="red" d="M64 646l1 0 0 -3 1 -3M66 648l0 -564M66 646l1 0 0 -522 2 0M69 647l0 -554M69 646l1 0 0 -522 2 0M72 648l0 -564M72 124l1 0M73 652l0 -569M73 646l2 0M75 656l0 -532 1 0M76 646l0 -535M76 646l2 0M78 669l0 -558M78 646l1 0M79 670l0 -546"/>
<path stroke="red" d="M79 124l2 0M81 646l0 -535M81 646l1 0M82 661l0 -536 1 0 0 -1 1 0M84 662l0 -554M84 124l1 0M85 125l0 -1M85 125l1 -5M86 646l0 -537M86 646l1 0M87 664l0 -552M87 646l2 0M89 661l0 -537 1 0M90 662l0 -554M90 124l2 0M92 646l0 -537"/>
<path stroke="red" d="M92 646l1 0M93 667l0 -543 2 0M95 646l0 -536M95 646l1 0M96 669l0 -545 1 0M97 646l0 -535M97 646l1 0M98 670l0 -546 1 0M99 650l0 -567M99 646l1 0M100 660l0 -536 1 0M101 646l0 -535M101 646l1 0M102 669l0 -536 1 -5M103 646l0 -535"/>
<path stroke="red" d="M103 646l1 0M104 670l0 -546 2 0M106 646l0 -535M106 646l1 0M107 661l0 -537 2 0M109 662l0 -554M109 124l1 0M110 646l0 -537M110 646l2 0M112 664l0 -552M112 646l1 0M113 661l0 -537 2 0M115 662l0 -554M115 124l1 0M116 646l0 -537"/>
<path stroke="red" d="M116 646l2 0M118 667l0 -543 1 0M119 646l0 -536M119 646l2 0M121 669l0 -558M121 646l1 0M122 670l0 -313 1 -139 0 -94 1 0M124 647l0 -568M124 646l2 0M126 652l0 -528 1 0M127 648l0 -564M127 124l2 0M129 652l0 -569M129 646l1 0 0 -522"/>
<path stroke="red" d="M130 124l2 0M132 647l0 -563M132 646l1 0 0 -522 1 0M134 648l0 -564M134 646l1 0 0 -522 1 0M136 650l0 -553M136 646l1 0 0 -522 1 0M138 647l0 -563M138 646l1 0 0 -521 1 0M140 648l0 -564M140 646l1 0 0 -522 1 0M142 130l0 -7M142 130l1 -3"/>
<path stroke="red" d="M143 647l0 -554M143 646l1 0 0 -522 2 0M146 648l0 -564M146 124l1 0M147 652l0 -569M147 646l2 0M149 659l0 -535 1 0M150 646l0 -535M150 646l2 0M152 669l0 -558M152 646l1 0M153 670l0 -546 2 0M155 646l0 -535M155 646l1 0M156 661l0 -537"/>
<path stroke="red" d="M156 124l2 0M158 662l0 -554M158 124l1 0M159 645l0 -536M159 645l1 0M160 646l0 -1M160 646l1 0M161 664l0 -552M161 646l1 0 1 3M163 661l0 -537 1 0M164 662l0 -554M164 124l2 0M166 646l0 -537M166 646l1 0M167 667l0 -543 2 0M169 646l0 -536"/>
<path stroke="red" d="M169 646l1 0M170 669l0 -552 1 -6M171 646l0 -535M171 646l1 0M172 670l0 -546 1 0M173 650l0 -564M173 646l2 0M175 652l0 -528 1 0M176 648l0 -564M176 646l1 0 0 -522 1 0M178 652l0 -569M178 646l1 0 0 -261 1 -149 0 -112 1 0M181 647l0 -563"/>
<path stroke="red" d="M181 646l2 0M183 648l0 -564M183 646l1 0 0 -522 2 0M186 650l0 -553M186 124l1 0M187 647l0 -563M187 646l2 0M189 648l0 -564M189 646l1 0 0 -522 2 0M192 647l0 -554M192 646l1 0 0 -522 2 0M195 648l0 -564M195 124l1 0M196 652l0 -569"/>
<path stroke="red" d="M196 646l2 0M198 659l0 -571M198 646l1 0 0 -2M199 645l1 7 0 -528 1 0M201 648l0 -564M201 124l2 0M203 652l0 -569M203 646l1 0 0 -522 2 0M206 647l0 -563M206 646l1 0M207 648l0 -564M207 643l1 4 0 -2M208 646l1 0 0 -522 1 0M210 650l0 -553"/>
<path stroke="red" d="M210 646l1 0 0 -522 1 0M212 647l0 -563M212 646l1 0 0 -522 1 0M214 648l0 -564M214 646l1 0 0 -522 1 0M216 647l0 -554M216 646l2 0 0 -522 1 0M219 130l0 -7M219 130l1 -7M220 648l0 -564M220 124l1 0M221 652l0 -569M221 646l2 0M223 653l0 -529"/>
<path stroke="red" d="M223 124l1 0M224 646l0 -535M224 646l2 0M226 669l0 -558M226 646l1 0M227 670l0 -546 2 0M229 646l0 -535M229 646l1 0M230 661l0 -537 2 0M232 662l0 -554M232 124l1 0M233 646l0 -537M233 646l2 0M235 664l0 -552M235 646l1 0M236 661l0 -535"/>
<path stroke="red" d="M236 126l1 -1 0 -1 1 0M238 662l0 -554M238 124l1 0M239 125l0 -1M239 125l1 -5M240 646l0 -537M240 646l1 0M241 667l0 -543 2 0M243 646l0 -536M243 646l1 0M244 669l0 -558M244 645l1 0M245 646l0 -1M245 646l1 0M246 670l0 -546 1 0"/>
<path stroke="red" d="M247 650l0 -580M247 646l1 0M248 657l0 -533 1 0M249 646l0 -535M249 646l1 0M250 669l0 -545 1 0M251 646l0 -535M251 646l1 0M252 670l0 -546 1 0M253 646l0 -535M253 646l2 0M255 661l0 -537 1 0M256 643l0 -535M256 642l1 2M257 662l0 -538"/>
<path stroke="red" d="M257 124l1 0M258 646l0 -537M258 646l2 0M260 664l0 -552M260 646l1 0M261 661l0 -537 2 0M263 662l0 -554M263 124l1 0M264 646l0 -537M264 646l2 0M266 667l0 -543 1 0M267 646l0 -536M267 646l2 0M269 669l0 -558M269 646l1 0M270 670l0 -546"/>
<path stroke="red" d="M270 124l2 0M272 650l0 -564M272 646l1 0M273 652l0 -527 1 0 0 -1 1 0M275 648l0 -564M275 124l1 0M276 240l0 -157M276 240l1 317M277 652l0 -95M277 646l1 0 0 -522 2 0M280 647l0 -563M280 646l1 0M281 648l0 -564M281 646l2 0 0 -522"/>
<path stroke="red" d="M283 124l1 0M284 650l0 -553M284 457l1 -184 0 -149 1 0M286 647l0 -563M286 646l1 0 0 -522 1 0M288 648l0 -564M288 646l1 0 0 -522 1 0M290 647l0 -554M290 646l2 0 0 -522 1 0M293 648l0 -564M293 646l1 0 0 -522 1 0M295 652l0 -569"/>
<path stroke="red" d="M295 646l1 0 1 1M297 659l0 -571M297 646l1 0M298 652l0 -528 2 0M300 648l0 -564M300 124l1 0M301 652l0 -569M301 646l2 0 0 -522 1 0M304 647l0 -563M304 646l2 0M306 648l0 -564M306 646l1 0 0 -522 2 0M309 650l0 -553M309 124l1 0"/>
<path stroke="red" d="M310 647l0 -563M310 646l2 0M312 648l0 -564M312 646l1 0 0 -519 1 -1 0 -2 1 0M315 647l0 -554M315 646l2 0 0 -522 1 0M318 648l0 -564M318 124l2 0M320 652l0 -569M320 646l1 0M321 653l0 -529 2 0M323 646l0 -535M323 646l1 0M324 669l0 -552"/>
<path stroke="red" d="M324 117l1 -6M325 646l0 -535M325 646l1 0M326 670l0 -546 1 0M327 646l0 -535M327 646l2 0M329 661l0 -537 1 0M330 646l0 -538M330 646l1 0M331 662l0 -538 1 0M332 646l0 -537M332 646l1 0M333 664l0 -527 1 -7M334 646l0 -534M334 646l1 0"/>
<path stroke="red" d="M335 661l0 -537 2 0M337 662l0 -554M337 124l1 0M338 646l0 -537M338 646l2 0M340 667l0 -543 1 0M341 646l0 -536M341 646l2 0M343 669l0 -558M343 646l1 0M344 670l0 -546 2 0M346 652l0 -582M346 646l1 0M347 652l0 -528 2 0M349 648l0 -564"/>
<path stroke="red" d="M349 124l1 0M350 652l0 -569M350 646l2 0 0 -522 1 0M353 127l0 -43 1 89M354 647l0 -474M354 646l1 0M355 648l0 -564M355 646l2 0 0 -522 1 0M358 650l0 -553M358 124l2 0M360 647l0 -563M360 646l1 0M361 648l0 -564M361 643l1 4 0 -2"/>
<path stroke="red" d="M362 646l1 0 0 -522 1 0M364 647l0 -554M364 646l2 0 0 -522 1 0M367 648l0 -564M367 646l1 0 0 -522 1 0M369 652l0 -569M369 646l1 0M370 657l0 -531 1 -1 0 -1 1 0M372 646l0 -535M372 646l1 0M373 660l0 -16M373 660l1 9 0 -558M374 646l1 0"/>
<path stroke="red" d="M375 670l0 -546 2 0M377 646l0 -535M377 646l1 0M378 661l0 -537 2 0M380 662l0 -554M380 124l1 0M381 646l0 -537M381 646l2 0M383 664l0 -552M383 646l1 0M384 661l0 -537 2 0M386 662l0 -554M386 124l1 0M387 646l0 -537M387 646l2 0"/>
<path stroke="red" d="M389 667l0 -543 1 0M390 644l0 -534M390 644l1 1M391 646l0 -1M391 646l1 0M392 669l0 -558M392 646l1 0 0 -1 1 0M394 670l0 -546 1 0M395 660l0 -577M395 124l2 0M397 646l0 -535M397 646l1 0M398 669l0 -558M398 645l1 0M399 646l0 -1"/>
<path stroke="red" d="M399 646l1 0M400 670l0 -546 1 0M401 646l0 -535M401 646l2 0M403 661l0 -537 1 0M404 646l0 -538M404 646l1 0M405 662l0 -538 1 0M406 646l0 -537M406 646l1 0M407 664l0 -540 1 0M408 646l0 -534M408 646l1 0M409 661l0 -537 1 0M410 643l0 -535"/>
<path stroke="red" d="M410 642l1 2M411 662l0 -538 1 0M412 646l0 -537M412 646l2 0M414 667l0 -543 1 0M415 646l0 -536M415 646l2 0M417 669l0 -558M417 646l1 0M418 670l0 -546 2 0M420 647l0 -568M420 646l1 0M421 652l0 -528 2 0M423 648l0 -564M423 124l1 0"/>
<path stroke="red" d="M424 652l0 -569M424 646l2 0 0 -522 1 0M427 647l0 -563M427 646l2 0M429 648l0 -564M429 646l1 0 0 -20 1 -117 0 -385 1 0M432 650l0 -553M432 124l2 0M434 647l0 -563M434 646l1 0M435 648l0 -564M435 646l2 0 0 -522 1 0M438 647l0 -554"/>
<path stroke="red" d="M438 646l2 0 0 -522 1 0M441 648l0 -564M441 646l1 0 0 -522 1 0M443 652l0 -569M443 646l3 0 0 -522 1 0M447 648l0 -564M447 646l1 0 0 -522 1 0M449 652l0 -569M449 646l1 0 0 -1 1 -1 0 -520 1 0M452 647l0 -563M452 646l2 0M454 648l0 -564"/>
<path stroke="red" d="M454 646l1 0 0 -522 2 0M457 650l0 -553M457 124l1 0M458 647l0 -563M458 646l2 0M460 648l0 -564M460 646l1 0 0 -522 2 0M463 647l0 -554M463 646l1 0 0 -522 2 0M466 648l0 -564M466 124l1 0M467 652l0 -569M467 646l2 0M469 654l0 -530"/>
<path stroke="red" d="M469 124l1 0 1 -1M471 646l0 -535M471 646l1 0M472 669l0 -558M472 646l2 0M474 670l0 -546 1 0M475 646l0 -535M475 646l2 0M477 661l0 -537 1 0M478 655l0 -547M478 655l1 7 0 -538 1 0M480 646l0 -537M480 646l1 0M481 664l0 -540 1 0"/>
<path stroke="red" d="M482 646l0 -534M482 646l1 0M483 661l0 -537 1 0M484 646l0 -538M484 646l1 0M485 662l0 -538 1 0M486 646l0 -537M486 646l1 0M487 667l0 -533 1 -6 0 -4 1 0M489 646l0 -536M489 646l2 0M491 669l0 -558M491 646l1 0M492 670l0 -546 2 0"/>
<path stroke="red" d="M494 660l0 -577M494 124l1 0M495 646l0 -535M495 646l2 0M497 669l0 -558M497 646l1 0M498 670l0 -546 2 0M500 646l0 -535M500 646l1 0M501 661l0 -537 2 0M503 662l0 -554M503 124l1 0M504 646l0 -537M504 646l2 0M506 664l0 -552M506 646l1 0"/>
<path stroke="red" d="M507 661l0 -50 1 -189 0 -298 1 0M509 662l0 -554M509 124l2 0M511 646l0 -537M511 646l1 0M512 667l0 -543 2 0M514 646l0 -536M514 646l1 0M515 669l0 -558M515 584l1 58M516 646l0 -4M516 646l1 0M517 670l0 -546 1 0M518 647l0 -568"/>
<path stroke="red" d="M518 646l2 0M520 652l0 -528 1 0M521 648l0 -564M521 646l1 0 0 -522 1 0M523 652l0 -569M523 646l1 0 0 -520 1 -1 0 -1 1 0M526 647l0 -563M526 646l1 0 0 -3 1 -3M528 648l0 -564M528 646l1 0 0 -522 2 0M531 650l0 -553M531 124l1 0"/>
<path stroke="red" d="M532 647l0 -563M532 646l2 0M534 648l0 -564M534 646l1 0 0 -522 2 0M537 647l0 -554M537 646l1 0 0 -522 2 0M540 648l0 -564M540 124l1 0M541 652l0 -569M541 646l2 0M543 659l0 -535 1 0M544 643l0 -532M544 643l1 0M545 646l0 -3M545 646l1 0"/>
<path stroke="red" d="M546 669l0 -558M546 646l1 0 0 -1 1 0M548 670l0 -546 1 0M549 646l0 -535M549 646l2 0M551 661l0 -537 1 0M552 662l0 -554M552 124l2 0M554 646l0 -537M554 646l1 0M555 664l0 -547 1 -5M556 646l0 -534M556 646l1 0M557 661l0 -537 1 0"/>
<path stroke="red" d="M558 646l0 -538M558 646l1 0M559 662l0 -538 1 0M560 646l0 -537M560 646l1 0M561 667l0 -543 2 0M563 646l0 -536M563 646l1 0M564 669l0 -536 1 -5M565 646l0 -535M565 646l1 0M566 670l0 -546 2 0M568 650l0 -564M568 646l1 0M569 652l0 -528"/>
<path stroke="red" d="M569 124l2 0M571 648l0 -564M571 124l1 0M572 652l0 -569M572 646l2 0 0 -522 1 0M575 647l0 -563M575 646l2 0M577 648l0 -564M577 646l1 0 0 -522 2 0M580 650l0 -553M580 124l1 0M581 647l0 -563M581 646l2 0M583 648l0 -564M583 646l1 0"/>
<path stroke="red" d="M584 646l0 -20 1 -117 0 -385 1 0M586 647l0 -554M586 646l2 0 0 -522 1 0M589 648l0 -564M589 124l2 0M591 652l0 -569M591 646l1 0M592 659l0 -571M592 648l1 -2M593 647l0 -2M593 646l1 0M594 652l0 -528 1 0M595 648l0 -564M595 646l1 0"/>
<path stroke="red" d="M596 646l0 -522 1 0M597 652l0 -569M597 646l1 0 0 -522 2 0M600 647l0 -563M600 646l1 0 0 -521 1 0M602 648l0 -564M602 646l1 0 0 -522 1 0M604 128l0 -5M604 128l1 2M605 650l0 -553M605 124l1 0M606 647l0 -563M606 646l2 0M608 648l0 -564"/>
<path stroke="red" d="M608 646l1 0 0 -522 2 0M611 647l0 -554M611 646l1 0 0 -522 2 0M614 648l0 -564M614 124l1 0M615 652l0 -569M615 646l2 0M617 653l0 -529 1 0M618 646l0 -535M618 646l2 0M620 669l0 -558M620 646l1 0M621 670l0 -545 1 -1 1 0M623 646l0 -535"/>
<path stroke="red" d="M623 646l1 0 1 3M625 661l0 -537 1 0M626 662l0 -554M626 124l2 0M628 646l0 -537M628 646l1 0M629 664l0 -552M629 646l1 -1M630 646l0 -1M630 646l1 0M631 661l0 -537 1 0M632 655l0 -547M632 655l1 7 0 -538 1 0M634 646l0 -537M634 646l1 0"/>
<path stroke="red" d="M635 667l0 -543 2 0M637 646l0 -536M637 646l1 0M638 669l0 -545 1 0M639 646l0 -535M639 646l1 0M640 670l0 -546 1 0M641 650l0 -580M641 642l1 6M642 657l0 -533 1 0M643 646l0 -535M643 646l2 0M645 669l0 -558M645 646l1 0M646 670l0 -546"/>
<path stroke="red" d="M646 124l2 0M648 646l0 -535M648 646l1 0M649 661l0 -537 2 0M651 662l0 -554M651 124l1 0M652 646l0 -537M652 646l2 0M654 664l0 -552M654 646l1 0M655 661l0 -537 2 0M657 662l0 -554M657 124l1 0M658 646l0 -537M658 646l2 0M660 667l0 -543"/>
<path stroke="red" d="M660 124l1 0 0 -14M661 122l1 53M662 646l0 -471M662 646l1 0M663 669l0 -558M663 646l2 0M665 670l0 -546 1 0M666 650l0 -564M666 646l2 0M668 652l0 -528 1 0M669 648l0 -564M669 378l1 -145 0 -109 1 0M671 652l0 -569M671 646l1 0 0 -522"/>
<path stroke="red" d="M672 124l2 0M674 647l0 -563M674 646l1 0 0 -522 1 0M676 648l0 -564M676 646l1 0 0 -522 1 0M678 650l0 -553M678 646l1 0 0 -522 1 0M680 647l0 -563M680 646l1 0 0 -3 1 -3M682 648l0 -564M682 646l1 0 0 -522 2 0M685 647l0 -554M685 646l1 0"/>
<path stroke="red" d="M686 646l0 -522 2 0M688 648l0 -564M688 124l1 0M689 652l0 -569M689 646l2 0M691 659l0 -571M691 646l1 0M692 652l0 -528 2 0M694 648l0 -564M694 124l1 0M695 652l0 -569M695 646l2 0 0 -522 1 0M698 647l0 -563M698 647l1 -2M699 647l0 -2"/>
<path stroke="red" d="M699 646l1 0M700 648l0 -564M700 646l1 0 1 -2 0 -520 1 0M703 650l0 -553M703 124l2 0M705 647l0 -563M705 646l1 0M706 648l0 -564M706 646l2 0 0 -522 1 0M709 647l0 -554M709 646l2 0 0 -522 1 0M712 648l0 -564M712 646l1 0 0 -522"/>
<path stroke="red" d="M713 124l1 0M714 652l0 -569M714 646l1 0M715 653l0 -529 2 0M717 646l0 -535M717 646l1 0M718 669l0 -536 1 -6M719 646l0 -535M719 646l1 0M720 670l0 -546 2 0M722 646l0 -535M722 646l1 0M723 661l0 -537 2 0M725 662l0 -554M725 124l1 0"/>
<path stroke="red" d="M726 646l0 -537M726 646l2 0M728 664l0 -552M728 646l1 0M729 661l0 -537 2 0M731 662l0 -554M731 124l1 0M732 646l0 -537M732 646l2 0M734 667l0 -543 1 0M735 646l0 -536M735 646l2 0M737 669l0 -558M737 646l1 0M738 670l0 -313 1 -139"/>
<path stroke="red" d="M739 218l0 -94 1 0M740 652l0 -582M740 646l2 0M742 652l0 -528 1 0M743 648l0 -564M743 124l2 0M745 652l0 -569M745 646l1 0 0 -522 2 0M748 647l0 -563M748 646l1 0 0 -522 1 0M750 648l0 -564M750 646l1 0 0 -522 1 0M752 650l0 -553"/>
<path stroke="red" d="M752 646l1 0 0 -522 1 0M754 647l0 -563M754 646l1 0 0 -521 1 0M756 648l0 -564M756 646l1 0 0 -522 1 0M758 130l0 -7M758 130l1 -3M759 647l0 -554M759 646l1 0 0 -522 2 0M762 648l0 -564M762 124l1 0M763 652l0 -569M763 646l2 0M765 657l0 -533"/>
<path stroke="red" d="M765 124l1 0M766 646l0 -535M766 646l2 0M768 669l0 -558M768 646l1 0M769 670l0 -546 2 0M771 646l0 -535M771 646l1 0M772 661l0 -537 2 0M774 662l0 -554M774 124l1 0M775 645l0 -536M775 645l1 0M776 646l0 -1M776 646l1 0M777 664l0 -552"/>
<path stroke="red" d="M777 646l1 0 1 3M779 661l0 -537 1 0M780 662l0 -554M780 124l2 0M782 646l0 -537M782 646l1 0M783 667l0 -543 2 0M785 646l0 -536M785 646l1 0M786 669l0 -552 1 -6M787 646l0 -535M787 646l1 0M788 670l0 -546 1 0M789 650l0 -567M789 646l1 0"/>
<path stroke="red" d="M790 660l0 -536 1 0M791 646l0 -535M791 646l1 0M792 669l0 -545 1 0M793 646l0 -535M793 646l1 0M794 670l0 -546 1 0M795 579l0 -468M795 579l1 63M796 646l0 -4M796 646l1 0M797 661l0 -537 2 0M799 662l0 -554M799 124l1 0M800 646l0 -537"/>
<path stroke="red" d="M800 646l2 0M802 664l0 -552M802 646l1 0M803 661l0 -537 2 0M805 662l0 -554M805 124l1 0M806 646l0 -537M806 646l2 0M808 667l0 -543 1 0M809 646l0 -536M809 646l2 0M811 669l0 -558M811 646l1 0M812 670l0 -546 2 0M814 647l0 -568"/>
<path stroke="red" d="M814 646l1 0 0 -3M815 645l1 7 0 -528 1 0M817 648l0 -564M817 124l2 0M819 652l0 -569M819 646l1 0 0 -522 2 0M822 647l0 -563M822 646l1 0M823 648l0 -564M823 643l1 4 0 -2M824 646l1 0 0 -522 1 0M826 650l0 -553M826 646l1 0 0 -522"/>
<path stroke="red" d="M827 124l1 0M828 647l0 -563M828 646l1 0 0 -522 1 0M830 648l0 -564M830 646l1 0 0 -522 1 0M832 647l0 -554M832 646l2 0 0 -522 1 0M835 130l0 -7M835 130l1 -7M836 648l0 -564M836 124l1 0M837 652l0 -569M837 646l3 0 0 -522 2 0M842 648l0 -564"/>
<path stroke="red" d="M842 124l1 0M843 652l0 -569M843 646l2 0 0 -522 1 0M846 647l0 -563M846 646l2 0M848 648l0 -564M848 646l1 0 0 -522 2 0M851 650l0 -553M851 124l1 0M852 647l0 -563M852 647l1 -2M853 647l0 -2M853 646l1 0M854 648l0 -564M854 646l1 0"/>
<path stroke="red" d="M855 646l1 -2 0 -520 1 0M857 647l0 -554M857 646l2 0 0 -522 1 0M860 648l0 -564M860 125l1 0 0 -1 1 0M862 652l0 -569M862 646l1 0M863 654l0 -530 2 0M865 646l0 -535M865 646l1 0M866 669l0 -545 1 0M867 646l0 -535M867 646l1 0M868 670l0 -546"/>
<path stroke="red" d="M868 124l1 0M869 646l0 -535M869 646l2 0M871 661l0 -537 1 0M872 643l0 -535M872 642l1 2M873 662l0 -538 1 0M874 646l0 -537M874 646l2 0M876 664l0 -552M876 646l1 0M877 661l0 -537 2 0M879 662l0 -554M879 124l1 0M880 646l0 -537"/>
<path stroke="red" d="M880 646l2 0M882 667l0 -543 1 0M883 646l0 -536M883 646l2 0M885 669l0 -558M885 646l1 0M886 670l0 -546 2 0M888 660l0 -577M888 124l1 0M889 645l0 -534M889 645l1 0M890 646l0 -1M890 646l1 0M891 669l0 -558M891 646l1 0M892 670l0 -313"/>
<path stroke="red" d="M892 357l1 -139 0 -94 1 0M894 646l0 -535M894 646l2 0M896 661l0 -537 1 0M897 662l0 -554M897 124l2 0M899 646l0 -537M899 646l1 0M900 664l0 -552M900 538l1 96M901 646l0 -12M901 646l1 0M902 661l0 -537 1 0M903 646l0 -538M903 646l1 0"/>
<path stroke="red" d="M904 662l0 -538 1 0M905 646l0 -537M905 646l1 0M906 667l0 -543 2 0M908 646l0 -536M908 646l1 0M909 669l0 -545 1 0M910 646l0 -535M910 646l1 0M911 670l0 -546 1 0M912 126l0 -2M912 126l1 -12M913 647l0 -568M913 646l1 0M914 652l0 -528"/>
<path stroke="red" d="M914 124l2 0M916 648l0 -564M916 124l1 0M917 652l0 -569M917 646l2 0 0 -522 1 0M920 647l0 -563M920 646l2 0M922 648l0 -564M922 646l1 0 0 -522 2 0M925 650l0 -553M925 124l1 0M926 647l0 -563M926 646l2 0M928 648l0 -564M928 646l1 0"/>
<path stroke="red" d="M929 646l0 -519 1 -1 0 -2 1 0M931 647l0 -554M931 646l2 0 0 -522 1 0M934 648l0 -564M934 124l2 0M936 652l0 -569M936 646l1 0M937 659l0 -535 2 0M939 646l0 -535M939 646l1 0M940 669l0 -552 1 -6M941 646l0 -535M941 646l1 0M942 670l0 -546"/>
<path stroke="red" d="M942 124l1 0M943 646l0 -535M943 646l2 0M945 661l0 -537 1 0M946 646l0 -538M946 646l1 0M947 662l0 -538 1 0M948 646l0 -537M948 646l1 0M949 664l0 -527 1 -7M950 646l0 -534M950 646l1 0M951 661l0 -537 2 0M953 662l0 -554M953 124l1 0"/>
<path stroke="red" d="M954 646l0 -537M954 646l2 0M956 667l0 -543 1 0M957 646l0 -536M957 646l2 0M959 669l0 -558M959 646l1 0M960 670l0 -546 2 0M962 650l0 -564M962 646l1 0M963 652l0 -528 2 0M965 648l0 -564M965 124l1 0M966 652l0 -569M966 646l2 0"/>
<path stroke="red" d="M968 646l0 -522 1 0M969 127l0 -43 1 89M970 647l0 -474M970 646l1 0M971 648l0 -564M971 646l2 0 0 -522 1 0"/>
</svg>
