<?xml version="1.0" standalone="yes"?>
<!DOCTYPE svg PUBLIC "-//W3C//DTD SVG 1.1//EN"
 "http://www.w3.org/Graphics/SVG/1.1/DTD/svg11.dtd">
<svg xmlns="http://www.w3.org/2000/svg" version="1.1"
  width="100%" height="100%" viewBox="0 0 1024 768"
  style="fill: none; stroke-width: 3; font-family: Helvetica;
 font: Helvetica;
">

<!-- Creator: NGspice -->

<rect x="0" y="0" width="1024" height="768" fill="white" stroke="none"/>
<text stroke="none" fill="black" font-size="16" x="358" y="752">
time
</text>
<text stroke="none" fill="black" font-size="16" x="10" y="16">
tran1: Total Supply Current
</text>
<path stroke="black" stroke-width="3" d="M50 704l0 -639"/>
<text stroke="none" fill="black" font-size="16" x="35" y="728">
0.0
</text>
<path stroke="black" stroke-width="3" stroke-dasharray="1,2" d="M204 704l0 -639"/>
<text stroke="none" fill="black" font-size="16" x="189" y="728">
0.5
</text>
<path stroke="black" stroke-width="3" stroke-dasharray="1,2" d="M358 704l0 -639"/>
<text stroke="none" fill="black" font-size="16" x="343" y="728">
1.0
</text>
<path stroke="black" stroke-width="3" stroke-dasharray="1,2" d="M512 704l0 -639"/>
<text stroke="none" fill="black" font-size="16" x="497" y="728">
1.5
</text>
<path stroke="black" stroke-width="3" stroke-dasharray="1,2" d="M666 704l0 -639"/>
<text stroke="none" fill="black" font-size="16" x="651" y="728">
2.0
</text>
<path stroke="black" stroke-width="3" stroke-dasharray="1,2" d="M820 704l0 -639"/>
<text stroke="none" fill="black" font-size="16" x="805" y="728">
2.5
</text>
<path stroke="black" stroke-width="3" stroke-dasharray="1,2" d="M974 704l0 -639"/>
<text stroke="none" fill="black" font-size="16" x="959" y="728">
3.0
</text>
<text stroke="none" fill="black" font-size="16" x="614" y="752">
us
</text>
<path stroke="black" stroke-width="3" stroke-dasharray="1,2" d="M50 704l924 0"/>
<text stroke="none" fill="black" font-size="16" x="8" y="712">
-0.8
</text>
<path stroke="black" stroke-width="3" stroke-dasharray="1,2" d="M50 633l924 0"/>
<text stroke="none" fill="black" font-size="16" x="8" y="641">
-0.6
</text>
<path stroke="black" stroke-width="3" stroke-dasharray="1,2" d="M50 562l924 0"/>
<text stroke="none" fill="black" font-size="16" x="8" y="570">
-0.4
</text>
<path stroke="black" stroke-width="3" stroke-dasharray="1,2" d="M50 491l924 0"/>
<text stroke="none" fill="black" font-size="16" x="8" y="499">
-0.2
</text>
<path stroke="black" stroke-width="3" d="M50 420l924 0"/>
<text stroke="none" fill="black" font-size="16" x="18" y="428">
0.0
</text>
<path stroke="black" stroke-width="3" stroke-dasharray="1,2" d="M50 349l924 0"/>
<text stroke="none" fill="black" font-size="16" x="18" y="357">
0.2
</text>
<path stroke="black" stroke-width="3" stroke-dasharray="1,2" d="M50 278l924 0"/>
<text stroke="none" fill="black" font-size="16" x="18" y="286">
0.4
</text>
<path stroke="black" stroke-width="3" stroke-dasharray="1,2" d="M50 207l924 0"/>
<text stroke="none" fill="black" font-size="16" x="18" y="215">
0.6
</text>
<path stroke="black" stroke-width="3" stroke-dasharray="1,2" d="M50 136l924 0"/>
<text stroke="none" fill="black" font-size="16" x="18" y="144">
0.8
</text>
<path stroke="black" stroke-width="3" stroke-dasharray="1,2" d="M50 65l924 0"/>
<text stroke="none" fill="black" font-size="16" x="18" y="73">
1.0
</text>
<text stroke="none" fill="black" font-size="16" x="10" y="32">
mA
</text>
<path stroke="red" d="M462 23l46 0"/>
<text stroke="none" fill="black" font-size="16" x="518" y="32">
-i(v_supply)
</text>
<path stroke="red" d="M50 696l0 -607M50 418l1 2M51 421l0 -3M51 420l1 0 0 -86M52 420l1 0M53 455l0 -129M53 397l1 -9M54 423l0 -35M54 420l1 0M55 426l0 -107M55 416l1 8M56 489l0 -157M56 387l1 12M57 420l0 -21M57 420l1 0M58 425l0 -107M58 424l1 -8M59 424l0 -98"/>
<path stroke="red" d="M59 417l1 5M60 455l0 -129M60 421l1 -2M61 423l0 -104M61 423l1 -6M62 424l0 -98M62 422l1 -4M63 524l0 -231M63 420l1 0M64 425l0 -107M64 424l1 -8M65 424l0 -98M65 380l1 10M66 455l0 -129M66 421l1 -2M67 423l0 -104M67 423l1 -6M68 424l0 -8"/>
<path stroke="red" d="M68 424l1 -8M69 489l0 -167M69 420l1 0M70 421l0 -87M70 419l1 1 0 -1M71 420l1 0M72 455l0 -129M72 418l1 3M73 426l0 -108M73 415l1 10 0 -10M74 417l1 6M75 558l0 -315M75 420l1 0M76 422l0 -103M76 422l1 -4M77 422l0 -4M77 421l1 -2"/>
<path stroke="red" d="M78 455l0 -129M78 421l1 -2M79 422l0 -103M79 421l1 -2M80 422l0 -4M80 422l1 -4M81 489l0 -164M81 420l1 0M82 422l0 -101M82 422l1 -6M83 423l0 -7M83 423l1 -6M84 455l0 -129M84 421l1 -2M85 422l0 -103M85 332l1 13M86 423l0 -93M86 423l1 -6"/>
<path stroke="red" d="M87 524l0 -231M87 419l1 1M88 421l0 -3 1 3M89 423l0 -102M89 423l1 -6M90 455l0 -129M90 420l1 -1M91 422l0 -4M91 422l1 -4M92 423l0 -104M92 423l1 -6M93 489l0 -167M93 420l1 -1M94 420l0 -1M94 420l1 0M95 421l0 -94M95 421l1 -2M96 424l0 -98"/>
<path stroke="red" d="M96 416l1 8M97 455l0 -129M97 421l1 -2M98 421l0 -102M98 421l1 -2M99 422l0 -96M99 421l1 -2M100 593l0 -388M100 422l1 -4M101 422l0 -103M101 422l1 -4M102 422l0 -96M102 413l1 10M103 455l0 -129M103 421l1 -2M104 422l0 -103M104 421l1 -2"/>
<path stroke="red" d="M105 422l0 -88 1 11M106 489l0 -164M106 420l1 0M107 423l0 -102M107 423l1 -6M108 423l0 -6 1 6M109 455l0 -129M109 421l1 -2M110 423l0 -104M110 423l1 -6M111 423l0 -6 1 6M112 524l0 -231M112 419l1 2M113 423l0 -102M113 423l1 -6"/>
<path stroke="red" d="M114 423l0 -6 1 6M115 455l0 -129M115 421l1 -2M116 423l0 -104M116 423l1 -7M117 423l0 -7M117 417l1 6M118 489l0 -167M118 420l1 0 0 -93M119 420l1 -1M120 421l0 -2 1 2M121 455l0 -129M121 420l1 -1M122 421l0 -102M122 380l1 17M123 421l0 -24"/>
<path stroke="red" d="M123 419l1 2M124 558l0 -315M124 420l1 -1M125 420l0 -21M125 402l1 -3M126 420l0 -86M126 420l1 0M127 455l0 -129M127 417l1 6 0 -6M128 420l1 0M129 426l0 -107M129 423l1 -6M130 489l0 -157M130 420l1 -1M131 420l0 -1M131 420l1 0M132 425l0 -107"/>
<path stroke="red" d="M132 416l1 8M133 455l0 -129M133 380l1 7M134 421l0 -95M134 419l1 2M135 423l0 -104M135 417l1 6M136 424l0 -98M136 418l1 4M137 524l0 -231M137 420l1 0M138 425l0 -107M138 416l1 8 0 -98M139 422l1 -5M140 455l0 -129M140 419l1 2M141 423l0 -104"/>
<path stroke="red" d="M141 417l1 6M142 424l0 -102M142 347l1 -12M143 489l0 -157M143 420l1 0M144 421l0 -87M144 420l2 0M146 455l0 -129M146 421l1 -2M147 426l0 -108M147 425l1 -10M148 425l0 -10M148 422l1 -4M149 627l0 -472M149 419l1 1M150 422l0 -103"/>
<path stroke="red" d="M150 418l1 4 0 -4M151 419l1 2M152 455l0 -129M152 419l1 2M153 422l0 -103M153 419l1 2M154 422l0 -4 1 4M155 489l0 -164M155 420l1 0M156 423l0 -102M156 416l1 7 0 -6 1 6M158 455l0 -129M158 419l1 2M159 422l0 -103M159 415l1 7M160 423l0 -7"/>
<path stroke="red" d="M160 417l1 6M161 524l0 -231M161 420l1 -1M162 421l0 -87M162 378l1 -35M163 423l0 -102M163 417l1 6M164 455l0 -129M164 419l1 1M165 422l0 -4 1 4M166 423l0 -104M166 417l1 6M167 489l0 -167M167 419l1 1 1 0M169 421l0 -94M169 419l1 2"/>
<path stroke="red" d="M170 455l0 -129M170 394l1 -10M171 421l0 -95M171 419l1 2 0 -102M172 419l1 2M173 426l0 -104M173 413l1 13M174 558l0 -315M174 420l1 0 0 -86M175 420l1 0M176 421l0 -95M176 421l1 -2M177 455l0 -114M177 421l1 -2M178 426l0 -107M178 424l1 -8"/>
<path stroke="red" d="M179 424l0 -90M179 394l1 -5M180 489l0 -157M180 420l1 0M181 425l0 -107M181 416l1 8 0 -74 1 -24M183 455l0 -129M183 419l1 2M184 423l0 -104M184 417l1 6M185 424l0 -8M185 424l1 -8M186 524l0 -231M186 420l1 0M187 425l0 -107M187 415l1 9"/>
<path stroke="red" d="M188 424l0 -9M188 423l1 -6M189 455l0 -129M189 419l1 2M190 423l0 -104M190 417l1 6M191 424l0 -8M191 424l1 -8M192 489l0 -167M192 420l1 0M193 421l0 -87M193 421l1 -2M194 421l0 -2M194 420l1 0M195 455l0 -129M195 422l1 -4M196 426l0 -108"/>
<path stroke="red" d="M196 426l1 -12M197 426l0 -12M197 417l1 6M198 593l0 -388M198 425l1 -10M199 425l0 -91M199 380l1 -18M200 420l0 -76M200 420l1 0M201 455l0 -129M201 423l1 -6M202 423l0 -23M202 401l1 -3M203 426l0 -107M203 417l1 6M204 489l0 -157"/>
<path stroke="red" d="M204 420l2 0M206 425l0 -107M206 423l1 -6M207 455l0 -129M207 415l1 4M208 421l0 -4M208 421l1 -2M209 423l0 -104M209 423l1 -7M210 524l0 -231M210 348l1 18M211 422l0 -88M211 419l1 2M212 425l0 -107M212 424l1 -8M213 424l0 -98M213 417l1 5"/>
<path stroke="red" d="M214 455l0 -129M214 421l1 -2M215 423l0 -104M215 423l1 -6M216 424l0 -102M216 423l1 -6M217 489l0 -157M217 420l1 0M218 421l0 -87M218 420l1 0 0 -94M219 350l1 -17M220 455l0 -124M220 419l1 2M221 426l0 -108M221 416l1 8 0 -8M222 418l1 4"/>
<path stroke="red" d="M223 558l0 -315M223 420l1 0M224 422l0 -103M224 422l1 -4M225 422l0 -4M225 421l1 -2M226 455l0 -129M226 421l1 -2M227 422l0 -103M227 421l1 -2M228 422l0 -4M228 422l1 -4M229 489l0 -164M229 420l1 0M230 423l0 -102M230 423l1 -6M231 423l0 -6"/>
<path stroke="red" d="M231 423l1 -6M232 455l0 -129M232 421l1 -2M233 423l0 -104M233 423l1 -7M234 423l0 -7M234 423l1 -6M235 524l0 -231M235 419l1 2M236 422l0 -101M236 422l1 -6M237 423l0 -7M237 423l1 -6M238 455l0 -129M238 421l1 -2M239 422l0 -103"/>
<path stroke="red" d="M239 332l1 13M240 423l0 -93M240 423l1 -6M241 489l0 -167M241 420l2 0M243 421l0 -94M243 421l1 -2M244 455l0 -129M244 419l1 0M245 421l0 -2M245 421l1 -2M246 421l0 -102M246 421l1 -2M247 662l0 -546M247 390l1 -8M248 422l0 -90M248 419l1 2"/>
<path stroke="red" d="M249 422l0 -103M249 421l1 -3M250 424l0 -98M250 416l1 8M251 455l0 -129M251 421l1 -2M252 422l0 -103M252 421l1 -2M253 422l0 -97M253 421l1 -3M254 489l0 -157M254 420l1 0M255 423l0 -102M255 423l1 -6M256 423l0 -97M256 412l1 4M257 455l0 -127"/>
<path stroke="red" d="M257 422l1 -4M258 423l0 -104M258 423l1 -6M259 423l0 -73 1 -24M260 524l0 -231M260 419l1 2M261 423l0 -102M261 423l1 -6M262 423l0 -6 1 6M263 455l0 -129M263 421l1 -2M264 423l0 -104M264 423l1 -6M265 423l0 -6 1 6M266 489l0 -167"/>
<path stroke="red" d="M266 420l1 0M267 421l0 -94M267 421l1 -2M268 421l0 -2 1 2M269 455l0 -129M269 421l1 -2M270 421l0 -102M270 421l1 -2M271 422l0 -4 1 4M272 558l0 -315M272 420l1 -1M273 420l0 -86M273 420l2 0M275 455l0 -129M275 418l1 4 0 -103M276 332l1 52"/>
<path stroke="red" d="M277 426l0 -42M277 423l1 -6M278 489l0 -157M278 420l1 0 0 -21M279 402l1 -3M280 425l0 -107M280 417l1 6M281 455l0 -129M281 420l1 -1M282 421l0 -2 1 2M283 424l0 -105M283 416l1 8M284 524l0 -231M284 382l1 7M285 422l0 -33M285 421l1 -2"/>
<path stroke="red" d="M286 425l0 -107M286 416l1 8M287 455l0 -129M287 380l1 7M288 421l0 -95M288 419l1 2M289 423l0 -104M289 417l1 6M290 424l0 -102M290 417l1 6M291 489l0 -157M291 420l1 0M292 421l0 -87M292 420l1 0M293 421l0 -95M293 419l1 2M294 455l0 -114"/>
<path stroke="red" d="M294 421l1 -2M295 426l0 -108M295 424l1 -8M296 424l0 -99M296 381l1 7M297 593l0 -388M297 424l1 -8M298 424l0 -90M298 420l1 0 0 -1M299 420l1 -1M300 455l0 -129M300 421l1 -2M301 426l0 -107M301 425l1 -10M302 425l0 -10M302 422l1 -4"/>
<path stroke="red" d="M303 489l0 -157M303 420l1 0M304 425l0 -107M304 415l1 9 0 -9M305 417l1 6M306 455l0 -129M306 419l1 2M307 423l0 -104M307 417l1 6M308 424l0 -8 1 8M309 524l0 -231M309 419l1 2M310 425l0 -107M310 415l1 10 0 -10M311 417l1 6M312 455l0 -129"/>
<path stroke="red" d="M312 419l1 2 0 -102M313 415l1 7M314 424l0 -8 1 8M315 489l0 -167M315 420l1 0 0 -86M316 387l1 -19M317 421l0 -71M317 420l1 0M318 455l0 -129M318 423l1 -6M319 423l0 -6M319 420l1 0M320 426l0 -108M320 423l1 -6M321 558l0 -315M321 419l1 1"/>
<path stroke="red" d="M322 420l0 -1M322 420l1 0M323 422l0 -103M323 419l1 2M324 455l0 -129M324 393l1 -9M325 421l0 -95M325 419l1 2M326 422l0 -103M326 419l1 2M327 422l0 -97M327 418l1 4M328 489l0 -157M328 420l1 0M329 423l0 -102M329 417l1 6 0 -97"/>
<path stroke="red" d="M330 420l1 0M331 455l0 -127M331 418l1 4M332 423l0 -104M332 417l1 6 0 -97M333 408l1 19M334 524l0 -231M334 421l1 -2M335 423l0 -102M335 417l1 6 0 -73 1 -24M337 455l0 -129M337 418l1 4M338 423l0 -104M338 417l1 6 0 -6M339 423l1 -6"/>
<path stroke="red" d="M340 489l0 -167M340 420l1 0M341 421l0 -94M341 419l1 2 0 -2M342 421l1 -2M343 455l0 -129M343 419l1 2 0 -102M344 419l1 2M345 422l0 -4M345 422l1 -4M346 627l0 -472M346 419l1 1 0 -86M347 420l2 0M349 455l0 -129M349 422l1 -4M350 426l0 -107"/>
<path stroke="red" d="M350 426l1 -12M351 426l0 -12M351 417l1 6M352 489l0 -157M352 420l1 0 0 -102M353 349l1 -17M354 425l0 -93M354 423l1 -6M355 455l0 -129M355 419l1 2 0 -21M356 401l1 -3M357 424l0 -105M357 424l1 -8M358 524l0 -231M358 417l1 5 0 -4"/>
<path stroke="red" d="M359 419l1 2M360 425l0 -107M360 423l1 -6M361 455l0 -129M361 415l1 4M362 421l0 -4M362 421l1 -2M363 423l0 -104M363 423l1 -7M364 489l0 -167M364 388l1 11M365 420l0 -21M365 420l1 0M366 421l0 -87M366 420l1 0M367 421l0 -95M367 421l1 -2"/>
<path stroke="red" d="M368 455l0 -114M368 419l1 2M369 426l0 -108M369 416l1 8 0 -90M370 421l1 -4M371 558l0 -315M371 420l1 0M372 422l0 -103M372 422l1 -4M373 422l0 -96M373 358l1 -24M374 455l0 -129M374 421l1 -2M375 422l0 -103M375 421l1 -2M376 422l0 -4"/>
<path stroke="red" d="M376 422l1 -4M377 489l0 -164M377 420l1 0M378 423l0 -102M378 423l1 -6M379 423l0 -6M379 423l1 -6M380 455l0 -129M380 421l1 -2M381 423l0 -104M381 423l1 -6M382 423l0 -6M382 423l1 -6M383 524l0 -231M383 419l1 2M384 423l0 -102M384 423l1 -7"/>
<path stroke="red" d="M385 423l0 -7M385 423l1 -6M386 455l0 -129M386 421l1 -2M387 423l0 -104M387 423l1 -7M388 423l0 -7M388 423l1 -6M389 489l0 -167M389 420l1 0 0 -93M390 417l1 -1M391 421l0 -5M391 421l1 -2M392 455l0 -129M392 420l1 0M393 421l0 -102"/>
<path stroke="red" d="M393 336l1 14M394 421l0 -92M394 421l1 -2M395 593l0 -388M395 425l1 -11M396 425l0 -11M396 421l1 -3M397 422l0 -103M397 421l1 -2M398 455l0 -129M398 419l1 0M399 421l0 -2M399 421l1 -2M400 422l0 -103M400 421l1 -2M401 489l0 -164"/>
<path stroke="red" d="M401 419l1 0M402 420l0 -1M402 420l1 0M403 423l0 -102M403 423l1 -6M404 423l0 -97M404 420l1 0M405 455l0 -127M405 422l1 -4M406 423l0 -104M406 423l1 -6M407 428l0 -102M407 428l1 -16M408 524l0 -231M408 419l1 2M409 423l0 -102M409 423l1 -6"/>
<path stroke="red" d="M410 423l0 -97M410 412l1 4M411 455l0 -127M411 422l1 -4M412 423l0 -104M412 423l1 -6M413 423l0 -69 1 -32M414 489l0 -167M414 420l1 0M415 421l0 -94M415 421l1 -2M416 421l0 -2 1 2M417 455l0 -129M417 421l1 -2M418 421l0 -102M418 421l1 -2"/>
<path stroke="red" d="M419 422l0 -4 1 4M420 558l0 -315M420 420l1 0 0 -86M421 420l2 0M423 455l0 -129M423 418l1 4M424 426l0 -107M424 415l1 10 0 -10M425 423l1 -6M426 489l0 -157M426 420l1 0M427 425l0 -107M427 425l1 -10M428 425l0 -10M428 417l1 6M429 455l0 -129"/>
<path stroke="red" d="M429 421l1 -2M430 421l0 -102M430 348l1 15M431 424l0 -61M431 416l1 8M432 524l0 -231M432 422l1 -4M433 422l0 -23M433 402l1 -3M434 425l0 -107M434 417l1 6M435 455l0 -129M435 420l1 -1M436 421l0 -2 1 2M437 424l0 -105M437 416l1 8"/>
<path stroke="red" d="M438 489l0 -167M438 420l1 -1M439 420l0 -1M439 420l1 0M440 421l0 -87M440 420l1 0M441 455l0 -129M441 381l1 7M442 423l0 -82M442 420l1 0M443 426l0 -108M443 424l1 -8M444 424l0 -8M444 422l1 -4M445 696l0 -630M445 420l1 0 0 -86"/>
<path stroke="red" d="M446 420l1 0M447 421l0 -95M447 419l1 2M448 455l0 -114M448 421l1 -2M449 426l0 -107M449 424l1 -8M450 424l0 -90M450 355l1 42M451 489l0 -157M451 420l1 0M452 425l0 -107M452 416l1 8 0 -8M453 417l1 6M454 455l0 -129M454 419l1 2"/>
<path stroke="red" d="M455 423l0 -104M455 417l1 6M456 424l0 -8 1 8M457 524l0 -231M457 419l1 1M458 425l0 -107M458 415l1 9 0 -9M459 417l1 6M460 455l0 -129M460 419l1 2M461 423l0 -104M461 417l1 6M462 424l0 -8 1 8M463 489l0 -167M463 420l1 0M464 421l0 -87"/>
<path stroke="red" d="M464 421l1 -2M465 421l0 -2M465 420l1 0M466 455l0 -129M466 422l1 -4M467 426l0 -108M467 426l1 -12M468 426l0 -12M468 423l1 -6M469 558l0 -315M469 419l1 1 0 -86M470 389l1 -16M471 422l0 -103M471 419l1 2M472 455l0 -129M472 420l1 0"/>
<path stroke="red" d="M473 421l0 -3 1 3M474 422l0 -103M474 419l1 2M475 489l0 -164M475 419l1 1 0 -1M476 420l1 0M477 423l0 -102M477 417l1 6M478 455l0 -129M478 374l1 -39M479 422l0 -93M479 418l1 4M480 423l0 -104M480 417l1 6M481 428l0 -102M481 412l1 16"/>
<path stroke="red" d="M482 524l0 -231M482 421l1 -2M483 423l0 -102M483 417l1 6 0 -97M484 420l1 0M485 455l0 -127M485 418l1 4M486 423l0 -104M486 417l1 6 0 -101M487 412l1 12M488 489l0 -157M488 420l1 0M489 421l0 -94M489 419l1 2 0 -70 1 -25M491 455l0 -129"/>
<path stroke="red" d="M491 419l1 2 0 -102M492 419l1 2M493 422l0 -4M493 422l1 -4M494 593l0 -388M494 417l1 6 0 -104M495 418l1 4 0 -4M496 421l1 -2M497 455l0 -129M497 419l1 2M498 422l0 -103M498 419l1 2M499 422l0 -4M499 422l1 -4M500 489l0 -164M500 420l1 0"/>
<path stroke="red" d="M501 423l0 -102M501 417l1 6 0 -6M502 423l1 -6M503 455l0 -129M503 419l1 2M504 423l0 -104M504 416l1 7 0 -7M505 423l1 -6M506 524l0 -231M506 421l1 -2M507 421l0 -100M507 324l1 40M508 423l0 -59M508 423l1 -6M509 455l0 -129M509 419l1 2"/>
<path stroke="red" d="M510 422l0 -22M510 401l1 -3M511 423l0 -104M511 423l1 -6M512 489l0 -167M512 420l2 0M514 421l0 -94M514 421l1 -2M515 455l0 -129M515 392l1 15M516 421l0 -14M516 421l1 -2M517 421l0 -102M517 421l1 -2M518 558l0 -315M518 356l1 22"/>
<path stroke="red" d="M519 420l0 -42M519 420l1 0 0 -86M520 420l1 0M521 421l0 -95M521 421l1 -2M522 455l0 -114M522 419l1 2M523 426l0 -107M523 416l1 8 0 -90M524 420l1 -2M525 489l0 -157M525 420l1 0M526 425l0 -107M526 424l1 -8M527 424l0 -98M527 380l1 10"/>
<path stroke="red" d="M528 455l0 -129M528 421l1 -2M529 423l0 -104M529 423l1 -6M530 424l0 -8M530 424l1 -8M531 524l0 -231M531 420l1 0M532 425l0 -107M532 424l1 -8M533 424l0 -8M533 423l1 -6M534 455l0 -129M534 421l1 -2M535 423l0 -104M535 423l1 -6"/>
<path stroke="red" d="M536 424l0 -8M536 424l1 -8M537 489l0 -167M537 420l1 0M538 421l0 -87M538 419l1 2 0 -2M539 420l1 0M540 455l0 -129M540 418l1 4M541 426l0 -108M541 414l1 12 0 -12M542 417l1 6M543 627l0 -472M543 420l1 -1M544 420l0 -101M544 418l1 -4"/>
<path stroke="red" d="M545 422l0 -8M545 421l1 -2M546 455l0 -129M546 420l1 -1M547 422l0 -103M547 336l1 14M548 421l0 -92M548 421l1 -2M549 489l0 -164M549 420l2 0M551 423l0 -102M551 423l1 -6M552 455l0 -129M552 420l1 -1M553 422l0 -4M553 422l1 -4M554 423l0 -104"/>
<path stroke="red" d="M554 423l1 -6M555 524l0 -231M555 392l1 -7M556 421l0 -93M556 419l1 2M557 423l0 -102M557 423l1 -6M558 423l0 -97M558 420l1 0M559 455l0 -127M559 422l1 -4M560 423l0 -104M560 423l1 -6M561 425l0 -103M561 425l1 -10M562 489l0 -157"/>
<path stroke="red" d="M562 420l1 0M563 421l0 -94M563 421l1 -2M564 421l0 -95M564 413l1 10M565 455l0 -129M565 421l1 -2M566 421l0 -102M566 421l1 -2M567 422l0 -88 1 11M568 558l0 -315M568 420l1 0 0 -86M569 420l1 0 0 -1M570 420l1 -1M571 455l0 -129"/>
<path stroke="red" d="M571 419l1 2M572 426l0 -107M572 415l1 10 0 -10M573 422l1 -5M574 489l0 -157M574 420l1 0M575 425l0 -107M575 424l1 -9M576 424l0 -9M576 417l1 6M577 455l0 -129M577 421l1 -2M578 423l0 -104M578 423l1 -6M579 424l0 -8 1 8M580 524l0 -231"/>
<path stroke="red" d="M580 421l1 -2M581 425l0 -107M581 425l1 -10M582 425l0 -10M582 417l1 6M583 455l0 -129M583 421l1 -2M584 421l0 -102M584 348l1 15M585 424l0 -61M585 416l1 8M586 489l0 -167M586 420l1 0 0 -21M587 402l1 -3M588 421l0 -87M588 420l1 0"/>
<path stroke="red" d="M589 455l0 -129M589 417l1 6 0 -6M590 420l1 0M591 426l0 -108M591 423l1 -6M592 593l0 -388M592 410l1 12M593 425l0 -13M593 424l1 -8M594 424l0 -90M594 420l1 0M595 455l0 -129M595 380l1 8M596 423l0 -82M596 420l1 0M597 426l0 -107"/>
<path stroke="red" d="M597 424l1 -8M598 424l0 -90M598 419l1 2M599 489l0 -157M599 420l1 0M600 425l0 -107M600 416l1 8 0 -98M601 422l1 -5M602 455l0 -129M602 419l1 2M603 423l0 -104M603 417l1 6M604 424l0 -98M604 343l1 -5M605 524l0 -231M605 420l1 0"/>
<path stroke="red" d="M606 425l0 -107M606 416l1 8 0 -8M607 417l1 6M608 455l0 -129M608 419l1 2M609 423l0 -104M609 417l1 6M610 424l0 -8 1 8M611 489l0 -167M611 420l1 0M612 421l0 -87M612 421l1 -2M613 420l0 -1M613 420l1 0M614 455l0 -129M614 422l1 -4"/>
<path stroke="red" d="M615 426l0 -108M615 425l1 -10M616 425l0 -10M616 423l1 -6M617 558l0 -315M617 420l1 0M618 422l0 -103M618 418l1 4 0 -4M619 419l1 2M620 455l0 -129M620 419l1 1M621 422l0 -103M621 419l1 1M622 421l0 -3 1 4M623 489l0 -164M623 420l1 0"/>
<path stroke="red" d="M624 420l0 -86M624 378l1 -35M625 423l0 -102M625 417l1 6M626 455l0 -129M626 419l1 1M627 422l0 -4 1 4M628 423l0 -104M628 417l1 6M629 524l0 -231M629 419l1 0M630 421l0 -2M630 421l1 -2M631 423l0 -102M631 417l1 6M632 455l0 -129"/>
<path stroke="red" d="M632 374l1 -39M633 422l0 -93M633 418l1 4M634 423l0 -104M634 417l1 6M635 425l0 -103M635 416l1 8M636 489l0 -157M636 420l1 0M637 421l0 -94M637 419l1 2M638 424l0 -98M638 424l1 -8M639 455l0 -129M639 419l1 2 0 -102M640 419l1 2"/>
<path stroke="red" d="M641 424l0 -98M641 411l1 16M642 662l0 -546M642 420l1 0M643 422l0 -103M643 418l1 4 0 -71 1 -25M645 455l0 -129M645 419l1 2M646 422l0 -103M646 419l1 2M647 422l0 -4M647 422l1 -4M648 489l0 -164M648 420l1 0M649 423l0 -102M649 417l1 6"/>
<path stroke="red" d="M650 423l0 -6M650 423l1 -6M651 455l0 -129M651 419l1 2M652 423l0 -104M652 417l1 6 0 -6M653 423l1 -6M654 524l0 -231M654 421l1 -2M655 423l0 -102M655 416l1 7 0 -7M656 423l1 -6M657 455l0 -129M657 419l1 2M658 423l0 -104M658 416l1 7"/>
<path stroke="red" d="M659 423l0 -7M659 423l1 -6M660 489l0 -167M660 420l1 0 0 -86M661 372l1 -40M662 421l0 -94M662 421l1 -2M663 455l0 -129M663 420l1 0M664 421l0 -21M664 401l1 -3M665 421l0 -102M665 421l1 -2M666 558l0 -315M666 419l1 1 0 -1M667 420l1 0"/>
<path stroke="red" d="M668 420l0 -86M668 420l1 0M669 455l0 -129M669 396l1 -8M670 423l0 -35M670 420l1 0M671 426l0 -107M671 416l1 8M672 489l0 -157M672 387l1 12M673 420l0 -21M673 420l1 0M674 425l0 -107M674 424l1 -8M675 424l0 -98M675 417l1 5M676 455l0 -129"/>
<path stroke="red" d="M676 421l1 -2M677 423l0 -104M677 423l1 -6M678 424l0 -98M678 422l1 -4M679 524l0 -231M679 420l1 0M680 425l0 -107M680 424l1 -8M681 424l0 -98M681 380l1 10M682 455l0 -129M682 421l1 -2M683 423l0 -104M683 423l1 -6M684 424l0 -8"/>
<path stroke="red" d="M684 424l1 -8M685 489l0 -167M685 420l1 0M686 421l0 -87M686 419l1 1 0 -1M687 420l1 0M688 455l0 -129M688 418l1 3M689 426l0 -108M689 415l1 10 0 -10M690 417l1 6M691 593l0 -388M691 415l1 10 0 -91M692 420l2 0M694 455l0 -129M694 418l1 4"/>
<path stroke="red" d="M695 426l0 -107M695 414l1 12 0 -12M696 417l1 6M697 489l0 -157M697 420l1 0M698 424l0 -106M698 424l1 -10M699 425l0 -11M699 423l1 -6M700 455l0 -129M700 421l1 -2M701 421l0 -102M701 332l1 13M702 424l0 -79M702 424l1 -8M703 524l0 -231"/>
<path stroke="red" d="M703 422l1 -4M704 422l0 -4M704 419l1 2M705 425l0 -107M705 423l1 -6M706 455l0 -129M706 420l1 -1M707 421l0 -2M707 421l1 -2M708 424l0 -105M708 424l1 -8M709 489l0 -167M709 420l1 -1M710 420l0 -1M710 420l1 0M711 421l0 -87M711 420l1 0"/>
<path stroke="red" d="M712 421l0 -95M712 419l1 2M713 455l0 -114M713 419l1 2M714 426l0 -108M714 416l1 8M715 425l0 -105M715 415l1 10M716 558l0 -315M716 420l1 0M717 422l0 -103M717 422l1 -4M718 421l0 -95M718 413l1 10M719 455l0 -129M719 421l1 -2M720 422l0 -103"/>
<path stroke="red" d="M720 421l1 -2M721 422l0 -88 1 11M722 489l0 -164M722 420l1 0M723 423l0 -102M723 423l1 -6M724 423l0 -6 1 6M725 455l0 -129M725 421l1 -2M726 423l0 -104M726 423l1 -6M727 423l0 -6 1 6M728 524l0 -231M728 419l1 2M729 423l0 -102"/>
<path stroke="red" d="M729 423l1 -6M730 423l0 -6 1 6M731 455l0 -129M731 421l1 -2M732 423l0 -104M732 423l1 -7M733 423l0 -7M733 417l1 6M734 489l0 -167M734 420l1 0 0 -93M735 420l1 -1M736 421l0 -2 1 2M737 455l0 -129M737 420l1 -1M738 421l0 -102M738 380l1 17"/>
<path stroke="red" d="M739 421l0 -24M739 419l1 2M740 627l0 -472M740 420l1 -1M741 420l0 -21M741 402l1 -3M742 420l0 -86M742 420l1 0M743 455l0 -129M743 417l1 6 0 -6M744 420l1 0M745 426l0 -107M745 423l1 -6M746 489l0 -157M746 420l1 -1M747 420l0 -1"/>
<path stroke="red" d="M747 420l1 0M748 425l0 -107M748 416l1 7M749 455l0 -129M749 380l1 7M750 421l0 -95M750 419l1 2M751 423l0 -104M751 417l1 6M752 424l0 -98M752 418l1 4M753 524l0 -231M753 420l1 0M754 425l0 -107M754 416l1 8 0 -98M755 422l1 -5M756 455l0 -129"/>
<path stroke="red" d="M756 419l1 2M757 423l0 -104M757 417l1 6M758 424l0 -102M758 347l1 -12M759 489l0 -157M759 420l1 0M760 421l0 -87M760 420l2 0M762 455l0 -129M762 421l1 -2M763 426l0 -108M763 425l1 -10M764 425l0 -10M764 422l1 -4M765 558l0 -315"/>
<path stroke="red" d="M765 420l1 0M766 422l0 -103M766 418l1 4 0 -4M767 419l1 2M768 455l0 -129M768 419l1 2M769 422l0 -103M769 419l1 2M770 422l0 -4 1 4M771 489l0 -164M771 420l1 0M772 423l0 -102M772 416l1 7 0 -6 1 6M774 455l0 -129M774 419l1 2M775 422l0 -103"/>
<path stroke="red" d="M775 415l1 7M776 423l0 -7M776 417l1 6M777 524l0 -231M777 420l1 -1M778 421l0 -87M778 378l1 -35M779 423l0 -102M779 417l1 6M780 455l0 -129M780 419l1 1M781 422l0 -4 1 4M782 423l0 -104M782 417l1 6M783 489l0 -167M783 419l1 1 1 0"/>
<path stroke="red" d="M785 421l0 -94M785 419l1 2M786 455l0 -129M786 394l1 -10M787 421l0 -95M787 419l1 2 0 -102M788 419l1 2M789 422l0 -96M789 419l1 2M790 593l0 -388M790 418l1 4 0 -103M791 418l1 3M792 424l0 -98M792 424l1 -8M793 455l0 -129M793 419l1 2"/>
<path stroke="red" d="M794 422l0 -103M794 419l1 2M795 422l0 -97M795 390l1 18M796 489l0 -157M796 420l1 0M797 423l0 -102M797 417l1 6 0 -73 1 -24M799 455l0 -129M799 418l1 4M800 423l0 -104M800 417l1 6 0 -6M801 423l1 -6M802 524l0 -231M802 421l1 -2"/>
<path stroke="red" d="M803 423l0 -102M803 417l1 6 0 -6M804 423l1 -6M805 455l0 -129M805 419l1 2M806 423l0 -104M806 417l1 6 0 -6M807 423l1 -6M808 489l0 -167M808 420l1 0 0 -93M809 419l1 2 0 -2M810 421l1 -2M811 455l0 -129M811 419l1 1M812 421l0 -102"/>
<path stroke="red" d="M812 419l1 2M813 422l0 -4M813 422l1 -4M814 558l0 -315M814 419l1 1 0 -86M815 380l1 -18M816 420l0 -76M816 420l1 0M817 455l0 -129M817 423l1 -6M818 423l0 -23M818 401l1 -3M819 426l0 -107M819 417l1 6M820 489l0 -157M820 420l2 0"/>
<path stroke="red" d="M822 425l0 -107M822 423l1 -6M823 455l0 -129M823 415l1 4M824 421l0 -4M824 421l1 -2M825 423l0 -104M825 423l1 -7M826 524l0 -231M826 348l1 18M827 422l0 -88M827 419l1 2M828 425l0 -107M828 424l1 -8M829 424l0 -98M829 417l1 5M830 455l0 -129"/>
<path stroke="red" d="M830 421l1 -2M831 423l0 -104M831 423l1 -6M832 424l0 -102M832 423l1 -6M833 489l0 -157M833 420l1 0M834 421l0 -87M834 420l1 0 0 -94M835 350l1 -17M836 455l0 -124M836 419l1 2M837 426l0 -108M837 416l1 8 0 -8M838 418l1 4M839 696l0 -630"/>
<path stroke="red" d="M839 420l1 -1M840 420l0 -86M840 420l2 0M842 455l0 -129M842 418l1 3M843 426l0 -107M843 415l1 10 0 -10M844 417l1 6M845 489l0 -157M845 420l1 0M846 425l0 -107M846 425l1 -10M847 425l0 -10M847 423l1 -6M848 455l0 -129M848 421l1 -2"/>
<path stroke="red" d="M849 423l0 -104M849 423l1 -6M850 424l0 -8M850 424l1 -8M851 524l0 -231M851 421l1 -2M852 424l0 -106M852 424l1 -10M853 425l0 -11M853 423l1 -6M854 455l0 -129M854 421l1 -2M855 421l0 -102M855 332l1 13M856 424l0 -79M856 424l1 -8"/>
<path stroke="red" d="M857 489l0 -167M857 420l2 0M859 421l0 -87M859 420l1 0M860 455l0 -129M860 416l1 7 0 -7M861 420l1 0M862 426l0 -108M862 417l1 6M863 558l0 -315M863 419l1 -1M864 420l0 -2M864 420l1 0M865 422l0 -103M865 421l1 -3M866 424l0 -98"/>
<path stroke="red" d="M866 416l1 8M867 455l0 -129M867 421l1 -2M868 422l0 -103M868 421l1 -2M869 422l0 -97M869 421l1 -3M870 489l0 -157M870 420l1 0M871 423l0 -102M871 423l1 -6M872 423l0 -97M872 412l1 4M873 455l0 -127M873 422l1 -4M874 423l0 -104"/>
<path stroke="red" d="M874 423l1 -6M875 423l0 -73 1 -24M876 524l0 -231M876 419l1 2M877 423l0 -102M877 423l1 -6M878 423l0 -6 1 6M879 455l0 -129M879 421l1 -2M880 423l0 -104M880 423l1 -6M881 423l0 -6 1 6M882 489l0 -167M882 420l1 0M883 421l0 -94"/>
<path stroke="red" d="M883 421l1 -2M884 421l0 -2 1 2M885 455l0 -129M885 421l1 -2M886 421l0 -102M886 421l1 -2M887 422l0 -4 1 4M888 593l0 -388M888 424l1 -8M889 424l0 -105M889 421l1 -4M890 422l0 -5M890 419l1 2M891 455l0 -129M891 420l1 -1M892 422l0 -103"/>
<path stroke="red" d="M892 380l1 17M893 421l0 -24M893 418l1 3M894 489l0 -164M894 420l1 0 0 -21M895 402l1 -3M896 423l0 -102M896 417l1 6M897 455l0 -129M897 420l1 -1M898 422l0 -4 1 4M899 423l0 -104M899 417l1 6M900 524l0 -231M900 390l1 8M901 421l0 -23"/>
<path stroke="red" d="M901 421l1 -2M902 423l0 -102M902 417l1 6M903 455l0 -129M903 380l1 7M904 422l0 -94M904 418l1 4M905 423l0 -104M905 417l1 6M906 425l0 -103M906 424l1 -8M907 489l0 -157M907 420l1 0M908 421l0 -94M908 419l1 2M909 424l0 -98M909 416l1 8"/>
<path stroke="red" d="M910 455l0 -129M910 419l1 2 0 -102M911 419l1 2M912 422l0 -103M912 356l1 -20M913 558l0 -315M913 420l1 0 0 -86M914 420l1 0 0 -1M915 420l1 -1M916 455l0 -129M916 421l1 -2M917 426l0 -107M917 425l1 -10M918 425l0 -10M918 422l1 -4"/>
<path stroke="red" d="M919 489l0 -157M919 420l1 0M920 425l0 -107M920 415l1 9 0 -9M921 417l1 6M922 455l0 -129M922 419l1 2M923 423l0 -104M923 417l1 6M924 424l0 -8 1 8M925 524l0 -231M925 419l1 2M926 425l0 -107M926 415l1 10 0 -10M927 417l1 6M928 455l0 -129"/>
<path stroke="red" d="M928 419l1 2 0 -102M929 415l1 7M930 424l0 -8 1 8M931 489l0 -167M931 420l1 0 0 -86M932 387l1 -19M933 421l0 -71M933 420l1 0M934 455l0 -129M934 423l1 -6M935 423l0 -6M935 420l1 0M936 426l0 -108M936 423l1 -6M937 627l0 -472M937 418l1 2"/>
<path stroke="red" d="M938 420l0 -1M938 420l1 0M939 422l0 -103M939 419l1 2M940 455l0 -129M940 393l1 -9M941 421l0 -95M941 419l1 2M942 422l0 -103M942 419l1 2M943 422l0 -97M943 418l1 4M944 489l0 -157M944 420l1 0M945 423l0 -102M945 417l1 6 0 -97"/>
<path stroke="red" d="M946 420l1 0M947 455l0 -127M947 418l1 4M948 423l0 -104M948 417l1 6 0 -97M949 408l1 19M950 524l0 -231M950 421l1 -2M951 423l0 -102M951 417l1 6 0 -73 1 -24M953 455l0 -129M953 418l1 4M954 423l0 -104M954 417l1 6 0 -6M955 423l1 -6"/>
<path stroke="red" d="M956 489l0 -167M956 420l1 0M957 421l0 -94M957 419l1 2 0 -2M958 421l1 -2M959 455l0 -129M959 419l1 2 0 -102M960 419l1 2M961 422l0 -4M961 422l1 -4M962 558l0 -315M962 420l1 0 0 -86M963 420l2 0M965 455l0 -129M965 422l1 -4M966 426l0 -107"/>
<path stroke="red" d="M966 426l1 -12M967 426l0 -12M967 417l1 6M968 489l0 -157M968 420l1 0 0 -102M969 349l1 -17M970 425l0 -93M970 423l1 -6M971 455l0 -129M971 419l1 2 0 -21M972 401l1 -3M973 424l0 -105M973 424l1 -8M974 424l0 -8"/>
</svg>
