<?xml version="1.0" standalone="yes"?>
<!DOCTYPE svg PUBLIC "-//W3C//DTD SVG 1.1//EN"
 "http://www.w3.org/Graphics/SVG/1.1/DTD/svg11.dtd">
<svg xmlns="http://www.w3.org/2000/svg" version="1.1"
  width="100%" height="100%" viewBox="0 0 1024 768"
  style="fill: none; stroke-width: 3; font-family: Helvetica;
 font: Helvetica;
">

<!-- Creator: NGspice -->

<rect x="0" y="0" width="1024" height="768" fill="white" stroke="none"/>
<text stroke="none" fill="black" font-size="16" x="358" y="752">
time
</text>
<text stroke="none" fill="black" font-size="16" x="10" y="16">
tran1: Cumulative Energy Consumption
</text>
<path stroke="black" stroke-width="3" d="M60 704l0 -640"/>
<text stroke="none" fill="black" font-size="16" x="45" y="728">
0.0
</text>
<path stroke="black" stroke-width="3" stroke-dasharray="1,2" d="M210 704l0 -640"/>
<text stroke="none" fill="black" font-size="16" x="195" y="728">
0.5
</text>
<path stroke="black" stroke-width="3" stroke-dasharray="1,2" d="M360 704l0 -640"/>
<text stroke="none" fill="black" font-size="16" x="345" y="728">
1.0
</text>
<path stroke="black" stroke-width="3" stroke-dasharray="1,2" d="M510 704l0 -640"/>
<text stroke="none" fill="black" font-size="16" x="495" y="728">
1.5
</text>
<path stroke="black" stroke-width="3" stroke-dasharray="1,2" d="M660 704l0 -640"/>
<text stroke="none" fill="black" font-size="16" x="645" y="728">
2.0
</text>
<path stroke="black" stroke-width="3" stroke-dasharray="1,2" d="M810 704l0 -640"/>
<text stroke="none" fill="black" font-size="16" x="795" y="728">
2.5
</text>
<path stroke="black" stroke-width="3" stroke-dasharray="1,2" d="M960 704l0 -640"/>
<text stroke="none" fill="black" font-size="16" x="945" y="728">
3.0
</text>
<text stroke="none" fill="black" font-size="16" x="614" y="752">
us
</text>
<path stroke="black" stroke-width="3" stroke-dasharray="1,2" d="M60 704l900 0"/>
<text stroke="none" fill="black" font-size="16" x="8" y="712">
-10.0
</text>
<path stroke="black" stroke-width="3" d="M60 624l900 0"/>
<text stroke="none" fill="black" font-size="16" x="28" y="632">
0.0
</text>
<path stroke="black" stroke-width="3" stroke-dasharray="1,2" d="M60 544l900 0"/>
<text stroke="none" fill="black" font-size="16" x="18" y="552">
10.0
</text>
<path stroke="black" stroke-width="3" stroke-dasharray="1,2" d="M60 464l900 0"/>
<text stroke="none" fill="black" font-size="16" x="18" y="472">
20.0
</text>
<path stroke="black" stroke-width="3" stroke-dasharray="1,2" d="M60 384l900 0"/>
<text stroke="none" fill="black" font-size="16" x="18" y="392">
30.0
</text>
<path stroke="black" stroke-width="3" stroke-dasharray="1,2" d="M60 304l900 0"/>
<text stroke="none" fill="black" font-size="16" x="18" y="312">
40.0
</text>
<path stroke="black" stroke-width="3" stroke-dasharray="1,2" d="M60 224l900 0"/>
<text stroke="none" fill="black" font-size="16" x="18" y="232">
50.0
</text>
<path stroke="black" stroke-width="3" stroke-dasharray="1,2" d="M60 144l900 0"/>
<text stroke="none" fill="black" font-size="16" x="18" y="152">
60.0
</text>
<path stroke="black" stroke-width="3" stroke-dasharray="1,2" d="M60 64l900 0"/>
<text stroke="none" fill="black" font-size="16" x="18" y="72">
70.0
</text>
<text stroke="none" fill="black" font-size="16" x="10" y="32">
p     
</text>
<path stroke="red" d="M450 23l45 0"/>
<text stroke="none" fill="black" font-size="16" x="505" y="32">
total_energy
</text>
<path stroke="red" d="M60 625l0 -1 2 0 0 -1 1 0 0 -1 2 0 0 -1 3 0 0 -1 1 0 0 -1 2 0 0 -1 1 0 0 -1 2 0 0 -1 1 0 0 -1 2 0 0 -1 1 0 0 -1 2 0 0 -1 1 0 0 -1 2 0 0 -1 3 0 0 -1 1 0 0 -1 2 0 0 -1 1 0 0 -1 3 0 0 -2 2 0 0 -1 1 0 0 -1 2 0 0 -1 1 0 0 -1"/>
<path stroke="red" d="M99 600l2 0 0 -1 3 0 0 -1 1 0 0 -1 2 0 0 -1 1 0 0 -1 2 0 0 -1 1 0 0 -1 2 0 0 -1 1 0 0 -1 3 0 0 -2 3 0 0 -2 2 0 0 -1 1 0 0 -1 2 0 0 -1 3 0 0 -1 1 0 0 -1 2 0 0 -1 1 0 0 -1 3 0 0 -2 3 0 0 -1 2 0 0 -1 1 0 0 -1 2 0 0 -1 1 0 0 -1"/>
<path stroke="red" d="M144 573l2 0 0 -1 1 0 0 -1 2 0 0 -1 1 0 0 -1 3 0 0 -2 3 0 0 -1 2 0 0 -1 1 0 0 -1 2 0 0 -1 1 0 0 -1 3 0 0 -2 3 0 0 -2 3 0 0 -2 3 0 0 -1 2 0 0 -1 1 0 0 -1 2 0 0 -1 1 0 0 -1 3 0 0 -2 3 0 0 -1 2 0 0 -1 1 0 0 -1 2 0 0 -1 1 0"/>
<path stroke="red" d="M192 545l0 -1 2 0 0 -1 1 0 0 -1 2 0 0 -1 1 0 0 -1 3 0 0 -2 3 0 0 -2 3 0 0 -2 3 0 0 -1 2 0 0 -1 1 0 0 -1 2 0 0 -1 1 0 0 -1 2 0 0 -1 1 0 0 -1 2 0 0 -1 1 0 0 -1 3 0 0 -1 1 0 0 -1 2 0 0 -1 2 0 0 -1 1 0 0 -1 2 0 0 -1 3 0 0 -1"/>
<path stroke="red" d="M236 518l1 0 0 -1 2 0 0 -1 1 0 0 -1 2 0 0 -1 1 0 0 -1 2 0 0 -1 1 0 0 -1 2 0 0 -1 1 0 0 -1 2 0 0 -1 1 0 0 -1 2 0 0 -1 1 0 0 -1 2 0 0 -1 3 0 0 -1 1 0 0 -1 2 0 0 -1 1 0 0 -1 2 0 0 -1 1 0 0 -1 2 0 0 -1 1 0 0 -1 2 0 0 -1 1 0"/>
<path stroke="red" d="M273 495l0 -1 2 0 0 -1 3 0 0 -1 1 0 0 -1 2 0 0 -1 1 0 0 -1 2 0 0 -1 1 0 0 -1 2 0 0 -1 1 0 0 -1 2 0 0 -1 1 0 0 -1 2 0 0 -1 3 0 0 -1 1 0 0 -1 2 0 0 -1 1 0 0 -1 2 0 0 -1 1 0 0 -1 2 0 0 -1 1 0 0 -1 2 0 0 -1 1 0 0 -1 2 0 0 -1"/>
<path stroke="red" d="M311 471l1 0 0 -1 2 0 0 -1 1 0 0 -1 2 0 0 -1 3 0 0 -1 1 0 0 -1 2 0 0 -1 1 0 0 -1 2 0 0 -1 1 0 0 -1 2 0 0 -1 3 0 0 -1 1 0 0 -1 2 0 0 -1 1 0 0 -1 2 0 0 -1 1 0 0 -1 2 0 0 -1 1 0 0 -1 2 0 0 -1 1 0 0 -1 2 0 0 -1 3 0 0 -1 1 0"/>
<path stroke="red" d="M351 448l0 -1 2 0 0 -1 1 0 0 -1 3 0 0 -2 3 0 0 -2 3 0 0 -2 3 0 0 -1 2 0 0 -1 1 0 0 -1 2 0 0 -1 1 0 0 -1 3 0 0 -2 3 0 0 -1 2 0 0 -1 1 0 0 -1 2 0 0 -1 1 0 0 -1 2 0 0 -1 1 0 0 -1 2 0 0 -1 1 0 0 -1 3 0 0 -2 3 0 0 -2 3 0 0 -2"/>
<path stroke="red" d="M399 417l3 0 0 -1 2 0 0 -1 1 0 0 -1 2 0 0 -1 1 0 0 -1 2 0 0 -1 1 0 0 -1 2 0 0 -1 1 0 0 -1 3 0 0 -2 3 0 0 -1 2 0 0 -1 1 0 0 -1 2 0 0 -1 3 0 0 -1 1 0 0 -2 3 0 0 -2 3 0 0 -2 3 0 0 -1 2 0 0 -1 1 0 0 -1 2 0 0 -1 1 0M444 392l0 -1"/>
<path stroke="red" d="M444 391l3 0 0 -2 3 0 0 -1 2 0 0 -1 1 0 0 -1 2 0 0 -1 1 0 0 -1 2 0 0 -1 1 0 0 -1 2 0 0 -1 1 0 0 -1 3 0 0 -2 3 0 0 -1 2 0 0 -1 1 0 0 -1 2 0 0 -1 1 0 0 -1M474 374l2 0 0 -1 1 0 0 -2 3 0 0 -2 3 0 0 -2 3 0 0 -1 2 0 0 -1 1 0 0 -1"/>
<path stroke="red" d="M489 364l2 0 0 -1 1 0 0 -1 2 0 0 -1 1 0 0 -1 2 0 0 -1 1 0 0 -1M498 359l2 0 0 -1 1 0 0 -2 3 0 0 -2 3 0 0 -2 3 0 0 -1 2 0 0 -1 1 0 0 -1 2 0 0 -1 1 0 0 -1M516 348l2 0 0 -1 1 0 0 -1 2 0 0 -1 1 0 0 -1 2 0 0 -1 1 0 0 -1 2 0 0 -1"/>
<path stroke="red" d="M527 341l1 0 0 -1 2 0 0 -1 1 0 0 -1 2 0 0 -1 3 0 0 -1 1 0 0 -1 2 0 0 -1 1 0 0 -1 2 0 0 -1 1 0 0 -1 2 0 0 -1 3 0 0 -1 1 0 0 -1 2 0 0 -1 1 0 0 -1 2 0 0 -1 1 0 0 -1 2 0 0 -1 1 0 0 -1 2 0 0 -1 1 0 0 -1 2 0 0 -1 3 0 0 -1 1 0"/>
<path stroke="red" d="M567 318l0 -1 2 0 0 -1 1 0 0 -1 2 0 0 -1 1 0 0 -1 3 0 0 -2 2 0 0 -1 1 0 0 -1 2 0 0 -1 3 0 0 -1 1 0 0 -1 2 0 0 -1 1 0 0 -1 2 0 0 -1 1 0 0 -1 2 0 0 -1 1 0 0 -1 3 0 0 -2 3 0 0 -2 2 0 0 -1 1 0 0 -1 2 0 0 -1 3 0 0 -1 1 0 0 -1"/>
<path stroke="red" d="M609 291l2 0 0 -1 1 0 0 -1 3 0 0 -2 3 0 0 -1 2 0 0 -1 1 0 0 -1 2 0 0 -1 1 0 0 -1 2 0 0 -1 1 0 0 -1 2 0 0 -1 1 0 0 -1 3 0 0 -2 3 0 0 -2 3 0 0 -2 3 0 0 -1 2 0 0 -1 1 0 0 -1 2 0 0 -1 1 0 0 -1 2 0 0 -1 1 0 0 -1 2 0 0 -1 1 0"/>
<path stroke="red" d="M654 264l0 -1 3 0 0 -2 3 0 0 -1 2 0 0 -1 1 0 0 -1 2 0 0 -1 1 0 0 -1 3 0 0 -2 3 0 0 -2 3 0 0 -2 3 0 0 -1 2 0 0 -1 1 0 0 -1 2 0 0 -1 1 0 0 -1 2 0 0 -1 1 0 0 -1 2 0 0 -1 1 0 0 -1 3 0 0 -2 3 0 0 -2 3 0 0 -2 3 0 0 -1 2 0 0 -1"/>
<path stroke="red" d="M704 233l1 0 0 -1 2 0 0 -1 1 0 0 -1 3 0 0 -2 3 0 0 -1 2 0 0 -1 1 0 0 -1 2 0 0 -1 1 0 0 -1 2 0 0 -1 1 0 0 -1 2 0 0 -1 1 0 0 -1 3 0 0 -2 3 0 0 -1 2 0 0 -1 1 0 0 -1 2 0 0 -1 3 0 0 -1 1 0 0 -1 2 0 0 -1 1 0 0 -1 2 0 0 -1 1 0"/>
<path stroke="red" d="M747 208l0 -2 3 0 0 -1 2 0 0 -1 1 0 0 -1 2 0 0 -1 3 0 0 -1 1 0 0 -1 2 0 0 -1 1 0 0 -1 2 0 0 -1 1 0 0 -1 2 0 0 -1 1 0 0 -1 2 0 0 -1 1 0 0 -1 2 0 0 -1 3 0 0 -1 1 0 0 -1 2 0 0 -1 1 0 0 -1 2 0 0 -1 1 0 0 -1 2 0 0 -1 1 0 0 -1"/>
<path stroke="red" d="M786 183l2 0 0 -1 1 0 0 -1 2 0 0 -1 1 0 0 -1 2 0 0 -1 1 0 0 -1 2 0 0 -1 3 0 0 -1 1 0 0 -1 2 0 0 -1 1 0 0 -1 3 0 0 -2 2 0 0 -1 3 0 0 -1 1 0 0 -1 2 0 0 -1 1 0 0 -1 2 0 0 -1 1 0 0 -1 2 0 0 -1 1 0 0 -1 3 0 0 -2 2 0 0 -1 1 0"/>
<path stroke="red" d="M828 159l0 -1M828 159l2 0 0 -1 1 0 0 -1 2 0 0 -1 1 0 0 -1 2 0 0 -1 1 0 0 -1 2 0 0 -1 1 0 0 -1 2 0 0 -1 1 0 0 -1 2 0 0 -1 3 0 0 -1 1 0 0 -1 2 0 0 -1 1 0 0 -1 2 0 0 -1 1 0 0 -1 2 0 0 -1 3 0 0 -1 1 0 0 -1 2 0 0 -1 1 0 0 -1"/>
<path stroke="red" d="M864 137l2 0 0 -1 1 0 0 -1 2 0 0 -1 1 0 0 -1 2 0 0 -1 1 0 0 -1 2 0 0 -1 1 0 0 -1 2 0 0 -1 1 0 0 -1 2 0 0 -1 3 0 0 -1 1 0 0 -1 2 0 0 -1 1 0 0 -1 2 0 0 -1 1 0 0 -1 2 0 0 -1 1 0 0 -1 3 0 0 -2 2 0 0 -1 3 0 0 -1 1 0 0 -1 2 0"/>
<path stroke="red" d="M905 113l0 -1 1 0 0 -1 3 0 0 -2 3 0 0 -2 3 0 0 -2 3 0 0 -1 2 0 0 -1 1 0 0 -1 2 0 0 -1 1 0 0 -1 3 0 0 -2 3 0 0 -1 2 0 0 -1 1 0 0 -1 2 0 0 -1 1 0 0 -1 2 0 0 -1 1 0 0 -1 2 0 0 -1 1 0 0 -1 3 0 0 -2 3 0 0 -1 2 0 0 -1 1 0 0 -1"/>
<path stroke="red" d="M951 84l2 0 0 -1 1 0 0 -1M954 83l2 0 0 -1 1 0 0 -2 3 0"/>
</svg>
