<?xml version="1.0" standalone="yes"?>
<!DOCTYPE svg PUBLIC "-//W3C//DTD SVG 1.1//EN"
 "http://www.w3.org/Graphics/SVG/1.1/DTD/svg11.dtd">
<svg xmlns="http://www.w3.org/2000/svg" version="1.1"
  width="100%" height="100%" viewBox="0 0 1024 768"
  style="fill: none; stroke-width: 3; font-family: Helvetica;
 font: Helvetica;
">

<!-- Creator: NGspice -->

<rect x="0" y="0" width="1024" height="768" fill="white" stroke="none"/>
<text stroke="none" fill="black" font-size="16" x="358" y="752">
time
</text>
<text stroke="none" fill="black" font-size="16" x="10" y="16">
tran1: Inputs 0-3 (Fast)
</text>
<path stroke="black" stroke-width="3" d="M50 704l0 -639"/>
<text stroke="none" fill="black" font-size="16" x="35" y="728">
0.0
</text>
<path stroke="black" stroke-width="3" stroke-dasharray="1,2" d="M204 704l0 -639"/>
<text stroke="none" fill="black" font-size="16" x="189" y="728">
0.5
</text>
<path stroke="black" stroke-width="3" stroke-dasharray="1,2" d="M358 704l0 -639"/>
<text stroke="none" fill="black" font-size="16" x="343" y="728">
1.0
</text>
<path stroke="black" stroke-width="3" stroke-dasharray="1,2" d="M512 704l0 -639"/>
<text stroke="none" fill="black" font-size="16" x="497" y="728">
1.5
</text>
<path stroke="black" stroke-width="3" stroke-dasharray="1,2" d="M666 704l0 -639"/>
<text stroke="none" fill="black" font-size="16" x="651" y="728">
2.0
</text>
<path stroke="black" stroke-width="3" stroke-dasharray="1,2" d="M820 704l0 -639"/>
<text stroke="none" fill="black" font-size="16" x="805" y="728">
2.5
</text>
<path stroke="black" stroke-width="3" stroke-dasharray="1,2" d="M974 704l0 -639"/>
<text stroke="none" fill="black" font-size="16" x="959" y="728">
3.0
</text>
<text stroke="none" fill="black" font-size="16" x="614" y="752">
us
</text>
<path stroke="black" stroke-width="3" d="M50 704l924 0"/>
<text stroke="none" fill="black" font-size="16" x="18" y="712">
0.0
</text>
<path stroke="black" stroke-width="3" stroke-dasharray="1,2" d="M50 633l924 0"/>
<text stroke="none" fill="black" font-size="16" x="18" y="641">
0.2
</text>
<path stroke="black" stroke-width="3" stroke-dasharray="1,2" d="M50 562l924 0"/>
<text stroke="none" fill="black" font-size="16" x="18" y="570">
0.4
</text>
<path stroke="black" stroke-width="3" stroke-dasharray="1,2" d="M50 491l924 0"/>
<text stroke="none" fill="black" font-size="16" x="18" y="499">
0.6
</text>
<path stroke="black" stroke-width="3" stroke-dasharray="1,2" d="M50 420l924 0"/>
<text stroke="none" fill="black" font-size="16" x="18" y="428">
0.8
</text>
<path stroke="black" stroke-width="3" stroke-dasharray="1,2" d="M50 349l924 0"/>
<text stroke="none" fill="black" font-size="16" x="18" y="357">
1.0
</text>
<path stroke="black" stroke-width="3" stroke-dasharray="1,2" d="M50 278l924 0"/>
<text stroke="none" fill="black" font-size="16" x="18" y="286">
1.2
</text>
<path stroke="black" stroke-width="3" stroke-dasharray="1,2" d="M50 207l924 0"/>
<text stroke="none" fill="black" font-size="16" x="18" y="215">
1.4
</text>
<path stroke="black" stroke-width="3" stroke-dasharray="1,2" d="M50 136l924 0"/>
<text stroke="none" fill="black" font-size="16" x="18" y="144">
1.6
</text>
<path stroke="black" stroke-width="3" stroke-dasharray="1,2" d="M50 65l924 0"/>
<text stroke="none" fill="black" font-size="16" x="18" y="73">
1.8
</text>
<text stroke="none" fill="black" font-size="16" x="10" y="32">
V
</text>
<path stroke="red" d="M462 23l46 0"/>
<text stroke="none" fill="black" font-size="16" x="518" y="32">
v(in_0)
</text>
<path stroke="red" d="M50 704l0 -639 2 0M52 704l0 -639M52 704l1 0 0 -639 2 0M55 704l0 -639M55 704l1 0 0 -639 2 0M58 704l0 -639M58 704l2 0 0 -639 1 0M61 704l0 -639M61 704l2 0 0 -639 1 0M64 704l0 -639M64 704l2 0 0 -639 1 0M67 704l0 -639M67 704l2 0"/>
<path stroke="red" d="M69 704l0 -639 1 0M70 704l0 -639M70 704l2 0 0 -639 1 0M73 704l0 -639M73 704l2 0 0 -639 1 0M76 704l0 -639M76 704l2 0 0 -639 1 0M79 704l0 -639M79 704l2 0 0 -639 1 0M82 704l0 -639M82 704l2 0 0 -639 1 0M85 704l0 -639M85 704l2 0"/>
<path stroke="red" d="M87 704l0 -639 2 0M89 704l0 -639M89 704l1 0 0 -639 2 0M92 704l0 -639M92 704l1 0 0 -639 2 0M95 704l0 -639M95 704l2 0 0 -639 1 0M98 704l0 -639M98 704l2 0 0 -639 1 0M101 704l0 -639M101 704l2 0 0 -639 1 0M104 704l0 -639M104 704l2 0"/>
<path stroke="red" d="M106 704l0 -639 1 0M107 704l0 -639M107 704l2 0 0 -639 1 0M110 704l0 -639M110 704l2 0 0 -639 1 0M113 704l0 -639M113 704l2 0 0 -639 1 0M116 704l0 -639M116 704l2 0 0 -639 1 0M119 704l0 -639M119 704l2 0 0 -639 1 0M122 704l0 -639"/>
<path stroke="red" d="M122 704l2 0 0 -639 1 0M125 154l0 -89M125 154l1 103M126 704l0 -447M126 704l1 0 0 -639 2 0M129 704l0 -639M129 704l1 0 0 -639 2 0M132 704l0 -639M132 704l1 0 0 -639 2 0M135 704l0 -639M135 704l2 0 0 -639 1 0M138 704l0 -639M138 704l2 0"/>
<path stroke="red" d="M140 704l0 -639 1 0M141 704l0 -639M141 704l2 0 0 -639 1 0M144 704l0 -639M144 704l2 0 0 -639 1 0M147 704l0 -639M147 704l2 0 0 -639 1 0M150 704l0 -639M150 704l2 0 0 -639 1 0M153 704l0 -639M153 704l2 0 0 -639 1 0M156 704l0 -639"/>
<path stroke="red" d="M156 704l2 0 0 -639 1 0M159 704l0 -639M159 704l2 0 0 -639 1 0M162 704l0 -639M162 704l2 0 0 -639 2 0M166 704l0 -639M166 704l1 0 0 -639 2 0M169 704l0 -639M169 704l1 0 0 -639 2 0M172 704l0 -639M172 704l2 0 0 -639 1 0M175 704l0 -639"/>
<path stroke="red" d="M175 704l2 0 0 -639 1 0M178 704l0 -639M178 704l2 0 0 -639 1 0M181 704l0 -639M181 704l2 0 0 -639 1 0M184 704l0 -639M184 704l2 0 0 -639 1 0M187 704l0 -639M187 704l2 0 0 -639 1 0M190 704l0 -639M190 704l2 0 0 -639 1 0M193 704l0 -639"/>
<path stroke="red" d="M193 704l2 0 0 -639 1 0M196 704l0 -639M196 704l2 0 0 -639 1 0M199 704l0 -639M199 704l2 0 0 -639 1 0M202 154l0 -89M202 154l1 103M203 704l0 -447M203 704l1 0 0 -639 2 0M206 704l0 -639M206 704l1 0 0 -639 2 0M209 704l0 -639M209 704l1 0"/>
<path stroke="red" d="M210 704l0 -639 2 0M212 704l0 -639M212 704l2 0 0 -639 1 0M215 704l0 -639M215 704l2 0 0 -639 1 0M218 704l0 -639M218 704l2 0 0 -639 1 0M221 704l0 -639M221 704l2 0 0 -639 1 0M224 704l0 -639M224 704l2 0 0 -639 1 0M227 704l0 -639"/>
<path stroke="red" d="M227 704l2 0 0 -639 1 0M230 704l0 -639M230 704l2 0 0 -639 1 0M233 704l0 -639M233 704l2 0 0 -639 1 0M236 704l0 -639M236 704l2 0 0 -639 1 0M239 704l0 -639M239 704l2 0 0 -639 2 0M243 704l0 -639M243 704l1 0 0 -639 2 0M246 704l0 -639"/>
<path stroke="red" d="M246 704l1 0 0 -639 2 0M249 704l0 -639M249 704l2 0 0 -639 1 0M252 704l0 -639M252 704l2 0 0 -639 1 0M255 704l0 -639M255 704l2 0 0 -639 1 0M258 704l0 -639M258 704l2 0 0 -639 1 0M261 704l0 -639M261 704l2 0 0 -639 1 0M264 704l0 -639"/>
<path stroke="red" d="M264 704l2 0 0 -639 1 0M267 704l0 -639M267 704l2 0 0 -639 1 0M270 704l0 -639M270 704l2 0 0 -639 1 0M273 704l0 -639M273 704l2 0 0 -639 1 0M276 704l0 -639M276 704l2 0 0 -639 1 0M279 154l0 -89M279 154l1 103M280 704l0 -447M280 704l1 0"/>
<path stroke="red" d="M281 704l0 -639 2 0M283 704l0 -639M283 704l1 0 0 -639 2 0M286 704l0 -639M286 704l1 0 0 -639 2 0M289 704l0 -639M289 704l2 0 0 -639 1 0M292 704l0 -639M292 704l2 0 0 -639 1 0M295 704l0 -639M295 704l2 0 0 -639 1 0M298 704l0 -639"/>
<path stroke="red" d="M298 704l2 0 0 -639 1 0M301 704l0 -639M301 704l2 0 0 -639 1 0M304 704l0 -639M304 704l2 0 0 -639 1 0M307 704l0 -639M307 704l2 0 0 -639 1 0M310 704l0 -639M310 704l2 0 0 -639 1 0M313 704l0 -639M313 704l2 0 0 -639 1 0M316 704l0 -639"/>
<path stroke="red" d="M316 704l2 0 0 -639 2 0M320 704l0 -639M320 704l1 0 0 -639 2 0M323 704l0 -639M323 704l1 0 0 -639 2 0M326 704l0 -639M326 704l2 0 0 -639 1 0M329 704l0 -639M329 704l2 0 0 -639 1 0M332 704l0 -639M332 704l2 0 0 -639 1 0M335 704l0 -639"/>
<path stroke="red" d="M335 704l2 0 0 -639 1 0M338 704l0 -639M338 704l2 0 0 -639 1 0M341 704l0 -639M341 704l2 0 0 -639 1 0M344 704l0 -639M344 704l2 0 0 -639 1 0M347 704l0 -639M347 704l2 0 0 -639 1 0M350 704l0 -639M350 704l2 0 0 -639 1 0M353 704l0 -639"/>
<path stroke="red" d="M353 704l2 0 0 -639 1 0M356 154l0 -89M356 154l1 103M357 704l0 -447M357 704l1 0 0 -639 2 0M360 704l0 -639M360 704l1 0 0 -639 2 0M363 704l0 -639M363 704l1 0 0 -639 2 0M366 704l0 -639M366 704l2 0 0 -639 1 0M369 704l0 -639M369 704l2 0"/>
<path stroke="red" d="M371 704l0 -639 1 0M372 704l0 -639M372 704l2 0 0 -639 1 0M375 704l0 -639M375 704l2 0 0 -639 1 0M378 704l0 -639M378 704l2 0 0 -639 1 0M381 704l0 -639M381 704l2 0 0 -639 1 0M384 704l0 -639M384 704l2 0 0 -639 1 0M387 704l0 -639"/>
<path stroke="red" d="M387 704l2 0 0 -639 1 0M390 704l0 -639M390 704l2 0 0 -639 1 0M393 704l0 -639M393 704l2 0 0 -639 2 0M397 704l0 -639M397 704l1 0 0 -639 2 0M400 704l0 -639M400 704l1 0 0 -639 2 0M403 704l0 -639M403 704l2 0 0 -639 1 0M406 704l0 -639"/>
<path stroke="red" d="M406 704l2 0 0 -639 1 0M409 704l0 -639M409 704l2 0 0 -639 1 0M412 704l0 -639M412 704l2 0 0 -639 1 0M415 704l0 -639M415 704l2 0 0 -639 1 0M418 704l0 -639M418 704l2 0 0 -639 1 0M421 704l0 -639M421 704l2 0 0 -639 1 0M424 704l0 -639"/>
<path stroke="red" d="M424 704l2 0 0 -639 1 0M427 704l0 -639M427 704l2 0 0 -639 1 0M430 704l0 -639M430 704l2 0 0 -639 1 0M433 154l0 -89M433 154l1 103M434 704l0 -447M434 704l1 0 0 -639 2 0M437 704l0 -639M437 704l1 0 0 -639 2 0M440 704l0 -639M440 704l1 0"/>
<path stroke="red" d="M441 704l0 -639 2 0M443 704l0 -639M443 704l2 0 0 -639 1 0M446 704l0 -639M446 704l2 0 0 -639 1 0M449 704l0 -639M449 704l2 0 0 -639 1 0M452 704l0 -639M452 704l2 0 0 -639 1 0M455 704l0 -639M455 704l2 0 0 -639 1 0M458 704l0 -639"/>
<path stroke="red" d="M458 704l2 0 0 -639 1 0M461 704l0 -639M461 704l2 0 0 -639 1 0M464 704l0 -639M464 704l2 0 0 -639 1 0M467 704l0 -639M467 704l2 0 0 -639 1 0M470 704l0 -639M470 704l2 0 0 -639 2 0M474 704l0 -639M474 704l1 0 0 -639 2 0M477 704l0 -639"/>
<path stroke="red" d="M477 704l1 0 0 -639 2 0M480 704l0 -639M480 704l2 0 0 -639 1 0M483 704l0 -639M483 704l2 0 0 -639 1 0M486 704l0 -639M486 704l2 0 0 -639 1 0M489 704l0 -639M489 704l2 0 0 -639 1 0M492 704l0 -639M492 704l2 0 0 -639 1 0M495 704l0 -639"/>
<path stroke="red" d="M495 704l2 0 0 -639 1 0M498 704l0 -639M498 704l2 0 0 -639 1 0M501 704l0 -639M501 704l2 0 0 -639 1 0M504 704l0 -639M504 704l2 0 0 -639 1 0M507 704l0 -639M507 704l2 0 0 -639 1 0M510 154l0 -89M510 154l1 103M511 704l0 -447M511 704l1 0"/>
<path stroke="red" d="M512 704l0 -639 2 0M514 704l0 -639M514 704l1 0 0 -639 2 0M517 704l0 -639M517 704l1 0 0 -639 2 0M520 704l0 -639M520 704l2 0 0 -639 1 0M523 704l0 -639M523 704l2 0 0 -639 1 0M526 704l0 -639M526 704l2 0 0 -639 1 0M529 704l0 -639"/>
<path stroke="red" d="M529 704l2 0 0 -639 1 0M532 704l0 -639M532 704l2 0 0 -639 1 0M535 704l0 -639M535 704l2 0 0 -639 1 0M538 704l0 -639M538 704l2 0 0 -639 1 0M541 704l0 -639M541 704l2 0 0 -639 1 0M544 704l0 -639M544 704l2 0 0 -639 1 0M547 704l0 -639"/>
<path stroke="red" d="M547 704l2 0 0 -639 2 0M551 704l0 -639M551 704l1 0 0 -639 2 0M554 704l0 -639M554 704l1 0 0 -639 2 0M557 704l0 -639M557 704l2 0 0 -639 1 0M560 704l0 -639M560 704l2 0 0 -639 1 0M563 704l0 -639M563 704l2 0 0 -639 1 0M566 704l0 -639"/>
<path stroke="red" d="M566 704l2 0 0 -639 1 0M569 704l0 -639M569 704l2 0 0 -639 1 0M572 704l0 -639M572 704l2 0 0 -639 1 0M575 704l0 -639M575 704l2 0 0 -639 1 0M578 704l0 -639M578 704l2 0 0 -639 1 0M581 704l0 -639M581 704l2 0 0 -639 1 0M584 704l0 -639"/>
<path stroke="red" d="M584 704l2 0 0 -639 1 0M587 154l0 -89M587 154l1 103M588 704l0 -447M588 704l1 0 0 -639 2 0M591 704l0 -639M591 704l1 0 0 -639 2 0M594 704l0 -639M594 704l1 0 0 -639 2 0M597 704l0 -639M597 704l2 0 0 -639 1 0M600 704l0 -639M600 704l2 0"/>
<path stroke="red" d="M602 704l0 -639 1 0M603 704l0 -639M603 704l2 0 0 -639 1 0M606 704l0 -639M606 704l2 0 0 -639 1 0M609 704l0 -639M609 704l2 0 0 -639 1 0M612 704l0 -639M612 704l2 0 0 -639 1 0M615 704l0 -639M615 704l2 0 0 -639 1 0M618 704l0 -639"/>
<path stroke="red" d="M618 704l2 0 0 -639 1 0M621 704l0 -639M621 704l2 0 0 -639 1 0M624 704l0 -639M624 704l2 0 0 -639 2 0M628 704l0 -639M628 704l1 0 0 -639 2 0M631 704l0 -639M631 704l1 0 0 -639 2 0M634 704l0 -639M634 704l2 0 0 -639 1 0M637 704l0 -639"/>
<path stroke="red" d="M637 704l2 0 0 -639 1 0M640 704l0 -639M640 704l2 0 0 -639 1 0M643 704l0 -639M643 704l2 0 0 -639 1 0M646 704l0 -639M646 704l2 0 0 -639 1 0M649 704l0 -639M649 704l2 0 0 -639 1 0M652 704l0 -639M652 704l2 0 0 -639 1 0M655 704l0 -639"/>
<path stroke="red" d="M655 704l2 0 0 -639 1 0M658 704l0 -639M658 704l2 0 0 -639 1 0M661 704l0 -639M661 704l2 0 0 -639 1 0M664 154l0 -89M664 154l1 103M665 704l0 -447M665 704l1 0 0 -639 2 0M668 704l0 -639M668 704l1 0 0 -639 2 0M671 704l0 -639M671 704l1 0"/>
<path stroke="red" d="M672 704l0 -639 2 0M674 704l0 -639M674 704l2 0 0 -639 1 0M677 704l0 -639M677 704l2 0 0 -639 1 0M680 704l0 -639M680 704l2 0 0 -639 1 0M683 704l0 -639M683 704l2 0 0 -639 1 0M686 704l0 -639M686 704l2 0 0 -639 1 0M689 704l0 -639"/>
<path stroke="red" d="M689 704l2 0 0 -639 1 0M692 704l0 -639M692 704l2 0 0 -639 1 0M695 704l0 -639M695 704l2 0 0 -639 1 0M698 704l0 -639M698 704l2 0 0 -639 1 0M701 704l0 -639M701 704l2 0 0 -639 2 0M705 704l0 -639M705 704l1 0 0 -639 2 0M708 704l0 -639"/>
<path stroke="red" d="M708 704l1 0 0 -639 2 0M711 704l0 -639M711 704l2 0 0 -639 1 0M714 704l0 -639M714 704l2 0 0 -639 1 0M717 704l0 -639M717 704l2 0 0 -639 1 0M720 704l0 -639M720 704l2 0 0 -639 1 0M723 704l0 -639M723 704l2 0 0 -639 1 0M726 704l0 -639"/>
<path stroke="red" d="M726 704l2 0 0 -639 1 0M729 704l0 -639M729 704l2 0 0 -639 1 0M732 704l0 -639M732 704l2 0 0 -639 1 0M735 704l0 -639M735 704l2 0 0 -639 1 0M738 704l0 -639M738 704l2 0 0 -639 1 0M741 154l0 -89M741 154l1 103M742 704l0 -447M742 704l1 0"/>
<path stroke="red" d="M743 704l0 -639 2 0M745 704l0 -639M745 704l1 0 0 -639 2 0M748 704l0 -639M748 704l1 0 0 -639 2 0M751 704l0 -639M751 704l2 0 0 -639 1 0M754 704l0 -639M754 704l2 0 0 -639 1 0M757 704l0 -639M757 704l2 0 0 -639 1 0M760 704l0 -639"/>
<path stroke="red" d="M760 704l2 0 0 -639 1 0M763 704l0 -639M763 704l2 0 0 -639 1 0M766 704l0 -639M766 704l2 0 0 -639 1 0M769 704l0 -639M769 704l2 0 0 -639 1 0M772 704l0 -639M772 704l2 0 0 -639 1 0M775 704l0 -639M775 704l2 0 0 -639 1 0M778 704l0 -639"/>
<path stroke="red" d="M778 704l2 0 0 -639 2 0M782 704l0 -639M782 704l1 0 0 -639 2 0M785 704l0 -639M785 704l1 0 0 -639 2 0M788 704l0 -639M788 704l2 0 0 -639 1 0M791 704l0 -639M791 704l2 0 0 -639 1 0M794 704l0 -639M794 704l2 0 0 -639 1 0M797 704l0 -639"/>
<path stroke="red" d="M797 704l2 0 0 -639 1 0M800 704l0 -639M800 704l2 0 0 -639 1 0M803 704l0 -639M803 704l2 0 0 -639 1 0M806 704l0 -639M806 704l2 0 0 -639 1 0M809 704l0 -639M809 704l2 0 0 -639 1 0M812 704l0 -639M812 704l2 0 0 -639 1 0M815 704l0 -639"/>
<path stroke="red" d="M815 704l2 0 0 -639 1 0M818 154l0 -89M818 154l1 103M819 704l0 -447M819 704l1 0 0 -639 2 0M822 704l0 -639M822 704l1 0 0 -639 2 0M825 704l0 -639M825 704l1 0 0 -639 2 0M828 704l0 -639M828 704l2 0 0 -639 1 0M831 704l0 -639M831 704l2 0"/>
<path stroke="red" d="M833 704l0 -639 1 0M834 704l0 -639M834 704l2 0 0 -639 1 0M837 704l0 -639M837 704l2 0 0 -639 1 0M840 704l0 -639M840 704l2 0 0 -639 1 0M843 704l0 -639M843 704l2 0 0 -639 1 0M846 704l0 -639M846 704l2 0 0 -639 1 0M849 704l0 -639"/>
<path stroke="red" d="M849 704l2 0 0 -639 1 0M852 704l0 -639M852 704l2 0 0 -639 1 0M855 704l0 -639M855 704l2 0 0 -639 2 0M859 704l0 -639M859 704l1 0 0 -639 2 0M862 704l0 -639M862 704l1 0 0 -639 2 0M865 704l0 -639M865 704l2 0 0 -639 1 0M868 704l0 -639"/>
<path stroke="red" d="M868 704l2 0 0 -639 1 0M871 704l0 -639M871 704l2 0 0 -639 1 0M874 704l0 -639M874 704l2 0 0 -639 1 0M877 704l0 -639M877 704l2 0 0 -639 1 0M880 704l0 -639M880 704l2 0 0 -639 1 0M883 704l0 -639M883 704l2 0 0 -639 1 0M886 704l0 -639"/>
<path stroke="red" d="M886 704l2 0 0 -639 1 0M889 704l0 -639M889 704l2 0 0 -639 1 0M892 704l0 -639M892 704l2 0 0 -639 1 0M895 154l0 -89M895 154l1 103M896 704l0 -447M896 704l1 0 0 -639 2 0M899 704l0 -639M899 704l1 0 0 -639 2 0M902 704l0 -639M902 704l1 0"/>
<path stroke="red" d="M903 704l0 -639 2 0M905 704l0 -639M905 704l2 0 0 -639 1 0M908 704l0 -639M908 704l2 0 0 -639 1 0M911 704l0 -639M911 704l2 0 0 -639 1 0M914 704l0 -639M914 704l2 0 0 -639 1 0M917 704l0 -639M917 704l2 0 0 -639 1 0M920 704l0 -639"/>
<path stroke="red" d="M920 704l2 0 0 -639 1 0M923 704l0 -639M923 704l2 0 0 -639 1 0M926 704l0 -639M926 704l2 0 0 -639 1 0M929 704l0 -639M929 704l2 0 0 -639 1 0M932 704l0 -639M932 704l2 0 0 -639 2 0M936 704l0 -639M936 704l1 0 0 -639 2 0M939 704l0 -639"/>
<path stroke="red" d="M939 704l1 0 0 -639 2 0M942 704l0 -639M942 704l2 0 0 -639 1 0M945 704l0 -639M945 704l2 0 0 -639 1 0M948 704l0 -639M948 704l2 0 0 -639 1 0M951 704l0 -639M951 704l2 0 0 -639 1 0M954 704l0 -639M954 704l2 0 0 -639 1 0M957 704l0 -639"/>
<path stroke="red" d="M957 704l2 0 0 -639 1 0M960 704l0 -639M960 704l2 0 0 -639 1 0M963 704l0 -639M963 704l2 0 0 -639 1 0M966 704l0 -639M966 704l2 0 0 -639 1 0M969 704l0 -639M969 704l2 0 0 -639 1 0M972 154l0 -89M972 154l1 103M973 704l0 -447M973 704l1 0"/>
<path stroke="blue" d="M50 23l46 0"/>
<text stroke="none" fill="black" font-size="16" x="106" y="32">
v(in_1)
</text>
<path stroke="blue" d="M50 704l0 -639 3 0M53 704l0 -639M53 704l3 0 0 -639 3 0M59 704l0 -639M59 704l4 0 0 -639 2 0M65 704l0 -639M65 704l4 0 0 -639 3 0M72 704l0 -639M72 704l3 0 0 -639 3 0M78 704l0 -639M78 704l3 0 0 -639 3 0M84 704l0 -639M84 704l3 0"/>
<path stroke="blue" d="M87 704l0 -639 3 0M90 704l0 -639M90 704l3 0 0 -639 3 0M96 704l0 -639M96 704l4 0 0 -639 2 0M102 704l0 -639M102 704l4 0 0 -639 3 0M109 704l0 -639M109 704l3 0 0 -639 3 0M115 704l0 -639M115 704l3 0 0 -639 3 0M121 704l0 -639"/>
<path stroke="blue" d="M121 704l3 0 0 -639 3 0M127 704l0 -639M127 704l3 0 0 -639 3 0M133 704l0 -639M133 704l4 0 0 -639 2 0M139 704l0 -639M139 704l4 0 0 -639 3 0M146 704l0 -639M146 704l3 0 0 -639 3 0M152 704l0 -639M152 704l3 0 0 -639 3 0M158 704l0 -639"/>
<path stroke="blue" d="M158 704l3 0 0 -639 3 0M164 704l0 -639M164 704l3 0 0 -639 3 0M170 704l0 -639M170 704l4 0 0 -639 2 0M176 704l0 -639M176 704l4 0 0 -639 2 0M182 608l0 -543M182 608l1 96 3 0 0 -639 3 0M189 704l0 -639M189 704l3 0 0 -639 3 0"/>
<path stroke="blue" d="M195 704l0 -639M195 704l3 0 0 -639 3 0M201 704l0 -639M201 704l3 0 0 -639 3 0M207 704l0 -639M207 704l3 0 0 -639 3 0M213 704l0 -639M213 704l4 0 0 -639 2 0M219 704l0 -639M219 704l4 0 0 -639 3 0M226 704l0 -639M226 704l3 0 0 -639"/>
<path stroke="blue" d="M229 65l3 0M232 704l0 -639M232 704l3 0 0 -639 3 0M238 704l0 -639M238 704l3 0 0 -639 3 0M244 704l0 -639M244 704l3 0 0 -639 3 0M250 704l0 -639M250 704l4 0 0 -639 2 0M256 704l0 -639M256 704l4 0 0 -639 3 0M263 704l0 -639M263 704l3 0"/>
<path stroke="blue" d="M266 704l0 -639 3 0M269 704l0 -639M269 704l3 0 0 -639 3 0M275 704l0 -639M275 704l3 0 0 -639 3 0M281 704l0 -639M281 704l3 0 0 -639 3 0M287 704l0 -639M287 704l4 0 0 -639 2 0M293 704l0 -639M293 704l4 0 0 -639 3 0M300 704l0 -639"/>
<path stroke="blue" d="M300 704l3 0 0 -639 3 0M306 704l0 -639M306 704l3 0 0 -639 3 0M312 704l0 -639M312 704l3 0 0 -639 3 0M318 704l0 -639M318 704l3 0 0 -639 3 0M324 704l0 -639M324 704l4 0 0 -639 2 0M330 704l0 -639M330 704l4 0 0 -639 2 0M336 608l0 -543"/>
<path stroke="blue" d="M336 608l1 96 3 0 0 -639 3 0M343 704l0 -639M343 704l3 0 0 -639 3 0M349 704l0 -639M349 704l3 0 0 -639 3 0M355 704l0 -639M355 704l3 0 0 -639 3 0M361 704l0 -639M361 704l3 0 0 -639 3 0M367 704l0 -639M367 704l4 0 0 -639 2 0"/>
<path stroke="blue" d="M373 704l0 -639M373 704l4 0 0 -639 3 0M380 704l0 -639M380 704l3 0 0 -639 3 0M386 704l0 -639M386 704l3 0 0 -639 3 0M392 704l0 -639M392 704l3 0 0 -639 3 0M398 704l0 -639M398 704l3 0 0 -639 3 0M404 704l0 -639M404 704l4 0 0 -639"/>
<path stroke="blue" d="M408 65l2 0M410 704l0 -639M410 704l4 0 0 -639 3 0M417 704l0 -639M417 704l3 0 0 -639 3 0M423 704l0 -639M423 704l3 0 0 -639 3 0M429 704l0 -639M429 704l3 0 0 -639 3 0M435 704l0 -639M435 704l3 0 0 -639 3 0M441 704l0 -639M441 704l4 0"/>
<path stroke="blue" d="M445 704l0 -639 2 0M447 704l0 -639M447 704l4 0 0 -639 3 0M454 704l0 -639M454 704l3 0 0 -639 3 0M460 704l0 -639M460 704l3 0 0 -639 3 0M466 704l0 -639M466 704l3 0 0 -639 3 0M472 704l0 -639M472 704l3 0 0 -639 3 0M478 704l0 -639"/>
<path stroke="blue" d="M478 704l4 0 0 -639 2 0M484 704l0 -639M484 704l4 0 0 -639 2 0M490 608l0 -543M490 608l1 96 3 0 0 -639 3 0M497 704l0 -639M497 704l3 0 0 -639 3 0M503 704l0 -639M503 704l3 0 0 -639 3 0M509 704l0 -639M509 704l3 0 0 -639 3 0"/>
<path stroke="blue" d="M515 704l0 -639M515 704l3 0 0 -639 3 0M521 704l0 -639M521 704l4 0 0 -639 2 0M527 704l0 -639M527 704l4 0 0 -639 3 0M534 704l0 -639M534 704l3 0 0 -639 3 0M540 704l0 -639M540 704l3 0 0 -639 3 0M546 704l0 -639M546 704l3 0 0 -639"/>
<path stroke="blue" d="M549 65l3 0M552 704l0 -639M552 704l3 0 0 -639 3 0M558 704l0 -639M558 704l4 0 0 -639 2 0M564 704l0 -639M564 704l4 0 0 -639 3 0M571 704l0 -639M571 704l3 0 0 -639 3 0M577 704l0 -639M577 704l3 0 0 -639 3 0M583 704l0 -639M583 704l3 0"/>
<path stroke="blue" d="M586 704l0 -639 3 0M589 704l0 -639M589 704l3 0 0 -639 3 0M595 704l0 -639M595 704l4 0 0 -639 2 0M601 704l0 -639M601 704l4 0 0 -639 3 0M608 704l0 -639M608 704l3 0 0 -639 3 0M614 704l0 -639M614 704l3 0 0 -639 3 0M620 704l0 -639"/>
<path stroke="blue" d="M620 704l3 0 0 -639 3 0M626 704l0 -639M626 704l3 0 0 -639 3 0M632 704l0 -639M632 704l4 0 0 -639 2 0M638 704l0 -639M638 704l4 0 0 -639 2 0M644 608l0 -543M644 608l1 96 3 0 0 -639 3 0M651 704l0 -639M651 704l3 0 0 -639 3 0"/>
<path stroke="blue" d="M657 704l0 -639M657 704l3 0 0 -639 3 0M663 704l0 -639M663 704l3 0 0 -639 3 0M669 704l0 -639M669 704l3 0 0 -639 3 0M675 704l0 -639M675 704l4 0 0 -639 2 0M681 704l0 -639M681 704l4 0 0 -639 3 0M688 704l0 -639M688 704l3 0 0 -639"/>
<path stroke="blue" d="M691 65l3 0M694 704l0 -639M694 704l3 0 0 -639 3 0M700 704l0 -639M700 704l3 0 0 -639 3 0M706 704l0 -639M706 704l3 0 0 -639 3 0M712 704l0 -639M712 704l4 0 0 -639 2 0M718 704l0 -639M718 704l4 0 0 -639 3 0M725 704l0 -639M725 704l3 0"/>
<path stroke="blue" d="M728 704l0 -639 3 0M731 704l0 -639M731 704l3 0 0 -639 3 0M737 704l0 -639M737 704l3 0 0 -639 3 0M743 704l0 -639M743 704l3 0 0 -639 3 0M749 704l0 -639M749 704l4 0 0 -639 2 0M755 704l0 -639M755 704l4 0 0 -639 3 0M762 704l0 -639"/>
<path stroke="blue" d="M762 704l3 0 0 -639 3 0M768 704l0 -639M768 704l3 0 0 -639 3 0M774 704l0 -639M774 704l3 0 0 -639 3 0M780 704l0 -639M780 704l3 0 0 -639 3 0M786 704l0 -639M786 704l4 0 0 -639 2 0M792 704l0 -639M792 704l4 0 0 -639 2 0M798 608l0 -543"/>
<path stroke="blue" d="M798 608l1 96 3 0 0 -639 3 0M805 704l0 -639M805 704l3 0 0 -639 3 0M811 704l0 -639M811 704l3 0 0 -639 3 0M817 704l0 -639M817 704l3 0 0 -639 3 0M823 704l0 -639M823 704l3 0 0 -639 3 0M829 704l0 -639M829 704l4 0 0 -639 2 0"/>
<path stroke="blue" d="M835 704l0 -639M835 704l4 0 0 -639 3 0M842 704l0 -639M842 704l3 0 0 -639 3 0M848 704l0 -639M848 704l3 0 0 -639 3 0M854 704l0 -639M854 704l3 0 0 -639 3 0M860 704l0 -639M860 704l3 0 0 -639 3 0M866 704l0 -639M866 704l4 0 0 -639"/>
<path stroke="blue" d="M870 65l2 0M872 704l0 -639M872 704l4 0 0 -639 3 0M879 704l0 -639M879 704l3 0 0 -639 3 0M885 704l0 -639M885 704l3 0 0 -639 3 0M891 704l0 -639M891 704l3 0 0 -639 3 0M897 704l0 -639M897 704l3 0 0 -639 3 0M903 704l0 -639M903 704l4 0"/>
<path stroke="blue" d="M907 704l0 -639 2 0M909 704l0 -639M909 704l4 0 0 -639 3 0M916 704l0 -639M916 704l3 0 0 -639 3 0M922 704l0 -639M922 704l3 0 0 -639 3 0M928 704l0 -639M928 704l3 0 0 -639 3 0M934 704l0 -639M934 704l3 0 0 -639 3 0M940 704l0 -639"/>
<path stroke="blue" d="M940 704l4 0 0 -639 2 0M946 704l0 -639M946 704l4 0 0 -639 2 0M952 608l0 -543M952 608l1 96 3 0 0 -639 3 0M959 704l0 -639M959 704l3 0 0 -639 3 0M965 704l0 -639M965 704l3 0 0 -639 3 0M971 704l0 -639M971 704l3 0"/>
<path stroke="darkgreen" d="M462 39l46 0"/>
<text stroke="none" fill="black" font-size="16" x="518" y="48">
v(in_2)
</text>
<path stroke="darkgreen" d="M50 704l0 -639 6 0M56 704l0 -639M56 704l7 0 0 -639 6 0M69 704l0 -639M69 704l6 0 0 -639 6 0M81 704l0 -639M81 704l6 0 0 -639 6 0M93 704l0 -639M93 704l7 0 0 -639 5 0M105 608l0 -543M105 608l1 96 6 0 0 -639 6 0M118 704l0 -639"/>
<path stroke="darkgreen" d="M118 704l6 0 0 -639 6 0M130 704l0 -639M130 704l7 0 0 -639 5 0M142 704l0 -639M142 704l7 0 0 -639 6 0M155 704l0 -639M155 704l6 0 0 -639 6 0M167 704l0 -639M167 704l7 0 0 -639 5 0M179 704l0 -639M179 704l7 0 0 -639 6 0"/>
<path stroke="darkgreen" d="M192 704l0 -639M192 704l6 0 0 -639 6 0M204 704l0 -639M204 704l6 0 0 -639 6 0M216 704l0 -639M216 704l7 0 0 -639 6 0M229 704l0 -639M229 704l6 0 0 -639 6 0M241 704l0 -639M241 704l6 0 0 -639 6 0M253 704l0 -639M253 704l7 0"/>
<path stroke="darkgreen" d="M260 704l0 -639 6 0M266 704l0 -639M266 704l6 0 0 -639 6 0M278 704l0 -639M278 704l6 0 0 -639 6 0M290 704l0 -639M290 704l7 0 0 -639 6 0M303 704l0 -639M303 704l6 0 0 -639 6 0M315 704l0 -639M315 704l6 0 0 -639 6 0M327 704l0 -639"/>
<path stroke="darkgreen" d="M327 704l7 0 0 -639 6 0M340 704l0 -639M340 704l6 0 0 -639 6 0M352 704l0 -639M352 704l6 0 0 -639 6 0M364 704l0 -639M364 704l7 0 0 -639 6 0M377 704l0 -639M377 704l6 0 0 -639 6 0M389 704l0 -639M389 704l6 0 0 -639 6 0"/>
<path stroke="darkgreen" d="M401 704l0 -639M401 704l7 0 0 -639 5 0M413 608l0 -543M413 608l1 96 6 0 0 -639 6 0M426 704l0 -639M426 704l6 0 0 -639 6 0M438 704l0 -639M438 704l7 0 0 -639 5 0M450 704l0 -639M450 704l7 0 0 -639 6 0M463 704l0 -639M463 704l6 0"/>
<path stroke="darkgreen" d="M469 704l0 -639 6 0M475 704l0 -639M475 704l7 0 0 -639 5 0M487 704l0 -639M487 704l7 0 0 -639 6 0M500 704l0 -639M500 704l6 0 0 -639 6 0M512 704l0 -639M512 704l6 0 0 -639 6 0M524 704l0 -639M524 704l7 0 0 -639 6 0M537 704l0 -639"/>
<path stroke="darkgreen" d="M537 704l6 0 0 -639 6 0M549 704l0 -639M549 704l6 0 0 -639 6 0M561 704l0 -639M561 704l7 0 0 -639 6 0M574 704l0 -639M574 704l6 0 0 -639 6 0M586 704l0 -639M586 704l6 0 0 -639 6 0M598 704l0 -639M598 704l7 0 0 -639 6 0"/>
<path stroke="darkgreen" d="M611 704l0 -639M611 704l6 0 0 -639 6 0M623 704l0 -639M623 704l6 0 0 -639 6 0M635 704l0 -639M635 704l7 0 0 -639 6 0M648 704l0 -639M648 704l6 0 0 -639 6 0M660 704l0 -639M660 704l6 0 0 -639 6 0M672 704l0 -639M672 704l7 0"/>
<path stroke="darkgreen" d="M679 704l0 -639 6 0M685 704l0 -639M685 704l6 0 0 -639 6 0M697 704l0 -639M697 704l6 0 0 -639 6 0M709 704l0 -639M709 704l7 0 0 -639 5 0M721 608l0 -543M721 608l1 96 6 0 0 -639 6 0M734 704l0 -639M734 704l6 0 0 -639 6 0"/>
<path stroke="darkgreen" d="M746 704l0 -639M746 704l7 0 0 -639 5 0M758 704l0 -639M758 704l7 0 0 -639 6 0M771 704l0 -639M771 704l6 0 0 -639 6 0M783 704l0 -639M783 704l7 0 0 -639 5 0M795 704l0 -639M795 704l7 0 0 -639 6 0M808 704l0 -639M808 704l6 0"/>
<path stroke="darkgreen" d="M814 704l0 -639 6 0M820 704l0 -639M820 704l6 0 0 -639 6 0M832 704l0 -639M832 704l7 0 0 -639 6 0M845 704l0 -639M845 704l6 0 0 -639 6 0M857 704l0 -639M857 704l6 0 0 -639 6 0M869 704l0 -639M869 704l7 0 0 -639 6 0M882 704l0 -639"/>
<path stroke="darkgreen" d="M882 704l6 0 0 -639 6 0M894 704l0 -639M894 704l6 0 0 -639 6 0M906 704l0 -639M906 704l7 0 0 -639 6 0M919 704l0 -639M919 704l6 0 0 -639 6 0M931 704l0 -639M931 704l6 0 0 -639 6 0M943 704l0 -639M943 704l7 0 0 -639 6 0"/>
<path stroke="darkgreen" d="M956 704l0 -639M956 704l6 0 0 -639 6 0M968 704l0 -639M968 704l6 0"/>
<path stroke="green" d="M50 39l46 0"/>
<text stroke="none" fill="black" font-size="16" x="106" y="48">
v(in_3)
</text>
<path stroke="green" d="M50 704l0 -639 12 0M62 704l0 -639M62 704l13 0 0 -639 12 0M87 704l0 -639M87 704l13 0 0 -639 12 0M112 704l0 -639M112 704l12 0 0 -639 12 0M136 704l0 -639M136 704l13 0 0 -639 12 0M161 704l0 -639M161 704l13 0 0 -639 12 0M186 704l0 -639"/>
<path stroke="green" d="M186 704l12 0 0 -639 12 0M210 704l0 -639M210 704l13 0 0 -639 12 0M235 704l0 -639M235 704l12 0 0 -639 12 0M259 608l0 -543M259 608l1 96 12 0 0 -639 12 0M284 704l0 -639M284 704l13 0 0 -639 12 0M309 704l0 -639M309 704l12 0"/>
<path stroke="green" d="M321 704l0 -639 12 0M333 704l0 -639M333 704l13 0 0 -639 12 0M358 704l0 -639M358 704l13 0 0 -639 12 0M383 704l0 -639M383 704l12 0 0 -639 12 0M407 704l0 -639M407 704l13 0 0 -639 12 0M432 704l0 -639M432 704l13 0 0 -639 12 0"/>
<path stroke="green" d="M457 704l0 -639M457 704l12 0 0 -639 12 0M481 704l0 -639M481 704l13 0 0 -639 12 0M506 704l0 -639M506 704l12 0 0 -639 13 0M531 704l0 -639M531 704l12 0 0 -639 12 0M555 704l0 -639M555 704l13 0 0 -639 12 0M580 704l0 -639M580 704l12 0"/>
<path stroke="green" d="M592 704l0 -639 12 0M604 704l0 -639M604 704l13 0 0 -639 12 0M629 704l0 -639M629 704l13 0 0 -639 12 0M654 704l0 -639M654 704l12 0 0 -639 12 0M678 704l0 -639M678 704l13 0 0 -639 12 0M703 704l0 -639M703 704l13 0 0 -639 12 0"/>
<path stroke="green" d="M728 704l0 -639M728 704l12 0 0 -639 12 0M752 704l0 -639M752 704l13 0 0 -639 12 0M777 704l0 -639M777 704l13 0 0 -639 12 0M802 704l0 -639M802 704l12 0 0 -639 12 0M826 704l0 -639M826 704l13 0 0 -639 12 0M851 704l0 -639M851 704l12 0"/>
<path stroke="green" d="M863 704l0 -639 12 0M875 608l0 -543M875 608l1 96 12 0 0 -639 12 0M900 704l0 -639M900 704l13 0 0 -639 12 0M925 704l0 -639M925 704l12 0 0 -639 12 0M949 704l0 -639M949 704l13 0 0 -639 12 0"/>
</svg>
