<?xml version="1.0" standalone="yes"?>
<!DOCTYPE svg PUBLIC "-//W3C//DTD SVG 1.1//EN"
 "http://www.w3.org/Graphics/SVG/1.1/DTD/svg11.dtd">
<svg xmlns="http://www.w3.org/2000/svg" version="1.1"
  width="100%" height="100%" viewBox="0 0 1024 768"
  style="fill: none; stroke-width: 3; font-family: Helvetica;
 font: Helvetica;
">

<!-- Creator: NGspice -->

<rect x="0" y="0" width="1024" height="768" fill="white" stroke="none"/>
<text stroke="none" fill="black" font-size="16" x="358" y="752">
time
</text>
<text stroke="none" fill="black" font-size="16" x="10" y="16">
tran1: Cumulative Energy Consumption
</text>
<path stroke="black" stroke-width="3" d="M60 704l0 -639"/>
<text stroke="none" fill="black" font-size="16" x="45" y="728">
0.0
</text>
<path stroke="black" stroke-width="3" stroke-dasharray="1,2" d="M210 704l0 -639"/>
<text stroke="none" fill="black" font-size="16" x="195" y="728">
0.5
</text>
<path stroke="black" stroke-width="3" stroke-dasharray="1,2" d="M360 704l0 -639"/>
<text stroke="none" fill="black" font-size="16" x="345" y="728">
1.0
</text>
<path stroke="black" stroke-width="3" stroke-dasharray="1,2" d="M510 704l0 -639"/>
<text stroke="none" fill="black" font-size="16" x="495" y="728">
1.5
</text>
<path stroke="black" stroke-width="3" stroke-dasharray="1,2" d="M660 704l0 -639"/>
<text stroke="none" fill="black" font-size="16" x="645" y="728">
2.0
</text>
<path stroke="black" stroke-width="3" stroke-dasharray="1,2" d="M810 704l0 -639"/>
<text stroke="none" fill="black" font-size="16" x="795" y="728">
2.5
</text>
<path stroke="black" stroke-width="3" stroke-dasharray="1,2" d="M960 704l0 -639"/>
<text stroke="none" fill="black" font-size="16" x="945" y="728">
3.0
</text>
<text stroke="none" fill="black" font-size="16" x="614" y="752">
us
</text>
<path stroke="black" stroke-width="3" d="M60 704l900 0"/>
<text stroke="none" fill="black" font-size="16" x="18" y="712">
-0.0
</text>
<path stroke="black" stroke-width="3" stroke-dasharray="1,2" d="M60 633l900 0"/>
<text stroke="none" fill="black" font-size="16" x="18" y="641">
10.0
</text>
<path stroke="black" stroke-width="3" stroke-dasharray="1,2" d="M60 562l900 0"/>
<text stroke="none" fill="black" font-size="16" x="18" y="570">
20.0
</text>
<path stroke="black" stroke-width="3" stroke-dasharray="1,2" d="M60 491l900 0"/>
<text stroke="none" fill="black" font-size="16" x="18" y="499">
30.0
</text>
<path stroke="black" stroke-width="3" stroke-dasharray="1,2" d="M60 420l900 0"/>
<text stroke="none" fill="black" font-size="16" x="18" y="428">
40.0
</text>
<path stroke="black" stroke-width="3" stroke-dasharray="1,2" d="M60 349l900 0"/>
<text stroke="none" fill="black" font-size="16" x="18" y="357">
50.0
</text>
<path stroke="black" stroke-width="3" stroke-dasharray="1,2" d="M60 278l900 0"/>
<text stroke="none" fill="black" font-size="16" x="18" y="286">
60.0
</text>
<path stroke="black" stroke-width="3" stroke-dasharray="1,2" d="M60 207l900 0"/>
<text stroke="none" fill="black" font-size="16" x="18" y="215">
70.0
</text>
<path stroke="black" stroke-width="3" stroke-dasharray="1,2" d="M60 136l900 0"/>
<text stroke="none" fill="black" font-size="16" x="18" y="144">
80.0
</text>
<path stroke="black" stroke-width="3" stroke-dasharray="1,2" d="M60 65l900 0"/>
<text stroke="none" fill="black" font-size="16" x="18" y="73">
90.0
</text>
<text stroke="none" fill="black" font-size="16" x="10" y="32">
p     
</text>
<path stroke="red" d="M450 23l45 0"/>
<text stroke="none" fill="black" font-size="16" x="505" y="32">
total_energy
</text>
<path stroke="red" d="M60 704l1 0 0 -2 1 0 0 -3 1 0 0 -1 3 0 0 -1 1 0 0 -1 1 0 0 -1 3 0 0 -1 2 0 0 -2 2 0 0 -1 2 0 0 -1 2 0 0 -1 1 0 0 -1 1 0 0 -1 2 0 0 -1 1 0M84 687l0 -1 1 0 0 -2 1 0 0 -1 1 0 0 -1 3 0 0 -1 1 0 0 -1 1 0 0 -1 3 0 0 -1 2 0 0 -2"/>
<path stroke="red" d="M97 676l2 0 0 -1 2 0 0 -1 2 0 0 -1 1 0 0 -1 1 0 0 -1 3 0 0 -1 1 0 0 -1 1 0 0 -2 1 0 0 -1 2 0 0 -1 2 0 0 -1 1 0 0 -1 3 0 0 -1 1 0 0 -1 1 0 0 -1 1 0 0 -1 3 0 0 -1 2 0 0 -1 1 0 0 -1 1 0 0 -1 2 0 0 -1 2 0 0 -2 1 0 0 -1 1 0 0 -1"/>
<path stroke="red" d="M135 650l2 0 0 -1 2 0 0 -1 1 0 0 -1 1 0 0 -1 3 0 0 -1 1 0 0 -1 1 0 0 -1 3 0 0 -1 2 0 0 -2 2 0 0 -1 2 0 0 -1 2 0 0 -2 1 0 0 -2 1 0 0 -1 2 0 0 -1 2 0 0 -1 1 0 0 -1 1 0 0 -1 3 0 0 -1 1 0 0 -1 1 0 0 -1 3 0 0 -1 2 0 0 -2 2 0"/>
<path stroke="red" d="M177 623l0 -1 2 0 0 -1 2 0 0 -2 1 0 0 -1 1 0 0 -1 2 0 0 -1 2 0 0 -1 1 0 0 -1 1 0 0 -1 3 0 0 -1 1 0 0 -1 1 0 0 -1 3 0 0 -1 1 0 0 -1 1 0 0 -1 2 0 0 -1 2 0 0 -1 2 0 0 -2 1 0 0 -1 1 0 0 -1 2 0 0 -1 2 0 0 -1 1 0 0 -1 1 0 0 -1"/>
<path stroke="red" d="M213 597l3 0 0 -1 1 0 0 -1 1 0 0 -1 1 0 0 -1 3 0 0 -1 1 0 0 -1 2 0 0 -1 2 0 0 -1 2 0 0 -3 2 0 0 -1 2 0 0 -1 2 0 0 -2 2 0 0 -1 3 0 0 -1 1 0 0 -1 1 0 0 -1 1 0 0 -1 3 0 0 -1 1 0 0 -1 2 0 0 -1 2 0 0 -1 2 0 0 -2 1 0 0 -3 1 0"/>
<path stroke="red" d="M255 568l0 -1 3 0 0 -1 1 0 0 -1 2 0 0 -1 2 0 0 -1 2 0 0 -2 2 0 0 -1 2 0 0 -1 1 0M270 560l0 -1 1 0 0 -1 1 0 0 -1 1 0 0 -1 3 0 0 -1 1 0 0 -2 1 0 0 -1 1 0 0 -1 3 0 0 -1 1 0 0 -1 1 0 0 -1 3 0 0 -1 2 0 0 -2 2 0 0 -1 2 0 0 -1"/>
<path stroke="red" d="M293 543l2 0 0 -1 1 0 0 -1 1 0 0 -1 2 0 0 -1 1 0M300 540l0 -1 1 0 0 -1 1 0 0 -2 1 0 0 -1 3 0 0 -1 1 0 0 -1 1 0 0 -1 3 0 0 -1 2 0 0 -2 1 0 0 -1 1 0M315 529l0 -1 2 0 0 -1 2 0 0 -1 1 0 0 -1 1 0 0 -1 2 0 0 -1 2 0 0 -2 1 0 0 -1"/>
<path stroke="red" d="M326 520l1 0 0 -1 3 0 0 -1 1 0 0 -1 1 0 0 -1 3 0 0 -1 2 0 0 -2 1 0 0 -1 3 0 0 -1 2 0 0 -1 1 0 0 -1 1 0 0 -1 2 0 0 -1 2 0 0 -2 1 0M350 506l0 -3 1 0 0 -1 3 0 0 -1 1 0 0 -1 1 0 0 -1 3 0 0 -1 2 0 0 -2 1 0 0 -1 3 0 0 -1 2 0 0 -1"/>
<path stroke="red" d="M367 493l1 0 0 -1 1 0 0 -1 2 0 0 -1 2 0 0 -2 1 0 0 -1 1 0 0 -1 2 0 0 -1 1 0M378 486l0 -1 1 0 0 -1 1 0 0 -1 3 0 0 -1 2 0 0 -2 1 0 0 -1 3 0 0 -1 2 0 0 -1 1 0 0 -1 1 0 0 -1 2 0 0 -1 2 0 0 -2 1 0 0 -1 1 0 0 -1 2 0 0 -1 2 0 0 -1"/>
<path stroke="red" d="M403 468l1 0 0 -1 1 0 0 -1 3 0 0 -1 1 0 0 -1 1 0 0 -1 3 0 0 -1 1 0 0 -1 1 0M415 462l0 -2 2 0 0 -1 2 0 0 -1 2 0 0 -2 1 0 0 -1 1 0 0 -1 2 0 0 -1 2 0 0 -1 1 0 0 -1 1 0 0 -1 3 0 0 -1 1 0 0 -1 1 0 0 -1 1 0 0 -1 3 0 0 -1 1 0 0 -1"/>
<path stroke="red" d="M439 444l2 0 0 -1 2 0 0 -1 2 0 0 -2 1 0 0 -3 1 0 0 -1 3 0 0 -1 1 0 0 -1 1 0 0 -1 3 0 0 -1 2 0 0 -2 2 0 0 -1 2 0 0 -1 2 0 0 -1 1 0 0 -1 1 0 0 -1 2 0 0 -1 1 0M468 425l0 -1 1 0 0 -2 1 0 0 -1 1 0 0 -1 3 0 0 -1 1 0 0 -1 1 0 0 -1"/>
<path stroke="red" d="M476 417l3 0 0 -1 2 0 0 -2 2 0 0 -1 2 0 0 -1 2 0 0 -1 1 0 0 -1 1 0 0 -1 3 0 0 -1 1 0 0 -1 1 0 0 -2 1 0 0 -1 2 0 0 -1 2 0 0 -1 1 0 0 -1 3 0 0 -1 1 0 0 -1 1 0 0 -1 1 0 0 -1 3 0 0 -1 2 0 0 -1 1 0 0 -1 1 0 0 -1 2 0 0 -1 2 0"/>
<path stroke="red" d="M517 392l0 -2 1 0 0 -1 1 0 0 -1 2 0 0 -1 2 0 0 -1 1 0 0 -1 1 0 0 -1 3 0 0 -1 1 0 0 -1 1 0 0 -1 3 0 0 -1 2 0 0 -2 2 0 0 -1 2 0 0 -1 2 0 0 -2 1 0 0 -2 1 0 0 -1 2 0 0 -1 2 0 0 -1 1 0 0 -1 1 0 0 -1 3 0 0 -1 1 0 0 -1 1 0 0 -1"/>
<path stroke="red" d="M554 364l3 0 0 -1 2 0 0 -2 2 0 0 -1 2 0 0 -1 2 0 0 -2 1 0 0 -1 1 0 0 -1 2 0 0 -1 2 0 0 -1 1 0 0 -1 1 0 0 -1 3 0 0 -1 1 0 0 -1 1 0 0 -1 3 0 0 -1 1 0 0 -1 1 0 0 -1 2 0 0 -1 2 0 0 -1 2 0 0 -2 1 0 0 -1 1 0 0 -1 2 0 0 -1 2 0"/>
<path stroke="red" d="M595 338l0 -1 1 0 0 -1 1 0 0 -1 3 0 0 -1 1 0 0 -1 1 0 0 -1 1 0 0 -1 3 0 0 -1 1 0 0 -1 2 0 0 -1 2 0 0 -1 2 0 0 -3 2 0 0 -1 2 0 0 -1 2 0 0 -2 2 0 0 -1 3 0 0 -1 1 0 0 -1 1 0 0 -1 1 0 0 -1 3 0 0 -1 1 0 0 -1 2 0 0 -1 2 0 0 -1"/>
<path stroke="red" d="M635 311l2 0 0 -2 1 0 0 -3 1 0 0 -1 3 0 0 -1 1 0 0 -1 2 0 0 -1 2 0 0 -1 2 0 0 -2 2 0 0 -1 2 0 0 -1 1 0M654 298l0 -1 1 0 0 -1 1 0 0 -1 1 0 0 -1 3 0 0 -1 1 0 0 -2 1 0 0 -1 1 0 0 -1 3 0 0 -1 1 0 0 -1 1 0 0 -1 3 0 0 -1 2 0 0 -2"/>
<path stroke="red" d="M673 283l2 0 0 -1 2 0 0 -1 2 0 0 -1 1 0 0 -1 1 0 0 -1 2 0 0 -1 1 0M684 278l0 -1 1 0 0 -1 1 0 0 -2 1 0 0 -1 3 0 0 -1 1 0 0 -1 1 0 0 -1 3 0 0 -1 2 0 0 -2 2 0 0 -1 2 0 0 -1 2 0 0 -1 1 0 0 -1 1 0 0 -1 2 0 0 -1 2 0 0 -2 1 0 0 -1"/>
<path stroke="red" d="M710 258l1 0 0 -1 3 0 0 -1 1 0 0 -1 1 0 0 -1 3 0 0 -1 2 0 0 -2 1 0 0 -1 1 0M723 251l0 -1 2 0 0 -1 2 0 0 -1 1 0 0 -1 1 0 0 -1 2 0 0 -1 2 0 0 -1 1 0 0 -3 1 0 0 -1 3 0 0 -1 1 0 0 -1 1 0 0 -1 3 0 0 -1 2 0 0 -2 1 0 0 -1 3 0 0 -1"/>
<path stroke="red" d="M749 232l2 0 0 -1 1 0 0 -1 1 0 0 -1 2 0 0 -1 2 0 0 -2 1 0 0 -1 1 0 0 -1 2 0 0 -1 1 0M762 224l0 -1 1 0 0 -1 1 0 0 -1 3 0 0 -1 2 0 0 -2 1 0 0 -1 3 0 0 -1 2 0 0 -1 1 0 0 -1 1 0 0 -1 2 0 0 -1 2 0 0 -2 1 0 0 -1 1 0 0 -1 2 0 0 -1"/>
<path stroke="red" d="M785 207l2 0 0 -1 1 0 0 -1 1 0 0 -1 3 0 0 -1 1 0 0 -1 1 0 0 -1 3 0 0 -1 1 0 0 -1 1 0M799 200l0 -2 2 0 0 -1 2 0 0 -1 2 0 0 -2 1 0 0 -1 1 0 0 -1 2 0 0 -1 2 0 0 -1 1 0 0 -1 1 0 0 -1 3 0 0 -1 1 0 0 -1 1 0 0 -1 1 0 0 -1 3 0 0 -1"/>
<path stroke="red" d="M822 183l1 0 0 -1 2 0 0 -1 2 0 0 -1 2 0 0 -2 1 0 0 -3 1 0 0 -1 3 0 0 -1 1 0 0 -1 1 0 0 -1 1 0M837 172l0 -1 2 0 0 -1 2 0 0 -2 2 0 0 -1 2 0 0 -1 2 0 0 -1 1 0 0 -1 1 0 0 -1 3 0 0 -1 1 0 0 -2 1 0 0 -1 1 0 0 -1 3 0 0 -1 1 0 0 -1"/>
<path stroke="red" d="M859 156l1 0 0 -1 3 0 0 -1 2 0 0 -2 2 0 0 -1 2 0 0 -1 2 0 0 -1 1 0 0 -1 1 0 0 -1 3 0 0 -1 1 0 0 -1 1 0 0 -2 1 0 0 -1 2 0 0 -1 2 0 0 -1 1 0 0 -1 3 0 0 -1 1 0 0 -1 1 0 0 -1 1 0 0 -1 3 0 0 -1 2 0 0 -1 1 0 0 -1 1 0 0 -1 2 0"/>
<path stroke="red" d="M899 131l0 -1 2 0 0 -2 1 0 0 -1 1 0 0 -1 2 0 0 -1 2 0 0 -1 1 0 0 -1 2 0 0 -1 2 0 0 -1 1 0 0 -1 1 0 0 -1 3 0 0 -1 2 0 0 -2 2 0 0 -1 2 0 0 -1 2 0 0 -2 1 0 0 -2 1 0 0 -1 2 0 0 -1 2 0 0 -1 1 0 0 -1 1 0 0 -1 3 0 0 -1 1 0 0 -1"/>
<path stroke="red" d="M937 103l1 0 0 -1 3 0 0 -1 2 0 0 -1 1 0 0 -1 1 0 0 -1 2 0 0 -1 2 0 0 -2 1 0 0 -1 1 0 0 -1 2 0 0 -1 2 0 0 -1 1 0 0 -1 1 0 0 -1 3 0"/>
</svg>
