<?xml version="1.0" standalone="yes"?>
<!DOCTYPE svg PUBLIC "-//W3C//DTD SVG 1.1//EN"
 "http://www.w3.org/Graphics/SVG/1.1/DTD/svg11.dtd">
<svg xmlns="http://www.w3.org/2000/svg" version="1.1"
  width="100%" height="100%" viewBox="0 0 1024 768"
  style="fill: none; stroke-width: 3; font-family: Helvetica;
 font: Helvetica;
">

<!-- Creator: NGspice -->

<rect x="0" y="0" width="1024" height="768" fill="white" stroke="none"/>
<text stroke="none" fill="black" font-size="16" x="358" y="752">
time
</text>
<text stroke="none" fill="black" font-size="16" x="10" y="16">
tran1: Verification: Physical vs Ideal Parity
</text>
<path stroke="black" stroke-width="3" d="M50 704l0 -640"/>
<text stroke="none" fill="black" font-size="16" x="35" y="728">
0.0
</text>
<path stroke="black" stroke-width="3" stroke-dasharray="1,2" d="M204 704l0 -640"/>
<text stroke="none" fill="black" font-size="16" x="189" y="728">
0.5
</text>
<path stroke="black" stroke-width="3" stroke-dasharray="1,2" d="M358 704l0 -640"/>
<text stroke="none" fill="black" font-size="16" x="343" y="728">
1.0
</text>
<path stroke="black" stroke-width="3" stroke-dasharray="1,2" d="M512 704l0 -640"/>
<text stroke="none" fill="black" font-size="16" x="497" y="728">
1.5
</text>
<path stroke="black" stroke-width="3" stroke-dasharray="1,2" d="M666 704l0 -640"/>
<text stroke="none" fill="black" font-size="16" x="651" y="728">
2.0
</text>
<path stroke="black" stroke-width="3" stroke-dasharray="1,2" d="M820 704l0 -640"/>
<text stroke="none" fill="black" font-size="16" x="805" y="728">
2.5
</text>
<path stroke="black" stroke-width="3" stroke-dasharray="1,2" d="M974 704l0 -640"/>
<text stroke="none" fill="black" font-size="16" x="959" y="728">
3.0
</text>
<text stroke="none" fill="black" font-size="16" x="614" y="752">
us
</text>
<path stroke="black" stroke-width="3" stroke-dasharray="1,2" d="M50 704l924 0"/>
<text stroke="none" fill="black" font-size="16" x="8" y="712">
-0.5
</text>
<path stroke="black" stroke-width="3" d="M50 624l924 0"/>
<text stroke="none" fill="black" font-size="16" x="18" y="632">
0.0
</text>
<path stroke="black" stroke-width="3" stroke-dasharray="1,2" d="M50 544l924 0"/>
<text stroke="none" fill="black" font-size="16" x="18" y="552">
0.5
</text>
<path stroke="black" stroke-width="3" stroke-dasharray="1,2" d="M50 464l924 0"/>
<text stroke="none" fill="black" font-size="16" x="18" y="472">
1.0
</text>
<path stroke="black" stroke-width="3" stroke-dasharray="1,2" d="M50 384l924 0"/>
<text stroke="none" fill="black" font-size="16" x="18" y="392">
1.5
</text>
<path stroke="black" stroke-width="3" stroke-dasharray="1,2" d="M50 304l924 0"/>
<text stroke="none" fill="black" font-size="16" x="18" y="312">
2.0
</text>
<path stroke="black" stroke-width="3" stroke-dasharray="1,2" d="M50 224l924 0"/>
<text stroke="none" fill="black" font-size="16" x="18" y="232">
2.5
</text>
<path stroke="black" stroke-width="3" stroke-dasharray="1,2" d="M50 144l924 0"/>
<text stroke="none" fill="black" font-size="16" x="18" y="152">
3.0
</text>
<path stroke="black" stroke-width="3" stroke-dasharray="1,2" d="M50 64l924 0"/>
<text stroke="none" fill="black" font-size="16" x="18" y="72">
3.5
</text>
<text stroke="none" fill="black" font-size="16" x="10" y="32">
     
</text>
<path stroke="red" d="M462 23l46 0"/>
<text stroke="none" fill="black" font-size="16" x="518" y="32">
v(out_parity)
</text>
<path stroke="red" d="M50 629l0 -293 1 0M51 627l0 -313M51 624l1 0M52 630l0 -300M52 624l1 0M53 631l0 -314M53 616l1 -15 0 -265 1 0M55 627l0 -314M55 624l2 0 0 -305M57 336l1 0M58 626l0 -312M58 624l2 0M60 625l0 -2M60 624l1 0 0 -288 2 0M63 627l0 -314"/>
<path stroke="red" d="M63 336l1 0M64 626l0 -312M64 624l2 0M66 625l0 -2M66 624l1 0 0 -288 2 0M69 627l0 -312M69 624l1 0 0 -288 2 0M72 621l0 -304M72 336l1 0M73 627l0 -314M73 624l2 0 0 -303M75 624l1 0M76 630l0 -316M76 624l2 0M78 636l0 -274M78 624l1 0"/>
<path stroke="red" d="M79 637l0 -301 2 0M81 636l0 -307M81 416l1 -46M82 633l0 -301M82 337l1 -1 1 0M84 341l0 -12M84 336l1 0 1 -2M86 624l0 -296M86 624l1 0M87 633l0 -297 1 0M88 637l0 -309M88 624l1 0M89 633l0 -297 1 0M90 341l0 -12M90 336l2 0M92 624l0 -296"/>
<path stroke="red" d="M92 624l1 0M93 630l0 -6M93 630l1 3 0 -305M94 336l1 0M95 624l0 -296M95 624l2 0M97 636l0 -274M97 624l1 0M98 637l0 -301 2 0M100 635l0 -306M100 624l1 0M101 636l0 -326M101 624l2 0M103 636l0 -258M103 624l1 0M104 637l0 -301 2 0"/>
<path stroke="red" d="M106 636l0 -307M106 624l1 0M107 633l0 -297 2 0M109 341l0 -12M109 336l1 0M110 624l0 -296M110 624l2 0M112 633l0 -305M112 624l1 0M113 637l0 -301 2 0M115 341l0 -12M115 336l1 0M116 624l0 -296M116 624l2 0M118 633l0 -305M118 361l1 -15"/>
<path stroke="red" d="M119 624l0 -296M119 624l2 0M121 636l0 -274M121 624l1 0M122 637l0 -172 1 -77 0 -52 1 0M124 624l0 -295M124 624l1 0M125 637l0 -322M125 624l1 0M126 627l0 -291 1 0M127 621l0 -304M127 336l2 0M129 627l0 -314M129 624l1 0 0 -170"/>
<path stroke="red" d="M130 454l1 -67M131 623l0 -304M131 336l1 0M132 626l0 -312M132 624l2 0M134 625l0 -2M134 624l1 0 0 -288 2 0M137 627l0 -314M137 336l1 0M138 626l0 -312M138 624l2 0M140 625l0 -2M140 624l1 0 0 -288 2 0M143 627l0 -312M143 624l1 0"/>
<path stroke="red" d="M144 624l0 -288 2 0M146 621l0 -304M146 336l1 0M147 627l0 -314M147 624l2 0 0 -303M149 624l1 0M150 630l0 -316M150 412l1 -45M151 624l0 -289M151 624l1 0M152 636l0 -257M152 624l1 0M153 637l0 -301 2 0M155 636l0 -307M155 623l1 0"/>
<path stroke="red" d="M156 633l0 -297 2 0M158 341l0 -12M158 336l1 0M159 623l0 -295M159 623l1 1 1 0M161 633l0 -297 1 0M162 637l0 -309M162 624l1 1M163 633l0 -297 1 0M164 341l0 -12M164 336l2 0M166 624l0 -296M166 624l1 0M167 633l0 -297 1 0M168 617l0 -289"/>
<path stroke="red" d="M168 336l1 0M169 624l0 -296M169 624l1 0M170 636l0 -13M170 625l1 -99M171 624l0 -262M171 624l1 0M172 637l0 -301 2 0M174 635l0 -306M174 633l1 4 0 -318M175 336l2 0M177 621l0 -304M177 336l1 0M178 627l0 -314M178 624l2 0 0 -305"/>
<path stroke="red" d="M180 336l1 0M181 626l0 -312M181 624l2 0M183 625l0 -2M183 624l1 0 0 -288 2 0M186 627l0 -312M186 336l1 2M187 626l0 -313M187 624l2 0M189 625l0 -2M189 624l1 0 0 -288 2 0M192 627l0 -312M192 624l1 0 0 -288 2 0M195 621l0 -304M195 336l1 0"/>
<path stroke="red" d="M196 627l0 -314M196 624l2 0 0 -288 1 0M199 627l0 -313M199 619l1 -3M200 617l0 -281 1 0M201 621l0 -304M201 336l2 0M203 627l0 -314M203 624l1 0 0 -288 1 0M205 623l0 -304M205 336l1 0M206 626l0 -312M206 624l1 0M207 625l0 -2M207 624l2 0"/>
<path stroke="red" d="M209 624l0 -288 2 0M211 627l0 -314M211 336l1 0M212 626l0 -312M212 624l2 0M214 625l0 -2M214 624l1 0 0 -288 2 0M217 627l0 -312M217 624l1 0 0 -288 2 0M220 621l0 -304M220 336l1 0M221 627l0 -314M221 624l2 0 0 -303M223 619l1 -25"/>
<path stroke="red" d="M224 631l0 -317M224 624l2 0M226 636l0 -274M226 624l1 0M227 637l0 -301 2 0M229 636l0 -307M229 624l1 0M230 633l0 -297 2 0M232 341l0 -12M232 336l1 0M233 624l0 -296M233 624l2 0M235 633l0 -305M235 489l1 96M236 637l0 -300 1 -1"/>
<path stroke="red" d="M237 336l1 0M238 341l0 -12M238 336l1 0 1 -2M240 624l0 -296M240 624l1 0M241 633l0 -297 1 0M242 617l0 -289M242 336l1 0M243 624l0 -296M243 624l1 0M244 636l0 -274M244 623l1 1 1 0M246 637l0 -301 1 0 0 -5 1 -2M248 636l0 -307M248 336l1 0"/>
<path stroke="red" d="M249 632l0 -321M249 624l2 0M251 636l0 -257M251 624l1 0M252 637l0 -301 2 0M254 636l0 -307M254 624l1 0M255 633l0 -297 2 0M257 341l0 -12M257 336l1 0M258 624l0 -296M258 624l2 0M260 637l0 -309M260 623l1 0M261 633l0 -297 2 0M263 341l0 -12"/>
<path stroke="red" d="M263 336l1 0M264 624l0 -296M264 624l2 0M266 633l0 -305M266 336l1 0M267 624l0 -296M267 624l2 0M269 636l0 -274M269 624l1 0M270 637l0 -301 2 0M272 635l0 -306M272 336l1 0M273 637l0 -318M273 336l2 0M275 621l0 -304M275 336l1 0"/>
<path stroke="red" d="M276 400l0 -87M276 400l1 175M277 627l0 -52M277 624l1 0 0 -288 1 0M279 623l0 -304M279 336l1 0M280 626l0 -312M280 624l1 0M281 625l0 -2M281 624l2 0 0 -288 1 0M284 627l0 -312M284 622l1 3 0 -312M285 336l1 0M286 626l0 -312M286 624l2 0"/>
<path stroke="red" d="M288 625l0 -2M288 624l1 0 0 -288 2 0M291 627l0 -312M291 624l1 0 0 -288 2 0M294 621l0 -304M294 336l1 0M295 627l0 -314M295 624l2 0 0 -303M297 336l1 0M298 627l0 -313M298 336l2 0M300 621l0 -304M300 336l1 0M301 627l0 -314M301 624l2 0"/>
<path stroke="red" d="M303 624l0 -305M303 336l1 0M304 626l0 -312M304 624l2 0M306 625l0 -2M306 624l1 0 0 -288 2 0M309 627l0 -312M309 336l1 0M310 626l0 -313M310 624l2 0M312 625l0 -2M312 624l1 0 0 -286 1 -1 0 -1 1 0M315 627l0 -312M315 624l1 0M316 625l0 -278"/>
<path stroke="red" d="M316 624l1 0 0 -288 1 0M318 621l0 -304M318 336l2 0M320 627l0 -314M320 624l1 0 0 -287 1 0M322 631l0 -317M322 336l1 0M323 624l0 -296M323 624l1 0M324 636l0 -13M324 625l1 -99M325 624l0 -262M325 624l1 0M326 637l0 -301 2 0M328 636l0 -307"/>
<path stroke="red" d="M328 624l1 0M329 633l0 -297 2 0M331 341l0 -12M331 336l1 0M332 624l0 -296M332 624l2 0M334 637l0 -309M334 624l1 0M335 633l0 -297 2 0M337 341l0 -12M337 336l1 0M338 624l0 -296M338 624l2 0M340 633l0 -305M340 336l1 0M341 624l0 -296"/>
<path stroke="red" d="M341 624l2 0M343 636l0 -274M343 624l1 0M344 637l0 -301 2 0M346 635l0 -306M346 336l1 0M347 636l0 -325M347 336l1 0M348 561l0 -233M348 336l1 0M349 621l0 -304M349 336l1 0M350 627l0 -314M350 624l2 0 0 -288 1 0M353 623l0 -309"/>
<path stroke="red" d="M353 314l1 55M354 626l0 -257M354 624l1 0M355 625l0 -2M355 624l2 0 0 -288 1 0M358 627l0 -312M358 624l1 0 0 -311M359 336l1 0M360 626l0 -312M360 624l1 0M361 625l0 -2M361 624l2 0 0 -288 2 0M365 627l0 -312M365 624l1 0 0 -288"/>
<path stroke="red" d="M366 336l2 0M368 621l0 -304M368 336l1 0M369 627l0 -314M369 624l2 0 0 -303M371 336l1 0M372 630l0 -316M372 624l2 0M374 636l0 -274M374 624l1 0M375 637l0 -301 2 0M377 636l0 -307M377 624l1 0M378 633l0 -297 2 0M380 341l0 -12M380 336l1 0"/>
<path stroke="red" d="M381 624l0 -296M381 624l2 0M383 633l0 -305M383 624l1 0M384 637l0 -301 2 0M386 341l0 -12M386 336l1 0M387 624l0 -296M387 624l2 0M389 633l0 -305M389 489l1 89M390 623l0 -295M390 623l1 0M391 624l0 -1M391 624l1 0M392 636l0 -274"/>
<path stroke="red" d="M392 624l1 0 0 -1 1 0M394 637l0 -301 1 0M395 624l0 -295M395 624l1 0M396 636l0 -307M396 336l1 0M397 629l0 -319M397 624l1 0M398 636l0 -258M398 623l1 1 1 0M400 637l0 -301 1 0 0 -5 1 -2M402 636l0 -307M402 624l1 0M403 633l0 -297"/>
<path stroke="red" d="M403 336l2 0M405 341l0 -12M405 336l1 0M406 624l0 -296M406 624l2 0M408 637l0 -309M408 624l1 0M409 633l0 -297 2 0M411 341l0 -12M411 336l1 0M412 624l0 -296M412 624l2 0M414 633l0 -305M414 336l1 0M415 624l0 -296M415 624l2 0M417 636l0 -274"/>
<path stroke="red" d="M417 624l1 0M418 637l0 -301 2 0M420 635l0 -306M420 336l1 0M421 637l0 -322M421 336l2 0M423 621l0 -304M423 336l1 0M424 627l0 -314M424 624l2 0 0 -305M426 615l1 6M427 626l0 -312M427 624l2 0M429 625l0 -2M429 624l1 0 0 -8M430 618l1 -51"/>
<path stroke="red" d="M431 567l0 -231 1 0M432 627l0 -312M432 624l1 0 0 -311M433 336l1 0M434 626l0 -312M434 624l1 0M435 625l0 -2M435 624l2 0 0 -288 1 0M438 627l0 -312M438 622l1 3 0 -278M439 624l1 0 0 -288 2 0M442 621l0 -304M442 336l1 0M443 627l0 -314"/>
<path stroke="red" d="M443 624l2 0 0 -303M445 336l1 0M446 629l0 -315M446 452l1 108M447 631l0 -295 1 0M448 621l0 -304M448 336l1 0M449 627l0 -314M449 624l2 0 0 -305M451 336l1 0M452 626l0 -312M452 624l2 0M454 625l0 -2M454 624l1 0 0 -288 2 0M457 627l0 -312"/>
<path stroke="red" d="M457 336l1 0M458 626l0 -313M458 624l2 0M460 625l0 -2M460 624l1 0 0 -288 2 0M463 627l0 -312M463 624l1 0 0 -288 2 0M466 621l0 -304M466 336l1 0M467 627l0 -314M467 624l2 0 0 -288 1 0M470 630l0 -316M470 336l1 0M471 624l0 -296"/>
<path stroke="red" d="M471 624l1 0M472 636l0 -274M472 624l2 0M474 637l0 -301 1 0M475 624l0 -295M475 624l1 0M476 636l0 -304M476 624l1 0M477 633l0 -297 1 0 0 -7M478 334l1 5M479 341l0 -5 1 0M480 624l0 -296M480 624l2 0M482 637l0 -309M482 624l1 0"/>
<path stroke="red" d="M483 633l0 -297 2 0M485 341l0 -12M485 336l1 0M486 624l0 -296M486 624l2 0M488 633l0 -305M488 336l1 0M489 624l0 -296M489 624l2 0M491 636l0 -274M491 624l1 0M492 637l0 -301 2 0M494 635l0 -306M494 336l1 0M495 636l0 -326M495 624l2 0"/>
<path stroke="red" d="M497 636l0 -258M497 624l1 0M498 637l0 -301 2 0M500 636l0 -307M500 624l1 0M501 633l0 -297 2 0M503 341l0 -12M503 336l1 0M504 624l0 -296M504 624l2 0M506 633l0 -297 1 0M507 637l0 -309M507 599l1 -107 0 -156 1 0M509 341l0 -12"/>
<path stroke="red" d="M509 336l2 0M511 624l0 -296M511 624l1 0M512 633l0 -297 1 0M513 617l0 -289M513 336l1 0M514 624l0 -296M514 624l1 0M515 636l0 -274M515 442l1 103M516 624l0 -79M516 624l1 0M517 637l0 -301 2 0M519 637l0 -322 1 34M520 627l0 -291"/>
<path stroke="red" d="M520 336l2 0M522 621l0 -304M522 336l1 0M523 627l0 -314M523 624l2 0 0 -305M525 336l1 0M526 626l0 -312M526 624l2 0M528 625l0 -2M528 624l1 0 0 -288 2 0M531 627l0 -314M531 623l1 -8M532 626l0 -312M532 624l2 0M534 625l0 -2M534 624l1 0"/>
<path stroke="red" d="M535 624l0 -288 2 0M537 627l0 -312M537 624l1 0 0 -288 2 0M540 621l0 -304M540 336l1 0M541 627l0 -314M541 624l2 0 0 -303M543 500l1 113M544 628l0 -314M544 623l1 0M545 630l0 -295M545 624l1 0M546 636l0 -257M546 624l1 0 0 -1 1 0"/>
<path stroke="red" d="M548 637l0 -301 1 0M549 624l0 -295M549 624l1 0M550 636l0 -304M550 624l1 0M551 633l0 -297 1 0M552 341l0 -12M552 336l2 0M554 624l0 -296M554 624l1 0M555 630l0 -6M555 630l1 3M556 637l0 -309M556 624l1 0M557 633l0 -297 2 0M559 341l0 -12"/>
<path stroke="red" d="M559 336l1 0M560 624l0 -296M560 624l2 0M562 633l0 -305M562 336l1 0M563 624l0 -296M563 624l2 0M565 636l0 -274M565 624l1 0M566 637l0 -301 2 0M568 635l0 -306M568 623l1 0M569 637l0 -318M569 336l2 0M571 621l0 -304M571 336l1 0"/>
<path stroke="red" d="M572 627l0 -314M572 624l2 0 0 -305M574 336l1 0M575 626l0 -312M575 624l2 0M577 625l0 -2M577 624l1 0 0 -288 2 0M580 627l0 -312M580 339l1 -2M581 626l0 -313M581 624l2 0M583 625l0 -2M583 624l1 0 0 -8M584 618l1 -51 0 -231 1 0"/>
<path stroke="red" d="M586 627l0 -312M586 624l1 0M587 625l0 -278M587 624l1 0 0 -288 1 0M589 621l0 -304M589 336l2 0M591 627l0 -314M591 624l1 0 0 -170 1 -67M593 627l0 -313M593 624l1 0 0 -288 2 0M596 621l0 -304M596 336l1 0M597 627l0 -314M597 624l2 0"/>
<path stroke="red" d="M599 624l0 -305M599 336l1 0M600 626l0 -312M600 624l2 0M602 625l0 -2M602 624l1 0 0 -288 2 0M605 627l0 -314M605 336l1 0M606 626l0 -312M606 624l2 0M608 625l0 -2M608 624l1 0 0 -288 2 0M611 627l0 -312M611 624l1 0 0 -288 2 0M614 621l0 -304"/>
<path stroke="red" d="M614 336l1 0M615 627l0 -314M615 624l2 0 0 -303M617 624l1 0M618 631l0 -317M618 624l2 0M620 636l0 -274M620 624l1 0M621 637l0 -300 1 -1 1 0M623 624l0 -295M623 624l1 0M624 636l0 -304M624 624l1 1M625 633l0 -297 1 0M626 341l0 -12"/>
<path stroke="red" d="M626 336l2 0M628 624l0 -296M628 624l1 0M629 633l0 -297 1 0M630 637l0 -309M630 624l1 0M631 633l0 -297 1 0 0 -7M632 334l1 5M633 341l0 -5 1 0M634 624l0 -296M634 624l2 0M636 633l0 -305M636 336l1 0M637 624l0 -296M637 624l2 0"/>
<path stroke="red" d="M639 636l0 -274M639 624l1 0M640 637l0 -301 2 0M642 635l0 -306M642 624l1 0M643 636l0 -325M643 624l1 0M644 631l0 -199M644 624l1 0M645 636l0 -257M645 624l1 0M646 637l0 -301 2 0M648 636l0 -307M648 624l1 0M649 633l0 -297 2 0"/>
<path stroke="red" d="M651 341l0 -12M651 336l1 0M652 624l0 -296M652 624l2 0M654 633l0 -305M654 624l1 0M655 637l0 -301 2 0M657 341l0 -12M657 336l1 0M658 624l0 -296M658 624l2 0M660 633l0 -297 1 0M661 617l0 -289M661 336l1 31M662 624l0 -257M662 624l1 0"/>
<path stroke="red" d="M663 636l0 -274M663 624l2 0M665 637l0 -301 1 0M666 624l0 -295M666 624l1 0M667 637l0 -318M667 624l1 0M668 626l0 -290 1 0M669 621l0 -304M669 615l1 -12 0 -267 1 0M671 627l0 -314M671 624l2 0 0 -305M673 336l1 0M674 626l0 -312"/>
<path stroke="red" d="M674 624l2 0M676 625l0 -2M676 624l1 0 0 -288 2 0M679 627l0 -314M679 336l1 0M680 626l0 -312M680 624l2 0M682 625l0 -2M682 624l1 0 0 -288 2 0M685 627l0 -312M685 624l1 0 0 -288 2 0M688 621l0 -304M688 336l1 0M689 627l0 -314M689 624l2 0"/>
<path stroke="red" d="M691 624l0 -303M691 624l1 0M692 627l0 -313M692 336l2 0M694 621l0 -304M694 336l1 0M695 627l0 -314M695 624l2 0 0 -305M697 509l1 107M698 626l0 -312M698 624l2 0M700 625l0 -2M700 624l1 0 1 -1 0 -287 1 0M703 627l0 -312M703 624l1 0"/>
<path stroke="red" d="M704 624l0 -311M704 336l1 0M705 626l0 -312M705 624l1 0M706 625l0 -2M706 624l2 0 0 -288 1 0M709 338l0 -2M709 337l1 -9M710 627l0 -312M710 624l1 0 0 -288 2 0M713 621l0 -304M713 336l1 0M714 627l0 -314M714 624l2 0 0 -303M716 336l1 0"/>
<path stroke="red" d="M717 631l0 -317M717 624l2 0M719 636l0 -274M719 624l1 0M720 637l0 -301 2 0M722 636l0 -307M722 624l1 0M723 633l0 -297 2 0M725 341l0 -12M725 336l1 0M726 624l0 -296M726 624l2 0M728 633l0 -305M728 624l1 0M729 637l0 -301 2 0M731 341l0 -12"/>
<path stroke="red" d="M731 336l1 0M732 624l0 -296M732 624l2 0M734 633l0 -305M734 361l1 -15M735 624l0 -296M735 624l2 0M737 636l0 -274M737 624l1 0M738 637l0 -172 1 -77 0 -52 1 0M740 624l0 -295M740 624l1 0M741 636l0 -307M741 336l1 0M742 632l0 -321"/>
<path stroke="red" d="M742 336l1 0M743 621l0 -304M743 336l2 0M745 627l0 -314M745 624l1 0 0 -170 1 -67M747 623l0 -304M747 336l1 0M748 626l0 -312M748 624l2 0M750 625l0 -2M750 624l1 0 0 -288 2 0M753 627l0 -314M753 336l1 0M754 626l0 -312M754 624l2 0"/>
<path stroke="red" d="M756 625l0 -2M756 624l1 0 0 -288 2 0M759 627l0 -312M759 624l1 0 0 -288 2 0M762 621l0 -304M762 336l1 0M763 627l0 -314M763 624l2 0 0 -303M765 624l1 0M766 630l0 -316M766 624l2 0M768 636l0 -274M768 624l1 0M769 637l0 -301 2 0"/>
<path stroke="red" d="M771 636l0 -307M771 623l1 0M772 633l0 -297 2 0M774 341l0 -12M774 336l1 0M775 623l0 -295M775 623l1 1 1 0M777 633l0 -297 1 0M778 637l0 -309M778 624l1 1M779 633l0 -297 1 0M780 341l0 -12M780 336l2 0M782 624l0 -296M782 624l1 0"/>
<path stroke="red" d="M783 633l0 -297 1 0M784 617l0 -289M784 336l1 0M785 624l0 -296M785 624l1 0M786 636l0 -13M786 625l1 -99M787 624l0 -262M787 624l1 0M788 637l0 -301 2 0M790 635l0 -306M790 633l1 3 0 -326M791 624l2 0M793 636l0 -258M793 624l1 0"/>
<path stroke="red" d="M794 637l0 -301 2 0M796 636l0 -307M796 624l1 0M797 633l0 -297 2 0M799 341l0 -12M799 336l1 0M800 624l0 -296M800 624l2 0M802 633l0 -305M802 624l1 3M803 637l0 -301 2 0M805 341l0 -12M805 336l1 0M806 624l0 -296M806 624l2 0M808 633l0 -305"/>
<path stroke="red" d="M808 336l1 0M809 624l0 -296M809 624l2 0M811 636l0 -274M811 624l1 0M812 637l0 -301 2 0M814 624l0 -295M814 624l1 -1M815 637l0 -322M815 623l1 4 0 -291 1 0M817 621l0 -304M817 336l2 0M819 627l0 -314M819 624l1 0 0 -288 1 0M821 623l0 -304"/>
<path stroke="red" d="M821 336l1 0M822 626l0 -312M822 624l1 0M823 625l0 -2M823 624l2 0 0 -288 2 0M827 627l0 -314M827 336l1 0M828 626l0 -312M828 624l2 0M830 625l0 -2M830 624l1 0 0 -288 2 0M833 627l0 -312M833 624l1 0 0 -288 2 0M836 621l0 -304M836 336l1 0"/>
<path stroke="red" d="M837 627l0 -314M837 624l2 0 0 -303M839 619l1 -25M840 629l0 -315M840 336l1 0M841 631l0 -302M841 336l1 0M842 621l0 -304M842 336l1 0M843 627l0 -314M843 624l2 0 0 -305M845 336l1 0M846 626l0 -312M846 624l2 0M848 625l0 -2M848 624l1 0"/>
<path stroke="red" d="M849 624l0 -288 2 0M851 627l0 -312M851 586l1 -103M852 626l0 -313M852 624l2 0M854 625l0 -2M854 624l1 0 1 -1 0 -287 1 0M857 627l0 -312M857 624l1 0M858 625l0 -278M858 624l1 0 0 -288 1 0M860 621l0 -304M860 339l1 -1 0 -2 1 0"/>
<path stroke="red" d="M862 627l0 -314M862 624l1 0 0 -1 1 -1M864 630l0 -316M864 408l1 -42M865 624l0 -296M865 624l2 0M867 636l0 -274M867 624l1 0M868 637l0 -301 2 0M870 636l0 -307M870 624l1 0M871 633l0 -297 2 0M873 341l0 -12M873 336l1 0M874 624l0 -296"/>
<path stroke="red" d="M874 624l2 0M876 637l0 -309M876 623l1 0M877 633l0 -297 2 0M879 341l0 -12M879 336l1 0M880 624l0 -296M880 624l2 0M882 633l0 -305M882 336l1 0M883 624l0 -296M883 624l2 0M885 636l0 -274M885 624l1 0M886 637l0 -301 2 0M888 635l0 -306"/>
<path stroke="red" d="M888 336l1 0M889 636l0 -326M889 624l2 0M891 636l0 -258M891 624l1 0M892 637l0 -172 1 -77 0 -52 1 0M894 624l0 -295M894 624l1 0M895 636l0 -304M895 624l1 0M896 633l0 -297 1 0M897 341l0 -12M897 336l2 0M899 624l0 -296M899 624l1 0"/>
<path stroke="red" d="M900 633l0 -288 1 -5M901 637l0 -309M901 624l1 0M902 633l0 -297 2 0M904 341l0 -12M904 336l1 0M905 624l0 -296M905 624l2 0M907 633l0 -305M907 336l1 0M908 624l0 -296M908 624l2 0M910 636l0 -274M910 624l1 0M911 637l0 -301 2 0"/>
<path stroke="red" d="M913 635l0 -306M913 624l1 0M914 637l0 -322M914 336l2 0M916 621l0 -304M916 336l1 0M917 627l0 -314M917 624l2 0 0 -305M919 336l1 0M920 626l0 -312M920 624l2 0M922 625l0 -2M922 624l1 0 0 -288 2 0M925 627l0 -312M925 336l1 0M926 626l0 -313"/>
<path stroke="red" d="M926 624l2 0M928 625l0 -2M928 624l1 0 0 -286 1 -1 0 -1 1 0M931 627l0 -312M931 624l1 0M932 625l0 -278M932 624l1 0 0 -288 1 0M934 621l0 -304M934 336l2 0M936 627l0 -314M936 624l1 0 0 -287 1 0M938 627l0 -313M938 624l1 0M939 630l0 -295"/>
<path stroke="red" d="M939 624l1 0M940 636l0 -13M940 625l1 -78M941 624l0 -245M941 624l1 0M942 637l0 -301 2 0M944 636l0 -307M944 624l1 0M945 633l0 -297 2 0M947 341l0 -12M947 336l1 0M948 624l0 -296M948 624l2 0M950 637l0 -309M950 624l1 0M951 633l0 -297"/>
<path stroke="red" d="M951 336l2 0M953 341l0 -12M953 336l1 0M954 624l0 -296M954 624l2 0M956 633l0 -305M956 336l1 0M957 624l0 -296M957 624l2 0M959 636l0 -274M959 624l1 0M960 637l0 -301 2 0M962 635l0 -306M962 336l1 0M963 637l0 -318M963 336l2 0"/>
<path stroke="red" d="M965 621l0 -304M965 336l1 0M966 627l0 -314M966 624l2 0 0 -288 1 0M969 623l0 -309 1 55M970 626l0 -257M970 624l1 0M971 625l0 -2M971 624l2 0 0 -288 1 0"/>
<path stroke="blue" d="M50 23l46 0"/>
<text stroke="none" fill="black" font-size="16" x="106" y="32">
ideal_parity
</text>
<path stroke="blue" d="M50 624l0 -518 1 0M51 609l0 -544M51 278l1 0M52 607l0 -530M52 451l1 0M53 587l0 -499M53 451l2 0M55 607l0 -473M55 394l1 0M56 607l0 -473M56 451l1 0M57 587l0 -499M57 451l1 0M58 607l0 -473M58 394l2 0M60 607l0 -473M60 394l1 0"/>
<path stroke="blue" d="M61 549l0 -472M61 336l2 0M63 607l0 -530M63 451l1 0M64 607l0 -473M64 394l2 0M66 607l0 -473M66 394l1 0M67 549l0 -472M67 336l2 0M69 607l0 -530M69 394l1 0M70 549l0 -472M70 336l2 0M72 549l0 -472M72 336l1 0M73 595l0 -472M73 278l2 0"/>
<path stroke="blue" d="M75 595l0 -518M75 394l1 0M76 607l0 -519M76 394l2 0M78 607l0 -473M78 394l1 0M79 549l0 -472M79 336l2 0M81 607l0 -530M81 394l1 0M82 549l0 -472M82 336l2 0M84 549l0 -472M84 336l1 0M85 595l0 -472M85 278l2 0M87 595l0 -472M87 336l1 0"/>
<path stroke="blue" d="M88 607l0 -530M88 394l1 0M89 549l0 -472M89 336l1 0M90 549l0 -472M90 336l2 0M92 595l0 -472M92 278l1 0M93 595l0 -472M93 336l1 0M94 549l0 -472M94 336l1 0M95 595l0 -472M95 278l2 0M97 595l0 -472M97 278l1 0M98 538l0 -473M98 221l2 0"/>
<path stroke="blue" d="M100 595l0 -530M100 394l1 0M101 607l0 -529M101 394l2 0M103 607l0 -473M103 394l1 0M104 549l0 -472M104 336l2 0M106 607l0 -530M106 394l1 0M107 549l0 -472M107 336l2 0M109 549l0 -472M109 336l1 0M110 595l0 -472M110 278l2 0M112 595l0 -518"/>
<path stroke="blue" d="M112 394l1 0M113 607l0 -530M113 336l2 0M115 549l0 -472M115 336l1 0M116 595l0 -472M116 278l2 0M118 595l0 -518M118 336l1 0M119 595l0 -472M119 278l2 0M121 595l0 -472M121 278l1 0M122 538l0 -473M122 221l2 0M124 538l0 -473M124 278l1 0"/>
<path stroke="blue" d="M125 607l0 -530M125 466l1 83 0 -472M126 336l1 0M127 549l0 -472M127 336l2 0M129 595l0 -472M129 278l1 0M130 595l0 -472M130 336l1 0M131 549l0 -472M131 336l1 0M132 595l0 -472M132 278l1 0M133 595l0 -472M133 346l1 21M134 595l0 -472"/>
<path stroke="blue" d="M134 278l1 0M135 538l0 -473M135 221l2 0M137 595l0 -530M137 336l1 0M138 595l0 -472M138 278l2 0M140 595l0 -472M140 278l1 0M141 538l0 -473M141 221l2 0M143 595l0 -530M143 278l1 0M144 538l0 -473M144 221l2 0M146 538l0 -473M146 221l1 0"/>
<path stroke="blue" d="M147 584l0 -499M147 163l2 0M149 595l0 -530M149 595l1 -103M150 607l0 -530M150 394l2 0M152 607l0 -473M152 394l1 0M153 549l0 -472M153 336l2 0M155 607l0 -530M155 394l1 0M156 549l0 -472M156 336l2 0M158 549l0 -472M158 336l1 0"/>
<path stroke="blue" d="M159 595l0 -472M159 278l2 0M161 595l0 -472M161 305l1 -42M162 607l0 -530M162 336l2 0M164 549l0 -472M164 336l2 0M166 595l0 -472M166 278l1 0M167 595l0 -472M167 336l1 0M168 549l0 -472M168 336l1 0M169 595l0 -472M169 278l1 0"/>
<path stroke="blue" d="M170 595l0 -472M170 278l2 0M172 538l0 -473M172 221l2 0M174 607l0 -542M174 394l1 0M175 549l0 -472M175 336l2 0M177 549l0 -472M177 336l1 0M178 595l0 -472M178 278l2 0M180 595l0 -518M180 336l1 0M181 595l0 -472M181 278l2 0M183 595l0 -472"/>
<path stroke="blue" d="M183 278l1 0M184 538l0 -473M184 221l2 0M186 595l0 -530M186 180l1 78M187 595l0 -472M187 278l2 0M189 595l0 -472M189 278l1 0M190 538l0 -473M190 221l2 0M192 595l0 -530M192 278l1 0M193 538l0 -473M193 221l2 0M195 538l0 -473M195 221l1 0"/>
<path stroke="blue" d="M196 584l0 -499M196 163l2 0M198 584l0 -519M198 278l1 0M199 607l0 -530M199 336l2 0M201 549l0 -472M201 336l1 0M202 409l0 -73M202 409l1 83M203 595l0 -472M203 278l1 0M204 595l0 -472M204 336l1 0M205 549l0 -472M205 336l1 0M206 595l0 -472"/>
<path stroke="blue" d="M206 278l1 0M207 595l0 -472M207 278l2 0M209 538l0 -473M209 221l1 0M210 538l0 -473M210 278l1 0M211 595l0 -518M211 336l1 0M212 595l0 -472M212 278l2 0M214 595l0 -472M214 278l1 0M215 538l0 -473M215 221l2 0M217 595l0 -530M217 278l1 0"/>
<path stroke="blue" d="M218 538l0 -473M218 221l2 0M220 538l0 -473M220 221l1 0M221 584l0 -499M221 163l2 0M223 595l0 -530M223 336l1 0M224 595l0 -518M224 278l2 0M226 595l0 -472M226 278l1 0M227 538l0 -473M227 221l2 0M229 595l0 -530M229 278l1 0M230 538l0 -473"/>
<path stroke="blue" d="M230 221l2 0M232 538l0 -473M232 221l1 0M233 584l0 -499M233 163l2 0M235 584l0 -519M235 278l1 0M236 595l0 -530M236 221l2 0M238 538l0 -473M238 221l1 0M239 584l0 -499M239 163l2 0M241 584l0 -493M241 221l1 0M242 538l0 -473M242 221l1 0"/>
<path stroke="blue" d="M243 584l0 -499M243 163l1 0M244 584l0 -499M244 163l2 0M246 604l0 -498 1 0M247 609l0 -535M247 163l1 0M248 595l0 -530M248 336l1 0M249 607l0 -530M249 394l2 0M251 607l0 -473M251 394l1 0M252 549l0 -472M252 336l2 0M254 607l0 -530"/>
<path stroke="blue" d="M254 394l1 0M255 549l0 -472M255 336l2 0M257 549l0 -472M257 336l1 0M258 595l0 -472M258 278l2 0M260 607l0 -530M260 394l1 0M261 549l0 -472M261 336l2 0M263 549l0 -472M263 336l1 0M264 595l0 -472M264 278l2 0M266 595l0 -518M266 336l1 0"/>
<path stroke="blue" d="M267 595l0 -472M267 278l2 0M269 595l0 -472M269 278l1 0M270 538l0 -473M270 221l2 0M272 595l0 -530M272 336l1 0M273 607l0 -530M273 336l2 0M275 549l0 -472M275 336l1 0M276 595l0 -472M276 278l2 0M278 595l0 -472M278 336l1 0M279 549l0 -472"/>
<path stroke="blue" d="M279 409l1 83M280 595l0 -472M280 278l1 0M281 595l0 -472M281 278l2 0M283 538l0 -473M283 221l1 0M284 538l0 -473M284 278l1 0M285 595l0 -518M285 336l1 0M286 595l0 -472M286 278l1 0M287 595l0 -472M287 346l1 21M288 595l0 -472"/>
<path stroke="blue" d="M288 278l1 0M289 538l0 -473M289 221l2 0M291 595l0 -530M291 278l1 0M292 538l0 -473M292 221l2 0M294 538l0 -473M294 221l1 0M295 584l0 -499M295 163l2 0M297 595l0 -530M297 336l1 0M298 607l0 -530M298 336l2 0M300 549l0 -472M300 336l1 0"/>
<path stroke="blue" d="M301 595l0 -472M301 278l2 0M303 595l0 -518M303 336l1 0M304 595l0 -472M304 278l2 0M306 595l0 -472M306 278l1 0M307 538l0 -473M307 221l2 0M309 595l0 -530M309 336l1 0M310 595l0 -518M310 278l2 0M312 595l0 -472M312 278l1 0M313 538l0 -473"/>
<path stroke="blue" d="M313 221l2 0M315 538l0 -473M315 247l1 -41M316 595l0 -530M316 221l2 0M318 538l0 -473M318 221l2 0M320 584l0 -499M320 163l1 0M321 584l0 -493M321 221l1 0M322 595l0 -530M322 336l1 0M323 595l0 -472M323 278l1 0M324 595l0 -472"/>
<path stroke="blue" d="M324 278l2 0M326 538l0 -473M326 221l2 0M328 595l0 -530M328 278l1 0M329 538l0 -473M329 221l2 0M331 538l0 -473M331 221l1 0M332 584l0 -499M332 163l2 0M334 595l0 -530M334 278l1 0M335 538l0 -473M335 221l2 0M337 538l0 -473M337 221l1 0"/>
<path stroke="blue" d="M338 584l0 -499M338 163l2 0M340 584l0 -519M340 221l1 0M341 584l0 -499M341 163l2 0M343 584l0 -499M343 163l1 0M344 604l0 -498 2 0M346 609l0 -535M346 221l1 0M347 595l0 -530M347 336l1 0M348 549l0 -472M348 336l1 0M349 549l0 -472"/>
<path stroke="blue" d="M349 336l1 0M350 595l0 -472M350 278l2 0M352 595l0 -518M352 549l1 -472M353 595l0 -518M353 278l2 0M355 595l0 -472M355 278l1 0M356 351l0 -73M356 351l1 83M357 538l0 -473M357 221l1 0M358 538l0 -473M358 278l1 0M359 595l0 -518"/>
<path stroke="blue" d="M359 336l1 0M360 595l0 -472M360 278l1 0M361 595l0 -472M361 278l2 0M363 538l0 -473M363 221l1 0M364 538l0 -473M364 278l1 0M365 595l0 -472M365 278l1 0M366 538l0 -473M366 221l2 0M368 538l0 -473M368 221l1 0M369 584l0 -499M369 163l2 0"/>
<path stroke="blue" d="M371 595l0 -530M371 336l1 0M372 595l0 -518M372 278l2 0M374 595l0 -472M374 278l1 0M375 538l0 -473M375 221l2 0M377 595l0 -530M377 278l1 0M378 538l0 -473M378 221l2 0M380 538l0 -473M380 221l1 0M381 584l0 -499M381 163l2 0M383 584l0 -519"/>
<path stroke="blue" d="M383 278l1 0M384 595l0 -530M384 221l2 0M386 538l0 -473M386 221l1 0M387 584l0 -499M387 163l2 0M389 584l0 -519M389 221l1 0M390 584l0 -499M390 163l2 0M392 584l0 -499M392 163l1 0M393 604l0 -498 2 0M395 609l0 -535M395 163l1 0"/>
<path stroke="blue" d="M396 595l0 -530M396 336l1 0M397 549l0 -472M397 278l1 0M398 595l0 -472M398 278l2 0M400 538l0 -473M400 221l1 0M401 538l0 -473M401 278l1 0M402 595l0 -472M402 278l1 0M403 538l0 -473M403 221l2 0M405 538l0 -473M405 221l1 0M406 584l0 -499"/>
<path stroke="blue" d="M406 163l2 0M408 595l0 -530M408 278l1 0M409 538l0 -473M409 221l2 0M411 538l0 -473M411 221l1 0M412 584l0 -499M412 163l2 0M414 584l0 -519M414 221l1 0M415 584l0 -499M415 163l2 0M417 584l0 -499M417 163l1 0M418 604l0 -498 2 0"/>
<path stroke="blue" d="M420 609l0 -535M420 221l1 0M421 595l0 -530M421 221l2 0M423 538l0 -473M423 221l1 0M424 584l0 -499M424 163l2 0M426 584l0 -519M426 221l1 0M427 584l0 -499M427 163l2 0M429 584l0 -499M429 163l1 0M430 604l0 -498 2 0M432 609l0 -535"/>
<path stroke="blue" d="M432 163l1 0M433 584l0 -519M433 293l1 83M434 584l0 -499M434 163l1 0M435 584l0 -499M435 163l2 0M437 604l0 -498 1 0M438 609l0 -535M438 163l1 0M439 584l0 -499M439 163l1 0M440 604l0 -498 1 0M441 609l0 -535M441 174l1 20M442 604l0 -498"/>
<path stroke="blue" d="M442 106l1 0M443 624l0 -518M443 624l2 0 0 -559M445 356l1 -78M446 595l0 -518M446 394l1 0M447 607l0 -473M447 451l1 0M448 587l0 -499M448 451l1 0M449 607l0 -473M449 394l2 0M451 607l0 -519M451 451l1 0M452 607l0 -473M452 394l2 0"/>
<path stroke="blue" d="M454 607l0 -473M454 394l1 0M455 549l0 -472M455 336l2 0M457 607l0 -530M457 192l1 -104M458 607l0 -519M458 394l2 0M460 607l0 -473M460 394l1 0M461 549l0 -472M461 336l2 0M463 607l0 -530M463 394l1 0M464 549l0 -472M464 336l2 0"/>
<path stroke="blue" d="M466 549l0 -472M466 336l1 0M467 595l0 -472M467 278l2 0M469 595l0 -472M469 305l1 -42M470 607l0 -530M470 394l2 0M472 607l0 -473M472 394l2 0M474 549l0 -472M474 336l1 0M475 549l0 -472M475 394l1 0M476 607l0 -473M476 394l1 0"/>
<path stroke="blue" d="M477 549l0 -472M477 336l1 0M478 549l0 -472M478 336l2 0M480 595l0 -472M480 278l2 0M482 607l0 -530M482 394l1 0M483 549l0 -472M483 336l2 0M485 549l0 -472M485 336l1 0M486 595l0 -472M486 278l2 0M488 595l0 -518M488 336l1 0M489 595l0 -472"/>
<path stroke="blue" d="M489 278l2 0M491 595l0 -472M491 278l1 0M492 538l0 -473M492 221l2 0M494 595l0 -530M494 394l1 0M495 607l0 -529M495 394l2 0M497 607l0 -473M497 394l1 0M498 549l0 -472M498 336l2 0M500 607l0 -530M500 394l1 0M501 549l0 -472M501 336l2 0"/>
<path stroke="blue" d="M503 549l0 -472M503 336l1 0M504 595l0 -472M504 278l2 0M506 595l0 -518M506 394l1 0M507 607l0 -530M507 336l2 0M509 549l0 -472M509 336l1 0M510 409l0 -73M510 409l1 83M511 595l0 -472M511 278l1 0M512 595l0 -472M512 336l1 0M513 549l0 -472"/>
<path stroke="blue" d="M513 336l1 0M514 595l0 -472M514 278l1 0M515 595l0 -472M515 278l2 0M517 538l0 -473M517 221l1 0M518 538l0 -473M518 278l1 0M519 607l0 -530M519 394l1 0M520 549l0 -472M520 336l2 0M522 549l0 -472M522 336l1 0M523 595l0 -472M523 278l2 0"/>
<path stroke="blue" d="M525 595l0 -518M525 336l1 0M526 595l0 -472M526 278l2 0M528 595l0 -472M528 278l1 0M529 538l0 -473M529 221l2 0M531 595l0 -530M531 336l1 0M532 595l0 -472M532 278l2 0M534 595l0 -472M534 278l1 0M535 538l0 -473M535 221l2 0M537 595l0 -530"/>
<path stroke="blue" d="M537 278l1 0M538 538l0 -473M538 221l2 0M540 538l0 -473M540 221l1 0M541 584l0 -499M541 163l2 0M543 584l0 -519M543 278l1 0M544 607l0 -530M544 394l1 0M545 607l0 -473M545 394l1 0M546 607l0 -473M546 394l1 0M547 549l0 -472M547 336l2 0"/>
<path stroke="blue" d="M549 549l0 -472M549 394l1 0M550 607l0 -473M550 394l1 0M551 549l0 -472M551 336l1 0M552 549l0 -472M552 336l2 0M554 595l0 -472M554 278l1 0M555 595l0 -472M555 336l1 0M556 607l0 -530M556 394l1 0M557 549l0 -472M557 336l2 0M559 549l0 -472"/>
<path stroke="blue" d="M559 336l1 0M560 595l0 -472M560 278l2 0M562 595l0 -518M562 336l1 0M563 595l0 -472M563 278l2 0M565 595l0 -472M565 278l1 0M566 538l0 -473M566 221l2 0M568 595l0 -530M568 394l1 0M569 607l0 -530M569 336l2 0M571 549l0 -472M571 336l1 0"/>
<path stroke="blue" d="M572 595l0 -472M572 278l2 0M574 595l0 -518M574 336l1 0M575 595l0 -472M575 278l2 0M577 595l0 -472M577 278l1 0M578 538l0 -473M578 221l2 0M580 595l0 -530M580 336l1 0M581 595l0 -518M581 278l2 0M583 595l0 -472M583 278l1 0M584 538l0 -473"/>
<path stroke="blue" d="M584 221l2 0M586 538l0 -473M586 278l1 0M587 595l0 -472M587 351l1 83M588 538l0 -473M588 221l1 0M589 538l0 -473M589 221l2 0M591 584l0 -499M591 163l1 0M592 584l0 -493M592 221l1 0M593 595l0 -530M593 394l1 0M594 607l0 -473M594 336l1 0"/>
<path stroke="blue" d="M595 549l0 -472M595 404l1 21M596 549l0 -472M596 336l1 0M597 595l0 -472M597 278l2 0M599 595l0 -518M599 336l1 0M600 595l0 -472M600 278l2 0M602 595l0 -472M602 278l1 0M603 538l0 -473M603 221l2 0M605 595l0 -530M605 336l1 0M606 595l0 -472"/>
<path stroke="blue" d="M606 278l2 0M608 595l0 -472M608 278l1 0M609 538l0 -473M609 221l2 0M611 595l0 -530M611 278l1 0M612 538l0 -473M612 221l2 0M614 538l0 -473M614 221l1 0M615 584l0 -499M615 163l2 0M617 584l0 -519M617 278l1 0M618 595l0 -518M618 278l2 0"/>
<path stroke="blue" d="M620 595l0 -472M620 278l1 0M621 538l0 -473M621 221l2 0M623 538l0 -473M623 247l1 -41M624 595l0 -530M624 221l2 0M626 538l0 -473M626 221l2 0M628 584l0 -499M628 163l1 0M629 584l0 -493M629 221l1 0M630 595l0 -530M630 278l1 0"/>
<path stroke="blue" d="M631 538l0 -473M631 221l1 0M632 538l0 -473M632 221l2 0M634 584l0 -499M634 163l2 0M636 584l0 -519M636 221l1 0M637 584l0 -499M637 163l2 0M639 584l0 -499M639 163l1 0M640 604l0 -498 2 0M642 609l0 -544M642 278l1 0M643 595l0 -518"/>
<path stroke="blue" d="M643 394l1 0M644 607l0 -473M644 394l1 0M645 607l0 -473M645 394l1 0M646 549l0 -472M646 336l2 0M648 607l0 -530M648 394l1 0M649 549l0 -472M649 336l2 0M651 549l0 -472M651 336l1 0M652 595l0 -472M652 278l2 0M654 595l0 -518M654 394l1 0"/>
<path stroke="blue" d="M655 607l0 -530M655 336l2 0M657 549l0 -472M657 336l1 0M658 595l0 -472M658 278l2 0M660 595l0 -518M660 549l1 -472M661 595l0 -518M661 278l2 0M663 595l0 -472M663 278l1 0M664 351l0 -73M664 351l1 83M665 538l0 -473M665 221l1 0"/>
<path stroke="blue" d="M666 538l0 -473M666 278l1 0M667 607l0 -530M667 394l1 0M668 549l0 -472M668 336l1 0M669 549l0 -472M669 336l2 0M671 595l0 -472M671 278l1 0M672 595l0 -472M672 336l1 0M673 549l0 -472M673 336l1 0M674 595l0 -472M674 278l2 0M676 595l0 -472"/>
<path stroke="blue" d="M676 278l1 0M677 538l0 -473M677 221l2 0M679 595l0 -530M679 336l1 0M680 595l0 -472M680 278l2 0M682 595l0 -472M682 278l1 0M683 538l0 -473M683 221l2 0M685 595l0 -530M685 278l1 0M686 538l0 -473M686 221l2 0M688 538l0 -473M688 221l1 0"/>
<path stroke="blue" d="M689 584l0 -499M689 163l2 0M691 584l0 -519M691 278l1 0M692 607l0 -530M692 336l2 0M694 549l0 -472M694 336l1 0M695 595l0 -472M695 278l2 0M697 595l0 -518M697 336l1 0M698 595l0 -472M698 278l2 0M700 595l0 -472M700 278l1 0M701 538l0 -473"/>
<path stroke="blue" d="M701 221l2 0M703 538l0 -473M703 278l1 0M704 595l0 -518M704 336l1 0M705 595l0 -472M705 278l1 0M706 595l0 -472M706 278l2 0M708 538l0 -473M708 221l1 0M709 538l0 -473M709 278l1 0M710 595l0 -472M710 278l1 0M711 538l0 -473M711 221l2 0"/>
<path stroke="blue" d="M713 538l0 -473M713 221l1 0M714 584l0 -499M714 163l2 0M716 595l0 -530M716 336l1 0M717 595l0 -518M717 278l2 0M719 595l0 -472M719 278l1 0M720 538l0 -473M720 221l2 0M722 595l0 -530M722 278l1 0M723 538l0 -473M723 221l2 0M725 538l0 -473"/>
<path stroke="blue" d="M725 221l1 0M726 584l0 -499M726 163l2 0M728 584l0 -519M728 278l1 0M729 595l0 -530M729 221l2 0M731 538l0 -473M731 221l1 0M732 584l0 -499M732 163l2 0M734 584l0 -519M734 221l1 0M735 584l0 -499M735 163l2 0M737 584l0 -499M737 163l1 0"/>
<path stroke="blue" d="M738 604l0 -498 2 0M740 609l0 -535M740 163l1 0M741 595l0 -530M741 466l1 83 0 -472M742 336l1 0M743 549l0 -472M743 336l2 0M745 595l0 -472M745 278l1 0M746 595l0 -472M746 336l1 0M747 549l0 -472M747 336l1 0M748 595l0 -472M748 278l1 0"/>
<path stroke="blue" d="M749 595l0 -472M749 346l1 21M750 595l0 -472M750 278l1 0M751 538l0 -473M751 221l2 0M753 595l0 -530M753 336l1 0M754 595l0 -472M754 278l2 0M756 595l0 -472M756 278l1 0M757 538l0 -473M757 221l2 0M759 595l0 -530M759 278l1 0M760 538l0 -473"/>
<path stroke="blue" d="M760 221l2 0M762 538l0 -473M762 221l1 0M763 584l0 -499M763 163l2 0M765 595l0 -530M765 595l1 -103M766 595l0 -518M766 278l2 0M768 595l0 -472M768 278l1 0M769 538l0 -473M769 221l2 0M771 595l0 -530M771 278l1 0M772 538l0 -473"/>
<path stroke="blue" d="M772 221l2 0M774 538l0 -473M774 221l1 0M775 584l0 -499M775 163l2 0M777 584l0 -493M777 190l1 -42M778 595l0 -530M778 221l2 0M780 538l0 -473M780 221l2 0M782 584l0 -499M782 163l1 0M783 584l0 -493M783 221l1 0M784 538l0 -473"/>
<path stroke="blue" d="M784 221l1 0M785 584l0 -499M785 163l1 0M786 584l0 -499M786 163l2 0M788 604l0 -498 2 0M790 609l0 -544M790 336l1 0M791 549l0 -472M791 278l2 0M793 595l0 -472M793 278l1 0M794 538l0 -473M794 221l2 0M796 595l0 -530M796 278l1 0"/>
<path stroke="blue" d="M797 538l0 -473M797 221l2 0M799 538l0 -473M799 221l1 0M800 584l0 -499M800 163l2 0M802 595l0 -530M802 123l1 78M803 538l0 -473M803 221l2 0M805 538l0 -473M805 221l1 0M806 584l0 -499M806 163l2 0M808 584l0 -519M808 221l1 0M809 584l0 -499"/>
<path stroke="blue" d="M809 163l2 0M811 584l0 -499M811 163l1 0M812 604l0 -498 2 0M814 609l0 -535M814 221l1 0M815 595l0 -530M815 221l2 0M817 538l0 -473M817 221l1 0M818 293l0 -72M818 293l1 83M819 584l0 -499M819 163l1 0M820 584l0 -493M820 221l1 0"/>
<path stroke="blue" d="M821 538l0 -473M821 221l1 0M822 584l0 -499M822 163l1 0M823 584l0 -499M823 163l2 0M825 604l0 -498 1 0M826 609l0 -535M826 163l1 0M827 584l0 -519M827 221l1 0M828 584l0 -499M828 163l2 0M830 584l0 -499M830 163l1 0M831 604l0 -498"/>
<path stroke="blue" d="M831 106l2 0M833 609l0 -535M833 163l1 0M834 604l0 -498 2 0M836 609l0 -535M836 106l1 0M837 624l0 -518M837 624l2 0 0 -550M839 221l1 0M840 595l0 -530M840 336l1 0M841 607l0 -530M841 451l1 0M842 587l0 -499M842 451l1 0M843 607l0 -473"/>
<path stroke="blue" d="M843 394l2 0M845 607l0 -519M845 451l1 0M846 607l0 -473M846 394l2 0M848 607l0 -473M848 394l1 0M849 549l0 -472M849 336l2 0M851 607l0 -530M851 451l1 0M852 607l0 -519M852 394l2 0M854 607l0 -473M854 394l1 0M855 549l0 -472M855 336l2 0"/>
<path stroke="blue" d="M857 549l0 -472M857 394l1 0M858 607l0 -473M858 394l1 0M859 549l0 -472M859 336l1 0M860 549l0 -472M860 336l2 0M862 595l0 -472M862 278l1 0M863 595l0 -472M863 336l1 0M864 607l0 -530M864 451l1 0M865 607l0 -473M865 394l2 0M867 607l0 -473"/>
<path stroke="blue" d="M867 394l1 0M868 549l0 -472M868 336l2 0M870 607l0 -530M870 394l1 0M871 549l0 -472M871 336l2 0M873 549l0 -472M873 336l1 0M874 595l0 -472M874 278l2 0M876 607l0 -530M876 394l1 0M877 549l0 -472M877 336l2 0M879 549l0 -472M879 336l1 0"/>
<path stroke="blue" d="M880 595l0 -472M880 278l2 0M882 595l0 -518M882 336l1 0M883 595l0 -472M883 278l2 0M885 595l0 -472M885 278l1 0M886 538l0 -473M886 221l2 0M888 595l0 -530M888 336l1 0M889 607l0 -530M889 394l2 0M891 607l0 -473M891 394l1 0M892 549l0 -472"/>
<path stroke="blue" d="M892 336l2 0M894 549l0 -472M894 394l1 0M895 607l0 -473M895 466l1 83 0 -472M896 336l1 0M897 549l0 -472M897 336l2 0M899 595l0 -472M899 278l1 0M900 595l0 -472M900 336l1 0M901 607l0 -530M901 394l1 0M902 549l0 -472M902 336l1 0"/>
<path stroke="blue" d="M903 549l0 -472M903 404l1 21M904 549l0 -472M904 336l1 0M905 595l0 -472M905 278l2 0M907 595l0 -518M907 336l1 0M908 595l0 -472M908 278l2 0M910 595l0 -472M910 278l1 0M911 538l0 -473M911 221l2 0M913 595l0 -530M913 394l1 0M914 607l0 -530"/>
<path stroke="blue" d="M914 336l2 0M916 549l0 -472M916 336l1 0M917 595l0 -472M917 278l2 0M919 595l0 -518M919 336l1 0M920 595l0 -472M920 278l2 0M922 595l0 -472M922 278l1 0M923 538l0 -473M923 221l2 0M925 595l0 -530M925 336l1 0M926 595l0 -518M926 278l2 0"/>
<path stroke="blue" d="M928 595l0 -472M928 278l1 0M929 538l0 -473M929 221l2 0M931 538l0 -473M931 247l1 -41M932 595l0 -530M932 221l2 0M934 538l0 -473M934 221l2 0M936 584l0 -499M936 163l1 0M937 584l0 -493M937 221l1 0M938 595l0 -530M938 394l1 0"/>
<path stroke="blue" d="M939 607l0 -473M939 394l1 0M940 607l0 -473M940 394l2 0M942 549l0 -472M942 336l2 0M944 607l0 -530M944 394l1 0M945 549l0 -472M945 336l2 0M947 549l0 -472M947 336l1 0M948 595l0 -472M948 278l2 0M950 607l0 -530M950 394l1 0M951 549l0 -472"/>
<path stroke="blue" d="M951 336l2 0M953 549l0 -472M953 336l1 0M954 595l0 -472M954 278l2 0M956 595l0 -518M956 336l1 0M957 595l0 -472M957 278l2 0M959 595l0 -472M959 278l1 0M960 538l0 -473M960 221l2 0M962 595l0 -530M962 336l1 0M963 607l0 -530M963 336l2 0"/>
<path stroke="blue" d="M965 549l0 -472M965 336l1 0M966 595l0 -472M966 278l2 0M968 595l0 -518M968 549l1 -472M969 595l0 -518M969 278l2 0M971 595l0 -472M971 278l1 0M972 351l0 -73M972 351l1 83M973 538l0 -473M973 221l1 0"/>
</svg>
