<?xml version="1.0" standalone="yes"?>
<!DOCTYPE svg PUBLIC "-//W3C//DTD SVG 1.1//EN"
 "http://www.w3.org/Graphics/SVG/1.1/DTD/svg11.dtd">
<svg xmlns="http://www.w3.org/2000/svg" version="1.1"
  width="100%" height="100%" viewBox="0 0 1024 768"
  style="fill: none; stroke-width: 3; font-family: Helvetica;
 font: Helvetica;
">

<!-- Creator: NGspice -->

<rect x="0" y="0" width="1024" height="768" fill="white" stroke="none"/>
<text stroke="none" fill="black" font-size="16" x="358" y="752">
time
</text>
<text stroke="none" fill="black" font-size="16" x="10" y="16">
tran1: Total Supply Current
</text>
<path stroke="black" stroke-width="3" d="M70 704l0 -640"/>
<text stroke="none" fill="black" font-size="16" x="55" y="728">
0.0
</text>
<path stroke="black" stroke-width="3" stroke-dasharray="1,2" d="M217 704l0 -640"/>
<text stroke="none" fill="black" font-size="16" x="202" y="728">
0.5
</text>
<path stroke="black" stroke-width="3" stroke-dasharray="1,2" d="M364 704l0 -640"/>
<text stroke="none" fill="black" font-size="16" x="349" y="728">
1.0
</text>
<path stroke="black" stroke-width="3" stroke-dasharray="1,2" d="M511 704l0 -640"/>
<text stroke="none" fill="black" font-size="16" x="496" y="728">
1.5
</text>
<path stroke="black" stroke-width="3" stroke-dasharray="1,2" d="M658 704l0 -640"/>
<text stroke="none" fill="black" font-size="16" x="643" y="728">
2.0
</text>
<path stroke="black" stroke-width="3" stroke-dasharray="1,2" d="M805 704l0 -640"/>
<text stroke="none" fill="black" font-size="16" x="790" y="728">
2.5
</text>
<path stroke="black" stroke-width="3" stroke-dasharray="1,2" d="M952 704l0 -640"/>
<text stroke="none" fill="black" font-size="16" x="937" y="728">
3.0
</text>
<text stroke="none" fill="black" font-size="16" x="614" y="752">
us
</text>
<path stroke="black" stroke-width="3" stroke-dasharray="1,2" d="M70 704l882 0"/>
<text stroke="none" fill="black" font-size="16" x="8" y="712">
-100.0
</text>
<path stroke="black" stroke-width="3" d="M70 624l882 0"/>
<text stroke="none" fill="black" font-size="16" x="38" y="632">
0.0
</text>
<path stroke="black" stroke-width="3" stroke-dasharray="1,2" d="M70 544l882 0"/>
<text stroke="none" fill="black" font-size="16" x="18" y="552">
100.0
</text>
<path stroke="black" stroke-width="3" stroke-dasharray="1,2" d="M70 464l882 0"/>
<text stroke="none" fill="black" font-size="16" x="18" y="472">
200.0
</text>
<path stroke="black" stroke-width="3" stroke-dasharray="1,2" d="M70 384l882 0"/>
<text stroke="none" fill="black" font-size="16" x="18" y="392">
300.0
</text>
<path stroke="black" stroke-width="3" stroke-dasharray="1,2" d="M70 304l882 0"/>
<text stroke="none" fill="black" font-size="16" x="18" y="312">
400.0
</text>
<path stroke="black" stroke-width="3" stroke-dasharray="1,2" d="M70 224l882 0"/>
<text stroke="none" fill="black" font-size="16" x="18" y="232">
500.0
</text>
<path stroke="black" stroke-width="3" stroke-dasharray="1,2" d="M70 144l882 0"/>
<text stroke="none" fill="black" font-size="16" x="18" y="152">
600.0
</text>
<path stroke="black" stroke-width="3" stroke-dasharray="1,2" d="M70 64l882 0"/>
<text stroke="none" fill="black" font-size="16" x="18" y="72">
700.0
</text>
<text stroke="none" fill="black" font-size="16" x="10" y="32">
uA
</text>
<path stroke="red" d="M441 23l44 0"/>
<text stroke="none" fill="black" font-size="16" x="495" y="32">
-i(v_supply)
</text>
<path stroke="red" d="M70 702l0 -263M70 618l1 11M71 702l0 -278M71 487l1 19M72 702l0 -406M72 621l1 4M73 703l0 -464M73 629l1 -10M74 629l0 -226M74 437l1 25M75 637l0 -212M75 617l1 14M76 702l0 -284M76 435l1 8M77 638l0 -382M77 632l1 -20M78 633l0 -21"/>
<path stroke="red" d="M78 630l1 -12M79 702l0 -323M79 627l1 -7M80 628l0 -223M80 619l1 9M81 629l0 -10 1 10M82 702l0 -297M82 619l1 8M83 702l0 -457M83 633l1 -19M84 633l0 -19M84 630l1 -12M85 702l0 -323M85 627l1 -6M86 629l0 -224M86 619l1 10 0 -10 1 10"/>
<path stroke="red" d="M88 702l0 -394M88 638l1 -28M89 638l0 -202M89 623l1 2 0 -2M90 624l1 0M91 703l0 -462M91 616l1 16M92 637l0 -234M92 613l1 22 0 -22M93 619l1 10M94 702l0 -278M94 434l1 125M95 698l0 -469M95 618l1 12 0 -12M96 619l1 9M97 703l0 -445"/>
<path stroke="red" d="M97 625l1 -2M98 626l0 -223M98 626l1 -4M99 628l0 -8M99 628l1 -8M100 702l0 -430M100 620l1 7M101 633l0 -234M101 615l1 17 0 -16M102 617l1 14M103 702l0 -321M103 621l1 6 0 -222M104 625l1 -3M105 626l0 -4M105 626l1 -4M106 702l0 -440"/>
<path stroke="red" d="M106 628l1 -9M107 633l0 -234M107 632l1 -16M108 632l0 -16M108 631l1 -14M109 702l0 -322M109 627l1 -6M110 627l0 -222M110 622l1 4M111 702l0 -175M111 536l1 -74M112 698l0 -467M112 631l1 -15M113 631l0 -216M113 626l1 -4M114 703l0 -445"/>
<path stroke="red" d="M114 408l1 100M115 626l0 -118M115 622l1 4M116 627l0 -224M116 621l1 6M117 702l0 -288M117 623l1 0M118 702l0 -292M118 628l1 -8M119 703l0 -622M119 627l1 -6M120 703l0 -445M120 623l1 1M121 626l0 -118 1 -44M122 627l0 -224M122 627l1 -6"/>
<path stroke="red" d="M123 702l0 -288M123 624l1 -1M124 698l0 -426M124 407l1 97M125 633l0 -129M125 616l1 16M126 702l0 -321M126 620l1 7 0 -222M127 623l1 -1M128 626l0 -4M128 626l1 -4M129 702l0 -290M129 613l1 8M130 702l0 -440M130 614l1 19 0 -19M131 616l1 16"/>
<path stroke="red" d="M132 702l0 -322M132 621l1 6 0 -222M133 624l1 -1M134 626l0 -4M134 626l1 -4M135 702l0 -471M135 614l1 19 0 -218M136 625l1 -2M137 626l0 -4M137 626l1 -4M138 703l0 -445M138 624l1 0M139 626l0 -223M139 622l1 4M140 628l0 -8 1 8M141 702l0 -292"/>
<path stroke="red" d="M141 484l1 -26M142 697l0 -460M142 623l1 2 0 -2M143 624l1 0M144 703l0 -462M144 616l1 16M145 637l0 -234M145 634l1 -20M146 634l0 -20M146 629l1 -10M147 702l0 -446M147 611l1 25 0 -244M148 632l1 -16M149 632l0 -16M149 629l1 -10"/>
<path stroke="red" d="M150 702l0 -323M150 627l1 -6M151 629l0 -224M151 629l1 -10M152 629l0 -10M152 629l1 -10M153 702l0 -457M153 632l1 -16M154 633l0 -241M154 617l1 14 0 -14M155 619l1 10M156 702l0 -323M156 621l1 6M157 629l0 -224M157 629l1 -10M158 702l0 -83"/>
<path stroke="red" d="M158 702l1 0 0 -394M159 613l1 22 0 -199M160 625l1 -2M161 703l0 -462M161 346l1 30M162 633l0 -302M162 631l1 -14M163 637l0 -234M163 616l1 16M164 702l0 -241M164 604l1 18M165 702l0 -278M165 635l1 -22M166 702l0 -430M166 621l1 5"/>
<path stroke="red" d="M167 703l0 -445M167 622l1 2M168 626l0 -4 1 4M169 627l0 -224M169 621l1 6M170 702l0 -288M170 623l1 1M171 698l0 -426M171 573l1 -48M172 633l0 -234M172 632l1 -16M173 702l0 -321M173 627l1 -7M174 627l0 -222M174 605l1 1M175 626l0 -20"/>
<path stroke="red" d="M175 622l1 4M176 702l0 -289M176 453l1 -41M177 702l0 -440M177 632l1 -18M178 633l0 -19M178 632l1 -16M179 702l0 -322M179 627l1 -6M180 627l0 -222M180 624l1 -1M181 626l0 -4M181 626l1 -4M182 702l0 -471M182 614l1 20 0 -219M183 623l1 2"/>
<path stroke="red" d="M184 626l0 -4 1 4M185 703l0 -445M185 624l1 0M186 626l0 -223M186 626l1 -4M187 628l0 -8M187 628l1 -8M188 702l0 -292M188 680l1 -72M189 697l0 -459M189 625l1 -2M190 625l0 -2M190 624l1 0M191 703l0 -462M191 632l1 -16M192 637l0 -234"/>
<path stroke="red" d="M192 614l1 20 0 -20M193 619l1 10M194 702l0 -446M194 636l1 -25M195 636l0 -244M195 632l1 -16M196 632l0 -16M196 629l1 -10M197 702l0 -323M197 627l1 -6M198 629l0 -224M198 619l1 10 0 -10 1 9M200 702l0 -457M200 615l1 17M201 633l0 -241"/>
<path stroke="red" d="M201 631l1 -15M202 631l0 -15M202 629l1 -10M203 702l0 -323M203 627l1 -6M204 629l0 -224M204 619l1 10 0 -10M205 620l1 8M206 702l0 -394M206 635l1 -22M207 635l0 -199M207 623l1 2M208 703l0 -261 1 116M209 633l0 -392M209 617l1 14"/>
<path stroke="red" d="M210 637l0 -234M210 616l1 16M211 702l0 -242M211 496l1 -26M212 702l0 -278M212 635l1 -22M213 702l0 -512M213 622l1 3M214 703l0 -462M214 628l1 -16M215 633l0 -21M215 631l1 -14M216 637l0 -234M216 617l1 14M217 702l0 -241M217 620l1 7"/>
<path stroke="red" d="M218 698l0 -442M218 576l1 3M219 633l0 -241M219 618l1 12M220 702l0 -323M220 620l1 7 0 -222M221 535l1 18M222 629l0 -157M222 629l1 -10M223 702l0 -297M223 487l1 5M224 702l0 -457M224 632l1 -20M225 633l0 -21M225 630l1 -12M226 702l0 -323"/>
<path stroke="red" d="M226 627l1 -7M227 628l0 -223M227 619l1 9M228 629l0 -10 1 10M229 702l0 -394M229 639l1 -31M230 639l0 -203M230 623l1 2 0 -2M231 624l1 0M232 703l0 -462M232 615l1 17M233 637l0 -234M233 636l1 -24M234 636l0 -24M234 630l1 -12M235 702l0 -278"/>
<path stroke="red" d="M235 614l1 19M236 702l0 -470M236 630l1 -13M237 630l0 -13M237 628l1 -9M238 703l0 -445M238 623l1 1M239 626l0 -223M239 626l1 -4M240 628l0 -8M240 628l1 -8M241 702l0 -430M241 620l1 8M242 633l0 -234M242 615l1 17 0 -17M243 617l1 14"/>
<path stroke="red" d="M244 702l0 -321M244 621l1 6 0 -222M245 625l1 -2M246 626l0 -4M246 626l1 -4M247 702l0 -440M247 629l1 -11M248 633l0 -234M248 615l1 17 0 -17M249 617l1 14M250 702l0 -322M250 621l1 6 0 -222M251 625l1 -2M252 626l0 -4M252 626l1 -4"/>
<path stroke="red" d="M253 702l0 -471M253 616l1 16 0 -217M254 625l1 -3M255 626l0 -4M255 626l1 -4M256 703l0 -445M256 622l1 3M257 627l0 -224M257 621l1 6M258 702l0 -175M258 551l1 -30M259 702l0 -292M259 628l1 -9M260 702l0 -470M260 618l1 11M261 703l0 -445"/>
<path stroke="red" d="M261 408l1 108M262 626l0 -110M262 622l1 4M263 627l0 -224M263 621l1 6M264 702l0 -288M264 623l1 0M265 698l0 -426M265 625l1 -3M266 633l0 -234M266 632l1 -16M267 702l0 -321M267 627l1 -7M268 627l0 -120 1 -45M269 626l0 -221M269 626l1 -4"/>
<path stroke="red" d="M270 702l0 -289M270 631l1 -15M271 702l0 -440M271 407l1 97M272 633l0 -129M272 616l1 16M273 702l0 -322M273 620l1 7 0 -222M274 623l1 -1M275 626l0 -4M275 626l1 -4M276 702l0 -471M276 554l1 51M277 634l0 -219M277 623l1 1M278 626l0 -4"/>
<path stroke="red" d="M278 622l1 4M279 703l0 -445M279 624l1 0M280 626l0 -223M280 625l1 -3M281 628l0 -8M281 628l1 -8M282 702l0 -292M282 615l1 17M283 702l0 -463M283 622l1 3 0 -3M284 623l1 1M285 703l0 -462M285 616l1 16M286 637l0 -234M286 635l1 -22"/>
<path stroke="red" d="M287 635l0 -22M287 629l1 -11M288 702l0 -446M288 610l1 27 0 -245M289 632l1 -16M290 632l0 -16M290 629l1 -10M291 702l0 -323M291 627l1 -6M292 629l0 -224M292 619l1 10 0 -10 1 9M294 702l0 -457M294 614l1 18M295 633l0 -241M295 632l1 -16"/>
<path stroke="red" d="M296 632l0 -16M296 629l1 -10M297 702l0 -323M297 627l1 -6M298 629l0 -224M298 629l1 -10M299 629l0 -10M299 628l1 -8M300 702l0 -394M300 612l1 24 0 -200M301 625l1 -2M302 625l0 -2M302 624l1 0M303 703l0 -462M303 631l1 -14M304 637l0 -234"/>
<path stroke="red" d="M304 616l1 16M305 702l0 -86M305 702l1 0 0 -278M306 635l1 -23M307 702l0 -512M307 622l1 3M308 703l0 -462M308 346l1 30M309 633l0 -302M309 631l1 -14M310 637l0 -234M310 616l1 16M311 702l0 -241M311 604l1 18M312 698l0 -442M312 634l1 -20"/>
<path stroke="red" d="M313 634l0 -242M313 630l1 -12M314 702l0 -323M314 627l1 -7M315 627l0 -7M315 626l1 -4M316 629l0 -224M316 619l1 10M317 702l0 -297M317 628l1 -9M318 702l0 -457M318 573l1 -49M319 633l0 -241M319 630l1 -12M320 702l0 -323M320 627l1 -7"/>
<path stroke="red" d="M321 627l0 -222M321 562l1 44M322 629l0 -25M322 619l1 10M323 702l0 -362M323 373l1 -65M324 639l0 -331M324 622l1 2M325 625l0 -3M325 624l1 0M326 703l0 -462M326 615l1 18M327 637l0 -234M327 612l1 24 0 -24M328 618l1 12M329 702l0 -278"/>
<path stroke="red" d="M329 634l1 -20M330 702l0 -470M330 617l1 13 0 -13M331 619l1 10M332 703l0 -445M332 624l1 0M333 626l0 -223M333 626l1 -4M334 628l0 -8M334 628l1 -8M335 702l0 -430M335 619l1 9M336 633l0 -234M336 615l1 17 0 -17M337 616l1 15M338 702l0 -321"/>
<path stroke="red" d="M338 621l1 6 0 -222M339 625l1 -2M340 626l0 -4M340 626l1 -4M341 702l0 -440M341 622l1 -12M342 633l0 -234M342 632l1 -17M343 632l0 -17M343 631l1 -14M344 702l0 -322M344 627l1 -6M345 627l0 -222M345 623l1 2M346 626l0 -4 1 4M347 702l0 -471"/>
<path stroke="red" d="M347 632l1 -16M348 632l0 -217M348 625l1 -3M349 626l0 -4M349 626l1 -4M350 703l0 -445M350 623l1 2M351 627l0 -224M351 621l1 6M352 628l0 -8 1 8M353 702l0 -292M353 539l1 29M354 702l0 -480M354 616l1 15M355 703l0 -261 1 116M356 631l0 -391"/>
<path stroke="red" d="M356 619l1 9M357 637l0 -234M357 616l1 16M358 702l0 -241M358 496l1 -26M359 698l0 -442M359 634l1 -20M360 634l0 -242M360 617l1 13M361 702l0 -323M361 619l1 8 0 -8M362 621l1 5M363 629l0 -224M363 629l1 -10M364 702l0 -297M364 619l1 9"/>
<path stroke="red" d="M365 702l0 -457M365 576l1 3M366 633l0 -241M366 618l1 12M367 702l0 -323M367 620l1 7 0 -222M368 535l1 18M369 629l0 -157M369 629l1 -10M370 702l0 -297M370 446l1 6M371 639l0 -331M371 608l1 12M372 625l0 -6M372 624l1 0M373 703l0 -462"/>
<path stroke="red" d="M373 615l1 18M374 637l0 -234M374 637l1 -26M375 637l0 -26M375 630l1 -12M376 702l0 -278M376 613l1 21M377 702l0 -473M377 630l1 -13M378 630l0 -13M378 629l1 -10M379 703l0 -445M379 624l1 0M380 626l0 -223M380 622l1 3M381 628l0 -8"/>
<path stroke="red" d="M381 620l1 8M382 702l0 -430M382 628l1 -9M383 633l0 -234M383 632l1 -17M384 632l0 -17M384 631l1 -15M385 702l0 -321M385 627l1 -6M386 627l0 -222M386 625l1 -2M387 626l0 -4M387 626l1 -4M388 702l0 -440M388 431l1 -13M389 633l0 -234"/>
<path stroke="red" d="M389 615l1 18 0 -18M390 616l1 15M391 702l0 -322M391 621l1 6 0 -222M392 625l1 -2M393 626l0 -4M393 626l1 -4M394 702l0 -471M394 615l1 17 0 -217M395 622l1 3M396 626l0 -4 1 4M397 703l0 -445M397 625l1 -2M398 626l0 -223M398 626l1 -5"/>
<path stroke="red" d="M399 628l0 -8M399 628l1 -8M400 702l0 -292M400 468l1 -7M401 703l0 -622M401 626l1 -4M402 628l0 -9M402 628l1 -9M403 703l0 -445M403 622l1 4 0 -223M404 621l1 5M405 702l0 -175M405 551l1 -30M406 698l0 -426M406 626l1 -4M407 633l0 -234"/>
<path stroke="red" d="M407 632l1 -16M408 702l0 -321M408 613l1 0M409 627l0 -14M409 626l1 -5M410 626l0 -221M410 622l1 4M411 702l0 -289M411 615l1 16M412 702l0 -440M412 620l1 7M413 633l0 -234M413 632l1 -16M414 702l0 -322M414 627l1 -7M415 627l0 -120"/>
<path stroke="red" d="M415 507l1 -45M416 626l0 -221M416 626l1 -4M417 702l0 -289M417 631l1 -15M418 698l0 -467M418 511l1 -87M419 626l0 -211M419 622l1 4M420 703l0 -445M420 623l1 2M421 626l0 -223M421 625l1 -2M422 627l0 -6M422 627l1 -6M423 702l0 -292"/>
<path stroke="red" d="M423 613l1 19M424 702l0 -465M424 625l1 -3M425 625l0 -3M425 625l1 -2M426 703l0 -462M426 632l1 -17M427 637l0 -234M427 612l1 24 0 -24M428 618l1 12M429 702l0 -446M429 638l1 -29M430 638l0 -246M430 632l1 -17M431 632l0 -17M431 629l1 -10"/>
<path stroke="red" d="M432 702l0 -323M432 627l1 -6M433 629l0 -224M433 619l1 10 0 -10 1 10M435 702l0 -432 1 -25M436 633l0 -388M436 632l1 -16M437 632l0 -16M437 629l1 -10M438 702l0 -323M438 627l1 -6M439 629l0 -224M439 619l1 10 0 -10 1 9M441 702l0 -394"/>
<path stroke="red" d="M441 637l1 -26M442 637l0 -201M442 623l1 2 0 -2M443 624l1 0M444 703l0 -462M444 616l1 16M445 637l0 -234M445 615l1 18 0 -18M446 619l1 10M447 702l0 -278M447 693l1 4M448 702l0 -418M448 604l1 14M449 697l0 -304M449 624l1 0M450 703l0 -464"/>
<path stroke="red" d="M450 626l1 -4M451 637l0 -234M451 616l1 16M452 702l0 -86M452 702l1 0 0 -446M453 635l1 -22M454 635l0 -243M454 617l1 14M455 702l0 -323M455 496l1 -32M456 627l0 -216M456 621l1 5M457 629l0 -224M457 629l1 -10M458 702l0 -297M458 617l1 10"/>
<path stroke="red" d="M459 702l0 -457M459 631l1 -14M460 633l0 -241M460 630l1 -13M461 702l0 -323M461 627l1 -7M462 627l0 -7M462 626l1 -5M463 629l0 -224M463 619l1 10M464 702l0 -297M464 628l1 -9M465 698l0 -390M465 573l1 -26M466 625l0 -162M466 623l1 1"/>
<path stroke="red" d="M467 703l0 -462M467 615l1 18M468 634l0 -231M468 634l1 -24M469 637l0 -27M469 631l1 -14M470 702l0 -278M470 457l1 -19M471 702l0 -473M471 629l1 -14M472 630l0 -15M472 629l1 -10M473 703l0 -445M473 624l1 -1M474 626l0 -223M474 625l1 -2"/>
<path stroke="red" d="M475 627l0 -7M475 627l1 -7M476 702l0 -430M476 617l1 11M477 633l0 -234M477 615l1 18 0 -18M478 616l1 16M479 702l0 -321M479 621l1 6 0 -222M480 625l1 -2M481 626l0 -4M481 626l1 -4M482 702l0 -290M482 654l1 -147M483 633l0 -371"/>
<path stroke="red" d="M483 615l1 18 0 -18M484 616l1 15M485 702l0 -322M485 621l1 6 0 -222M486 625l1 -2M487 626l0 -4M487 626l1 -4M488 702l0 -471M488 615l1 18 0 -218M489 625l1 -2M490 626l0 -4M490 626l1 -4M491 703l0 -445M491 623l1 2M492 626l0 -223"/>
<path stroke="red" d="M492 622l1 4M493 628l0 -8 1 8M494 702l0 -292M494 620l1 7M495 703l0 -622M495 625l1 -3M496 628l0 -8M496 628l1 -8M497 703l0 -445M497 622l1 4 0 -223M498 622l1 4M499 628l0 -8 1 8M500 702l0 -430M500 626l1 -5M501 633l0 -234M501 632l1 -16"/>
<path stroke="red" d="M502 702l0 -252 1 116M503 627l0 -246M503 627l1 -6M504 627l0 -222M504 626l1 -4M505 702l0 -289M505 521l1 33M506 702l0 -440M506 628l1 -8M507 633l0 -234M507 616l1 16M508 702l0 -322M508 619l1 8 0 -8M509 621l1 5 0 -221M510 626l1 -4"/>
<path stroke="red" d="M511 702l0 -289M511 631l1 -15M512 698l0 -467M512 576l1 3M513 626l0 -211M513 622l1 4M514 703l0 -445M514 622l1 3M515 626l0 -223M515 449l1 33M516 627l0 -208M516 627l1 -6M517 702l0 -288M517 479l1 5M518 702l0 -465M518 607l1 13"/>
<path stroke="red" d="M519 625l0 -7M519 623l1 2M520 703l0 -462M520 615l1 18M521 637l0 -234M521 637l1 -26M522 637l0 -26M522 630l1 -12M523 702l0 -446M523 591l1 41M524 638l0 -246M524 633l1 -18M525 633l0 -18M525 630l1 -12M526 702l0 -323M526 627l1 -6"/>
<path stroke="red" d="M527 629l0 -224M527 619l1 10 0 -10 1 10M529 702l0 -297M529 620l1 8M530 702l0 -457M530 632l1 -17M531 632l0 -17M531 629l1 -10M532 702l0 -323M532 627l1 -6M533 629l0 -224M533 629l1 -10M534 629l0 -10M534 629l1 -10M535 702l0 -394"/>
<path stroke="red" d="M535 611l1 26 0 -201M536 625l1 -2M537 625l0 -2M537 624l1 0M538 703l0 -462M538 632l1 -16M539 637l0 -234M539 614l1 20 0 -20M540 619l1 10M541 702l0 -278M541 620l1 7M542 702l0 -430M542 626l1 -5M543 626l0 -5M543 626l1 -4M544 703l0 -445"/>
<path stroke="red" d="M544 626l1 -4M545 626l0 -223M545 626l1 -4M546 628l0 -8M546 628l1 -8M547 702l0 -430M547 621l1 5M548 633l0 -234M548 632l1 -16M549 632l0 -16M549 631l1 -14M550 702l0 -321M550 627l1 -6M551 627l0 -222M551 622l1 4M552 702l0 -175"/>
<path stroke="red" d="M552 536l1 -74M553 702l0 -440M553 620l1 8M554 633l0 -234M554 632l1 -16M555 702l0 -322M555 613l1 0M556 627l0 -14M556 626l1 -5M557 626l0 -221M557 622l1 4M558 702l0 -289M558 615l1 16M559 698l0 -467M559 631l1 -14M560 631l0 -216"/>
<path stroke="red" d="M560 626l1 -4M561 703l0 -445M561 625l1 -3M562 626l0 -118 1 -44M563 627l0 -224M563 627l1 -6M564 702l0 -288M564 624l1 -1M565 702l0 -464M565 539l1 -43M566 625l0 -162M566 625l1 -2M567 703l0 -462M567 633l1 -18M568 637l0 -234"/>
<path stroke="red" d="M568 611l1 26 0 -26M569 618l1 12M570 702l0 -446M570 561l1 -72M571 638l0 -246M571 614l1 19 0 -19M572 618l1 12M573 702l0 -323M573 621l1 6M574 629l0 -224M574 629l1 -10M575 629l0 -10M575 629l1 -10M576 702l0 -297M576 628l1 -8"/>
<path stroke="red" d="M577 702l0 -457M577 632l1 -17M578 632l0 -17M578 629l1 -10M579 702l0 -323M579 627l1 -6M580 629l0 -224M580 619l1 10 0 -10 1 9M582 702l0 -394M582 637l1 -27M583 637l0 -201M583 623l1 2 0 -2M584 624l1 0M585 703l0 -462M585 616l1 16"/>
<path stroke="red" d="M586 637l0 -234M586 634l1 -20M587 634l0 -20M587 629l1 -10M588 702l0 -278M588 627l1 -7M589 702l0 -512M589 625l1 -3M590 626l0 -4M590 626l1 -4M591 703l0 -462M591 616l1 15M592 637l0 -234M592 615l1 18 0 -18M593 619l1 10M594 702l0 -446"/>
<path stroke="red" d="M594 635l1 -23M595 635l0 -243M595 617l1 14 0 -14M596 619l1 10M597 702l0 -323M597 621l1 6M598 629l0 -224M598 629l1 -10M599 702l0 -83M599 702l1 0 0 -457M600 632l1 -16M601 633l0 -241M601 617l1 14M602 702l0 -323M602 496l1 -32"/>
<path stroke="red" d="M603 627l0 -216M603 621l1 5M604 629l0 -224M604 629l1 -10M605 702l0 -297M605 617l1 10M606 698l0 -390M606 613l1 21 0 -198M607 623l1 2M608 703l0 -462M608 614l1 19 0 -19M609 617l1 14M610 637l0 -234M610 631l1 -14M611 702l0 -242"/>
<path stroke="red" d="M611 627l1 -7M612 702l0 -470M612 573l1 -26M613 630l0 -237M613 629l1 -10M614 703l0 -445M614 625l1 -2M615 626l0 -223M615 613l1 7M616 627l0 -7M616 621l1 6M617 702l0 -430M617 350l1 50M618 632l0 -233M618 632l1 -18M619 633l0 -19"/>
<path stroke="red" d="M619 632l1 -16M620 702l0 -321M620 627l1 -6M621 627l0 -222M621 624l1 -1M622 626l0 -4M622 626l1 -4M623 702l0 -290M623 620l1 7M624 702l0 -440M624 615l1 18 0 -18M625 616l1 16M626 702l0 -322M626 621l1 6 0 -222M627 625l1 -2M628 626l0 -4"/>
<path stroke="red" d="M628 626l1 -4M629 702l0 -471M629 614l1 19 0 -218M630 623l1 2M631 626l0 -4 1 4M632 703l0 -445M632 624l1 -1M633 626l0 -223M633 626l1 -4M634 628l0 -8M634 628l1 -8M635 702l0 -292M635 621l1 -4M636 702l0 -470M636 622l1 2M637 702l0 -442"/>
<path stroke="red" d="M637 622l1 3M638 703l0 -445M638 622l1 4 0 -223M639 622l1 4M640 628l0 -8 1 8M641 702l0 -430M641 627l1 -6M642 633l0 -234M642 632l1 -16M643 632l0 -16M643 631l1 -14M644 702l0 -321M644 627l1 -6M645 627l0 -222M645 622l1 3M646 626l0 -4"/>
<path stroke="red" d="M646 622l1 4M647 702l0 -440M647 619l1 9M648 633l0 -234M648 632l1 -16M649 702l0 -252 1 116M650 627l0 -247M650 627l1 -6M651 627l0 -222M651 626l1 -4M652 702l0 -289M652 521l1 33M653 698l0 -467M653 617l1 14 0 -216M654 622l1 4"/>
<path stroke="red" d="M655 703l0 -445M655 617l1 6M656 626l0 -6M656 626l1 -4M657 627l0 -224M657 627l1 -6M658 702l0 -288M658 624l1 -1M659 702l0 -463M659 576l1 3M660 625l0 -189M660 625l1 -2M661 703l0 -462M661 633l1 -19M662 633l0 -230M662 437l1 25"/>
<path stroke="red" d="M663 637l0 -212M663 617l1 14M664 702l0 -284M664 435l1 8M665 638l0 -382M665 632l1 -20M666 633l0 -21M666 630l1 -12M667 702l0 -323M667 627l1 -7M668 628l0 -223M668 619l1 9M669 629l0 -10 1 10M670 702l0 -297M670 619l1 8M671 702l0 -457"/>
<path stroke="red" d="M671 633l1 -18M672 633l0 -18M672 629l1 -11M673 702l0 -323M673 627l1 -6M674 629l0 -224M674 619l1 10 0 -10 1 10M676 702l0 -394M676 638l1 -28M677 638l0 -202M677 623l1 2 0 -2M678 624l1 0M679 703l0 -462M679 616l1 16M680 637l0 -234"/>
<path stroke="red" d="M680 613l1 22 0 -21M681 619l1 10M682 702l0 -278M682 434l1 124M683 702l0 -512M683 622l1 3M684 626l0 -4 1 4M685 703l0 -462M685 632l1 -16M686 637l0 -234M686 614l1 20 0 -20M687 619l1 10M688 702l0 -446M688 636l1 -24M689 636l0 -244"/>
<path stroke="red" d="M689 616l1 15 0 -15M690 619l1 10M691 702l0 -323M691 621l1 6M692 629l0 -224M692 629l1 -10M693 629l0 -10M693 628l1 -9M694 702l0 -457M694 632l1 -16M695 633l0 -241M695 631l1 -14M696 631l0 -14M696 628l1 -9M697 702l0 -323M697 627l1 -6"/>
<path stroke="red" d="M698 629l0 -224M698 619l1 10M699 702l0 -175M699 535l1 -76M700 698l0 -390M700 635l1 -22M701 635l0 -199M701 623l1 2M702 703l0 -462M702 477l1 -33M703 633l0 -189M703 617l1 14M704 637l0 -234M704 632l1 -16M705 702l0 -242M705 627l1 -8"/>
<path stroke="red" d="M706 702l0 -470M706 606l1 35 0 -248M707 629l1 -10M708 703l0 -445M708 625l1 -3M709 626l0 -118 1 -44M710 627l0 -224M710 627l1 -6M711 702l0 -288M711 624l1 -1M712 698l0 -426M712 407l1 97M713 633l0 -129M713 616l1 16M714 702l0 -321"/>
<path stroke="red" d="M714 620l1 7 0 -222M715 623l1 -1M716 626l0 -4M716 626l1 -4M717 702l0 -290M717 613l1 8M718 702l0 -440M718 614l1 19 0 -19M719 616l1 16M720 702l0 -322M720 621l1 6 0 -222M721 624l1 -1M722 626l0 -4M722 626l1 -4M723 702l0 -471"/>
<path stroke="red" d="M723 614l1 19 0 -218M724 625l1 -2M725 626l0 -4M725 626l1 -4M726 703l0 -445M726 624l1 0M727 626l0 -223M727 622l1 4M728 628l0 -8 1 8M729 702l0 -292M729 484l1 -26M730 702l0 -480M730 615l1 16 0 -15M731 617l1 14M732 703l0 -463"/>
<path stroke="red" d="M732 618l1 11M733 637l0 -234M733 634l1 -20M734 634l0 -20M734 629l1 -10M735 702l0 -446M735 611l1 25 0 -244M736 632l1 -16M737 632l0 -16M737 629l1 -10M738 702l0 -323M738 627l1 -6M739 629l0 -224M739 629l1 -10M740 629l0 -10M740 628l1 -9"/>
<path stroke="red" d="M741 702l0 -457M741 632l1 -16M742 633l0 -241M742 617l1 14 0 -14M743 619l1 10M744 702l0 -323M744 621l1 6M745 629l0 -224M745 629l1 -10M746 702l0 -83M746 702l1 0 0 -394M747 613l1 22 0 -199M748 625l1 -2M749 703l0 -462M749 346l1 30"/>
<path stroke="red" d="M750 633l0 -302M750 631l1 -14M751 637l0 -234M751 616l1 16M752 702l0 -241M752 604l1 18M753 702l0 -473M753 637l1 -27M754 637l0 -244M754 629l1 -10M755 703l0 -445M755 625l1 -3M756 626l0 -4 1 4M757 627l0 -224M757 621l1 6M758 702l0 -288"/>
<path stroke="red" d="M758 623l1 1M759 698l0 -426M759 573l1 -48M760 633l0 -234M760 632l1 -16M761 702l0 -321M761 627l1 -7M762 627l0 -222M762 605l1 1M763 626l0 -20M763 622l1 4M764 702l0 -289M764 453l1 -41M765 702l0 -440M765 632l1 -18M766 633l0 -19"/>
<path stroke="red" d="M766 632l1 -16M767 702l0 -322M767 627l1 -6M768 627l0 -222M768 624l1 -1M769 626l0 -4M769 626l1 -4M770 702l0 -471M770 614l1 20 0 -219M771 623l1 2M772 626l0 -4 1 4M773 703l0 -445M773 624l1 0M774 626l0 -223M774 626l1 -4M775 628l0 -8"/>
<path stroke="red" d="M775 628l1 -8M776 702l0 -292M776 680l1 -72M777 703l0 -622M777 623l1 1M778 628l0 -8 1 8M779 703l0 -445M779 625l1 -3M780 626l0 -223M780 626l1 -4M781 628l0 -8M781 628l1 -8M782 702l0 -430M782 620l1 8M783 633l0 -234M783 632l1 -17"/>
<path stroke="red" d="M784 632l0 -17M784 631l1 -14M785 702l0 -321M785 627l1 -6M786 627l0 -222M786 623l1 2M787 626l0 -4 1 4M788 702l0 -440M788 618l1 11M789 633l0 -234M789 632l1 -17M790 632l0 -17M790 631l1 -14M791 702l0 -322M791 627l1 -6M792 627l0 -222"/>
<path stroke="red" d="M792 622l1 3M793 626l0 -4 1 4M794 702l0 -471M794 632l1 -16M795 632l0 -217M795 626l1 -4M796 703l0 -260 1 115M797 626l0 -368M797 622l1 4M798 627l0 -224M798 627l1 -6M799 702l0 -276 1 -12M800 702l0 -465M800 619l1 9M801 629l0 -193"/>
<path stroke="red" d="M801 625l1 -2M802 703l0 -462M802 628l1 -16M803 633l0 -21M803 631l1 -14M804 637l0 -234M804 617l1 14M805 702l0 -241M805 620l1 7M806 698l0 -442M806 576l1 3M807 633l0 -241M807 618l1 12M808 702l0 -323M808 620l1 7 0 -222M809 535l1 18"/>
<path stroke="red" d="M810 629l0 -157M810 629l1 -10M811 702l0 -297M811 487l1 5M812 702l0 -457M812 632l1 -20M813 633l0 -21M813 630l1 -12M814 702l0 -323M814 627l1 -7M815 628l0 -223M815 619l1 9M816 629l0 -10 1 10M817 702l0 -394M817 639l1 -31M818 639l0 -203"/>
<path stroke="red" d="M818 623l1 2 0 -2M819 624l1 0M820 703l0 -462M820 615l1 17M821 637l0 -234M821 636l1 -24M822 636l0 -24M822 630l1 -12M823 702l0 -278M823 614l1 19M824 702l0 -418M824 611l1 -12M825 702l0 -309M825 625l1 -2M826 703l0 -464M826 621l1 6"/>
<path stroke="red" d="M827 637l0 -234M827 613l1 21 0 -20M828 619l1 10M829 702l0 -446M829 637l1 -26M830 637l0 -245M830 616l1 16 0 -16M831 619l1 10M832 702l0 -323M832 621l1 6M833 629l0 -224M833 629l1 -10M834 629l0 -10M834 629l1 -10M835 702l0 -457"/>
<path stroke="red" d="M835 632l1 -17M836 633l0 -241M836 616l1 15 0 -15M837 619l1 10M838 702l0 -323M838 621l1 6M839 629l0 -224M839 629l1 -10M840 629l0 -10M840 628l1 -9M841 702l0 -394M841 612l1 24 0 -200M842 623l1 2 0 -2M843 624l1 0M844 703l0 -462"/>
<path stroke="red" d="M844 617l1 14M845 637l0 -234M845 632l1 -16M846 702l0 -175M846 551l1 -30M847 702l0 -473M847 603l1 32M848 637l0 -244M848 629l1 -10M849 703l0 -445M849 408l1 99M850 626l0 -119M850 622l1 4M851 627l0 -224M851 621l1 6M852 702l0 -288"/>
<path stroke="red" d="M852 623l1 0M853 698l0 -426M853 625l1 -3M854 633l0 -234M854 632l1 -16M855 702l0 -321M855 627l1 -7M856 627l0 -120 1 -45M857 626l0 -221M857 626l1 -4M858 702l0 -289M858 631l1 -15M859 702l0 -440M859 407l1 97M860 633l0 -129M860 616l1 16"/>
<path stroke="red" d="M861 702l0 -322M861 620l1 7 0 -222M862 623l1 -1M863 626l0 -4M863 626l1 -4M864 702l0 -471M864 554l1 51M865 634l0 -219M865 623l1 1M866 626l0 -4 1 4M867 703l0 -445M867 624l1 0M868 626l0 -223M868 625l1 -3M869 628l0 -8M869 628l1 -8"/>
<path stroke="red" d="M870 702l0 -292M870 615l1 17M871 703l0 -622M871 623l1 1M872 628l0 -8M872 628l1 -8M873 703l0 -445M873 622l1 3M874 626l0 -223M874 622l1 3M875 628l0 -8 1 8M876 702l0 -430M876 628l1 -9M877 633l0 -234M877 632l1 -17M878 632l0 -17"/>
<path stroke="red" d="M878 631l1 -14M879 702l0 -321M879 627l1 -6M880 627l0 -222M880 623l1 2M881 626l0 -4 1 4M882 702l0 -440M882 617l1 12M883 633l0 -234M883 632l1 -17M884 632l0 -17M884 631l1 -14M885 702l0 -322M885 627l1 -6M886 627l0 -222M886 625l1 -2"/>
<path stroke="red" d="M887 626l0 -4M887 626l1 -4M888 702l0 -471M888 616l1 16 0 -217M889 622l1 3M890 626l0 -4 1 4M891 703l0 -445M891 625l1 -2M892 627l0 -224M892 627l1 -6M893 702l0 -82M893 702l1 0 0 -465M894 601l1 23M895 629l0 -193M895 625l1 -2"/>
<path stroke="red" d="M896 703l0 -462M896 346l1 30M897 633l0 -302M897 631l1 -14M898 637l0 -234M898 616l1 16M899 702l0 -241M899 604l1 18M900 698l0 -442M900 634l1 -20M901 634l0 -242M901 630l1 -13M902 702l0 -323M902 627l1 -7M903 627l0 -7M903 626l1 -4"/>
<path stroke="red" d="M904 629l0 -224M904 619l1 10M905 702l0 -297M905 628l1 -9M906 702l0 -457M906 573l1 -49M907 633l0 -241M907 630l1 -12M908 702l0 -323M908 627l1 -7M909 627l0 -222M909 562l1 44M910 629l0 -25M910 619l1 10M911 702l0 -362M911 372l1 -64"/>
<path stroke="red" d="M912 639l0 -331M912 622l1 2M913 625l0 -3M913 624l1 0M914 703l0 -462M914 615l1 18M915 637l0 -234M915 612l1 24 0 -24M916 618l1 12M917 702l0 -278M917 634l1 -20M918 702l0 -418M918 669l1 -129M919 626l0 -354M919 626l1 -4M920 703l0 -445"/>
<path stroke="red" d="M920 625l1 -3M921 626l0 -223M921 625l1 -3M922 627l0 -7M922 627l1 -7M923 702l0 -430M923 619l1 9M924 633l0 -234M924 615l1 17 0 -17M925 616l1 15M926 702l0 -321M926 621l1 6 0 -222M927 625l1 -2M928 626l0 -4M928 626l1 -4M929 702l0 -440"/>
<path stroke="red" d="M929 622l1 -12M930 633l0 -234M930 632l1 -17M931 632l0 -17M931 631l1 -14M932 702l0 -322M932 627l1 -6M933 627l0 -222M933 623l1 2M934 626l0 -4 1 4M935 702l0 -471M935 632l1 -16M936 632l0 -217M936 625l1 -3M937 626l0 -4M937 626l1 -4"/>
<path stroke="red" d="M938 703l0 -445M938 623l1 2M939 627l0 -224M939 621l1 6M940 628l0 -8 1 8M941 702l0 -464M941 373l1 -28M942 646l0 -301M942 623l1 2M943 703l0 -261 1 116M944 633l0 -392M944 617l1 14M945 637l0 -234M945 616l1 16M946 702l0 -241"/>
<path stroke="red" d="M946 496l1 -26M947 698l0 -442M947 634l1 -20M948 634l0 -242M948 617l1 13M949 702l0 -323M949 619l1 8 0 -8M950 621l1 5M951 629l0 -224M951 629l1 -10M952 629l0 -10"/>
</svg>
