<?xml version="1.0" standalone="yes"?>
<!DOCTYPE svg PUBLIC "-//W3C//DTD SVG 1.1//EN"
 "http://www.w3.org/Graphics/SVG/1.1/DTD/svg11.dtd">
<svg xmlns="http://www.w3.org/2000/svg" version="1.1"
  width="100%" height="100%" viewBox="0 0 1024 768"
  style="fill: none; stroke-width: 3; font-family: Helvetica;
 font: Helvetica;
">

<!-- Creator: NGspice -->

<rect x="0" y="0" width="1024" height="768" fill="white" stroke="none"/>
<text stroke="none" fill="black" font-size="16" x="358" y="752">
time
</text>
<text stroke="none" fill="black" font-size="16" x="10" y="16">
tran1: Even Parity Output
</text>
<path stroke="black" stroke-width="3" d="M50 704l0 -638"/>
<text stroke="none" fill="black" font-size="16" x="35" y="728">
0.0
</text>
<path stroke="black" stroke-width="3" stroke-dasharray="1,2" d="M204 704l0 -638"/>
<text stroke="none" fill="black" font-size="16" x="189" y="728">
0.5
</text>
<path stroke="black" stroke-width="3" stroke-dasharray="1,2" d="M358 704l0 -638"/>
<text stroke="none" fill="black" font-size="16" x="343" y="728">
1.0
</text>
<path stroke="black" stroke-width="3" stroke-dasharray="1,2" d="M512 704l0 -638"/>
<text stroke="none" fill="black" font-size="16" x="497" y="728">
1.5
</text>
<path stroke="black" stroke-width="3" stroke-dasharray="1,2" d="M666 704l0 -638"/>
<text stroke="none" fill="black" font-size="16" x="651" y="728">
2.0
</text>
<path stroke="black" stroke-width="3" stroke-dasharray="1,2" d="M820 704l0 -638"/>
<text stroke="none" fill="black" font-size="16" x="805" y="728">
2.5
</text>
<path stroke="black" stroke-width="3" stroke-dasharray="1,2" d="M974 704l0 -638"/>
<text stroke="none" fill="black" font-size="16" x="959" y="728">
3.0
</text>
<text stroke="none" fill="black" font-size="16" x="614" y="752">
us
</text>
<path stroke="black" stroke-width="3" stroke-dasharray="1,2" d="M50 704l924 0"/>
<text stroke="none" fill="black" font-size="16" x="8" y="712">
-0.2
</text>
<path stroke="black" stroke-width="3" d="M50 646l924 0"/>
<text stroke="none" fill="black" font-size="16" x="18" y="654">
0.0
</text>
<path stroke="black" stroke-width="3" stroke-dasharray="1,2" d="M50 588l924 0"/>
<text stroke="none" fill="black" font-size="16" x="18" y="596">
0.2
</text>
<path stroke="black" stroke-width="3" stroke-dasharray="1,2" d="M50 530l924 0"/>
<text stroke="none" fill="black" font-size="16" x="18" y="538">
0.4
</text>
<path stroke="black" stroke-width="3" stroke-dasharray="1,2" d="M50 472l924 0"/>
<text stroke="none" fill="black" font-size="16" x="18" y="480">
0.6
</text>
<path stroke="black" stroke-width="3" stroke-dasharray="1,2" d="M50 414l924 0"/>
<text stroke="none" fill="black" font-size="16" x="18" y="422">
0.8
</text>
<path stroke="black" stroke-width="3" stroke-dasharray="1,2" d="M50 356l924 0"/>
<text stroke="none" fill="black" font-size="16" x="18" y="364">
1.0
</text>
<path stroke="black" stroke-width="3" stroke-dasharray="1,2" d="M50 298l924 0"/>
<text stroke="none" fill="black" font-size="16" x="18" y="306">
1.2
</text>
<path stroke="black" stroke-width="3" stroke-dasharray="1,2" d="M50 240l924 0"/>
<text stroke="none" fill="black" font-size="16" x="18" y="248">
1.4
</text>
<path stroke="black" stroke-width="3" stroke-dasharray="1,2" d="M50 182l924 0"/>
<text stroke="none" fill="black" font-size="16" x="18" y="190">
1.6
</text>
<path stroke="black" stroke-width="3" stroke-dasharray="1,2" d="M50 124l924 0"/>
<text stroke="none" fill="black" font-size="16" x="18" y="132">
1.8
</text>
<path stroke="black" stroke-width="3" stroke-dasharray="1,2" d="M50 66l924 0"/>
<text stroke="none" fill="black" font-size="16" x="18" y="74">
2.0
</text>
<text stroke="none" fill="black" font-size="16" x="10" y="32">
V
</text>
<path stroke="red" d="M462 23l46 0"/>
<text stroke="none" fill="black" font-size="16" x="518" y="32">
v(out_parity)
</text>
<path stroke="red" d="M50 664l0 -448M50 645l1 1 1 0M52 656l0 -532 1 0M53 646l0 -537M53 646l1 0M54 661l0 -537 1 0M55 646l0 -537M55 646l1 0M56 660l0 -536 2 0M58 646l0 -537M58 646l1 0M59 660l0 -534 1 -1M60 646l0 -537M60 646l1 0M61 662l0 -538 1 0"/>
<path stroke="red" d="M62 526l0 -415M62 526l1 104M63 658l0 -534 1 0M64 646l0 -536M64 646l2 0M66 662l0 -551M66 646l1 0M67 658l0 -534 2 0M69 646l0 -536M69 646l1 0M70 660l0 -536 2 0M72 661l0 -551M72 124l1 0M73 646l0 -536M73 646l2 0M75 657l0 -533"/>
<path stroke="red" d="M75 124l1 0M76 646l0 -536M76 646l2 0M78 660l0 -551M78 646l1 0M79 662l0 -517 1 -12 0 -9 1 0M81 646l0 -537M81 646l2 0M83 662l0 -538 1 0M84 660l0 -550M84 124l2 0M86 646l0 -537M86 646l1 0M87 658l0 -549M87 645l1 0M88 646l0 -1"/>
<path stroke="red" d="M88 646l1 0M89 662l0 -538 1 0M90 646l0 -537M90 646l1 2M91 657l0 -533 1 0M92 646l0 -536M92 646l1 0M93 660l0 -536 2 0M95 646l0 -537M95 646l1 0M96 661l0 -537 1 0M97 646l0 -537M97 646l1 0M98 658l0 -534 1 0M99 646l0 -538M99 646l1 0"/>
<path stroke="red" d="M100 658l0 -534 1 0M101 646l0 -536M101 646l2 0M103 662l0 -551M103 646l1 0M104 657l0 -533 2 0M106 646l0 -536M106 646l1 0M107 659l0 -535 2 0M109 661l0 -551M109 124l1 0M110 646l0 -536M110 646l2 0M112 659l0 -550M112 646l1 0"/>
<path stroke="red" d="M113 658l0 -534 2 0M115 660l0 -551M115 124l1 0M116 645l0 -536M116 645l1 0M117 646l0 -1M117 646l1 0M118 659l0 -535 1 0M119 125l0 -1M119 125l1 0M120 646l0 -537M120 646l1 0M121 659l0 -549M121 646l2 0M123 660l0 -536 1 0M124 646l0 -538"/>
<path stroke="red" d="M124 646l2 0M126 659l0 -535 1 0M127 654l0 -544M127 654l1 2M128 662l0 -538 1 0M129 646l0 -536M129 646l1 0M130 662l0 -538 2 0M132 646l0 -536M132 646l1 0M133 662l0 -538 1 0M134 646l0 -537M134 646l1 0M135 662l0 -538 1 0M136 646l0 -538"/>
<path stroke="red" d="M136 646l1 0M137 657l0 -533 1 0M138 646l0 -537M138 646l2 0M140 659l0 -550M140 646l1 0M141 658l0 -534 2 0M143 646l0 -537M143 646l1 0M144 658l0 -534 2 0M146 659l0 -550M146 124l1 0M147 646l0 -538M147 646l2 0M149 670l0 -546"/>
<path stroke="red" d="M149 124l1 0M150 646l0 -534M150 646l2 0M152 667l0 -556M152 646l1 0M153 670l0 -546 2 0M155 646l0 -534M155 646l1 0M156 669l0 -419 1 -72 0 -54 1 0M158 667l0 -555M158 124l2 0M160 646l0 -535M160 646l1 0M161 668l0 -557M161 646l2 0"/>
<path stroke="red" d="M163 670l0 -546 1 0M164 666l0 -556M164 125l1 -1 1 0M166 646l0 -536M166 646l1 0M167 669l0 -545 2 0M169 646l0 -536M169 646l1 0M170 670l0 -546 1 0M171 646l0 -535M171 646l1 0M172 664l0 -540 1 0M173 646l0 -535M173 646l2 0M175 670l0 -546"/>
<path stroke="red" d="M175 124l1 0M176 144l0 -32M176 144l1 86M177 667l0 -543 1 0M178 646l0 -535M178 646l2 0M180 666l0 -542 1 0M181 646l0 -535M181 646l2 0M183 665l0 -553M183 646l1 0M184 668l0 -544 2 0M186 670l0 -560M186 124l1 0M187 646l0 -536"/>
<path stroke="red" d="M187 646l2 0M189 669l0 -558M189 646l1 0M190 670l0 -546 2 0M192 646l0 -536M192 646l1 0M193 670l0 -538 1 -5 0 -3 1 0M195 668l0 -558M195 124l1 0 0 -4 1 -6M197 646l0 -535M197 646l1 0M198 669l0 -558M198 646l2 0M200 665l0 -541"/>
<path stroke="red" d="M200 124l1 0M201 666l0 -556M201 124l2 0M203 646l0 -535M203 646l1 0M204 669l0 -545 2 0M206 646l0 -536M206 646l1 0M207 670l0 -546 1 0M208 646l0 -535M208 646l1 0M209 664l0 -540 1 0M210 646l0 -534M210 646l1 0M211 666l0 -542"/>
<path stroke="red" d="M211 124l1 0M212 646l0 -535M212 646l1 0M213 666l0 -537 1 -3M214 646l0 -534M214 646l1 0M215 668l0 -544 1 0 0 -1M216 124l1 -5M217 646l0 -534M217 646l1 0M218 667l0 -543 2 0M220 664l0 -552M220 124l1 0M221 646l0 -534M221 646l2 0"/>
<path stroke="red" d="M223 668l0 -544 1 0M224 646l0 -534M224 646l2 0M226 670l0 -559M226 646l1 0M227 665l0 -541 2 0M229 646l0 -535M229 646l1 0M230 666l0 -542 2 0M232 671l0 -560M232 124l1 0M233 173l0 -63M233 173l1 116M234 646l0 -357M234 646l1 0"/>
<path stroke="red" d="M235 668l0 -557M235 646l2 0M237 667l0 -543 1 0M238 667l0 -557M238 124l2 0M240 646l0 -535M240 646l1 0M241 667l0 -543 2 0M243 646l0 -535M243 646l1 0M244 667l0 -543 1 0M245 646l0 -536M245 646l1 0M246 669l0 -545 1 0M247 651l0 -578"/>
<path stroke="red" d="M247 647l1 1M248 650l0 -526 1 0M249 651l0 -555M249 646l1 0 0 -522 1 0M251 648l0 -564M251 646l1 0 0 -522 1 0M253 647l0 -560M253 647l1 -2M254 647l0 -2M254 646l1 0 0 -522 2 0M257 647l0 -558M257 124l1 0M258 649l0 -566M258 646l2 0"/>
<path stroke="red" d="M260 652l0 -565M260 646l1 0 0 -522 2 0M263 651l0 -567M263 124l1 0M264 652l0 -560M264 646l2 0 0 -522 1 0M267 652l0 -563M267 646l2 0M269 651l0 -568M269 646l1 0 0 -521 1 0 0 -1 1 0M272 651l0 -554M272 646l2 0 0 -522 1 0M275 647l0 -558"/>
<path stroke="red" d="M275 124l2 0M277 650l0 -567M277 646l1 0 0 -522 2 0M280 648l0 -564M280 646l1 0 0 -525 1 -29M282 647l0 -555M282 646l1 0 0 -522 1 0M284 652l0 -559M284 646l1 0 0 -522 1 0M286 652l0 -566M286 646l1 0 0 -522 1 0M288 652l0 -560"/>
<path stroke="red" d="M288 646l1 0 0 -522 1 0M290 652l0 -562M290 646l2 0 0 -522 1 0 1 1M294 652l0 -564M294 124l1 0M295 650l0 -548M295 646l1 0 0 -3 1 -3M297 650l0 -549M297 646l1 0 0 -522 2 0M300 652l0 -568M300 124l1 0M301 651l0 -557M301 646l2 0"/>
<path stroke="red" d="M303 646l0 -522 1 0M304 652l0 -561M304 646l2 0M306 651l0 -568M306 646l1 0 0 -522 2 0M309 647l0 -555M309 124l1 0M310 372l0 -273M310 372l1 238M311 649l0 -39M311 646l1 0M312 647l0 -554M312 646l2 0 0 -522 1 0M315 647l0 -553"/>
<path stroke="red" d="M315 646l2 0 0 -522 1 0M318 648l0 -552M318 181l1 -32 0 -25 1 0M320 647l0 -559M320 646l1 0 0 -522 2 0M323 648l0 -552M323 646l1 0 0 -522 1 0M325 650l0 -567M325 646l1 0 0 -522 1 0M327 650l0 -567M327 646l2 0 0 -522 1 0M330 128l0 -4"/>
<path stroke="red" d="M330 127l1 -11M331 648l0 -564M331 124l1 0M332 652l0 -566M332 646l1 0 0 -3 1 0M334 651l0 -555M334 646l1 0 0 -522 2 0M337 652l0 -560M337 124l1 0M338 649l0 -551M338 646l2 0 0 -522 1 0M341 650l0 -549M341 646l2 0M343 652l0 -566"/>
<path stroke="red" d="M343 646l1 0 0 -522 2 0M346 649l0 -567M346 646l1 0 0 -511 1 -6 0 -5 1 0M349 647l0 -556M349 124l1 0M350 126l0 -3M350 126l1 4M351 649l0 -566M351 646l1 0 0 -522 2 0M354 647l0 -562M354 646l1 0M355 647l0 -553M355 646l2 0 0 -522"/>
<path stroke="red" d="M357 124l1 0M358 652l0 -563M358 631l1 -100 0 -407 1 0M360 652l0 -570M360 646l1 0 0 -522 1 0M362 652l0 -564M362 646l1 0 0 -522 1 0M364 652l0 -566M364 646l2 0 0 -522 1 0M367 652l0 -568M367 646l1 0 0 -522 1 0M369 650l0 -551"/>
<path stroke="red" d="M369 646l1 0 0 -487 1 -20 0 -15 1 0M372 652l0 -568M372 646l2 0M374 647l0 -552M374 646l1 0 0 -522 2 0M377 647l0 -550M377 646l1 0 0 -522 2 0M380 648l0 -549M380 124l1 0M381 647l0 -558M381 646l2 0M383 649l0 -567M383 646l1 0"/>
<path stroke="red" d="M384 646l0 -522 2 0M386 648l0 -564M386 124l1 0M387 235l0 -153M387 235l1 320M388 652l0 -97M388 646l1 0 0 -522 2 0M391 651l0 -570M391 646l1 0M392 647l0 -558M392 646l2 0 0 -522 1 0M395 648l0 -563M395 124l2 0M397 649l0 -546"/>
<path stroke="red" d="M397 646l1 0 0 -522 1 0M399 652l0 -564M399 646l1 0 0 -522 1 0M401 652l0 -566M401 646l2 0 0 -522 1 0M404 652l0 -569M404 646l1 0 0 -522 1 0M406 650l0 -548M406 646l1 0 0 -511 1 -6M408 647l0 -550M408 646l1 0 0 -522 2 0M411 648l0 -549"/>
<path stroke="red" d="M411 124l1 0M412 647l0 -558M412 646l2 0 0 -522 1 0M415 647l0 -554M415 646l2 0M417 650l0 -548M417 646l1 0 0 -522 2 0M420 647l0 -560M420 646l1 0 0 -522 2 0M423 652l0 -569M423 124l1 0M424 649l0 -545M424 646l2 0 0 -522 1 0 0 -1"/>
<path stroke="red" d="M427 123l1 1M428 651l0 -558M428 646l1 0M429 651l0 -570M429 646l2 0 0 -522 1 0M432 647l0 -558M432 125l1 0 0 -1 1 0M434 647l0 -552M434 646l1 0 0 -553M435 135l1 316M436 647l0 -196M436 646l1 0 0 -522 1 0M438 647l0 -555M438 646l2 0"/>
<path stroke="red" d="M440 646l0 -522 1 0M441 647l0 -553M441 646l1 0 0 -522 1 0M443 648l0 -564M443 646l2 0M445 664l0 -449M445 646l1 0M446 656l0 -532 2 0M448 661l0 -552M448 124l1 0M449 646l0 -537M449 646l2 0M451 660l0 -536 1 0M452 646l0 -537M452 646l2 0"/>
<path stroke="red" d="M454 660l0 -551M454 646l1 0M455 662l0 -538 2 0M457 658l0 -547M457 124l1 0M458 646l0 -536M458 646l2 0M460 662l0 -551M460 646l1 0M461 658l0 -534 2 0M463 646l0 -536M463 646l1 0M464 660l0 -106 1 -214 0 -216 1 0M466 661l0 -551"/>
<path stroke="red" d="M466 124l2 0M468 646l0 -536M468 646l1 0M469 657l0 -533 2 0M471 646l0 -536M471 646l1 0M472 660l0 -551M472 644l1 0M473 646l0 -2M473 646l1 0M474 662l0 -538 1 0M475 646l0 -537M475 646l2 0M477 662l0 -538 1 0M478 646l0 -536M478 646l1 0"/>
<path stroke="red" d="M479 660l0 -536 1 0M480 646l0 -537M480 646l1 0M481 658l0 -534 1 0M482 646l0 -537M482 646l1 0M483 662l0 -538 1 0 0 -15 1 11M485 657l0 -537M485 124l1 0M486 646l0 -536M486 646l2 0M488 660l0 -536 1 0M489 646l0 -537M489 646l2 0"/>
<path stroke="red" d="M491 661l0 -552M491 646l1 0M492 658l0 -534 2 0M494 658l0 -550M494 124l1 0M495 646l0 -536M495 646l2 0M497 662l0 -551M497 646l1 0M498 657l0 -533 2 0M500 646l0 -536M500 646l1 0M501 659l0 -532 1 -2 0 -1 1 0M503 661l0 -551M503 124l1 0"/>
<path stroke="red" d="M504 125l0 -15 1 2M505 646l0 -534M505 646l1 0M506 659l0 -550M506 646l2 0M508 658l0 -534 1 0M509 660l0 -551M509 124l2 0M511 646l0 -537M511 646l1 0M512 659l0 -535 2 0M514 646l0 -537M514 646l1 0M515 659l0 -535 1 0M516 646l0 -536"/>
<path stroke="red" d="M516 646l1 0M517 660l0 -536 1 0M518 646l0 -538M518 646l2 0M520 659l0 -535 1 0M521 645l0 -535M521 645l1 0M522 662l0 -538 1 0M523 646l0 -536M523 646l1 0M524 647l0 -1M524 647l1 3M525 662l0 -538 1 0M526 646l0 -536M526 646l2 0"/>
<path stroke="red" d="M528 662l0 -553M528 646l1 0M529 662l0 -538 2 0M531 657l0 -549M531 124l1 0M532 646l0 -537M532 646l2 0M534 659l0 -550M534 646l1 0M535 658l0 -534 2 0M537 646l0 -537M537 646l1 0M538 658l0 -534 2 0M540 659l0 -550M540 124l1 0"/>
<path stroke="red" d="M541 643l0 -535M541 642l1 2M542 646l0 -2M542 646l1 0M543 670l0 -546 2 0M545 646l0 -534M545 646l1 0M546 667l0 -556M546 646l2 0M548 670l0 -546 1 0M549 646l0 -534M549 646l2 0M551 669l0 -545 1 0M552 646l0 -534M552 646l1 0M553 667l0 -543"/>
<path stroke="red" d="M553 124l1 0M554 646l0 -535M554 646l1 0M555 668l0 -544 1 0M556 646l0 -535M556 646l1 0M557 670l0 -546 1 0M558 645l0 -535M558 645l1 1M559 666l0 -542 1 0M560 646l0 -536M560 646l1 0M561 669l0 -538 1 -4 0 -3 1 0M563 646l0 -536"/>
<path stroke="red" d="M563 646l2 0M565 670l0 -559M565 646l1 0M566 664l0 -540 2 0M568 646l0 -535M568 646l1 0M569 670l0 -546 2 0M571 667l0 -555M571 124l1 0M572 646l0 -535M572 646l2 0M574 666l0 -542 1 0M575 646l0 -535M575 646l2 0M577 665l0 -553"/>
<path stroke="red" d="M577 646l1 0M578 668l0 -544 2 0M580 670l0 -560M580 124l1 0 0 -1M581 124l1 -2M582 646l0 -536M582 646l1 0M583 669l0 -558M583 646l2 0M585 670l0 -546 1 0M586 646l0 -536M586 646l2 0M588 670l0 -546 1 0M589 646l0 -536M589 644l1 5"/>
<path stroke="red" d="M590 668l0 -544 1 0M591 646l0 -535M591 646l1 0M592 669l0 -546 1 1M593 646l0 -535M593 646l1 0M594 665l0 -541 1 0M595 646l0 -536M595 646l1 0M596 666l0 -542 1 0M597 646l0 -535M597 646l1 0M598 669l0 -545 2 0M600 646l0 -536M600 646l1 0"/>
<path stroke="red" d="M601 646l1 -1M602 670l0 -559M602 646l1 0M603 664l0 -540 2 0M605 666l0 -554M605 124l1 0M606 646l0 -535M606 646l2 0M608 666l0 -554M608 646l1 0M609 668l0 -544 2 0M611 646l0 -534M611 646l1 0M612 667l0 -543 2 0M614 664l0 -552"/>
<path stroke="red" d="M614 124l1 0M615 646l0 -534M615 646l2 0M617 668l0 -544 1 0 0 -12 1 23M619 646l0 -511M619 646l1 0M620 670l0 -559M620 646l2 0M622 665l0 -541 1 0M623 646l0 -535M623 646l2 0M625 666l0 -542 1 0M626 671l0 -560M626 127l1 -2 0 -1"/>
<path stroke="red" d="M627 124l1 0M628 646l0 -536M628 646l1 0M629 668l0 -544 1 0M630 646l0 -535M630 646l1 0M631 667l0 -543 1 0M632 646l0 -536M632 646l1 0M633 667l0 -543 1 0M634 646l0 -535M634 646l1 0M635 667l0 -543 2 0M637 646l0 -535M637 646l1 0"/>
<path stroke="red" d="M638 667l0 -398 1 -84M639 646l0 -536M639 646l1 0M640 669l0 -545 1 0M641 651l0 -578M641 646l1 0M642 650l0 -526 1 0M643 651l0 -555M643 646l2 0M645 648l0 -564M645 646l1 0 0 -522 2 0M648 647l0 -560M648 646l1 0 0 -522 2 0M651 647l0 -558"/>
<path stroke="red" d="M651 124l1 0M652 649l0 -566M652 646l2 0M654 652l0 -565M654 646l1 0 0 -520 1 -1 0 -1 1 0M657 651l0 -567M657 124l1 0M658 125l0 -1M658 125l1 2M659 652l0 -560M659 646l1 0 0 -522 2 0M662 652l0 -563M662 646l1 0M663 651l0 -568"/>
<path stroke="red" d="M663 646l2 0 0 -522 1 0M666 651l0 -554M666 646l2 0 0 -522 1 0M669 647l0 -558M669 646l1 0 0 -522 1 0M671 650l0 -567M671 646l1 0 0 -522 2 0M674 648l0 -564M674 646l1 0 0 -498 1 -13M676 647l0 -555M676 646l1 0 0 -522 1 0M678 580l0 -487"/>
<path stroke="red" d="M678 580l1 72 0 -528 1 0M680 652l0 -566M680 646l2 0M682 652l0 -560M682 646l1 0 0 -522 2 0M685 652l0 -562M685 646l1 0 0 -522 2 0M688 652l0 -564M688 124l1 0M689 650l0 -548M689 646l2 0M691 650l0 -549M691 646l1 0 0 -522 2 0"/>
<path stroke="red" d="M694 652l0 -568M694 124l1 0M695 583l0 -489M695 583l1 68 0 -7M696 646l1 0 0 -522 2 0M699 652l0 -561M699 646l1 0M700 651l0 -568M700 646l2 0 0 -522 1 0M703 647l0 -555M703 125l1 0 0 -1 1 0M705 649l0 -550M705 646l1 0 0 -522 1 0"/>
<path stroke="red" d="M707 647l0 -554M707 646l1 0 0 -522 1 0M709 647l0 -553M709 646l2 0 0 -522 1 0M712 648l0 -552M712 646l1 0 0 -522 1 0M714 647l0 -559M714 646l1 0 0 -522 2 0M717 648l0 -552M717 646l2 0M719 650l0 -567M719 646l1 0 0 -522 2 0M722 650l0 -567"/>
<path stroke="red" d="M722 646l1 0 0 -522 2 0M725 648l0 -564M725 124l1 0M726 652l0 -566M726 646l2 0M728 651l0 -555M728 646l1 0 0 -522 2 0M731 652l0 -560M731 124l1 0M732 649l0 -551M732 646l2 0 0 -522 2 0M736 650l0 -549M736 646l1 0M737 652l0 -566"/>
<path stroke="red" d="M737 646l2 0 0 -522 1 0M740 649l0 -567M740 646l2 0 0 -522 1 0M743 647l0 -556M743 640l1 -10M744 636l0 -512 1 0M745 649l0 -566M745 646l1 0 0 -522 2 0M748 647l0 -562M748 646l1 0 0 -522 1 0M750 647l0 -553M750 646l1 0 0 -522"/>
<path stroke="red" d="M751 124l1 0M752 652l0 -563M752 646l1 0 0 -522 1 0M754 652l0 -570M754 646l2 0M756 652l0 -564M756 646l1 0 0 -522 2 0M759 652l0 -566M759 646l1 0 0 -522 2 0M762 652l0 -568M762 124l1 0M763 650l0 -551M763 646l2 0 0 -522 1 0M766 652l0 -568"/>
<path stroke="red" d="M766 646l2 0M768 647l0 -552M768 646l1 0 0 -522 2 0M771 647l0 -550M771 646l1 0 0 -16M772 636l1 -65 0 -447 1 0M774 648l0 -549M774 124l2 0M776 647l0 -558M776 646l1 0M777 649l0 -567M777 646l2 0 0 -522 1 0M780 648l0 -564M780 140l1 -9"/>
<path stroke="red" d="M781 131l0 -7 1 0M782 652l0 -570M782 646l1 0 0 -522 2 0M785 651l0 -570M785 646l1 0 0 -522 1 0M787 647l0 -558M787 646l1 0 0 -522 1 0M789 648l0 -563M789 646l1 0 0 -522 1 0M791 649l0 -546M791 646l1 0 0 -3 1 -5M793 652l0 -564"/>
<path stroke="red" d="M793 646l1 0 0 -522 2 0M796 652l0 -566M796 646l1 0 0 -522 2 0M799 652l0 -569M799 124l1 0M800 650l0 -548M800 646l2 0M802 647l0 -550M802 646l1 0 0 -522 2 0M805 648l0 -549M805 124l1 0M806 647l0 -558M806 646l2 0 0 -522 1 0M809 647l0 -554"/>
<path stroke="red" d="M809 647l1 -2M810 647l0 -2M810 646l1 0M811 650l0 -548M811 646l2 0 0 -522 1 0M814 647l0 -560M814 646l2 0 0 -522 1 0M817 652l0 -569M817 126l1 -1 0 -1 1 0M819 649l0 -545M819 646l1 0 0 -522 2 0M822 651l0 -558M822 646l1 0 0 -522"/>
<path stroke="red" d="M823 124l1 0M824 651l0 -570M824 646l1 0 0 -522 1 0M826 647l0 -558M826 646l1 0 0 -522 1 0M828 647l0 -552M828 646l1 0 0 -19 1 -111M830 647l0 -554M830 646l1 0 0 -522 1 0M832 130l0 -7M832 126l1 -34M833 647l0 -555M833 646l1 0"/>
<path stroke="red" d="M834 646l0 -522 2 0M836 647l0 -553M836 124l1 0M837 648l0 -564M837 646l2 0M839 664l0 -449M839 646l1 0M840 656l0 -532 2 0M842 661l0 -552M842 124l1 0M843 646l0 -537M843 646l2 0M845 660l0 -536 1 0M846 646l0 -537M846 646l2 0"/>
<path stroke="red" d="M848 660l0 -551M848 646l1 0M849 662l0 -516 1 -13 0 -9 1 0M851 658l0 -547M851 124l2 0M853 646l0 -536M853 646l1 0M854 662l0 -551M854 646l2 0M856 658l0 -534 1 0M857 646l0 -536M857 646l2 0M859 660l0 -536 1 0M860 646l0 -536M860 646l1 0"/>
<path stroke="red" d="M861 661l0 -537 1 0M862 646l0 -536M862 646l1 0M863 657l0 -533 2 0M865 646l0 -536M865 646l1 0M866 660l0 -536 1 0M867 646l0 -537M867 646l1 0M868 662l0 -538 1 0M869 640l0 -531M869 640l1 2M870 646l0 -4M870 646l1 0M871 662l0 -538"/>
<path stroke="red" d="M871 124l2 0M873 660l0 -550M873 124l1 0M874 646l0 -537M874 646l2 0M876 658l0 -549M876 646l1 0M877 662l0 -538 2 0M879 657l0 -548M879 124l1 0M880 646l0 -536M880 646l2 0M882 660l0 -536 1 0M883 646l0 -537M883 646l2 0M885 661l0 -552"/>
<path stroke="red" d="M885 646l1 0M886 658l0 -534 2 0M888 658l0 -550M888 124l1 0M889 125l0 -1 1 -7M890 646l0 -536M890 646l1 0M891 662l0 -551M891 646l2 0M893 657l0 -533 1 0M894 646l0 -536M894 646l2 0M896 659l0 -535 1 0M897 654l0 -544M897 654l1 2"/>
<path stroke="red" d="M898 661l0 -537 1 0M899 646l0 -536M899 646l1 0M900 659l0 -535 1 0M901 646l0 -537M901 646l1 0M902 658l0 -534 1 0M903 646l0 -537M903 646l1 0M904 660l0 -536 1 0M905 646l0 -537M905 646l1 0M906 659l0 -535 2 0M908 646l0 -537M908 646l2 0"/>
<path stroke="red" d="M910 659l0 -549M910 646l1 0M911 660l0 -536 1 0M912 125l0 -1M912 125l1 0M913 646l0 -538M913 646l1 0M914 659l0 -535 2 0M916 662l0 -552M916 124l1 0M917 646l0 -536M917 646l2 0M919 662l0 -538 1 0M920 646l0 -536M920 646l2 0M922 662l0 -553"/>
<path stroke="red" d="M922 646l1 0M923 662l0 -538 2 0M925 657l0 -549M925 124l1 0M926 641l0 -532M926 641l1 1M927 646l0 -4M927 646l1 0M928 659l0 -550M928 646l2 0M930 658l0 -534 1 0M931 646l0 -537M931 646l2 0M933 658l0 -534 1 0M934 659l0 -550M934 347l1 -130"/>
<path stroke="red" d="M935 217l0 -93 1 0M936 646l0 -538M936 646l1 0M937 670l0 -546 2 0M939 646l0 -534M939 646l1 0M940 667l0 -543 1 0M941 646l0 -535M941 646l1 0M942 670l0 -546 1 0M943 646l0 -534M943 646l2 0M945 669l0 -545 1 0M946 145l0 -33M946 145l1 87"/>
<path stroke="red" d="M947 667l0 -543 1 0M948 646l0 -535M948 646l1 0 0 -1M949 646l1 9M950 668l0 -557M950 646l1 0M951 670l0 -546 2 0M953 666l0 -556M953 124l1 0M954 646l0 -536M954 646l2 0M956 669l0 -545 1 0M957 646l0 -536M957 646l2 0M959 670l0 -559"/>
<path stroke="red" d="M959 646l1 0M960 664l0 -540 2 0M962 646l0 -535M962 646l1 0M963 670l0 -545 1 0 0 -1 1 0M965 667l0 -555M965 124l1 0 0 -2 1 -6M967 646l0 -535M967 646l1 0M968 666l0 -542 2 0M970 646l0 -535M970 646l1 0M971 665l0 -553M971 645l1 1"/>
<path stroke="red" d="M972 646l0 -1M972 646l1 0M973 668l0 -544 1 0"/>
</svg>
