<?xml version="1.0" standalone="yes"?>
<!DOCTYPE svg PUBLIC "-//W3C//DTD SVG 1.1//EN"
 "http://www.w3.org/Graphics/SVG/1.1/DTD/svg11.dtd">
<svg xmlns="http://www.w3.org/2000/svg" version="1.1"
  width="100%" height="100%" viewBox="0 0 1024 768"
  style="fill: none; stroke-width: 3; font-family: Helvetica;
 font: Helvetica;
">

<!-- Creator: NGspice -->

<rect x="0" y="0" width="1024" height="768" fill="white" stroke="none"/>
<text stroke="none" fill="black" font-size="16" x="358" y="752">
time
</text>
<text stroke="none" fill="black" font-size="16" x="10" y="16">
tran1: Cumulative Energy Consumption
</text>
<path stroke="black" stroke-width="3" d="M70 704l0 -640"/>
<text stroke="none" fill="black" font-size="16" x="55" y="728">
0.0
</text>
<path stroke="black" stroke-width="3" stroke-dasharray="1,2" d="M217 704l0 -640"/>
<text stroke="none" fill="black" font-size="16" x="202" y="728">
0.5
</text>
<path stroke="black" stroke-width="3" stroke-dasharray="1,2" d="M364 704l0 -640"/>
<text stroke="none" fill="black" font-size="16" x="349" y="728">
1.0
</text>
<path stroke="black" stroke-width="3" stroke-dasharray="1,2" d="M511 704l0 -640"/>
<text stroke="none" fill="black" font-size="16" x="496" y="728">
1.5
</text>
<path stroke="black" stroke-width="3" stroke-dasharray="1,2" d="M658 704l0 -640"/>
<text stroke="none" fill="black" font-size="16" x="643" y="728">
2.0
</text>
<path stroke="black" stroke-width="3" stroke-dasharray="1,2" d="M805 704l0 -640"/>
<text stroke="none" fill="black" font-size="16" x="790" y="728">
2.5
</text>
<path stroke="black" stroke-width="3" stroke-dasharray="1,2" d="M952 704l0 -640"/>
<text stroke="none" fill="black" font-size="16" x="937" y="728">
3.0
</text>
<text stroke="none" fill="black" font-size="16" x="614" y="752">
us
</text>
<path stroke="black" stroke-width="3" d="M70 704l882 0"/>
<text stroke="none" fill="black" font-size="16" x="28" y="712">
-0.0
</text>
<path stroke="black" stroke-width="3" stroke-dasharray="1,2" d="M70 624l882 0"/>
<text stroke="none" fill="black" font-size="16" x="28" y="632">
20.0
</text>
<path stroke="black" stroke-width="3" stroke-dasharray="1,2" d="M70 544l882 0"/>
<text stroke="none" fill="black" font-size="16" x="28" y="552">
40.0
</text>
<path stroke="black" stroke-width="3" stroke-dasharray="1,2" d="M70 464l882 0"/>
<text stroke="none" fill="black" font-size="16" x="28" y="472">
60.0
</text>
<path stroke="black" stroke-width="3" stroke-dasharray="1,2" d="M70 384l882 0"/>
<text stroke="none" fill="black" font-size="16" x="28" y="392">
80.0
</text>
<path stroke="black" stroke-width="3" stroke-dasharray="1,2" d="M70 304l882 0"/>
<text stroke="none" fill="black" font-size="16" x="18" y="312">
100.0
</text>
<path stroke="black" stroke-width="3" stroke-dasharray="1,2" d="M70 224l882 0"/>
<text stroke="none" fill="black" font-size="16" x="18" y="232">
120.0
</text>
<path stroke="black" stroke-width="3" stroke-dasharray="1,2" d="M70 144l882 0"/>
<text stroke="none" fill="black" font-size="16" x="18" y="152">
140.0
</text>
<path stroke="black" stroke-width="3" stroke-dasharray="1,2" d="M70 64l882 0"/>
<text stroke="none" fill="black" font-size="16" x="18" y="72">
160.0
</text>
<text stroke="none" fill="black" font-size="16" x="10" y="32">
p     
</text>
<path stroke="red" d="M441 23l44 0"/>
<text stroke="none" fill="black" font-size="16" x="495" y="32">
total_energy
</text>
<path stroke="red" d="M70 704l0 -1 3 0 0 -2 2 0 0 -1 1 0 0 -1 3 0 0 -2 1 0 0 -1 2 0 0 -1 1 0 0 -1 2 0 0 -1 1 0 0 -1 2 0 0 -1 1 0 0 -1 2 0 0 -1 1 0 0 -1 2 0 0 -1 1 0 0 -1 2 0 0 -1 1 0 0 -1 2 0 0 -1 1 0 0 -1 2 0 0 -1 1 0 0 -1 1 0 0 -1 2 0 0 -1"/>
<path stroke="red" d="M107 678l1 0 0 -1 1 0 0 -1 1 0 0 -1 3 0 0 -1 1 0 0 -1 1 0 0 -1 1 0 0 -1 3 0 0 -1 1 0 0 -2 2 0 0 -1 1 0 0 -1M123 667l1 0 0 -1 2 0 0 -2 1 0 0 -1 2 0 0 -1 1 0 0 -1 2 0 0 -1 1 0 0 -1 2 0 0 -1 1 0 0 -1 2 0 0 -1 1 0 0 -1 2 0 0 -1"/>
<path stroke="red" d="M141 654l1 0 0 -1 2 0 0 -1 1 0 0 -1 2 0 0 -1 1 0 0 -1 2 0 0 -1 1 0 0 -1 1 0 0 -1 2 0 0 -1 1 0 0 -1 1 0 0 -1 1 0 0 -1 3 0 0 -1 1 0 0 -1 1 0 0 -1 2 0 0 -1 2 0 0 -1 1 0 0 -1 1 0 0 -1 2 0 0 -1 2 0 0 -1 1 0 0 -2 3 0 0 -2 3 0"/>
<path stroke="red" d="M179 629l0 -2 1 0 0 -1 2 0 0 -1 3 0 0 -2 1 0 0 -1 3 0 0 -1 2 0 0 -2 1 0 0 -1 3 0 0 -1 2 0 0 -2 1 0 0 -1 2 0 0 -1 1 0 0 -1 2 0 0 -1 1 0 0 -1 1 0 0 -1 2 0 0 -1 1 0 0 -1 2 0 0 -1 1 0 0 -1 2 0 0 -1 1 0 0 -1 2 0 0 -1 1 0 0 -1"/>
<path stroke="red" d="M217 601l2 0 0 -1 1 0 0 -1 1 0 0 -1 2 0 0 -1 1 0 0 -1 2 0 0 -2 1 0 0 -1 3 0 0 -1 2 0 0 -2 1 0 0 -1 3 0 0 -1 2 0 0 -2 1 0 0 -1 3 0 0 -1 2 0 0 -2 1 0 0 -1 2 0 0 -1 1 0 0 -1 2 0 0 -1 1 0 0 -1 1 0 0 -1 2 0 0 -1 2 0 0 -1 1 0"/>
<path stroke="red" d="M257 574l0 -1 2 0 0 -1 1 0 0 -1 1 0 0 -1 2 0 0 -1 1 0 0 -1 3 0 0 -2 2 0 0 -1 1 0 0 -1 2 0 0 -1 1 0 0 -2 3 0 0 -1 1 0 0 -1 2 0 0 -2 3 0 0 -1 1 0 0 -1 2 0 0 -1 1 0 0 -1 2 0 0 -1 1 0 0 -1 2 0 0 -1 1 0 0 -1 2 0 0 -1 1 0 0 -1"/>
<path stroke="red" d="M295 547l1 0 0 -1 1 0 0 -1 1 0 0 -1 3 0 0 -1 1 0 0 -1 1 0 0 -1 1 0 0 -1 2 0 0 -1 2 0 0 -1 1 0 0 -1 1 0 0 -1 1 0 0 -1 3 0 0 -2 2 0 0 -1 1 0 0 -1 2 0 0 -1 1 0 0 -2 3 0 0 -1 1 0 0 -1 2 0 0 -1 1 0 0 -1 2 0 0 -1 1 0 0 -1 2 0"/>
<path stroke="red" d="M332 522l0 -1 1 0 0 -1 2 0 0 -1 1 0 0 -1 2 0 0 -1 1 0 0 -1 2 0 0 -1 1 0 0 -1 2 0 0 -2 1 0 0 -1 3 0 0 -1 1 0 0 -1 1 0 0 -1 1 0 0 -1 3 0 0 -1 1 0 0 -1 1 0 0 -1 1 0 0 -1 3 0 0 -1 1 0 0 -1 1 0 0 -1 2 0 0 -2 2 0 0 -1 1 0 0 -1"/>
<path stroke="red" d="M367 496l2 0 0 -1 1 0 0 -1 2 0 0 -1 1 0 0 -1 1 0 0 -1 2 0 0 -1 3 0 0 -2 1 0 0 -1 2 0 0 -1 3 0 0 -2 1 0 0 -1 2 0 0 -1 1 0 0 -1 2 0 0 -1 1 0 0 -1 1 0 0 -1 2 0 0 -1 2 0 0 -1 1 0 0 -1 1 0 0 -1 1 0M400 475l0 -1 1 0 0 -1 1 0 0 -1"/>
<path stroke="red" d="M402 472l1 0 0 -1 2 0 0 -1 2 0 0 -1 1 0 0 -1 1 0 0 -1 2 0 0 -2 3 0 0 -2 2 0 0 -1 1 0 0 -1 3 0 0 -2 1 0 0 -1 2 0 0 -1 3 0 0 -2 1 0 0 -1 3 0 0 -1 2 0 0 -2 1 0 0 -1 2 0 0 -1 1 0 0 -1 2 0 0 -1 1 0 0 -1 2 0 0 -1 1 0 0 -1 2 0"/>
<path stroke="red" d="M444 444l0 -1 1 0 0 -1 2 0 0 -1 1 0 0 -1 2 0 0 -1 1 0 0 -1 1 0 0 -1 2 0 0 -1 1 0 0 -1 2 0 0 -1 1 0 0 -1 2 0 0 -1 1 0 0 -2 3 0 0 -1 2 0 0 -1 1 0 0 -2 3 0 0 -1 1 0 0 -1 2 0 0 -2 3 0 0 -1 1 0 0 -1 2 0 0 -1 1 0 0 -1 2 0 0 -2"/>
<path stroke="red" d="M482 416l3 0 0 -2 1 0 0 -1 2 0 0 -1 2 0 0 -1 1 0 0 -1 1 0 0 -1 2 0 0 -1 1 0 0 -1 2 0 0 -1 1 0 0 -1 1 0 0 -1 2 0 0 -1 2 0 0 -1 1 0 0 -1 1 0 0 -1 2 0 0 -1 1 0 0 -1 1 0 0 -1 2 0 0 -1 2 0 0 -1 1 0 0 -2 3 0 0 -1 2 0 0 -1 1 0"/>
<path stroke="red" d="M520 391l0 -1 1 0 0 -1 2 0 0 -1 1 0 0 -1 2 0 0 -1 1 0 0 -1 2 0 0 -1 1 0 0 -1 2 0 0 -2 1 0 0 -1 3 0 0 -1 2 0 0 -2 1 0 0 -1 3 0 0 -1 1 0 0 -1 1 0 0 -1 1 0 0 -1 3 0 0 -1 1 0 0 -1 1 0 0 -1 1 0 0 -1 2 0 0 -1 1 0 0 -1 1 0 0 -1"/>
<path stroke="red" d="M555 365l2 0 0 -1 1 0 0 -1 2 0 0 -1 1 0 0 -1 2 0 0 -1 1 0 0 -1 3 0 0 -2 1 0 0 -1 2 0 0 -1 3 0 0 -2 1 0 0 -1 2 0 0 -1 1 0 0 -1 2 0 0 -2 3 0 0 -1 1 0 0 -1 2 0 0 -1 1 0 0 -1 2 0 0 -1 1 0 0 -1 2 0 0 -2 2 0 0 -1 2 0 0 -1 1 0"/>
<path stroke="red" d="M596 338l0 -1 1 0 0 -1 2 0 0 -1 1 0 0 -1 1 0 0 -1 2 0 0 -1 1 0 0 -1 1 0 0 -1 3 0 0 -2 2 0 0 -1 1 0 0 -1 3 0 0 -2 2 0 0 -1 1 0 0 -1M617 323l1 0 0 -1 2 0 0 -2 1 0 0 -1 2 0 0 -1 1 0 0 -1 2 0 0 -1 1 0 0 -1 2 0 0 -1 1 0 0 -1"/>
<path stroke="red" d="M630 313l2 0 0 -1 1 0 0 -1 2 0 0 -1 1 0 0 -1 2 0 0 -1 1 0 0 -1 1 0 0 -1 2 0 0 -1 2 0 0 -1 1 0 0 -1 1 0 0 -1 2 0 0 -1 1 0 0 -1 1 0 0 -1 1 0 0 -1 3 0 0 -1 1 0 0 -1 1 0 0 -1 1 0 0 -1 3 0 0 -1 1 0 0 -2 3 0 0 -1 1 0 0 -1 2 0"/>
<path stroke="red" d="M667 289l0 -2 3 0 0 -2 1 0 0 -1 2 0 0 -1 1 0 0 -1 2 0 0 -1 3 0 0 -2 1 0 0 -1 2 0 0 -1 1 0 0 -1 2 0 0 -1 1 0 0 -1 2 0 0 -1 1 0 0 -1 2 0 0 -1 1 0 0 -1 1 0 0 -1 2 0 0 -1 1 0 0 -1 1 0 0 -1 1 0 0 -1 3 0 0 -1 1 0 0 -1 1 0 0 -1"/>
<path stroke="red" d="M703 262l1 0 0 -1 3 0 0 -1 1 0 0 -2 3 0 0 -1 2 0 0 -1 1 0 0 -2 3 0 0 -2 3 0 0 -2 1 0 0 -1 2 0 0 -1 3 0 0 -2 1 0 0 -1 3 0 0 -1 2 0 0 -2 1 0 0 -1 3 0 0 -1 1 0 0 -1 1 0 0 -1 1 0 0 -1 2 0 0 -1 1 0 0 -1 1 0 0 -1 2 0 0 -1 1 0"/>
<path stroke="red" d="M746 233l0 -1 2 0 0 -1 1 0 0 -1 2 0 0 -1 1 0 0 -1 2 0 0 -1 1 0 0 -1 2 0 0 -1 1 0 0 -1 2 0 0 -1 1 0 0 -1 1 0 0 -1 2 0 0 -1 1 0 0 -1 2 0 0 -2 3 0 0 -1 1 0 0 -1 2 0 0 -2 3 0 0 -1 1 0 0 -1 2 0 0 -2 1 0 0 -1 3 0 0 -1 2 0 0 -2"/>
<path stroke="red" d="M785 205l1 0 0 -1 2 0 0 -1 1 0 0 -1 2 0 0 -1 1 0 0 -1 1 0 0 -1 2 0 0 -1 2 0 0 -1 1 0 0 -1 1 0 0 -1 2 0 0 -1 1 0 0 -1 2 0 0 -1 1 0 0 -1 2 0 0 -1 1 0 0 -1 2 0 0 -1 1 0 0 -1 1 0 0 -1 2 0 0 -2 3 0 0 -1 1 0 0 -1 2 0 0 -2 3 0"/>
<path stroke="red" d="M823 180l0 -1 1 0 0 -1 2 0 0 -1 1 0 0 -1 2 0 0 -1 1 0 0 -1 2 0 0 -1 1 0 0 -1 2 0 0 -1 1 0 0 -1 1 0 0 -1 1 0 0 -1 1 0 0 -1 3 0 0 -1 1 0 0 -1 1 0 0 -1 1 0 0 -1 3 0 0 -1 1 0 0 -1 1 0 0 -1 1 0 0 -1 3 0 0 -1 1 0 0 -2 2 0 0 -1"/>
<path stroke="red" d="M857 155l1 0 0 -1 2 0 0 -1 1 0 0 -1 1 0 0 -1 2 0 0 -1 2 0 0 -1 1 0 0 -1 1 0 0 -1 2 0 0 -1 1 0 0 -1 2 0 0 -1 1 0 0 -1 2 0 0 -1 1 0 0 -1 2 0 0 -1 1 0 0 -1 2 0 0 -1 1 0 0 -1 1 0 0 -1 1 0 0 -1 1 0 0 -1 3 0 0 -1 1 0 0 -1 1 0"/>
<path stroke="red" d="M891 132l0 -1 1 0 0 -1 3 0 0 -1 1 0 0 -1 1 0 0 -1 1 0 0 -1 3 0 0 -1 1 0 0 -2 3 0 0 -2 2 0 0 -1 1 0 0 -1 2 0 0 -1 1 0 0 -1 3 0 0 -2 1 0 0 -1 3 0 0 -1 2 0 0 -2 1 0 0 -1 2 0 0 -1M923 110l1 0 0 -1 2 0 0 -2 1 0 0 -1 2 0 0 -1"/>
<path stroke="red" d="M929 105l1 0 0 -1 2 0 0 -1 1 0 0 -1 1 0 0 -1 2 0 0 -1 1 0 0 -1 2 0 0 -1 1 0 0 -1 2 0 0 -1 1 0 0 -1 2 0 0 -1 1 0 0 -1 2 0 0 -1 1 0 0 -1 2 0 0 -1 1 0"/>
</svg>
