<?xml version="1.0" standalone="yes"?>
<!DOCTYPE svg PUBLIC "-//W3C//DTD SVG 1.1//EN"
 "http://www.w3.org/Graphics/SVG/1.1/DTD/svg11.dtd">
<svg xmlns="http://www.w3.org/2000/svg" version="1.1"
  width="100%" height="100%" viewBox="0 0 1024 768"
  style="fill: none; stroke-width: 3; font-family: Helvetica;
 font: Helvetica;
">

<!-- Creator: NGspice -->

<rect x="0" y="0" width="1024" height="768" fill="white" stroke="none"/>
<text stroke="none" fill="black" font-size="16" x="358" y="752">
time
</text>
<text stroke="none" fill="black" font-size="16" x="10" y="16">
tran1: Transient: Static Leakage Zoom
</text>
<path stroke="black" stroke-width="3" d="M70 704l0 -640"/>
<text stroke="none" fill="black" font-size="16" x="55" y="728">
0.0
</text>
<path stroke="black" stroke-width="3" stroke-dasharray="1,2" d="M158 704l0 -640"/>
<text stroke="none" fill="black" font-size="16" x="138" y="728">
10.0
</text>
<path stroke="black" stroke-width="3" stroke-dasharray="1,2" d="M246 704l0 -640"/>
<text stroke="none" fill="black" font-size="16" x="226" y="728">
20.0
</text>
<path stroke="black" stroke-width="3" stroke-dasharray="1,2" d="M334 704l0 -640"/>
<text stroke="none" fill="black" font-size="16" x="314" y="728">
30.0
</text>
<path stroke="black" stroke-width="3" stroke-dasharray="1,2" d="M422 704l0 -640"/>
<text stroke="none" fill="black" font-size="16" x="402" y="728">
40.0
</text>
<path stroke="black" stroke-width="3" stroke-dasharray="1,2" d="M510 704l0 -640"/>
<text stroke="none" fill="black" font-size="16" x="490" y="728">
50.0
</text>
<path stroke="black" stroke-width="3" stroke-dasharray="1,2" d="M598 704l0 -640"/>
<text stroke="none" fill="black" font-size="16" x="578" y="728">
60.0
</text>
<path stroke="black" stroke-width="3" stroke-dasharray="1,2" d="M686 704l0 -640"/>
<text stroke="none" fill="black" font-size="16" x="666" y="728">
70.0
</text>
<path stroke="black" stroke-width="3" stroke-dasharray="1,2" d="M774 704l0 -640"/>
<text stroke="none" fill="black" font-size="16" x="754" y="728">
80.0
</text>
<path stroke="black" stroke-width="3" stroke-dasharray="1,2" d="M862 704l0 -640"/>
<text stroke="none" fill="black" font-size="16" x="842" y="728">
90.0
</text>
<path stroke="black" stroke-width="3" stroke-dasharray="1,2" d="M950 704l0 -640"/>
<text stroke="none" fill="black" font-size="16" x="925" y="728">
100.0
</text>
<text stroke="none" fill="black" font-size="16" x="614" y="752">
ns
</text>
<path stroke="black" stroke-width="3" d="M70 704l880 0"/>
<text stroke="none" fill="black" font-size="16" x="38" y="712">
0.0
</text>
<path stroke="black" stroke-width="3" stroke-dasharray="1,2" d="M70 640l880 0"/>
<text stroke="none" fill="black" font-size="16" x="28" y="648">
10.0
</text>
<path stroke="black" stroke-width="3" stroke-dasharray="1,2" d="M70 576l880 0"/>
<text stroke="none" fill="black" font-size="16" x="28" y="584">
20.0
</text>
<path stroke="black" stroke-width="3" stroke-dasharray="1,2" d="M70 512l880 0"/>
<text stroke="none" fill="black" font-size="16" x="28" y="520">
30.0
</text>
<path stroke="black" stroke-width="3" stroke-dasharray="1,2" d="M70 448l880 0"/>
<text stroke="none" fill="black" font-size="16" x="28" y="456">
40.0
</text>
<path stroke="black" stroke-width="3" stroke-dasharray="1,2" d="M70 384l880 0"/>
<text stroke="none" fill="black" font-size="16" x="28" y="392">
50.0
</text>
<path stroke="black" stroke-width="3" stroke-dasharray="1,2" d="M70 320l880 0"/>
<text stroke="none" fill="black" font-size="16" x="28" y="328">
60.0
</text>
<path stroke="black" stroke-width="3" stroke-dasharray="1,2" d="M70 256l880 0"/>
<text stroke="none" fill="black" font-size="16" x="28" y="264">
70.0
</text>
<path stroke="black" stroke-width="3" stroke-dasharray="1,2" d="M70 192l880 0"/>
<text stroke="none" fill="black" font-size="16" x="28" y="200">
80.0
</text>
<path stroke="black" stroke-width="3" stroke-dasharray="1,2" d="M70 128l880 0"/>
<text stroke="none" fill="black" font-size="16" x="28" y="136">
90.0
</text>
<path stroke="black" stroke-width="3" stroke-dasharray="1,2" d="M70 64l880 0"/>
<text stroke="none" fill="black" font-size="16" x="18" y="72">
100.0
</text>
<text stroke="none" fill="black" font-size="16" x="10" y="32">
nA
</text>
<path stroke="red" d="M440 23l44 0"/>
<text stroke="none" fill="black" font-size="16" x="494" y="32">
-i(v_supply)
</text>
<path stroke="red" d="M70 704l9 0M80 704l0 -640M81 704l0 -640M82 704l0 -640M83 704l0 -640M84 704l0 -640M85 704l0 -640M86 704l0 -640M87 704l0 -640M88 704l0 -640M89 704l0 -640M90 704l0 -640M91 704l0 -640M92 704l0 -640M93 704l0 -640M94 704l0 -640"/>
<path stroke="red" d="M95 704l0 -640M96 704l0 -640M97 704l0 -640M98 704l0 -640M99 704l0 -640M100 704l0 -640M101 704l0 -640M102 704l0 -640M103 704l0 -640M104 704l0 -640M105 704l0 -640M106 704l0 -640M107 704l0 -640M108 704l0 -640M109 704l0 -640"/>
<path stroke="red" d="M110 704l0 -640M111 704l0 -640M112 704l0 -640M113 704l0 -640M114 704l0 -640M115 704l0 -640M116 704l0 -640M117 704l0 -640M118 704l0 -640M119 704l0 -640M120 704l0 -640M121 704l0 -640M122 704l0 -640M123 704l0 -640M124 704l0 -640"/>
<path stroke="red" d="M125 704l0 -640M126 704l0 -640M127 704l0 -640M128 704l0 -640M129 704l0 -640M130 704l0 -640M131 704l0 -640M132 704l0 -640M133 704l0 -640M134 704l0 -640M135 704l0 -640M136 704l0 -640M137 704l0 -640M138 704l0 -640M139 704l0 -640"/>
<path stroke="red" d="M140 704l0 -640M141 704l0 -640M142 704l0 -640M143 704l0 -640M144 704l0 -640M145 704l0 -640M146 704l0 -640M147 704l0 -640M148 704l0 -640M149 704l0 -640M150 704l0 -640M151 704l0 -640M152 704l0 -640M153 704l0 -640M154 704l0 -640"/>
<path stroke="red" d="M155 704l0 -640M156 704l0 -640M157 704l0 -640M158 704l0 -640M159 704l0 -640M160 704l0 -640M161 704l0 -640M162 704l0 -640M163 704l0 -640M164 704l0 -640M165 704l0 -640M166 704l0 -640M167 704l0 -640M168 704l0 -640M169 704l0 -640"/>
<path stroke="red" d="M170 704l0 -640M171 704l0 -640M172 704l0 -640M173 704l0 -640M174 704l0 -640M175 704l0 -640M176 704l0 -640M177 704l0 -640M178 704l0 -640M179 704l0 -640M180 704l0 -640M181 704l0 -640M182 704l0 -640M183 704l0 -640M184 704l0 -640"/>
<path stroke="red" d="M185 704l0 -640M186 704l0 -640M187 704l0 -640M188 704l0 -640M189 704l0 -640M190 704l0 -640M191 704l0 -640M192 704l0 -640M193 704l0 -640M194 704l0 -640M195 704l0 -640M196 704l0 -640M197 704l0 -640M198 704l0 -640M199 704l0 -640"/>
<path stroke="red" d="M200 704l0 -640M201 704l0 -640M202 704l0 -640M203 704l0 -640M204 704l0 -640M205 704l0 -640M206 704l0 -640M207 704l0 -640M208 704l0 -640M209 704l0 -640M210 704l0 -640M211 704l0 -640M212 704l0 -640M213 704l0 -640M214 704l0 -640"/>
<path stroke="red" d="M215 704l0 -640M216 704l0 -640M217 704l0 -640M218 704l0 -640M219 704l0 -640M220 704l0 -640M221 704l0 -640M222 704l0 -640M223 704l0 -640M224 704l0 -640M225 704l0 -640M226 704l0 -640M227 704l0 -640M228 704l0 -640M229 704l0 -640"/>
<path stroke="red" d="M230 704l0 -640M231 704l0 -640M232 704l0 -640M233 704l0 -640M234 704l0 -640M235 704l0 -640M236 704l0 -640M237 704l0 -640M238 704l0 -640M239 704l0 -640M240 704l0 -640M241 704l0 -640M242 704l0 -640M243 704l0 -640M244 704l0 -640"/>
<path stroke="red" d="M245 704l0 -640M246 704l0 -640M247 704l0 -640M248 704l0 -640M249 704l0 -640M250 704l0 -640M251 704l0 -640M252 704l0 -640M253 704l0 -640M254 704l0 -640M255 704l0 -640M256 704l0 -640M257 704l0 -640M258 704l0 -640M259 704l0 -640"/>
<path stroke="red" d="M260 704l0 -640M261 704l0 -640M262 704l0 -640M263 704l0 -640M264 704l0 -640M265 704l0 -640M266 704l0 -640M267 704l0 -640M268 704l0 -640M269 704l0 -640M270 704l0 -640M271 704l0 -640M272 704l0 -640M273 704l0 -640M274 704l0 -640"/>
<path stroke="red" d="M275 704l0 -640M276 704l0 -640M277 704l0 -640M278 704l0 -640M279 704l0 -640M280 704l0 -640M281 704l0 -640M282 704l0 -640M283 704l0 -640M284 704l0 -640M285 704l0 -638M286 704l0 -429M286 704l1 -273M287 704l0 -273M287 704l1 -98"/>
<path stroke="red" d="M288 704l0 -98M288 704l1 -54M289 704l0 -179M290 704l0 -317M291 704l0 -425M291 704l1 -445M292 704l0 -545M293 704l0 -640M294 704l0 -640M295 704l0 -640M296 704l0 -640M297 704l0 -640M298 704l0 -640M299 704l0 -640M300 704l0 -640"/>
<path stroke="red" d="M301 704l0 -640M302 704l0 -640M303 704l0 -640M304 704l0 -640M305 704l0 -640M306 704l0 -640M307 704l0 -640M308 704l0 -640M309 704l0 -640M310 704l0 -640M311 704l0 -640M312 704l0 -640M313 704l0 -640M314 704l0 -640M315 704l0 -640"/>
<path stroke="red" d="M316 704l0 -640M317 704l0 -640M318 704l0 -640M319 704l0 -640M320 704l0 -640M321 704l0 -640M322 704l0 -640M323 704l0 -640M324 704l0 -640M325 704l0 -640M326 704l0 -640M327 704l0 -640M328 704l0 -640M329 704l0 -640M330 704l0 -640"/>
<path stroke="red" d="M331 704l0 -640M332 704l0 -640M333 704l0 -640M334 704l0 -640M335 704l0 -640M336 704l0 -640M337 704l0 -640M338 704l0 -640M339 704l0 -640M340 704l0 -640M341 704l0 -640M342 704l0 -640M343 704l0 -640M344 704l0 -640M345 704l0 -640"/>
<path stroke="red" d="M346 704l0 -640M347 704l0 -640M348 704l0 -640M349 704l0 -640M350 704l0 -640M351 704l0 -640M352 704l0 -640M352 704l1 -136M353 704l0 -535M354 704l0 -640M355 704l0 -640M356 704l0 -640M357 704l0 -640M358 704l0 -640M359 704l0 -640"/>
<path stroke="red" d="M360 704l0 -640M361 704l0 -640M362 704l0 -640M363 704l0 -640M364 704l0 -640M365 704l0 -640M366 704l0 -640M367 704l0 -640M368 704l0 -640M369 704l0 -640M370 704l0 -640M371 704l0 -640M372 704l0 -640M373 704l0 -640M374 704l0 -640"/>
<path stroke="red" d="M375 704l0 -640M376 704l0 -640M377 704l0 -640M378 704l0 -640M379 704l0 -640M380 704l0 -640M381 704l0 -640M382 704l0 -640M383 704l0 -640M384 704l0 -640M385 704l0 -640M386 704l0 -640M387 704l0 -640M388 704l0 -640M389 704l0 -640"/>
<path stroke="red" d="M390 704l0 -640M391 704l0 -640M392 704l0 -640M393 704l0 -640M394 704l0 -640M395 704l0 -640M396 704l0 -640M397 704l0 -640M398 704l0 -640M399 704l0 -640M400 704l0 -640M401 704l0 -640M402 704l0 -640M403 704l0 -640M404 704l0 -640"/>
<path stroke="red" d="M405 704l0 -640M406 704l0 -640M407 704l0 -640M408 704l0 -640M409 704l0 -640M410 704l0 -640M411 704l0 -640M412 704l0 -640M413 704l0 -640M414 704l0 -640M415 704l0 -640M416 704l0 -640M417 704l0 -640M418 704l0 -640M419 704l0 -640"/>
<path stroke="red" d="M420 704l0 -640M421 704l0 -640M422 704l0 -640M423 704l0 -640M424 704l0 -640M425 704l0 -640M426 704l0 -640M427 704l0 -640M428 704l0 -640M429 704l0 -640M430 704l0 -640M431 704l0 -640M432 704l0 -640M433 704l0 -640M434 704l0 -640"/>
<path stroke="red" d="M435 704l0 -640M436 704l0 -640M437 704l0 -640M438 704l0 -640M439 704l0 -640M440 704l0 -640M441 704l0 -640M442 704l0 -640M443 704l0 -640M444 704l0 -640M445 704l0 -640M446 704l0 -640M447 704l0 -640M448 704l0 -640M449 704l0 -640"/>
<path stroke="red" d="M450 704l0 -640M451 704l0 -640M452 704l0 -640M453 704l0 -640M454 704l0 -640M455 704l0 -640M456 704l0 -640M457 704l0 -640M458 704l0 -640M459 704l0 -640M460 704l0 -640M461 704l0 -640M462 704l0 -640M463 704l0 -640M464 704l0 -640"/>
<path stroke="red" d="M465 704l0 -640M466 704l0 -640M467 704l0 -640M468 704l0 -640M469 704l0 -640M470 704l0 -640M471 704l0 -640M472 704l0 -640M473 704l0 -640M474 704l0 -640M475 704l0 -640M476 704l0 -640M477 704l0 -640M478 704l0 -640M479 704l0 -640"/>
<path stroke="red" d="M480 704l0 -640M481 704l0 -640M482 704l0 -640M483 704l0 -640M484 704l0 -640M485 704l0 -640M486 704l0 -640M487 704l0 -640M488 704l0 -640M489 704l0 -640M490 704l0 -640M491 704l0 -640M492 704l0 -640M493 704l0 -640M494 704l0 -640"/>
<path stroke="red" d="M495 704l0 -640M496 704l0 -640M497 704l0 -640M498 704l0 -640M499 704l0 -640M500 704l0 -640M501 704l0 -640M502 704l0 -640M503 704l0 -640M504 704l0 -640M505 704l0 -640M506 704l0 -640M507 704l0 -640M508 704l0 -640M509 704l0 -640"/>
<path stroke="red" d="M510 704l0 -640M511 704l0 -640M512 704l0 -640M513 704l0 -640M514 704l0 -640M515 704l0 -640M516 704l0 -640M517 704l0 -640M518 704l0 -640M519 704l0 -640M520 704l0 -640M521 704l0 -640M522 704l0 -640M523 704l0 -640M524 704l0 -640"/>
<path stroke="red" d="M525 704l0 -640M526 704l0 -640M527 704l0 -640M528 704l0 -640M529 704l0 -640M530 704l0 -640M531 704l0 -640M532 704l0 -640M533 704l0 -640M534 704l0 -640M535 704l0 -640M536 704l0 -640M537 704l0 -640M538 704l0 -640M539 704l0 -640"/>
<path stroke="red" d="M540 704l0 -640M541 704l0 -640M542 704l0 -640M543 704l0 -640M544 704l0 -640M545 704l0 -640M546 704l0 -640M547 704l0 -640M548 704l0 -640M549 704l0 -640M550 704l0 -640M551 704l0 -640M552 704l0 -640M553 704l0 -640M554 704l0 -640"/>
<path stroke="red" d="M555 704l0 -640M556 704l0 -640M557 704l0 -640M558 704l0 -640M559 704l0 -640M560 704l0 -640M561 704l0 -640M562 704l0 -640M563 704l0 -640M564 704l0 -640M565 704l0 -640M566 704l0 -640M567 704l0 -640M568 704l0 -640M569 704l0 -640"/>
<path stroke="red" d="M570 704l0 -640M571 704l0 -640M572 704l0 -640M573 704l0 -640M574 704l0 -640M575 704l0 -640M576 704l0 -640M577 704l0 -640M578 704l0 -640M579 704l0 -640M580 704l0 -640M581 704l0 -640M582 704l0 -640M583 704l0 -640M584 704l0 -640"/>
<path stroke="red" d="M585 704l0 -640M586 704l0 -640M587 704l0 -640M588 704l0 -640M589 704l0 -640M590 704l0 -640M591 704l0 -640M592 704l0 -640M593 704l0 -640M594 704l0 -640M595 704l0 -640M596 704l0 -640M597 704l0 -640M598 704l0 -640M599 704l0 -640"/>
<path stroke="red" d="M600 704l0 -640M601 704l0 -640M602 704l0 -640M603 704l0 -640M604 704l0 -640M605 704l0 -640M606 704l0 -640M607 704l0 -640M608 704l0 -640M609 704l0 -640M610 704l0 -640M611 704l0 -640M612 704l0 -640M613 704l0 -640M614 704l0 -640"/>
<path stroke="red" d="M615 704l0 -640M616 704l0 -640M617 704l0 -640M618 704l0 -640M619 704l0 -640M620 704l0 -640M621 704l0 -640M622 704l0 -640M623 704l0 -640M624 704l0 -640M625 704l0 -640M626 704l0 -640M627 704l0 -640M628 704l0 -640M629 704l0 -640"/>
<path stroke="red" d="M630 704l0 -640M631 704l0 -640M632 704l0 -640M633 704l0 -640M634 704l0 -640M635 704l0 -640M636 704l0 -640M636 704l1 -638M637 704l0 -638M638 704l0 -429M638 704l1 -273M639 704l0 -273M639 704l1 -98M640 704l0 -98M640 704l1 -54"/>
<path stroke="red" d="M641 704l0 -179M642 704l0 -317M643 704l0 -425M643 704l1 -445M644 704l0 -545M645 704l0 -640M646 704l0 -640M647 704l0 -640M648 704l0 -640M649 704l0 -640M650 704l0 -640M651 704l0 -640M652 704l0 -640M653 704l0 -640M654 704l0 -640"/>
<path stroke="red" d="M655 704l0 -640M656 704l0 -640M657 704l0 -640M658 704l0 -640M659 704l0 -640M660 704l0 -640M661 704l0 -640M662 704l0 -640M663 704l0 -640M664 704l0 -640M665 704l0 -640M666 704l0 -640M667 704l0 -640M668 704l0 -640M669 704l0 -640"/>
<path stroke="red" d="M670 704l0 -640M671 704l0 -640M672 704l0 -640M673 704l0 -640M674 704l0 -640M675 704l0 -640M676 704l0 -640M677 704l0 -640M678 704l0 -640M679 704l0 -640M680 704l0 -640M681 704l0 -640M682 704l0 -640M683 704l0 -640M684 704l0 -640"/>
<path stroke="red" d="M685 704l0 -640M686 704l0 -640M687 704l0 -640M688 704l0 -640M689 704l0 -640M690 704l0 -640M691 704l0 -640M692 704l0 -640M693 704l0 -640M694 704l0 -640M695 704l0 -640M696 704l0 -640M697 704l0 -640M698 704l0 -640M699 704l0 -640"/>
<path stroke="red" d="M700 704l0 -640M701 704l0 -640M702 704l0 -640M703 704l0 -640M704 704l0 -640M704 704l1 -136M705 704l0 -535M706 704l0 -640M707 704l0 -640M708 704l0 -640M709 704l0 -640M710 704l0 -640M711 704l0 -640M712 704l0 -640M713 704l0 -640"/>
<path stroke="red" d="M714 704l0 -640M715 704l0 -640M716 704l0 -640M717 704l0 -640M718 704l0 -640M719 704l0 -640M720 704l0 -640M721 704l0 -640M722 704l0 -640M723 704l0 -640M724 704l0 -640M725 704l0 -640M726 704l0 -640M727 704l0 -640M728 704l0 -640"/>
<path stroke="red" d="M729 704l0 -640M730 704l0 -640M731 704l0 -640M732 704l0 -640M733 704l0 -640M734 704l0 -640M735 704l0 -640M736 704l0 -640M737 704l0 -640M738 704l0 -640M739 704l0 -640M740 704l0 -640M741 704l0 -640M742 704l0 -640M743 704l0 -640"/>
<path stroke="red" d="M744 704l0 -640M745 704l0 -640M746 704l0 -640M747 704l0 -640M748 704l0 -640M749 704l0 -640M750 704l0 -640M751 704l0 -640M752 704l0 -640M753 704l0 -640M754 704l0 -640M755 704l0 -640M756 704l0 -640M757 704l0 -640M758 704l0 -640"/>
<path stroke="red" d="M759 704l0 -640M760 704l0 -640M761 704l0 -640M762 704l0 -640M763 704l0 -640M764 704l0 -640M765 704l0 -640M766 704l0 -640M767 704l0 -640M768 704l0 -640M769 704l0 -640M770 704l0 -640M771 704l0 -640M772 704l0 -640M773 704l0 -640"/>
<path stroke="red" d="M774 704l0 -640M775 704l0 -640M776 704l0 -640M777 704l0 -640M778 704l0 -640M779 704l0 -640M780 704l0 -640M781 704l0 -640M782 704l0 -640M783 704l0 -640M784 704l0 -640M785 704l0 -640M786 704l0 -640M787 704l0 -640M788 704l0 -640"/>
<path stroke="red" d="M789 704l0 -640M790 704l0 -640M791 704l0 -640M792 704l0 -640M793 704l0 -640M794 704l0 -640M795 704l0 -640M796 704l0 -640M797 704l0 -640M798 704l0 -640M799 704l0 -640M800 704l0 -640M801 704l0 -640M802 704l0 -640M803 704l0 -640"/>
<path stroke="red" d="M804 704l0 -640M805 704l0 -640M806 704l0 -640M807 704l0 -640M808 704l0 -640M809 704l0 -640M810 704l0 -640M811 704l0 -640M812 704l0 -640M813 704l0 -640M814 704l0 -640M815 704l0 -640M816 704l0 -640M817 704l0 -640M818 704l0 -640"/>
<path stroke="red" d="M819 704l0 -640M820 704l0 -640M821 704l0 -640M822 704l0 -640M823 704l0 -640M824 704l0 -640M825 704l0 -640M826 704l0 -640M827 704l0 -640M828 704l0 -640M829 704l0 -640M830 704l0 -640M831 704l0 -640M832 704l0 -640M833 704l0 -640"/>
<path stroke="red" d="M834 704l0 -640M835 704l0 -640M836 704l0 -640M837 704l0 -640M838 704l0 -640M839 704l0 -640M840 704l0 -640M841 704l0 -640M842 704l0 -640M843 704l0 -640M844 704l0 -640M845 704l0 -640M846 704l0 -640M847 704l0 -640M848 704l0 -640"/>
<path stroke="red" d="M849 704l0 -640M850 704l0 -640M851 704l0 -640M852 704l0 -640M853 704l0 -640M854 704l0 -640M855 704l0 -640M856 704l0 -640M857 704l0 -640M858 704l0 -640M859 704l0 -640M860 704l0 -640M861 704l0 -640M862 704l0 -640M863 704l0 -640"/>
<path stroke="red" d="M864 704l0 -640M865 704l0 -640M866 704l0 -640M867 704l0 -640M868 704l0 -640M869 704l0 -640M870 704l0 -640M871 704l0 -640M872 704l0 -640M873 704l0 -640M874 704l0 -640M875 704l0 -640M876 704l0 -640M877 704l0 -640M878 704l0 -640"/>
<path stroke="red" d="M879 704l0 -640M880 704l0 -640M881 704l0 -640M882 704l0 -640M883 704l0 -640M884 704l0 -640M885 704l0 -640M886 704l0 -640M887 704l0 -640M888 704l0 -640M889 704l0 -640M890 704l0 -640M891 704l0 -640M892 704l0 -640M893 704l0 -640"/>
<path stroke="red" d="M894 704l0 -640M895 704l0 -640M896 704l0 -640M897 704l0 -640M898 704l0 -640M899 704l0 -640M900 704l0 -640M901 704l0 -640M902 704l0 -640M903 704l0 -640M904 704l0 -640M905 704l0 -640M906 704l0 -640M907 704l0 -640M908 704l0 -640"/>
<path stroke="red" d="M909 704l0 -640M910 704l0 -640M911 704l0 -640M912 704l0 -640M913 704l0 -640M914 704l0 -640M915 704l0 -640M916 704l0 -640M917 704l0 -640M918 704l0 -640M919 704l0 -640M920 704l0 -640M921 704l0 -640M922 704l0 -640M923 704l0 -640"/>
<path stroke="red" d="M924 704l0 -640M925 704l0 -640M926 704l0 -640M927 704l0 -640M928 704l0 -640M929 704l0 -640M930 704l0 -640M931 704l0 -640M932 704l0 -640M933 704l0 -640M934 704l0 -640M935 704l0 -640M936 704l0 -640M937 704l0 -640M938 704l0 -640"/>
<path stroke="red" d="M939 704l0 -640M940 704l0 -640M941 704l0 -640M942 704l0 -640M943 704l0 -640M944 704l0 -640M945 704l0 -640M946 704l0 -640M947 704l0 -640M948 704l0 -640M949 704l0 -640M950 704l0 -640"/>
</svg>
