<?xml version="1.0" standalone="yes"?>
<!DOCTYPE svg PUBLIC "-//W3C//DTD SVG 1.1//EN"
 "http://www.w3.org/Graphics/SVG/1.1/DTD/svg11.dtd">
<svg xmlns="http://www.w3.org/2000/svg" version="1.1"
  width="100%" height="100%" viewBox="0 0 1024 768"
  style="fill: none; stroke-width: 3; font-family: Helvetica;
 font: Helvetica;
">

<!-- Creator: NGspice -->

<rect x="0" y="0" width="1024" height="768" fill="white" stroke="none"/>
<text stroke="none" fill="black" font-size="16" x="358" y="752">
time
</text>
<text stroke="none" fill="black" font-size="16" x="10" y="16">
tran1: Transient: Cumulative Energy
</text>
<path stroke="black" stroke-width="3" d="M60 704l0 -638"/>
<text stroke="none" fill="black" font-size="16" x="45" y="728">
0.0
</text>
<path stroke="black" stroke-width="3" stroke-dasharray="1,2" d="M150 704l0 -638"/>
<text stroke="none" fill="black" font-size="16" x="130" y="728">
10.0
</text>
<path stroke="black" stroke-width="3" stroke-dasharray="1,2" d="M240 704l0 -638"/>
<text stroke="none" fill="black" font-size="16" x="220" y="728">
20.0
</text>
<path stroke="black" stroke-width="3" stroke-dasharray="1,2" d="M330 704l0 -638"/>
<text stroke="none" fill="black" font-size="16" x="310" y="728">
30.0
</text>
<path stroke="black" stroke-width="3" stroke-dasharray="1,2" d="M420 704l0 -638"/>
<text stroke="none" fill="black" font-size="16" x="400" y="728">
40.0
</text>
<path stroke="black" stroke-width="3" stroke-dasharray="1,2" d="M510 704l0 -638"/>
<text stroke="none" fill="black" font-size="16" x="490" y="728">
50.0
</text>
<path stroke="black" stroke-width="3" stroke-dasharray="1,2" d="M600 704l0 -638"/>
<text stroke="none" fill="black" font-size="16" x="580" y="728">
60.0
</text>
<path stroke="black" stroke-width="3" stroke-dasharray="1,2" d="M690 704l0 -638"/>
<text stroke="none" fill="black" font-size="16" x="670" y="728">
70.0
</text>
<path stroke="black" stroke-width="3" stroke-dasharray="1,2" d="M780 704l0 -638"/>
<text stroke="none" fill="black" font-size="16" x="760" y="728">
80.0
</text>
<path stroke="black" stroke-width="3" stroke-dasharray="1,2" d="M870 704l0 -638"/>
<text stroke="none" fill="black" font-size="16" x="850" y="728">
90.0
</text>
<path stroke="black" stroke-width="3" stroke-dasharray="1,2" d="M960 704l0 -638"/>
<text stroke="none" fill="black" font-size="16" x="935" y="728">
100.0
</text>
<text stroke="none" fill="black" font-size="16" x="614" y="752">
ns
</text>
<path stroke="black" stroke-width="3" stroke-dasharray="1,2" d="M60 704l900 0"/>
<text stroke="none" fill="black" font-size="16" x="8" y="712">
-30.0
</text>
<path stroke="black" stroke-width="3" stroke-dasharray="1,2" d="M60 646l900 0"/>
<text stroke="none" fill="black" font-size="16" x="8" y="654">
-20.0
</text>
<path stroke="black" stroke-width="3" stroke-dasharray="1,2" d="M60 588l900 0"/>
<text stroke="none" fill="black" font-size="16" x="8" y="596">
-10.0
</text>
<path stroke="black" stroke-width="3" d="M60 530l900 0"/>
<text stroke="none" fill="black" font-size="16" x="28" y="538">
0.0
</text>
<path stroke="black" stroke-width="3" stroke-dasharray="1,2" d="M60 472l900 0"/>
<text stroke="none" fill="black" font-size="16" x="18" y="480">
10.0
</text>
<path stroke="black" stroke-width="3" stroke-dasharray="1,2" d="M60 414l900 0"/>
<text stroke="none" fill="black" font-size="16" x="18" y="422">
20.0
</text>
<path stroke="black" stroke-width="3" stroke-dasharray="1,2" d="M60 356l900 0"/>
<text stroke="none" fill="black" font-size="16" x="18" y="364">
30.0
</text>
<path stroke="black" stroke-width="3" stroke-dasharray="1,2" d="M60 298l900 0"/>
<text stroke="none" fill="black" font-size="16" x="18" y="306">
40.0
</text>
<path stroke="black" stroke-width="3" stroke-dasharray="1,2" d="M60 240l900 0"/>
<text stroke="none" fill="black" font-size="16" x="18" y="248">
50.0
</text>
<path stroke="black" stroke-width="3" stroke-dasharray="1,2" d="M60 182l900 0"/>
<text stroke="none" fill="black" font-size="16" x="18" y="190">
60.0
</text>
<path stroke="black" stroke-width="3" stroke-dasharray="1,2" d="M60 124l900 0"/>
<text stroke="none" fill="black" font-size="16" x="18" y="132">
70.0
</text>
<path stroke="black" stroke-width="3" stroke-dasharray="1,2" d="M60 66l900 0"/>
<text stroke="none" fill="black" font-size="16" x="18" y="74">
80.0
</text>
<text stroke="none" fill="black" font-size="16" x="10" y="32">
f     
</text>
<path stroke="red" d="M450 23l45 0"/>
<text stroke="none" fill="black" font-size="16" x="505" y="32">
total_energy
</text>
<path stroke="red" d="M60 530l9 0M69 571l0 -41M69 571l1 4M70 639l0 -64M70 639l1 1 7 0M78 650l0 -10M78 650l1 -1 0 -77 81 0 0 -18M160 555l1 6M161 599l0 -38M161 599l80 0 0 -82 1 -19 0 -136 16 0M258 423l0 -61M258 423l1 9M259 478l0 -46M259 478l81 0"/>
<path stroke="red" d="M340 478l0 -63 1 -14 0 -80 88 0M429 361l0 -40M429 361l1 5M430 430l0 -64M430 430l8 0M438 440l0 -10M438 440l1 -1 0 -76 1 -1 80 0 0 -17M520 346l1 6M521 389l0 -37M521 389l80 0 0 -81 1 -20 0 -136 16 0M618 213l0 -61M618 213l1 10"/>
<path stroke="red" d="M619 269l0 -46M619 269l81 0 0 -64 1 -13 0 -81 88 0M789 152l0 -41M789 152l1 4M790 220l0 -64M790 220l1 1 7 0M798 231l0 -10M798 231l1 -1 0 -77 81 0 0 -18M880 137l1 5M881 180l0 -38M881 180l79 0"/>
</svg>
