<?xml version="1.0" standalone="yes"?>
<!DOCTYPE svg PUBLIC "-//W3C//DTD SVG 1.1//EN"
 "http://www.w3.org/Graphics/SVG/1.1/DTD/svg11.dtd">
<svg xmlns="http://www.w3.org/2000/svg" version="1.1"
  width="100%" height="100%" viewBox="0 0 1024 768"
  style="fill: none; stroke-width: 3; font-family: Helvetica;
 font: Helvetica;
">

<!-- Creator: NGspice -->

<rect x="0" y="0" width="1024" height="768" fill="white" stroke="none"/>
<text stroke="none" fill="black" font-size="16" x="358" y="752">
time
</text>
<text stroke="none" fill="black" font-size="16" x="10" y="16">
tran1: Transient: Total Supply Current
</text>
<path stroke="black" stroke-width="3" d="M70 704l0 -637"/>
<text stroke="none" fill="black" font-size="16" x="55" y="728">
0.0
</text>
<path stroke="black" stroke-width="3" stroke-dasharray="1,2" d="M158 704l0 -637"/>
<text stroke="none" fill="black" font-size="16" x="138" y="728">
10.0
</text>
<path stroke="black" stroke-width="3" stroke-dasharray="1,2" d="M246 704l0 -637"/>
<text stroke="none" fill="black" font-size="16" x="226" y="728">
20.0
</text>
<path stroke="black" stroke-width="3" stroke-dasharray="1,2" d="M334 704l0 -637"/>
<text stroke="none" fill="black" font-size="16" x="314" y="728">
30.0
</text>
<path stroke="black" stroke-width="3" stroke-dasharray="1,2" d="M422 704l0 -637"/>
<text stroke="none" fill="black" font-size="16" x="402" y="728">
40.0
</text>
<path stroke="black" stroke-width="3" stroke-dasharray="1,2" d="M510 704l0 -637"/>
<text stroke="none" fill="black" font-size="16" x="490" y="728">
50.0
</text>
<path stroke="black" stroke-width="3" stroke-dasharray="1,2" d="M598 704l0 -637"/>
<text stroke="none" fill="black" font-size="16" x="578" y="728">
60.0
</text>
<path stroke="black" stroke-width="3" stroke-dasharray="1,2" d="M686 704l0 -637"/>
<text stroke="none" fill="black" font-size="16" x="666" y="728">
70.0
</text>
<path stroke="black" stroke-width="3" stroke-dasharray="1,2" d="M774 704l0 -637"/>
<text stroke="none" fill="black" font-size="16" x="754" y="728">
80.0
</text>
<path stroke="black" stroke-width="3" stroke-dasharray="1,2" d="M862 704l0 -637"/>
<text stroke="none" fill="black" font-size="16" x="842" y="728">
90.0
</text>
<path stroke="black" stroke-width="3" stroke-dasharray="1,2" d="M950 704l0 -637"/>
<text stroke="none" fill="black" font-size="16" x="925" y="728">
100.0
</text>
<text stroke="none" fill="black" font-size="16" x="614" y="752">
ns
</text>
<path stroke="black" stroke-width="3" stroke-dasharray="1,2" d="M70 704l880 0"/>
<text stroke="none" fill="black" font-size="16" x="8" y="712">
-300.0
</text>
<path stroke="black" stroke-width="3" stroke-dasharray="1,2" d="M70 613l880 0"/>
<text stroke="none" fill="black" font-size="16" x="8" y="621">
-200.0
</text>
<path stroke="black" stroke-width="3" stroke-dasharray="1,2" d="M70 522l880 0"/>
<text stroke="none" fill="black" font-size="16" x="8" y="530">
-100.0
</text>
<path stroke="black" stroke-width="3" d="M70 431l880 0"/>
<text stroke="none" fill="black" font-size="16" x="38" y="439">
0.0
</text>
<path stroke="black" stroke-width="3" stroke-dasharray="1,2" d="M70 340l880 0"/>
<text stroke="none" fill="black" font-size="16" x="18" y="348">
100.0
</text>
<path stroke="black" stroke-width="3" stroke-dasharray="1,2" d="M70 249l880 0"/>
<text stroke="none" fill="black" font-size="16" x="18" y="257">
200.0
</text>
<path stroke="black" stroke-width="3" stroke-dasharray="1,2" d="M70 158l880 0"/>
<text stroke="none" fill="black" font-size="16" x="18" y="166">
300.0
</text>
<path stroke="black" stroke-width="3" stroke-dasharray="1,2" d="M70 67l880 0"/>
<text stroke="none" fill="black" font-size="16" x="18" y="75">
400.0
</text>
<text stroke="none" fill="black" font-size="16" x="10" y="32">
uA
</text>
<path stroke="red" d="M440 23l44 0"/>
<text stroke="none" fill="black" font-size="16" x="494" y="32">
-i(v_supply)
</text>
<path stroke="red" d="M70 431l9 0M79 503l0 -72M79 477l1 61M80 647l0 -254M80 443l1 -24M81 444l0 -26M81 443l1 -24M82 443l0 -24 1 24 0 -24M83 443l1 -24M84 442l0 -23M84 442l1 -22M85 442l0 -22 1 22 0 -22 1 22 0 -22M87 442l1 -22M88 455l0 -201 1 -9"/>
<path stroke="red" d="M89 437l0 -192M89 425l1 12 0 -12M90 436l1 -10M91 436l0 -10M91 427l1 8 0 -8M92 428l1 6 0 -6M93 433l1 -4M94 433l0 -4 1 4 0 -4M95 430l1 2 0 -2M96 432l1 -2M97 432l0 -2M97 431l2 0 1 1 0 -2 1 2 0 -2M101 432l1 -2M102 432l0 -2 1 2"/>
<path stroke="red" d="M103 432l0 -2 1 3 0 -4M104 433l1 -4M105 433l0 -4 1 4 0 -4 1 4 0 -4M107 433l1 -4M108 433l0 -4 1 4 0 -4 1 4 0 -4M110 433l1 -4M111 434l0 -6M111 434l1 -6M112 434l0 -6 1 6 0 -6M113 434l1 -6M114 434l0 -6M114 434l1 -6M115 434l0 -6"/>
<path stroke="red" d="M115 428l1 6 0 -6M116 434l1 -6M117 434l0 -6M117 434l1 -6M118 434l0 -6 1 6 0 -6 1 6 0 -6M120 434l1 -6M121 434l0 -6 1 6 0 -6 1 6 0 -6M123 434l1 -6M124 434l0 -6 1 6 0 -6 1 6 0 -6M126 434l1 -6M127 434l0 -6 1 6 0 -6 1 6 0 -6"/>
<path stroke="red" d="M129 434l1 -6M130 434l0 -6M130 434l1 -6M131 434l0 -6 1 6M132 435l0 -8M132 435l1 -8M133 435l0 -8M133 435l1 -8M134 435l0 -8 1 8 0 -8M135 435l1 -8M136 435l0 -8M136 435l1 -8M137 435l0 -8 1 8 0 -8M138 435l1 -8M139 435l0 -8M139 435l1 -8"/>
<path stroke="red" d="M140 435l0 -8 1 8 0 -8 1 8 0 -8M142 435l1 -8M143 435l0 -8 1 8 0 -8 1 8 0 -8M145 435l1 -8M146 435l0 -8 1 8 0 -8 1 8 0 -8M148 435l1 -8M149 435l0 -8 1 8 0 -8 1 8 0 -8M151 435l1 -8M152 435l0 -8M152 435l1 -8M153 435l0 -8 1 8"/>
<path stroke="red" d="M154 435l0 -8M154 435l1 -8M155 435l0 -8M155 435l1 -8M156 435l0 -8 1 8 0 -8M157 435l1 -8M158 435l0 -8M158 435l1 -8M159 435l0 -8 1 8 0 -8M160 435l1 -8M161 435l0 -8M161 435l1 -8M162 435l0 -8 1 8 0 -8 1 8 0 -8M164 435l1 -8M165 435l0 -8"/>
<path stroke="red" d="M165 427l1 8 0 -8 1 8 0 -8M167 435l1 -8M168 543l0 -158M168 543l1 -63M169 519l0 -122M169 441l1 -20M170 441l0 -20M170 422l1 18 0 -18M171 439l1 -16M172 439l0 -16M172 438l1 -14M173 438l0 -14M173 425l1 12 0 -12M174 426l1 10 0 -10"/>
<path stroke="red" d="M175 435l1 -8M176 435l0 -8 1 8 0 -8M177 428l1 6 0 -6M178 433l1 -4M179 433l0 -4 1 4 0 -4M180 430l1 2 0 -2M181 432l1 -2M182 432l0 -2M182 431l3 0M185 432l0 -2 1 2 0 -2M186 432l1 -2M187 432l0 -2 1 2 0 -2 1 2M189 433l0 -4M189 433l1 -4"/>
<path stroke="red" d="M190 433l0 -4 1 4 0 -4 1 4 0 -4M192 433l1 -4M193 433l0 -4 1 4 0 -4 1 4M195 434l0 -6M195 434l1 -6M196 434l0 -6M196 434l1 -6M197 434l0 -6 1 6 0 -6M198 434l1 -6M199 434l0 -6M199 434l1 -6M200 434l0 -6 1 6 0 -6M201 434l1 -6M202 434l0 -6"/>
<path stroke="red" d="M202 434l1 -6M203 434l0 -6 1 6 0 -6M204 434l1 -6M205 434l0 -6M205 434l1 -6M206 434l0 -6 1 6M207 435l0 -8M207 435l1 -8M208 435l0 -8M208 435l1 -8M209 435l0 -8 1 8 0 -8 1 8 0 -8M211 435l1 -8M212 435l0 -8 1 8 0 -8 1 8 0 -8M214 435l1 -8"/>
<path stroke="red" d="M215 435l0 -8 1 8 0 -8 1 8 0 -8M217 435l1 -8M218 435l0 -8 1 8 0 -8 1 8 0 -8M220 435l1 -8M221 435l0 -8M221 435l1 -8M222 435l0 -8 1 8 0 -8M223 435l1 -8M224 435l0 -8M224 435l1 -8M225 435l0 -8 1 8 0 -8M226 435l1 -8M227 435l0 -8"/>
<path stroke="red" d="M227 435l1 -8M228 435l0 -8 1 8 0 -8M229 435l1 -8M230 435l0 -8M230 435l1 -8M231 435l0 -8 1 8 0 -8 1 8 0 -8M233 435l1 -8M234 435l0 -8 1 8 0 -8 1 8 0 -8M236 435l1 -8M237 435l0 -8 1 8 0 -8 1 8 0 -8M239 435l1 -8M240 435l0 -8"/>
<path stroke="red" d="M240 427l1 8 0 -8 1 8 0 -8M242 435l1 -8M243 435l0 -8M243 435l1 -8M244 435l0 -8 1 8 0 -8M245 435l1 -8M246 435l0 -8M246 435l1 -8M247 435l0 -156 1 -33M248 433l0 -338M248 433l1 -4M249 434l0 -6M249 434l1 -6M250 435l0 -8 1 8 0 -8"/>
<path stroke="red" d="M251 435l1 -9M252 436l0 -10M252 436l1 -10M253 436l0 -10 1 11 0 -12 1 12 0 -12M255 437l1 -12M256 437l0 -12 1 12M257 438l0 -14 1 14 0 -14M258 438l1 -14M259 438l0 -14 1 14 0 -14 1 14 0 -14M261 438l1 -14M262 438l0 -14 1 14 0 -14"/>
<path stroke="red" d="M263 424l1 14M264 542l0 -118M264 456l1 22M265 502l0 -72M265 432l1 -2M266 432l0 -2 1 2 0 -2M267 432l1 -2M268 432l0 -2M268 432l1 -2M269 432l0 -2 1 2 0 -2M270 432l1 -2M271 432l0 -2M271 432l1 -2M272 432l0 -2 1 2 0 -2M273 432l1 -2"/>
<path stroke="red" d="M274 432l0 -2M274 432l1 -2M275 432l0 -2M275 431l69 0 0 -247 1 21M345 433l0 -228M345 430l1 2 0 -2M346 432l1 -2M347 432l0 -2 1 2 0 -2 1 2 0 -2M349 431l14 0M363 432l0 -2M363 432l1 -2M364 432l0 -2M364 432l1 -2M365 432l0 -2 1 2"/>
<path stroke="red" d="M366 432l0 -2M366 432l1 -2M367 432l0 -2M367 432l1 -2M368 432l0 -2 1 2 0 -2M369 432l1 -2M370 432l0 -2M370 432l1 -2M371 432l0 -2 1 2 0 -2 1 2 0 -2M373 432l1 -2M374 432l0 -2 1 2 0 -2 1 2 0 -2M376 432l1 -2M377 432l0 -2 1 2 0 -2"/>
<path stroke="red" d="M378 430l1 2 0 -2M379 432l1 -2M380 432l0 -2 1 2 0 -2 1 2 0 -2M382 432l1 -2M383 432l0 -2M383 432l1 -2M384 432l0 -2 1 2 0 -2M385 432l1 -2M386 432l0 -2M386 432l1 -2M387 432l0 -2 1 2 0 -2M388 432l1 -2M389 432l0 -2M389 432l1 -2"/>
<path stroke="red" d="M390 432l0 -2 1 2 0 -2M391 432l1 -2M392 432l0 -2M392 432l1 -2M393 432l0 -2M393 431l38 0M431 503l0 -72M431 477l1 61M432 647l0 -254M432 443l1 -24M433 444l0 -26M433 443l1 -24M434 443l0 -24 1 24 0 -24M435 443l1 -24M436 442l0 -23"/>
<path stroke="red" d="M436 442l1 -22M437 442l0 -22 1 22 0 -22 1 22 0 -22M439 442l1 -22M440 455l0 -201 1 -9M441 437l0 -192M441 425l1 12 0 -12M442 436l1 -10M443 436l0 -10M443 427l1 8 0 -8M444 428l1 6 0 -6M445 433l1 -4M446 433l0 -4 1 4 0 -4M447 430l1 2"/>
<path stroke="red" d="M448 432l0 -2M448 432l1 -2M449 432l0 -2M449 431l2 0 1 1 0 -2 1 2 0 -2M453 432l1 -2M454 432l0 -2 1 2 0 -2 1 3 0 -4M456 433l1 -4M457 433l0 -4 1 4 0 -4 1 4 0 -4M459 433l1 -4M460 433l0 -4M460 433l1 -4M461 433l0 -4 1 4 0 -4M462 433l1 -4"/>
<path stroke="red" d="M463 434l0 -6M463 434l1 -6M464 434l0 -6 1 6 0 -6M465 434l1 -6M466 434l0 -6M466 434l1 -6M467 434l0 -6 1 6 0 -6M468 434l1 -6M469 434l0 -6M469 434l1 -6M470 434l0 -6 1 6 0 -6 1 6 0 -6M472 434l1 -6M473 434l0 -6 1 6 0 -6 1 6 0 -6"/>
<path stroke="red" d="M475 434l1 -6M476 434l0 -6 1 6 0 -6 1 6 0 -6M478 434l1 -6M479 434l0 -6 1 6 0 -6 1 6 0 -6M481 434l1 -6M482 434l0 -6M482 434l1 -6M483 434l0 -6 1 6M484 435l0 -8M484 435l1 -8M485 435l0 -8M485 435l1 -8M486 435l0 -8 1 8 0 -8M487 435l1 -8"/>
<path stroke="red" d="M488 435l0 -8M488 435l1 -8M489 435l0 -8 1 8 0 -8M490 435l1 -8M491 435l0 -8M491 435l1 -8M492 435l0 -8 1 8 0 -8 1 8 0 -8M494 435l1 -8M495 435l0 -8 1 8 0 -8 1 8 0 -8M497 435l1 -8M498 435l0 -8 1 8 0 -8 1 8 0 -8M500 435l1 -8"/>
<path stroke="red" d="M501 435l0 -8 1 8 0 -8 1 8 0 -8M503 435l1 -8M504 435l0 -8M504 435l1 -8M505 435l0 -8 1 8 0 -8M506 435l1 -8M507 435l0 -8M507 435l1 -8M508 435l0 -8 1 8 0 -8M509 435l1 -8M510 435l0 -8M510 435l1 -8M511 435l0 -8 1 8 0 -8M512 435l1 -8"/>
<path stroke="red" d="M513 435l0 -8M513 435l1 -8M514 435l0 -8 1 8 0 -8 1 8 0 -8M516 435l1 -8M517 435l0 -8 1 8 0 -8 1 8 0 -8M519 435l1 -8M520 543l0 -158M520 543l1 -63M521 519l0 -122M521 441l1 -20M522 441l0 -20M522 422l1 18 0 -18M523 439l1 -16"/>
<path stroke="red" d="M524 439l0 -16M524 438l1 -14M525 438l0 -14M525 425l1 12 0 -12M526 426l1 10 0 -10M527 435l1 -8M528 435l0 -8 1 8 0 -8M529 428l1 6 0 -6M530 433l1 -4M531 433l0 -4 1 4 0 -4M532 430l1 2 0 -2M533 432l1 -2M534 432l0 -2M534 431l3 0"/>
<path stroke="red" d="M537 432l0 -2 1 2 0 -2M538 432l1 -2M539 432l0 -2 1 2 0 -2 1 2M541 433l0 -4M541 433l1 -4M542 433l0 -4 1 4 0 -4 1 4 0 -4M544 433l1 -4M545 433l0 -4 1 4 0 -4 1 4M547 434l0 -6M547 434l1 -6M548 434l0 -6M548 434l1 -6M549 434l0 -6"/>
<path stroke="red" d="M549 428l1 6 0 -6M550 434l1 -6M551 434l0 -6M551 434l1 -6M552 434l0 -6 1 6 0 -6M553 434l1 -6M554 434l0 -6M554 434l1 -6M555 434l0 -6 1 6 0 -6M556 434l1 -6M557 434l0 -6M557 434l1 -6M558 434l0 -6 1 6M559 435l0 -8 1 8 0 -8M560 435l1 -8"/>
<path stroke="red" d="M561 435l0 -8 1 8 0 -8 1 8 0 -8M563 435l1 -8M564 435l0 -8 1 8 0 -8 1 8 0 -8M566 435l1 -8M567 435l0 -8 1 8 0 -8 1 8 0 -8M569 435l1 -8M570 435l0 -8M570 435l1 -8M571 435l0 -8 1 8 0 -8M572 435l1 -8M573 435l0 -8M573 435l1 -8"/>
<path stroke="red" d="M574 435l0 -8 1 8 0 -8M575 435l1 -8M576 435l0 -8M576 435l1 -8M577 435l0 -8 1 8 0 -8M578 435l1 -8M579 435l0 -8M579 435l1 -8M580 435l0 -8 1 8 0 -8 1 8 0 -8M582 435l1 -8M583 435l0 -8 1 8 0 -8 1 8 0 -8M585 435l1 -8M586 435l0 -8"/>
<path stroke="red" d="M586 427l1 8 0 -8 1 8 0 -8M588 435l1 -8M589 435l0 -8 1 8 0 -8 1 8 0 -8M591 435l1 -8M592 435l0 -8M592 435l1 -8M593 435l0 -8 1 8 0 -8M594 435l1 -8M595 435l0 -8M595 435l1 -8M596 435l0 -8 1 8 0 -8M597 435l1 -8M598 435l0 -8M598 435l1 -8"/>
<path stroke="red" d="M599 435l0 -156 1 -33M600 433l0 -338M600 433l1 -4M601 434l0 -6M601 434l1 -6M602 435l0 -8 1 8 0 -9 1 10 0 -10M604 436l1 -10M605 436l0 -10 1 11 0 -12 1 12 0 -12M607 437l1 -12M608 437l0 -12 1 12M609 438l0 -14 1 14 0 -14M610 438l1 -14"/>
<path stroke="red" d="M611 438l0 -14 1 14 0 -14 1 14 0 -14M613 438l1 -14M614 438l0 -14M614 438l1 -14M615 438l0 -14 1 14M616 542l0 -118M616 456l1 22M617 502l0 -72M617 432l1 -2M618 432l0 -2 1 2 0 -2M619 432l1 -2M620 432l0 -2M620 432l1 -2M621 432l0 -2"/>
<path stroke="red" d="M621 430l1 2 0 -2M622 432l1 -2M623 432l0 -2M623 432l1 -2M624 432l0 -2 1 2 0 -2 1 2 0 -2M626 432l1 -2M627 432l0 -2M627 431l69 0 0 -247 1 21M697 433l0 -228M697 430l1 2 0 -2M698 432l1 -2M699 432l0 -2 1 2 0 -2 1 2 0 -2M701 431l14 0"/>
<path stroke="red" d="M715 432l0 -2M715 432l1 -2M716 432l0 -2M716 432l1 -2M717 432l0 -2 1 2 0 -2M718 432l1 -2M719 432l0 -2M719 432l1 -2M720 432l0 -2 1 2 0 -2M721 432l1 -2M722 432l0 -2M722 432l1 -2M723 432l0 -2 1 2 0 -2 1 2 0 -2M725 432l1 -2M726 432l0 -2"/>
<path stroke="red" d="M726 430l1 2 0 -2 1 2 0 -2M728 432l1 -2M729 432l0 -2 1 2 0 -2 1 2 0 -2M731 432l1 -2M732 432l0 -2 1 2 0 -2 1 2 0 -2M734 432l1 -2M735 432l0 -2M735 432l1 -2M736 432l0 -2 1 2 0 -2M737 432l1 -2M738 432l0 -2M738 432l1 -2M739 432l0 -2"/>
<path stroke="red" d="M739 430l1 2 0 -2M740 432l1 -2M741 432l0 -2M741 432l1 -2M742 432l0 -2 1 2 0 -2M743 432l1 -2M744 432l0 -2M744 432l1 -2M745 432l0 -2M745 431l38 0M783 503l0 -72M783 477l1 61M784 647l0 -254M784 443l1 -24M785 444l0 -26M785 443l1 -24"/>
<path stroke="red" d="M786 443l0 -24 1 24 0 -24M787 443l1 -24M788 442l0 -23M788 442l1 -22M789 442l0 -22 1 22 0 -22 1 22 0 -22M791 442l1 -22M792 455l0 -201 1 -9M793 437l0 -192M793 425l1 12 0 -12M794 436l1 -10M795 436l0 -10M795 427l1 8 0 -8M796 428l1 6"/>
<path stroke="red" d="M797 434l0 -6M797 433l1 -4M798 433l0 -4 1 4 0 -4M799 430l1 2 0 -2M800 432l1 -2M801 432l0 -2M801 431l2 0 1 1 0 -2 1 2 0 -2M805 432l1 -2M806 432l0 -2 1 2 0 -2 1 3 0 -4M808 433l1 -4M809 433l0 -4 1 4 0 -4 1 4 0 -4M811 433l1 -4"/>
<path stroke="red" d="M812 433l0 -4M812 433l1 -4M813 433l0 -4 1 4 0 -4M814 433l1 -4M815 434l0 -6M815 434l1 -6M816 434l0 -6 1 6 0 -6M817 434l1 -6M818 434l0 -6M818 434l1 -6M819 434l0 -6 1 6 0 -6M820 434l1 -6M821 434l0 -6M821 434l1 -6M822 434l0 -6"/>
<path stroke="red" d="M822 428l1 6 0 -6 1 6 0 -6M824 434l1 -6M825 434l0 -6 1 6 0 -6 1 6 0 -6M827 434l1 -6M828 434l0 -6 1 6 0 -6 1 6 0 -6M830 434l1 -6M831 434l0 -6 1 6 0 -6 1 6 0 -6M833 434l1 -6M834 434l0 -6M834 434l1 -6M835 434l0 -6 1 6M836 435l0 -8"/>
<path stroke="red" d="M836 435l1 -8M837 435l0 -8M837 435l1 -8M838 435l0 -8 1 8 0 -8M839 435l1 -8M840 435l0 -8M840 435l1 -8M841 435l0 -8 1 8 0 -8M842 435l1 -8M843 435l0 -8M843 435l1 -8M844 435l0 -8 1 8 0 -8 1 8 0 -8M846 435l1 -8M847 435l0 -8 1 8"/>
<path stroke="red" d="M848 435l0 -8 1 8 0 -8M849 435l1 -8M850 435l0 -8 1 8 0 -8 1 8 0 -8M852 435l1 -8M853 435l0 -8 1 8 0 -8 1 8 0 -8M855 435l1 -8M856 435l0 -8M856 435l1 -8M857 435l0 -8 1 8 0 -8M858 435l1 -8M859 435l0 -8M859 435l1 -8M860 435l0 -8"/>
<path stroke="red" d="M860 427l1 8 0 -8M861 435l1 -8M862 435l0 -8M862 435l1 -8M863 435l0 -8 1 8 0 -8M864 435l1 -8M865 435l0 -8M865 435l1 -8M866 435l0 -8 1 8 0 -8 1 8 0 -8M868 435l1 -8M869 435l0 -8 1 8 0 -8 1 8 0 -8M871 435l1 -8M872 543l0 -158"/>
<path stroke="red" d="M872 543l1 -63M873 519l0 -122M873 441l1 -20M874 441l0 -20M874 422l1 18 0 -18M875 439l1 -16M876 439l0 -16M876 438l1 -14M877 438l0 -14M877 425l1 12 0 -12M878 426l1 10 0 -10M879 435l1 -8M880 435l0 -8 1 8 0 -8M881 428l1 6 0 -6"/>
<path stroke="red" d="M882 433l1 -4M883 433l0 -4 1 4 0 -4M884 430l1 2 0 -2M885 432l1 -2M886 432l0 -2M886 431l3 0M889 432l0 -2 1 2 0 -2M890 432l1 -2M891 432l0 -2 1 2 0 -2 1 2M893 433l0 -4M893 433l1 -4M894 433l0 -4 1 4 0 -4 1 4 0 -4M896 433l1 -4"/>
<path stroke="red" d="M897 433l0 -4 1 4 0 -4 1 4M899 434l0 -6M899 434l1 -6M900 434l0 -6M900 434l1 -6M901 434l0 -6 1 6 0 -6M902 434l1 -6M903 434l0 -6M903 434l1 -6M904 434l0 -6 1 6 0 -6M905 434l1 -6M906 434l0 -6M906 434l1 -6M907 434l0 -6 1 6 0 -6"/>
<path stroke="red" d="M908 434l1 -6M909 434l0 -6M909 434l1 -6M910 434l0 -6 1 6M911 435l0 -8 1 8 0 -8M912 435l1 -8M913 435l0 -8 1 8 0 -8 1 8 0 -8M915 435l1 -8M916 435l0 -8 1 8 0 -8 1 8 0 -8M918 435l1 -8M919 435l0 -8 1 8 0 -8 1 8 0 -8M921 435l1 -8"/>
<path stroke="red" d="M922 435l0 -8M922 435l1 -8M923 435l0 -8 1 8 0 -8M924 435l1 -8M925 435l0 -8M925 435l1 -8M926 435l0 -8 1 8 0 -8M927 435l1 -8M928 435l0 -8M928 435l1 -8M929 435l0 -8 1 8 0 -8M930 435l1 -8M931 435l0 -8M931 435l1 -8M932 435l0 -8"/>
<path stroke="red" d="M932 427l1 8 0 -8 1 8 0 -8M934 435l1 -8M935 435l0 -8 1 8 0 -8 1 8 0 -8M937 435l1 -8M938 435l0 -8 1 8 0 -8 1 8 0 -8M940 435l1 -8M941 435l0 -8 1 8 0 -8 1 8 0 -8M943 435l1 -8M944 435l0 -8M944 435l1 -8M945 435l0 -8 1 8 0 -8"/>
<path stroke="red" d="M946 435l1 -8M947 435l0 -8M947 435l1 -8M948 435l0 -8 1 8 0 -8M949 435l1 -8M950 435l0 -8"/>
</svg>
