<?xml version="1.0" standalone="yes"?>
<!DOCTYPE svg PUBLIC "-//W3C//DTD SVG 1.1//EN"
 "http://www.w3.org/Graphics/SVG/1.1/DTD/svg11.dtd">
<svg xmlns="http://www.w3.org/2000/svg" version="1.1"
  width="100%" height="100%" viewBox="0 0 1024 768"
  style="fill: none; stroke-width: 3; font-family: Helvetica;
 font: Helvetica;
">

<!-- Creator: NGspice -->

<rect x="0" y="0" width="1024" height="768" fill="white" stroke="none"/>
<text stroke="none" fill="black" font-size="16" x="358" y="752">
time
</text>
<text stroke="none" fill="black" font-size="16" x="10" y="16">
tran1: Transient: Logic Output
</text>
<path stroke="black" stroke-width="3" d="M50 704l0 -638"/>
<text stroke="none" fill="black" font-size="16" x="35" y="728">
0.0
</text>
<path stroke="black" stroke-width="3" stroke-dasharray="1,2" d="M142 704l0 -638"/>
<text stroke="none" fill="black" font-size="16" x="122" y="728">
10.0
</text>
<path stroke="black" stroke-width="3" stroke-dasharray="1,2" d="M234 704l0 -638"/>
<text stroke="none" fill="black" font-size="16" x="214" y="728">
20.0
</text>
<path stroke="black" stroke-width="3" stroke-dasharray="1,2" d="M326 704l0 -638"/>
<text stroke="none" fill="black" font-size="16" x="306" y="728">
30.0
</text>
<path stroke="black" stroke-width="3" stroke-dasharray="1,2" d="M418 704l0 -638"/>
<text stroke="none" fill="black" font-size="16" x="398" y="728">
40.0
</text>
<path stroke="black" stroke-width="3" stroke-dasharray="1,2" d="M510 704l0 -638"/>
<text stroke="none" fill="black" font-size="16" x="490" y="728">
50.0
</text>
<path stroke="black" stroke-width="3" stroke-dasharray="1,2" d="M602 704l0 -638"/>
<text stroke="none" fill="black" font-size="16" x="582" y="728">
60.0
</text>
<path stroke="black" stroke-width="3" stroke-dasharray="1,2" d="M694 704l0 -638"/>
<text stroke="none" fill="black" font-size="16" x="674" y="728">
70.0
</text>
<path stroke="black" stroke-width="3" stroke-dasharray="1,2" d="M786 704l0 -638"/>
<text stroke="none" fill="black" font-size="16" x="766" y="728">
80.0
</text>
<path stroke="black" stroke-width="3" stroke-dasharray="1,2" d="M878 704l0 -638"/>
<text stroke="none" fill="black" font-size="16" x="858" y="728">
90.0
</text>
<path stroke="black" stroke-width="3" stroke-dasharray="1,2" d="M970 704l0 -638"/>
<text stroke="none" fill="black" font-size="16" x="945" y="728">
100.0
</text>
<text stroke="none" fill="black" font-size="16" x="614" y="752">
ns
</text>
<path stroke="black" stroke-width="3" stroke-dasharray="1,2" d="M50 704l920 0"/>
<text stroke="none" fill="black" font-size="16" x="8" y="712">
-0.2
</text>
<path stroke="black" stroke-width="3" d="M50 646l920 0"/>
<text stroke="none" fill="black" font-size="16" x="18" y="654">
0.0
</text>
<path stroke="black" stroke-width="3" stroke-dasharray="1,2" d="M50 588l920 0"/>
<text stroke="none" fill="black" font-size="16" x="18" y="596">
0.2
</text>
<path stroke="black" stroke-width="3" stroke-dasharray="1,2" d="M50 530l920 0"/>
<text stroke="none" fill="black" font-size="16" x="18" y="538">
0.4
</text>
<path stroke="black" stroke-width="3" stroke-dasharray="1,2" d="M50 472l920 0"/>
<text stroke="none" fill="black" font-size="16" x="18" y="480">
0.6
</text>
<path stroke="black" stroke-width="3" stroke-dasharray="1,2" d="M50 414l920 0"/>
<text stroke="none" fill="black" font-size="16" x="18" y="422">
0.8
</text>
<path stroke="black" stroke-width="3" stroke-dasharray="1,2" d="M50 356l920 0"/>
<text stroke="none" fill="black" font-size="16" x="18" y="364">
1.0
</text>
<path stroke="black" stroke-width="3" stroke-dasharray="1,2" d="M50 298l920 0"/>
<text stroke="none" fill="black" font-size="16" x="18" y="306">
1.2
</text>
<path stroke="black" stroke-width="3" stroke-dasharray="1,2" d="M50 240l920 0"/>
<text stroke="none" fill="black" font-size="16" x="18" y="248">
1.4
</text>
<path stroke="black" stroke-width="3" stroke-dasharray="1,2" d="M50 182l920 0"/>
<text stroke="none" fill="black" font-size="16" x="18" y="190">
1.6
</text>
<path stroke="black" stroke-width="3" stroke-dasharray="1,2" d="M50 124l920 0"/>
<text stroke="none" fill="black" font-size="16" x="18" y="132">
1.8
</text>
<path stroke="black" stroke-width="3" stroke-dasharray="1,2" d="M50 66l920 0"/>
<text stroke="none" fill="black" font-size="16" x="18" y="74">
2.0
</text>
<text stroke="none" fill="black" font-size="16" x="10" y="32">
V
</text>
<path stroke="red" d="M460 23l46 0"/>
<text stroke="none" fill="black" font-size="16" x="516" y="32">
v(y)
</text>
<path stroke="red" d="M50 124l10 0M60 657l0 -579M60 657l1 -19M61 649l0 -11M61 646l8 0M69 663l0 -313 1 -172 0 -54 82 0M152 125l0 -1M152 125l1 -1M153 655l0 -570M153 648l1 -4M154 647l0 -3M154 646l81 0M235 650l0 -4M235 649l1 -1 0 -524 16 0 0 -6 1 -5"/>
<path stroke="red" d="M253 644l0 -536M253 644l1 0M254 646l0 -2M254 646l82 0M336 649l0 -3M336 649l1 1M337 651l0 -527 91 0M428 657l0 -579M428 657l1 -19M429 649l0 -11M429 646l8 0M437 663l0 -313 1 -172 0 -54 82 0M520 125l0 -1M520 125l1 -1M521 655l0 -570"/>
<path stroke="red" d="M521 648l1 -4M522 647l0 -3M522 646l81 0M603 650l0 -4M603 649l1 -1 0 -524 16 0 0 -6 1 -5M621 644l0 -536M621 644l1 0M622 646l0 -2M622 646l82 0M704 649l0 -3M704 649l1 1M705 651l0 -527 91 0M796 657l0 -579M796 657l1 -19M797 649l0 -11"/>
<path stroke="red" d="M797 646l8 0M805 663l0 -313 1 -172 0 -54 82 0M888 125l0 -1M888 125l1 -1M889 655l0 -570M889 648l1 -4M890 647l0 -3M890 646l80 0"/>
</svg>
