<?xml version="1.0" standalone="yes"?>
<!DOCTYPE svg PUBLIC "-//W3C//DTD SVG 1.1//EN"
 "http://www.w3.org/Graphics/SVG/1.1/DTD/svg11.dtd">
<svg xmlns="http://www.w3.org/2000/svg" version="1.1"
  width="100%" height="100%" viewBox="0 0 1024 768"
  style="fill: none; stroke-width: 3; font-family: Helvetica;
 font: Helvetica;
">

<!-- Creator: NGspice -->

<rect x="0" y="0" width="1024" height="768" fill="white" stroke="none"/>
<text stroke="none" fill="black" font-size="16" x="358" y="752">
vin
</text>
<text stroke="none" fill="black" font-size="16" x="10" y="16">
tran1: ** sch_path: /workspace/tugas1_inverter/inverter_cmos.sch
</text>
<path stroke="black" stroke-width="3" d="M50 704l0 -638"/>
<text stroke="none" fill="black" font-size="16" x="35" y="728">
0.0
</text>
<path stroke="black" stroke-width="3" stroke-dasharray="1,2" d="M152 704l0 -638"/>
<text stroke="none" fill="black" font-size="16" x="137" y="728">
0.2
</text>
<path stroke="black" stroke-width="3" stroke-dasharray="1,2" d="M254 704l0 -638"/>
<text stroke="none" fill="black" font-size="16" x="239" y="728">
0.4
</text>
<path stroke="black" stroke-width="3" stroke-dasharray="1,2" d="M356 704l0 -638"/>
<text stroke="none" fill="black" font-size="16" x="341" y="728">
0.6
</text>
<path stroke="black" stroke-width="3" stroke-dasharray="1,2" d="M458 704l0 -638"/>
<text stroke="none" fill="black" font-size="16" x="443" y="728">
0.8
</text>
<path stroke="black" stroke-width="3" stroke-dasharray="1,2" d="M560 704l0 -638"/>
<text stroke="none" fill="black" font-size="16" x="545" y="728">
1.0
</text>
<path stroke="black" stroke-width="3" stroke-dasharray="1,2" d="M662 704l0 -638"/>
<text stroke="none" fill="black" font-size="16" x="647" y="728">
1.2
</text>
<path stroke="black" stroke-width="3" stroke-dasharray="1,2" d="M764 704l0 -638"/>
<text stroke="none" fill="black" font-size="16" x="749" y="728">
1.4
</text>
<path stroke="black" stroke-width="3" stroke-dasharray="1,2" d="M866 704l0 -638"/>
<text stroke="none" fill="black" font-size="16" x="851" y="728">
1.6
</text>
<path stroke="black" stroke-width="3" stroke-dasharray="1,2" d="M968 704l0 -638"/>
<text stroke="none" fill="black" font-size="16" x="953" y="728">
1.8
</text>
<text stroke="none" fill="black" font-size="16" x="614" y="752">
V
</text>
<path stroke="black" stroke-width="3" stroke-dasharray="1,2" d="M50 704l918 0"/>
<text stroke="none" fill="black" font-size="16" x="8" y="712">
-0.2
</text>
<path stroke="black" stroke-width="3" d="M50 646l918 0"/>
<text stroke="none" fill="black" font-size="16" x="18" y="654">
0.0
</text>
<path stroke="black" stroke-width="3" stroke-dasharray="1,2" d="M50 588l918 0"/>
<text stroke="none" fill="black" font-size="16" x="18" y="596">
0.2
</text>
<path stroke="black" stroke-width="3" stroke-dasharray="1,2" d="M50 530l918 0"/>
<text stroke="none" fill="black" font-size="16" x="18" y="538">
0.4
</text>
<path stroke="black" stroke-width="3" stroke-dasharray="1,2" d="M50 472l918 0"/>
<text stroke="none" fill="black" font-size="16" x="18" y="480">
0.6
</text>
<path stroke="black" stroke-width="3" stroke-dasharray="1,2" d="M50 414l918 0"/>
<text stroke="none" fill="black" font-size="16" x="18" y="422">
0.8
</text>
<path stroke="black" stroke-width="3" stroke-dasharray="1,2" d="M50 356l918 0"/>
<text stroke="none" fill="black" font-size="16" x="18" y="364">
1.0
</text>
<path stroke="black" stroke-width="3" stroke-dasharray="1,2" d="M50 298l918 0"/>
<text stroke="none" fill="black" font-size="16" x="18" y="306">
1.2
</text>
<path stroke="black" stroke-width="3" stroke-dasharray="1,2" d="M50 240l918 0"/>
<text stroke="none" fill="black" font-size="16" x="18" y="248">
1.4
</text>
<path stroke="black" stroke-width="3" stroke-dasharray="1,2" d="M50 182l918 0"/>
<text stroke="none" fill="black" font-size="16" x="18" y="190">
1.6
</text>
<path stroke="black" stroke-width="3" stroke-dasharray="1,2" d="M50 124l918 0"/>
<text stroke="none" fill="black" font-size="16" x="18" y="132">
1.8
</text>
<path stroke="black" stroke-width="3" stroke-dasharray="1,2" d="M50 66l918 0"/>
<text stroke="none" fill="black" font-size="16" x="18" y="74">
2.0
</text>
<text stroke="none" fill="black" font-size="16" x="10" y="32">
V
</text>
<path stroke="red" d="M459 23l45 0"/>
<text stroke="none" fill="black" font-size="16" x="514" y="32">
vout
</text>
<path stroke="red" d="M50 124l9 -3 19 -4 36 -3 74 -3 92 -3 91 -4 92 2 92 34 92 154 91 247 92 102 69 -1 69 1M968 646l0 -3M50 135l0 -11 9 -3 19 -4 36 -3 74 -3 92 -3 91 -4 92 2 92 34 92 154 91 247 92 102 69 -1 69 1M968 646l0 -3M50 135l0 -11 9 -3"/>
<path stroke="red" d="M59 121l19 -4 36 -3 74 -3 92 -3 91 -4 92 2 92 34 92 154 91 247 92 102 69 -1 69 1M968 646l0 -3"/>
</svg>
