<?xml version="1.0" standalone="yes"?>
<!DOCTYPE svg PUBLIC "-//W3C//DTD SVG 1.1//EN"
 "http://www.w3.org/Graphics/SVG/1.1/DTD/svg11.dtd">
<svg xmlns="http://www.w3.org/2000/svg" version="1.1"
  width="100%" height="100%" viewBox="0 0 1024 768"
  style="fill: none; stroke-width: 3; font-family: Helvetica;
 font: Helvetica;
">

<!-- Creator: NGspice -->

<rect x="0" y="0" width="1024" height="768" fill="white" stroke="none"/>
<text stroke="none" fill="black" font-size="16" x="358" y="752">
time
</text>
<text stroke="none" fill="black" font-size="16" x="10" y="16">
tran1: Verification: Physical vs Ideal Parity
</text>
<path stroke="black" stroke-width="3" d="M50 704l0 -640"/>
<text stroke="none" fill="black" font-size="16" x="35" y="728">
0.0
</text>
<path stroke="black" stroke-width="3" stroke-dasharray="1,2" d="M204 704l0 -640"/>
<text stroke="none" fill="black" font-size="16" x="189" y="728">
0.5
</text>
<path stroke="black" stroke-width="3" stroke-dasharray="1,2" d="M358 704l0 -640"/>
<text stroke="none" fill="black" font-size="16" x="343" y="728">
1.0
</text>
<path stroke="black" stroke-width="3" stroke-dasharray="1,2" d="M512 704l0 -640"/>
<text stroke="none" fill="black" font-size="16" x="497" y="728">
1.5
</text>
<path stroke="black" stroke-width="3" stroke-dasharray="1,2" d="M666 704l0 -640"/>
<text stroke="none" fill="black" font-size="16" x="651" y="728">
2.0
</text>
<path stroke="black" stroke-width="3" stroke-dasharray="1,2" d="M820 704l0 -640"/>
<text stroke="none" fill="black" font-size="16" x="805" y="728">
2.5
</text>
<path stroke="black" stroke-width="3" stroke-dasharray="1,2" d="M974 704l0 -640"/>
<text stroke="none" fill="black" font-size="16" x="959" y="728">
3.0
</text>
<text stroke="none" fill="black" font-size="16" x="614" y="752">
us
</text>
<path stroke="black" stroke-width="3" stroke-dasharray="1,2" d="M50 704l924 0"/>
<text stroke="none" fill="black" font-size="16" x="8" y="712">
-0.5
</text>
<path stroke="black" stroke-width="3" d="M50 624l924 0"/>
<text stroke="none" fill="black" font-size="16" x="18" y="632">
0.0
</text>
<path stroke="black" stroke-width="3" stroke-dasharray="1,2" d="M50 544l924 0"/>
<text stroke="none" fill="black" font-size="16" x="18" y="552">
0.5
</text>
<path stroke="black" stroke-width="3" stroke-dasharray="1,2" d="M50 464l924 0"/>
<text stroke="none" fill="black" font-size="16" x="18" y="472">
1.0
</text>
<path stroke="black" stroke-width="3" stroke-dasharray="1,2" d="M50 384l924 0"/>
<text stroke="none" fill="black" font-size="16" x="18" y="392">
1.5
</text>
<path stroke="black" stroke-width="3" stroke-dasharray="1,2" d="M50 304l924 0"/>
<text stroke="none" fill="black" font-size="16" x="18" y="312">
2.0
</text>
<path stroke="black" stroke-width="3" stroke-dasharray="1,2" d="M50 224l924 0"/>
<text stroke="none" fill="black" font-size="16" x="18" y="232">
2.5
</text>
<path stroke="black" stroke-width="3" stroke-dasharray="1,2" d="M50 144l924 0"/>
<text stroke="none" fill="black" font-size="16" x="18" y="152">
3.0
</text>
<path stroke="black" stroke-width="3" stroke-dasharray="1,2" d="M50 64l924 0"/>
<text stroke="none" fill="black" font-size="16" x="18" y="72">
3.5
</text>
<text stroke="none" fill="black" font-size="16" x="10" y="32">
     
</text>
<path stroke="red" d="M462 23l46 0"/>
<text stroke="none" fill="black" font-size="16" x="518" y="32">
v(out_parity)
</text>
<path stroke="red" d="M50 632l0 -298M50 336l1 0M51 639l0 -324M51 624l1 0M52 633l0 -322M52 624l1 0M53 634l0 -299M53 336l2 0M55 637l0 -312M55 624l2 0M57 632l0 -297M57 336l1 0M58 634l0 -312M58 624l3 0M61 628l0 -295M61 336l2 0M63 630l0 -316M63 336l1 0"/>
<path stroke="red" d="M64 634l0 -312M64 624l3 0M67 628l0 -295M67 336l2 0M69 630l0 -316M69 624l1 0M70 631l0 -301M70 336l3 0M73 626l0 -309M73 624l2 0M75 639l0 -312M75 624l1 0M76 635l0 -312M76 624l3 0M79 632l0 -302M79 336l2 0M81 626l0 -313M81 624l1 0"/>
<path stroke="red" d="M82 628l0 -299M82 336l4 0M86 639l0 -326M86 624l1 0M87 632l0 -302M87 336l1 0M88 637l0 -312M88 624l1 0M89 628l0 -299M89 336l3 0M92 639l0 -326M92 624l1 0M93 625l0 -1M93 625l1 7 0 -302M94 336l1 0M95 636l0 -312M95 624l3 0M98 635l0 -300"/>
<path stroke="red" d="M98 336l2 0M100 633l0 -319M100 624l1 0M101 631l0 -319M101 624l3 0M104 632l0 -302M104 336l2 0M106 626l0 -313M106 624l1 0M107 628l0 -299M107 336l3 0M110 639l0 -326M110 624l2 0M112 637l0 -312M112 624l1 0M113 628l0 -299M113 336l3 0"/>
<path stroke="red" d="M116 639l0 -326M116 624l2 0M118 632l0 -302M118 336l1 0M119 636l0 -312M119 625l1 -1 2 0M122 635l0 -297 1 -3M123 336l0 -1M123 336l1 0M124 625l0 -311M124 624l1 0M125 633l0 -318M125 624l1 0M126 631l0 -301M126 336l3 0M129 637l0 -312"/>
<path stroke="red" d="M129 624l1 0M130 632l0 -161 1 -129 0 -7M131 336l1 0M132 634l0 -312M132 624l3 0M135 628l0 -295M135 336l2 0M137 630l0 -316M137 336l1 0M138 634l0 -312M138 624l3 0M141 628l0 -295M141 336l2 0M143 630l0 -316M143 624l1 0M144 631l0 -301"/>
<path stroke="red" d="M144 336l3 0M147 626l0 -309M147 624l2 0M149 639l0 -312M149 624l1 0M150 633l0 -316M150 624l3 0M153 632l0 -302M153 336l2 0M155 626l0 -313M155 624l1 0M156 628l0 -299M156 336l3 0M159 639l0 -326M159 627l1 -5M160 625l0 -3M160 624l1 0"/>
<path stroke="red" d="M161 632l0 -302M161 336l1 0M162 637l0 -312M162 624l1 0M163 628l0 -299M163 336l3 0M166 639l0 -326M166 624l1 0M167 632l0 -302M167 336l2 0M169 636l0 -312M169 624l3 0M172 635l0 -300M172 336l2 0M174 633l0 -319M174 626l1 3M175 631l0 -301"/>
<path stroke="red" d="M175 336l3 0M178 636l0 -312M178 624l2 0M180 632l0 -298M180 336l1 0M181 633l0 -311M181 624l3 0M184 628l0 -294M184 336l2 0M186 632l0 -319M186 336l1 0M187 633l0 -311M187 624l3 0M190 628l0 -294M190 336l2 0M192 632l0 -319M192 624l1 0"/>
<path stroke="red" d="M193 631l0 -302M193 336l3 0M196 624l0 -308M196 624l2 0M198 632l0 -298M198 336l1 0M199 640l0 -324M199 624l1 1M200 631l0 -301M200 336l3 0M203 636l0 -312M203 624l1 0M204 632l0 -298M204 336l2 0M206 633l0 -311M206 624l3 0M209 628l0 -294"/>
<path stroke="red" d="M209 336l2 0M211 632l0 -319M211 336l1 0M212 633l0 -311M212 624l3 0M215 628l0 -294M215 336l2 0M217 632l0 -319M217 624l1 0M218 631l0 -302M218 336l3 0M221 624l0 -308M221 624l2 0M223 640l0 -313M223 509l1 -154M224 635l0 -312"/>
<path stroke="red" d="M224 624l3 0M227 632l0 -302M227 336l2 0M229 626l0 -313M229 624l1 0M230 628l0 -299M230 336l3 0M233 639l0 -326M233 624l2 0M235 632l0 -307M235 347l1 248M236 637l0 -308M236 336l4 0M240 639l0 -326M240 624l1 0M241 632l0 -302M241 336l2 0"/>
<path stroke="red" d="M243 636l0 -312M243 624l3 0M246 635l0 -300M246 336l1 0 1 1M248 633l0 -319M248 336l1 0M249 635l0 -318M249 624l3 0M252 632l0 -302M252 336l2 0M254 626l0 -313M254 624l1 0M255 628l0 -299M255 336l3 0M258 639l0 -326M258 624l2 0"/>
<path stroke="red" d="M260 637l0 -312M260 624l1 0M261 628l0 -299M261 336l3 0M264 639l0 -326M264 624l2 0M266 632l0 -302M266 336l1 0M267 636l0 -312M267 624l3 0M270 635l0 -300M270 336l2 0M272 633l0 -319M272 336l1 0M273 631l0 -316M273 336l3 0M276 597l0 -273"/>
<path stroke="red" d="M276 597l1 39 0 -21M277 624l1 0M278 632l0 -298M278 336l2 0M280 633l0 -311M280 624l3 0M283 628l0 -294M283 336l1 0M284 632l0 -319M284 629l1 -9M285 630l0 -300M285 336l1 0M286 633l0 -311M286 624l3 0M289 628l0 -294M289 336l2 0"/>
<path stroke="red" d="M291 632l0 -319M291 624l1 0M292 631l0 -302M292 336l3 0M295 624l0 -308M295 624l2 0M297 640l0 -313M297 336l1 0M298 631l0 -315M298 336l3 0M301 636l0 -312M301 624l2 0M303 632l0 -298M303 336l1 0M304 633l0 -311M304 624l3 0M307 628l0 -294"/>
<path stroke="red" d="M307 336l2 0M309 632l0 -319M309 336l1 0M310 633l0 -311M310 624l3 0M313 628l0 -294M313 336l2 0M315 632l0 -319M315 624l2 0M317 631l0 -302M317 336l3 0M320 624l0 -308M320 624l1 0M321 632l0 -298M321 336l1 0M322 640l0 -313M322 336l1 0"/>
<path stroke="red" d="M323 635l0 -312M323 624l3 0M326 632l0 -302M326 336l2 0M328 626l0 -313M328 624l1 0M329 628l0 -299M329 336l3 0M332 639l0 -326M332 624l2 0M334 637l0 -312M334 624l1 0M335 628l0 -299M335 336l3 0M338 639l0 -326M338 624l2 0M340 632l0 -302"/>
<path stroke="red" d="M340 336l1 0M341 636l0 -312M341 624l3 0M344 635l0 -300M344 336l2 0M346 633l0 -319M346 336l1 0M347 635l0 -320M347 336l3 0M350 635l0 -311M350 624l2 0M352 632l0 -298M352 336l1 0M353 386l0 -64M353 386l1 221M354 632l0 -25M354 624l3 0"/>
<path stroke="red" d="M357 628l0 -294M357 336l1 0M358 633l0 -319M358 624l1 0M359 630l0 -300M359 336l1 0M360 632l0 -310M360 624l3 0M363 628l0 -294M363 336l2 0M365 633l0 -319M365 624l1 0M366 631l0 -301M366 336l3 0M369 624l0 -309M369 624l2 0M371 639l0 -312"/>
<path stroke="red" d="M371 336l1 0M372 635l0 -312M372 624l3 0M375 632l0 -302M375 336l2 0M377 626l0 -313M377 624l1 0M378 628l0 -299M378 336l3 0M381 639l0 -326M381 624l2 0M383 637l0 -312M383 624l1 0M384 628l0 -299M384 336l3 0M387 639l0 -326M387 624l2 0"/>
<path stroke="red" d="M389 632l0 -302M389 336l1 0M390 636l0 -312M390 628l1 -7M391 626l0 -5M391 624l3 0M394 635l0 -300M394 336l1 0M395 625l0 -311M395 624l1 0M396 633l0 -318M396 336l1 0M397 627l0 -315M397 624l3 0M400 632l0 -302M400 336l1 0 1 1"/>
<path stroke="red" d="M402 626l0 -313M402 624l1 0M403 628l0 -299M403 336l3 0M406 639l0 -326M406 624l2 0M408 637l0 -312M408 624l1 0M409 628l0 -299M409 336l3 0M412 639l0 -326M412 624l2 0M414 632l0 -302M414 336l1 0M415 636l0 -312M415 624l3 0M418 635l0 -300"/>
<path stroke="red" d="M418 336l2 0M420 633l0 -319M420 336l1 0M421 631l0 -316M421 336l3 0M424 635l0 -311M424 624l2 0M426 632l0 -298M426 336l1 0M427 632l0 -310M427 624l3 0M430 628l0 -4M430 628l1 -1 0 -293M431 336l1 0M432 633l0 -319M432 624l1 0"/>
<path stroke="red" d="M433 630l0 -300M433 336l1 0M434 632l0 -310M434 624l3 0M437 628l0 -294M437 336l1 0M438 633l0 -319M438 629l1 -9M439 627l0 -7M439 624l1 0M440 631l0 -301M440 336l3 0M443 624l0 -309M443 624l2 0M445 639l0 -312M445 336l1 0M446 633l0 -322"/>
<path stroke="red" d="M446 620l1 7M447 634l0 -299M447 336l2 0M449 637l0 -312M449 624l2 0M451 632l0 -297M451 336l1 0M452 634l0 -312M452 624l3 0M455 628l0 -295M455 336l2 0M457 630l0 -316M457 336l1 0M458 634l0 -312M458 624l3 0M461 628l0 -295M461 336l2 0"/>
<path stroke="red" d="M463 630l0 -316M463 624l1 0M464 631l0 -301M464 336l3 0M467 626l0 -309M467 624l2 0M469 632l0 -297M469 336l1 0M470 639l0 -312M470 336l1 0M471 635l0 -312M471 624l3 0M474 632l0 -302M474 336l1 0M475 626l0 -313M475 624l2 0M477 628l0 -299"/>
<path stroke="red" d="M477 336l3 0M480 639l0 -326M480 624l2 0M482 637l0 -312M482 624l1 0M483 628l0 -299M483 336l3 0M486 639l0 -326M486 624l2 0M488 632l0 -302M488 336l1 0M489 636l0 -312M489 624l3 0M492 635l0 -300M492 336l2 0M494 633l0 -319M494 336l1 0"/>
<path stroke="red" d="M495 631l0 -319M495 624l3 0M498 632l0 -302M498 336l2 0M500 626l0 -313M500 624l1 0M501 628l0 -299M501 336l3 0M504 639l0 -326M504 624l2 0M506 632l0 -302M506 336l1 0M507 637l0 -312M507 422l1 -93M508 339l0 -10M508 336l3 0M511 639l0 -326"/>
<path stroke="red" d="M511 624l1 0M512 632l0 -302M512 336l2 0M514 636l0 -312M514 624l3 0M517 635l0 -300M517 336l2 0M519 633l0 -319M519 624l1 0M520 631l0 -301M520 336l3 0M523 637l0 -312M523 624l2 0M525 632l0 -297M525 336l1 0M526 634l0 -312M526 624l3 0"/>
<path stroke="red" d="M529 628l0 -295M529 336l2 0M531 630l0 -316M531 336l1 0M532 634l0 -312M532 624l3 0M535 628l0 -295M535 336l2 0M537 630l0 -316M537 624l1 0M538 631l0 -301M538 336l3 0M541 626l0 -309M541 624l2 0M543 632l0 -305 1 244M544 639l0 -322"/>
<path stroke="red" d="M544 624l4 0M548 632l0 -302M548 336l1 0M549 626l0 -313M549 624l2 0M551 628l0 -299M551 336l3 0M554 639l0 -326M554 624l1 0M555 625l0 -1M555 625l1 7M556 637l0 -312M556 624l1 0M557 628l0 -299M557 336l3 0M560 639l0 -326M560 624l2 0"/>
<path stroke="red" d="M562 632l0 -302M562 336l1 0M563 636l0 -312M563 624l3 0M566 635l0 -300M566 336l2 0M568 633l0 -319M568 624l1 0M569 631l0 -301M569 336l3 0M572 636l0 -312M572 624l2 0M574 632l0 -298M574 336l1 0M575 633l0 -311M575 624l3 0M578 628l0 -294"/>
<path stroke="red" d="M578 336l2 0M580 632l0 -319M580 335l1 2M581 633l0 -311M581 624l3 0M584 628l0 -4M584 628l1 -1 0 -293M585 336l1 0M586 632l0 -319M586 624l2 0M588 631l0 -302M588 336l3 0M591 624l0 -308M591 624l1 0M592 632l0 -154 1 -134M593 640l0 -324"/>
<path stroke="red" d="M593 624l1 0M594 631l0 -301M594 336l3 0M597 636l0 -312M597 624l2 0M599 632l0 -298M599 336l1 0M600 633l0 -311M600 624l3 0M603 628l0 -294M603 336l2 0M605 632l0 -319M605 336l1 0M606 633l0 -311M606 624l3 0M609 628l0 -294M609 336l2 0"/>
<path stroke="red" d="M611 632l0 -319M611 624l1 0M612 631l0 -302M612 336l3 0M615 624l0 -308M615 624l2 0M617 640l0 -313M617 623l1 1M618 635l0 -312M618 624l3 0M621 632l0 -302M621 336l2 0M623 626l0 -313M623 624l2 0M625 628l0 -299M625 336l3 0M628 639l0 -326"/>
<path stroke="red" d="M628 624l1 0M629 632l0 -302M629 336l1 0M630 637l0 -312M630 624l1 0M631 628l0 -299M631 336l3 0M634 639l0 -326M634 624l2 0M636 632l0 -302M636 336l1 0M637 636l0 -312M637 624l3 0M640 635l0 -300M640 336l2 0M642 633l0 -319M642 624l1 0"/>
<path stroke="red" d="M643 635l0 -318M643 624l3 0M646 632l0 -302M646 336l2 0M648 626l0 -313M648 624l1 0M649 628l0 -299M649 336l3 0M652 639l0 -326M652 624l2 0M654 637l0 -312M654 624l1 0M655 628l0 -299M655 336l3 0M658 639l0 -326M658 624l2 0M660 632l0 -302"/>
<path stroke="red" d="M660 336l1 0M661 337l0 -13 1 31M662 636l0 -281M662 624l3 0M665 635l0 -300M665 336l1 0M666 625l0 -311M666 624l1 0M667 633l0 -318M667 624l1 0M668 631l0 -301M668 336l3 0M671 636l0 -312M671 624l2 0M673 632l0 -298M673 336l1 0"/>
<path stroke="red" d="M674 633l0 -311M674 624l3 0M677 628l0 -294M677 336l2 0M679 632l0 -319M679 336l1 0M680 633l0 -311M680 624l3 0M683 628l0 -294M683 336l2 0M685 632l0 -319M685 624l1 0M686 631l0 -302M686 336l3 0M689 624l0 -308M689 624l2 0M691 640l0 -313"/>
<path stroke="red" d="M691 624l1 0M692 632l0 -316M692 336l3 0M695 636l0 -312M695 624l2 0M697 632l0 -298M697 336l1 0M698 633l0 -311M698 622l1 4 0 -3M699 624l3 0M702 628l0 -294M702 336l1 0M703 632l0 -319M703 624l1 0M704 630l0 -300M704 336l1 0M705 633l0 -311"/>
<path stroke="red" d="M705 624l3 0M708 628l0 -294M708 336l1 0 1 -5M710 632l0 -319M710 624l1 0M711 631l0 -302M711 336l3 0M714 624l0 -308M714 624l2 0M716 640l0 -313M716 336l1 0M717 635l0 -312M717 624l3 0M720 632l0 -302M720 336l2 0M722 626l0 -313"/>
<path stroke="red" d="M722 624l1 0M723 628l0 -299M723 336l3 0M726 639l0 -326M726 624l2 0M728 637l0 -312M728 624l1 0M729 628l0 -299M729 336l3 0M732 639l0 -326M732 624l2 0M734 632l0 -302M734 336l1 0M735 636l0 -312M735 625l1 -1 2 0M738 635l0 -296"/>
<path stroke="red" d="M738 339l1 -4M739 336l0 -1M739 336l1 0M740 625l0 -311M740 624l1 0M741 633l0 -318M741 336l1 0M742 635l0 -318M742 336l3 0M745 635l0 -311M745 624l1 0M746 632l0 -156 1 -133 0 -9M747 336l1 0M748 632l0 -310M748 624l3 0M751 628l0 -294"/>
<path stroke="red" d="M751 336l2 0M753 633l0 -319M753 336l1 0M754 632l0 -310M754 624l3 0M757 628l0 -294M757 336l2 0M759 633l0 -319M759 624l1 0M760 631l0 -301M760 336l3 0M763 624l0 -309M763 624l2 0M765 639l0 -312M765 624l1 0M766 635l0 -312M766 624l3 0"/>
<path stroke="red" d="M769 632l0 -302M769 336l2 0M771 626l0 -313M771 624l1 0M772 628l0 -299M772 336l3 0M775 639l0 -326M775 627l1 -5M776 625l0 -3M776 624l1 0M777 632l0 -302M777 336l1 0M778 637l0 -312M778 624l1 0M779 628l0 -299M779 336l3 0M782 639l0 -326"/>
<path stroke="red" d="M782 624l1 0M783 632l0 -302M783 336l2 0M785 636l0 -312M785 624l3 0M788 635l0 -300M788 336l2 0M790 633l0 -319M790 625l1 6 0 -319M791 624l3 0M794 632l0 -302M794 336l2 0M796 626l0 -313M796 624l1 0M797 628l0 -299M797 336l3 0"/>
<path stroke="red" d="M800 639l0 -326M800 624l2 0M802 637l0 -312M802 624l1 0M803 628l0 -299M803 336l3 0M806 639l0 -326M806 624l2 0M808 632l0 -302M808 336l1 0M809 636l0 -312M809 624l3 0M812 635l0 -300M812 336l2 0M814 625l0 -311M814 624l1 0M815 633l0 -318"/>
<path stroke="red" d="M815 624l1 1M816 631l0 -301M816 336l3 0M819 635l0 -311M819 624l1 0M820 632l0 -298M820 336l2 0M822 632l0 -310M822 624l3 0M825 628l0 -294M825 336l2 0M827 633l0 -319M827 336l1 0M828 632l0 -310M828 624l3 0M831 628l0 -294M831 336l2 0"/>
<path stroke="red" d="M833 633l0 -319M833 624l1 0M834 631l0 -301M834 336l3 0M837 624l0 -309M837 624l2 0M839 639l0 -312M839 509l1 -154M840 628l0 -313M840 336l1 0M841 634l0 -323M841 336l2 0M843 637l0 -312M843 624l2 0M845 632l0 -297M845 336l1 0"/>
<path stroke="red" d="M846 634l0 -312M846 624l3 0M849 628l0 -295M849 336l2 0M851 630l0 -316M851 625l1 5M852 634l0 -312M852 622l1 4 0 -3M853 624l3 0M856 628l0 -295M856 336l1 0M857 630l0 -316M857 624l2 0M859 631l0 -301M859 336l3 0M862 626l0 -309"/>
<path stroke="red" d="M862 624l2 0M864 639l0 -312M864 336l1 0M865 635l0 -312M865 624l3 0M868 632l0 -302M868 336l2 0M870 626l0 -313M870 624l1 0M871 628l0 -299M871 336l3 0M874 639l0 -326M874 624l2 0M876 637l0 -312M876 624l1 0M877 628l0 -299M877 336l3 0"/>
<path stroke="red" d="M880 639l0 -326M880 624l2 0M882 632l0 -302M882 336l1 0M883 636l0 -312M883 624l3 0M886 635l0 -300M886 336l2 0M888 633l0 -319M888 336l1 0M889 631l0 -319M889 624l3 0M892 632l0 -271 1 -31M893 338l0 -8M893 336l1 0M894 626l0 -313"/>
<path stroke="red" d="M894 624l2 0M896 628l0 -299M896 336l3 0M899 639l0 -326M899 624l1 0M900 632l0 -302M900 335l1 2M901 637l0 -312M901 624l1 0M902 628l0 -299M902 336l3 0M905 639l0 -326M905 624l2 0M907 632l0 -302M907 336l1 0M908 636l0 -312M908 624l3 0"/>
<path stroke="red" d="M911 635l0 -300M911 336l2 0M913 633l0 -319M913 624l1 0M914 631l0 -301M914 336l3 0M917 637l0 -312M917 624l2 0M919 632l0 -297M919 336l1 0M920 634l0 -312M920 624l3 0M923 628l0 -295M923 336l2 0M925 630l0 -316M925 336l1 0M926 634l0 -312"/>
<path stroke="red" d="M926 624l3 0M929 628l0 -295M929 336l2 0M931 630l0 -316M931 624l2 0M933 631l0 -301M933 336l3 0M936 626l0 -309M936 624l1 0M937 632l0 -297M937 336l1 0M938 639l0 -322M938 624l1 0M939 627l0 -8M939 624l3 0M942 632l0 -302M942 336l2 0"/>
<path stroke="red" d="M944 626l0 -313M944 624l1 0M945 628l0 -299M945 336l3 0M948 639l0 -326M948 624l2 0M950 637l0 -312M950 624l1 0M951 628l0 -299M951 336l3 0M954 639l0 -326M954 624l2 0M956 632l0 -302M956 336l1 0M957 636l0 -312M957 624l3 0M960 635l0 -300"/>
<path stroke="red" d="M960 336l2 0M962 633l0 -319M962 336l1 0M963 631l0 -316M963 336l3 0M966 636l0 -312M966 624l2 0M968 632l0 -298M968 336l1 0M969 382l0 -60M969 382l1 224M970 633l0 -27M970 624l3 0M973 628l0 -294M973 336l1 0"/>
<path stroke="blue" d="M50 23l46 0"/>
<text stroke="none" fill="black" font-size="16" x="106" y="32">
ideal_parity
</text>
<path stroke="blue" d="M50 624l0 -518 1 0M51 609l0 -544M51 278l1 0M52 607l0 -530M52 451l1 0M53 587l0 -499M53 451l2 0M55 607l0 -473M55 394l1 0M56 607l0 -473M56 451l1 0M57 587l0 -499M57 451l1 0M58 607l0 -473M58 394l2 0M60 607l0 -473M60 394l1 0"/>
<path stroke="blue" d="M61 549l0 -472M61 336l2 0M63 607l0 -530M63 451l1 0M64 607l0 -473M64 394l2 0M66 607l0 -473M66 394l1 0M67 549l0 -472M67 336l2 0M69 607l0 -530M69 394l1 0M70 549l0 -472M70 336l2 0M72 549l0 -472M72 336l1 0M73 595l0 -472M73 278l2 0"/>
<path stroke="blue" d="M75 595l0 -518M75 394l1 0M76 607l0 -519M76 394l2 0M78 607l0 -473M78 394l1 0M79 549l0 -472M79 336l2 0M81 607l0 -530M81 394l1 0M82 549l0 -472M82 336l2 0M84 549l0 -472M84 336l1 0M85 595l0 -472M85 278l2 0M87 595l0 -472M87 336l1 0"/>
<path stroke="blue" d="M88 607l0 -530M88 394l1 0M89 549l0 -472M89 336l1 0M90 549l0 -472M90 336l2 0M92 595l0 -472M92 278l1 0M93 595l0 -472M93 336l1 0M94 549l0 -472M94 336l1 0M95 595l0 -472M95 278l2 0M97 595l0 -472M97 278l1 0M98 538l0 -473M98 221l2 0"/>
<path stroke="blue" d="M100 595l0 -530M100 394l1 0M101 607l0 -529M101 394l2 0M103 607l0 -473M103 394l1 0M104 549l0 -472M104 336l2 0M106 607l0 -530M106 394l1 0M107 549l0 -472M107 336l2 0M109 549l0 -472M109 336l1 0M110 595l0 -472M110 278l2 0M112 595l0 -518"/>
<path stroke="blue" d="M112 394l1 0M113 607l0 -530M113 336l2 0M115 549l0 -472M115 336l1 0M116 595l0 -472M116 278l2 0M118 595l0 -518M118 336l1 0M119 595l0 -472M119 278l2 0M121 595l0 -472M121 278l1 0M122 538l0 -473M122 221l2 0M124 538l0 -473M124 278l1 0"/>
<path stroke="blue" d="M125 607l0 -530M125 466l1 83 0 -472M126 336l1 0M127 549l0 -472M127 336l2 0M129 595l0 -472M129 278l1 0M130 595l0 -472M130 336l1 0M131 549l0 -472M131 336l1 0M132 595l0 -472M132 278l1 0M133 595l0 -472M133 346l1 21M134 595l0 -472"/>
<path stroke="blue" d="M134 278l1 0M135 538l0 -473M135 221l2 0M137 595l0 -530M137 336l1 0M138 595l0 -472M138 278l2 0M140 595l0 -472M140 278l1 0M141 538l0 -473M141 221l2 0M143 595l0 -530M143 278l1 0M144 538l0 -473M144 221l2 0M146 538l0 -473M146 221l1 0"/>
<path stroke="blue" d="M147 584l0 -499M147 163l2 0M149 595l0 -530M149 595l1 -103M150 607l0 -530M150 394l2 0M152 607l0 -473M152 394l1 0M153 549l0 -472M153 336l2 0M155 607l0 -530M155 394l1 0M156 549l0 -472M156 336l2 0M158 549l0 -472M158 336l1 0"/>
<path stroke="blue" d="M159 595l0 -472M159 278l2 0M161 595l0 -472M161 305l1 -42M162 607l0 -530M162 336l2 0M164 549l0 -472M164 336l2 0M166 595l0 -472M166 278l1 0M167 595l0 -472M167 336l1 0M168 549l0 -472M168 336l1 0M169 595l0 -472M169 278l1 0"/>
<path stroke="blue" d="M170 595l0 -472M170 278l2 0M172 538l0 -473M172 221l2 0M174 607l0 -542M174 394l1 0M175 549l0 -472M175 336l2 0M177 549l0 -472M177 336l1 0M178 595l0 -472M178 278l2 0M180 595l0 -518M180 336l1 0M181 595l0 -472M181 278l2 0M183 595l0 -472"/>
<path stroke="blue" d="M183 278l1 0M184 538l0 -473M184 221l2 0M186 595l0 -530M186 180l1 78M187 595l0 -472M187 278l2 0M189 595l0 -472M189 278l1 0M190 538l0 -473M190 221l2 0M192 595l0 -530M192 278l1 0M193 538l0 -473M193 221l2 0M195 538l0 -473M195 221l1 0"/>
<path stroke="blue" d="M196 584l0 -499M196 163l2 0M198 584l0 -519M198 278l1 0M199 607l0 -530M199 336l2 0M201 549l0 -472M201 336l1 0M202 409l0 -73M202 409l1 83M203 595l0 -472M203 278l1 0M204 595l0 -472M204 336l1 0M205 549l0 -472M205 336l1 0M206 595l0 -472"/>
<path stroke="blue" d="M206 278l1 0M207 595l0 -472M207 278l2 0M209 538l0 -473M209 221l1 0M210 538l0 -473M210 278l1 0M211 595l0 -518M211 336l1 0M212 595l0 -472M212 278l2 0M214 595l0 -472M214 278l1 0M215 538l0 -473M215 221l2 0M217 595l0 -530M217 278l1 0"/>
<path stroke="blue" d="M218 538l0 -473M218 221l2 0M220 538l0 -473M220 221l1 0M221 584l0 -499M221 163l2 0M223 595l0 -530M223 336l1 0M224 595l0 -518M224 278l2 0M226 595l0 -472M226 278l1 0M227 538l0 -473M227 221l2 0M229 595l0 -530M229 278l1 0M230 538l0 -473"/>
<path stroke="blue" d="M230 221l2 0M232 538l0 -473M232 221l1 0M233 584l0 -499M233 163l2 0M235 584l0 -519M235 278l1 0M236 595l0 -530M236 221l2 0M238 538l0 -473M238 221l1 0M239 584l0 -499M239 163l2 0M241 584l0 -493M241 221l1 0M242 538l0 -473M242 221l1 0"/>
<path stroke="blue" d="M243 584l0 -499M243 163l1 0M244 584l0 -499M244 163l2 0M246 604l0 -498 1 0M247 609l0 -535M247 163l1 0M248 595l0 -530M248 336l1 0M249 607l0 -530M249 394l2 0M251 607l0 -473M251 394l1 0M252 549l0 -472M252 336l2 0M254 607l0 -530"/>
<path stroke="blue" d="M254 394l1 0M255 549l0 -472M255 336l2 0M257 549l0 -472M257 336l1 0M258 595l0 -472M258 278l2 0M260 607l0 -530M260 394l1 0M261 549l0 -472M261 336l2 0M263 549l0 -472M263 336l1 0M264 595l0 -472M264 278l2 0M266 595l0 -518M266 336l1 0"/>
<path stroke="blue" d="M267 595l0 -472M267 278l2 0M269 595l0 -472M269 278l1 0M270 538l0 -473M270 221l2 0M272 595l0 -530M272 336l1 0M273 607l0 -530M273 336l2 0M275 549l0 -472M275 336l1 0M276 595l0 -472M276 278l2 0M278 595l0 -472M278 336l1 0M279 549l0 -472"/>
<path stroke="blue" d="M279 409l1 83M280 595l0 -472M280 278l1 0M281 595l0 -472M281 278l2 0M283 538l0 -473M283 221l1 0M284 538l0 -473M284 278l1 0M285 595l0 -518M285 336l1 0M286 595l0 -472M286 278l1 0M287 595l0 -472M287 346l1 21M288 595l0 -472"/>
<path stroke="blue" d="M288 278l1 0M289 538l0 -473M289 221l2 0M291 595l0 -530M291 278l1 0M292 538l0 -473M292 221l2 0M294 538l0 -473M294 221l1 0M295 584l0 -499M295 163l2 0M297 595l0 -530M297 336l1 0M298 607l0 -530M298 336l2 0M300 549l0 -472M300 336l1 0"/>
<path stroke="blue" d="M301 595l0 -472M301 278l2 0M303 595l0 -518M303 336l1 0M304 595l0 -472M304 278l2 0M306 595l0 -472M306 278l1 0M307 538l0 -473M307 221l2 0M309 595l0 -530M309 336l1 0M310 595l0 -518M310 278l2 0M312 595l0 -472M312 278l1 0M313 538l0 -473"/>
<path stroke="blue" d="M313 221l2 0M315 538l0 -473M315 247l1 -41M316 595l0 -530M316 221l2 0M318 538l0 -473M318 221l2 0M320 584l0 -499M320 163l1 0M321 584l0 -493M321 221l1 0M322 595l0 -530M322 336l1 0M323 595l0 -472M323 278l1 0M324 595l0 -472"/>
<path stroke="blue" d="M324 278l2 0M326 538l0 -473M326 221l2 0M328 595l0 -530M328 278l1 0M329 538l0 -473M329 221l2 0M331 538l0 -473M331 221l1 0M332 584l0 -499M332 163l2 0M334 595l0 -530M334 278l1 0M335 538l0 -473M335 221l2 0M337 538l0 -473M337 221l1 0"/>
<path stroke="blue" d="M338 584l0 -499M338 163l2 0M340 584l0 -519M340 221l1 0M341 584l0 -499M341 163l2 0M343 584l0 -499M343 163l1 0M344 604l0 -498 2 0M346 609l0 -535M346 221l1 0M347 595l0 -530M347 336l1 0M348 549l0 -472M348 336l1 0M349 549l0 -472"/>
<path stroke="blue" d="M349 336l1 0M350 595l0 -472M350 278l2 0M352 595l0 -518M352 549l1 -472M353 595l0 -518M353 278l2 0M355 595l0 -472M355 278l1 0M356 351l0 -73M356 351l1 83M357 538l0 -473M357 221l1 0M358 538l0 -473M358 278l1 0M359 595l0 -518"/>
<path stroke="blue" d="M359 336l1 0M360 595l0 -472M360 278l1 0M361 595l0 -472M361 278l2 0M363 538l0 -473M363 221l1 0M364 538l0 -473M364 278l1 0M365 595l0 -472M365 278l1 0M366 538l0 -473M366 221l2 0M368 538l0 -473M368 221l1 0M369 584l0 -499M369 163l2 0"/>
<path stroke="blue" d="M371 595l0 -530M371 336l1 0M372 595l0 -518M372 278l2 0M374 595l0 -472M374 278l1 0M375 538l0 -473M375 221l2 0M377 595l0 -530M377 278l1 0M378 538l0 -473M378 221l2 0M380 538l0 -473M380 221l1 0M381 584l0 -499M381 163l2 0M383 584l0 -519"/>
<path stroke="blue" d="M383 278l1 0M384 595l0 -530M384 221l2 0M386 538l0 -473M386 221l1 0M387 584l0 -499M387 163l2 0M389 584l0 -519M389 221l1 0M390 584l0 -499M390 163l2 0M392 584l0 -499M392 163l1 0M393 604l0 -498 2 0M395 609l0 -535M395 163l1 0"/>
<path stroke="blue" d="M396 595l0 -530M396 336l1 0M397 549l0 -472M397 278l1 0M398 595l0 -472M398 278l2 0M400 538l0 -473M400 221l1 0M401 538l0 -473M401 278l1 0M402 595l0 -472M402 278l1 0M403 538l0 -473M403 221l2 0M405 538l0 -473M405 221l1 0M406 584l0 -499"/>
<path stroke="blue" d="M406 163l2 0M408 595l0 -530M408 278l1 0M409 538l0 -473M409 221l2 0M411 538l0 -473M411 221l1 0M412 584l0 -499M412 163l2 0M414 584l0 -519M414 221l1 0M415 584l0 -499M415 163l2 0M417 584l0 -499M417 163l1 0M418 604l0 -498 2 0"/>
<path stroke="blue" d="M420 609l0 -535M420 221l1 0M421 595l0 -530M421 221l2 0M423 538l0 -473M423 221l1 0M424 584l0 -499M424 163l2 0M426 584l0 -519M426 221l1 0M427 584l0 -499M427 163l2 0M429 584l0 -499M429 163l1 0M430 604l0 -498 2 0M432 609l0 -535"/>
<path stroke="blue" d="M432 163l1 0M433 584l0 -519M433 293l1 83M434 584l0 -499M434 163l1 0M435 584l0 -499M435 163l2 0M437 604l0 -498 1 0M438 609l0 -535M438 163l1 0M439 584l0 -499M439 163l1 0M440 604l0 -498 1 0M441 609l0 -535M441 174l1 20M442 604l0 -498"/>
<path stroke="blue" d="M442 106l1 0M443 624l0 -518M443 624l2 0 0 -559M445 356l1 -78M446 595l0 -518M446 394l1 0M447 607l0 -473M447 451l1 0M448 587l0 -499M448 451l1 0M449 607l0 -473M449 394l2 0M451 607l0 -519M451 451l1 0M452 607l0 -473M452 394l2 0"/>
<path stroke="blue" d="M454 607l0 -473M454 394l1 0M455 549l0 -472M455 336l2 0M457 607l0 -530M457 192l1 -104M458 607l0 -519M458 394l2 0M460 607l0 -473M460 394l1 0M461 549l0 -472M461 336l2 0M463 607l0 -530M463 394l1 0M464 549l0 -472M464 336l2 0"/>
<path stroke="blue" d="M466 549l0 -472M466 336l1 0M467 595l0 -472M467 278l2 0M469 595l0 -472M469 305l1 -42M470 607l0 -530M470 394l2 0M472 607l0 -473M472 394l2 0M474 549l0 -472M474 336l1 0M475 549l0 -472M475 394l1 0M476 607l0 -473M476 394l1 0"/>
<path stroke="blue" d="M477 549l0 -472M477 336l1 0M478 549l0 -472M478 336l2 0M480 595l0 -472M480 278l2 0M482 607l0 -530M482 394l1 0M483 549l0 -472M483 336l2 0M485 549l0 -472M485 336l1 0M486 595l0 -472M486 278l2 0M488 595l0 -518M488 336l1 0M489 595l0 -472"/>
<path stroke="blue" d="M489 278l2 0M491 595l0 -472M491 278l1 0M492 538l0 -473M492 221l2 0M494 595l0 -530M494 394l1 0M495 607l0 -529M495 394l2 0M497 607l0 -473M497 394l1 0M498 549l0 -472M498 336l2 0M500 607l0 -530M500 394l1 0M501 549l0 -472M501 336l2 0"/>
<path stroke="blue" d="M503 549l0 -472M503 336l1 0M504 595l0 -472M504 278l2 0M506 595l0 -518M506 394l1 0M507 607l0 -530M507 336l2 0M509 549l0 -472M509 336l1 0M510 409l0 -73M510 409l1 83M511 595l0 -472M511 278l1 0M512 595l0 -472M512 336l1 0M513 549l0 -472"/>
<path stroke="blue" d="M513 336l1 0M514 595l0 -472M514 278l1 0M515 595l0 -472M515 278l2 0M517 538l0 -473M517 221l1 0M518 538l0 -473M518 278l1 0M519 607l0 -530M519 394l1 0M520 549l0 -472M520 336l2 0M522 549l0 -472M522 336l1 0M523 595l0 -472M523 278l2 0"/>
<path stroke="blue" d="M525 595l0 -518M525 336l1 0M526 595l0 -472M526 278l2 0M528 595l0 -472M528 278l1 0M529 538l0 -473M529 221l2 0M531 595l0 -530M531 336l1 0M532 595l0 -472M532 278l2 0M534 595l0 -472M534 278l1 0M535 538l0 -473M535 221l2 0M537 595l0 -530"/>
<path stroke="blue" d="M537 278l1 0M538 538l0 -473M538 221l2 0M540 538l0 -473M540 221l1 0M541 584l0 -499M541 163l2 0M543 584l0 -519M543 278l1 0M544 607l0 -530M544 394l1 0M545 607l0 -473M545 394l1 0M546 607l0 -473M546 394l1 0M547 549l0 -472M547 336l2 0"/>
<path stroke="blue" d="M549 549l0 -472M549 394l1 0M550 607l0 -473M550 394l1 0M551 549l0 -472M551 336l1 0M552 549l0 -472M552 336l2 0M554 595l0 -472M554 278l1 0M555 595l0 -472M555 336l1 0M556 607l0 -530M556 394l1 0M557 549l0 -472M557 336l2 0M559 549l0 -472"/>
<path stroke="blue" d="M559 336l1 0M560 595l0 -472M560 278l2 0M562 595l0 -518M562 336l1 0M563 595l0 -472M563 278l2 0M565 595l0 -472M565 278l1 0M566 538l0 -473M566 221l2 0M568 595l0 -530M568 394l1 0M569 607l0 -530M569 336l2 0M571 549l0 -472M571 336l1 0"/>
<path stroke="blue" d="M572 595l0 -472M572 278l2 0M574 595l0 -518M574 336l1 0M575 595l0 -472M575 278l2 0M577 595l0 -472M577 278l1 0M578 538l0 -473M578 221l2 0M580 595l0 -530M580 336l1 0M581 595l0 -518M581 278l2 0M583 595l0 -472M583 278l1 0M584 538l0 -473"/>
<path stroke="blue" d="M584 221l2 0M586 538l0 -473M586 278l1 0M587 595l0 -472M587 351l1 83M588 538l0 -473M588 221l1 0M589 538l0 -473M589 221l2 0M591 584l0 -499M591 163l1 0M592 584l0 -493M592 221l1 0M593 595l0 -530M593 394l1 0M594 607l0 -473M594 336l1 0"/>
<path stroke="blue" d="M595 549l0 -472M595 404l1 21M596 549l0 -472M596 336l1 0M597 595l0 -472M597 278l2 0M599 595l0 -518M599 336l1 0M600 595l0 -472M600 278l2 0M602 595l0 -472M602 278l1 0M603 538l0 -473M603 221l2 0M605 595l0 -530M605 336l1 0M606 595l0 -472"/>
<path stroke="blue" d="M606 278l2 0M608 595l0 -472M608 278l1 0M609 538l0 -473M609 221l2 0M611 595l0 -530M611 278l1 0M612 538l0 -473M612 221l2 0M614 538l0 -473M614 221l1 0M615 584l0 -499M615 163l2 0M617 584l0 -519M617 278l1 0M618 595l0 -518M618 278l2 0"/>
<path stroke="blue" d="M620 595l0 -472M620 278l1 0M621 538l0 -473M621 221l2 0M623 538l0 -473M623 247l1 -41M624 595l0 -530M624 221l2 0M626 538l0 -473M626 221l2 0M628 584l0 -499M628 163l1 0M629 584l0 -493M629 221l1 0M630 595l0 -530M630 278l1 0"/>
<path stroke="blue" d="M631 538l0 -473M631 221l1 0M632 538l0 -473M632 221l2 0M634 584l0 -499M634 163l2 0M636 584l0 -519M636 221l1 0M637 584l0 -499M637 163l2 0M639 584l0 -499M639 163l1 0M640 604l0 -498 2 0M642 609l0 -544M642 278l1 0M643 595l0 -518"/>
<path stroke="blue" d="M643 394l1 0M644 607l0 -473M644 394l1 0M645 607l0 -473M645 394l1 0M646 549l0 -472M646 336l2 0M648 607l0 -530M648 394l1 0M649 549l0 -472M649 336l2 0M651 549l0 -472M651 336l1 0M652 595l0 -472M652 278l2 0M654 595l0 -518M654 394l1 0"/>
<path stroke="blue" d="M655 607l0 -530M655 336l2 0M657 549l0 -472M657 336l1 0M658 595l0 -472M658 278l2 0M660 595l0 -518M660 549l1 -472M661 595l0 -518M661 278l2 0M663 595l0 -472M663 278l1 0M664 351l0 -73M664 351l1 83M665 538l0 -473M665 221l1 0"/>
<path stroke="blue" d="M666 538l0 -473M666 278l1 0M667 607l0 -530M667 394l1 0M668 549l0 -472M668 336l1 0M669 549l0 -472M669 336l2 0M671 595l0 -472M671 278l1 0M672 595l0 -472M672 336l1 0M673 549l0 -472M673 336l1 0M674 595l0 -472M674 278l2 0M676 595l0 -472"/>
<path stroke="blue" d="M676 278l1 0M677 538l0 -473M677 221l2 0M679 595l0 -530M679 336l1 0M680 595l0 -472M680 278l2 0M682 595l0 -472M682 278l1 0M683 538l0 -473M683 221l2 0M685 595l0 -530M685 278l1 0M686 538l0 -473M686 221l2 0M688 538l0 -473M688 221l1 0"/>
<path stroke="blue" d="M689 584l0 -499M689 163l2 0M691 584l0 -519M691 278l1 0M692 607l0 -530M692 336l2 0M694 549l0 -472M694 336l1 0M695 595l0 -472M695 278l2 0M697 595l0 -518M697 336l1 0M698 595l0 -472M698 278l2 0M700 595l0 -472M700 278l1 0M701 538l0 -473"/>
<path stroke="blue" d="M701 221l2 0M703 538l0 -473M703 278l1 0M704 595l0 -518M704 336l1 0M705 595l0 -472M705 278l1 0M706 595l0 -472M706 278l2 0M708 538l0 -473M708 221l1 0M709 538l0 -473M709 278l1 0M710 595l0 -472M710 278l1 0M711 538l0 -473M711 221l2 0"/>
<path stroke="blue" d="M713 538l0 -473M713 221l1 0M714 584l0 -499M714 163l2 0M716 595l0 -530M716 336l1 0M717 595l0 -518M717 278l2 0M719 595l0 -472M719 278l1 0M720 538l0 -473M720 221l2 0M722 595l0 -530M722 278l1 0M723 538l0 -473M723 221l2 0M725 538l0 -473"/>
<path stroke="blue" d="M725 221l1 0M726 584l0 -499M726 163l2 0M728 584l0 -519M728 278l1 0M729 595l0 -530M729 221l2 0M731 538l0 -473M731 221l1 0M732 584l0 -499M732 163l2 0M734 584l0 -519M734 221l1 0M735 584l0 -499M735 163l2 0M737 584l0 -499M737 163l1 0"/>
<path stroke="blue" d="M738 604l0 -498 2 0M740 609l0 -535M740 163l1 0M741 595l0 -530M741 466l1 83 0 -472M742 336l1 0M743 549l0 -472M743 336l2 0M745 595l0 -472M745 278l1 0M746 595l0 -472M746 336l1 0M747 549l0 -472M747 336l1 0M748 595l0 -472M748 278l1 0"/>
<path stroke="blue" d="M749 595l0 -472M749 346l1 21M750 595l0 -472M750 278l1 0M751 538l0 -473M751 221l2 0M753 595l0 -530M753 336l1 0M754 595l0 -472M754 278l2 0M756 595l0 -472M756 278l1 0M757 538l0 -473M757 221l2 0M759 595l0 -530M759 278l1 0M760 538l0 -473"/>
<path stroke="blue" d="M760 221l2 0M762 538l0 -473M762 221l1 0M763 584l0 -499M763 163l2 0M765 595l0 -530M765 595l1 -103M766 595l0 -518M766 278l2 0M768 595l0 -472M768 278l1 0M769 538l0 -473M769 221l2 0M771 595l0 -530M771 278l1 0M772 538l0 -473"/>
<path stroke="blue" d="M772 221l2 0M774 538l0 -473M774 221l1 0M775 584l0 -499M775 163l2 0M777 584l0 -493M777 190l1 -42M778 595l0 -530M778 221l2 0M780 538l0 -473M780 221l2 0M782 584l0 -499M782 163l1 0M783 584l0 -493M783 221l1 0M784 538l0 -473"/>
<path stroke="blue" d="M784 221l1 0M785 584l0 -499M785 163l1 0M786 584l0 -499M786 163l2 0M788 604l0 -498 2 0M790 609l0 -544M790 336l1 0M791 549l0 -472M791 278l2 0M793 595l0 -472M793 278l1 0M794 538l0 -473M794 221l2 0M796 595l0 -530M796 278l1 0"/>
<path stroke="blue" d="M797 538l0 -473M797 221l2 0M799 538l0 -473M799 221l1 0M800 584l0 -499M800 163l2 0M802 595l0 -530M802 123l1 78M803 538l0 -473M803 221l2 0M805 538l0 -473M805 221l1 0M806 584l0 -499M806 163l2 0M808 584l0 -519M808 221l1 0M809 584l0 -499"/>
<path stroke="blue" d="M809 163l2 0M811 584l0 -499M811 163l1 0M812 604l0 -498 2 0M814 609l0 -535M814 221l1 0M815 595l0 -530M815 221l2 0M817 538l0 -473M817 221l1 0M818 293l0 -72M818 293l1 83M819 584l0 -499M819 163l1 0M820 584l0 -493M820 221l1 0"/>
<path stroke="blue" d="M821 538l0 -473M821 221l1 0M822 584l0 -499M822 163l1 0M823 584l0 -499M823 163l2 0M825 604l0 -498 1 0M826 609l0 -535M826 163l1 0M827 584l0 -519M827 221l1 0M828 584l0 -499M828 163l2 0M830 584l0 -499M830 163l1 0M831 604l0 -498"/>
<path stroke="blue" d="M831 106l2 0M833 609l0 -535M833 163l1 0M834 604l0 -498 2 0M836 609l0 -535M836 106l1 0M837 624l0 -518M837 624l2 0 0 -550M839 221l1 0M840 595l0 -530M840 336l1 0M841 607l0 -530M841 451l1 0M842 587l0 -499M842 451l1 0M843 607l0 -473"/>
<path stroke="blue" d="M843 394l2 0M845 607l0 -519M845 451l1 0M846 607l0 -473M846 394l2 0M848 607l0 -473M848 394l1 0M849 549l0 -472M849 336l2 0M851 607l0 -530M851 451l1 0M852 607l0 -519M852 394l2 0M854 607l0 -473M854 394l1 0M855 549l0 -472M855 336l2 0"/>
<path stroke="blue" d="M857 549l0 -472M857 394l1 0M858 607l0 -473M858 394l1 0M859 549l0 -472M859 336l1 0M860 549l0 -472M860 336l2 0M862 595l0 -472M862 278l1 0M863 595l0 -472M863 336l1 0M864 607l0 -530M864 451l1 0M865 607l0 -473M865 394l2 0M867 607l0 -473"/>
<path stroke="blue" d="M867 394l1 0M868 549l0 -472M868 336l2 0M870 607l0 -530M870 394l1 0M871 549l0 -472M871 336l2 0M873 549l0 -472M873 336l1 0M874 595l0 -472M874 278l2 0M876 607l0 -530M876 394l1 0M877 549l0 -472M877 336l2 0M879 549l0 -472M879 336l1 0"/>
<path stroke="blue" d="M880 595l0 -472M880 278l2 0M882 595l0 -518M882 336l1 0M883 595l0 -472M883 278l2 0M885 595l0 -472M885 278l1 0M886 538l0 -473M886 221l2 0M888 595l0 -530M888 336l1 0M889 607l0 -530M889 394l2 0M891 607l0 -473M891 394l1 0M892 549l0 -472"/>
<path stroke="blue" d="M892 336l2 0M894 549l0 -472M894 394l1 0M895 607l0 -473M895 466l1 83 0 -472M896 336l1 0M897 549l0 -472M897 336l2 0M899 595l0 -472M899 278l1 0M900 595l0 -472M900 336l1 0M901 607l0 -530M901 394l1 0M902 549l0 -472M902 336l1 0"/>
<path stroke="blue" d="M903 549l0 -472M903 404l1 21M904 549l0 -472M904 336l1 0M905 595l0 -472M905 278l2 0M907 595l0 -518M907 336l1 0M908 595l0 -472M908 278l2 0M910 595l0 -472M910 278l1 0M911 538l0 -473M911 221l2 0M913 595l0 -530M913 394l1 0M914 607l0 -530"/>
<path stroke="blue" d="M914 336l2 0M916 549l0 -472M916 336l1 0M917 595l0 -472M917 278l2 0M919 595l0 -518M919 336l1 0M920 595l0 -472M920 278l2 0M922 595l0 -472M922 278l1 0M923 538l0 -473M923 221l2 0M925 595l0 -530M925 336l1 0M926 595l0 -518M926 278l2 0"/>
<path stroke="blue" d="M928 595l0 -472M928 278l1 0M929 538l0 -473M929 221l2 0M931 538l0 -473M931 247l1 -41M932 595l0 -530M932 221l2 0M934 538l0 -473M934 221l2 0M936 584l0 -499M936 163l1 0M937 584l0 -493M937 221l1 0M938 595l0 -530M938 394l1 0"/>
<path stroke="blue" d="M939 607l0 -473M939 394l1 0M940 607l0 -473M940 394l2 0M942 549l0 -472M942 336l2 0M944 607l0 -530M944 394l1 0M945 549l0 -472M945 336l2 0M947 549l0 -472M947 336l1 0M948 595l0 -472M948 278l2 0M950 607l0 -530M950 394l1 0M951 549l0 -472"/>
<path stroke="blue" d="M951 336l2 0M953 549l0 -472M953 336l1 0M954 595l0 -472M954 278l2 0M956 595l0 -518M956 336l1 0M957 595l0 -472M957 278l2 0M959 595l0 -472M959 278l1 0M960 538l0 -473M960 221l2 0M962 595l0 -530M962 336l1 0M963 607l0 -530M963 336l2 0"/>
<path stroke="blue" d="M965 549l0 -472M965 336l1 0M966 595l0 -472M966 278l2 0M968 595l0 -518M968 549l1 -472M969 595l0 -518M969 278l2 0M971 595l0 -472M971 278l1 0M972 351l0 -73M972 351l1 83M973 538l0 -473M973 221l1 0"/>
</svg>
