<?xml version="1.0" standalone="yes"?>
<!DOCTYPE svg PUBLIC "-//W3C//DTD SVG 1.1//EN"
 "http://www.w3.org/Graphics/SVG/1.1/DTD/svg11.dtd">
<svg xmlns="http://www.w3.org/2000/svg" version="1.1"
  width="100%" height="100%" viewBox="0 0 1024 768"
  style="fill: none; stroke-width: 3; font-family: Helvetica;
 font: Helvetica;
">

<!-- Creator: NGspice -->

<rect x="0" y="0" width="1024" height="768" fill="white" stroke="none"/>
<text stroke="none" fill="black" font-size="16" x="358" y="752">
time
</text>
<text stroke="none" fill="black" font-size="16" x="10" y="16">
tran1: Inputs 0-3 (Fast)
</text>
<path stroke="black" stroke-width="3" d="M50 704l0 -639"/>
<text stroke="none" fill="black" font-size="16" x="35" y="728">
0.0
</text>
<path stroke="black" stroke-width="3" stroke-dasharray="1,2" d="M204 704l0 -639"/>
<text stroke="none" fill="black" font-size="16" x="189" y="728">
0.5
</text>
<path stroke="black" stroke-width="3" stroke-dasharray="1,2" d="M358 704l0 -639"/>
<text stroke="none" fill="black" font-size="16" x="343" y="728">
1.0
</text>
<path stroke="black" stroke-width="3" stroke-dasharray="1,2" d="M512 704l0 -639"/>
<text stroke="none" fill="black" font-size="16" x="497" y="728">
1.5
</text>
<path stroke="black" stroke-width="3" stroke-dasharray="1,2" d="M666 704l0 -639"/>
<text stroke="none" fill="black" font-size="16" x="651" y="728">
2.0
</text>
<path stroke="black" stroke-width="3" stroke-dasharray="1,2" d="M820 704l0 -639"/>
<text stroke="none" fill="black" font-size="16" x="805" y="728">
2.5
</text>
<path stroke="black" stroke-width="3" stroke-dasharray="1,2" d="M974 704l0 -639"/>
<text stroke="none" fill="black" font-size="16" x="959" y="728">
3.0
</text>
<text stroke="none" fill="black" font-size="16" x="614" y="752">
us
</text>
<path stroke="black" stroke-width="3" d="M50 704l924 0"/>
<text stroke="none" fill="black" font-size="16" x="18" y="712">
0.0
</text>
<path stroke="black" stroke-width="3" stroke-dasharray="1,2" d="M50 633l924 0"/>
<text stroke="none" fill="black" font-size="16" x="18" y="641">
0.2
</text>
<path stroke="black" stroke-width="3" stroke-dasharray="1,2" d="M50 562l924 0"/>
<text stroke="none" fill="black" font-size="16" x="18" y="570">
0.4
</text>
<path stroke="black" stroke-width="3" stroke-dasharray="1,2" d="M50 491l924 0"/>
<text stroke="none" fill="black" font-size="16" x="18" y="499">
0.6
</text>
<path stroke="black" stroke-width="3" stroke-dasharray="1,2" d="M50 420l924 0"/>
<text stroke="none" fill="black" font-size="16" x="18" y="428">
0.8
</text>
<path stroke="black" stroke-width="3" stroke-dasharray="1,2" d="M50 349l924 0"/>
<text stroke="none" fill="black" font-size="16" x="18" y="357">
1.0
</text>
<path stroke="black" stroke-width="3" stroke-dasharray="1,2" d="M50 278l924 0"/>
<text stroke="none" fill="black" font-size="16" x="18" y="286">
1.2
</text>
<path stroke="black" stroke-width="3" stroke-dasharray="1,2" d="M50 207l924 0"/>
<text stroke="none" fill="black" font-size="16" x="18" y="215">
1.4
</text>
<path stroke="black" stroke-width="3" stroke-dasharray="1,2" d="M50 136l924 0"/>
<text stroke="none" fill="black" font-size="16" x="18" y="144">
1.6
</text>
<path stroke="black" stroke-width="3" stroke-dasharray="1,2" d="M50 65l924 0"/>
<text stroke="none" fill="black" font-size="16" x="18" y="73">
1.8
</text>
<text stroke="none" fill="black" font-size="16" x="10" y="32">
V
</text>
<path stroke="red" d="M462 23l46 0"/>
<text stroke="none" fill="black" font-size="16" x="518" y="32">
v(in_0)
</text>
<path stroke="red" d="M50 704l0 -639 2 0M52 704l0 -639M52 704l1 0 0 -639 2 0M55 704l0 -639M55 704l1 0 0 -639 2 0M58 704l0 -639M58 704l2 0 0 -639 1 0M61 704l0 -639M61 704l2 0 0 -639 1 0M64 704l0 -639M64 704l2 0 0 -639 1 0M67 704l0 -639M67 704l2 0"/>
<path stroke="red" d="M69 704l0 -639 1 0M70 704l0 -639M70 704l2 0 0 -639 1 0M73 704l0 -639M73 704l2 0 0 -639 1 0M76 704l0 -639M76 704l2 0 0 -639 1 0M79 704l0 -639M79 704l2 0 0 -639 1 0M82 704l0 -639M82 704l2 0 0 -639 1 0M85 704l0 -639M85 704l2 0"/>
<path stroke="red" d="M87 704l0 -639 2 0M89 704l0 -639M89 704l1 0 0 -639 2 0M92 704l0 -639M92 704l1 0 0 -639 2 0M95 704l0 -639M95 704l2 0 0 -639 1 0M98 704l0 -639M98 704l2 0 0 -639 1 0M101 704l0 -639M101 704l2 0 0 -639 1 0M104 704l0 -639M104 704l2 0"/>
<path stroke="red" d="M106 704l0 -639 1 0M107 704l0 -639M107 704l2 0 0 -639 1 0M110 704l0 -639M110 704l2 0 0 -639 1 0M113 704l0 -639M113 704l2 0 0 -639 1 0M116 704l0 -639M116 704l2 0 0 -639 1 0M119 704l0 -639M119 704l2 0 0 -639 1 0M122 704l0 -639"/>
<path stroke="red" d="M122 704l2 0 0 -639 1 0M125 154l0 -89M125 154l1 103M126 704l0 -447M126 704l1 0 0 -639 2 0M129 704l0 -639M129 704l1 0 0 -639 2 0M132 704l0 -639M132 704l1 0 0 -639 2 0M135 704l0 -639M135 704l2 0 0 -639 1 0M138 704l0 -639M138 704l2 0"/>
<path stroke="red" d="M140 704l0 -639 1 0M141 704l0 -639M141 704l2 0 0 -639 1 0M144 704l0 -639M144 704l2 0 0 -639 1 0M147 704l0 -639M147 704l2 0 0 -639 1 0M150 704l0 -639M150 704l2 0 0 -639 1 0M153 704l0 -639M153 704l2 0 0 -639 1 0M156 704l0 -639"/>
<path stroke="red" d="M156 704l2 0 0 -639 1 0M159 704l0 -639M159 704l2 0 0 -639 1 0M162 704l0 -639M162 704l2 0 0 -639 2 0M166 704l0 -639M166 704l1 0 0 -639 2 0M169 704l0 -639M169 704l1 0 0 -639 2 0M172 704l0 -639M172 704l2 0 0 -639 1 0M175 704l0 -639"/>
<path stroke="red" d="M175 704l2 0 0 -639 1 0M178 704l0 -639M178 704l2 0 0 -639 1 0M181 704l0 -639M181 704l2 0 0 -639 1 0M184 704l0 -639M184 704l2 0 0 -639 1 0M187 704l0 -639M187 704l2 0 0 -639 1 0M190 704l0 -639M190 704l2 0 0 -639 1 0M193 704l0 -639"/>
<path stroke="red" d="M193 704l2 0 0 -639 1 0M196 704l0 -639M196 704l2 0 0 -639 1 0M199 704l0 -639M199 704l2 0 0 -639 1 0M202 154l0 -89M202 154l1 103M203 704l0 -447M203 704l1 0 0 -639 2 0M206 704l0 -639M206 704l1 0 0 -639 2 0M209 704l0 -639M209 704l1 0"/>
<path stroke="red" d="M210 704l0 -639 2 0M212 704l0 -639M212 704l2 0 0 -639 1 0M215 704l0 -639M215 704l2 0 0 -639 1 0M218 704l0 -639M218 704l2 0 0 -639 1 0M221 704l0 -639M221 704l2 0 0 -639 1 0M224 704l0 -639M224 704l2 0 0 -639 1 0M227 704l0 -639"/>
<path stroke="red" d="M227 704l2 0 0 -639 1 0M230 704l0 -639M230 704l2 0 0 -639 1 0M233 704l0 -639M233 704l2 0 0 -639 1 0M236 704l0 -639M236 704l2 0 0 -639 1 0M239 704l0 -639M239 704l2 0 0 -639 2 0M243 704l0 -639M243 704l1 0 0 -639 2 0M246 704l0 -639"/>
<path stroke="red" d="M246 704l1 0 0 -639 2 0M249 704l0 -639M249 704l2 0 0 -639 1 0M252 704l0 -639M252 704l2 0 0 -639 1 0M255 704l0 -639M255 704l2 0 0 -639 1 0M258 704l0 -639M258 704l2 0 0 -639 1 0M261 704l0 -639M261 704l2 0 0 -639 1 0M264 704l0 -639"/>
<path stroke="red" d="M264 704l2 0 0 -639 1 0M267 704l0 -639M267 704l2 0 0 -639 1 0M270 704l0 -639M270 704l2 0 0 -639 1 0M273 704l0 -639M273 704l2 0 0 -639 1 0M276 704l0 -639M276 704l2 0 0 -639 1 0M279 154l0 -89M279 154l1 103M280 704l0 -447M280 704l1 0"/>
<path stroke="red" d="M281 704l0 -639 2 0M283 704l0 -639M283 704l1 0 0 -639 2 0M286 704l0 -639M286 704l1 0 0 -639 2 0M289 704l0 -639M289 704l2 0 0 -639 1 0M292 704l0 -639M292 704l2 0 0 -639 1 0M295 704l0 -639M295 704l2 0 0 -639 1 0M298 704l0 -639"/>
<path stroke="red" d="M298 704l2 0 0 -639 1 0M301 704l0 -639M301 704l2 0 0 -639 1 0M304 704l0 -639M304 704l2 0 0 -639 1 0M307 704l0 -639M307 704l2 0 0 -639 1 0M310 704l0 -639M310 704l2 0 0 -639 1 0M313 704l0 -639M313 704l2 0 0 -639 1 0M316 704l0 -639"/>
<path stroke="red" d="M316 704l2 0 0 -639 2 0M320 704l0 -639M320 704l1 0 0 -639 2 0M323 704l0 -639M323 704l1 0 0 -639 2 0M326 704l0 -639M326 704l2 0 0 -639 1 0M329 704l0 -639M329 704l2 0 0 -639 1 0M332 704l0 -639M332 704l2 0 0 -639 1 0M335 704l0 -639"/>
<path stroke="red" d="M335 704l2 0 0 -639 1 0M338 704l0 -639M338 704l2 0 0 -639 1 0M341 704l0 -639M341 704l2 0 0 -639 1 0M344 704l0 -639M344 704l2 0 0 -639 1 0M347 704l0 -639M347 704l2 0 0 -639 1 0M350 704l0 -639M350 704l2 0 0 -639 1 0M353 704l0 -639"/>
<path stroke="red" d="M353 704l2 0 0 -639 1 0M356 154l0 -89M356 154l1 103M357 704l0 -447M357 704l1 0 0 -639 2 0M360 704l0 -639M360 704l1 0 0 -639 2 0M363 704l0 -639M363 704l1 0 0 -639 2 0M366 704l0 -639M366 704l2 0 0 -639 1 0M369 704l0 -639M369 704l2 0"/>
<path stroke="red" d="M371 704l0 -639 1 0M372 704l0 -639M372 704l2 0 0 -639 1 0M375 704l0 -639M375 704l2 0 0 -639 1 0M378 704l0 -639M378 704l2 0 0 -639 1 0M381 704l0 -639M381 704l2 0 0 -639 1 0M384 704l0 -639M384 704l2 0 0 -639 1 0M387 704l0 -639"/>
<path stroke="red" d="M387 704l2 0 0 -639 1 0M390 704l0 -639M390 704l2 0 0 -639 1 0M393 704l0 -639M393 704l2 0 0 -639 2 0M397 704l0 -639M397 704l1 0 0 -639 2 0M400 704l0 -639M400 704l1 0 0 -639 2 0M403 704l0 -639M403 704l2 0 0 -639 1 0M406 704l0 -639"/>
<path stroke="red" d="M406 704l2 0 0 -639 1 0M409 704l0 -639M409 704l2 0 0 -639 1 0M412 704l0 -639M412 704l2 0 0 -639 1 0M415 704l0 -639M415 704l2 0 0 -639 1 0M418 704l0 -639M418 704l2 0 0 -639 1 0M421 704l0 -639M421 704l2 0 0 -639 1 0M424 704l0 -639"/>
<path stroke="red" d="M424 704l2 0 0 -639 1 0M427 704l0 -639M427 704l2 0 0 -639 1 0M430 704l0 -639M430 704l2 0 0 -639 1 0M433 154l0 -89M433 154l1 103M434 704l0 -447M434 704l1 0 0 -639 2 0M437 704l0 -639M437 704l1 0 0 -639 2 0M440 704l0 -639M440 704l1 0"/>
<path stroke="red" d="M441 704l0 -639 2 0M443 704l0 -639M443 704l2 0 0 -639 1 0M446 704l0 -639M446 704l2 0 0 -639 1 0M449 704l0 -639M449 704l2 0 0 -639 1 0M452 704l0 -639M452 704l2 0 0 -639 1 0M455 704l0 -639M455 704l2 0 0 -639 1 0M458 704l0 -639"/>
<path stroke="red" d="M458 704l2 0 0 -639 1 0M461 704l0 -639M461 704l2 0 0 -639 1 0M464 704l0 -639M464 704l2 0 0 -639 1 0M467 704l0 -639M467 704l2 0 0 -639 1 0M470 704l0 -639M470 704l2 0 0 -639 2 0M474 704l0 -639M474 704l1 0 0 -639 2 0M477 704l0 -639"/>
<path stroke="red" d="M477 704l1 0 0 -639 2 0M480 704l0 -639M480 704l2 0 0 -639 1 0M483 704l0 -639M483 704l2 0 0 -639 1 0M486 704l0 -639M486 704l2 0 0 -639 1 0M489 704l0 -639M489 704l2 0 0 -639 1 0M492 704l0 -639M492 704l2 0 0 -639 1 0M495 704l0 -639"/>
<path stroke="red" d="M495 704l2 0 0 -639 1 0M498 704l0 -639M498 704l2 0 0 -639 1 0M501 704l0 -639M501 704l2 0 0 -639 1 0M504 704l0 -639M504 704l2 0 0 -639 1 0M507 704l0 -639M507 704l2 0 0 -639 1 0M510 154l0 -89M510 154l1 103M511 704l0 -447M511 704l1 0"/>
<path stroke="red" d="M512 704l0 -639 2 0M514 704l0 -639M514 704l1 0 0 -639 2 0M517 704l0 -639M517 704l1 0 0 -639 2 0M520 704l0 -639M520 704l2 0 0 -639 1 0M523 704l0 -639M523 704l2 0 0 -639 1 0M526 704l0 -639M526 704l2 0 0 -639 1 0M529 704l0 -639"/>
<path stroke="red" d="M529 704l2 0 0 -639 1 0M532 704l0 -639M532 704l2 0 0 -639 1 0M535 704l0 -639M535 704l2 0 0 -639 1 0M538 704l0 -639M538 704l2 0 0 -639 1 0M541 704l0 -639M541 704l2 0 0 -639 1 0M544 704l0 -639M544 704l2 0 0 -639 1 0M547 704l0 -639"/>
<path stroke="red" d="M547 704l2 0 0 -639 2 0M551 704l0 -639M551 704l1 0 0 -639 2 0M554 704l0 -639M554 704l1 0 0 -639 2 0M557 704l0 -639M557 704l2 0 0 -639 1 0M560 704l0 -639M560 704l2 0 0 -639 1 0M563 704l0 -639M563 704l2 0 0 -639 1 0M566 704l0 -639"/>
<path stroke="red" d="M566 704l2 0 0 -639 1 0M569 704l0 -639M569 704l2 0 0 -639 1 0M572 704l0 -639M572 704l2 0 0 -639 1 0M575 704l0 -639M575 704l2 0 0 -639 1 0M578 704l0 -639M578 704l2 0 0 -639 1 0M581 704l0 -639M581 704l2 0 0 -639 1 0M584 704l0 -639"/>
<path stroke="red" d="M584 704l2 0 0 -639 1 0M587 154l0 -89M587 154l1 103M588 704l0 -447M588 704l1 0 0 -639 2 0M591 704l0 -639M591 704l1 0 0 -639 2 0M594 704l0 -639M594 704l1 0 0 -639 2 0M597 704l0 -639M597 704l2 0 0 -639 1 0M600 704l0 -639M600 704l2 0"/>
<path stroke="red" d="M602 704l0 -639 1 0M603 704l0 -639M603 704l2 0 0 -639 1 0M606 704l0 -639M606 704l2 0 0 -639 1 0M609 704l0 -639M609 704l2 0 0 -639 1 0M612 704l0 -639M612 704l2 0 0 -639 1 0M615 704l0 -639M615 704l2 0 0 -639 1 0M618 704l0 -639"/>
<path stroke="red" d="M618 704l2 0 0 -639 1 0M621 704l0 -639M621 704l2 0 0 -639 1 0M624 704l0 -639M624 704l2 0 0 -639 2 0M628 704l0 -639M628 704l1 0 0 -639 2 0M631 704l0 -639M631 704l1 0 0 -639 2 0M634 704l0 -639M634 704l2 0 0 -639 1 0M637 704l0 -639"/>
<path stroke="red" d="M637 704l2 0 0 -639 1 0M640 704l0 -639M640 704l2 0 0 -639 1 0M643 704l0 -639M643 704l2 0 0 -639 1 0M646 704l0 -639M646 704l2 0 0 -639 1 0M649 704l0 -639M649 704l2 0 0 -639 1 0M652 704l0 -639M652 704l2 0 0 -639 1 0M655 704l0 -639"/>
<path stroke="red" d="M655 704l2 0 0 -639 1 0M658 704l0 -639M658 704l2 0 0 -639 1 0M661 704l0 -639M661 704l2 0 0 -639 1 0M664 154l0 -89M664 154l1 103M665 704l0 -447M665 704l1 0 0 -639 2 0M668 704l0 -639M668 704l1 0 0 -639 2 0M671 704l0 -639M671 704l1 0"/>
<path stroke="red" d="M672 704l0 -639 2 0M674 704l0 -639M674 704l2 0 0 -639 1 0M677 704l0 -639M677 704l2 0 0 -639 1 0M680 704l0 -639M680 704l2 0 0 -639 1 0M683 704l0 -639M683 704l2 0 0 -639 1 0M686 704l0 -639M686 704l2 0 0 -639 1 0M689 704l0 -639"/>
<path stroke="red" d="M689 704l2 0 0 -639 1 0M692 704l0 -639M692 704l2 0 0 -639 1 0M695 704l0 -639M695 704l2 0 0 -639 1 0M698 704l0 -639M698 704l2 0 0 -639 1 0M701 704l0 -639M701 704l2 0 0 -639 2 0M705 704l0 -639M705 704l1 0 0 -639 2 0M708 704l0 -639"/>
<path stroke="red" d="M708 704l1 0 0 -639 2 0M711 704l0 -639M711 704l2 0 0 -639 1 0M714 704l0 -639M714 704l2 0 0 -639 1 0M717 704l0 -639M717 704l2 0 0 -639 1 0M720 704l0 -639M720 704l2 0 0 -639 1 0M723 704l0 -639M723 704l2 0 0 -639 1 0M726 704l0 -639"/>
<path stroke="red" d="M726 704l2 0 0 -639 1 0M729 704l0 -639M729 704l2 0 0 -639 1 0M732 704l0 -639M732 704l2 0 0 -639 1 0M735 704l0 -639M735 704l2 0 0 -639 1 0M738 704l0 -639M738 704l2 0 0 -639 1 0M741 154l0 -89M741 154l1 103M742 704l0 -447M742 704l1 0"/>
<path stroke="red" d="M743 704l0 -639 2 0M745 704l0 -639M745 704l1 0 0 -639 2 0M748 704l0 -639M748 704l1 0 0 -639 2 0M751 704l0 -639M751 704l2 0 0 -639 1 0M754 704l0 -639M754 704l2 0 0 -639 1 0M757 704l0 -639M757 704l2 0 0 -639 1 0M760 704l0 -639"/>
<path stroke="red" d="M760 704l2 0 0 -639 1 0M763 704l0 -639M763 704l2 0 0 -639 1 0M766 704l0 -639M766 704l2 0 0 -639 1 0M769 704l0 -639M769 704l2 0 0 -639 1 0M772 704l0 -639M772 704l2 0 0 -639 1 0M775 704l0 -639M775 704l2 0 0 -639 1 0M778 704l0 -639"/>
<path stroke="red" d="M778 704l2 0 0 -639 2 0M782 704l0 -639M782 704l1 0 0 -639 2 0M785 704l0 -639M785 704l1 0 0 -639 2 0M788 704l0 -639M788 704l2 0 0 -639 1 0M791 704l0 -639M791 704l2 0 0 -639 1 0M794 704l0 -639M794 704l2 0 0 -639 1 0M797 704l0 -639"/>
<path stroke="red" d="M797 704l2 0 0 -639 1 0M800 704l0 -639M800 704l2 0 0 -639 1 0M803 704l0 -639M803 704l2 0 0 -639 1 0M806 704l0 -639M806 704l2 0 0 -639 1 0M809 704l0 -639M809 704l2 0 0 -639 1 0M812 704l0 -639M812 704l2 0 0 -639 1 0M815 704l0 -639"/>
<path stroke="red" d="M815 704l2 0 0 -639 1 0M818 154l0 -89M818 154l1 103M819 704l0 -447M819 704l1 0 0 -639 2 0M822 704l0 -639M822 704l1 0 0 -639 2 0M825 704l0 -639M825 704l1 0 0 -639 2 0M828 704l0 -639M828 704l2 0 0 -639 1 0M831 704l0 -639M831 704l2 0"/>
<path stroke="red" d="M833 704l0 -639 1 0M834 704l0 -639M834 704l2 0 0 -639 1 0M837 704l0 -639M837 704l2 0 0 -639 1 0M840 704l0 -639M840 704l2 0 0 -639 1 0M843 704l0 -639M843 704l2 0 0 -639 1 0M846 704l0 -639M846 704l2 0 0 -639 1 0M849 704l0 -639"/>
<path stroke="red" d="M849 704l2 0 0 -639 1 0M852 704l0 -639M852 704l2 0 0 -639 1 0M855 704l0 -639M855 704l2 0 0 -639 2 0M859 704l0 -639M859 704l1 0 0 -639 2 0M862 704l0 -639M862 704l1 0 0 -639 2 0M865 704l0 -639M865 704l2 0 0 -639 1 0M868 704l0 -639"/>
<path stroke="red" d="M868 704l2 0 0 -639 1 0M871 704l0 -639M871 704l2 0 0 -639 1 0M874 704l0 -639M874 704l2 0 0 -639 1 0M877 704l0 -639M877 704l2 0 0 -639 1 0M880 704l0 -639M880 704l2 0 0 -639 1 0M883 704l0 -639M883 704l2 0 0 -639 1 0M886 704l0 -639"/>
<path stroke="red" d="M886 704l2 0 0 -639 1 0M889 704l0 -639M889 704l2 0 0 -639 1 0M892 704l0 -639M892 704l2 0 0 -639 1 0M895 154l0 -89M895 154l1 103M896 704l0 -447M896 704l1 0 0 -639 2 0M899 704l0 -639M899 704l1 0 0 -639 2 0M902 704l0 -639M902 704l1 0"/>
<path stroke="red" d="M903 704l0 -639 2 0M905 704l0 -639M905 704l2 0 0 -639 1 0M908 704l0 -639M908 704l2 0 0 -639 1 0M911 704l0 -639M911 704l2 0 0 -639 1 0M914 704l0 -639M914 704l2 0 0 -639 1 0M917 704l0 -639M917 704l2 0 0 -639 1 0M920 704l0 -639"/>
<path stroke="red" d="M920 704l2 0 0 -639 1 0M923 704l0 -639M923 704l2 0 0 -639 1 0M926 704l0 -639M926 704l2 0 0 -639 1 0M929 704l0 -639M929 704l2 0 0 -639 1 0M932 704l0 -639M932 704l2 0 0 -639 2 0M936 704l0 -639M936 704l1 0 0 -639 2 0M939 704l0 -639"/>
<path stroke="red" d="M939 704l1 0 0 -639 2 0M942 704l0 -639M942 704l2 0 0 -639 1 0M945 704l0 -639M945 704l2 0 0 -639 1 0M948 704l0 -639M948 704l2 0 0 -639 1 0M951 704l0 -639M951 704l2 0 0 -639 1 0M954 704l0 -639M954 704l2 0 0 -639 1 0M957 704l0 -639"/>
<path stroke="red" d="M957 704l2 0 0 -639 1 0M960 704l0 -639M960 704l2 0 0 -639 1 0M963 704l0 -639M963 704l2 0 0 -639 1 0M966 704l0 -639M966 704l2 0 0 -639 1 0M969 704l0 -639M969 704l2 0 0 -639 1 0M972 154l0 -89M972 154l1 103M973 704l0 -447M973 704l1 0"/>
<path stroke="blue" d="M50 23l46 0"/>
<text stroke="none" fill="black" font-size="16" x="106" y="32">
v(in_1)
</text>
<path stroke="blue" d="M50 704l1 0 0 -639 2 0M53 704l0 -639M53 704l4 0 0 -639 3 0M60 704l0 -639M60 704l3 0 0 -639 3 0M66 704l0 -639M66 704l3 0 0 -639 3 0M72 704l0 -639M72 704l3 0 0 -639 3 0M78 704l0 -639M78 704l3 0 0 -639 3 0M84 704l0 -639M84 704l4 0"/>
<path stroke="blue" d="M88 704l0 -639 2 0M90 704l0 -639M90 704l4 0 0 -639 3 0M97 704l0 -639M97 704l3 0 0 -639 3 0M103 704l0 -639M103 704l3 0 0 -639 3 0M109 704l0 -639M109 704l3 0 0 -639 3 0M115 704l0 -639M115 704l3 0 0 -639 3 0M121 704l0 -639"/>
<path stroke="blue" d="M121 704l4 0 0 -639 2 0M127 704l0 -639M127 704l4 0 0 -639 2 0M133 78l0 -13M133 78l1 25M134 704l0 -601M134 704l3 0 0 -639 3 0M140 704l0 -639M140 704l3 0 0 -639 3 0M146 704l0 -639M146 704l3 0 0 -639 3 0M152 704l0 -639M152 704l3 0"/>
<path stroke="blue" d="M155 704l0 -639 3 0M158 704l0 -639M158 704l3 0 0 -38 1 -51 0 -550 2 0M164 704l0 -639M164 704l4 0 0 -639 2 0M170 704l0 -639M170 704l4 0 0 -639 3 0M177 704l0 -639M177 704l3 0 0 -639 3 0M183 704l0 -639M183 704l3 0 0 -639 3 0"/>
<path stroke="blue" d="M189 704l0 -639M189 704l3 0 0 -639 3 0M195 704l0 -639M195 704l3 0 0 -639 3 0M201 704l0 -639M201 704l4 0 0 -639 2 0M207 704l0 -639M207 704l4 0 0 -639 3 0M214 704l0 -639M214 704l3 0 0 -639 3 0M220 704l0 -639M220 704l3 0 0 -639"/>
<path stroke="blue" d="M223 65l3 0M226 704l0 -639M226 704l3 0 0 -639 3 0M232 704l0 -639M232 704l3 0 0 -639 3 0M238 704l0 -639M238 704l4 0 0 -639 2 0M244 704l0 -639M244 704l4 0 0 -639 3 0M251 704l0 -639M251 704l3 0 0 -639 3 0M257 704l0 -639M257 704l3 0"/>
<path stroke="blue" d="M260 704l0 -639 3 0M263 704l0 -639M263 704l3 0 0 -639 3 0M269 704l0 -639M269 704l3 0 0 -639 3 0M275 704l0 -639M275 704l4 0 0 -639 2 0M281 704l0 -639M281 704l4 0 0 -639 2 0M287 78l0 -13M287 78l1 25M288 704l0 -601M288 704l3 0"/>
<path stroke="blue" d="M291 704l0 -639 3 0M294 704l0 -639M294 704l3 0 0 -639 3 0M300 704l0 -639M300 704l3 0 0 -639 3 0M306 704l0 -639M306 704l3 0 0 -639 3 0M312 704l0 -639M312 704l3 0 0 -38 1 -51 0 -550 2 0M318 704l0 -639M318 704l4 0 0 -639 2 0"/>
<path stroke="blue" d="M324 704l0 -639M324 704l4 0 0 -639 3 0M331 704l0 -639M331 704l3 0 0 -639 3 0M337 704l0 -639M337 704l3 0 0 -639 3 0M343 704l0 -639M343 704l3 0 0 -639 3 0M349 704l0 -639M349 704l3 0 0 -639 3 0M355 704l0 -639M355 704l4 0 0 -639"/>
<path stroke="blue" d="M359 65l2 0M361 704l0 -639M361 704l4 0 0 -639 3 0M368 704l0 -639M368 704l3 0 0 -639 3 0M374 704l0 -639M374 704l3 0 0 -639 3 0M380 704l0 -639M380 704l3 0 0 -639 3 0M386 704l0 -639M386 704l3 0 0 -639 3 0M392 704l0 -639M392 704l4 0"/>
<path stroke="blue" d="M396 704l0 -639 2 0M398 704l0 -639M398 704l4 0 0 -639 3 0M405 704l0 -639M405 704l3 0 0 -639 3 0M411 704l0 -639M411 704l3 0 0 -639 3 0M417 704l0 -639M417 704l3 0 0 -639 3 0M423 704l0 -639M423 704l3 0 0 -639 3 0M429 704l0 -639"/>
<path stroke="blue" d="M429 704l4 0 0 -639 2 0M435 704l0 -639M435 704l4 0 0 -639 2 0M441 78l0 -13M441 78l1 25M442 704l0 -601M442 704l3 0 0 -639 3 0M448 704l0 -639M448 704l3 0 0 -639 3 0M454 704l0 -639M454 704l3 0 0 -639 3 0M460 704l0 -639M460 704l3 0"/>
<path stroke="blue" d="M463 704l0 -639 3 0M466 704l0 -639M466 704l3 0 0 -38 1 -51 0 -550 2 0M472 704l0 -639M472 704l4 0 0 -639 2 0M478 704l0 -639M478 704l4 0 0 -639 3 0M485 704l0 -639M485 704l3 0 0 -639 3 0M491 704l0 -639M491 704l3 0 0 -639 3 0"/>
<path stroke="blue" d="M497 704l0 -639M497 704l3 0 0 -639 3 0M503 704l0 -639M503 704l3 0 0 -639 3 0M509 704l0 -639M509 704l4 0 0 -639 2 0M515 704l0 -639M515 704l4 0 0 -639 3 0M522 704l0 -639M522 704l3 0 0 -639 3 0M528 704l0 -639M528 704l3 0 0 -639"/>
<path stroke="blue" d="M531 65l3 0M534 704l0 -639M534 704l3 0 0 -639 3 0M540 704l0 -639M540 704l3 0 0 -639 3 0M546 704l0 -639M546 704l4 0 0 -639 2 0M552 704l0 -639M552 704l4 0 0 -639 3 0M559 704l0 -639M559 704l3 0 0 -639 3 0M565 704l0 -639M565 704l3 0"/>
<path stroke="blue" d="M568 704l0 -639 3 0M571 704l0 -639M571 704l3 0 0 -639 3 0M577 704l0 -639M577 704l3 0 0 -639 3 0M583 704l0 -639M583 704l4 0 0 -639 2 0M589 704l0 -639M589 704l4 0 0 -639 2 0M595 78l0 -13M595 78l1 25M596 704l0 -601M596 704l3 0"/>
<path stroke="blue" d="M599 704l0 -639 3 0M602 704l0 -639M602 704l3 0 0 -639 3 0M608 704l0 -639M608 704l3 0 0 -639 3 0M614 704l0 -639M614 704l3 0 0 -639 3 0M620 704l0 -639M620 704l3 0 0 -38 1 -51 0 -550 2 0M626 704l0 -639M626 704l4 0 0 -639 2 0"/>
<path stroke="blue" d="M632 704l0 -639M632 704l4 0 0 -639 3 0M639 704l0 -639M639 704l3 0 0 -639 3 0M645 704l0 -639M645 704l3 0 0 -639 3 0M651 704l0 -639M651 704l3 0 0 -639 3 0M657 704l0 -639M657 704l3 0 0 -639 3 0M663 704l0 -639M663 704l4 0 0 -639"/>
<path stroke="blue" d="M667 65l2 0M669 704l0 -639M669 704l4 0 0 -639 3 0M676 704l0 -639M676 704l3 0 0 -639 3 0M682 704l0 -639M682 704l3 0 0 -639 3 0M688 704l0 -639M688 704l3 0 0 -639 3 0M694 704l0 -639M694 704l3 0 0 -639 3 0M700 704l0 -639M700 704l4 0"/>
<path stroke="blue" d="M704 704l0 -639 2 0M706 704l0 -639M706 704l4 0 0 -639 3 0M713 704l0 -639M713 704l3 0 0 -639 3 0M719 704l0 -639M719 704l3 0 0 -639 3 0M725 704l0 -639M725 704l3 0 0 -639 3 0M731 704l0 -639M731 704l3 0 0 -639 3 0M737 704l0 -639"/>
<path stroke="blue" d="M737 704l4 0 0 -639 2 0M743 704l0 -639M743 704l4 0 0 -639 2 0M749 78l0 -13M749 78l1 25M750 704l0 -601M750 704l3 0 0 -639 3 0M756 704l0 -639M756 704l3 0 0 -639 3 0M762 704l0 -639M762 704l3 0 0 -639 3 0M768 704l0 -639M768 704l3 0"/>
<path stroke="blue" d="M771 704l0 -639 3 0M774 704l0 -639M774 704l3 0 0 -38 1 -51 0 -550 2 0M780 704l0 -639M780 704l4 0 0 -639 2 0M786 704l0 -639M786 704l4 0 0 -639 3 0M793 704l0 -639M793 704l3 0 0 -639 3 0M799 704l0 -639M799 704l3 0 0 -639 3 0"/>
<path stroke="blue" d="M805 704l0 -639M805 704l3 0 0 -639 3 0M811 704l0 -639M811 704l3 0 0 -639 3 0M817 704l0 -639M817 704l4 0 0 -639 2 0M823 704l0 -639M823 704l4 0 0 -639 3 0M830 704l0 -639M830 704l3 0 0 -639 3 0M836 704l0 -639M836 704l3 0 0 -639"/>
<path stroke="blue" d="M839 65l3 0M842 704l0 -639M842 704l3 0 0 -639 3 0M848 704l0 -639M848 704l3 0 0 -639 3 0M854 704l0 -639M854 704l4 0 0 -639 2 0M860 704l0 -639M860 704l4 0 0 -639 3 0M867 704l0 -639M867 704l3 0 0 -639 3 0M873 704l0 -639M873 704l3 0"/>
<path stroke="blue" d="M876 704l0 -639 3 0M879 704l0 -639M879 704l3 0 0 -639 3 0M885 704l0 -639M885 704l3 0 0 -639 3 0M891 704l0 -639M891 704l4 0 0 -639 2 0M897 704l0 -639M897 704l4 0 0 -639 2 0M903 78l0 -13M903 78l1 25M904 704l0 -601M904 704l3 0"/>
<path stroke="blue" d="M907 704l0 -639 3 0M910 704l0 -639M910 704l3 0 0 -639 3 0M916 704l0 -639M916 704l3 0 0 -639 3 0M922 704l0 -639M922 704l3 0 0 -639 3 0M928 704l0 -639M928 704l3 0 0 -38 1 -51 0 -550 2 0M934 704l0 -639M934 704l4 0 0 -639 2 0"/>
<path stroke="blue" d="M940 704l0 -639M940 704l4 0 0 -639 3 0M947 704l0 -639M947 704l3 0 0 -639 3 0M953 704l0 -639M953 704l3 0 0 -639 3 0M959 704l0 -639M959 704l3 0 0 -639 3 0M965 704l0 -639M965 704l3 0 0 -639 3 0M971 704l0 -639M971 704l3 0"/>
<path stroke="darkgreen" d="M462 39l46 0"/>
<text stroke="none" fill="black" font-size="16" x="518" y="48">
v(in_2)
</text>
<path stroke="darkgreen" d="M50 704l1 0 0 -639 6 0M57 704l0 -639M57 704l6 0 0 -639 6 0M69 704l0 -639M69 704l7 0 0 -639 5 0M81 704l0 -639M81 704l7 0 0 -639 6 0M94 704l0 -639M94 704l6 0 0 -639 6 0M106 704l0 -639M106 704l7 0 0 -639 5 0M118 704l0 -639"/>
<path stroke="darkgreen" d="M118 704l7 0 0 -639 6 0M131 704l0 -639M131 704l6 0 0 -639 6 0M143 704l0 -639M143 704l6 0 0 -320 1 -127 0 -192 5 0M155 704l0 -639M155 704l7 0 0 -639 6 0M168 704l0 -639M168 704l6 0 0 -639 6 0M180 704l0 -639M180 704l6 0"/>
<path stroke="darkgreen" d="M186 704l0 -639 6 0M192 704l0 -639M192 704l7 0 0 -639 6 0M205 704l0 -639M205 704l6 0 0 -639 6 0M217 704l0 -639M217 704l6 0 0 -639 6 0M229 704l0 -639M229 704l7 0 0 -639 6 0M242 704l0 -639M242 704l6 0 0 -639 6 0M254 704l0 -639"/>
<path stroke="darkgreen" d="M254 704l6 0 0 -639 6 0M266 704l0 -639M266 704l7 0 0 -639 6 0M279 704l0 -639M279 704l6 0 0 -639 6 0M291 704l0 -639M291 704l6 0 0 -639 6 0M303 704l0 -639M303 704l7 0 0 -639 6 0M316 704l0 -639M316 704l6 0 0 -639 6 0"/>
<path stroke="darkgreen" d="M328 704l0 -639M328 704l6 0 0 -639 6 0M340 704l0 -639M340 704l7 0 0 -639 5 0M352 257l0 -192M352 257l1 127M353 704l0 -320M353 704l6 0 0 -639 6 0M365 704l0 -639M365 704l6 0 0 -639 6 0M377 704l0 -639M377 704l7 0 0 -639"/>
<path stroke="darkgreen" d="M384 65l5 0M389 704l0 -639M389 704l7 0 0 -639 6 0M402 704l0 -639M402 704l6 0 0 -639 6 0M414 704l0 -639M414 704l7 0 0 -639 5 0M426 704l0 -639M426 704l7 0 0 -639 6 0M439 704l0 -639M439 704l6 0 0 -639 6 0M451 704l0 -639"/>
<path stroke="darkgreen" d="M451 704l6 0 0 -319 1 -128 0 -192 5 0M463 704l0 -639M463 704l7 0 0 -639 6 0M476 704l0 -639M476 704l6 0 0 -639 6 0M488 704l0 -639M488 704l6 0 0 -639 6 0M500 704l0 -639M500 704l7 0 0 -639 6 0M513 704l0 -639M513 704l6 0"/>
<path stroke="darkgreen" d="M519 704l0 -639 6 0M525 704l0 -639M525 704l6 0 0 -639 6 0M537 704l0 -639M537 704l7 0 0 -639 6 0M550 704l0 -639M550 704l6 0 0 -639 6 0M562 704l0 -639M562 704l6 0 0 -639 6 0M574 704l0 -639M574 704l7 0 0 -639 6 0M587 704l0 -639"/>
<path stroke="darkgreen" d="M587 704l6 0 0 -639 6 0M599 704l0 -639M599 704l6 0 0 -639 6 0M611 704l0 -639M611 704l7 0 0 -639 6 0M624 704l0 -639M624 704l6 0 0 -639 6 0M636 704l0 -639M636 704l6 0 0 -639 6 0M648 704l0 -639M648 704l7 0 0 -639 5 0"/>
<path stroke="darkgreen" d="M660 257l0 -192M660 257l1 128M661 704l0 -319M661 704l6 0 0 -639 6 0M673 704l0 -639M673 704l6 0 0 -639 6 0M685 704l0 -639M685 704l7 0 0 -639 5 0M697 704l0 -639M697 704l7 0 0 -639 6 0M710 704l0 -639M710 704l6 0 0 -639"/>
<path stroke="darkgreen" d="M716 65l6 0M722 704l0 -639M722 704l7 0 0 -639 5 0M734 704l0 -639M734 704l7 0 0 -639 6 0M747 704l0 -639M747 704l6 0 0 -639 6 0M759 704l0 -639M759 704l6 0 0 -320 1 -127 0 -192 5 0M771 704l0 -639M771 704l7 0 0 -639 6 0"/>
<path stroke="darkgreen" d="M784 704l0 -639M784 704l6 0 0 -639 6 0M796 704l0 -639M796 704l6 0 0 -639 6 0M808 704l0 -639M808 704l7 0 0 -639 6 0M821 704l0 -639M821 704l6 0 0 -639 6 0M833 704l0 -639M833 704l6 0 0 -639 6 0M845 704l0 -639M845 704l7 0"/>
<path stroke="darkgreen" d="M852 704l0 -639 6 0M858 704l0 -639M858 704l6 0 0 -639 6 0M870 704l0 -639M870 704l6 0 0 -639 6 0M882 704l0 -639M882 704l7 0 0 -639 6 0M895 704l0 -639M895 704l6 0 0 -639 6 0M907 704l0 -639M907 704l6 0 0 -639 6 0M919 704l0 -639"/>
<path stroke="darkgreen" d="M919 704l7 0 0 -639 6 0M932 704l0 -639M932 704l6 0 0 -639 6 0M944 704l0 -639M944 704l6 0 0 -639 6 0M956 704l0 -639M956 704l7 0 0 -639 5 0M968 257l0 -192M968 257l1 128M969 704l0 -319M969 704l5 0"/>
<path stroke="green" d="M50 39l46 0"/>
<text stroke="none" fill="black" font-size="16" x="106" y="48">
v(in_3)
</text>
<path stroke="green" d="M50 704l1 0 0 -639 12 0M63 704l0 -639M63 704l13 0 0 -639 12 0M88 704l0 -639M88 704l13 0 0 -639 12 0M113 704l0 -639M113 704l12 0 0 -639 12 0M137 704l0 -639M137 704l13 0 0 -639 12 0M162 704l0 -639M162 704l12 0 0 -639 12 0"/>
<path stroke="green" d="M186 512l0 -447M186 512l1 96M187 704l0 -96M187 704l12 0 0 -639 12 0M211 704l0 -639M211 704l13 0 0 -639 12 0M236 704l0 -639M236 704l12 0 0 -639 12 0M260 704l0 -639M260 704l13 0 0 -639 12 0M285 704l0 -639M285 704l13 0 0 -639"/>
<path stroke="green" d="M298 65l12 0M310 704l0 -639M310 704l12 0 0 -639 12 0M334 704l0 -639M334 704l13 0 0 -639 12 0M359 704l0 -639M359 704l13 0 0 -639 12 0M384 704l0 -639M384 704l12 0 0 -639 12 0M408 704l0 -639M408 704l13 0 0 -639 12 0M433 704l0 -639"/>
<path stroke="green" d="M433 704l12 0 0 -543 1 -96 12 0M458 704l0 -639M458 704l12 0 0 -639 12 0M482 704l0 -639M482 704l13 0 0 -639 12 0M507 704l0 -639M507 704l12 0 0 -639 12 0M531 704l0 -639M531 704l13 0 0 -639 12 0M556 704l0 -639M556 704l13 0"/>
<path stroke="green" d="M569 704l0 -639 12 0M581 704l0 -639M581 704l12 0 0 -639 12 0M605 704l0 -639M605 704l13 0 0 -639 12 0M630 704l0 -639M630 704l13 0 0 -639 12 0M655 704l0 -639M655 704l12 0 0 -639 12 0M679 704l0 -639M679 704l13 0 0 -639 12 0"/>
<path stroke="green" d="M704 704l0 -639M704 704l13 0 0 -639 12 0M729 704l0 -639M729 704l12 0 0 -639 12 0M753 704l0 -639M753 704l13 0 0 -639 12 0M778 704l0 -639M778 704l12 0 0 -639 12 0M802 512l0 -447M802 512l1 96M803 704l0 -96M803 704l12 0 0 -639"/>
<path stroke="green" d="M815 65l12 0M827 704l0 -639M827 704l13 0 0 -639 12 0M852 704l0 -639M852 704l12 0 0 -639 12 0M876 704l0 -639M876 704l13 0 0 -639 12 0M901 704l0 -639M901 704l13 0 0 -639 12 0M926 704l0 -639M926 704l12 0 0 -639 12 0M950 704l0 -639"/>
<path stroke="green" d="M950 704l13 0 0 -639 11 0"/>
</svg>
