<?xml version="1.0" standalone="yes"?>
<!DOCTYPE svg PUBLIC "-//W3C//DTD SVG 1.1//EN"
 "http://www.w3.org/Graphics/SVG/1.1/DTD/svg11.dtd">
<svg xmlns="http://www.w3.org/2000/svg" version="1.1"
  width="100%" height="100%" viewBox="0 0 1024 768"
  style="fill: none; stroke-width: 3; font-family: Helvetica;
 font: Helvetica;
">

<!-- Creator: NGspice -->

<rect x="0" y="0" width="1024" height="768" fill="white" stroke="none"/>
<text stroke="none" fill="black" font-size="16" x="358" y="752">
time
</text>
<text stroke="none" fill="black" font-size="16" x="10" y="16">
tran1: Cumulative Energy Consumption
</text>
<path stroke="black" stroke-width="3" d="M60 704l0 -636"/>
<text stroke="none" fill="black" font-size="16" x="45" y="728">
0.0
</text>
<path stroke="black" stroke-width="3" stroke-dasharray="1,2" d="M210 704l0 -636"/>
<text stroke="none" fill="black" font-size="16" x="195" y="728">
0.5
</text>
<path stroke="black" stroke-width="3" stroke-dasharray="1,2" d="M360 704l0 -636"/>
<text stroke="none" fill="black" font-size="16" x="345" y="728">
1.0
</text>
<path stroke="black" stroke-width="3" stroke-dasharray="1,2" d="M510 704l0 -636"/>
<text stroke="none" fill="black" font-size="16" x="495" y="728">
1.5
</text>
<path stroke="black" stroke-width="3" stroke-dasharray="1,2" d="M660 704l0 -636"/>
<text stroke="none" fill="black" font-size="16" x="645" y="728">
2.0
</text>
<path stroke="black" stroke-width="3" stroke-dasharray="1,2" d="M810 704l0 -636"/>
<text stroke="none" fill="black" font-size="16" x="795" y="728">
2.5
</text>
<path stroke="black" stroke-width="3" stroke-dasharray="1,2" d="M960 704l0 -636"/>
<text stroke="none" fill="black" font-size="16" x="945" y="728">
3.0
</text>
<text stroke="none" fill="black" font-size="16" x="614" y="752">
us
</text>
<path stroke="black" stroke-width="3" stroke-dasharray="1,2" d="M60 704l900 0"/>
<text stroke="none" fill="black" font-size="16" x="18" y="712">
-5.0
</text>
<path stroke="black" stroke-width="3" d="M60 598l900 0"/>
<text stroke="none" fill="black" font-size="16" x="28" y="606">
0.0
</text>
<path stroke="black" stroke-width="3" stroke-dasharray="1,2" d="M60 492l900 0"/>
<text stroke="none" fill="black" font-size="16" x="28" y="500">
5.0
</text>
<path stroke="black" stroke-width="3" stroke-dasharray="1,2" d="M60 386l900 0"/>
<text stroke="none" fill="black" font-size="16" x="18" y="394">
10.0
</text>
<path stroke="black" stroke-width="3" stroke-dasharray="1,2" d="M60 280l900 0"/>
<text stroke="none" fill="black" font-size="16" x="18" y="288">
15.0
</text>
<path stroke="black" stroke-width="3" stroke-dasharray="1,2" d="M60 174l900 0"/>
<text stroke="none" fill="black" font-size="16" x="18" y="182">
20.0
</text>
<path stroke="black" stroke-width="3" stroke-dasharray="1,2" d="M60 68l900 0"/>
<text stroke="none" fill="black" font-size="16" x="18" y="76">
25.0
</text>
<text stroke="none" fill="black" font-size="16" x="10" y="32">
p     
</text>
<path stroke="red" d="M450 23l45 0"/>
<text stroke="none" fill="black" font-size="16" x="505" y="32">
total_energy
</text>
<path stroke="red" d="M60 599l0 -1M60 599l1 0 0 -2 1 0 0 -1 3 0 0 -2 1 0M66 595l0 -1M66 595l1 0 0 -1 1 0 0 -1 3 0 0 -1 1 0 0 -1 2 0 0 -2 1 0M75 590l0 -1 2 0 0 -1 1 0M78 589l0 -1 1 0 0 -2 2 0M81 587l0 -1M81 587l2 0 0 -3 1 0M84 585l0 -1M84 585l1 0"/>
<path stroke="red" d="M85 585l0 -2 4 0 0 -2 1 0M90 582l0 -1 1 0 0 -1M91 581l1 0 0 -1 3 0 0 -2 1 0M96 579l0 -1 1 0 0 -1 1 0 0 -1M98 577l1 0 0 -1 2 0 0 -1 2 0 0 -2 4 0 0 -2 1 0M108 572l0 -1 1 0M109 572l0 -2 1 0 0 -1 3 0 0 -2M113 568l2 0 0 -1 1 0"/>
<path stroke="red" d="M116 567l0 -1 3 0 0 -1 1 0 0 -1M120 565l1 0 0 -1 1 0 0 -1 3 0 0 -2 1 0M126 562l0 -1 1 0 0 -1 1 0 0 -1 1 0M129 560l0 -1 2 0 0 -1 2 0 0 -3 1 0 0 -1M134 555l3 0 0 -3 1 0M138 553l0 -1M138 553l1 0 0 -1M139 553l1 0 0 -2 3 0 0 -1"/>
<path stroke="red" d="M143 550l1 0M144 551l0 -1 1 0 0 -1 1 0 0 -1 3 0 0 -1 1 0 0 -1 1 0 0 -1 4 0 0 -2 1 0M156 544l0 -1M156 544l1 0 0 -3 1 0M158 542l0 -1 1 0M159 542l0 -1 2 0 0 -1 2 0 0 -1 1 0 0 -1 1 0M165 539l0 -1 2 0 0 -1 2 0 0 -1 1 0 0 -1 3 0"/>
<path stroke="red" d="M173 535l0 -2 1 0M174 534l0 -1 1 0 0 -1 1 0 0 -1 1 0M177 532l0 -1M177 532l2 0 0 -2 2 0 0 -3 1 0M182 528l0 -1M182 528l1 0 0 -1M183 528l2 0 0 -3 1 0M186 526l0 -1M186 526l1 0 0 -1 1 0 0 -1 3 0 0 -1 1 0 0 -1 2 0 0 -1 3 0 0 -1"/>
<path stroke="red" d="M197 520l1 0 0 -1 1 0 0 -1 1 0 0 -1M200 518l3 0 0 -3 1 0M204 516l0 -1M204 516l1 0 0 -2 4 0 0 -2 2 0M211 513l0 -1 1 0 0 -2 1 0M213 511l0 -1 2 0 0 -1 1 0M216 510l0 -1 1 0 0 -1M217 509l1 0 0 -2 3 0 0 -1 1 0M222 507l0 -2 1 0"/>
<path stroke="red" d="M223 505l0 -1 4 0 0 -2 1 0M228 503l0 -1M228 503l1 0 0 -3 4 0 0 -2 1 0M234 499l0 -1 1 0 0 -1M235 498l1 0 0 -1 3 0 0 -2 1 0M240 496l0 -1 1 0 0 -1 1 0 0 -1 1 0M243 494l0 -1 2 0 0 -1 2 0 0 -2 4 0 0 -2 1 0M252 489l0 -1 1 0 0 -2"/>
<path stroke="red" d="M253 487l1 0 0 -2M254 486l1 0 0 -1M255 486l2 0 0 -2 2 0 0 -1 1 0 0 -1M260 483l1 0 0 -1 2 0 0 -1 2 0 0 -1 1 0 0 -1 3 0 0 -1 1 0 0 -1 1 0 0 -1 2 0 0 -1M273 476l2 0 0 -2 1 0M276 475l0 -1 1 0 0 -3 1 0M278 472l0 -1M278 472l1 0"/>
<path stroke="red" d="M279 472l0 -1M279 472l2 0 0 -3 1 0M282 470l0 -1M282 470l1 0 0 -1M283 470l1 0 0 -2 3 0 0 -1 1 0M288 468l0 -2 2 0 0 -1 3 0 0 -1 1 0 0 -1 1 0 0 -1 1 0 0 -1M296 462l3 0 0 -2 2 0 0 -2 4 0 0 -2 1 0M306 457l0 -1M306 457l1 0 0 -1"/>
<path stroke="red" d="M307 456l1 0 0 -1 1 0 0 -1 2 0 0 -1M311 454l1 0 0 -1 1 0 0 -1M313 453l1 0 0 -2 3 0 0 -1 1 0M318 451l0 -1 1 0 0 -2 4 0 0 -2 1 0M324 447l0 -1M324 447l1 0 0 -3 4 0 0 -2 1 0M330 443l0 -1 1 0 0 -1M331 442l1 0 0 -1 3 0 0 -2 1 0"/>
<path stroke="red" d="M336 440l0 -1 1 0 0 -1 1 0 0 -1 1 0M339 438l0 -1 2 0 0 -1 2 0 0 -2 4 0 0 -2 1 0M348 433l0 -1 1 0 0 -1 1 0 0 -2 3 0 0 -2 1 0M354 428l0 -1M354 428l1 0 0 -1 1 0 0 -2 1 0M357 426l0 -1 2 0 0 -1 1 0M360 425l0 -1 1 0 0 -1M361 424l1 0"/>
<path stroke="red" d="M362 424l0 -2 3 0 0 -1 1 0M366 422l0 -1 1 0 0 -2 4 0 0 -2 1 0M372 418l0 -1M372 418l1 0 0 -2 2 0 0 -1M375 416l2 0 0 -2 1 0M378 415l0 -1 1 0 0 -1M379 414l1 0 0 -1 1 0 0 -1 2 0 0 -1 1 0M384 412l0 -1 1 0 0 -1 1 0 0 -1 3 0 0 -1"/>
<path stroke="red" d="M389 408l1 0 0 -1M390 408l1 0 0 -2 4 0 0 -2 1 0M396 405l0 -1 1 0 0 -2 1 0M398 403l0 -1 3 0 0 -2 1 0M402 401l0 -1M402 401l1 0 0 -1 1 0 0 -1 3 0 0 -1 1 0 0 -1 1 0 0 -1M409 397l1 0 0 -1 3 0 0 -2 1 0M414 395l0 -1 1 0 0 -1 1 0"/>
<path stroke="red" d="M416 393l0 -1 3 0 0 -2 1 0M420 391l0 -1M420 391l1 0 0 -4 1 0M422 388l0 -1M422 388l1 0 0 -1M423 388l2 0 0 -3 1 0M426 386l0 -1M426 386l1 0 0 -1 1 0 0 -1 3 0 0 -1 1 0M432 384l0 -2 2 0 0 -1 3 0 0 -1 1 0 0 -1 1 0 0 -1 1 0 0 -1"/>
<path stroke="red" d="M440 378l3 0 0 -2 2 0 0 -2 1 0M446 375l0 -1 3 0 0 -3 1 0M450 372l0 -1M450 372l1 0 0 -1M451 372l1 0 0 -2 3 0 0 -1 1 0M456 370l0 -1 1 0 0 -1 1 0 0 -1 3 0 0 -1 1 0 0 -1 1 0 0 -1 4 0 0 -2 1 0M468 363l0 -1M468 363l1 0 0 -2 1 0"/>
<path stroke="red" d="M470 361l0 -1 1 0M471 361l0 -1 2 0 0 -1 2 0 0 -1 1 0 0 -1 1 0M477 358l0 -1 2 0 0 -1 2 0 0 -1 1 0 0 -1 3 0 0 -2 1 0M486 353l0 -1 1 0 0 -1 1 0 0 -1 1 0M489 351l0 -1 2 0 0 -1 2 0 0 -2 4 0 0 -2 1 0M498 346l0 -1 1 0 0 -1M499 345l1 0"/>
<path stroke="red" d="M500 345l0 -1 3 0 0 -2 1 0M504 343l0 -1 1 0 0 -1 1 0 0 -1 1 0M507 341l0 -1 2 0 0 -1 2 0 0 -2 4 0 0 -2 1 0M516 336l0 -1 1 0M517 336l0 -4 4 0 0 -2 1 0M522 331l0 -1M522 331l1 0 0 -1 1 0 0 -1 3 0 0 -1 1 0 0 -1 2 0 0 -1 1 0 0 -1"/>
<path stroke="red" d="M531 325l2 0 0 -1M533 325l1 0 0 -1 1 0 0 -2 1 0M536 323l0 -1M536 323l1 0 0 -1M537 323l2 0 0 -3 1 0M540 321l0 -1M540 321l1 0 0 -2 1 0M542 320l0 -1 3 0 0 -2 1 0M546 318l0 -1 1 0M547 318l0 -1 1 0 0 -1 3 0 0 -2 1 0M552 315l0 -1"/>
<path stroke="red" d="M552 314l1 0 0 -1 1 0 0 -1M554 313l1 0 0 -1 2 0 0 -1 2 0 0 -2 4 0 0 -2 1 0M564 308l0 -1M564 308l1 0 0 -3 4 0 0 -2 1 0M570 304l0 -1M570 304l1 0 0 -1 1 0 0 -1 1 0 0 -1 2 0 0 -1M575 301l1 0 0 -1 1 0 0 -1M577 300l1 0 0 -2 3 0"/>
<path stroke="red" d="M581 298l0 -1 1 0M582 298l0 -1 1 0 0 -2 4 0 0 -2 1 0M588 294l0 -1M588 294l1 0 0 -3 1 0M590 292l0 -1 1 0M591 292l0 -1M591 292l2 0 0 -3 1 0M594 290l0 -1M594 290l1 0 0 -1 1 0 0 -1 3 0 0 -1 1 0 0 -1 2 0 0 -1 1 0 0 -1M603 285l2 0"/>
<path stroke="red" d="M605 285l0 -1 1 0 0 -1 1 0 0 -1 1 0 0 -1M608 282l3 0 0 -3 1 0M612 280l0 -1M612 280l1 0 0 -3M613 278l1 0 0 -1 3 0 0 -2M617 276l2 0 0 -1 1 0 0 -1 3 0 0 -1 1 0 0 -1M624 273l1 0 0 -1 1 0 0 -1 3 0 0 -2 1 0M630 270l0 -1 1 0 0 -1"/>
<path stroke="red" d="M631 268l1 0 0 -1 3 0 0 -2M635 266l2 0 0 -2 1 0 0 -1 3 0 0 -2 1 0M642 262l0 -1M642 262l1 0 0 -1 1 0 0 -1 3 0 0 -2 1 0M648 259l0 -1 1 0 0 -1M649 258l1 0 0 -1 1 0 0 -1M651 257l2 0 0 -2 1 0M654 256l0 -1 1 0 0 -1 1 0 0 -1 3 0"/>
<path stroke="red" d="M659 253l0 -2 1 0M660 252l0 -1M660 252l1 0 0 -3 4 0 0 -2 1 0M666 248l0 -1M666 248l1 0 0 -1 1 0 0 -1 1 0 0 -1 2 0 0 -1M671 245l1 0 0 -1 1 0 0 -1M673 244l1 0 0 -2 3 0 0 -1 1 0M678 242l0 -1 1 0 0 -2 4 0 0 -2 1 0M684 238l0 -1"/>
<path stroke="red" d="M684 238l1 0 0 -2 1 0 0 -1M686 236l1 0 0 -1M687 236l2 0 0 -3 1 0M690 234l0 -1M690 234l1 0 0 -1 1 0 0 -1 3 0 0 -1 1 0 0 -1 2 0 0 -1 3 0 0 -1 1 0 0 -1 1 0 0 -1 1 0 0 -1M704 226l3 0 0 -2 2 0 0 -2 1 0 0 -1 3 0 0 -1 2 0 0 -1"/>
<path stroke="red" d="M715 219l1 0 0 -1 3 0 0 -1 2 0 0 -1 1 0 0 -1 3 0 0 -2 1 0M726 214l0 -1 1 0 0 -1 1 0 0 -1 1 0M729 212l0 -1 2 0 0 -1 2 0 0 -2 1 0M734 209l0 -2 1 0 0 -1M735 207l2 0 0 -3 1 0M738 205l0 -1M738 205l1 0 0 -1 1 0 0 -1 3 0 0 -1 1 0"/>
<path stroke="red" d="M744 202l0 -1 2 0 0 -1 3 0 0 -1 1 0 0 -1 1 0 0 -1 1 0 0 -1M752 197l3 0 0 -3 1 0M756 195l0 -1M756 195l1 0 0 -2M757 194l1 0 0 -1 3 0 0 -2 1 0M762 192l0 -1M762 192l1 0 0 -1 1 0 0 -1 3 0 0 -1 1 0 0 -1 1 0 0 -1M769 188l1 0 0 -1"/>
<path stroke="red" d="M770 187l3 0 0 -2 1 0M774 186l0 -1 1 0 0 -1 1 0 0 -1 3 0 0 -2 1 0M780 182l0 -1M780 182l1 0 0 -2 2 0 0 -1M783 180l2 0 0 -2 1 0M786 179l0 -1 1 0 0 -1M787 178l1 0 0 -1 1 0 0 -1 2 0 0 -1 1 0M792 176l0 -1 1 0 0 -1 1 0 0 -1 3 0"/>
<path stroke="red" d="M797 173l0 -1 1 0 0 -1M798 172l1 0 0 -2 4 0 0 -2 1 0M804 169l0 -1 1 0 0 -3 4 0 0 -2 1 0M810 164l0 -1M810 164l1 0 0 -1 1 0 0 -1 1 0 0 -1 2 0 0 -1M815 161l1 0 0 -1 1 0 0 -1M817 160l1 0 0 -2 3 0 0 -1 1 0M822 158l0 -1 1 0 0 -2"/>
<path stroke="red" d="M823 155l4 0 0 -2 1 0M828 154l0 -1M828 154l1 0 0 -2 1 0 0 -1 3 0 0 -2 1 0M834 150l0 -1M834 150l1 0 0 -1 1 0 0 -1 3 0 0 -1 1 0 0 -1 2 0 0 -2 1 0M843 145l0 -1 2 0 0 -1 1 0M846 144l0 -1 1 0 0 -2 2 0M849 142l0 -1M849 142l2 0"/>
<path stroke="red" d="M851 142l0 -3 1 0M852 140l0 -1M852 140l1 0 0 -2 4 0 0 -2 1 0M858 137l0 -1 2 0 0 -1 3 0 0 -2 1 0M864 134l0 -1 1 0 0 -1 1 0 0 -1M866 132l1 0 0 -1 2 0 0 -1 2 0 0 -2 4 0 0 -2 1 0M876 127l0 -1 1 0M877 127l0 -2 1 0 0 -1 1 0M879 125l0 -1"/>
<path stroke="red" d="M879 124l2 0 0 -1 2 0 0 -1 1 0 0 -1 3 0 0 -1 2 0 0 -1 1 0 0 -1 3 0 0 -2 1 0M894 117l0 -1 1 0 0 -1 1 0 0 -1 1 0M897 115l0 -1 2 0 0 -1 2 0 0 -3 1 0 0 -1M902 110l3 0 0 -2 2 0 0 -1M907 108l1 0 0 -2 3 0 0 -1 1 0M912 106l0 -1"/>
<path stroke="red" d="M912 105l1 0 0 -1 1 0 0 -1 3 0 0 -1 1 0 0 -1 1 0 0 -1 4 0 0 -2 1 0M924 99l0 -1M924 99l1 0 0 -3 1 0M926 97l0 -1 1 0M927 97l0 -1M927 97l2 0 0 -2 2 0 0 -1 1 0 0 -1 1 0M933 94l0 -1 2 0 0 -1 2 0 0 -1 1 0 0 -1 3 0 0 -2M941 89l1 0"/>
<path stroke="red" d="M942 89l0 -1 1 0 0 -1 1 0 0 -1M944 87l1 0 0 -1M945 87l2 0 0 -2 2 0 0 -3 1 0M950 83l0 -1M950 83l1 0 0 -1M951 83l2 0 0 -3 1 0M954 81l0 -1M954 81l1 0 0 -1 1 0 0 -1 3 0 0 -1 1 0"/>
</svg>
