<?xml version="1.0" standalone="yes"?>
<!DOCTYPE svg PUBLIC "-//W3C//DTD SVG 1.1//EN"
 "http://www.w3.org/Graphics/SVG/1.1/DTD/svg11.dtd">
<svg xmlns="http://www.w3.org/2000/svg" version="1.1"
  width="100%" height="100%" viewBox="0 0 1024 768"
  style="fill: none; stroke-width: 3; font-family: Helvetica;
 font: Helvetica;
">

<!-- Creator: NGspice -->

<rect x="0" y="0" width="1024" height="768" fill="white" stroke="none"/>
<text stroke="none" fill="black" font-size="16" x="358" y="752">
time
</text>
<text stroke="none" fill="black" font-size="16" x="10" y="16">
tran1: Even Parity Output
</text>
<path stroke="black" stroke-width="3" d="M50 704l0 -638"/>
<text stroke="none" fill="black" font-size="16" x="35" y="728">
0.0
</text>
<path stroke="black" stroke-width="3" stroke-dasharray="1,2" d="M204 704l0 -638"/>
<text stroke="none" fill="black" font-size="16" x="189" y="728">
0.5
</text>
<path stroke="black" stroke-width="3" stroke-dasharray="1,2" d="M358 704l0 -638"/>
<text stroke="none" fill="black" font-size="16" x="343" y="728">
1.0
</text>
<path stroke="black" stroke-width="3" stroke-dasharray="1,2" d="M512 704l0 -638"/>
<text stroke="none" fill="black" font-size="16" x="497" y="728">
1.5
</text>
<path stroke="black" stroke-width="3" stroke-dasharray="1,2" d="M666 704l0 -638"/>
<text stroke="none" fill="black" font-size="16" x="651" y="728">
2.0
</text>
<path stroke="black" stroke-width="3" stroke-dasharray="1,2" d="M820 704l0 -638"/>
<text stroke="none" fill="black" font-size="16" x="805" y="728">
2.5
</text>
<path stroke="black" stroke-width="3" stroke-dasharray="1,2" d="M974 704l0 -638"/>
<text stroke="none" fill="black" font-size="16" x="959" y="728">
3.0
</text>
<text stroke="none" fill="black" font-size="16" x="614" y="752">
us
</text>
<path stroke="black" stroke-width="3" stroke-dasharray="1,2" d="M50 704l924 0"/>
<text stroke="none" fill="black" font-size="16" x="8" y="712">
-0.2
</text>
<path stroke="black" stroke-width="3" d="M50 646l924 0"/>
<text stroke="none" fill="black" font-size="16" x="18" y="654">
0.0
</text>
<path stroke="black" stroke-width="3" stroke-dasharray="1,2" d="M50 588l924 0"/>
<text stroke="none" fill="black" font-size="16" x="18" y="596">
0.2
</text>
<path stroke="black" stroke-width="3" stroke-dasharray="1,2" d="M50 530l924 0"/>
<text stroke="none" fill="black" font-size="16" x="18" y="538">
0.4
</text>
<path stroke="black" stroke-width="3" stroke-dasharray="1,2" d="M50 472l924 0"/>
<text stroke="none" fill="black" font-size="16" x="18" y="480">
0.6
</text>
<path stroke="black" stroke-width="3" stroke-dasharray="1,2" d="M50 414l924 0"/>
<text stroke="none" fill="black" font-size="16" x="18" y="422">
0.8
</text>
<path stroke="black" stroke-width="3" stroke-dasharray="1,2" d="M50 356l924 0"/>
<text stroke="none" fill="black" font-size="16" x="18" y="364">
1.0
</text>
<path stroke="black" stroke-width="3" stroke-dasharray="1,2" d="M50 298l924 0"/>
<text stroke="none" fill="black" font-size="16" x="18" y="306">
1.2
</text>
<path stroke="black" stroke-width="3" stroke-dasharray="1,2" d="M50 240l924 0"/>
<text stroke="none" fill="black" font-size="16" x="18" y="248">
1.4
</text>
<path stroke="black" stroke-width="3" stroke-dasharray="1,2" d="M50 182l924 0"/>
<text stroke="none" fill="black" font-size="16" x="18" y="190">
1.6
</text>
<path stroke="black" stroke-width="3" stroke-dasharray="1,2" d="M50 124l924 0"/>
<text stroke="none" fill="black" font-size="16" x="18" y="132">
1.8
</text>
<path stroke="black" stroke-width="3" stroke-dasharray="1,2" d="M50 66l924 0"/>
<text stroke="none" fill="black" font-size="16" x="18" y="74">
2.0
</text>
<text stroke="none" fill="black" font-size="16" x="10" y="32">
V
</text>
<path stroke="red" d="M462 23l46 0"/>
<text stroke="none" fill="black" font-size="16" x="518" y="32">
v(out_parity)
</text>
<path stroke="red" d="M50 661l0 -540M50 124l1 0M51 674l0 -587M51 646l1 0M52 662l0 -583M52 646l1 0M53 664l0 -542M53 124l2 0M55 670l0 -567M55 646l2 0M57 660l0 -538M57 124l1 0M58 664l0 -565M58 646l3 0M61 653l0 -534M61 124l2 0M63 658l0 -574M63 124l1 0"/>
<path stroke="red" d="M64 664l0 -565M64 646l3 0M67 653l0 -534M67 124l2 0M69 658l0 -574M69 646l1 0M70 658l0 -545M70 124l3 0M73 649l0 -560M73 646l2 0M75 673l0 -566M75 646l1 0M76 666l0 -565M76 646l3 0M79 661l0 -548M79 124l2 0M81 650l0 -568M81 646l1 0"/>
<path stroke="red" d="M82 653l0 -542M82 124l4 0M86 673l0 -591M86 646l1 0M87 661l0 -548M87 124l1 0M88 670l0 -567M88 646l1 0M89 653l0 -542M89 124l3 0M92 672l0 -590M92 646l1 0M93 648l0 -3M93 648l1 13 0 -548M94 124l1 0M95 668l0 -566M95 646l3 0M98 666l0 -543"/>
<path stroke="red" d="M98 124l2 0M100 663l0 -579M100 646l1 0M101 658l0 -577M101 646l3 0M104 661l0 -548M104 124l2 0M106 650l0 -568M106 646l1 0M107 653l0 -542M107 124l3 0M110 673l0 -591M110 646l2 0M112 670l0 -567M112 646l1 0M113 653l0 -542M113 124l3 0"/>
<path stroke="red" d="M116 672l0 -590M116 646l2 0M118 661l0 -548M118 124l1 0M119 668l0 -566M119 647l1 -2M120 647l0 -2M120 646l2 0M122 666l0 -538 1 -5M123 124l0 -1M123 124l1 0M124 648l0 -564M124 646l1 0M125 663l0 -577M125 646l1 0M126 659l0 -546"/>
<path stroke="red" d="M126 124l3 0M129 670l0 -567M129 646l1 0M130 660l0 -291 1 -234 0 -13M131 124l1 0M132 664l0 -565M132 646l3 0M135 653l0 -534M135 124l2 0M137 658l0 -574M137 124l1 0M138 664l0 -565M138 646l3 0M141 653l0 -534M141 124l2 0M143 658l0 -574"/>
<path stroke="red" d="M143 646l1 0M144 658l0 -545M144 124l3 0M147 649l0 -560M147 646l2 0M149 673l0 -566M149 646l1 0M150 661l0 -572M150 646l3 0M153 660l0 -547M153 124l2 0M155 650l0 -568M155 646l1 0M156 654l0 -542M156 124l3 0M159 672l0 -590M159 651l1 -8"/>
<path stroke="red" d="M160 649l0 -6M160 646l1 0M161 660l0 -547M161 124l1 0M162 670l0 -566M162 646l1 0M163 654l0 -542M163 124l3 0M166 672l0 -590M166 646l1 0M167 660l0 -547M167 124l2 0M169 668l0 -566M169 646l3 0M172 666l0 -544M172 124l2 0M174 662l0 -578"/>
<path stroke="red" d="M174 649l1 7M175 658l0 -546M175 124l3 0M178 668l0 -565M178 646l2 0M180 661l0 -540M180 124l1 0M181 662l0 -563M181 646l3 0M184 653l0 -533M184 124l2 0M186 661l0 -578M186 124l1 0M187 662l0 -563M187 646l3 0M190 653l0 -533M190 124l2 0"/>
<path stroke="red" d="M192 661l0 -578M192 646l1 0M193 658l0 -546M193 124l3 0M196 646l0 -559M196 646l2 0M198 661l0 -540M198 124l1 0M199 674l0 -587M199 646l1 3M200 659l0 -546M200 124l3 0M203 668l0 -565M203 646l1 0M204 661l0 -540M204 124l2 0M206 662l0 -563"/>
<path stroke="red" d="M206 646l3 0M209 653l0 -533M209 124l2 0M211 661l0 -578M211 124l1 0M212 662l0 -563M212 646l3 0M215 653l0 -533M215 124l2 0M217 661l0 -578M217 646l1 0M218 658l0 -546M218 124l3 0M221 646l0 -559M221 646l2 0M223 674l0 -566M223 438l1 -280"/>
<path stroke="red" d="M224 666l0 -565M224 646l3 0M227 660l0 -547M227 124l2 0M229 650l0 -568M229 646l1 0M230 653l0 -541M230 124l3 0M233 672l0 -590M233 646l2 0M235 660l0 -556M235 143l1 451M236 670l0 -558M236 124l4 0M240 672l0 -590M240 646l1 0M241 660l0 -547"/>
<path stroke="red" d="M241 124l2 0M243 668l0 -566M243 646l3 0M246 666l0 -544M246 124l1 0 1 1M248 662l0 -578M248 124l1 0M249 666l0 -577M249 646l3 0M252 660l0 -547M252 124l2 0M254 650l0 -568M254 646l1 0M255 654l0 -542M255 124l3 0M258 672l0 -590"/>
<path stroke="red" d="M258 646l2 0M260 670l0 -566M260 646l1 0M261 654l0 -542M261 124l3 0M264 672l0 -590M264 646l2 0M266 660l0 -547M266 124l1 0M267 668l0 -566M267 646l3 0M270 666l0 -544M270 124l2 0M272 662l0 -578M272 124l1 0M273 658l0 -572M273 124l3 0"/>
<path stroke="red" d="M276 597l0 -494M276 597l1 71 0 -39M277 646l1 0M278 661l0 -540M278 124l2 0M280 662l0 -563M280 646l3 0M283 653l0 -533M283 124l1 0M284 661l0 -578M284 655l1 -16M285 656l0 -544M285 124l1 0M286 662l0 -563M286 646l3 0M289 653l0 -533"/>
<path stroke="red" d="M289 124l2 0M291 661l0 -578M291 646l1 0M292 658l0 -546M292 124l3 0M295 646l0 -559M295 646l2 0M297 674l0 -566M297 124l1 0M298 659l0 -572M298 124l3 0M301 668l0 -565M301 646l2 0M303 661l0 -540M303 124l1 0M304 662l0 -563M304 646l3 0"/>
<path stroke="red" d="M307 653l0 -533M307 124l2 0M309 661l0 -578M309 124l1 0M310 662l0 -563M310 646l3 0M313 653l0 -533M313 124l2 0M315 661l0 -578M315 646l2 0M317 658l0 -546M317 124l3 0M320 646l0 -559M320 646l1 0M321 661l0 -540M321 124l1 0M322 674l0 -566"/>
<path stroke="red" d="M322 124l1 0M323 666l0 -565M323 646l3 0M326 660l0 -547M326 124l2 0M328 650l0 -568M328 646l1 0M329 653l0 -541M329 124l3 0M332 672l0 -590M332 646l2 0M334 670l0 -566M334 646l1 0M335 653l0 -541M335 124l3 0M338 672l0 -590M338 646l2 0"/>
<path stroke="red" d="M340 660l0 -547M340 124l1 0M341 668l0 -566M341 646l3 0M344 666l0 -544M344 124l2 0M346 662l0 -578M346 124l1 0M347 666l0 -580M347 124l3 0M350 667l0 -565M350 647l1 -1 1 0M352 661l0 -540M352 124l1 0M353 215l0 -117M353 215l1 401"/>
<path stroke="red" d="M354 661l0 -45M354 646l3 0M357 653l0 -533M357 124l1 0M358 663l0 -580M358 646l1 0M359 656l0 -544M359 124l1 0M360 661l0 -563M360 646l3 0M363 653l0 -533M363 124l2 0M365 663l0 -580M365 646l1 0M366 658l0 -546M366 124l3 0M369 647l0 -560"/>
<path stroke="red" d="M369 646l2 0M371 674l0 -566M371 124l1 0M372 666l0 -565M372 646l3 0M375 661l0 -547M375 124l2 0M377 650l0 -568M377 646l1 0M378 653l0 -542M378 124l3 0M381 673l0 -590M381 646l2 0M383 670l0 -567M383 646l1 0M384 653l0 -542M384 124l3 0"/>
<path stroke="red" d="M387 673l0 -590M387 646l2 0M389 661l0 -548M389 124l1 0M390 668l0 -566M390 653l1 -12M391 650l0 -9M391 646l3 0M394 666l0 -543M394 124l1 0M395 648l0 -564M395 646l1 0M396 663l0 -577M396 124l1 0M397 652l0 -571M397 646l3 0M400 661l0 -547"/>
<path stroke="red" d="M400 124l1 0 1 1M402 650l0 -568M402 646l1 0M403 653l0 -542M403 124l3 0M406 673l0 -590M406 646l2 0M408 670l0 -567M408 646l1 0M409 653l0 -542M409 124l3 0M412 673l0 -590M412 646l2 0M414 661l0 -548M414 124l1 0M415 668l0 -566"/>
<path stroke="red" d="M415 646l3 0M418 666l0 -543M418 124l2 0M420 663l0 -579M420 124l1 0M421 658l0 -572M421 124l3 0M424 667l0 -565M424 646l2 0M426 661l0 -540M426 124l1 0M427 661l0 -563M427 645l1 1 2 0M430 653l0 -7M430 653l1 -2 0 -531M431 124l1 0"/>
<path stroke="red" d="M432 663l0 -580M432 646l1 0M433 656l0 -544M433 124l1 0M434 661l0 -563M434 646l3 0M437 653l0 -533M437 124l1 0M438 663l0 -580M438 656l1 -17M439 651l0 -12M439 646l1 0M440 658l0 -546M440 124l3 0M443 647l0 -560M443 646l2 0M445 674l0 -566"/>
<path stroke="red" d="M445 124l1 0M446 662l0 -583M446 639l1 12M447 664l0 -542M447 124l2 0M449 670l0 -567M449 646l2 0M451 660l0 -538M451 124l1 0M452 664l0 -565M452 646l3 0M455 653l0 -534M455 124l2 0M457 658l0 -574M457 124l1 0M458 664l0 -565M458 646l3 0"/>
<path stroke="red" d="M461 653l0 -534M461 124l2 0M463 658l0 -574M463 646l1 0M464 658l0 -545M464 124l3 0M467 649l0 -560M467 647l1 -1 1 0M469 661l0 -539M469 124l1 0M470 673l0 -566M470 124l1 0M471 666l0 -565M471 646l3 0M474 661l0 -548M474 124l1 0"/>
<path stroke="red" d="M475 650l0 -568M475 647l1 -1 1 0M477 653l0 -542M477 124l3 0M480 673l0 -591M480 646l2 0M482 670l0 -567M482 646l1 0M483 653l0 -542M483 124l3 0M486 672l0 -590M486 646l2 0M488 661l0 -548M488 124l1 0M489 668l0 -566M489 646l3 0"/>
<path stroke="red" d="M492 666l0 -543M492 124l2 0M494 663l0 -579M494 124l1 0M495 658l0 -577M495 646l3 0M498 661l0 -548M498 124l2 0M500 650l0 -568M500 646l1 0M501 653l0 -542M501 124l3 0M504 673l0 -591M504 647l1 -2M505 646l0 -1M505 646l1 0M506 661l0 -548"/>
<path stroke="red" d="M506 124l1 0M507 670l0 -567M507 279l1 -168M508 130l0 -19M508 124l3 0M511 672l0 -590M511 646l1 0M512 661l0 -548M512 124l2 0M514 668l0 -566M514 646l3 0M517 666l0 -543M517 124l2 0M519 663l0 -579M519 646l1 0M520 659l0 -546M520 124l3 0"/>
<path stroke="red" d="M523 670l0 -567M523 646l2 0M525 660l0 -538M525 124l1 0M526 664l0 -565M526 646l3 0M529 653l0 -534M529 124l2 0M531 658l0 -574M531 124l1 0M532 664l0 -565M532 646l3 0M535 653l0 -534M535 124l2 0M537 658l0 -574M537 646l1 0M538 658l0 -545"/>
<path stroke="red" d="M538 124l3 0M541 649l0 -560M541 646l2 0M543 661l0 -554 1 442M544 673l0 -584M544 646l4 0M548 660l0 -547M548 124l1 0M549 650l0 -568M549 646l2 0M551 654l0 -542M551 124l3 0M554 672l0 -590M554 646l1 0M555 648l0 -3M555 648l1 12"/>
<path stroke="red" d="M556 670l0 -566M556 646l1 0M557 654l0 -542M557 124l3 0M560 672l0 -590M560 646l2 0M562 660l0 -547M562 124l1 0M563 668l0 -566M563 646l3 0M566 666l0 -544M566 124l2 0M568 662l0 -578M568 646l1 0M569 658l0 -546M569 124l3 0M572 668l0 -565"/>
<path stroke="red" d="M572 646l2 0M574 661l0 -540M574 124l1 0M575 662l0 -563M575 646l3 0M578 653l0 -533M578 124l2 0M580 661l0 -578M580 122l1 3M581 662l0 -563M581 645l1 1 2 0M584 653l0 -7M584 653l1 -2 0 -531M585 124l1 0M586 661l0 -578M586 646l2 0"/>
<path stroke="red" d="M588 658l0 -546M588 124l3 0M591 646l0 -559M591 646l1 0M592 661l0 -280 1 -243M593 674l0 -587M593 646l1 0M594 659l0 -546M594 124l3 0M597 668l0 -565M597 646l2 0M599 661l0 -540M599 124l1 0M600 662l0 -563M600 646l3 0M603 653l0 -533"/>
<path stroke="red" d="M603 124l2 0M605 661l0 -578M605 124l1 0M606 662l0 -563M606 646l3 0M609 653l0 -533M609 124l2 0M611 661l0 -578M611 646l1 0M612 658l0 -546M612 124l3 0M615 646l0 -559M615 646l2 0M617 674l0 -566M617 645l1 2M618 666l0 -565M618 646l3 0"/>
<path stroke="red" d="M621 660l0 -547M621 124l2 0M623 650l0 -568M623 646l2 0M625 653l0 -541M625 124l3 0M628 672l0 -590M628 646l1 0M629 660l0 -547M629 124l1 0M630 670l0 -566M630 646l1 0M631 653l0 -541M631 124l3 0M634 672l0 -590M634 646l2 0M636 660l0 -547"/>
<path stroke="red" d="M636 124l1 0M637 668l0 -566M637 646l3 0M640 666l0 -544M640 124l2 0M642 662l0 -578M642 646l1 0M643 666l0 -577M643 646l3 0M646 660l0 -547M646 124l2 0M648 650l0 -568M648 646l1 0M649 654l0 -542M649 124l3 0M652 672l0 -590M652 646l2 0"/>
<path stroke="red" d="M654 670l0 -566M654 646l1 0M655 654l0 -542M655 124l3 0M658 672l0 -590M658 647l1 -2M659 646l0 -1M659 646l1 0M660 660l0 -547M660 124l1 0M661 125l0 -23 1 56M662 668l0 -510M662 646l3 0M665 666l0 -544M665 124l1 0M666 648l0 -564"/>
<path stroke="red" d="M666 646l1 0M667 662l0 -576M667 646l1 0M668 658l0 -546M668 124l3 0M671 668l0 -565M671 646l2 0M673 661l0 -540M673 124l1 0M674 662l0 -563M674 646l3 0M677 653l0 -533M677 124l2 0M679 661l0 -578M679 124l1 0M680 662l0 -563M680 646l3 0"/>
<path stroke="red" d="M683 653l0 -533M683 124l2 0M685 661l0 -578M685 646l1 0M686 658l0 -546M686 124l3 0M689 646l0 -559M689 646l2 0M691 674l0 -566M691 646l1 0M692 661l0 -574M692 124l3 0M695 668l0 -565M695 646l2 0M697 661l0 -540M697 124l1 0M698 662l0 -563"/>
<path stroke="red" d="M698 642l1 7 0 -5M699 646l3 0M702 653l0 -533M702 124l1 0M703 661l0 -578M703 646l1 0M704 656l0 -544M704 124l1 0M705 662l0 -563M705 646l3 0M708 653l0 -533M708 124l1 0 0 -1 1 -8M710 661l0 -578M710 646l1 0M711 658l0 -546M711 124l3 0"/>
<path stroke="red" d="M714 646l0 -559M714 646l2 0M716 674l0 -566M716 124l1 0M717 666l0 -565M717 646l3 0M720 660l0 -547M720 124l2 0M722 650l0 -568M722 646l1 0M723 653l0 -541M723 124l3 0M726 672l0 -590M726 646l2 0M728 670l0 -566M728 646l1 0M729 653l0 -541"/>
<path stroke="red" d="M729 124l3 0M732 672l0 -590M732 646l2 0M734 660l0 -547M734 124l1 0M735 668l0 -566M735 647l1 -2M736 647l0 -2M736 646l2 0M738 666l0 -536 1 -8M739 125l0 -3M739 124l1 0M740 648l0 -564M740 646l1 0M741 662l0 -576M741 124l1 0M742 666l0 -577"/>
<path stroke="red" d="M742 124l3 0M745 667l0 -565M745 646l1 0M746 661l0 -284 1 -240 0 -16M747 124l1 0M748 661l0 -563M748 646l3 0M751 653l0 -533M751 124l2 0M753 663l0 -580M753 124l1 0M754 661l0 -563M754 646l3 0M757 653l0 -533M757 124l2 0M759 663l0 -580"/>
<path stroke="red" d="M759 646l1 0M760 658l0 -546M760 124l3 0M763 647l0 -560M763 646l2 0M765 674l0 -566M765 646l1 0M766 666l0 -565M766 646l3 0M769 661l0 -547M769 124l2 0M771 650l0 -568M771 646l1 0M772 653l0 -542M772 124l3 0M775 673l0 -590M775 651l1 -9"/>
<path stroke="red" d="M776 649l0 -7M776 646l1 0M777 661l0 -548M777 124l1 0M778 670l0 -567M778 646l1 0M779 653l0 -542M779 124l3 0M782 673l0 -590M782 646l1 0M783 661l0 -548M783 124l2 0M785 668l0 -566M785 646l3 0M788 666l0 -543M788 124l2 0M790 663l0 -579"/>
<path stroke="red" d="M790 647l1 11 0 -577M791 646l3 0M794 661l0 -547M794 124l2 0M796 650l0 -568M796 646l1 0M797 653l0 -542M797 124l3 0M800 673l0 -590M800 646l2 0M802 670l0 -567M802 646l1 0M803 653l0 -542M803 124l3 0M806 673l0 -590M806 646l2 0"/>
<path stroke="red" d="M808 661l0 -548M808 124l1 0M809 668l0 -566M809 646l3 0M812 666l0 -543M812 124l2 0M814 648l0 -564M814 646l1 0M815 663l0 -577M815 646l1 2M816 658l0 -546M816 124l3 0M819 667l0 -565M819 646l1 0M820 661l0 -540M820 124l2 0M822 661l0 -563"/>
<path stroke="red" d="M822 646l3 0M825 653l0 -533M825 124l2 0M827 663l0 -580M827 124l1 0M828 661l0 -563M828 646l3 0M831 653l0 -533M831 124l2 0M833 663l0 -580M833 646l1 0M834 658l0 -546M834 124l3 0M837 647l0 -560M837 646l2 0M839 674l0 -566M839 437l1 -279"/>
<path stroke="red" d="M840 653l0 -566M840 124l1 0M841 664l0 -585M841 124l2 0M843 670l0 -567M843 646l2 0M845 660l0 -538M845 124l1 0M846 664l0 -565M846 646l3 0M849 653l0 -534M849 124l2 0M851 658l0 -574M851 648l1 9M852 664l0 -565M852 642l1 7 0 -5"/>
<path stroke="red" d="M853 646l3 0M856 653l0 -534M856 124l1 0M857 658l0 -574M857 646l2 0M859 658l0 -545M859 124l3 0M862 649l0 -560M862 646l2 0M864 673l0 -566M864 124l1 0M865 666l0 -565M865 646l3 0M868 661l0 -548M868 124l2 0M870 650l0 -568M870 646l1 0"/>
<path stroke="red" d="M871 653l0 -542M871 124l3 0M874 673l0 -591M874 646l2 0M876 670l0 -567M876 646l1 0M877 653l0 -542M877 124l3 0M880 672l0 -590M880 646l2 0M882 661l0 -548M882 124l1 0M883 668l0 -566M883 646l3 0M886 666l0 -543M886 124l2 0M888 663l0 -579"/>
<path stroke="red" d="M888 124l1 0M889 658l0 -577M889 646l3 0M892 661l0 -492 1 -56M893 128l0 -15M893 124l1 0M894 650l0 -568M894 646l2 0M896 653l0 -542M896 124l3 0M899 673l0 -591M899 646l1 0M900 661l0 -548M900 122l1 3M901 670l0 -567M901 646l1 0"/>
<path stroke="red" d="M902 653l0 -542M902 124l3 0M905 672l0 -590M905 646l2 0M907 661l0 -548M907 124l1 0M908 668l0 -566M908 646l3 0M911 666l0 -543M911 124l2 0M913 663l0 -579M913 646l1 0M914 659l0 -546M914 124l3 0M917 670l0 -567M917 646l2 0M919 660l0 -538"/>
<path stroke="red" d="M919 124l1 0M920 664l0 -565M920 646l3 0M923 653l0 -534M923 124l2 0M925 658l0 -574M925 124l1 0M926 664l0 -565M926 646l3 0M929 653l0 -534M929 124l2 0M931 658l0 -574M931 646l2 0M933 658l0 -545M933 124l3 0M936 649l0 -560M936 646l1 0"/>
<path stroke="red" d="M937 661l0 -539M937 124l1 0M938 673l0 -584M938 646l1 0M939 651l0 -14M939 646l3 0M942 660l0 -547M942 124l2 0M944 650l0 -568M944 646l1 0M945 654l0 -542M945 124l3 0M948 672l0 -590M948 646l2 0M950 670l0 -566M950 646l1 0M951 654l0 -542"/>
<path stroke="red" d="M951 124l3 0M954 672l0 -590M954 646l2 0M956 660l0 -547M956 124l1 0M957 668l0 -566M957 646l3 0M960 666l0 -544M960 124l2 0M962 662l0 -578M962 124l1 0M963 658l0 -572M963 124l3 0M966 668l0 -565M966 647l1 -1 1 0M968 661l0 -540"/>
<path stroke="red" d="M968 124l1 0M969 207l0 -108M969 207l1 406M970 662l0 -49M970 646l3 0M973 653l0 -533M973 124l1 0"/>
</svg>
