<?xml version="1.0" standalone="yes"?>
<!DOCTYPE svg PUBLIC "-//W3C//DTD SVG 1.1//EN"
 "http://www.w3.org/Graphics/SVG/1.1/DTD/svg11.dtd">
<svg xmlns="http://www.w3.org/2000/svg" version="1.1"
  width="100%" height="100%" viewBox="0 0 1024 768"
  style="fill: none; stroke-width: 3; font-family: Helvetica;
 font: Helvetica;
">

<!-- Creator: NGspice -->

<rect x="0" y="0" width="1024" height="768" fill="white" stroke="none"/>
<text stroke="none" fill="black" font-size="16" x="358" y="752">
time
</text>
<text stroke="none" fill="black" font-size="16" x="10" y="16">
tran1: Total Supply Current
</text>
<path stroke="black" stroke-width="3" d="M70 704l0 -640"/>
<text stroke="none" fill="black" font-size="16" x="55" y="728">
0.0
</text>
<path stroke="black" stroke-width="3" stroke-dasharray="1,2" d="M217 704l0 -640"/>
<text stroke="none" fill="black" font-size="16" x="202" y="728">
0.5
</text>
<path stroke="black" stroke-width="3" stroke-dasharray="1,2" d="M364 704l0 -640"/>
<text stroke="none" fill="black" font-size="16" x="349" y="728">
1.0
</text>
<path stroke="black" stroke-width="3" stroke-dasharray="1,2" d="M511 704l0 -640"/>
<text stroke="none" fill="black" font-size="16" x="496" y="728">
1.5
</text>
<path stroke="black" stroke-width="3" stroke-dasharray="1,2" d="M658 704l0 -640"/>
<text stroke="none" fill="black" font-size="16" x="643" y="728">
2.0
</text>
<path stroke="black" stroke-width="3" stroke-dasharray="1,2" d="M805 704l0 -640"/>
<text stroke="none" fill="black" font-size="16" x="790" y="728">
2.5
</text>
<path stroke="black" stroke-width="3" stroke-dasharray="1,2" d="M952 704l0 -640"/>
<text stroke="none" fill="black" font-size="16" x="937" y="728">
3.0
</text>
<text stroke="none" fill="black" font-size="16" x="614" y="752">
us
</text>
<path stroke="black" stroke-width="3" stroke-dasharray="1,2" d="M70 704l882 0"/>
<text stroke="none" fill="black" font-size="16" x="8" y="712">
-400.0
</text>
<path stroke="black" stroke-width="3" stroke-dasharray="1,2" d="M70 640l882 0"/>
<text stroke="none" fill="black" font-size="16" x="8" y="648">
-300.0
</text>
<path stroke="black" stroke-width="3" stroke-dasharray="1,2" d="M70 576l882 0"/>
<text stroke="none" fill="black" font-size="16" x="8" y="584">
-200.0
</text>
<path stroke="black" stroke-width="3" stroke-dasharray="1,2" d="M70 512l882 0"/>
<text stroke="none" fill="black" font-size="16" x="8" y="520">
-100.0
</text>
<path stroke="black" stroke-width="3" d="M70 448l882 0"/>
<text stroke="none" fill="black" font-size="16" x="38" y="456">
0.0
</text>
<path stroke="black" stroke-width="3" stroke-dasharray="1,2" d="M70 384l882 0"/>
<text stroke="none" fill="black" font-size="16" x="18" y="392">
100.0
</text>
<path stroke="black" stroke-width="3" stroke-dasharray="1,2" d="M70 320l882 0"/>
<text stroke="none" fill="black" font-size="16" x="18" y="328">
200.0
</text>
<path stroke="black" stroke-width="3" stroke-dasharray="1,2" d="M70 256l882 0"/>
<text stroke="none" fill="black" font-size="16" x="18" y="264">
300.0
</text>
<path stroke="black" stroke-width="3" stroke-dasharray="1,2" d="M70 192l882 0"/>
<text stroke="none" fill="black" font-size="16" x="18" y="200">
400.0
</text>
<path stroke="black" stroke-width="3" stroke-dasharray="1,2" d="M70 128l882 0"/>
<text stroke="none" fill="black" font-size="16" x="18" y="136">
500.0
</text>
<path stroke="black" stroke-width="3" stroke-dasharray="1,2" d="M70 64l882 0"/>
<text stroke="none" fill="black" font-size="16" x="18" y="72">
600.0
</text>
<text stroke="none" fill="black" font-size="16" x="10" y="32">
uA
</text>
<path stroke="red" d="M441 23l44 0"/>
<text stroke="none" fill="black" font-size="16" x="495" y="32">
-i(v_supply)
</text>
<path stroke="red" d="M70 644l0 -293M70 463l1 -29M71 645l0 -395M71 542l1 -22M72 624l0 -333M72 466l1 -31M73 495l0 -191M73 448l1 0 0 -244M74 330l1 -18M75 462l0 -177M75 445l1 6M76 646l0 -350M76 298l1 6M77 493l0 -234M77 441l1 10M78 454l0 -12 1 12"/>
<path stroke="red" d="M79 508l0 -201M79 448l1 0M80 501l0 -285M80 460l1 -22M81 460l0 -23M81 454l1 -12M82 636l0 -376M82 451l1 1M83 497l0 -201M83 448l1 0M84 454l0 -12 1 12M85 507l0 -200M85 448l1 0M86 501l0 -284M86 458l1 -20M87 458l0 -20M87 454l1 -12"/>
<path stroke="red" d="M88 636l0 -402M88 448l1 0M89 546l0 -191M89 437l1 22 0 -22M90 444l1 8M91 495l0 -189M91 448l1 0M92 471l0 -266M92 467l1 -38M93 466l0 -37M93 457l1 -18M94 646l0 -366M94 465l1 -8M95 541l0 -253M95 448l1 0M96 453l0 -10 1 10M97 507l0 -204"/>
<path stroke="red" d="M97 448l1 0M98 474l0 -266M98 457l1 -18M99 457l0 -18M99 456l1 -16M100 646l0 -388M100 448l1 0M101 489l0 -168M101 438l1 20 0 -20M102 443l1 10M103 504l0 -197M103 448l1 0M104 509l0 -293M104 432l1 32 0 -32M105 435l1 26M106 636l0 -340"/>
<path stroke="red" d="M106 448l1 0M107 489l0 -168M107 457l1 -18M108 457l0 -18M108 453l1 -10M109 503l0 -196M109 448l1 0M110 509l0 -293M110 463l1 -30M111 636l0 -253 1 -34M112 476l0 -243M112 448l1 0M113 540l0 -218M113 452l1 -8M114 507l0 -202M114 451l1 -1"/>
<path stroke="red" d="M115 450l0 -2 1 0M116 485l0 -276M116 435l1 26M117 644l0 -337M117 435l1 26M118 642l0 -358M118 451l1 -5M119 566l0 -307M119 431l1 34M120 507l0 -204M120 448l1 0 0 -146 1 -43M122 474l0 -266M122 457l1 -18M123 646l0 -340M123 460l1 -24"/>
<path stroke="red" d="M124 499l0 -241M124 369l1 120 0 -56M125 441l1 14M126 504l0 -197M126 448l1 0M127 509l0 -293M127 427l1 41 0 -40M128 434l1 28M129 636l0 -319M129 428l1 39M130 511l0 -215M130 433l1 30 0 -30M131 441l1 14M132 503l0 -196M132 448l1 0"/>
<path stroke="red" d="M133 509l0 -293M133 431l1 34 0 -34M134 434l1 28M135 636l0 -403M135 448l1 0M136 540l0 -218M136 448l1 0M137 454l0 -12M137 454l1 -12M138 507l0 -202M138 448l1 0M139 485l0 -276M139 433l1 30 0 -30M140 437l1 22M141 644l0 -360M141 438l1 -32"/>
<path stroke="red" d="M142 547l0 -436M142 437l1 22 0 -22M143 444l1 8M144 495l0 -191M144 448l1 0M145 462l0 -258M145 450l1 -4M146 451l0 -6M146 451l1 -6M147 646l0 -387M147 448l1 0M148 455l0 -159M148 445l1 6M149 455l0 -14 1 14M150 508l0 -201M150 448l1 0"/>
<path stroke="red" d="M151 501l0 -285M151 440l1 16 0 -16M152 443l1 10M153 636l0 -376M153 448l1 0M154 455l0 -159M154 452l1 -8M155 456l0 -16M155 456l1 -16M156 507l0 -200M156 448l1 0M157 501l0 -284M157 441l1 14M158 496l0 -55M158 496l1 2M159 636l0 -402"/>
<path stroke="red" d="M159 449l1 -2M160 546l0 -191M160 455l1 -14M161 495l0 -189M161 483l1 -8 0 -27 1 0M163 471l0 -266M163 461l1 -26M164 644l0 -293M164 483l1 -36M165 646l0 -385M165 464l1 -32M166 646l0 -382M166 448l1 0M167 507l0 -204M167 448l2 0"/>
<path stroke="red" d="M169 474l0 -266M169 439l1 18M170 646l0 -339M170 435l1 26M171 499l0 -241M171 403l1 -37M172 490l0 -170M172 456l1 -16M173 503l0 -196M173 448l1 0M174 509l0 -293M174 495l1 -81M175 482l0 -68M175 462l1 -28M176 636l0 -320M176 380l1 -13"/>
<path stroke="red" d="M177 511l0 -215M177 465l1 -32M178 464l0 -31M178 455l1 -14M179 503l0 -196M179 448l1 0M180 509l0 -292M180 430l1 35 0 -34M181 434l1 28M182 636l0 -404M182 448l1 0M183 540l0 -217M183 448l1 1M184 454l0 -12 1 12M185 507l0 -202"/>
<path stroke="red" d="M185 448l1 0M186 484l0 -275M186 463l1 -30M187 463l0 -30M187 460l1 -24M188 644l0 -361M188 485l1 -14M189 643l0 -358M189 458l1 -20M190 458l0 -20M190 452l1 -8M191 494l0 -188M191 448l1 0M192 463l0 -258M192 448l1 0M193 451l0 -6"/>
<path stroke="red" d="M193 445l1 6M194 646l0 -387M194 448l1 0M195 458l0 -168M195 446l1 4M196 455l0 -14 1 14M197 508l0 -201M197 448l1 0M198 500l0 -284M198 457l1 -18M199 457l0 -18M199 453l1 -10M200 636l0 -374M200 448l1 0M201 458l0 -169M201 445l1 6"/>
<path stroke="red" d="M202 456l0 -16 1 16M203 507l0 -200M203 448l1 0M204 500l0 -284M204 456l1 -16M205 456l0 -16M205 453l1 -10M206 635l0 -400M206 447l1 2M207 545l0 -189M207 441l1 14M208 494l0 -73 1 -56M209 494l0 -187M209 448l1 0M210 474l0 -269"/>
<path stroke="red" d="M210 463l1 -30M211 644l0 -211M211 474l1 -32M212 645l0 -388M212 467l1 -38M213 526l0 -261M213 456l1 -16M214 494l0 -188M214 449l1 0 0 -1 1 0M216 463l0 -258M216 446l1 4M217 646l0 -295M217 463l1 -29M218 491l0 -232M218 406l1 0"/>
<path stroke="red" d="M219 458l0 -168M219 453l1 -10M220 508l0 -201M220 448l1 0M221 471l0 -255M221 471l1 23M222 500l0 -134M222 442l1 12M223 636l0 -374M223 331l1 -9M224 501l0 -211M224 444l1 6M225 454l0 -12 1 12M226 507l0 -200M226 448l1 0M227 500l0 -284"/>
<path stroke="red" d="M227 461l1 -24M228 460l0 -23M228 454l1 -12M229 635l0 -400M229 448l1 0M230 545l0 -189M230 437l1 22 0 -22M231 443l1 10M232 494l0 -187M232 448l1 0M233 474l0 -269M233 425l1 45 0 -44M234 437l1 22M235 644l0 -366M235 467l1 -38"/>
<path stroke="red" d="M236 645l0 -555M236 448l1 0M237 453l0 -10M237 453l1 -10M238 507l0 -204M238 448l1 0M239 474l0 -266M239 457l1 -18M240 457l0 -18M240 456l1 -16M241 646l0 -388M241 448l1 0M242 490l0 -170M242 436l1 24 0 -24M243 442l1 12M244 503l0 -196"/>
<path stroke="red" d="M244 448l1 0M245 509l0 -293M245 432l1 32 0 -32M246 435l1 26M247 636l0 -340M247 448l1 0M248 490l0 -170M248 437l1 22 0 -22M249 443l1 10M250 503l0 -196M250 448l1 0M251 509l0 -292M251 432l1 32 0 -32M252 435l1 26M253 636l0 -403"/>
<path stroke="red" d="M253 448l1 0M254 540l0 -218M254 451l1 -6M255 455l0 -14M255 455l1 -14M256 507l0 -202M256 448l1 0M257 484l0 -275M257 435l1 26M258 644l0 -209M258 499l1 30M259 643l0 -360M259 450l1 -3M260 637l0 -339M260 448l1 0M261 507l0 -204"/>
<path stroke="red" d="M261 451l1 -1 0 -2 1 0M263 474l0 -266M263 439l1 18M264 646l0 -339M264 434l1 28M265 499l0 -241M265 448l1 0M266 490l0 -170M266 456l1 -16M267 503l0 -196M267 448l1 0 0 -124 1 -43M269 509l0 -293M269 433l1 30M270 636l0 -320M270 443l1 10"/>
<path stroke="red" d="M271 511l0 -215M271 367l1 123 0 -57M272 441l1 14M273 503l0 -196M273 448l1 0M274 509l0 -292M274 427l1 41 0 -40M275 434l1 28M276 636l0 -404M276 449l1 0M277 540l0 -217M277 448l1 0M278 453l0 -10 1 10M279 507l0 -202M279 448l1 0"/>
<path stroke="red" d="M280 484l0 -275M280 464l1 -32M281 464l0 -32M281 460l1 -24M282 644l0 -361M282 455l1 -14M283 643l0 -358M283 437l1 22 0 -22M284 443l1 9M285 494l0 -188M285 448l1 0M286 463l0 -258M286 448l1 0M287 451l0 -6M287 451l1 -6M288 646l0 -387"/>
<path stroke="red" d="M288 449l1 -2M289 458l0 -168M289 447l1 2M290 455l0 -14 1 14M291 508l0 -201M291 448l1 0M292 500l0 -284M292 457l1 -18M293 457l0 -18M293 453l1 -10M294 636l0 -374M294 449l1 -1M295 458l0 -168M295 446l1 4M296 455l0 -14 1 15M297 507l0 -200"/>
<path stroke="red" d="M297 448l1 0M298 500l0 -284M298 440l1 16 0 -16M299 443l1 10M300 635l0 -400M300 449l1 -2M301 545l0 -189M301 455l1 -14M302 455l0 -14M302 451l1 -6M303 494l0 -187M303 448l1 0M304 474l0 -269M304 464l1 -32M305 496l0 -64M305 496l1 2"/>
<path stroke="red" d="M306 645l0 -388M306 468l1 -41M307 526l0 -261M307 457l1 -18M308 494l0 -188M308 481l1 -7 0 -26 1 0M310 463l0 -258M310 446l1 4M311 646l0 -295M311 483l1 -36M312 491l0 -232M312 448l1 0M313 458l0 -168M313 443l1 10M314 508l0 -201"/>
<path stroke="red" d="M314 448l1 0M315 449l0 -2 1 2M316 500l0 -284M316 455l1 -14M317 636l0 -374M317 479l1 -62M318 501l0 -201M318 409l1 -38M319 458l0 -168M319 443l1 10M320 507l0 -200M320 448l1 0M321 500l0 -284M321 483l1 -24M322 478l0 -41M322 454l1 -12"/>
<path stroke="red" d="M323 635l0 -400M323 370l1 48M324 545l0 -189M324 441l1 22 0 -26M325 443l1 10M326 494l0 -187M326 448l1 0M327 474l0 -269M327 472l1 -48M328 472l0 -48M328 459l1 -22M329 644l0 -366M329 428l1 40M330 645l0 -555M330 449l1 -2M331 452l0 -8"/>
<path stroke="red" d="M331 444l1 8M332 507l0 -204M332 448l1 0M333 474l0 -266M333 457l1 -18M334 457l0 -18M334 456l1 -16M335 646l0 -388M335 448l1 0M336 490l0 -169M336 435l1 26 0 -26M337 442l1 12M338 503l0 -196M338 448l1 0M339 509l0 -293M339 432l1 32"/>
<path stroke="red" d="M340 464l0 -32M340 434l1 27M341 636l0 -340M341 448l1 0M342 490l0 -169M342 459l1 -22M343 459l0 -22M343 454l1 -12M344 503l0 -196M344 448l1 0M345 509l0 -292M345 464l1 -32M346 464l0 -32M346 461l1 -26M347 636l0 -403M347 448l1 0"/>
<path stroke="red" d="M348 540l0 -218M348 451l1 -6M349 454l0 -12M349 454l1 -12M350 507l0 -202M350 448l1 0M351 484l0 -275M351 434l1 28 0 -28M352 437l1 22M353 644l0 -361M353 420l1 48M354 637l0 -415M354 448l1 0M355 494l0 -74 1 -57M356 495l0 -190"/>
<path stroke="red" d="M356 448l1 0M357 460l0 -256M357 447l1 2M358 646l0 -201M358 474l1 -32M359 492l0 -233M359 448l1 0M360 454l0 -172M360 452l1 -8M361 507l0 -200M361 448l1 0M362 449l0 -2M362 449l1 -2M363 501l0 -285M363 441l1 14M364 636l0 -381"/>
<path stroke="red" d="M364 416l1 64M365 502l0 -203M365 406l1 0M366 454l0 -172M366 452l1 -8M367 507l0 -200M367 448l1 0M368 469l0 -253M368 469l1 25M369 501l0 -135M369 442l1 12M370 635l0 -380M370 258l1 -18M371 545l0 -311M371 452l1 22 0 -37M372 443l1 10"/>
<path stroke="red" d="M373 495l0 -189M373 448l1 0M374 475l0 -270M374 422l1 51 0 -50M375 436l1 24M376 644l0 -364M376 469l1 -41M377 645l0 -359M377 446l1 4M378 452l0 -8M378 452l1 -8M379 507l0 -204M379 448l1 0M380 474l0 -266M380 438l1 19 0 -18 1 18"/>
<path stroke="red" d="M382 646l0 -388M382 448l1 0M383 489l0 -168M383 461l1 -26M384 461l0 -26M384 454l1 -12M385 504l0 -197M385 448l1 0M386 509l0 -293M386 431l1 34 0 -34M387 434l1 28M388 636l0 -340M388 452l1 -1M389 489l0 -168M389 436l1 23 0 -22"/>
<path stroke="red" d="M390 442l1 12M391 503l0 -196M391 448l1 0M392 509l0 -293M392 432l1 32 0 -32M393 435l1 26M394 636l0 -403M394 448l1 0M395 540l0 -218M395 446l1 4M396 454l0 -12 1 12M397 507l0 -202M397 448l1 0M398 485l0 -276M398 462l1 -28M399 462l0 -28"/>
<path stroke="red" d="M399 459l1 -22M400 644l0 -360M400 351l1 1M401 566l0 -305M401 429l1 38 0 -38M402 437l1 22M403 507l0 -204M403 448l1 0M404 474l0 -266M404 439l1 18M405 646l0 -207M405 498l1 32 0 -272M406 448l1 0M407 489l0 -168M407 457l1 -18"/>
<path stroke="red" d="M408 504l0 -197M408 450l1 -1 0 -1 1 0M410 509l0 -293M410 463l1 -30M411 636l0 -318M411 453l1 -9M412 511l0 -215M412 448l1 0M413 489l0 -168M413 456l1 -16M414 503l0 -196M414 448l1 0 0 -124 1 -43M416 509l0 -293M416 433l1 30M417 636l0 -318"/>
<path stroke="red" d="M417 444l1 8M418 540l0 -307M418 374l1 -52M419 487l0 -165M419 443l1 10M420 507l0 -202M420 448l1 0M421 485l0 -276M421 467l1 -34M422 466l0 -34M422 460l1 -24M423 644l0 -360M423 466l1 -18M424 642l0 -530M424 461l1 -25M425 460l0 -24"/>
<path stroke="red" d="M425 453l1 -10M426 495l0 -190M426 448l1 0M427 460l0 -256M427 450l1 -4M428 450l0 -4 1 4M429 646l0 -387M429 447l1 2M430 454l0 -172M430 449l1 -2M431 454l0 -12 1 12M432 507l0 -200M432 448l1 0M433 501l0 -285M433 458l1 -20M434 458l0 -20"/>
<path stroke="red" d="M434 454l1 -12M435 636l0 -381M435 481l1 -3M436 496l0 -214M436 448l1 0M437 454l0 -12 1 12M438 507l0 -200M438 448l1 0M439 501l0 -285M439 457l1 -18M440 457l0 -18M440 453l1 -10M441 635l0 -401M441 448l1 0M442 545l0 -189M442 440l1 16"/>
<path stroke="red" d="M443 456l0 -16M443 445l1 6M444 495l0 -189M444 448l1 0M445 475l0 -270M445 466l1 -36M446 466l0 -36M446 457l1 -18M447 645l0 -365M447 465l1 -2M448 644l0 -394M448 419l1 58M449 481l0 -144M449 455l1 -14M450 495l0 -191M450 448l1 0"/>
<path stroke="red" d="M451 462l0 -258M451 445l1 6M452 496l0 -51M452 496l1 2M453 646l0 -387M453 448l1 0M454 455l0 -159M454 452l1 -8M455 508l0 -201M455 427l1 -5M456 449l0 -27M456 448l1 -1M457 501l0 -285M457 441l1 14M458 636l0 -376M458 408l1 75"/>
<path stroke="red" d="M459 502l0 -204M459 448l1 0M460 455l0 -159M460 443l1 10M461 507l0 -200M461 448l1 0M462 449l0 -2 1 2M463 501l0 -284M463 455l1 -14M464 636l0 -376M464 478l1 -60M465 478l0 -244M465 478l1 68 0 -191M466 442l1 12M467 495l0 -189"/>
<path stroke="red" d="M467 448l1 0M468 457l0 -252M468 420l1 45M469 471l0 -48M469 437l1 22M470 644l0 -364M470 305l1 41M471 646l0 -363M471 447l1 2M472 452l0 -8M472 452l1 -8M473 507l0 -204M473 448l1 0M474 474l0 -266M474 458l1 -19M475 458l0 -19M475 457l1 -18"/>
<path stroke="red" d="M476 646l0 -388M476 448l1 0M477 489l0 -168M477 434l1 28 0 -28M478 442l1 12M479 504l0 -197M479 448l1 0M480 509l0 -293M480 431l1 34 0 -34M481 434l1 28M482 636l0 -319M482 478l1 -37M483 511l0 -215M483 436l1 24 0 -24M484 442l1 12"/>
<path stroke="red" d="M485 503l0 -196M485 448l1 0M486 509l0 -293M486 432l1 32 0 -32M487 434l1 28M488 636l0 -403M488 448l1 0M489 540l0 -218M489 450l1 -4M490 454l0 -12M490 454l1 -12M491 507l0 -202M491 448l1 0M492 485l0 -276M492 434l1 28 0 -28M493 437l1 22"/>
<path stroke="red" d="M494 644l0 -360M494 434l1 28M495 566l0 -307M495 428l1 40 0 -40M496 437l1 22M497 507l0 -204M497 448l1 0M498 474l0 -266M498 439l1 18 0 -18M499 440l1 16M500 646l0 -388M500 448l1 0M501 489l0 -168M501 457l1 -18M502 493l0 -75"/>
<path stroke="red" d="M502 418l1 -54M503 504l0 -197M503 448l1 0M504 509l0 -293M504 433l1 30M505 636l0 -319M505 436l1 40M506 511l0 -215M506 448l1 0M507 489l0 -168M507 440l1 16M508 503l0 -196M508 448l2 0M510 509l0 -293M510 433l1 30M511 636l0 -319"/>
<path stroke="red" d="M511 444l1 9M512 466l0 -233M512 406l1 0M513 540l0 -218M513 444l1 8M514 507l0 -202M514 448l1 0 0 -239M515 364l1 37M516 485l0 -143M516 460l1 -24M517 644l0 -337M517 339l1 1M518 642l0 -531M518 450l1 26 0 -41M519 442l1 12M520 495l0 -191"/>
<path stroke="red" d="M520 448l1 0M521 462l0 -258M521 450l1 -4M522 451l0 -6M522 451l1 -6M523 646l0 -387M523 451l1 -3M524 455l0 -159M524 448l1 0M525 454l0 -12 1 12M526 508l0 -201M526 448l1 0M527 501l0 -285M527 458l1 -20M528 458l0 -20M528 454l1 -12"/>
<path stroke="red" d="M529 636l0 -376M529 448l1 1M530 497l0 -201M530 447l1 2M531 455l0 -14 1 14M532 507l0 -200M532 448l1 0M533 501l0 -284M533 439l1 18 0 -18M534 443l1 10M535 636l0 -402M535 448l1 0M536 546l0 -191M536 458l1 -20M537 458l0 -20M537 452l1 -8"/>
<path stroke="red" d="M538 495l0 -189M538 448l1 0M539 471l0 -266M539 465l1 -34M540 465l0 -34M540 457l1 -18M541 646l0 -366M541 464l1 -32M542 646l0 -385M542 448l2 0M544 507l0 -204M544 448l1 0M545 474l0 -266M545 457l1 -18M546 457l0 -18M546 456l1 -16"/>
<path stroke="red" d="M547 646l0 -388M547 448l1 0M548 490l0 -170M548 458l1 -20M549 458l0 -20M549 453l1 -10M550 503l0 -196M550 448l1 0M551 509l0 -293M551 463l1 -30M552 636l0 -253 1 -34M553 511l0 -215M553 448l1 0M554 490l0 -170M554 457l1 -18M555 503l0 -196"/>
<path stroke="red" d="M555 450l1 -1 0 -1 1 0M557 509l0 -292M557 463l1 -30M558 636l0 -320M558 454l1 -11M559 466l0 -234M559 447l1 2M560 540l0 -217M560 452l1 -8M561 507l0 -202M561 448l1 0 0 -146 1 -43M563 484l0 -275M563 461l1 -26M564 644l0 -336"/>
<path stroke="red" d="M564 459l1 -22M565 643l0 -360M565 496l1 -53M566 482l0 -127M566 454l1 -12M567 494l0 -188M567 448l1 0M568 463l0 -258M568 447l1 1M569 450l0 -4 1 4M570 646l0 -387M570 457l1 0M571 458l0 -168M571 446l1 3M572 454l0 -12M572 454l1 -12"/>
<path stroke="red" d="M573 508l0 -201M573 448l1 0M574 500l0 -284M574 437l1 22 0 -22M575 442l1 12M576 636l0 -374M576 448l1 1M577 496l0 -207M577 448l1 0M578 455l0 -14 1 14M579 507l0 -200M579 448l1 0M580 500l0 -284M580 458l1 -20M581 458l0 -20M581 454l1 -12"/>
<path stroke="red" d="M582 635l0 -400M582 448l1 0M583 545l0 -189M583 439l1 18 0 -18M584 444l1 8M585 494l0 -187M585 448l1 0M586 474l0 -269M586 429l1 38 0 -38M587 438l1 20M588 645l0 -367M588 434l1 31M589 526l0 -269M589 437l1 22 0 -21M590 443l1 10"/>
<path stroke="red" d="M591 494l0 -188M591 448l1 0M592 463l0 -258M592 447l1 2M593 451l0 -6 1 6M594 646l0 -387M594 448l1 0M595 458l0 -168M595 451l1 -6M596 456l0 -16M596 456l1 -16M597 508l0 -201M597 448l1 0M598 500l0 -284M598 440l1 16M599 496l0 -56"/>
<path stroke="red" d="M599 496l1 2M600 636l0 -374M600 448l1 0M601 458l0 -168M601 452l1 -8M602 507l0 -200M602 429l1 -6M603 449l0 -26M603 449l1 -2M604 500l0 -284M604 441l1 14M605 635l0 -373M605 407l1 80 0 -252M606 449l1 -2M607 545l0 -189M607 442l1 12"/>
<path stroke="red" d="M608 494l0 -187M608 448l2 0M610 474l0 -269M610 435l1 26M611 644l0 -293M611 434l1 28M612 645l0 -555M612 474l1 67 0 -221M613 452l1 -8M614 507l0 -204M614 448l1 0M615 474l0 -266M615 451l1 17 0 -29 1 18M617 646l0 -388M617 495l1 -10"/>
<path stroke="red" d="M618 490l0 -170M618 465l1 -32M619 464l0 -31M619 455l1 -14M620 503l0 -196M620 448l1 0M621 509l0 -293M621 430l1 35 0 -34M622 434l1 28M623 636l0 -320M623 441l1 14M624 511l0 -215M624 434l1 28 0 -28M625 441l1 13M626 503l0 -196"/>
<path stroke="red" d="M626 448l1 0M627 509l0 -292M627 431l1 34 0 -34M628 434l1 28M629 636l0 -403M629 448l1 0M630 540l0 -218M630 447l1 2M631 454l0 -12 1 12M632 507l0 -202M632 448l1 0M633 484l0 -275M633 463l1 -30M634 463l0 -30M634 459l1 -22M635 644l0 -361"/>
<path stroke="red" d="M635 464l1 -31M636 637l0 -339M636 453l1 -10M637 511l0 -211M637 448l1 0M638 507l0 -204M638 448l1 0M639 474l0 -266M639 439l1 18 0 -18M640 440l1 16M641 646l0 -388M641 448l1 0M642 490l0 -170M642 458l1 -20M643 458l0 -20M643 453l1 -10"/>
<path stroke="red" d="M644 503l0 -196M644 448l1 0M645 509l0 -293M645 464l1 -32M646 463l0 -31M646 461l1 -26M647 636l0 -340M647 448l1 0M648 490l0 -170M648 457l1 -18M649 493l0 -75 1 -54M650 503l0 -196M650 448l1 0M651 509l0 -292M651 433l1 30M652 636l0 -320"/>
<path stroke="red" d="M652 433l1 45 0 -246M653 448l1 0M654 540l0 -217M654 444l1 8M655 507l0 -202M655 448l2 0M657 484l0 -275M657 461l1 -26M658 644l0 -336M658 460l1 -24M659 643l0 -360M659 406l1 0M660 546l0 -191M660 454l1 -12M661 494l0 -188M661 448l1 0"/>
<path stroke="red" d="M662 448l0 -243M662 327l1 -31M663 463l0 -189M663 446l1 4M664 646l0 -349M664 299l1 6M665 491l0 -232M665 444l1 6M666 454l0 -12 1 12M667 508l0 -201M667 448l1 0M668 500l0 -284M668 461l1 -24M669 460l0 -23M669 454l1 -12M670 636l0 -374"/>
<path stroke="red" d="M670 452l1 -1M671 496l0 -206M671 449l1 -2M672 454l0 -12 1 12M673 507l0 -200M673 448l1 0M674 500l0 -284M674 459l1 -22M675 459l0 -22M675 454l1 -12M676 635l0 -400M676 448l1 0M677 545l0 -189M677 438l1 20 0 -20M678 444l1 8M679 494l0 -187"/>
<path stroke="red" d="M679 448l1 0M680 474l0 -269M680 468l1 -40M681 468l0 -40M681 458l1 -20M682 645l0 -367M682 462l1 -4M683 526l0 -269M683 459l1 -22M684 459l0 -22M684 453l1 -10M685 494l0 -188M685 448l1 0M686 463l0 -258M686 448l1 0M687 451l0 -6"/>
<path stroke="red" d="M687 445l1 6M688 646l0 -387M688 448l1 0M689 458l0 -168M689 451l1 -6M690 456l0 -16M690 456l1 -16M691 508l0 -201M691 448l1 0M692 500l0 -284M692 440l1 16 0 -16M693 443l1 10M694 636l0 -374M694 448l1 0M695 458l0 -168M695 444l1 8"/>
<path stroke="red" d="M696 456l0 -16 1 16M697 507l0 -200M697 448l1 0M698 500l0 -284M698 456l1 -16M699 635l0 -244 1 -35M700 494l0 -259M700 447l1 2M701 545l0 -189M701 441l1 13M702 494l0 -187M702 455l1 -2 0 -5 1 0M704 474l0 -269M704 434l1 28M705 644l0 -293"/>
<path stroke="red" d="M705 436l1 30M706 645l0 -555M706 443l1 10M707 541l0 -221M707 451l1 -6M708 507l0 -204M708 448l1 0 0 -146 1 -43M710 474l0 -266M710 457l1 -18M711 646l0 -339M711 460l1 -24M712 499l0 -241M712 367l1 123 0 -57M713 441l1 14M714 503l0 -196"/>
<path stroke="red" d="M714 448l1 0M715 509l0 -293M715 427l1 41 0 -40M716 434l1 28M717 636l0 -319M717 428l1 40M718 511l0 -215M718 433l1 30 0 -30M719 441l1 14M720 503l0 -196M720 448l1 0M721 509l0 -292M721 431l1 34 0 -34M722 434l1 28M723 636l0 -403"/>
<path stroke="red" d="M723 448l1 0M724 540l0 -218M724 449l1 -2M725 454l0 -12M725 454l1 -12M726 507l0 -202M726 448l1 0M727 484l0 -275M727 433l1 30 0 -30M728 436l1 24M729 644l0 -361M729 438l1 -32M730 637l0 -415M730 449l1 -2M731 449l0 -2M731 448l1 0"/>
<path stroke="red" d="M732 495l0 -190M732 448l1 0M733 460l0 -256M733 447l1 2M734 450l0 -4M734 450l1 -4M735 646l0 -387M735 448l1 0M736 454l0 -172M736 447l1 2M737 455l0 -14 1 14M738 507l0 -200M738 448l1 0M739 501l0 -285M739 440l1 16 0 -16M740 443l1 10"/>
<path stroke="red" d="M741 636l0 -381M741 448l1 0M742 454l0 -172M742 450l1 -4M743 455l0 -14M743 455l1 -14M744 507l0 -200M744 448l1 0M745 501l0 -285M745 440l1 16M746 496l0 -56M746 496l1 2M747 635l0 -401M747 449l1 -2M748 545l0 -189M748 455l1 -14"/>
<path stroke="red" d="M749 495l0 -189M749 482l1 -7 0 -27 1 0M751 475l0 -270M751 463l1 -30M752 644l0 -293M752 483l1 -36M753 645l0 -365M753 456l1 -16M754 541l0 -221M754 451l1 -6M755 507l0 -204M755 448l2 0M757 474l0 -266M757 439l1 18M758 646l0 -340"/>
<path stroke="red" d="M758 435l1 26M759 499l0 -241M759 403l1 -36M760 489l0 -168M760 455l1 -14M761 504l0 -197M761 448l1 0M762 509l0 -293M762 495l1 -81M763 482l0 -68M763 462l1 -28M764 636l0 -319M764 379l1 -11M765 511l0 -215M765 464l1 -30M766 464l0 -31"/>
<path stroke="red" d="M766 455l1 -14M767 503l0 -196M767 448l1 0M768 509l0 -293M768 430l1 36 0 -35M769 434l1 28M770 636l0 -403M770 448l1 0M771 540l0 -218M771 448l1 0M772 453l0 -10 1 10M773 507l0 -202M773 448l1 0M774 485l0 -276M774 463l1 -30M775 463l0 -30"/>
<path stroke="red" d="M775 460l1 -23M776 644l0 -360M776 485l1 -14M777 642l0 -381M777 472l1 -48M778 472l0 -48M778 461l1 -26M779 507l0 -204M779 448l1 0M780 474l0 -266M780 457l1 -18M781 457l0 -18M781 456l1 -16M782 646l0 -388M782 448l1 0M783 489l0 -168"/>
<path stroke="red" d="M783 459l1 -22M784 459l0 -22M784 453l1 -10M785 504l0 -197M785 448l1 0M786 509l0 -293M786 464l1 -32M787 464l0 -32M787 461l1 -26M788 636l0 -340M788 448l1 0M789 489l0 -168M789 458l1 -20M790 458l0 -20M790 453l1 -10M791 503l0 -196"/>
<path stroke="red" d="M791 448l1 0M792 509l0 -293M792 464l1 -32M793 464l0 -32M793 461l1 -26M794 636l0 -403M794 448l1 0M795 540l0 -218M795 451l1 -6M796 494l0 -74 1 -57M797 507l0 -202M797 448l1 0M798 485l0 -276M798 461l1 -26M799 644l0 -275M799 374l1 -67"/>
<path stroke="red" d="M800 642l0 -530M800 447l1 2M801 547l0 -192M801 455l1 -14M802 495l0 -190M802 449l1 0 0 -1 1 0M804 460l0 -256M804 447l1 2M805 646l0 -295M805 463l1 -29M806 492l0 -233M806 406l1 0M807 454l0 -172M807 452l1 -8M808 507l0 -200M808 448l1 0"/>
<path stroke="red" d="M809 469l0 -253M809 469l1 25M810 501l0 -135M810 442l1 12M811 636l0 -381M811 331l1 -8M812 502l0 -220M812 446l1 2M813 453l0 -10 1 10M814 507l0 -200M814 448l1 0M815 501l0 -285M815 461l1 -24M816 460l0 -23M816 454l1 -12M817 635l0 -401"/>
<path stroke="red" d="M817 448l1 0M818 545l0 -189M818 437l1 22 0 -22M819 443l1 10M820 495l0 -189M820 448l1 0M821 475l0 -270M821 425l1 46 0 -46M822 437l1 22M823 644l0 -364M823 466l1 -36M824 645l0 -395M824 484l1 -26M825 624l0 -333M825 438l1 20"/>
<path stroke="red" d="M826 495l0 -191M826 448l1 0M827 462l0 -258M827 446l1 4M828 451l0 -6 1 6M829 646l0 -387M829 447l1 2M830 455l0 -159M830 450l1 -4M831 455l0 -14M831 455l1 -14M832 508l0 -201M832 448l1 0M833 501l0 -285M833 439l1 18 0 -17M834 443l1 10"/>
<path stroke="red" d="M835 636l0 -376M835 448l1 0M836 455l0 -159M836 451l1 -6M837 456l0 -16M837 456l1 -16M838 507l0 -200M838 448l1 0M839 501l0 -284M839 440l1 16 0 -16M840 443l1 10M841 636l0 -402M841 449l1 -2M842 546l0 -191M842 440l1 16 0 -16"/>
<path stroke="red" d="M843 445l1 6M844 495l0 -189M844 448l1 0M845 471l0 -266M845 434l1 28M846 644l0 -210M846 502l1 33M847 646l0 -366M847 442l1 17M848 541l0 -221M848 450l1 -5M849 507l0 -204M849 451l1 -1 0 -2 1 0M851 474l0 -266M851 439l1 18M852 646l0 -340"/>
<path stroke="red" d="M852 433l1 29M853 499l0 -241M853 448l1 0M854 489l0 -168M854 456l1 -16M855 504l0 -197M855 448l1 0 0 -124 1 -43M857 509l0 -293M857 433l1 30M858 636l0 -319M858 444l1 8M859 511l0 -215M859 370l1 119 0 -56M860 441l1 14M861 503l0 -196"/>
<path stroke="red" d="M861 448l1 0M862 509l0 -293M862 427l1 41 0 -40M863 434l1 28M864 636l0 -403M864 449l1 0M865 540l0 -218M865 448l1 0M866 453l0 -10 1 10M867 507l0 -202M867 448l1 0M868 485l0 -276M868 464l1 -32M869 464l0 -32M869 460l1 -24M870 644l0 -360"/>
<path stroke="red" d="M870 456l1 -15M871 642l0 -383M871 422l1 52 0 -52M872 435l1 26M873 507l0 -204M873 448l1 0M874 474l0 -266M874 439l1 18 0 -18M875 440l1 16M876 646l0 -388M876 448l1 0M877 489l0 -168M877 460l1 -24M878 460l0 -24M878 454l1 -12"/>
<path stroke="red" d="M879 504l0 -197M879 448l1 0M880 509l0 -293M880 464l1 -32M881 464l0 -32M881 462l1 -28M882 636l0 -340M882 448l1 0M883 489l0 -168M883 459l1 -22M884 459l0 -22M884 453l1 -10M885 503l0 -196M885 448l1 0M886 509l0 -293M886 432l1 32"/>
<path stroke="red" d="M887 464l0 -32M887 435l1 26M888 636l0 -403M888 448l1 0M889 540l0 -218M889 445l1 6M890 454l0 -12 1 12M891 507l0 -202M891 448l1 0M892 485l0 -276M892 461l1 -26M893 496l0 -61M893 496l1 2M894 644l0 -533M894 444l1 3M895 547l0 -193"/>
<path stroke="red" d="M895 456l1 -16M896 495l0 -191M896 483l1 -8 0 -27 1 0M898 462l0 -258M898 445l1 6M899 646l0 -294M899 483l1 -36M900 493l0 -234M900 448l1 0M901 455l0 -159M901 443l1 10M902 508l0 -201M902 448l1 0M903 449l0 -2 1 2M904 501l0 -285"/>
<path stroke="red" d="M904 455l1 -13M905 636l0 -376M905 478l1 -60M906 502l0 -204M906 408l1 -41M907 455l0 -159M907 442l1 12M908 507l0 -200M908 448l1 0M909 501l0 -284M909 483l1 -23M910 477l0 -40M910 454l1 -12M911 636l0 -402M911 369l1 49M912 546l0 -191"/>
<path stroke="red" d="M912 439l1 25 0 -28M913 443l1 10M914 495l0 -189M914 448l1 0M915 471l0 -266M915 470l1 -44M916 470l0 -44M916 458l1 -20M917 644l0 -364M917 427l1 41M918 646l0 -385M918 455l1 -39M919 503l0 -239M919 448l1 0M920 507l0 -204M920 448l1 0"/>
<path stroke="red" d="M921 474l0 -266M921 457l1 -18M922 457l0 -18M922 456l1 -16M923 646l0 -388M923 448l1 0M924 490l0 -170M924 435l1 26 0 -26M925 442l1 12M926 503l0 -196M926 448l1 0M927 509l0 -293M927 432l1 32 0 -32M928 434l1 27M929 636l0 -340"/>
<path stroke="red" d="M929 448l1 0M930 490l0 -170M930 459l1 -22M931 459l0 -22M931 454l1 -12M932 503l0 -196M932 448l1 0M933 509l0 -292M933 464l1 -32M934 464l0 -32M934 461l1 -26M935 636l0 -404M935 448l1 0M936 540l0 -217M936 451l1 -6M937 454l0 -12"/>
<path stroke="red" d="M937 454l1 -12M938 507l0 -202M938 448l1 0M939 484l0 -275M939 434l1 28 0 -28M940 437l1 22M941 644l0 -361M941 336l1 -15M942 546l0 -225M942 440l1 15M943 494l0 -74 1 -56M944 494l0 -188M944 448l1 0M945 463l0 -258M945 447l1 2"/>
<path stroke="red" d="M946 646l0 -201M946 474l1 -32M947 491l0 -232M947 448l1 0M948 458l0 -168M948 453l1 -10M949 508l0 -201M949 448l1 0M950 449l0 -2M950 449l1 -2M951 500l0 -284M951 441l1 14 0 -14"/>
</svg>
