<?xml version="1.0" standalone="yes"?>
<!DOCTYPE svg PUBLIC "-//W3C//DTD SVG 1.1//EN"
 "http://www.w3.org/Graphics/SVG/1.1/DTD/svg11.dtd">
<svg xmlns="http://www.w3.org/2000/svg" version="1.1"
  width="100%" height="100%" viewBox="0 0 1024 768"
  style="fill: none; stroke-width: 3; font-family: Helvetica;
 font: Helvetica;
">

<!-- Creator: NGspice -->

<rect x="0" y="0" width="1024" height="768" fill="white" stroke="none"/>
<text stroke="none" fill="black" font-size="16" x="358" y="752">
time
</text>
<text stroke="none" fill="black" font-size="16" x="10" y="16">
tran1: Inputs 4-7 (Slow)
</text>
<path stroke="black" stroke-width="3" d="M50 704l0 -639"/>
<text stroke="none" fill="black" font-size="16" x="35" y="728">
0.0
</text>
<path stroke="black" stroke-width="3" stroke-dasharray="1,2" d="M204 704l0 -639"/>
<text stroke="none" fill="black" font-size="16" x="189" y="728">
0.5
</text>
<path stroke="black" stroke-width="3" stroke-dasharray="1,2" d="M358 704l0 -639"/>
<text stroke="none" fill="black" font-size="16" x="343" y="728">
1.0
</text>
<path stroke="black" stroke-width="3" stroke-dasharray="1,2" d="M512 704l0 -639"/>
<text stroke="none" fill="black" font-size="16" x="497" y="728">
1.5
</text>
<path stroke="black" stroke-width="3" stroke-dasharray="1,2" d="M666 704l0 -639"/>
<text stroke="none" fill="black" font-size="16" x="651" y="728">
2.0
</text>
<path stroke="black" stroke-width="3" stroke-dasharray="1,2" d="M820 704l0 -639"/>
<text stroke="none" fill="black" font-size="16" x="805" y="728">
2.5
</text>
<path stroke="black" stroke-width="3" stroke-dasharray="1,2" d="M974 704l0 -639"/>
<text stroke="none" fill="black" font-size="16" x="959" y="728">
3.0
</text>
<text stroke="none" fill="black" font-size="16" x="614" y="752">
us
</text>
<path stroke="black" stroke-width="3" d="M50 704l924 0"/>
<text stroke="none" fill="black" font-size="16" x="18" y="712">
0.0
</text>
<path stroke="black" stroke-width="3" stroke-dasharray="1,2" d="M50 633l924 0"/>
<text stroke="none" fill="black" font-size="16" x="18" y="641">
0.2
</text>
<path stroke="black" stroke-width="3" stroke-dasharray="1,2" d="M50 562l924 0"/>
<text stroke="none" fill="black" font-size="16" x="18" y="570">
0.4
</text>
<path stroke="black" stroke-width="3" stroke-dasharray="1,2" d="M50 491l924 0"/>
<text stroke="none" fill="black" font-size="16" x="18" y="499">
0.6
</text>
<path stroke="black" stroke-width="3" stroke-dasharray="1,2" d="M50 420l924 0"/>
<text stroke="none" fill="black" font-size="16" x="18" y="428">
0.8
</text>
<path stroke="black" stroke-width="3" stroke-dasharray="1,2" d="M50 349l924 0"/>
<text stroke="none" fill="black" font-size="16" x="18" y="357">
1.0
</text>
<path stroke="black" stroke-width="3" stroke-dasharray="1,2" d="M50 278l924 0"/>
<text stroke="none" fill="black" font-size="16" x="18" y="286">
1.2
</text>
<path stroke="black" stroke-width="3" stroke-dasharray="1,2" d="M50 207l924 0"/>
<text stroke="none" fill="black" font-size="16" x="18" y="215">
1.4
</text>
<path stroke="black" stroke-width="3" stroke-dasharray="1,2" d="M50 136l924 0"/>
<text stroke="none" fill="black" font-size="16" x="18" y="144">
1.6
</text>
<path stroke="black" stroke-width="3" stroke-dasharray="1,2" d="M50 65l924 0"/>
<text stroke="none" fill="black" font-size="16" x="18" y="73">
1.8
</text>
<text stroke="none" fill="black" font-size="16" x="10" y="32">
V
</text>
<path stroke="red" d="M462 23l46 0"/>
<text stroke="none" fill="black" font-size="16" x="518" y="32">
v(in_4)
</text>
<path stroke="red" d="M50 704l2 0 0 -639 24 0M76 704l0 -639M76 704l25 0 0 -639 24 0M125 704l0 -639M125 704l25 0 0 -639 24 0M174 704l0 -639M174 704l25 0 0 -639 25 0M224 704l0 -639M224 704l25 0 0 -639 24 0M273 704l0 -639M273 704l25 0 0 -639 24 0"/>
<path stroke="red" d="M322 704l0 -639M322 704l25 0 0 -639 25 0M372 704l0 -639M372 704l25 0 0 -639 24 0M421 704l0 -639M421 704l25 0 0 -639 24 0M470 704l0 -639M470 704l25 0 0 -639 24 0M519 704l0 -639M519 704l25 0 0 -639 25 0M569 704l0 -639M569 704l25 0"/>
<path stroke="red" d="M594 704l0 -639 24 0M618 704l0 -639M618 704l25 0 0 -639 24 0M667 704l0 -639M667 704l25 0 0 -639 25 0M717 704l0 -639M717 704l24 0 0 -639 25 0M766 704l0 -639M766 704l25 0 0 -639 24 0M815 704l0 -639M815 704l25 0 0 -639 24 0"/>
<path stroke="red" d="M864 704l0 -639M864 704l25 0 0 -639 25 0M914 704l0 -639M914 704l25 0 0 -639 24 0M963 704l0 -639M963 704l11 0"/>
<path stroke="blue" d="M50 23l46 0"/>
<text stroke="none" fill="black" font-size="16" x="106" y="32">
v(in_5)
</text>
<path stroke="blue" d="M50 704l2 0 0 -639 49 0M101 704l0 -639M101 704l49 0 0 -639 49 0M199 704l0 -639M199 704l50 0 0 -639 49 0M298 704l0 -639M298 704l50 0 0 -639 49 0M397 704l0 -639M397 704l49 0 0 -639 49 0M495 704l0 -639M495 704l50 0 0 -639"/>
<path stroke="blue" d="M545 65l49 0M594 704l0 -639M594 704l49 0 0 -639 49 0M692 704l0 -639M692 704l50 0 0 -639 49 0M791 704l0 -639M791 704l49 0 0 -639 49 0M889 704l0 -639M889 704l50 0 0 -639 35 0"/>
<path stroke="darkgreen" d="M462 39l46 0"/>
<text stroke="none" fill="black" font-size="16" x="518" y="48">
v(in_6)
</text>
<path stroke="darkgreen" d="M50 704l2 0 0 -639 98 0M150 704l0 -639M150 704l99 0 0 -639 99 0M348 704l0 -639M348 704l98 0 0 -639 99 0M545 704l0 -639M545 704l99 0 0 -639 98 0M742 704l0 -639M742 704l99 0 0 -639 98 0M939 704l0 -639M939 704l35 0"/>
<path stroke="green" d="M50 39l46 0"/>
<text stroke="none" fill="black" font-size="16" x="106" y="48">
v(in_7)
</text>
<path stroke="green" d="M50 704l2 0 0 -639 197 0M249 704l0 -639M249 704l198 0 0 -639 197 0M644 704l0 -639M644 704l197 0 0 -639 133 0"/>
</svg>
