<?xml version="1.0" standalone="yes"?>
<!DOCTYPE svg PUBLIC "-//W3C//DTD SVG 1.1//EN"
 "http://www.w3.org/Graphics/SVG/1.1/DTD/svg11.dtd">
<svg xmlns="http://www.w3.org/2000/svg" version="1.1"
  width="100%" height="100%" viewBox="0 0 1024 768"
  style="fill: none; stroke-width: 3; font-family: Helvetica;
 font: Helvetica;
">

<!-- Creator: NGspice -->

<rect x="0" y="0" width="1024" height="768" fill="white" stroke="none"/>
<text stroke="none" fill="black" font-size="16" x="358" y="752">
time
</text>
<text stroke="none" fill="black" font-size="16" x="10" y="16">
tran1: Total Supply Current
</text>
<path stroke="black" stroke-width="3" d="M50 704l0 -640"/>
<text stroke="none" fill="black" font-size="16" x="35" y="728">
0.0
</text>
<path stroke="black" stroke-width="3" stroke-dasharray="1,2" d="M204 704l0 -640"/>
<text stroke="none" fill="black" font-size="16" x="189" y="728">
0.5
</text>
<path stroke="black" stroke-width="3" stroke-dasharray="1,2" d="M358 704l0 -640"/>
<text stroke="none" fill="black" font-size="16" x="343" y="728">
1.0
</text>
<path stroke="black" stroke-width="3" stroke-dasharray="1,2" d="M512 704l0 -640"/>
<text stroke="none" fill="black" font-size="16" x="497" y="728">
1.5
</text>
<path stroke="black" stroke-width="3" stroke-dasharray="1,2" d="M666 704l0 -640"/>
<text stroke="none" fill="black" font-size="16" x="651" y="728">
2.0
</text>
<path stroke="black" stroke-width="3" stroke-dasharray="1,2" d="M820 704l0 -640"/>
<text stroke="none" fill="black" font-size="16" x="805" y="728">
2.5
</text>
<path stroke="black" stroke-width="3" stroke-dasharray="1,2" d="M974 704l0 -640"/>
<text stroke="none" fill="black" font-size="16" x="959" y="728">
3.0
</text>
<text stroke="none" fill="black" font-size="16" x="614" y="752">
us
</text>
<path stroke="black" stroke-width="3" stroke-dasharray="1,2" d="M50 704l924 0"/>
<text stroke="none" fill="black" font-size="16" x="8" y="712">
-1.2
</text>
<path stroke="black" stroke-width="3" stroke-dasharray="1,2" d="M50 624l924 0"/>
<text stroke="none" fill="black" font-size="16" x="8" y="632">
-1.0
</text>
<path stroke="black" stroke-width="3" stroke-dasharray="1,2" d="M50 544l924 0"/>
<text stroke="none" fill="black" font-size="16" x="8" y="552">
-0.8
</text>
<path stroke="black" stroke-width="3" stroke-dasharray="1,2" d="M50 464l924 0"/>
<text stroke="none" fill="black" font-size="16" x="8" y="472">
-0.6
</text>
<path stroke="black" stroke-width="3" stroke-dasharray="1,2" d="M50 384l924 0"/>
<text stroke="none" fill="black" font-size="16" x="8" y="392">
-0.4
</text>
<path stroke="black" stroke-width="3" stroke-dasharray="1,2" d="M50 304l924 0"/>
<text stroke="none" fill="black" font-size="16" x="8" y="312">
-0.2
</text>
<path stroke="black" stroke-width="3" d="M50 224l924 0"/>
<text stroke="none" fill="black" font-size="16" x="8" y="232">
-0.0
</text>
<path stroke="black" stroke-width="3" stroke-dasharray="1,2" d="M50 144l924 0"/>
<text stroke="none" fill="black" font-size="16" x="18" y="152">
0.2
</text>
<path stroke="black" stroke-width="3" stroke-dasharray="1,2" d="M50 64l924 0"/>
<text stroke="none" fill="black" font-size="16" x="18" y="72">
0.4
</text>
<text stroke="none" fill="black" font-size="16" x="10" y="32">
mA
</text>
<path stroke="red" d="M462 23l46 0"/>
<text stroke="none" fill="black" font-size="16" x="518" y="32">
-i(v_supply)
</text>
<path stroke="red" d="M50 627l0 -475M50 219l1 10 0 -9M51 224l1 0M52 237l0 -84M52 230l1 -12M53 331l0 -218M53 237l1 -49M54 250l0 -92M54 232l1 -16M55 236l0 -145M55 221l1 6M56 311l0 -196M56 168l1 6M57 224l0 -50M57 224l1 0M58 269l0 -108M58 220l1 8"/>
<path stroke="red" d="M59 239l0 -157M59 228l1 -8M60 344l0 -184M60 215l1 18M61 241l0 -165M61 219l1 10M62 237l0 -122M62 231l1 -14M63 368l0 -218M63 221l1 6M64 242l0 -141M64 229l1 -10M65 262l0 -141M65 246l1 -19M66 332l0 -232M66 214l1 20M67 269l0 -177"/>
<path stroke="red" d="M67 246l1 -44M68 246l0 -44M68 235l1 -22M69 311l0 -229M69 224l1 0M70 278l0 -113M70 245l1 -42M71 244l0 -41M71 236l1 -24M72 344l0 -258M72 216l1 16M73 238l0 -166M73 222l1 4M74 230l0 -12M74 230l1 -12M75 425l0 -310M75 225l1 -2"/>
<path stroke="red" d="M76 261l0 -95M76 245l1 -42M77 245l0 -42M77 231l1 -14M78 331l0 -221M78 205l1 38M79 247l0 -156M79 246l1 -44M80 246l0 -44M80 238l1 -28M81 312l0 -188M81 224l1 0M82 270l0 -169M82 179l1 -1M83 244l0 -92M83 235l1 -22M84 344l0 -262"/>
<path stroke="red" d="M84 220l1 8M85 232l0 -156M85 119l1 46M86 264l0 -99M86 236l1 -24M87 369l0 -287M87 217l1 15 0 -15M88 224l1 0M89 251l0 -164M89 242l1 -36M90 332l0 -249M90 229l1 -12M91 230l0 -13M91 225l1 -2M92 278l0 -186M92 218l1 12M93 312l0 -225"/>
<path stroke="red" d="M93 224l2 0M95 278l0 -90M95 218l1 12M96 257l0 -179M96 254l1 -60M97 343l0 -155M97 225l1 -2M98 245l0 -175M98 209l1 30 0 -125M99 216l1 16M100 482l0 -315M100 214l1 20M101 252l0 -157M101 240l1 -32M102 270l0 -157M102 229l1 -29"/>
<path stroke="red" d="M103 331l0 -217M103 213l1 22M104 263l0 -172M104 231l1 -14M105 230l0 -83 1 -31M106 312l0 -203M106 224l1 0M107 269l0 -111M107 231l1 -14M108 231l0 -14M108 222l1 4M109 344l0 -262M109 227l1 -6M110 238l0 -162M110 234l1 -20M111 234l0 -20"/>
<path stroke="red" d="M111 214l1 20M112 368l0 -256M112 222l1 4M113 277l0 -176M113 243l1 -38M114 243l0 -38M114 219l1 10M115 332l0 -231M115 230l1 -12M116 270l0 -178M116 231l1 -13M117 230l0 -12M117 227l1 -7M118 311l0 -229M118 224l1 0M119 278l0 -160"/>
<path stroke="red" d="M119 243l1 -39M120 238l0 -35M120 225l1 -2M121 344l0 -258M121 224l1 0M122 237l0 -165M122 237l1 36 0 -99M123 229l1 -10M124 425l0 -344M124 225l1 -2M125 225l0 -27M125 200l1 1M126 269l0 -103M126 213l1 22M127 331l0 -246M127 208l1 43"/>
<path stroke="red" d="M128 251l0 -46M128 233l1 -18M129 237l0 -148M129 229l1 -10M130 312l0 -188M130 224l2 0M132 270l0 -188M132 234l1 -20M133 344l0 -262M133 305l1 -13 0 -212M134 227l1 -6M135 270l0 -194M135 212l1 24M136 238l0 -151M136 229l1 -10"/>
<path stroke="red" d="M137 369l0 -184M137 219l1 10M138 236l0 -162M138 218l1 12M139 272l0 -151M139 240l1 0M140 332l0 -259M140 240l1 -32M141 278l0 -186M141 237l1 -26M142 237l0 -159 1 39M143 312l0 -195M143 224l1 0M144 278l0 -95M144 222l1 4 0 -4"/>
<path stroke="red" d="M145 225l1 -2M146 343l0 -263M146 218l1 12M147 237l0 -167M147 229l1 -10M148 229l0 -10M148 228l1 -8M149 539l0 -436M149 223l1 2M150 276l0 -120M150 204l1 40 0 -40M151 212l1 24M152 331l0 -234M152 227l1 -6M153 245l0 -154M153 206l1 36"/>
<path stroke="red" d="M154 242l0 -35M154 218l1 12M155 312l0 -197M155 224l1 0M156 269l0 -176M156 204l1 39 0 -38M157 219l1 10M158 344l0 -262M158 236l1 -23M159 268l0 -192M159 226l1 -15M160 246l0 -38M160 214l1 20M161 368l0 -261M161 232l1 -16M162 234l0 -71"/>
<path stroke="red" d="M162 163l1 2M163 257l0 -156M163 212l1 24M164 332l0 -239M164 239l1 -29M165 238l0 -28M165 227l1 -6M166 269l0 -177M166 218l1 12M167 311l0 -229M167 224l2 0M169 282l0 -96M169 225l1 -2M170 344l0 -258M170 233l1 10M171 274l0 -86"/>
<path stroke="red" d="M171 231l1 -14M172 247l0 -175M172 233l1 -18M173 262l0 -138M173 212l1 24M174 425l0 -250M174 223l1 2M175 264l0 -147M175 200l1 48M176 272l0 -162M176 226l1 -3M177 331l0 -239M177 242l1 -35M178 273l0 -182M178 218l1 12M179 264l0 -164"/>
<path stroke="red" d="M179 100l1 22M180 312l0 -190M180 224l1 0M181 280l0 -178M181 224l1 0M182 227l0 -90 1 -55M183 344l0 -262M183 236l1 -24M184 265l0 -189M184 194l1 60 0 -60M185 243l1 -38M186 368l0 -286M186 221l1 5M187 263l0 -176M187 204l1 40"/>
<path stroke="red" d="M188 244l0 -40M188 237l1 -26M189 331l0 -248M189 237l1 -26M190 278l0 -186M190 246l1 -44M191 246l0 -44M191 211l1 26M192 311l0 -224M192 224l1 0M193 278l0 -165M193 231l1 -3M194 230l0 -8 1 4M195 344l0 -266M195 200l1 48M196 260l0 -190"/>
<path stroke="red" d="M196 247l1 -40M197 245l0 -40M197 213l1 22M198 482l0 -400M198 223l1 2M199 233l0 -86 1 26M200 269l0 -192M200 246l1 -44M201 331l0 -249M201 221l1 6 0 -54 1 -3M203 270l0 -179M203 226l1 -4M204 312l0 -227M204 224l2 0M206 272l0 -88"/>
<path stroke="red" d="M206 225l1 -2M207 344l0 -262M207 249l1 17M208 271l0 -60M208 219l1 10M209 245l0 -169M209 238l1 -28M210 369l0 -245M210 185l1 7M211 265l0 -181M211 204l1 40M212 285l0 -184M212 230l1 -12M213 263l0 -192M213 229l1 -10M214 332l0 -227"/>
<path stroke="red" d="M214 220l1 8M215 270l0 -187M215 239l1 -30M216 282l0 -200M216 235l1 -7M217 312l0 -144M217 224l1 0M218 278l0 -190M218 205l1 38 0 -157M219 178l1 60M220 344l0 -254M220 215l1 18M221 282l0 -210M221 221l1 6M222 228l0 -8M222 228l1 -8"/>
<path stroke="red" d="M223 425l0 -338M223 225l1 -2M224 269l0 -103M224 234l1 -19M225 234l0 -19M225 230l1 -12M226 332l0 -249M226 215l1 18M227 241l0 -165M227 237l1 -26M228 237l0 -26M228 229l1 -10M229 314l0 -190M229 224l1 0M230 270l0 -196M230 250l1 -52"/>
<path stroke="red" d="M231 250l0 -52M231 235l1 -22M232 346l0 -264M232 229l1 -10M233 270l0 -194M233 230l1 0M234 243l0 -26M234 231l1 -14M235 368l0 -290M235 229l1 -4M236 234l0 -160M236 123l1 119 0 -33M237 217l1 14M238 337l0 -259M238 200l1 48 0 -156"/>
<path stroke="red" d="M239 235l1 6M240 278l0 -69M240 221l1 6M241 312l0 -232M241 224l2 0M243 278l0 -84M243 223l1 2M244 344l0 -264M244 228l1 1M245 244l0 -36M245 223l1 2M246 249l0 -179M246 237l1 -26M247 596l0 -444M247 251l1 5 0 -35M248 222l1 4M249 237l0 -125"/>
<path stroke="red" d="M249 233l1 -18M250 258l0 -145M250 230l1 -12M251 331l0 -209M251 222l1 4M252 273l0 -182M252 215l1 18 0 -118M253 221l1 6M254 312l0 -144M254 224l1 0M255 273l0 -112M255 212l1 24M256 239l0 -157M256 159l1 -21M257 344l0 -220M257 219l1 10"/>
<path stroke="red" d="M258 232l0 -156M258 227l1 -6M259 231l0 -84 1 -32M260 368l0 -253M260 225l1 -1M261 260l0 -159M261 220l1 8M262 229l0 -10M262 229l1 -10M263 332l0 -232M263 218l1 12M264 269l0 -177M264 231l1 -14M265 231l0 -14 1 14M266 312l0 -230"/>
<path stroke="red" d="M266 224l1 0M267 278l0 -153M267 223l1 1M268 229l0 -10 1 10M269 344l0 -258M269 226l1 -4M270 258l0 -186M270 230l1 -12M271 230l0 -12 1 12M272 425l0 -310M272 225l1 -2M273 267l0 -101M273 244l1 -23M274 235l0 -19M274 220l1 8M275 331l0 -221"/>
<path stroke="red" d="M275 211l1 26 0 -146M276 102l1 38M277 239l0 -115M277 218l1 12M278 312l0 -188M278 224l1 0 0 -26M279 200l1 1M280 270l0 -168M280 222l1 4M281 344l0 -262M281 225l1 -1M282 232l0 -16M282 232l1 -16M283 264l0 -188M283 217l1 14M284 368l0 -287"/>
<path stroke="red" d="M284 230l1 -14M285 274l0 -86M285 226l1 -4M286 238l0 -151M286 213l1 22M287 332l0 -211M287 297l1 -6 0 -208M288 231l1 -14M289 282l0 -190M289 223l1 2M290 237l0 -150M290 221l1 6M291 312l0 -144M291 224l1 0M292 278l0 -84M292 223l1 2"/>
<path stroke="red" d="M293 233l0 -155M293 230l1 -12M294 344l0 -153M294 229l1 -10M295 234l0 -164M295 230l1 -12M296 261l0 -138M296 246l1 -17M297 482l0 -353M297 228l1 -8M298 262l0 -162M298 217l1 14 0 -14M299 218l1 12M300 331l0 -218M300 231l1 -14"/>
<path stroke="red" d="M301 263l0 -172M301 233l1 -18M302 233l0 -18M302 226l1 -4M303 311l0 -201M303 224l1 0M304 269l0 -152M304 235l1 -22M305 235l0 -22M305 227l1 -6M306 344l0 -262M306 222l1 4M307 267l0 -191M307 225l1 -2M308 232l0 -16 1 16M309 369l0 -254"/>
<path stroke="red" d="M309 222l1 4M310 278l0 -177M310 225l1 -2M311 225l0 -2M311 225l1 -2M312 332l0 -230M312 223l1 2M313 270l0 -178M313 221l1 18M314 279l0 -65M314 225l1 -2M315 312l0 -230M315 224l1 0M316 278l0 -84M316 278l1 -24M317 274l0 -149M317 222l1 4"/>
<path stroke="red" d="M318 344l0 -258M318 229l1 -8M319 228l0 -7M319 223l1 2M320 274l0 -202M320 222l1 4M321 425l0 -344M321 223l1 2 0 -2 1 2M323 269l0 -133M323 221l1 6M324 331l0 -246M324 233l1 -5M325 280l0 -141M325 229l1 -10M326 265l0 -176M326 232l1 -16"/>
<path stroke="red" d="M327 272l0 -148M327 228l1 -8M328 312l0 -144M328 224l1 0M329 270l0 -188M329 233l1 -18M330 282l0 -200M330 229l1 2M331 344l0 -264M331 222l1 4M332 270l0 -194M332 224l1 0M333 270l0 -183M333 240l1 -25M334 368l0 -234M334 224l1 0"/>
<path stroke="red" d="M335 268l0 -194M335 224l1 0M336 228l0 -79 1 -28M337 333l0 -260M337 239l1 -30M338 278l0 -186M338 224l1 0M339 229l0 -10 1 10M340 312l0 -234M340 224l1 0M341 278l0 -151M341 234l1 -15M342 234l0 -16M342 223l1 2M343 344l0 -264"/>
<path stroke="red" d="M343 222l1 4M344 269l0 -199M344 222l1 4 0 -4 1 4M346 539l0 -467M346 223l1 2M347 286l0 -130M347 210l1 28 0 -28M348 232l1 -16M349 331l0 -249M349 230l1 -12M350 245l0 -167M350 243l1 -38M351 242l0 -37M351 218l1 12M352 312l0 -197"/>
<path stroke="red" d="M352 224l1 0M353 269l0 -84M353 186l1 -3M354 246l0 -168M354 215l1 18M355 344l0 -262M355 235l1 -22M356 235l0 -64 1 -9M357 278l0 -202M357 230l1 -12M358 368l0 -287M358 227l1 7 0 -13M359 223l1 2M360 242l0 -163M360 220l1 8M361 332l0 -231"/>
<path stroke="red" d="M361 172l1 -34M362 238l0 -148M362 219l1 10M363 272l0 -180M363 227l1 -6M364 312l0 -231M364 168l1 6M365 224l0 -50M365 224l1 0M366 292l0 -106M366 223l1 2M367 242l0 -165M367 221l1 6M368 344l0 -156M368 223l1 2M369 239l0 -167"/>
<path stroke="red" d="M369 232l1 -16M370 272l0 -148M370 224l1 5M371 425l0 -250M371 225l1 -2M372 262l0 -193M372 227l1 -6M373 231l0 -118M373 151l1 -24M374 331l0 -250M374 211l1 26M375 282l0 -191M375 224l1 0M376 229l0 -10M376 229l1 -10M377 312l0 -224"/>
<path stroke="red" d="M377 224l1 0M378 289l0 -187M378 218l1 12 0 -12M379 226l1 -4M380 343l0 -262M380 218l1 12M381 265l0 -189M381 228l1 -8M382 233l0 -18M382 233l1 -18M383 368l0 -287M383 225l1 -2M384 273l0 -186M384 234l1 -20M385 234l0 -20M385 234l1 -20"/>
<path stroke="red" d="M386 332l0 -249M386 210l1 28M387 278l0 -186M387 236l1 -19M388 234l0 -17M388 220l1 8M389 312l0 -225M389 224l1 0M390 278l0 -84M390 241l1 3M391 245l0 -156M391 227l1 -6M392 344l0 -266M392 215l1 21 0 -166M393 93l1 -4M394 269l0 -180"/>
<path stroke="red" d="M394 218l1 12M395 482l0 -399M395 232l1 -10M396 231l0 -11M396 224l1 0M397 243l0 -173M397 239l1 -30M398 332l0 -248M398 214l1 21M399 237l0 -26M399 217l1 14M400 270l0 -179M400 221l1 6M401 312l0 -230M401 224l2 0M403 272l0 -88"/>
<path stroke="red" d="M403 220l1 8M404 239l0 -157M404 217l1 14M405 344l0 -166M405 220l1 8M406 237l0 -161M406 236l1 -24M407 272l0 -148M407 234l1 -5M408 369l0 -284M408 219l1 10M409 285l0 -184M409 225l1 -2M410 263l0 -142M410 124l1 -19M411 332l0 -260"/>
<path stroke="red" d="M411 219l1 10M412 270l0 -197M412 226l1 -4M413 227l0 -90 1 -56M414 312l0 -231M414 224l1 0M415 278l0 -190M415 218l1 12 0 -12M416 230l1 -12M417 344l0 -260M417 226l1 -4M418 282l0 -210M418 225l1 -2M419 230l0 -12 1 12M420 425l0 -341"/>
<path stroke="red" d="M420 225l1 -2M421 269l0 -103M421 236l1 -14M422 235l0 -17M422 221l1 6M423 331l0 -255M423 216l1 16M424 240l0 -165M424 224l1 0M425 225l0 -2 1 2M426 317l0 -193M426 224l1 0M427 270l0 -195M427 212l1 21 0 -16M428 222l1 4M429 349l0 -271"/>
<path stroke="red" d="M429 225l1 -2M430 270l0 -194M430 246l1 -16M431 257l0 -38 1 10M432 368l0 -289M432 238l1 -4M433 238l0 -40M433 200l1 1M434 234l0 -160M434 226l1 -4M435 338l0 -268M435 219l1 10 0 -10M436 224l1 0M437 278l0 -186M437 226l1 -3M438 311l0 -231"/>
<path stroke="red" d="M438 224l2 0M440 278l0 -84M440 225l1 -2M441 344l0 -264M441 305l1 -14 0 -72M442 227l1 -6M443 227l0 -157M443 221l1 6M444 231l0 -14 1 14M445 627l0 -475M445 224l1 0M446 237l0 -84M446 218l1 12M447 231l0 -118M447 224l1 1M448 331l0 -173"/>
<path stroke="red" d="M448 213l1 21M449 236l0 -145M449 226l1 -4M450 231l0 -116M450 169l1 39M451 311l0 -146M451 224l1 0M452 269l0 -108M452 226l1 -4M453 230l0 -12M453 230l1 -12M454 344l0 -262M454 234l1 -20M455 241l0 -165M455 233l1 -18M456 233l0 -18"/>
<path stroke="red" d="M456 222l1 5M457 368l0 -253M457 225l1 -2M458 242l0 -141M458 215l1 17 0 -16M459 226l1 -4M460 332l0 -232M460 237l1 -25M461 269l0 -177M461 197l1 54 0 -54M462 211l1 26M463 311l0 -229M463 224l1 0M464 278l0 -113M464 200l1 50 0 -50"/>
<path stroke="red" d="M465 211l1 26M466 344l0 -258M466 231l1 -14M467 238l0 -166M467 226l1 -3M468 230l0 -11 1 10M469 425l0 -310M469 223l1 2M470 233l0 -67 1 9M471 261l0 -95M471 215l1 18M472 331l0 -221M472 245l1 -42M473 245l0 -42M473 238l1 -28M474 247l0 -156"/>
<path stroke="red" d="M474 209l1 30M475 312l0 -188M475 224l2 0M477 270l0 -169M477 211l1 26M478 344l0 -262M478 227l1 -39M479 236l0 -119M479 231l1 -14M480 264l0 -188M480 211l1 26M481 252l0 -170M481 200l1 48M482 369l0 -186M482 225l1 -2M483 251l0 -164"/>
<path stroke="red" d="M483 204l1 40M484 272l0 -151M484 219l1 16M485 332l0 -249M485 222l1 3M486 278l0 -186M486 228l1 -8M487 238l0 -151M487 216l1 7M488 312l0 -144M488 224l1 0M489 278l0 -90M489 233l1 -18M490 233l0 -100 1 -43M491 343l0 -265M491 222l1 4"/>
<path stroke="red" d="M492 245l0 -175M492 241l1 -34M493 241l0 -34M493 212l1 24M494 482l0 -368M494 235l1 -22M495 252l0 -157M495 204l1 40 0 -40M496 232l1 -16M497 331l0 -218M497 234l1 -20M498 263l0 -172M498 216l1 16 0 -16M499 228l1 -8M500 312l0 -203"/>
<path stroke="red" d="M500 224l1 0M501 269l0 -111M501 214l1 20 0 -20M502 227l1 -6M503 344l0 -262M503 220l1 8M504 238l0 -162M504 215l1 18M505 234l0 -20M505 234l1 -20M506 368l0 -256M506 228l1 -8M507 234l0 -133M507 222l1 16M508 277l0 -106M508 231l1 -14"/>
<path stroke="red" d="M509 332l0 -231M509 217l1 14 0 -58 1 -3M511 270l0 -178M511 222l1 4M512 311l0 -229M512 224l2 0M514 278l0 -160M514 222l1 4M515 344l0 -258M515 230l1 -16M516 242l0 -128M516 227l1 -6M517 273l0 -201M517 216l1 16M518 425l0 -344"/>
<path stroke="red" d="M518 175l1 6M519 225l0 -47M519 225l1 -2M520 269l0 -103M520 237l1 -25M521 238l0 -153M521 225l1 -2M522 331l0 -170M522 214l1 20M523 237l0 -148M523 221l1 6M524 272l0 -148M524 213l1 27M525 312l0 -144M525 224l1 0M526 270l0 -188"/>
<path stroke="red" d="M526 214l1 20M527 246l0 -164M527 246l1 36M528 344l0 -264M528 220l1 7M529 270l0 -194M529 238l1 -28M530 238l0 -28M530 234l1 -20M531 369l0 -282M531 231l1 -14M532 236l0 -162M532 231l1 -14M533 231l0 -14M533 228l1 -8M534 332l0 -259"/>
<path stroke="red" d="M534 208l1 32M535 278l0 -186M535 209l1 31 0 -31M536 215l1 18M537 312l0 -234M537 224l1 0M538 278l0 -95M538 236l1 -7M539 237l0 -15M539 223l1 2M540 343l0 -263M540 232l1 -14M541 237l0 -167M541 218l1 12 0 -12M542 220l1 8M543 539l0 -436"/>
<path stroke="red" d="M543 225l1 -2M544 276l0 -120M544 257l1 -42M545 260l0 -68M545 237l1 -26M546 331l0 -234M546 222l1 4M547 235l0 -144M547 235l1 -33M548 245l0 -152M548 232l1 -16M549 312l0 -197M549 224l2 0M551 269l0 -176M551 231l1 -14M552 344l0 -262"/>
<path stroke="red" d="M552 213l1 21M553 239l0 -30M553 220l1 8M554 268l0 -192M554 233l1 -18M555 368l0 -261M555 230l1 -40M556 268l0 -88M556 218l1 12M557 257l0 -156M557 240l1 -32M558 263l0 -142M558 213l1 22M559 332l0 -239M559 219l1 10M560 269l0 -177"/>
<path stroke="red" d="M560 232l1 -16M561 251l0 -169M561 199l1 50M562 311l0 -143M562 224l1 0M563 282l0 -96M563 222l1 4M564 237l0 -151M564 110l1 -3M565 344l0 -237M565 216l1 16M566 247l0 -175M566 212l1 24 0 -87 1 -25M568 425l0 -301M568 225l1 -2"/>
<path stroke="red" d="M569 264l0 -147M569 253l1 -57M570 252l0 -56M570 208l1 32M571 331l0 -239M571 203l1 42M572 273l0 -182M572 230l1 -12M573 230l0 -12 1 12M574 312l0 -212M574 224l1 0M575 280l0 -178M575 223l1 2M576 226l0 -4 1 4M577 344l0 -262M577 210l1 28"/>
<path stroke="red" d="M578 265l0 -189M578 261l1 -73M579 260l0 -72M579 204l1 40M580 368l0 -286M580 228l1 -8M581 263l0 -176M581 256l1 -50M582 251l0 -50M582 210l1 28M583 331l0 -248M583 207l1 34M584 278l0 -186M584 241l1 9M585 252l0 -142M585 239l1 -29"/>
<path stroke="red" d="M586 311l0 -224M586 224l1 0 0 -26M587 200l1 1M588 278l0 -165M588 226l1 -4M589 344l0 -266M589 190l1 -7M590 260l0 -150M590 212l1 24M591 260l0 -190M591 236l1 -24M592 482l0 -400M592 250l1 -18M593 238l0 -30M593 225l1 -2M594 269l0 -192"/>
<path stroke="red" d="M594 199l1 50M595 331l0 -218M595 297l1 -6 0 -209M596 224l1 0M597 270l0 -179M597 222l1 4M598 234l0 -149M598 223l1 2M599 312l0 -144M599 224l1 0M600 272l0 -88M600 223l1 2M601 265l0 -183M601 183l1 82M602 344l0 -166M602 229l1 -10"/>
<path stroke="red" d="M603 245l0 -169M603 208l1 32M604 272l0 -148M604 244l1 -18M605 369l0 -285M605 247l1 -46M606 285l0 -184M606 215l1 18 0 -18M607 223l1 2M608 332l0 -261M608 229l1 -10M609 270l0 -187M609 206l1 36 0 -36M610 214l1 20M611 312l0 -230"/>
<path stroke="red" d="M611 224l1 0M612 278l0 -190M612 249l1 -49M613 248l0 -48M613 233l1 -18M614 344l0 -258M614 233l1 -18M615 282l0 -210M615 231l1 -13M616 231l0 -13M616 221l1 6M617 425l0 -338M617 223l1 2M618 269l0 -103M618 201l1 32M619 249l0 -34"/>
<path stroke="red" d="M619 218l1 12M620 332l0 -249M620 234l1 -19M621 234l0 -158M621 211l1 24M622 241l0 -34M622 218l1 12M623 314l0 -190M623 224l1 0M624 270l0 -76M624 270l1 -15 0 -181M625 211l1 26M626 346l0 -264M626 219l1 10 0 -10M627 220l1 8M628 270l0 -194"/>
<path stroke="red" d="M628 217l1 14M629 368l0 -290M629 228l1 2M630 241l0 -29M630 224l1 0M631 242l0 -168M631 231l1 -14M632 337l0 -227 1 -32M633 252l0 -174M633 237l1 -26M634 278l0 -186M634 227l1 -6M635 256l0 -176M635 198l1 51M636 312l0 -144M636 224l1 0"/>
<path stroke="red" d="M637 278l0 -84M637 225l1 -2M638 237l0 -157M638 211l1 26M639 344l0 -136M639 225l1 -2M640 249l0 -179M640 210l1 28 0 -56M641 224l1 0M642 596l0 -444M642 225l1 -2M643 237l0 -125M643 215l1 18 0 -85 1 -35M645 331l0 -218M645 226l1 -4"/>
<path stroke="red" d="M646 273l0 -182M646 235l1 -22M647 235l0 -22M647 218l1 12M648 312l0 -197M648 224l1 0M649 273l0 -112M649 237l1 -26M650 237l0 -26M650 216l1 16M651 344l0 -262M651 230l1 -12M652 232l0 -156M652 223l1 3M653 230l0 -12M653 230l1 -12"/>
<path stroke="red" d="M654 368l0 -253M654 221l1 6M655 260l0 -159M655 228l1 -8M656 229l0 -10 1 10M657 332l0 -232M657 232l1 -16M658 269l0 -177M658 220l1 9M659 231l0 -14M659 231l1 -14M660 312l0 -230M660 224l1 0M661 278l0 -84M661 251l1 -7M662 245l0 -120"/>
<path stroke="red" d="M662 228l1 -8M663 344l0 -258M663 218l1 12 0 -59 1 -9M665 258l0 -186M665 230l1 -12M666 425l0 -310M666 223l1 2 0 -2M667 225l1 -2M668 267l0 -101M668 229l1 -10M669 331l0 -221M669 221l1 -47M670 262l0 -88M670 214l1 20M671 239l0 -148"/>
<path stroke="red" d="M671 229l1 -10M672 312l0 -188M672 168l1 6M673 224l0 -50M673 224l1 0M674 270l0 -168M674 224l1 0M675 274l0 -192M675 222l1 4M676 344l0 -227M676 217l1 14M677 264l0 -188M677 231l1 -14M678 239l0 -158M678 224l1 0M679 368l0 -183"/>
<path stroke="red" d="M679 222l1 4M680 238l0 -151M680 234l1 -20M681 272l0 -151M681 244l1 -18M682 332l0 -249M682 215l1 18M683 282l0 -190M683 227l1 -6M684 228l0 -8 1 8M685 312l0 -225M685 224l1 0M686 278l0 -84M686 225l1 -2M687 225l0 -2M687 225l1 -2"/>
<path stroke="red" d="M688 344l0 -266M688 218l1 12M689 234l0 -164M689 219l1 10M690 233l0 -18 1 18M691 482l0 -359M691 221l1 6M692 262l0 -162M692 232l1 -16M693 232l0 -16M693 230l1 -12M694 331l0 -218M694 219l1 10M695 263l0 -172M695 211l1 26 0 -26"/>
<path stroke="red" d="M696 221l1 6M697 311l0 -201M697 224l1 0M698 269l0 -85M698 231l1 1M699 239l0 -122M699 220l1 8M700 344l0 -262M700 228l1 -7M701 227l0 -151M701 117l1 36M702 267l0 -151M702 231l1 -14M703 369l0 -254M703 227l1 -6M704 227l0 -6M704 226l1 -4"/>
<path stroke="red" d="M705 278l0 -177M705 223l1 2M706 332l0 -230M706 130l1 35M707 239l0 -74M707 225l1 -2M708 279l0 -187M708 225l1 -2M709 312l0 -230M709 224l2 0M711 278l0 -153M711 227l1 -6M712 271l0 -185M712 240l1 -32M713 344l0 -229M713 224l1 0"/>
<path stroke="red" d="M714 274l0 -202M714 225l1 -3M715 272l0 -191M715 220l1 8M716 425l0 -250M716 225l1 -2M717 269l0 -133M717 227l1 -6M718 231l0 -146M718 229l1 2M719 331l0 -192M719 220l1 8M720 265l0 -176M720 215l1 18 0 -84 1 -25M722 312l0 -188"/>
<path stroke="red" d="M722 224l1 0M723 270l0 -188M723 215l1 18M724 234l0 -20M724 234l1 -20M725 344l0 -264M725 228l1 -8M726 270l0 -194M726 222l1 4M727 229l0 -10 1 10M728 368l0 -281M728 223l1 2M729 268l0 -194M729 222l1 4M730 227l0 -6 1 6M731 333l0 -260"/>
<path stroke="red" d="M731 208l1 32M732 278l0 -186M732 234l1 -6M733 233l0 -13M733 228l1 -8M734 312l0 -234M734 224l1 0M735 278l0 -84M735 226l1 6M736 243l0 -116M736 226l1 -4M737 344l0 -264M737 233l1 -8M738 232l0 -162M738 79l1 33M739 269l0 -157"/>
<path stroke="red" d="M739 226l1 -4M740 539l0 -467M740 225l1 -2M741 225l0 -27M741 200l1 1M742 286l0 -130M742 215l1 18M743 331l0 -249M743 226l1 10 0 -18M744 229l1 -10M745 245l0 -167M745 232l1 -16M746 312l0 -197M746 224l2 0M748 269l0 -191M748 235l1 -22"/>
<path stroke="red" d="M749 344l0 -262M749 305l1 -13 0 -202M750 229l1 -10M751 278l0 -202M751 218l1 12M752 243l0 -162M752 226l1 -4M753 368l0 -188M753 224l1 0M754 242l0 -163M754 229l1 -10M755 271l0 -150M755 230l1 31M756 332l0 -242M756 230l1 -12"/>
<path stroke="red" d="M757 272l0 -180M757 221l1 6M758 239l0 -157M758 190l1 -29M759 312l0 -231M759 224l1 0M760 292l0 -106M760 227l1 -6M761 227l0 -6 1 6M762 344l0 -267M762 224l1 0M763 239l0 -167M763 215l1 18 0 -18M764 219l1 10M765 425l0 -301M765 223l1 2"/>
<path stroke="red" d="M766 262l0 -193M766 222l1 4M767 229l0 -10 1 10M768 331l0 -250M768 238l1 -28M769 282l0 -191M769 227l1 -6M770 228l0 -8 1 8M771 312l0 -224M771 224l1 0M772 289l0 -187M772 240l1 -21M773 237l0 -21M773 223l1 2M774 343l0 -262M774 231l1 -14"/>
<path stroke="red" d="M775 265l0 -189M775 125l1 -25M776 232l0 -155M776 216l1 16M777 368l0 -287M777 223l1 2M778 234l0 -71 1 2M779 273l0 -186M779 214l1 20M780 332l0 -249M780 244l1 -38M781 243l0 -37M781 230l1 -12M782 278l0 -186M782 227l1 -6M783 312l0 -225"/>
<path stroke="red" d="M783 224l2 0M785 278l0 -189M785 221l1 6M786 344l0 -266M786 236l1 13M787 258l0 -173M787 229l1 -10M788 269l0 -199M788 230l1 -12M789 230l0 -147M789 229l1 -10M790 482l0 -315M790 223l1 2M791 243l0 -173M791 208l1 32M792 279l0 -166"/>
<path stroke="red" d="M792 240l1 -2M793 332l0 -248M793 232l1 -16M794 270l0 -179M794 227l1 -6M795 231l0 -149M795 113l1 97M796 312l0 -144M796 224l1 0M797 272l0 -88M797 229l1 -10M798 229l0 -92 1 -55M799 344l0 -262M799 229l1 -10M800 237l0 -161M800 212l1 24"/>
<path stroke="red" d="M801 236l0 -24M801 236l1 -24M802 369l0 -284M802 227l1 -6M803 285l0 -184M803 221l1 6 0 -6M804 222l1 4M805 332l0 -260M805 230l1 -12M806 270l0 -197M806 222l1 4M807 227l0 -6M807 227l1 -6M808 312l0 -231M808 224l1 0M809 278l0 -190"/>
<path stroke="red" d="M809 231l1 -13M810 231l0 -13 1 12M811 344l0 -260M811 220l1 8M812 282l0 -210M812 246l1 -5M813 244l0 -25M813 229l1 -10M814 425l0 -341M814 223l1 2M815 269l0 -103M815 269l1 -14M816 264l0 -48M816 228l1 -8M817 331l0 -255M817 244l1 -18"/>
<path stroke="red" d="M818 243l0 -70 1 -3M819 240l0 -165M819 225l1 -2M820 317l0 -193M820 224l1 1 0 -1 1 0M822 270l0 -195M822 225l1 -2M823 349l0 -267M823 99l1 -15M824 227l0 -149M824 227l1 -6M825 270l0 -194M825 228l1 -8M826 368l0 -289M826 185l1 7"/>
<path stroke="red" d="M827 272l0 -80M827 224l1 0M828 234l0 -160M828 223l1 2M829 272l0 -151M829 228l1 -8M830 338l0 -268M830 223l1 2M831 278l0 -186M831 223l1 2M832 229l0 -149M832 227l1 -6M833 311l0 -143M833 224l1 0M834 278l0 -84M834 225l1 2 0 -147"/>
<path stroke="red" d="M835 88l1 4M836 344l0 -258M836 222l1 5 0 -157M837 226l1 -4M838 230l0 -12M838 230l1 -12M839 627l0 -475M839 225l1 -2M840 237l0 -84M840 229l1 -10M841 231l0 -14M841 231l1 -14M842 331l0 -218M842 238l1 -28M843 238l0 -147M843 224l1 0"/>
<path stroke="red" d="M844 228l0 -8 1 8M845 311l0 -196M845 224l1 0M846 269l0 -108M846 224l1 0M847 230l0 -12 1 12M848 344l0 -262M848 211l1 26M849 241l0 -165M849 209l1 30 0 -30M850 225l1 -2M851 368l0 -253M851 225l1 -2M852 242l0 -141M852 213l1 -27"/>
<path stroke="red" d="M853 238l0 -52M853 223l1 2M854 332l0 -232M854 208l1 31 0 -147M855 235l1 0M856 269l0 -106M856 239l1 -30M857 311l0 -229M857 224l2 0M859 278l0 -113M859 239l1 -30M860 344l0 -258M860 236l1 -57M861 233l0 -77M861 216l1 16M862 238l0 -166"/>
<path stroke="red" d="M862 227l1 -6M863 425l0 -310M863 225l1 -2M864 225l0 -2M864 225l1 -2M865 261l0 -95M865 236l1 -24M866 252l0 -142M866 198l1 51M867 331l0 -170M867 209l1 30M868 247l0 -156M868 241l1 -34M869 263l0 -139M869 240l1 -31M870 312l0 -144"/>
<path stroke="red" d="M870 224l1 0M871 270l0 -169M871 238l1 -28M872 274l0 -192M872 179l1 13M873 344l0 -227M873 218l1 12M874 264l0 -188M874 239l1 -30M875 239l0 -102 1 -55M876 369l0 -287M876 222l1 4M877 251l0 -164M877 246l1 -44M878 246l0 -44M878 208l1 32"/>
<path stroke="red" d="M879 332l0 -249M879 227l1 -6M880 278l0 -186M880 221l1 6M881 231l0 -14M881 231l1 -14M882 312l0 -225M882 224l1 0M883 278l0 -90M883 213l1 24 0 -25M884 226l1 -4M885 343l0 -265M885 226l1 -4M886 245l0 -175M886 204l1 40 0 -40M887 237l1 -26"/>
<path stroke="red" d="M888 482l0 -368M888 212l1 24M889 252l0 -157M889 248l1 -48M890 248l0 -48M890 214l1 20M891 331l0 -218M891 215l1 18M892 236l0 -145M892 224l1 29M893 263l0 -105M893 220l1 8M894 312l0 -203M894 224l1 0 0 -26M895 200l1 1M896 269l0 -111"/>
<path stroke="red" d="M896 220l1 8M897 344l0 -262M897 230l1 -9M898 229l0 -9M898 222l1 4M899 238l0 -162M899 214l1 20M900 368l0 -256 1 35M901 230l0 -83M901 223l1 2M902 277l0 -176M902 214l1 20M903 332l0 -231M903 297l1 -6 0 -186M904 220l1 8M905 270l0 -178"/>
<path stroke="red" d="M905 224l1 0M906 274l0 -192M906 204l1 40M907 311l0 -143M907 224l1 0M908 278l0 -160M908 227l1 -6M909 270l0 -184M909 245l1 -39M910 344l0 -230M910 222l1 4M911 273l0 -201M911 236l1 -24M912 239l0 -158M912 190l1 20M913 425l0 -250"/>
<path stroke="red" d="M913 223l1 2M914 269l0 -103M914 209l1 30 0 -30M915 216l1 16M916 331l0 -246M916 237l1 -25M917 237l0 -148M917 225l1 -2M918 230l0 -12M918 230l1 -13M919 312l0 -188M919 224l1 0M920 270l0 -188M920 233l1 -18M921 235l0 -22M921 235l1 -22"/>
<path stroke="red" d="M922 344l0 -264M922 229l1 -10M923 270l0 -194M923 208l1 32 0 -32M924 214l1 20M925 369l0 -282M925 215l1 18M926 236l0 -162M926 217l1 14 0 -14M927 219l1 10M928 332l0 -259M928 240l1 -32M929 278l0 -186M929 233l1 12M930 249l0 -69"/>
<path stroke="red" d="M930 234l1 -20M931 312l0 -234M931 224l1 0M932 278l0 -84M932 278l1 -24M933 257l0 -74M933 224l1 0M934 343l0 -263M934 226l1 -13M935 242l0 -58M935 220l1 8M936 237l0 -167M936 228l1 -8M937 539l0 -436M937 222l1 4 0 -4M938 224l1 0"/>
<path stroke="red" d="M939 276l0 -120M939 209l1 29M940 331l0 -234M940 231l1 -28M941 275l0 -113M941 229l1 -10M942 245l0 -154M942 214l1 20M943 269l0 -154M943 224l1 0M944 312l0 -144M944 224l1 0M945 269l0 -176M945 214l1 20M946 261l0 -179M946 240l1 -31"/>
<path stroke="red" d="M947 344l0 -248M947 230l1 -12M948 268l0 -192M948 215l1 18M949 236l0 -129M949 236l1 -24M950 368l0 -188M950 230l1 -12M951 257l0 -156M951 204l1 40 0 -95 1 -28M953 332l0 -239M953 231l1 -14M954 269l0 -177M954 213l1 22 0 -22M955 228l1 -8"/>
<path stroke="red" d="M956 311l0 -229M956 224l1 0M957 282l0 -96M957 227l1 -6M958 227l0 -6M958 225l1 -2M959 344l0 -258M959 233l1 -18M960 247l0 -175M960 240l1 -32M961 240l0 -32M961 218l1 12M962 425l0 -301M962 223l1 2M963 264l0 -147M963 189l1 70"/>
<path stroke="red" d="M964 259l0 -70M964 242l1 -36M965 331l0 -239M965 249l1 -50M966 273l0 -182M966 224l1 10 0 -16M967 230l1 -12M968 312l0 -212M968 224l1 0M969 270l0 -91M969 184l1 -38M970 280l0 -178M970 226l1 -4M971 344l0 -262M971 239l1 -30M972 239l0 -68"/>
<path stroke="red" d="M972 171l1 -9M973 265l0 -189M973 246l1 -44M974 246l0 -44"/>
</svg>
