<?xml version="1.0" standalone="yes"?>
<!DOCTYPE svg PUBLIC "-//W3C//DTD SVG 1.1//EN"
 "http://www.w3.org/Graphics/SVG/1.1/DTD/svg11.dtd">
<svg xmlns="http://www.w3.org/2000/svg" version="1.1"
  width="100%" height="100%" viewBox="0 0 1024 768"
  style="fill: none; stroke-width: 3; font-family: Helvetica;
 font: Helvetica;
">

<!-- Creator: NGspice -->

<rect x="0" y="0" width="1024" height="768" fill="white" stroke="none"/>
<text stroke="none" fill="black" font-size="16" x="358" y="752">
time
</text>
<text stroke="none" fill="black" font-size="16" x="10" y="16">
tran1: Even Parity Output
</text>
<path stroke="black" stroke-width="3" d="M50 704l0 -638"/>
<text stroke="none" fill="black" font-size="16" x="35" y="728">
0.0
</text>
<path stroke="black" stroke-width="3" stroke-dasharray="1,2" d="M204 704l0 -638"/>
<text stroke="none" fill="black" font-size="16" x="189" y="728">
0.5
</text>
<path stroke="black" stroke-width="3" stroke-dasharray="1,2" d="M358 704l0 -638"/>
<text stroke="none" fill="black" font-size="16" x="343" y="728">
1.0
</text>
<path stroke="black" stroke-width="3" stroke-dasharray="1,2" d="M512 704l0 -638"/>
<text stroke="none" fill="black" font-size="16" x="497" y="728">
1.5
</text>
<path stroke="black" stroke-width="3" stroke-dasharray="1,2" d="M666 704l0 -638"/>
<text stroke="none" fill="black" font-size="16" x="651" y="728">
2.0
</text>
<path stroke="black" stroke-width="3" stroke-dasharray="1,2" d="M820 704l0 -638"/>
<text stroke="none" fill="black" font-size="16" x="805" y="728">
2.5
</text>
<path stroke="black" stroke-width="3" stroke-dasharray="1,2" d="M974 704l0 -638"/>
<text stroke="none" fill="black" font-size="16" x="959" y="728">
3.0
</text>
<text stroke="none" fill="black" font-size="16" x="614" y="752">
us
</text>
<path stroke="black" stroke-width="3" stroke-dasharray="1,2" d="M50 704l924 0"/>
<text stroke="none" fill="black" font-size="16" x="8" y="712">
-0.2
</text>
<path stroke="black" stroke-width="3" d="M50 646l924 0"/>
<text stroke="none" fill="black" font-size="16" x="18" y="654">
0.0
</text>
<path stroke="black" stroke-width="3" stroke-dasharray="1,2" d="M50 588l924 0"/>
<text stroke="none" fill="black" font-size="16" x="18" y="596">
0.2
</text>
<path stroke="black" stroke-width="3" stroke-dasharray="1,2" d="M50 530l924 0"/>
<text stroke="none" fill="black" font-size="16" x="18" y="538">
0.4
</text>
<path stroke="black" stroke-width="3" stroke-dasharray="1,2" d="M50 472l924 0"/>
<text stroke="none" fill="black" font-size="16" x="18" y="480">
0.6
</text>
<path stroke="black" stroke-width="3" stroke-dasharray="1,2" d="M50 414l924 0"/>
<text stroke="none" fill="black" font-size="16" x="18" y="422">
0.8
</text>
<path stroke="black" stroke-width="3" stroke-dasharray="1,2" d="M50 356l924 0"/>
<text stroke="none" fill="black" font-size="16" x="18" y="364">
1.0
</text>
<path stroke="black" stroke-width="3" stroke-dasharray="1,2" d="M50 298l924 0"/>
<text stroke="none" fill="black" font-size="16" x="18" y="306">
1.2
</text>
<path stroke="black" stroke-width="3" stroke-dasharray="1,2" d="M50 240l924 0"/>
<text stroke="none" fill="black" font-size="16" x="18" y="248">
1.4
</text>
<path stroke="black" stroke-width="3" stroke-dasharray="1,2" d="M50 182l924 0"/>
<text stroke="none" fill="black" font-size="16" x="18" y="190">
1.6
</text>
<path stroke="black" stroke-width="3" stroke-dasharray="1,2" d="M50 124l924 0"/>
<text stroke="none" fill="black" font-size="16" x="18" y="132">
1.8
</text>
<path stroke="black" stroke-width="3" stroke-dasharray="1,2" d="M50 66l924 0"/>
<text stroke="none" fill="black" font-size="16" x="18" y="74">
2.0
</text>
<text stroke="none" fill="black" font-size="16" x="10" y="32">
V
</text>
<path stroke="red" d="M462 23l46 0"/>
<text stroke="none" fill="black" font-size="16" x="518" y="32">
v(out_parity)
</text>
<path stroke="red" d="M50 646l0 -327M50 646l2 0M52 655l0 -531 1 0M53 647l0 -560M53 646l1 3M54 659l0 -535 1 0M55 649l0 -564M55 646l1 0M56 659l0 -535 2 0M58 649l0 -564M58 646l1 0M59 653l0 -529 1 0M60 652l0 -565M60 646l1 0M61 657l0 -533 1 0M62 652l0 -566"/>
<path stroke="red" d="M62 647l1 -1M63 653l0 -529 1 0M64 649l0 -564M64 646l2 0M66 659l0 -572M66 646l1 0M67 658l0 -534 2 0M69 648l0 -562M69 646l1 0M70 659l0 -535 2 0M72 652l0 -565M72 124l1 0M73 648l0 -562M73 646l2 0M75 653l0 -529 1 0M76 649l0 -563"/>
<path stroke="red" d="M76 646l2 0M78 659l0 -572M78 646l1 0M79 659l0 -535 2 0M81 652l0 -565M81 646l1 0M82 650l0 -5M82 650l1 9 0 -535 1 0M84 654l0 -567M84 124l2 0M86 650l0 -564M86 646l1 0M87 659l0 -569M87 646l2 0M89 656l0 -532 1 0M90 658l0 -571"/>
<path stroke="red" d="M90 125l1 -1 1 0M92 652l0 -564M92 646l1 0M93 655l0 -531 2 0M95 648l0 -560M95 646l1 0M96 659l0 -535 1 0M97 651l0 -562M97 646l1 0M98 655l0 -531 1 0M99 648l0 -564M99 646l1 0M100 658l0 -534 1 0M101 649l0 -566M101 646l1 0 1 4"/>
<path stroke="red" d="M103 658l0 -573M103 646l1 0M104 654l0 -530 2 0M106 652l0 -568M106 646l1 0M107 655l0 -531 2 0M109 656l0 -573M109 124l1 0M110 651l0 -568M110 646l2 0M112 656l0 -571M112 646l1 0M113 656l0 -532 2 0M115 657l0 -573M115 124l1 0"/>
<path stroke="red" d="M116 651l0 -566M116 646l2 0M118 657l0 -533 1 0 0 -40 1 122M120 651l0 -445M120 646l1 0M121 657l0 -572M121 646l2 0M123 658l0 -534 1 0M124 652l0 -567M124 646l2 0M126 654l0 -530 1 0M127 655l0 -570M127 126l1 -1 0 -1 1 0M129 647l0 -562"/>
<path stroke="red" d="M129 646l1 0M130 655l0 -531 2 0M132 650l0 -564M132 646l1 0M133 655l0 -531 1 0M134 649l0 -566M134 646l1 0M135 653l0 -529 1 0M136 649l0 -566M136 646l1 0M137 655l0 -531 1 0M138 652l0 -568M138 646l2 0M140 653l0 -567M140 646l1 0"/>
<path stroke="red" d="M141 654l0 -530 1 0 1 -1M143 652l0 -567M143 646l1 0M144 653l0 -529 2 0M146 653l0 -569M146 124l1 0M147 652l0 -568M147 646l2 0M149 652l0 -528 1 0M150 647l0 -546M150 646l2 0M152 651l0 -551M152 646l1 0M153 651l0 -527 2 0M155 646l0 -546"/>
<path stroke="red" d="M155 646l1 0M156 651l0 -527 2 0M158 651l0 -550M158 124l1 0 0 -23M159 103l1 148M160 646l0 -395M160 646l1 0M161 651l0 -550M161 646l2 0M163 650l0 -527M163 124l1 0M164 651l0 -551M164 124l2 0M166 647l0 -547M166 646l1 0M167 651l0 -529"/>
<path stroke="red" d="M167 124l2 0M169 646l0 -546M169 646l1 0M170 651l0 -530M170 124l1 0M171 647l0 -546M171 646l1 0M172 651l0 -530M172 124l1 0M173 647l0 -546M173 646l2 0M175 650l0 -528M175 124l1 0M176 646l0 -546M176 646l1 0M177 650l0 -529M177 124l1 0"/>
<path stroke="red" d="M178 646l0 -546M178 646l1 0M179 650l0 -9 1 -124 0 -395M180 124l1 0M181 646l0 -546M181 646l2 0M183 650l0 -549M183 646l1 0M184 650l0 -526 2 0M186 650l0 -550M186 124l1 0M187 647l0 -547M187 646l2 0M189 650l0 -549M189 646l1 0"/>
<path stroke="red" d="M190 650l0 -526 2 0M192 647l0 -546M192 646l1 0M193 649l0 -529M193 124l2 0M195 650l0 -550M195 124l1 0M196 647l0 -546M196 647l1 -2M197 647l0 -2M197 646l1 0M198 650l0 -541M198 646l1 0M199 647l0 -1M199 647l1 1M200 649l0 -525"/>
<path stroke="red" d="M200 124l1 0M201 649l0 -540M201 124l2 0M203 646l0 -538M203 646l1 0M204 649l0 -530M204 124l2 0M206 646l0 -538M206 646l1 0M207 649l0 -525 1 0M208 646l0 -538M208 646l1 0M209 649l0 -528M209 124l1 0M210 646l0 -538M210 646l1 0"/>
<path stroke="red" d="M211 649l0 -526M211 124l1 0M212 646l0 -538M212 646l1 0M213 649l0 -529M213 124l1 0M214 646l0 -537M214 646l1 0M215 649l0 -529M215 124l1 0M216 582l0 -474M216 582l1 57M217 646l0 -7M217 646l1 0M218 649l0 -526M218 124l2 0M220 649l0 -541"/>
<path stroke="red" d="M220 124l1 0M221 646l0 -537M221 646l2 0M223 649l0 -526M223 124l1 0M224 646l0 -533M224 646l2 0M226 649l0 -536M226 646l1 0M227 649l0 -526M227 124l2 0M229 646l0 -533M229 646l1 0M230 649l0 -525 2 0M232 649l0 -536M232 124l1 0"/>
<path stroke="red" d="M233 581l0 -468M233 581l1 54M234 646l0 -11M234 646l1 0M235 649l0 -534M235 646l1 0M236 649l0 -188 1 -265 0 -77M237 124l1 0M238 648l0 -533M238 124l2 0M240 646l0 -531M240 646l1 0M241 649l0 -527M241 124l2 0M243 646l0 -529M243 646l1 0"/>
<path stroke="red" d="M244 648l0 -527M244 124l1 0M245 646l0 -529M245 646l1 0M246 649l0 -529M246 124l1 0M247 647l0 -523M247 476l1 -174 0 -178 1 0M249 664l0 -556M249 646l1 0 0 -522 1 0M251 648l0 -541M251 646l1 0 0 -522 1 0M253 652l0 -545M253 646l2 0"/>
<path stroke="red" d="M255 646l0 -522 1 0M256 249l0 -141M256 249l1 72M257 666l0 -542 1 0M258 659l0 -552M258 646l2 0M260 666l0 -558M260 646l1 0 0 -522 2 0M263 650l0 -543M263 124l1 0M264 655l0 -548M264 646l2 0 0 -522 1 0M267 650l0 -543M267 646l2 0"/>
<path stroke="red" d="M269 664l0 -555M269 646l1 0 0 -522 2 0M272 666l0 -558M272 646l1 0 0 -495 1 -13 0 -14 1 0M275 650l0 -543M275 124l1 0 1 -4M277 652l0 -546M277 646l1 0M278 647l0 -523 2 0M280 647l0 -541M280 646l1 0M281 666l0 -558M281 648l1 -3"/>
<path stroke="red" d="M282 647l0 -2M282 646l1 0 0 -522 1 0M284 647l0 -541M284 646l1 0 0 -522 1 0M286 661l0 -554M286 646l1 0 0 -522 1 0M288 655l0 -548M288 646l1 0M289 647l0 -523 1 0M290 665l0 -557M290 646l2 0 0 -522 1 0M293 648l0 -541M293 647l1 -1"/>
<path stroke="red" d="M294 647l0 -523 1 0M295 662l0 -554M295 646l1 0 0 -470 1 -25M297 660l0 -549M297 646l1 0 0 -522 2 0M300 657l0 -546M300 124l1 0M301 649l0 -538M301 646l2 0 0 -522 1 0M304 647l0 -536M304 646l2 0M306 665l0 -554M306 646l1 0 0 -522"/>
<path stroke="red" d="M307 124l2 0M309 666l0 -555M309 124l1 0M310 646l0 -535M310 646l2 0M312 663l0 -552M312 646l1 0 0 -1M313 646l1 -16 0 -506 1 0M315 650l0 -539M315 646l2 0 0 -522 1 0M318 665l0 -554M318 125l1 -1 1 0M320 653l0 -542M320 646l1 0"/>
<path stroke="red" d="M321 646l0 -522 2 0M323 657l0 -543M323 646l1 0 0 -522 1 0M325 656l0 -542M325 646l1 0 0 -522 1 0M327 655l0 -541M327 646l2 0 0 -522 1 0M330 661l0 -547M330 651l1 -8M331 648l0 -524 1 0M332 649l0 -535M332 646l1 0 0 -509 1 -7"/>
<path stroke="red" d="M334 653l0 -537M334 646l1 0 0 -522 2 0M337 662l0 -546M337 124l1 0M338 652l0 -536M338 646l2 0 0 -522 1 0M341 649l0 -532M341 646l2 0M343 664l0 -547M343 646l1 0 0 -522 2 0M346 667l0 -543M346 646l1 0M347 647l0 -521 1 -1 0 -1"/>
<path stroke="red" d="M348 124l1 0M349 651l0 -535M349 124l1 0M350 656l0 -541M350 647l1 -2M351 646l0 -1M351 646l1 0M352 647l0 -523 1 0 1 -2M354 655l0 -540M354 646l1 0M355 664l0 -547M355 646l2 0M357 647l0 -523 1 0M358 668l0 -552M358 152l1 -7 0 -21"/>
<path stroke="red" d="M359 124l1 0M360 651l0 -536M360 646l1 0M361 647l0 -530M361 170l1 45M362 664l0 -449M362 646l1 0M363 647l0 -523 1 0M364 646l0 -531M364 646l2 0M366 647l0 -523 1 0M367 666l0 -550M367 646l1 0 0 -522 1 0M369 649l0 -533M369 646l1 0"/>
<path stroke="red" d="M370 646l0 -511 1 -3 0 -8 1 0M372 648l0 -531M372 646l2 0M374 668l0 -552M374 646l1 0M375 647l0 -523 2 0M377 668l0 -552M377 646l1 0M378 647l0 -523 2 0M380 651l0 -534M380 124l1 0M381 657l0 -541M381 646l2 0M383 667l0 -550M383 646l1 0"/>
<path stroke="red" d="M384 646l0 -522 2 0M386 647l0 -530M386 124l1 0M387 659l0 -542M387 648l1 -3M388 647l0 -2M388 646l1 0M389 647l0 -523 1 0 0 -2 1 -1M391 666l0 -548M391 646l1 0M392 649l0 -531M392 646l2 0 0 -522 1 0M395 655l0 -531M395 142l1 -3"/>
<path stroke="red" d="M396 139l0 -15 1 0M397 668l0 -548M397 646l1 0M398 649l0 -528M398 649l1 -5M399 647l0 -3M399 646l1 0M400 647l0 -523 1 0M401 654l0 -534M401 646l2 0M403 647l0 -523 1 0M404 664l0 -544M404 646l1 0 0 -522 1 0M406 665l0 -545M406 646l1 0"/>
<path stroke="red" d="M407 646l0 -479 1 -7M408 656l0 -536M408 646l1 0M409 647l0 -523 1 0M410 212l0 -93M410 212l1 24M411 659l0 -535 1 0M412 648l0 -529M412 646l2 0M414 647l0 -523 1 0M415 668l0 -548M415 646l2 0M417 652l0 -532M417 646l1 0M418 647l0 -523"/>
<path stroke="red" d="M418 124l2 0M420 659l0 -535M420 646l1 0M421 647l0 -491 1 -3 0 -29 1 0M423 656l0 -534M423 125l1 0M424 667l0 -545M424 646l2 0M426 647l0 -523 1 0M427 664l0 -543M427 635l1 17 0 -10M428 646l1 0M429 651l0 -512M429 646l2 0M431 647l0 -523"/>
<path stroke="red" d="M431 124l1 0M432 658l0 -534M432 339l1 -29 0 -186 1 0M434 649l0 -526M434 646l1 0M435 655l0 -442M435 646l2 0 0 -522 1 0M438 655l0 -531M438 646l2 0 0 -520 1 0M441 662l0 -538M441 646l1 0 0 -522 1 0M443 647l0 -523M443 646l2 0"/>
<path stroke="red" d="M445 646l0 -327M445 646l1 0M446 655l0 -531 1 0M447 647l0 -560M447 645l1 2M448 659l0 -535 1 0M449 649l0 -564M449 646l2 0M451 659l0 -535 1 0M452 649l0 -564M452 646l2 0M454 653l0 -566M454 646l1 0M455 657l0 -533 2 0M457 653l0 -567"/>
<path stroke="red" d="M457 124l1 0M458 649l0 -564M458 646l2 0M460 659l0 -572M460 646l1 0M461 658l0 -534 2 0M463 648l0 -562M463 646l1 0M464 659l0 -535 2 0M466 652l0 -565M466 124l1 0M467 623l0 -537M467 623l1 23M468 648l0 -4M468 646l1 0M469 653l0 -529"/>
<path stroke="red" d="M469 124l2 0M471 649l0 -563M471 646l1 0M472 659l0 -572M472 646l2 0M474 659l0 -535 1 0M475 652l0 -565M475 646l2 0M477 659l0 -535 1 0M478 648l0 -561M478 646l1 0M479 654l0 -530 1 0M480 650l0 -564M480 646l1 0M481 659l0 -535"/>
<path stroke="red" d="M481 124l1 0M482 649l0 -559M482 646l1 0M483 656l0 -532 1 0M484 649l0 -562M484 644l1 4M485 658l0 -534 1 0M486 652l0 -564M486 646l1 0M487 655l0 -530 1 1 0 -2 1 0M489 648l0 -560M489 646l2 0M491 659l0 -570M491 646l1 0M492 655l0 -531"/>
<path stroke="red" d="M492 124l2 0M494 658l0 -574M494 124l1 0M495 649l0 -566M495 646l2 0M497 658l0 -573M497 646l1 0M498 654l0 -530 2 0M500 652l0 -568M500 646l1 0M501 655l0 -531 2 0M503 656l0 -573M503 124l1 0M504 651l0 -568M504 645l1 2 0 -2M505 646l1 0"/>
<path stroke="red" d="M506 656l0 -571M506 646l2 0M508 656l0 -532 1 0M509 657l0 -573M509 124l2 0M511 651l0 -566M511 646l1 0M512 657l0 -533 2 0M514 651l0 -567M514 646l1 0M515 657l0 -533 1 0M516 651l0 -566M516 646l1 0M517 658l0 -534 1 0M518 652l0 -567"/>
<path stroke="red" d="M518 646l2 0M520 654l0 -530 1 0M521 651l0 -566M521 646l1 0M522 655l0 -531 1 0M523 647l0 -562M523 646l1 0M524 655l0 -407 1 -115 0 -9 1 0M526 650l0 -564M526 646l2 0M528 655l0 -572M528 646l1 0M529 653l0 -529 2 0M531 655l0 -572"/>
<path stroke="red" d="M531 124l1 0M532 652l0 -568M532 646l2 0M534 653l0 -567M534 646l1 0M535 654l0 -530 2 0M537 652l0 -567M537 646l1 0M538 653l0 -528 1 -1 1 0M540 653l0 -569M540 124l1 0M541 652l0 -568M541 646l2 0M543 652l0 -528 1 0 0 -23 1 0"/>
<path stroke="red" d="M545 647l0 -546M545 646l1 0M546 651l0 -551M546 646l2 0M548 651l0 -527 1 0M549 646l0 -546M549 646l2 0M551 651l0 -527 1 0M552 651l0 -550M552 218l1 -98M553 126l0 -6M553 124l1 0M554 646l0 -545M554 646l1 0M555 651l0 -529M555 124l1 0"/>
<path stroke="red" d="M556 647l0 -546M556 646l1 0M557 650l0 -527M557 124l1 0M558 646l0 -546M558 646l1 0M559 651l0 -531M559 124l1 0M560 647l0 -547M560 646l1 0M561 651l0 -529M561 124l2 0M563 646l0 -546M563 646l1 0M564 651l0 -11 1 -137M565 647l0 -546"/>
<path stroke="red" d="M565 646l1 0M566 651l0 -530M566 124l2 0M568 647l0 -546M568 646l1 0M569 650l0 -528M569 124l2 0M571 650l0 -550M571 124l1 0M572 646l0 -546M572 646l2 0M574 650l0 -528M574 124l1 0M575 646l0 -546M575 646l2 0M577 650l0 -549M577 646l1 0"/>
<path stroke="red" d="M578 650l0 -526 2 0M580 650l0 -550M580 124l1 0M581 647l0 -547M581 647l1 -3M582 647l0 -3M582 646l1 0M583 650l0 -549M583 646l2 0M585 650l0 -526 1 0M586 647l0 -546M586 646l2 0M588 649l0 -529M588 124l1 0M589 649l0 -549M589 649l1 1"/>
<path stroke="red" d="M590 650l0 -527M590 124l1 0M591 647l0 -546M591 646l1 0M592 650l0 -538 1 -3M593 646l0 -537M593 646l1 0M594 649l0 -525 1 0M595 646l0 -537M595 646l1 0M596 649l0 -530M596 124l1 0M597 646l0 -538M597 646l1 0M598 649l0 -530M598 124l2 0"/>
<path stroke="red" d="M600 646l0 -538M600 646l1 0M601 649l0 -525 1 0M602 646l0 -538M602 646l1 0M603 649l0 -528M603 124l1 0 1 -1M605 649l0 -541M605 124l1 0M606 646l0 -538M606 646l2 0M608 649l0 -540M608 646l1 0M609 649l0 -529M609 124l2 0M611 646l0 -538"/>
<path stroke="red" d="M611 646l1 0M612 649l0 -526M612 124l2 0M614 649l0 -541M614 124l1 0M615 646l0 -537M615 646l2 0M617 649l0 -526M617 124l1 0M618 391l0 -278M618 391l1 169M619 646l0 -86M619 646l1 0M620 649l0 -536M620 646l1 0M621 649l0 -397 1 -129"/>
<path stroke="red" d="M622 126l0 -3M622 124l1 0M623 646l0 -533M623 646l2 0M625 649l0 -525 1 0M626 649l0 -536M626 124l2 0M628 646l0 -533M628 646l1 0M629 649l0 -529M629 124l1 0M630 646l0 -531M630 646l1 0M631 649l0 -530M631 124l1 0M632 647l0 -532"/>
<path stroke="red" d="M632 647l1 0M633 648l0 -525M633 124l1 0M634 646l0 -531M634 646l1 0M635 649l0 -527M635 124l2 0M637 646l0 -529M637 646l1 0M638 648l0 -527M638 124l1 0M639 646l0 -529M639 646l1 0M640 649l0 -529M640 124l1 0M641 646l0 -522M641 646l1 0"/>
<path stroke="red" d="M642 647l0 -523 1 0M643 664l0 -556M643 646l2 0M645 648l0 -541M645 646l1 0 0 -522 2 0M648 652l0 -545M648 646l1 0 0 -522 2 0M651 666l0 -558M651 124l1 0M652 659l0 -552M652 646l2 0M654 666l0 -558M654 646l1 0 0 -522 2 0M657 650l0 -543"/>
<path stroke="red" d="M657 124l1 0M658 655l0 -548M658 649l1 -5M659 647l0 -3M659 646l1 0 0 -522 2 0M662 650l0 -543M662 646l1 0M663 664l0 -555M663 646l2 0 0 -522 1 0M666 666l0 -558M666 646l2 0 0 -522 1 0M669 650l0 -543M669 646l1 0M670 647l0 -523"/>
<path stroke="red" d="M670 124l1 0M671 652l0 -546M671 646l1 0M672 647l0 -523 2 0M674 647l0 -541M674 646l1 0 0 -522 1 0M676 666l0 -558M676 646l1 0 0 -522 1 0M678 647l0 -541M678 646l1 0 0 -522 1 0M680 661l0 -554M680 646l2 0M682 655l0 -548M682 646l1 0"/>
<path stroke="red" d="M683 647l0 -523 2 0M685 665l0 -557M685 646l1 0 0 -522 2 0M688 648l0 -541M688 124l1 0M689 662l0 -554M689 646l2 0M691 660l0 -549M691 646l1 0 0 -522 2 0M694 657l0 -546M694 124l1 0M695 649l0 -538M695 646l2 0 0 -522 1 0 0 -13"/>
<path stroke="red" d="M698 111l1 6M699 647l0 -530M699 646l1 0M700 665l0 -554M700 646l2 0 0 -522 1 0M703 666l0 -555M703 124l2 0M705 646l0 -535M705 646l1 0 0 -535M706 398l1 199M707 663l0 -66M707 646l1 0 0 -522 1 0M709 650l0 -539M709 646l2 0 0 -522"/>
<path stroke="red" d="M711 124l1 0M712 665l0 -554M712 646l1 0 0 -522 1 0M714 653l0 -542M714 646l1 0 0 -522 2 0M717 657l0 -543M717 646l1 0 0 -1M718 646l1 -16M719 656l0 -542M719 646l1 0 0 -522 2 0M722 655l0 -541M722 646l1 0 0 -522 2 0M725 661l0 -547"/>
<path stroke="red" d="M725 124l1 0M726 649l0 -535M726 646l2 0M728 653l0 -537M728 646l1 0 0 -522 2 0M731 662l0 -546M731 124l1 0M732 652l0 -536M732 645l1 2 0 -1 1 0 0 -522 1 0 0 -1 1 0M736 649l0 -532M736 646l1 0M737 664l0 -547M737 646l2 0 0 -522"/>
<path stroke="red" d="M739 124l1 0M740 667l0 -543M740 646l2 0M742 647l0 -523 1 0M743 651l0 -535M743 157l1 -9 0 -24 1 0M745 656l0 -541M745 646l1 0M746 647l0 -523 2 0M748 655l0 -540M748 646l1 0 0 -522 1 0M750 664l0 -547M750 646l1 0M751 647l0 -523"/>
<path stroke="red" d="M751 124l1 0M752 668l0 -552M752 646l1 0 0 -522 1 0M754 651l0 -536M754 646l1 0M755 647l0 -143 1 -137M756 664l0 -547M756 646l1 0M757 647l0 -523 1 0 0 -9M758 120l1 26M759 646l0 -500M759 646l1 0M760 647l0 -523 2 0M762 666l0 -550"/>
<path stroke="red" d="M762 124l1 0M763 649l0 -533M763 646l2 0 0 -522 1 0M766 648l0 -531M766 646l2 0M768 668l0 -552M768 646l1 0M769 647l0 -523 2 0M771 668l0 -552M771 646l1 0M772 647l0 -500 1 -6 0 -17 1 0M774 651l0 -534M774 124l1 0M775 277l0 -161"/>
<path stroke="red" d="M775 277l1 36M776 657l0 -344M776 646l1 0M777 667l0 -550M777 646l2 0 0 -522 1 0M780 647l0 -530M780 128l1 -1 0 -3 1 0M782 659l0 -542M782 646l1 0M783 647l0 -523 2 0M785 666l0 -548M785 646l1 0M786 647l0 -523 1 0M787 649l0 -531"/>
<path stroke="red" d="M787 646l1 0 0 -522 1 0M789 655l0 -531M789 646l1 0M790 647l0 -523 1 0M791 668l0 -548M791 646l1 0M792 647l0 -412 1 -18M793 649l0 -528M793 646l1 0M794 647l0 -523 1 0M795 456l0 -336M795 456l1 173M796 654l0 -25M796 646l1 0M797 647l0 -523"/>
<path stroke="red" d="M797 124l2 0M799 664l0 -544M799 124l1 0M800 665l0 -545M800 646l2 0M802 656l0 -536M802 646l1 0M803 647l0 -523 2 0M805 659l0 -540M805 124l1 0M806 648l0 -529M806 646l2 0M808 647l0 -523 1 0M809 668l0 -548M809 646l2 0M811 652l0 -532"/>
<path stroke="red" d="M811 646l1 0M812 647l0 -233 1 -83 0 -207 1 0M814 659l0 -535M814 646l2 0M816 647l0 -523 1 0M817 656l0 -534M817 213l1 -9 0 -80 1 0M819 667l0 -545M819 646l1 0M820 647l0 -521 1 -1 0 -1 1 0M822 664l0 -543M822 646l1 0M823 647l0 -508"/>
<path stroke="red" d="M823 193l1 16M824 651l0 -442M824 646l1 0M825 647l0 -523 1 0M826 658l0 -534M826 646l1 0 0 -522 1 0M828 649l0 -526M828 646l1 0 1 -3M830 655l0 -442M830 646l1 0 0 -521 1 0M832 655l0 -531M832 646l2 0 0 -502 1 -2M835 174l0 -50"/>
<path stroke="red" d="M835 174l1 13M836 662l0 -534 1 0M837 647l0 -523M837 646l2 0 0 -327M839 646l1 0M840 655l0 -531 2 0M842 659l0 -572M842 124l1 0M843 649l0 -564M843 646l2 0M845 659l0 -535 1 0M846 649l0 -564M846 646l2 0M848 653l0 -566M848 646l1 0"/>
<path stroke="red" d="M849 657l0 -533 2 0M851 653l0 -567M851 124l1 0M852 155l0 -70M852 155l1 313M853 649l0 -181M853 646l1 0M854 659l0 -572M854 646l2 0M856 658l0 -534 1 0M857 648l0 -562M857 646l2 0M859 659l0 -535 1 0M860 652l0 -565M860 646l1 6"/>
<path stroke="red" d="M861 652l0 -528 1 0M862 648l0 -562M862 646l1 0M863 653l0 -529 2 0M865 649l0 -563M865 646l1 0M866 659l0 -535 1 0M867 652l0 -565M867 646l1 0M868 659l0 -535 1 0M869 652l0 -565M869 646l2 0M871 659l0 -535 1 0M872 125l0 -6 1 -16"/>
<path stroke="red" d="M873 654l0 -567M873 124l1 0M874 650l0 -564M874 646l2 0M876 659l0 -569M876 646l1 0M877 656l0 -532 2 0M879 658l0 -571M879 124l1 0M880 652l0 -564M880 646l2 0M882 655l0 -531 1 0M883 648l0 -560M883 646l2 0M885 659l0 -570M885 646l1 0"/>
<path stroke="red" d="M886 655l0 -531 2 0M888 658l0 -574M888 124l1 0M889 649l0 -566M889 648l1 -4M890 647l0 -3M890 646l1 0M891 658l0 -573M891 646l2 0M893 654l0 -530 1 0M894 652l0 -568M894 646l2 0M896 655l0 -531 1 0M897 656l0 -573M897 124l2 0M899 651l0 -568"/>
<path stroke="red" d="M899 646l1 0M900 656l0 -534 1 -14M901 647l0 -562M901 646l1 0M902 656l0 -532 1 0M903 652l0 -568M903 646l1 0M904 657l0 -533 1 0M905 651l0 -566M905 646l1 0M906 657l0 -533 2 0M908 651l0 -567M908 646l1 0M909 657l0 -531 1 -2M910 651l0 -566"/>
<path stroke="red" d="M910 646l1 0M911 658l0 -534 1 0M912 260l0 -175M912 260l1 311M913 652l0 -81M913 646l1 0M914 654l0 -530 2 0M916 655l0 -570M916 124l1 0M917 647l0 -562M917 646l2 0M919 655l0 -531 1 0M920 650l0 -564M920 646l2 0M922 655l0 -572"/>
<path stroke="red" d="M922 646l1 0M923 653l0 -529 2 0M925 655l0 -572M925 124l1 0M926 652l0 -568M926 646l2 0M928 653l0 -567M928 646l2 0M930 654l0 -530 1 0M931 652l0 -567M931 646l2 0M933 653l0 -529 1 0M934 648l0 -564M934 646l1 1M935 653l0 -529"/>
<path stroke="red" d="M935 124l1 0M936 652l0 -568M936 646l1 0M937 652l0 -528 2 0M939 647l0 -546M939 646l1 0M940 651l0 -531M940 124l1 0M941 646l0 -546M941 646l1 0M942 651l0 -527 1 0M943 646l0 -546M943 646l2 0M945 651l0 -527 1 0M946 647l0 -546"/>
<path stroke="red" d="M946 646l1 0M947 651l0 -531M947 124l1 0M948 646l0 -545M948 646l1 0M949 651l0 -529M949 123l1 1M950 647l0 -546M950 646l1 0M951 650l0 -527M951 124l2 0M953 651l0 -551M953 124l1 0M954 647l0 -547M954 646l2 0M956 651l0 -529M956 124l1 0"/>
<path stroke="red" d="M957 646l0 -546M957 646l2 0M959 651l0 -550M959 646l1 0M960 651l0 -530M960 124l2 0M962 647l0 -546M962 646l1 0M963 650l0 -528M963 124l2 0M965 650l0 -550M965 124l1 0M966 646l0 -546M966 645l1 1 0 -1M967 646l1 0M968 650l0 -528"/>
<path stroke="red" d="M968 124l2 0M970 646l0 -546M970 646l1 0M971 650l0 -549M971 646l2 0M973 650l0 -526 1 0"/>
</svg>
