<?xml version="1.0" standalone="yes"?>
<!DOCTYPE svg PUBLIC "-//W3C//DTD SVG 1.1//EN"
 "http://www.w3.org/Graphics/SVG/1.1/DTD/svg11.dtd">
<svg xmlns="http://www.w3.org/2000/svg" version="1.1"
  width="100%" height="100%" viewBox="0 0 1024 768"
  style="fill: none; stroke-width: 3; font-family: Helvetica;
 font: Helvetica;
">

<!-- Creator: NGspice -->

<rect x="0" y="0" width="1024" height="768" fill="white" stroke="none"/>
<text stroke="none" fill="black" font-size="16" x="358" y="752">
time
</text>
<text stroke="none" fill="black" font-size="16" x="10" y="16">
tran1: Verification: Physical vs Ideal Parity
</text>
<path stroke="black" stroke-width="3" d="M50 704l0 -639"/>
<text stroke="none" fill="black" font-size="16" x="35" y="728">
0.0
</text>
<path stroke="black" stroke-width="3" stroke-dasharray="1,2" d="M204 704l0 -639"/>
<text stroke="none" fill="black" font-size="16" x="189" y="728">
0.5
</text>
<path stroke="black" stroke-width="3" stroke-dasharray="1,2" d="M358 704l0 -639"/>
<text stroke="none" fill="black" font-size="16" x="343" y="728">
1.0
</text>
<path stroke="black" stroke-width="3" stroke-dasharray="1,2" d="M512 704l0 -639"/>
<text stroke="none" fill="black" font-size="16" x="497" y="728">
1.5
</text>
<path stroke="black" stroke-width="3" stroke-dasharray="1,2" d="M666 704l0 -639"/>
<text stroke="none" fill="black" font-size="16" x="651" y="728">
2.0
</text>
<path stroke="black" stroke-width="3" stroke-dasharray="1,2" d="M820 704l0 -639"/>
<text stroke="none" fill="black" font-size="16" x="805" y="728">
2.5
</text>
<path stroke="black" stroke-width="3" stroke-dasharray="1,2" d="M974 704l0 -639"/>
<text stroke="none" fill="black" font-size="16" x="959" y="728">
3.0
</text>
<text stroke="none" fill="black" font-size="16" x="614" y="752">
us
</text>
<path stroke="black" stroke-width="3" stroke-dasharray="1,2" d="M50 704l924 0"/>
<text stroke="none" fill="black" font-size="16" x="8" y="712">
-0.5
</text>
<path stroke="black" stroke-width="3" d="M50 633l924 0"/>
<text stroke="none" fill="black" font-size="16" x="18" y="641">
0.0
</text>
<path stroke="black" stroke-width="3" stroke-dasharray="1,2" d="M50 562l924 0"/>
<text stroke="none" fill="black" font-size="16" x="18" y="570">
0.5
</text>
<path stroke="black" stroke-width="3" stroke-dasharray="1,2" d="M50 491l924 0"/>
<text stroke="none" fill="black" font-size="16" x="18" y="499">
1.0
</text>
<path stroke="black" stroke-width="3" stroke-dasharray="1,2" d="M50 420l924 0"/>
<text stroke="none" fill="black" font-size="16" x="18" y="428">
1.5
</text>
<path stroke="black" stroke-width="3" stroke-dasharray="1,2" d="M50 349l924 0"/>
<text stroke="none" fill="black" font-size="16" x="18" y="357">
2.0
</text>
<path stroke="black" stroke-width="3" stroke-dasharray="1,2" d="M50 278l924 0"/>
<text stroke="none" fill="black" font-size="16" x="18" y="286">
2.5
</text>
<path stroke="black" stroke-width="3" stroke-dasharray="1,2" d="M50 207l924 0"/>
<text stroke="none" fill="black" font-size="16" x="18" y="215">
3.0
</text>
<path stroke="black" stroke-width="3" stroke-dasharray="1,2" d="M50 136l924 0"/>
<text stroke="none" fill="black" font-size="16" x="18" y="144">
3.5
</text>
<path stroke="black" stroke-width="3" stroke-dasharray="1,2" d="M50 65l924 0"/>
<text stroke="none" fill="black" font-size="16" x="18" y="73">
4.0
</text>
<text stroke="none" fill="black" font-size="16" x="10" y="32">
     
</text>
<path stroke="red" d="M462 23l46 0"/>
<text stroke="none" fill="black" font-size="16" x="518" y="32">
v(out_parity)
</text>
<path stroke="red" d="M50 633l0 -160M50 633l2 0M52 637l0 -260 1 0M53 634l0 -275M53 633l1 2M54 640l0 -263 1 0M55 634l0 -276M55 633l1 0M56 639l0 -262 2 0M58 634l0 -276M58 633l1 0M59 637l0 -260 1 0M60 636l0 -277M60 633l1 0M61 638l0 -261 1 0M62 636l0 -277"/>
<path stroke="red" d="M62 633l1 0M63 637l0 -260 1 0M64 634l0 -276M64 633l2 0M66 639l0 -280M66 633l1 0M67 639l0 -262 2 0M69 634l0 -275M69 633l1 0M70 639l0 -262 2 0M72 636l0 -277M72 377l1 0M73 634l0 -275M73 633l2 0M75 637l0 -260 1 0M76 634l0 -275"/>
<path stroke="red" d="M76 633l2 0M78 639l0 -279M78 633l1 0M79 639l0 -262 2 0M81 636l0 -277M81 633l1 0M82 635l0 -2M82 635l1 5 0 -263 1 0M84 637l0 -278M84 377l2 0M86 635l0 -276M86 633l1 0M87 640l0 -279M87 633l2 0M89 638l0 -261 1 0M90 639l0 -280"/>
<path stroke="red" d="M90 378l1 -1 1 0M92 636l0 -276M92 633l1 0M93 637l0 -260 2 0M95 634l0 -274M95 633l1 0M96 640l0 -263 1 0M97 636l0 -276M97 633l1 0M98 637l0 -260 1 0M99 634l0 -276M99 633l1 0M100 639l0 -262 1 0M101 635l0 -278M101 633l1 0 1 2"/>
<path stroke="red" d="M103 639l0 -281M103 633l1 0M104 637l0 -260 2 0M106 636l0 -278M106 633l1 0M107 637l0 -260 2 0M109 638l0 -280M109 377l1 0M110 636l0 -279M110 633l2 0M112 638l0 -279M112 633l1 0M113 638l0 -261 2 0M115 638l0 -280M115 377l1 0"/>
<path stroke="red" d="M116 636l0 -278M116 633l2 0M118 639l0 -262 1 0 0 -19 1 59M120 636l0 -219M120 633l1 0M121 638l0 -280M121 633l2 0M123 639l0 -262 1 0M124 636l0 -278M124 633l2 0M126 637l0 -260 1 0M127 638l0 -280M127 378l1 0 0 -1 1 0M129 634l0 -276"/>
<path stroke="red" d="M129 633l1 0M130 637l0 -260 2 0M132 635l0 -276M132 633l1 0M133 638l0 -261 1 0M134 635l0 -278M134 633l1 0M135 637l0 -260 1 0M136 634l0 -277M136 633l1 0M137 637l0 -260 1 0M138 636l0 -278M138 633l2 0M140 636l0 -277M140 633l1 0"/>
<path stroke="red" d="M141 637l0 -260 2 0M143 636l0 -278M143 633l1 0M144 636l0 -259 2 0M146 636l0 -278M146 377l1 0M147 636l0 -278M147 633l2 0M149 636l0 -259 1 0M150 633l0 -267M150 633l2 0M152 635l0 -269M152 633l1 0M153 635l0 -258 2 0M155 633l0 -267"/>
<path stroke="red" d="M155 633l1 0M156 635l0 -258 2 0M158 635l0 -269M158 377l1 0 0 -11M159 367l1 73M160 633l0 -193M160 633l1 0M161 635l0 -269M161 633l2 0M163 635l0 -258 1 0M164 635l0 -269M164 377l2 0M166 633l0 -267M166 633l1 0M167 635l0 -258"/>
<path stroke="red" d="M167 377l2 0M169 633l0 -267M169 633l1 0M170 635l0 -259M170 377l1 0M171 634l0 -268M171 633l1 0M172 635l0 -259M172 377l1 0M173 633l0 -267M173 633l2 0M175 635l0 -259M175 377l1 0M176 633l0 -267M176 633l1 0M177 635l0 -259M177 377l1 0"/>
<path stroke="red" d="M178 633l0 -267M178 633l1 0M179 635l0 -4 1 -61 0 -194M180 377l1 0M181 633l0 -267M181 633l2 0M183 635l0 -269M183 633l1 0M184 635l0 -258 2 0M186 635l0 -269M186 377l1 0M187 634l0 -268M187 633l2 0M189 635l0 -269M189 633l1 0"/>
<path stroke="red" d="M190 635l0 -258 2 0M192 633l0 -267M192 633l1 0M193 635l0 -260M193 377l2 0M195 635l0 -269M195 377l1 0M196 634l0 -268M196 633l1 -1M197 633l0 -1M197 633l1 0M198 635l0 -265M198 633l1 0 1 1M200 635l0 -258 1 0M201 635l0 -265M201 377l2 0"/>
<path stroke="red" d="M203 633l0 -263M203 633l1 0M204 634l0 -259M204 377l2 0M206 633l0 -263M206 633l1 0M207 635l0 -258 1 0M208 633l0 -263M208 633l1 0M209 634l0 -258M209 377l1 0M210 633l0 -263M210 633l1 0M211 634l0 -257 1 0M212 633l0 -263M212 633l1 0"/>
<path stroke="red" d="M213 634l0 -259M213 377l1 0M214 633l0 -263M214 633l1 0M215 634l0 -259M215 377l1 0M216 602l0 -232M216 602l1 28M217 633l0 -3M217 633l1 0M218 634l0 -257 2 0M220 634l0 -264M220 377l1 0M221 633l0 -263M221 633l2 0M223 635l0 -258"/>
<path stroke="red" d="M223 377l1 0M224 633l0 -261M224 633l2 0M226 634l0 -262M226 633l1 0M227 634l0 -257 2 0M229 633l0 -261M229 633l1 0M230 634l0 -257 2 0M232 634l0 -262M232 377l1 0M233 601l0 -229M233 601l1 27M234 633l0 -5M234 633l1 0M235 634l0 -261"/>
<path stroke="red" d="M235 633l1 0M236 634l0 -91 1 -131 0 -37M237 377l1 0M238 634l0 -261M238 377l2 0M240 633l0 -260M240 633l1 0M241 634l0 -258M241 377l2 0M243 633l0 -259M243 633l1 0M244 634l0 -258M244 377l1 0M245 633l0 -259M245 633l1 0M246 634l0 -259"/>
<path stroke="red" d="M246 377l1 0M247 633l0 -256M247 550l1 -86 0 -87 1 0M249 642l0 -273M249 633l1 0 0 -256 1 0M251 634l0 -265M251 633l1 0 0 -256 1 0M253 636l0 -267M253 633l2 0 0 -256 1 0M256 439l0 -69M256 439l1 35M257 643l0 -266 1 0M258 639l0 -270"/>
<path stroke="red" d="M258 633l2 0M260 643l0 -273M260 633l1 0 0 -256 2 0M263 635l0 -266M263 377l1 0M264 637l0 -268M264 633l2 0 0 -256 1 0M267 635l0 -266M267 633l2 0M269 642l0 -272M269 633l1 0 0 -256 2 0M272 643l0 -273M272 633l1 0 0 -242 1 -7"/>
<path stroke="red" d="M274 384l0 -7 1 0M275 635l0 -266M275 377l1 0 1 -2M277 636l0 -267M277 633l1 0 0 -256 2 0M280 634l0 -265M280 633l1 0M281 643l0 -273M281 634l1 -2M282 633l0 -1M282 633l1 0 0 -256 1 0M284 633l0 -264M284 633l1 0 0 -256 1 0M286 640l0 -271"/>
<path stroke="red" d="M286 633l1 0 0 -256 1 0M288 637l0 -268M288 633l1 0 0 -256 1 0M290 642l0 -272M290 633l2 0 0 -256 1 0M293 634l0 -265M293 633l1 0 0 -256 1 0M295 641l0 -272M295 633l1 0 0 -230 1 -12M297 640l0 -269M297 633l1 0 0 -256 2 0M300 638l0 -267"/>
<path stroke="red" d="M300 377l1 0M301 634l0 -263M301 633l2 0 0 -256 1 0M304 633l0 -262M304 633l2 0M306 642l0 -271M306 633l1 0 0 -256 2 0M309 643l0 -272M309 377l1 0M310 633l0 -262M310 633l2 0M312 641l0 -270M312 633l1 0 0 -1M313 633l1 -8 0 -248"/>
<path stroke="red" d="M314 377l1 0M315 635l0 -264M315 633l2 0 0 -256 1 0M318 642l0 -271M318 378l1 0 0 -1 1 0M320 637l0 -266M320 633l1 0 0 -256 2 0M323 638l0 -266M323 633l1 0 0 -256 1 0M325 638l0 -266M325 633l1 0 0 -256 1 0M327 637l0 -265M327 633l2 0"/>
<path stroke="red" d="M329 633l0 -256 1 0M330 640l0 -268M330 635l1 -3M331 634l0 -257 1 0M332 634l0 -262M332 633l1 0 0 -249 1 -3M334 636l0 -263M334 633l1 0 0 -256 2 0M337 641l0 -268M337 377l1 0M338 636l0 -263M338 633l2 0 0 -256 1 0M341 635l0 -261"/>
<path stroke="red" d="M341 633l2 0M343 642l0 -268M343 633l1 0 0 -256 2 0M346 643l0 -266M346 633l1 0 0 -255 1 0 0 -1 1 0M349 635l0 -262M349 377l1 0M350 638l0 -265M350 634l1 -1 1 0 0 -256 2 0M354 638l0 -265M354 633l1 0M355 642l0 -268M355 633l2 0"/>
<path stroke="red" d="M357 633l0 -256 1 0M358 644l0 -271M358 391l1 -3 0 -11 1 0M360 636l0 -263M360 633l1 0 0 -259M361 400l1 22M362 642l0 -220M362 633l1 0 0 -256 1 0M364 633l0 -260M364 633l2 0 0 -256 1 0M367 643l0 -269M367 633l1 0 0 -256 1 0M369 634l0 -261"/>
<path stroke="red" d="M369 633l1 0 0 -250 1 -2 0 -4 1 0M372 634l0 -260M372 633l2 0M374 644l0 -271M374 633l1 0 0 -256 2 0M377 644l0 -271M377 633l1 0 0 -256 2 0M380 636l0 -262M380 377l1 0M381 639l0 -265M381 633l2 0M383 643l0 -269M383 633l1 0 0 -255"/>
<path stroke="red" d="M384 378l1 -1 1 0M386 633l0 -259M386 377l1 0M387 639l0 -265M387 634l1 -1 1 0 0 -256 1 0 0 -1 1 0M391 643l0 -268M391 633l1 0M392 634l0 -259M392 633l2 0 0 -256 1 0M395 637l0 -260M395 386l1 -1 0 -8 1 0M397 644l0 -269M397 633l1 0"/>
<path stroke="red" d="M398 634l0 -258M398 634l1 -2M399 633l0 -1M399 633l1 0 0 -256 1 0M401 637l0 -262M401 633l2 0 0 -256 1 0M404 642l0 -267M404 633l1 0 0 -256 1 0M406 642l0 -267M406 633l1 0 0 -235 1 -3M408 638l0 -263M408 633l1 0 0 -256 1 0M410 421l0 -46"/>
<path stroke="red" d="M410 421l1 11M411 640l0 -263 1 0M412 634l0 -259M412 633l2 0 0 -256 1 0M415 644l0 -269M415 633l2 0M417 636l0 -261M417 633l1 0 0 -255 1 0 0 -1 1 0M420 639l0 -262M420 633l1 0 0 -240 1 -1 0 -15 1 0M423 638l0 -262M423 378l1 0"/>
<path stroke="red" d="M424 643l0 -267M424 633l2 0 0 -256 1 0M427 642l0 -266M427 628l1 8 0 -5M428 633l1 0M429 635l0 -250M429 633l2 0 0 -256 1 0M432 639l0 -262M432 482l1 -14 0 -91 1 0M434 634l0 -257M434 633l1 0M435 637l0 -216M435 633l2 0 0 -256"/>
<path stroke="red" d="M437 377l1 0M438 637l0 -260M438 633l2 0 0 -254 1 -1M441 641l0 -264M441 633l1 0 0 -255 1 0M443 633l0 -256M443 633l2 0 0 -160M445 633l1 0M446 637l0 -260 1 0M447 634l0 -275M447 632l1 2M448 640l0 -263 1 0M449 634l0 -276M449 633l2 0"/>
<path stroke="red" d="M451 639l0 -262 1 0M452 634l0 -276M452 633l2 0M454 637l0 -278M454 633l1 0M455 638l0 -261 2 0M457 637l0 -278M457 377l1 0M458 634l0 -276M458 633l2 0M460 639l0 -280M460 633l1 0M461 639l0 -262 2 0M463 634l0 -275M463 633l1 0"/>
<path stroke="red" d="M464 639l0 -262 2 0M466 636l0 -277M466 377l1 0M467 622l0 -263M467 622l1 11M468 634l0 -2M468 633l1 0M469 637l0 -260 2 0M471 634l0 -275M471 633l1 0M472 639l0 -279M472 633l2 0M474 639l0 -262 1 0M475 636l0 -277M475 633l2 0M477 640l0 -263"/>
<path stroke="red" d="M477 377l1 0M478 634l0 -275M478 633l1 0M479 637l0 -260 1 0M480 635l0 -276M480 633l1 0M481 640l0 -263 1 0M482 634l0 -273M482 633l1 0M483 638l0 -261 1 0M484 634l0 -275M484 632l1 2M485 639l0 -262 1 0M486 636l0 -276M486 633l1 0"/>
<path stroke="red" d="M487 637l0 -259 1 0 0 -1 1 0M489 634l0 -274M489 633l2 0M491 640l0 -280M491 633l1 0M492 637l0 -260 2 0M494 639l0 -281M494 377l1 0M495 635l0 -278M495 633l2 0M497 639l0 -281M497 633l1 0M498 637l0 -260 2 0M500 636l0 -278M500 633l1 0"/>
<path stroke="red" d="M501 637l0 -260 2 0M503 638l0 -280M503 377l1 0M504 636l0 -279M504 632l1 2 0 -1 1 0M506 638l0 -279M506 633l2 0M508 638l0 -261 1 0M509 638l0 -280M509 377l2 0M511 636l0 -278M511 633l1 0M512 639l0 -262 2 0M514 636l0 -278M514 633l1 0"/>
<path stroke="red" d="M515 638l0 -261 1 0M516 635l0 -277M516 633l1 0M517 639l0 -262 1 0M518 636l0 -278M518 633l2 0M520 637l0 -260 1 0M521 636l0 -278M521 633l1 0M522 638l0 -261 1 0M523 634l0 -276M523 633l1 0M524 637l0 -199 1 -56 0 -5 1 0M526 635l0 -276"/>
<path stroke="red" d="M526 633l2 0M528 638l0 -281M528 633l1 0M529 637l0 -260 2 0M531 637l0 -280M531 377l1 0M532 636l0 -278M532 633l2 0M534 636l0 -277M534 633l1 0M535 637l0 -260 2 0M537 636l0 -278M537 633l1 0M538 636l0 -258 1 0 0 -1 1 0M540 636l0 -278"/>
<path stroke="red" d="M540 377l1 0M541 636l0 -278M541 633l2 0M543 636l0 -259 1 0 0 -11 1 0M545 633l0 -267M545 633l1 0M546 635l0 -269M546 633l2 0M548 635l0 -258 1 0M549 633l0 -267M549 633l2 0M551 635l0 -258 1 0M552 635l0 -269M552 424l1 -48M553 378l0 -2"/>
<path stroke="red" d="M553 377l1 0M554 633l0 -267M554 633l1 0M555 635l0 -259M555 377l1 0M556 634l0 -268M556 633l1 0M557 635l0 -258 1 0M558 633l0 -267M558 633l1 0M559 635l0 -260M559 377l1 0M560 633l0 -267M560 633l1 0M561 635l0 -258 2 0M563 633l0 -267"/>
<path stroke="red" d="M563 633l1 0M564 635l0 -5 1 -67M565 634l0 -268M565 633l1 0M566 635l0 -259M566 377l2 0M568 633l0 -267M568 633l1 0M569 635l0 -259M569 377l2 0M571 635l0 -269M571 377l1 0M572 633l0 -267M572 633l2 0M574 635l0 -259M574 377l1 0"/>
<path stroke="red" d="M575 633l0 -267M575 633l2 0M577 635l0 -269M577 633l1 0M578 635l0 -258 2 0M580 635l0 -269M580 377l1 0M581 634l0 -268M581 634l1 -2M582 633l0 -1M582 633l1 0M583 635l0 -269M583 633l2 0M585 635l0 -258 1 0M586 633l0 -267M586 633l2 0"/>
<path stroke="red" d="M588 635l0 -260M588 377l1 0M589 634l0 -268M589 634l1 1 0 -258 1 0M591 634l0 -268M591 633l1 0M592 635l0 -264 1 -1M593 633l0 -263M593 633l1 0M594 635l0 -258 1 0M595 633l0 -263M595 633l1 0M596 635l0 -260M596 377l1 0M597 633l0 -263"/>
<path stroke="red" d="M597 633l1 0M598 634l0 -259M598 377l2 0M600 633l0 -263M600 633l1 0M601 635l0 -258 1 0M602 633l0 -263M602 633l1 0M603 634l0 -258M603 377l2 0M605 634l0 -264M605 377l1 0M606 633l0 -263M606 633l2 0M608 634l0 -264M608 633l1 0"/>
<path stroke="red" d="M609 634l0 -259M609 377l2 0M611 633l0 -263M611 633l1 0M612 634l0 -257 2 0M614 634l0 -264M614 377l1 0M615 633l0 -263M615 633l2 0M617 635l0 -258 1 0M618 508l0 -136M618 508l1 83M619 633l0 -42M619 633l1 0M620 634l0 -262M620 633l1 0"/>
<path stroke="red" d="M621 634l0 -194 1 -63M622 378l0 -1 1 0M623 633l0 -261M623 633l2 0M625 634l0 -257 1 0M626 634l0 -262M626 377l2 0M628 633l0 -261M628 633l1 0M629 634l0 -258M629 377l1 0M630 633l0 -260M630 633l1 0M631 634l0 -259M631 377l1 0"/>
<path stroke="red" d="M632 633l0 -260M632 633l1 0M633 634l0 -257 1 0M634 633l0 -260M634 633l1 0M635 634l0 -258M635 377l2 0M637 633l0 -259M637 633l1 0M638 634l0 -258M638 377l1 0M639 633l0 -259M639 633l1 0M640 634l0 -259M640 377l1 0M641 633l0 -256"/>
<path stroke="red" d="M641 633l1 0 0 -256 1 0M643 642l0 -273M643 633l2 0M645 634l0 -265M645 633l1 0 0 -256 2 0M648 636l0 -267M648 633l1 0 0 -256 2 0M651 643l0 -273M651 377l1 0M652 639l0 -270M652 633l2 0M654 643l0 -273M654 633l1 0 0 -256 2 0M657 635l0 -266"/>
<path stroke="red" d="M657 377l1 0M658 637l0 -268M658 635l1 -3M659 634l0 -2M659 633l1 0 0 -256 2 0M662 635l0 -266M662 633l1 0M663 642l0 -272M663 633l2 0 0 -256 1 0M666 643l0 -273M666 633l2 0 0 -256 1 0M669 635l0 -266M669 633l1 0 0 -256 1 0M671 636l0 -267"/>
<path stroke="red" d="M671 633l1 0 0 -256 2 0M674 634l0 -265M674 633l1 0 0 -256 1 0M676 643l0 -273M676 633l1 0 0 -256 1 0M678 633l0 -264M678 633l1 0 0 -256 1 0M680 640l0 -271M680 633l2 0M682 637l0 -268M682 633l1 0 0 -256 2 0M685 642l0 -272M685 633l1 0"/>
<path stroke="red" d="M686 633l0 -256 2 0M688 634l0 -265M688 377l1 0M689 641l0 -272M689 633l2 0M691 640l0 -269M691 633l1 0 0 -256 2 0M694 638l0 -267M694 377l1 0M695 634l0 -263M695 633l2 0 0 -256 1 0 0 -6 1 3M699 633l0 -259M699 633l1 0M700 642l0 -271"/>
<path stroke="red" d="M700 633l2 0 0 -256 1 0M703 643l0 -272M703 377l2 0M705 633l0 -262M705 633l1 0 0 -262M706 512l1 97M707 641l0 -32M707 633l1 0 0 -256 1 0M709 635l0 -264M709 633l2 0 0 -256 1 0M712 642l0 -271M712 633l1 0 0 -256 1 0M714 637l0 -266"/>
<path stroke="red" d="M714 633l1 0 0 -256 2 0M717 638l0 -266M717 633l1 0 0 -1M718 633l1 -8M719 638l0 -266M719 633l1 0 0 -256 2 0M722 637l0 -265M722 633l1 0 0 -256 2 0M725 640l0 -268M725 377l1 0M726 634l0 -262M726 633l2 0M728 636l0 -263M728 633l1 0"/>
<path stroke="red" d="M729 633l0 -256 2 0M731 641l0 -268M731 377l1 0M732 636l0 -263M732 632l1 1 1 0 0 -256 2 0M736 635l0 -261M736 633l1 0M737 642l0 -268M737 633l2 0 0 -256 1 0M740 643l0 -266M740 633l2 0 0 -256 1 0M743 635l0 -262M743 393l1 -4"/>
<path stroke="red" d="M744 389l0 -12 1 0M745 638l0 -265M745 633l1 0 0 -256 2 0M748 638l0 -265M748 633l1 0 0 -256 1 0M750 642l0 -268M750 633l1 0 0 -256 1 0M752 644l0 -271M752 633l1 0 0 -256 1 0M754 636l0 -263M754 633l1 0 0 -69 1 -67M756 642l0 -268"/>
<path stroke="red" d="M756 633l1 0 0 -256 1 0 0 -4M758 375l1 13M759 633l0 -245M759 633l1 0 0 -256 2 0M762 643l0 -269M762 377l1 0M763 634l0 -261M763 633l2 0 0 -256 1 0M766 634l0 -260M766 633l2 0M768 644l0 -271M768 633l1 0 0 -256 2 0M771 644l0 -271"/>
<path stroke="red" d="M771 633l1 0 0 -244 1 -3 0 -9 1 0M774 636l0 -262M774 377l1 0M775 452l0 -78M775 452l1 18M776 639l0 -169M776 633l1 0M777 643l0 -269M777 633l2 0 0 -256 1 0M780 633l0 -259M780 379l1 0 0 -2 1 0M782 639l0 -265M782 633l1 0 0 -256"/>
<path stroke="red" d="M783 377l2 0M785 643l0 -268M785 633l1 0M786 634l0 -257 1 0M787 634l0 -259M787 633l1 0 0 -256 1 0M789 637l0 -260M789 633l1 0 0 -256 1 0M791 644l0 -269M791 633l1 0 0 -201 1 -9M793 634l0 -258M793 633l1 0 0 -256 1 0M795 540l0 -165"/>
<path stroke="red" d="M795 540l1 85M796 637l0 -12M796 633l1 0 0 -256 2 0M799 642l0 -267M799 377l1 0M800 642l0 -267M800 633l2 0M802 638l0 -263M802 633l1 0 0 -255 1 0 0 -1 1 0M805 640l0 -265M805 377l1 0M806 634l0 -259M806 633l2 0 0 -256 1 0M809 644l0 -269"/>
<path stroke="red" d="M809 633l2 0M811 636l0 -261M811 633l1 0 0 -114 1 -40 0 -102 1 0M814 639l0 -262M814 633l2 0 0 -256 1 0M817 638l0 -262M817 421l1 -5 0 -39 1 0M819 643l0 -267M819 633l1 0 0 -255 1 0 0 -1 1 0M822 642l0 -266M822 633l1 0 0 -248"/>
<path stroke="red" d="M823 411l1 8M824 635l0 -216M824 633l1 0 0 -256 1 0M826 639l0 -262M826 633l1 0 0 -256 1 0M828 634l0 -257M828 633l1 0 1 -2M830 637l0 -216M830 633l1 0 0 -255 1 0M832 637l0 -260M832 633l2 0 0 -246 1 -1M835 402l0 -25M835 402l1 6"/>
<path stroke="red" d="M836 641l0 -262 1 0M837 633l0 -256M837 633l2 0 0 -160M839 633l1 0M840 637l0 -260 2 0M842 640l0 -281M842 377l1 0M843 634l0 -276M843 633l2 0M845 639l0 -262 1 0M846 634l0 -276M846 633l2 0M848 637l0 -278M848 633l1 0M849 638l0 -261"/>
<path stroke="red" d="M849 377l2 0M851 637l0 -278M851 377l1 0M852 393l0 -35M852 393l1 153M853 634l0 -88M853 633l1 0M854 639l0 -280M854 633l2 0M856 639l0 -262 1 0M857 634l0 -275M857 633l2 0M859 639l0 -262 1 0M860 636l0 -277M860 633l1 3 0 -259"/>
<path stroke="red" d="M861 377l1 0M862 634l0 -275M862 633l1 0M863 637l0 -260 2 0M865 634l0 -275M865 633l1 0M866 639l0 -262 1 0M867 636l0 -276M867 633l1 0M868 639l0 -262 1 0M869 636l0 -277M869 633l2 0M871 640l0 -263 1 0M872 378l0 -3 1 -8M873 637l0 -278"/>
<path stroke="red" d="M873 377l1 0M874 635l0 -276M874 633l2 0M876 640l0 -279M876 633l1 0M877 638l0 -261 2 0M879 639l0 -280M879 377l1 0M880 636l0 -276M880 633l2 0M882 637l0 -260 1 0M883 634l0 -274M883 633l2 0M885 640l0 -280M885 633l1 0M886 637l0 -260"/>
<path stroke="red" d="M886 377l2 0M888 639l0 -281M888 377l1 0M889 635l0 -278M889 634l1 -2M890 634l0 -2M890 633l1 0M891 639l0 -281M891 633l2 0M893 637l0 -260 1 0M894 636l0 -278M894 633l2 0M896 637l0 -260 1 0M897 638l0 -280M897 377l2 0M899 636l0 -279"/>
<path stroke="red" d="M899 633l1 0M900 638l0 -262 1 -6M901 634l0 -275M901 633l1 0M902 638l0 -261 1 0M903 636l0 -278M903 633l1 0M904 638l0 -261 1 0M905 636l0 -278M905 633l1 0M906 639l0 -262 2 0M908 636l0 -278M908 633l1 0M909 638l0 -260 1 0M910 635l0 -277"/>
<path stroke="red" d="M910 633l1 0M911 639l0 -262 1 0M912 444l0 -86M912 444l1 152M913 636l0 -40M913 633l1 0M914 637l0 -260 2 0M916 638l0 -280M916 377l1 0M917 634l0 -276M917 633l2 0M919 637l0 -260 1 0M920 635l0 -276M920 633l2 0M922 638l0 -281"/>
<path stroke="red" d="M922 633l1 0M923 637l0 -260 2 0M925 637l0 -280M925 377l1 0M926 636l0 -278M926 633l2 0M928 636l0 -277M928 633l2 0M930 637l0 -260 1 0M931 636l0 -278M931 633l2 0M933 636l0 -259 1 0M934 634l0 -276M934 633l1 0M935 636l0 -259"/>
<path stroke="red" d="M935 377l1 0M936 636l0 -278M936 633l1 0M937 636l0 -259 2 0M939 633l0 -267M939 633l1 0M940 635l0 -259M940 377l1 0M941 633l0 -267M941 633l1 0M942 635l0 -258 1 0M943 633l0 -267M943 633l2 0M945 635l0 -258 1 0M946 634l0 -268"/>
<path stroke="red" d="M946 633l1 0M947 635l0 -259M947 377l1 0M948 633l0 -267M948 633l1 0M949 635l0 -259M949 377l1 1M950 634l0 -268M950 633l1 0M951 635l0 -258 2 0M953 635l0 -269M953 377l1 0M954 633l0 -267M954 633l2 0M956 635l0 -258 1 0M957 633l0 -267"/>
<path stroke="red" d="M957 633l2 0M959 635l0 -269M959 633l1 0M960 635l0 -259M960 377l2 0M962 633l0 -267M962 633l1 0M963 635l0 -259M963 377l2 0M965 635l0 -269M965 377l1 0M966 633l0 -267M966 632l1 1 1 0M968 635l0 -259M968 377l2 0M970 633l0 -267"/>
<path stroke="red" d="M970 633l1 0M971 635l0 -269M971 633l2 0M973 635l0 -258 1 0"/>
<path stroke="blue" d="M50 23l46 0"/>
<text stroke="none" fill="black" font-size="16" x="106" y="32">
ideal_parity
</text>
<path stroke="blue" d="M50 633l0 -307M50 531l2 0M52 595l0 -437M52 480l1 0M53 618l0 -420M53 480l2 0M55 618l0 -420M55 429l1 0M56 618l0 -471M56 480l2 0M58 618l0 -420M58 429l1 0M59 567l0 -420M59 377l1 0M60 567l0 -420M60 429l1 0M61 567l0 -420M61 377l1 0"/>
<path stroke="blue" d="M62 607l0 -419M62 326l1 0M63 480l0 -347M63 480l1 0M64 618l0 -420M64 429l1 0M65 567l0 -420M65 377l1 0M66 567l0 -420M66 429l1 0M67 567l0 -420M67 377l2 0M69 607l0 -419M69 429l1 0M70 567l0 -420M70 377l2 0M72 607l0 -419M72 377l1 0"/>
<path stroke="blue" d="M73 607l0 -419M73 326l2 0M75 556l0 -419M75 480l1 0M76 618l0 -420M76 429l2 0M78 567l0 -420M78 429l1 0M79 567l0 -420M79 377l2 0M81 607l0 -419M81 429l1 0M82 567l0 -420M82 377l2 0M84 607l0 -419M84 377l1 0M85 607l0 -419M85 326l2 0"/>
<path stroke="blue" d="M87 607l0 -483M87 429l2 0M89 567l0 -420M89 377l1 0M90 607l0 -419M90 377l2 0M92 607l0 -419M92 326l1 0M93 556l0 -419M93 377l2 0M95 607l0 -419M95 326l1 0M96 556l0 -419M96 275l1 0M97 556l0 -419M97 326l1 0M98 556l0 -419M98 275l1 0"/>
<path stroke="blue" d="M99 597l0 -442M99 224l1 0M100 607l0 -460M100 480l1 0M101 618l0 -420M101 429l1 0M102 567l0 -420M102 377l1 0M103 567l0 -420M103 429l1 0M104 567l0 -420M104 377l1 0M105 607l0 -419M105 257l1 69M106 567l0 -374M106 429l1 0M107 567l0 -420"/>
<path stroke="blue" d="M107 377l2 0M109 607l0 -419M109 377l1 0M110 607l0 -419M110 326l2 0M112 607l0 -483M112 429l1 0M113 567l0 -420M113 377l2 0M115 607l0 -419M115 377l1 0M116 607l0 -419M116 326l2 0M118 556l0 -419M118 377l1 0M119 607l0 -419M119 326l2 0"/>
<path stroke="blue" d="M121 556l0 -419M121 326l1 0M122 556l0 -419M122 275l2 0M124 625l0 -470M124 429l1 0M125 493l0 -64M125 493l1 74 0 -420M126 377l1 0M127 607l0 -419M127 377l2 0M129 607l0 -419M129 326l1 0M130 556l0 -419M130 377l2 0M132 607l0 -419"/>
<path stroke="blue" d="M132 326l1 0M133 556l0 -419M133 326l2 0M135 556l0 -419M135 275l1 0M136 597l0 -442M136 224l1 0M137 584l0 -443M137 377l1 0M138 607l0 -419M138 326l1 0M139 556l0 -419M139 275l1 0M140 556l0 -419M140 326l1 0M141 556l0 -419M141 275l1 0"/>
<path stroke="blue" d="M142 597l0 -442M142 224l1 0M143 606l0 -437M143 326l1 0M144 556l0 -419M144 275l2 0M146 597l0 -442M146 275l1 0M147 597l0 -442M147 224l2 0M149 629l0 -456M149 480l1 0M150 618l0 -420M150 429l2 0M152 567l0 -420M152 429l1 0M153 567l0 -420"/>
<path stroke="blue" d="M153 377l2 0M155 607l0 -419M155 429l1 0M156 567l0 -420M156 377l2 0M158 607l0 -419M158 377l1 0M159 607l0 -419M159 326l2 0M161 607l0 -483M161 429l1 0M162 567l0 -420M162 377l2 0M164 607l0 -419M164 377l2 0M166 607l0 -419M166 326l1 0"/>
<path stroke="blue" d="M167 556l0 -419M167 377l2 0M169 607l0 -419M169 326l1 0M170 556l0 -419M170 326l2 0M172 556l0 -419M172 275l1 0M173 597l0 -442M173 224l1 0M174 625l0 -442M174 429l1 0M175 567l0 -420M175 377l1 0M176 607l0 -419M176 326l1 0M177 607l0 -419"/>
<path stroke="blue" d="M177 377l1 0M178 607l0 -419M178 326l1 0M179 556l0 -419M179 275l1 0M180 515l0 -373M180 377l1 0M181 607l0 -419M181 326l1 0M182 556l0 -419M182 206l1 69M183 556l0 -419M183 326l1 0M184 556l0 -419M184 275l2 0M186 597l0 -456M186 377l1 0"/>
<path stroke="blue" d="M187 607l0 -419M187 326l2 0M189 556l0 -419M189 326l1 0M190 556l0 -419M190 275l2 0M192 606l0 -451M192 326l1 0M193 556l0 -419M193 275l2 0M195 597l0 -442M195 275l1 0M196 597l0 -442M196 224l2 0M198 615l0 -488M198 429l1 0M199 567l0 -420"/>
<path stroke="blue" d="M199 377l2 0M201 607l0 -419M201 377l1 0M202 442l0 -65M202 442l1 73M203 607l0 -419M203 326l1 0M204 556l0 -419M204 377l2 0M206 607l0 -419M206 326l1 0M207 556l0 -419M207 326l2 0M209 556l0 -419M209 275l1 0M210 597l0 -456M210 377l2 0"/>
<path stroke="blue" d="M212 607l0 -419M212 326l1 0M213 556l0 -419M213 275l1 0M214 556l0 -419M214 326l1 0M215 556l0 -419M215 275l1 0M216 597l0 -442M216 224l1 0M217 606l0 -437M217 326l1 0M218 556l0 -419M218 275l1 0M219 597l0 -442M219 224l1 0M220 597l0 -437"/>
<path stroke="blue" d="M220 275l1 0M221 597l0 -442M221 224l2 0M223 615l0 -483M223 377l1 0M224 607l0 -419M224 326l2 0M226 556l0 -419M226 326l1 0M227 556l0 -419M227 275l2 0M229 606l0 -451M229 326l1 0M230 556l0 -419M230 275l2 0M232 597l0 -442M232 275l1 0"/>
<path stroke="blue" d="M233 597l0 -442M233 224l2 0M235 615l0 -470M235 326l1 0M236 556l0 -419M236 275l2 0M238 597l0 -442M238 275l1 0M239 597l0 -442M239 224l2 0M241 629l0 -474M241 275l2 0M243 597l0 -442M243 224l1 0M244 620l0 -475M244 224l2 0M246 615l0 -442"/>
<path stroke="blue" d="M246 173l1 0M247 633l0 -460M247 480l2 0M249 618l0 -420M249 429l1 0M250 567l0 -420M250 377l1 0M251 567l0 -420M251 429l1 0M252 567l0 -420M252 377l1 0M253 607l0 -419M253 326l1 0M254 567l0 -374M254 429l1 0M255 567l0 -420M255 377l1 0"/>
<path stroke="blue" d="M256 607l0 -419M256 326l1 0M257 607l0 -419M257 377l1 0M258 607l0 -419M258 326l1 0M259 556l0 -419M259 206l1 69M260 607l0 -483M260 429l1 0M261 567l0 -420M261 377l2 0M263 607l0 -419M263 377l1 0M264 607l0 -419M264 326l2 0M266 556l0 -419"/>
<path stroke="blue" d="M266 377l1 0M267 607l0 -419M267 326l2 0M269 556l0 -419M269 326l1 0M270 556l0 -419M270 275l2 0M272 625l0 -470M272 429l1 0M273 567l0 -420M273 377l2 0M275 607l0 -419M275 377l1 0M276 607l0 -419M276 326l2 0M278 556l0 -419M278 377l1 0"/>
<path stroke="blue" d="M279 442l0 -65M279 442l1 73M280 607l0 -419M280 326l1 0M281 556l0 -419M281 326l2 0M283 556l0 -419M283 275l1 0M284 597l0 -456M284 377l2 0M286 607l0 -419M286 326l1 0M287 556l0 -419M287 326l2 0M289 556l0 -419M289 275l1 0M290 597l0 -442"/>
<path stroke="blue" d="M290 224l1 0M291 606l0 -437M291 326l1 0M292 556l0 -419M292 275l1 0M293 597l0 -442M293 224l1 0M294 597l0 -437M294 275l1 0M295 597l0 -442M295 224l1 0M296 615l0 -442 1 0M297 607l0 -480M297 429l1 0M298 567l0 -420M298 377l2 0"/>
<path stroke="blue" d="M300 607l0 -419M300 377l1 0M301 607l0 -419M301 326l2 0M303 556l0 -419M303 377l1 0M304 607l0 -419M304 326l2 0M306 556l0 -419M306 326l1 0M307 556l0 -419M307 275l2 0M309 597l0 -456M309 377l1 0M310 607l0 -419M310 326l2 0M312 556l0 -419"/>
<path stroke="blue" d="M312 326l1 0M313 556l0 -419M313 275l2 0M315 606l0 -451M315 326l1 0M316 556l0 -419M316 275l2 0M318 597l0 -442M318 275l2 0M320 597l0 -442M320 224l1 0M321 615l0 -483M321 377l2 0M323 607l0 -419M323 326l1 0M324 556l0 -419M324 326l2 0"/>
<path stroke="blue" d="M326 556l0 -419M326 275l1 0M327 597l0 -442M327 224l1 0M328 606l0 -437M328 326l1 0M329 556l0 -419M329 275l1 0M330 597l0 -442M330 224l1 0M331 597l0 -437M331 275l1 0M332 597l0 -442M332 224l1 0M333 615l0 -442 1 0M334 601l0 -456"/>
<path stroke="blue" d="M334 326l1 0M335 556l0 -419M335 275l1 0M336 597l0 -442 1 69M337 597l0 -437M337 275l1 0M338 597l0 -442M338 224l2 0M340 629l0 -474M340 275l1 0M341 597l0 -442M341 224l2 0M343 620l0 -475M343 224l1 0M344 615l0 -442 2 0M346 633l0 -460"/>
<path stroke="blue" d="M346 429l1 0M347 567l0 -420M347 377l2 0M349 607l0 -419M349 377l1 0M350 607l0 -419M350 326l2 0M352 556l0 -419M352 377l1 0M353 607l0 -419M353 326l2 0M355 556l0 -419M355 326l1 0M356 391l0 -65M356 391l1 73M357 556l0 -419M357 275l1 0"/>
<path stroke="blue" d="M358 597l0 -456M358 377l2 0M360 607l0 -419M360 326l1 0M361 556l0 -419M361 326l2 0M363 556l0 -419M363 275l1 0M364 606l0 -451M364 326l2 0M366 556l0 -419M366 275l1 0M367 597l0 -442M367 224l1 0M368 597l0 -437M368 275l1 0M369 597l0 -442"/>
<path stroke="blue" d="M369 224l1 0M370 615l0 -442 1 0M371 574l0 -442M371 377l1 0M372 607l0 -419M372 326l1 0M373 556l0 -419M373 275l1 0M374 556l0 -419M374 326l1 0M375 556l0 -419M375 275l2 0M377 606l0 -451M377 326l1 0M378 556l0 -419M378 275l2 0"/>
<path stroke="blue" d="M380 597l0 -442M380 275l1 0M381 597l0 -442M381 224l2 0M383 615l0 -470M383 326l1 0M384 556l0 -419M384 275l2 0M386 597l0 -442M386 275l1 0M387 597l0 -442M387 224l2 0M389 629l0 -474M389 275l1 0M390 597l0 -442M390 224l2 0M392 620l0 -475"/>
<path stroke="blue" d="M392 224l1 0M393 615l0 -442 2 0M395 633l0 -460M395 377l2 0M397 607l0 -419M397 326l1 0M398 556l0 -419M398 326l2 0M400 556l0 -419M400 275l1 0M401 606l0 -451M401 326l2 0M403 556l0 -419M403 275l1 0M404 597l0 -442M404 224l1 0"/>
<path stroke="blue" d="M405 597l0 -437M405 275l1 0M406 597l0 -442M406 224l1 0M407 615l0 -442 1 0M408 601l0 -456M408 326l1 0M409 556l0 -419M409 275l1 0M410 597l0 -442M410 224l1 0M411 597l0 -437M411 275l1 0M412 597l0 -442M412 224l1 0M413 615l0 -391"/>
<path stroke="blue" d="M413 615l1 -442M414 629l0 -474M414 275l1 0M415 597l0 -442M415 224l2 0M417 620l0 -475M417 224l1 0M418 615l0 -442 2 0M420 633l0 -460M420 326l1 0M421 556l0 -419M421 275l2 0M423 597l0 -442M423 275l1 0M424 597l0 -442M424 224l2 0"/>
<path stroke="blue" d="M426 629l0 -474M426 275l1 0M427 597l0 -442M427 224l2 0M429 620l0 -475M429 224l1 0M430 615l0 -442 2 0M432 633l0 -460M432 275l1 0M433 340l0 -65M433 340l1 73M434 597l0 -442M434 224l1 0M435 620l0 -475M435 224l2 0M437 615l0 -442"/>
<path stroke="blue" d="M437 173l1 0M438 633l0 -460M438 224l2 0M440 615l0 -442 1 0M441 633l0 -460 2 0M443 633l0 -460M443 633l2 0 0 -307M445 531l1 0M446 595l0 -437M446 480l1 0M447 618l0 -420M447 429l1 0M448 618l0 -420M448 480l1 0M449 618l0 -420"/>
<path stroke="blue" d="M449 429l1 0M450 567l0 -420M450 377l1 0M451 618l0 -374M451 480l1 0M452 618l0 -420M452 429l2 0M454 567l0 -420M454 429l1 0M455 567l0 -420M455 377l2 0M457 607l0 -474M457 480l1 0M458 618l0 -420M458 429l2 0M460 567l0 -420M460 429l1 0"/>
<path stroke="blue" d="M461 567l0 -420M461 377l2 0M463 607l0 -419M463 429l1 0M464 567l0 -420M464 377l2 0M466 607l0 -419M466 377l1 0M467 607l0 -419M467 326l2 0M469 556l0 -419M469 480l1 0M470 618l0 -420M470 429l2 0M472 567l0 -420M472 429l2 0M474 567l0 -420"/>
<path stroke="blue" d="M474 377l1 0M475 607l0 -419M475 429l2 0M477 567l0 -420M477 377l1 0M478 607l0 -419M478 377l2 0M480 607l0 -419M480 326l1 0M481 556l0 -419M481 275l1 0M482 607l0 -483M482 429l1 0M483 567l0 -420M483 377l1 0M484 607l0 -419M484 326l1 0"/>
<path stroke="blue" d="M485 607l0 -419M485 377l1 0M486 607l0 -419M486 326l1 0M487 556l0 -419M487 275l1 0M488 515l0 -373M488 377l1 0M489 607l0 -419M489 326l1 0M490 556l0 -419M490 206l1 69M491 556l0 -419M491 326l1 0M492 556l0 -419M492 275l2 0M494 607l0 -460"/>
<path stroke="blue" d="M494 480l1 0M495 618l0 -420M495 429l2 0M497 567l0 -420M497 429l1 0M498 567l0 -420M498 377l2 0M500 607l0 -419M500 429l1 0M501 567l0 -420M501 377l2 0M503 607l0 -419M503 377l1 0M504 607l0 -419M504 326l2 0M506 607l0 -483M506 429l1 0"/>
<path stroke="blue" d="M507 567l0 -420M507 377l2 0M509 607l0 -419M509 377l1 0M510 442l0 -65M510 442l1 73M511 607l0 -419M511 326l1 0M512 556l0 -419M512 377l2 0M514 607l0 -419M514 326l1 0M515 556l0 -419M515 326l2 0M517 556l0 -419M517 275l1 0M518 625l0 -470"/>
<path stroke="blue" d="M518 429l2 0M520 567l0 -420M520 377l1 0M521 607l0 -419M521 326l1 0M522 607l0 -419M522 377l1 0M523 607l0 -419M523 326l1 0M524 556l0 -419M524 275l1 0M525 515l0 -373M525 377l1 0M526 607l0 -419M526 326l1 0M527 556l0 -419M527 275l1 0"/>
<path stroke="blue" d="M528 556l0 -419M528 326l1 0M529 556l0 -419M529 275l2 0M531 597l0 -456M531 377l1 0M532 607l0 -419M532 326l2 0M534 556l0 -419M534 326l1 0M535 556l0 -419M535 275l2 0M537 606l0 -451M537 326l1 0M538 556l0 -419M538 275l2 0M540 597l0 -442"/>
<path stroke="blue" d="M540 275l1 0M541 597l0 -442M541 224l2 0M543 629l0 -456M543 480l1 0M544 618l0 -420M544 429l2 0M546 567l0 -420M546 429l1 0M547 567l0 -420M547 377l2 0M549 607l0 -419M549 429l2 0M551 567l0 -420M551 377l1 0M552 607l0 -419M552 377l2 0"/>
<path stroke="blue" d="M554 607l0 -419M554 326l1 0M555 607l0 -483M555 429l2 0M557 567l0 -420M557 377l1 0M558 607l0 -419M558 326l1 0M559 607l0 -419M559 377l1 0M560 607l0 -419M560 326l1 0M561 556l0 -419M561 275l1 0M562 515l0 -373M562 377l1 0M563 607l0 -419"/>
<path stroke="blue" d="M563 326l1 0M564 556l0 -419M564 275l1 0M565 556l0 -419M565 326l1 0M566 556l0 -419M566 275l1 0M567 597l0 -442 1 69M568 625l0 -442M568 429l1 0M569 567l0 -420M569 377l2 0M571 607l0 -419M571 377l1 0M572 607l0 -419M572 326l2 0"/>
<path stroke="blue" d="M574 556l0 -419M574 377l1 0M575 607l0 -419M575 326l2 0M577 556l0 -419M577 326l1 0M578 556l0 -419M578 275l2 0M580 597l0 -456M580 377l1 0M581 607l0 -419M581 326l2 0M583 556l0 -419M583 326l1 0M584 556l0 -419M584 275l2 0M586 606l0 -451"/>
<path stroke="blue" d="M586 326l1 0M587 391l0 -65M587 391l1 73M588 556l0 -419M588 275l1 0M589 597l0 -442M589 275l2 0M591 597l0 -442M591 224l1 0M592 615l0 -488M592 429l2 0M594 567l0 -420M594 377l1 0M595 607l0 -419M595 377l2 0M597 607l0 -419M597 326l1 0"/>
<path stroke="blue" d="M598 556l0 -419M598 275l1 0M599 515l0 -373M599 377l1 0M600 607l0 -419M600 326l1 0M601 556l0 -419M601 275l1 0M602 556l0 -419M602 326l1 0M603 556l0 -419M603 275l1 0M604 597l0 -442M604 224l1 0M605 584l0 -443M605 377l1 0M606 607l0 -419"/>
<path stroke="blue" d="M606 326l2 0M608 556l0 -419M608 326l1 0M609 556l0 -419M609 275l2 0M611 606l0 -451M611 326l1 0M612 556l0 -419M612 275l2 0M614 597l0 -442M614 275l1 0M615 597l0 -442M615 224l2 0M617 615l0 -483M617 377l1 0M618 607l0 -419M618 326l2 0"/>
<path stroke="blue" d="M620 556l0 -419M620 326l1 0M621 556l0 -419M621 275l2 0M623 606l0 -451M623 326l1 0M624 556l0 -419M624 275l2 0M626 597l0 -442M626 275l2 0M628 597l0 -442M628 224l1 0M629 615l0 -470M629 326l2 0M631 556l0 -419M631 275l1 0M632 597l0 -442"/>
<path stroke="blue" d="M632 275l2 0M634 597l0 -442M634 224l1 0M635 615l0 -442 1 0M636 629l0 -474M636 275l1 0M637 597l0 -442M637 224l1 0M638 615l0 -442 1 0M639 620l0 -475M639 224l1 0M640 615l0 -442 1 0M641 633l0 -460M641 633l1 0 0 -455M642 480l1 0"/>
<path stroke="blue" d="M643 618l0 -420M643 429l1 0M644 567l0 -420M644 308l1 69M645 567l0 -420M645 429l1 0M646 567l0 -420M646 377l2 0M648 607l0 -419M648 429l1 0M649 567l0 -420M649 377l2 0M651 607l0 -419M651 377l1 0M652 607l0 -419M652 326l2 0M654 607l0 -483"/>
<path stroke="blue" d="M654 429l1 0M655 567l0 -420M655 377l2 0M657 607l0 -419M657 377l1 0M658 607l0 -419M658 326l2 0M660 556l0 -419M660 377l1 0M661 607l0 -419M661 326l2 0M663 556l0 -419M663 326l1 0M664 391l0 -65M664 391l1 73M665 556l0 -419M665 275l1 0"/>
<path stroke="blue" d="M666 625l0 -470M666 429l2 0M668 567l0 -420M668 377l1 0M669 607l0 -419M669 377l2 0M671 607l0 -419M671 326l1 0M672 556l0 -419M672 377l2 0M674 607l0 -419M674 326l1 0M675 556l0 -419M675 275l1 0M676 556l0 -419M676 326l1 0M677 556l0 -419"/>
<path stroke="blue" d="M677 275l1 0M678 597l0 -442M678 224l1 0M679 584l0 -443M679 377l1 0M680 607l0 -419M680 326l1 0M681 556l0 -419M681 275l1 0M682 556l0 -419M682 326l1 0M683 556l0 -419M683 275l2 0M685 606l0 -451M685 326l1 0M686 556l0 -419M686 275l2 0"/>
<path stroke="blue" d="M688 597l0 -442M688 275l1 0M689 597l0 -442M689 224l2 0M691 615l0 -488M691 429l1 0M692 567l0 -420M692 377l2 0M694 607l0 -419M694 377l1 0M695 607l0 -419M695 326l2 0M697 556l0 -419M697 377l1 0M698 607l0 -419M698 326l2 0M700 556l0 -419"/>
<path stroke="blue" d="M700 326l1 0M701 556l0 -419M701 275l2 0M703 597l0 -456M703 377l2 0M705 607l0 -419M705 326l1 0M706 556l0 -419M706 326l2 0M708 556l0 -419M708 275l1 0M709 606l0 -451M709 326l2 0M711 556l0 -419M711 275l1 0M712 597l0 -442M712 224l1 0"/>
<path stroke="blue" d="M713 597l0 -437M713 275l1 0M714 597l0 -442M714 224l1 0M715 615l0 -442 1 0M716 574l0 -442M716 377l1 0M717 607l0 -419M717 326l1 0M718 556l0 -419M718 275l1 0M719 556l0 -419M719 326l1 0M720 556l0 -419M720 275l1 0M721 597l0 -442"/>
<path stroke="blue" d="M721 155l1 69M722 606l0 -437M722 326l1 0M723 556l0 -419M723 275l2 0M725 597l0 -442M725 275l1 0M726 597l0 -442M726 224l2 0M728 615l0 -470M728 326l1 0M729 556l0 -419M729 275l2 0M731 597l0 -442M731 275l1 0M732 597l0 -442M732 224l2 0"/>
<path stroke="blue" d="M734 629l0 -474M734 275l1 0M735 597l0 -442M735 224l2 0M737 620l0 -475M737 224l1 0M738 615l0 -442 2 0M740 633l0 -460M740 429l1 0M741 493l0 -64M741 493l1 74 0 -420M742 377l1 0M743 607l0 -419M743 377l2 0M745 607l0 -419M745 326l1 0"/>
<path stroke="blue" d="M746 556l0 -419M746 377l2 0M748 607l0 -419M748 326l1 0M749 556l0 -419M749 326l2 0M751 556l0 -419M751 275l1 0M752 597l0 -442M752 224l1 0M753 584l0 -443M753 377l1 0M754 607l0 -419M754 326l1 0M755 556l0 -419M755 275l1 0M756 556l0 -419"/>
<path stroke="blue" d="M756 326l1 0M757 556l0 -419M757 275l1 0M758 597l0 -442M758 224l1 0M759 606l0 -437M759 326l1 0M760 556l0 -419M760 275l2 0M762 597l0 -442M762 275l1 0M763 597l0 -442M763 224l2 0M765 615l0 -483M765 377l1 0M766 607l0 -419M766 326l2 0"/>
<path stroke="blue" d="M768 556l0 -419M768 326l1 0M769 556l0 -419M769 275l2 0M771 606l0 -451M771 326l1 0M772 556l0 -419M772 275l2 0M774 597l0 -442M774 275l1 0M775 597l0 -442M775 224l2 0M777 615l0 -470M777 326l1 0M778 556l0 -419M778 275l2 0M780 597l0 -442"/>
<path stroke="blue" d="M780 275l2 0M782 597l0 -442M782 224l1 0M783 629l0 -474M783 275l2 0M785 597l0 -442M785 224l1 0M786 620l0 -475M786 224l2 0M788 615l0 -442 1 0M789 633l0 -460M789 633l1 0 0 -422M790 377l1 0M791 607l0 -419M791 326l1 0M792 556l0 -419"/>
<path stroke="blue" d="M792 275l1 0M793 556l0 -419M793 326l1 0M794 556l0 -419M794 275l1 0M795 597l0 -442M795 224l1 0M796 606l0 -437M796 326l1 0M797 556l0 -419M797 275l1 0M798 597l0 -442 1 69M799 597l0 -437M799 275l1 0M800 597l0 -442M800 224l2 0"/>
<path stroke="blue" d="M802 615l0 -470M802 326l1 0M803 556l0 -419M803 275l2 0M805 597l0 -442M805 275l1 0M806 597l0 -442M806 224l2 0M808 629l0 -474M808 275l1 0M809 597l0 -442M809 224l2 0M811 620l0 -475M811 224l1 0M812 615l0 -442 2 0M814 633l0 -460"/>
<path stroke="blue" d="M814 326l1 0M815 556l0 -419M815 275l2 0M817 597l0 -442M817 275l1 0M818 340l0 -65M818 340l1 73M819 597l0 -442M819 224l1 0M820 629l0 -474M820 275l2 0M822 597l0 -442M822 224l1 0M823 620l0 -475M823 224l2 0M825 615l0 -442 1 0"/>
<path stroke="blue" d="M826 633l0 -460M826 275l2 0M828 597l0 -442M828 224l1 0M829 615l0 -442 1 0M830 620l0 -475M830 224l1 0M831 615l0 -442 1 0M832 633l0 -460M832 633l1 0 0 -460M833 224l1 0M834 615l0 -442 1 0M835 633l0 -460M835 633l1 0 0 -460"/>
<path stroke="blue" d="M836 173l1 0M837 633l0 -460M837 633l2 0 0 -307M839 531l1 0M840 595l0 -437M840 480l2 0M842 618l0 -420M842 480l1 0M843 618l0 -420M843 429l2 0M845 618l0 -471M845 480l1 0M846 618l0 -420M846 429l2 0M848 567l0 -420M848 429l1 0"/>
<path stroke="blue" d="M849 567l0 -420M849 377l2 0M851 607l0 -474M851 480l1 0M852 618l0 -420M852 429l2 0M854 567l0 -420M854 429l1 0M855 567l0 -420M855 377l2 0M857 607l0 -419M857 429l2 0M859 567l0 -420M859 377l1 0M860 607l0 -419M860 377l2 0M862 607l0 -419"/>
<path stroke="blue" d="M862 326l1 0M863 556l0 -419M863 480l2 0M865 618l0 -420M865 429l1 0M866 567l0 -420M866 377l1 0M867 567l0 -420M867 429l1 0M868 567l0 -420M868 377l1 0M869 607l0 -419M869 326l1 0M870 567l0 -374M870 429l1 0M871 567l0 -420M871 377l1 0"/>
<path stroke="blue" d="M872 607l0 -419M872 326l1 0M873 607l0 -419M873 377l1 0M874 607l0 -419M874 326l1 0M875 556l0 -419M875 206l1 69M876 607l0 -483M876 429l1 0M877 567l0 -420M877 377l2 0M879 607l0 -419M879 377l1 0M880 607l0 -419M880 326l2 0M882 556l0 -419"/>
<path stroke="blue" d="M882 377l1 0M883 607l0 -419M883 326l2 0M885 556l0 -419M885 326l1 0M886 556l0 -419M886 275l2 0M888 607l0 -460M888 480l1 0M889 618l0 -420M889 429l2 0M891 567l0 -420M891 429l1 0M892 567l0 -420M892 377l2 0M894 607l0 -419M894 429l1 0"/>
<path stroke="blue" d="M895 493l0 -64M895 493l1 74 0 -420M896 377l1 0M897 607l0 -419M897 377l2 0M899 607l0 -419M899 326l1 0M900 607l0 -483M900 429l2 0M902 567l0 -420M902 377l1 0M903 607l0 -419M903 377l2 0M905 607l0 -419M905 326l1 0M906 556l0 -419"/>
<path stroke="blue" d="M906 275l1 0M907 515l0 -373M907 377l1 0M908 607l0 -419M908 326l1 0M909 556l0 -419M909 275l1 0M910 556l0 -419M910 326l1 0M911 556l0 -419M911 275l1 0M912 597l0 -442M912 224l1 0M913 625l0 -442M913 429l1 0M914 567l0 -420M914 377l2 0"/>
<path stroke="blue" d="M916 607l0 -419M916 377l1 0M917 607l0 -419M917 326l2 0M919 556l0 -419M919 377l1 0M920 607l0 -419M920 326l2 0M922 556l0 -419M922 326l1 0M923 556l0 -419M923 275l2 0M925 597l0 -456M925 377l1 0M926 607l0 -419M926 326l2 0M928 556l0 -419"/>
<path stroke="blue" d="M928 326l1 0M929 556l0 -419M929 275l2 0M931 606l0 -451M931 326l1 0M932 556l0 -419M932 275l2 0M934 597l0 -442M934 275l2 0M936 597l0 -442M936 224l1 0M937 629l0 -456M937 480l2 0M939 618l0 -420M939 429l1 0M940 567l0 -420M940 429l2 0"/>
<path stroke="blue" d="M942 567l0 -420M942 377l1 0M943 607l0 -419M943 326l1 0M944 567l0 -374M944 429l1 0M945 567l0 -420M945 377l1 0M946 607l0 -419M946 326l1 0M947 607l0 -419M947 377l1 0M948 607l0 -419M948 326l1 0M949 556l0 -419M949 275l1 0M950 607l0 -483"/>
<path stroke="blue" d="M950 429l1 0M951 567l0 -420M951 377l1 0M952 607l0 -419M952 257l1 69M953 607l0 -419M953 377l1 0M954 607l0 -419M954 326l2 0M956 556l0 -419M956 377l1 0M957 607l0 -419M957 326l2 0M959 556l0 -419M959 326l1 0M960 556l0 -419M960 275l2 0"/>
<path stroke="blue" d="M962 625l0 -470M962 429l1 0M963 567l0 -420M963 377l2 0M965 607l0 -419M965 377l1 0M966 607l0 -419M966 326l2 0M968 556l0 -419M968 377l1 0M969 607l0 -419M969 326l2 0M971 556l0 -419M971 326l1 0M972 391l0 -65M972 391l1 73M973 556l0 -419"/>
<path stroke="blue" d="M973 275l1 0"/>
</svg>
