<?xml version="1.0" standalone="yes"?>
<!DOCTYPE svg PUBLIC "-//W3C//DTD SVG 1.1//EN"
 "http://www.w3.org/Graphics/SVG/1.1/DTD/svg11.dtd">
<svg xmlns="http://www.w3.org/2000/svg" version="1.1"
  width="100%" height="100%" viewBox="0 0 1024 768"
  style="fill: none; stroke-width: 3; font-family: Helvetica;
 font: Helvetica;
">

<!-- Creator: NGspice -->

<rect x="0" y="0" width="1024" height="768" fill="white" stroke="none"/>
<text stroke="none" fill="black" font-size="16" x="358" y="752">
time
</text>
<text stroke="none" fill="black" font-size="16" x="10" y="16">
tran1: Transient: Static Leakage Zoom
</text>
<path stroke="black" stroke-width="3" d="M70 704l0 -640"/>
<text stroke="none" fill="black" font-size="16" x="55" y="728">
0.0
</text>
<path stroke="black" stroke-width="3" stroke-dasharray="1,2" d="M158 704l0 -640"/>
<text stroke="none" fill="black" font-size="16" x="138" y="728">
10.0
</text>
<path stroke="black" stroke-width="3" stroke-dasharray="1,2" d="M246 704l0 -640"/>
<text stroke="none" fill="black" font-size="16" x="226" y="728">
20.0
</text>
<path stroke="black" stroke-width="3" stroke-dasharray="1,2" d="M334 704l0 -640"/>
<text stroke="none" fill="black" font-size="16" x="314" y="728">
30.0
</text>
<path stroke="black" stroke-width="3" stroke-dasharray="1,2" d="M422 704l0 -640"/>
<text stroke="none" fill="black" font-size="16" x="402" y="728">
40.0
</text>
<path stroke="black" stroke-width="3" stroke-dasharray="1,2" d="M510 704l0 -640"/>
<text stroke="none" fill="black" font-size="16" x="490" y="728">
50.0
</text>
<path stroke="black" stroke-width="3" stroke-dasharray="1,2" d="M598 704l0 -640"/>
<text stroke="none" fill="black" font-size="16" x="578" y="728">
60.0
</text>
<path stroke="black" stroke-width="3" stroke-dasharray="1,2" d="M686 704l0 -640"/>
<text stroke="none" fill="black" font-size="16" x="666" y="728">
70.0
</text>
<path stroke="black" stroke-width="3" stroke-dasharray="1,2" d="M774 704l0 -640"/>
<text stroke="none" fill="black" font-size="16" x="754" y="728">
80.0
</text>
<path stroke="black" stroke-width="3" stroke-dasharray="1,2" d="M862 704l0 -640"/>
<text stroke="none" fill="black" font-size="16" x="842" y="728">
90.0
</text>
<path stroke="black" stroke-width="3" stroke-dasharray="1,2" d="M950 704l0 -640"/>
<text stroke="none" fill="black" font-size="16" x="925" y="728">
100.0
</text>
<text stroke="none" fill="black" font-size="16" x="614" y="752">
ns
</text>
<path stroke="black" stroke-width="3" d="M70 704l880 0"/>
<text stroke="none" fill="black" font-size="16" x="38" y="712">
0.0
</text>
<path stroke="black" stroke-width="3" stroke-dasharray="1,2" d="M70 640l880 0"/>
<text stroke="none" fill="black" font-size="16" x="28" y="648">
10.0
</text>
<path stroke="black" stroke-width="3" stroke-dasharray="1,2" d="M70 576l880 0"/>
<text stroke="none" fill="black" font-size="16" x="28" y="584">
20.0
</text>
<path stroke="black" stroke-width="3" stroke-dasharray="1,2" d="M70 512l880 0"/>
<text stroke="none" fill="black" font-size="16" x="28" y="520">
30.0
</text>
<path stroke="black" stroke-width="3" stroke-dasharray="1,2" d="M70 448l880 0"/>
<text stroke="none" fill="black" font-size="16" x="28" y="456">
40.0
</text>
<path stroke="black" stroke-width="3" stroke-dasharray="1,2" d="M70 384l880 0"/>
<text stroke="none" fill="black" font-size="16" x="28" y="392">
50.0
</text>
<path stroke="black" stroke-width="3" stroke-dasharray="1,2" d="M70 320l880 0"/>
<text stroke="none" fill="black" font-size="16" x="28" y="328">
60.0
</text>
<path stroke="black" stroke-width="3" stroke-dasharray="1,2" d="M70 256l880 0"/>
<text stroke="none" fill="black" font-size="16" x="28" y="264">
70.0
</text>
<path stroke="black" stroke-width="3" stroke-dasharray="1,2" d="M70 192l880 0"/>
<text stroke="none" fill="black" font-size="16" x="28" y="200">
80.0
</text>
<path stroke="black" stroke-width="3" stroke-dasharray="1,2" d="M70 128l880 0"/>
<text stroke="none" fill="black" font-size="16" x="28" y="136">
90.0
</text>
<path stroke="black" stroke-width="3" stroke-dasharray="1,2" d="M70 64l880 0"/>
<text stroke="none" fill="black" font-size="16" x="18" y="72">
100.0
</text>
<text stroke="none" fill="black" font-size="16" x="10" y="32">
nA
</text>
<path stroke="red" d="M440 23l44 0"/>
<text stroke="none" fill="black" font-size="16" x="494" y="32">
-i(v_supply)
</text>
<path stroke="red" d="M70 704l9 0 0 -640M80 704l0 -640M81 704l0 -640M82 704l0 -640M83 704l0 -640M84 704l0 -640M85 704l0 -640M86 704l0 -640M87 704l0 -640M88 704l0 -640M89 704l0 -640M90 704l0 -640M91 704l0 -640M92 704l0 -640M93 704l0 -640M94 704l0 -640"/>
<path stroke="red" d="M95 704l0 -640M96 704l0 -640M96 704l1 -628M97 704l0 -628M98 704l0 -565M99 704l0 -509M99 704l1 -468M100 704l0 -468M100 704l1 -424M101 704l0 -424M102 704l0 -386M102 704l1 -357M103 704l0 -357M103 704l1 -325M104 704l0 -325M105 704l0 -297"/>
<path stroke="red" d="M105 704l1 -276M106 704l0 -276M106 704l1 -254M107 704l0 -254M108 704l0 -233M108 704l1 -217M109 704l0 -217M109 704l1 -200M110 704l0 -200M111 704l0 -185M112 704l0 -171M112 704l1 -160M113 704l0 -160M114 704l0 -148M115 704l0 -138"/>
<path stroke="red" d="M115 704l1 -129M116 704l0 -129M117 704l0 -120M118 704l0 -112M118 704l1 -105M119 704l0 -105M119 704l1 -98M120 704l0 -98M121 704l0 -92M121 704l1 -87M122 704l0 -87M122 704l1 -81M123 704l0 -81M124 704l0 -76M124 704l1 -72M125 704l0 -72"/>
<path stroke="red" d="M125 704l1 -67M126 704l0 -67M127 704l0 -63M127 704l1 -60M128 704l0 -60M128 704l1 -56M129 704l0 -56M130 704l0 -53M131 704l0 -50M131 704l1 -48M132 704l0 -48M133 704l0 -45M134 704l0 -43M134 704l1 -41M135 704l0 -41M136 704l0 -39"/>
<path stroke="red" d="M137 704l0 -37M137 704l1 -35M138 704l0 -35M139 704l0 -33M140 704l0 -32M140 704l1 -30M141 704l0 -30M141 704l1 -29M142 704l0 -29M143 704l0 -28M143 704l1 -27M144 704l0 -27M144 704l1 -25M145 704l0 -25M146 704l0 -24M146 704l1 -23"/>
<path stroke="red" d="M147 704l0 -23M147 704l1 -22M148 704l0 -22M149 704l0 -21M149 704l1 -21M150 704l0 -21M150 704l1 -20M151 704l0 -20M152 704l0 -19M153 704l0 -18M153 704l1 -18M154 704l0 -18M155 704l0 -17M156 704l0 -16M156 704l1 -16M157 704l0 -16"/>
<path stroke="red" d="M158 704l0 -15M159 704l0 -15M159 704l1 -14M160 704l0 -14M161 704l0 -14M162 704l0 -13M162 704l1 -13M163 704l0 -13M163 704l1 -13M164 704l0 -13M165 704l0 -12M165 704l1 -12M166 704l0 -12M166 704l1 -11M167 704l0 -11M168 704l0 -11"/>
<path stroke="red" d="M168 704l1 -11M169 704l0 -11M169 704l1 -11M170 704l0 -11M171 704l0 -10M171 704l1 -10M172 704l0 -10M172 704l1 -10M173 704l0 -10M174 704l0 -9M175 704l0 -9M175 704l1 -9M176 704l0 -9M177 704l0 -9M178 704l0 -9M178 704l1 -8M179 704l0 -8"/>
<path stroke="red" d="M180 704l0 -8M181 704l0 -8M181 704l1 -8M182 704l0 -8M183 704l0 -8M184 704l0 -7M184 704l1 -7M185 704l0 -7M185 704l1 -7M186 704l0 -7M187 704l0 -7M187 704l1 -7M188 704l0 -7M188 704l1 -7M189 704l0 -7M190 704l0 -7M190 704l1 -6"/>
<path stroke="red" d="M191 704l0 -6M191 704l1 -6M192 704l0 -6M193 704l0 -6M193 704l1 -6M194 704l0 -6M194 704l1 -6M195 704l0 -6M196 704l0 -6M197 704l0 -6M197 704l1 -6M198 704l0 -6M199 704l0 -6M200 704l0 -5M200 704l1 -5M201 704l0 -5M202 704l0 -5"/>
<path stroke="red" d="M203 704l0 -5M203 704l1 -5M204 704l0 -5M205 704l0 -5M206 704l0 -5M206 704l1 -5M207 704l0 -5M207 704l1 -5M208 704l0 -5M209 704l0 -5M209 704l1 -5M210 704l0 -5M210 704l1 -5M211 704l0 -5 1 5 0 -5M212 704l1 -4M213 704l0 -4M213 704l1 -4"/>
<path stroke="red" d="M214 704l0 -4 1 4 0 -4M215 704l1 -4M216 704l0 -4M216 704l1 -4M217 704l0 -4 1 4 0 -4M218 704l1 -4M219 704l0 -4M219 704l1 -4M220 704l0 -4 1 4 0 -4 1 4 0 -4M222 704l1 -4M223 704l0 -4 1 4 0 -4 1 4 0 -4M225 704l1 -4M226 704l0 -4"/>
<path stroke="red" d="M226 700l1 4 0 -4 1 4 0 -4M228 704l1 -4M229 704l0 -4 1 4 0 -4 1 4 0 -4M231 704l1 -4M232 704l0 -4M232 703l1 -3M233 703l0 -3 1 3 0 -3M234 703l1 -3M235 703l0 -3M235 703l1 -3M236 703l0 -3M236 701l1 2 0 -2M237 703l1 -2M238 703l0 -2"/>
<path stroke="red" d="M238 703l1 -2M239 703l0 -2 1 2 0 -2M240 703l1 -2M241 703l0 -2M241 703l1 -2M242 703l0 -2 1 2 0 -2 1 2 0 -2M244 703l1 -2M245 703l0 -2 1 2 0 -2 1 2 0 -639M248 704l0 -640M249 704l0 -640M250 704l0 -640M251 704l0 -640M252 704l0 -640"/>
<path stroke="red" d="M253 704l0 -640M254 704l0 -640M255 704l0 -640M255 704l1 -605M256 704l0 -605M257 704l0 -510M258 704l0 -430M258 704l1 -373M259 704l0 -373M260 704l0 -315M261 704l0 -264M261 704l1 -228M262 704l0 -228M263 704l0 -191M264 704l0 -158"/>
<path stroke="red" d="M264 704l1 -134M265 704l0 -134M265 704l1 -109M266 704l0 -109M267 704l0 -86M267 704l1 -70M268 704l0 -70M268 704l1 -53M269 704l0 -53M270 704l0 -37M270 704l1 -25M271 704l0 -25M271 704l1 -13M272 704l0 -13M273 704l0 -6M274 704l0 -15"/>
<path stroke="red" d="M275 704l0 -22M275 704l1 -24M276 704l0 -30M276 704l1 -31M277 704l0 -37M278 704l0 -42M278 704l1 -43M279 704l0 -48M279 704l1 -49M280 704l0 -53M281 704l0 -57M281 704l1 -58M282 704l0 -61M282 704l1 -62M283 704l0 -65M284 704l0 -68"/>
<path stroke="red" d="M284 704l1 -69M285 704l0 -71M285 704l1 -72M286 704l0 -74M287 704l0 -77M288 704l0 -79M288 704l1 -80M289 704l0 -82M290 704l0 -84M291 704l0 -85M291 704l1 -86M292 704l0 -87M293 704l0 -89M294 704l0 -90M294 704l1 -90M295 704l0 -91"/>
<path stroke="red" d="M296 704l0 -93M297 704l0 -93M297 704l1 -94M298 704l0 -94M298 704l1 -95M299 704l0 -95M300 704l0 -96M300 704l1 -96M301 704l0 -97M301 704l1 -97M302 704l0 -98M303 704l0 -98M303 704l1 -98M304 704l0 -99M304 704l1 -99M305 704l0 -99"/>
<path stroke="red" d="M306 704l0 -99M306 704l1 -100M307 704l0 -100M307 704l1 -100M308 704l0 -100M309 704l0 -101M310 704l0 -101M310 704l1 -101M311 704l0 -101M312 704l0 -101M313 704l0 -101M313 704l1 -101M314 704l0 -102M315 704l0 -102M316 704l0 -102"/>
<path stroke="red" d="M316 704l1 -102M317 704l0 -102M318 704l0 -102M319 704l0 -102M319 704l1 -102M320 704l0 -102M320 704l1 -102M321 704l0 -102M322 704l0 -102M322 704l1 -102M323 704l0 -102M323 704l1 -102M324 704l0 -102M325 704l0 -102M325 704l1 -102"/>
<path stroke="red" d="M326 704l0 -102M326 704l1 -102M327 704l0 -102M328 704l0 -102M328 704l1 -102M329 704l0 -102M329 704l1 -102M330 704l0 -102M331 704l0 -101M332 704l0 -101M332 704l1 -101M333 704l0 -101M334 704l0 -101M335 704l0 -101M335 704l1 -101"/>
<path stroke="red" d="M336 704l0 -101M337 704l0 -101M338 704l0 -101M338 704l1 -101M339 704l0 -101M340 704l0 -101M341 704l0 -100M341 704l1 -100M342 704l0 -100M342 704l1 -100M343 704l0 -100M344 704l0 -100M344 704l1 -100M345 704l0 -100M345 704l1 -100"/>
<path stroke="red" d="M346 704l0 -100M347 704l0 -100M347 704l1 -100M348 704l0 -100M348 704l1 -99M349 704l0 -99M350 704l0 -99M350 704l1 -99M351 704l0 -99M351 704l1 -99M352 704l0 -99M353 704l0 -99M354 704l0 -99M354 704l1 -99M355 704l0 -99M356 704l0 -98"/>
<path stroke="red" d="M357 704l0 -98M357 704l1 -98M358 704l0 -98M359 704l0 -98M360 704l0 -98M360 704l1 -98M361 704l0 -98M362 704l0 -98M363 704l0 -97M363 704l1 -97M364 704l0 -97M364 704l1 -97M365 704l0 -97M366 704l0 -97M366 704l1 -97M367 704l0 -97"/>
<path stroke="red" d="M367 704l1 -97M368 704l0 -97M369 704l0 -97M369 704l1 -96M370 704l0 -96M370 704l1 -96M371 704l0 -96M372 704l0 -96M372 704l1 -96M373 704l0 -96M373 704l1 -96M374 704l0 -96M375 704l0 -96M376 704l0 -96M376 704l1 -96M377 704l0 -96"/>
<path stroke="red" d="M378 704l0 -95M379 704l0 -95M379 704l1 -95M380 704l0 -95M381 704l0 -95M382 704l0 -95M382 704l1 -95M383 704l0 -95M384 704l0 -95M385 704l0 -95M385 704l1 -94M386 704l0 -94M386 704l1 -94M387 704l0 -94M388 704l0 -94M388 704l1 -94"/>
<path stroke="red" d="M389 704l0 -94M389 704l1 -94M390 704l0 -94M391 704l0 -94M391 704l1 -94M392 704l0 -94M392 704l1 -94M393 704l0 -94M394 704l0 -94M394 704l1 -93M395 704l0 -93M395 704l1 -93M396 704l0 -93M397 704l0 -93M398 704l0 -93M398 704l1 -93"/>
<path stroke="red" d="M399 704l0 -93M400 704l0 -93M401 704l0 -93M401 704l1 -93M402 704l0 -93M403 704l0 -93M404 704l0 -92M404 704l1 -92M405 704l0 -92M405 704l1 -92M406 704l0 -92M407 704l0 -92M407 704l1 -92M408 704l0 -92M408 704l1 -92M409 704l0 -92"/>
<path stroke="red" d="M410 704l0 -92M410 704l1 -92M411 704l0 -92M411 704l1 -92M412 704l0 -92M413 704l0 -92M413 704l1 -91M414 704l0 -91M414 704l1 -91M415 704l0 -91M416 704l0 -91M417 704l0 -91M417 704l1 -91M418 704l0 -91M419 704l0 -91M420 704l0 -91"/>
<path stroke="red" d="M420 704l1 -91M421 704l0 -91M422 704l0 -91M423 704l0 -91M423 704l1 -91M424 704l0 -91M425 704l0 -90M426 704l0 -90M426 704l1 -90M427 704l0 -90M427 704l1 -90M428 704l0 -90M429 704l0 -90M429 704l1 -90M430 704l0 -90M430 704l1 -90"/>
<path stroke="red" d="M431 704l0 -640M432 704l0 -640M433 704l0 -640M434 704l0 -640M435 704l0 -640M436 704l0 -640M437 704l0 -640M438 704l0 -640M439 704l0 -640M440 704l0 -640M441 704l0 -640M442 704l0 -640M443 704l0 -640M444 704l0 -640M445 704l0 -640"/>
<path stroke="red" d="M446 704l0 -640M447 704l0 -640M448 704l0 -640M448 704l1 -628M449 704l0 -628M449 704l1 -565M450 704l0 -565M451 704l0 -509M451 704l1 -468M452 704l0 -468M452 704l1 -424M453 704l0 -424M454 704l0 -386M454 704l1 -357M455 704l0 -357"/>
<path stroke="red" d="M455 704l1 -325M456 704l0 -325M457 704l0 -297M457 704l1 -276M458 704l0 -276M458 704l1 -254M459 704l0 -254M460 704l0 -233M461 704l0 -214M461 704l1 -200M462 704l0 -200M463 704l0 -185M464 704l0 -171M464 704l1 -160M465 704l0 -160"/>
<path stroke="red" d="M466 704l0 -148M467 704l0 -138M467 704l1 -129M468 704l0 -129M469 704l0 -120M470 704l0 -112M470 704l1 -105M471 704l0 -105M471 704l1 -98M472 704l0 -98M473 704l0 -92M473 704l1 -87M474 704l0 -87M474 704l1 -81M475 704l0 -81M476 704l0 -76"/>
<path stroke="red" d="M476 704l1 -72M477 704l0 -72M477 704l1 -67M478 704l0 -67M479 704l0 -63M479 704l1 -60M480 704l0 -60M480 704l1 -56M481 704l0 -56M482 704l0 -53M483 704l0 -50M483 704l1 -48M484 704l0 -48M485 704l0 -45M486 704l0 -43M486 704l1 -41"/>
<path stroke="red" d="M487 704l0 -41M488 704l0 -39M489 704l0 -37M489 704l1 -35M490 704l0 -35M491 704l0 -33M492 704l0 -32M492 704l1 -30M493 704l0 -30M493 704l1 -29M494 704l0 -29M495 704l0 -28M495 704l1 -27M496 704l0 -27M496 704l1 -25M497 704l0 -25"/>
<path stroke="red" d="M498 704l0 -24M498 704l1 -23M499 704l0 -23M499 704l1 -22M500 704l0 -22M501 704l0 -21M501 704l1 -21M502 704l0 -21M502 704l1 -20M503 704l0 -20M504 704l0 -19M505 704l0 -18M505 704l1 -18M506 704l0 -18M507 704l0 -17M508 704l0 -16"/>
<path stroke="red" d="M508 704l1 -16M509 704l0 -16M510 704l0 -15M511 704l0 -15M511 704l1 -14M512 704l0 -14M513 704l0 -14M514 704l0 -13M514 704l1 -13M515 704l0 -13M515 704l1 -13M516 704l0 -13M517 704l0 -12M517 704l1 -12M518 704l0 -12M518 704l1 -11"/>
<path stroke="red" d="M519 704l0 -11M520 704l0 -11M520 704l1 -11M521 704l0 -11M521 704l1 -11M522 704l0 -11M523 704l0 -10M523 704l1 -10M524 704l0 -10M524 704l1 -10M525 704l0 -10M526 704l0 -9M527 704l0 -9M527 704l1 -9M528 704l0 -9M529 704l0 -9"/>
<path stroke="red" d="M530 704l0 -9M530 704l1 -8M531 704l0 -8M532 704l0 -8M533 704l0 -8M533 704l1 -8M534 704l0 -8M535 704l0 -8M536 704l0 -7M536 704l1 -7M537 704l0 -7M537 704l1 -7M538 704l0 -7M539 704l0 -7M539 704l1 -7M540 704l0 -7M540 704l1 -7"/>
<path stroke="red" d="M541 704l0 -7M542 704l0 -7M542 704l1 -6M543 704l0 -6M543 704l1 -6M544 704l0 -6M545 704l0 -6M545 704l1 -6M546 704l0 -6M546 704l1 -6M547 704l0 -6M548 704l0 -6M549 704l0 -6M549 704l1 -6M550 704l0 -6M551 704l0 -6M552 704l0 -5"/>
<path stroke="red" d="M552 704l1 -5M553 704l0 -5M554 704l0 -5M555 704l0 -5M555 704l1 -5M556 704l0 -5M557 704l0 -5M558 704l0 -5M558 704l1 -5M559 704l0 -5M559 704l1 -5M560 704l0 -5M561 704l0 -5M561 704l1 -5M562 704l0 -5M562 704l1 -5M563 704l0 -5"/>
<path stroke="red" d="M563 699l1 5 0 -5M564 704l1 -4M565 704l0 -4M565 704l1 -4M566 704l0 -4 1 4 0 -4M567 704l1 -4M568 704l0 -4M568 704l1 -4M569 704l0 -4 1 4 0 -4 1 4 0 -4M571 704l1 -4M572 704l0 -4 1 4 0 -4 1 4 0 -4M574 704l1 -4M575 704l0 -4 1 4"/>
<path stroke="red" d="M576 704l0 -4 1 4 0 -4M577 704l1 -4M578 704l0 -4 1 4 0 -4 1 4 0 -4M580 704l1 -4M581 704l0 -4M581 704l1 -4M582 704l0 -4 1 4 0 -4M583 704l1 -4M584 704l0 -4M584 703l1 -3M585 703l0 -3 1 3 0 -3M586 703l1 -3M587 703l0 -3M587 703l1 -3"/>
<path stroke="red" d="M588 703l0 -3M588 701l1 2 0 -2M589 703l1 -2M590 703l0 -2M590 703l1 -2M591 703l0 -2 1 2 0 -2 1 2 0 -2M593 703l1 -2M594 703l0 -2 1 2 0 -2 1 2 0 -2M596 703l1 -2M597 703l0 -2 1 2 0 -2 1 2 0 -639M600 704l0 -640M601 704l0 -640"/>
<path stroke="red" d="M602 704l0 -640M603 704l0 -640M604 704l0 -640M605 704l0 -640M606 704l0 -640M607 704l0 -640M607 704l1 -605M608 704l0 -605M609 704l0 -510M610 704l0 -430M610 704l1 -373M611 704l0 -373M612 704l0 -315M613 704l0 -264M613 704l1 -228"/>
<path stroke="red" d="M614 704l0 -228M614 704l1 -191M615 704l0 -191M616 704l0 -158M616 704l1 -134M617 704l0 -134M617 704l1 -109M618 704l0 -109M619 704l0 -86M619 704l1 -70M620 704l0 -70M620 704l1 -53M621 704l0 -53M622 704l0 -37M622 704l1 -25M623 704l0 -25"/>
<path stroke="red" d="M623 704l1 -13M624 704l0 -13M625 704l0 -6M625 704l1 -8M626 704l0 -15M627 704l0 -22M627 704l1 -24M628 704l0 -30M628 704l1 -31M629 704l0 -37M630 704l0 -42M630 704l1 -43M631 704l0 -48M631 704l1 -49M632 704l0 -53M633 704l0 -57"/>
<path stroke="red" d="M633 704l1 -58M634 704l0 -61M634 704l1 -62M635 704l0 -65M636 704l0 -69M637 704l0 -71M637 704l1 -72M638 704l0 -74M639 704l0 -77M640 704l0 -79M640 704l1 -80M641 704l0 -82M642 704l0 -84M643 704l0 -85M643 704l1 -86M644 704l0 -87"/>
<path stroke="red" d="M645 704l0 -89M646 704l0 -90M646 704l1 -90M647 704l0 -91M647 704l1 -91M648 704l0 -93M649 704l0 -93M649 704l1 -94M650 704l0 -94M650 704l1 -95M651 704l0 -95M652 704l0 -96M652 704l1 -96M653 704l0 -97M653 704l1 -97M654 704l0 -98"/>
<path stroke="red" d="M655 704l0 -98M655 704l1 -98M656 704l0 -99M656 704l1 -99M657 704l0 -99M658 704l0 -100M659 704l0 -100M659 704l1 -100M660 704l0 -100M661 704l0 -101M662 704l0 -101M662 704l1 -101M663 704l0 -101M664 704l0 -101M665 704l0 -101"/>
<path stroke="red" d="M665 704l1 -101M666 704l0 -102M667 704l0 -102M668 704l0 -102M668 704l1 -102M669 704l0 -102M669 704l1 -102M670 704l0 -102M671 704l0 -102M671 704l1 -102M672 704l0 -102M672 704l1 -102M673 704l0 -102M674 704l0 -102M674 704l1 -102"/>
<path stroke="red" d="M675 704l0 -102M675 704l1 -102M676 704l0 -102M677 704l0 -102M677 704l1 -102M678 704l0 -102M678 704l1 -102M679 704l0 -102M680 704l0 -102M681 704l0 -102M681 704l1 -102M682 704l0 -102M683 704l0 -101M684 704l0 -101M684 704l1 -101"/>
<path stroke="red" d="M685 704l0 -101M686 704l0 -101M687 704l0 -101M687 704l1 -101M688 704l0 -101M689 704l0 -101M690 704l0 -101M690 704l1 -101M691 704l0 -101M691 704l1 -101M692 704l0 -101M693 704l0 -100M693 704l1 -100M694 704l0 -100M694 704l1 -100"/>
<path stroke="red" d="M695 704l0 -100M696 704l0 -100M696 704l1 -100M697 704l0 -100M697 704l1 -100M698 704l0 -100M699 704l0 -100M699 704l1 -100M700 704l0 -100M700 704l1 -99M701 704l0 -99M702 704l0 -99M703 704l0 -99M703 704l1 -99M704 704l0 -99"/>
<path stroke="red" d="M705 704l0 -99M706 704l0 -99M706 704l1 -99M707 704l0 -99M708 704l0 -98M709 704l0 -98M709 704l1 -98M710 704l0 -98M711 704l0 -98M712 704l0 -98M712 704l1 -98M713 704l0 -98M713 704l1 -98M714 704l0 -98M715 704l0 -97M715 704l1 -97"/>
<path stroke="red" d="M716 704l0 -97M716 704l1 -97M717 704l0 -97M718 704l0 -97M718 704l1 -97M719 704l0 -97M719 704l1 -97M720 704l0 -97M721 704l0 -97M721 704l1 -96M722 704l0 -96M722 704l1 -96M723 704l0 -96M724 704l0 -96M725 704l0 -96M725 704l1 -96"/>
<path stroke="red" d="M726 704l0 -96M727 704l0 -96M728 704l0 -96M728 704l1 -96M729 704l0 -96M730 704l0 -95M731 704l0 -95M731 704l1 -95M732 704l0 -95M733 704l0 -95M734 704l0 -95M734 704l1 -95M735 704l0 -95M735 704l1 -95M736 704l0 -95M737 704l0 -95"/>
<path stroke="red" d="M737 704l1 -94M738 704l0 -94M738 704l1 -94M739 704l0 -94M740 704l0 -94M740 704l1 -94M741 704l0 -94M741 704l1 -94M742 704l0 -94M743 704l0 -94M743 704l1 -94M744 704l0 -94M744 704l1 -94M745 704l0 -94M746 704l0 -94M747 704l0 -93"/>
<path stroke="red" d="M747 704l1 -93M748 704l0 -93M749 704l0 -93M750 704l0 -93M750 704l1 -93M751 704l0 -93M752 704l0 -93M753 704l0 -93M753 704l1 -93M754 704l0 -93M755 704l0 -93M756 704l0 -92M756 704l1 -92M757 704l0 -92M757 704l1 -92M758 704l0 -92"/>
<path stroke="red" d="M759 704l0 -92M759 704l1 -92M760 704l0 -92M760 704l1 -92M761 704l0 -92M762 704l0 -92M762 704l1 -92M763 704l0 -92M763 704l1 -92M764 704l0 -92M765 704l0 -92M765 704l1 -91M766 704l0 -91M766 704l1 -91M767 704l0 -91M768 704l0 -91"/>
<path stroke="red" d="M769 704l0 -91M769 704l1 -91M770 704l0 -91M771 704l0 -91M772 704l0 -91M772 704l1 -91M773 704l0 -91M774 704l0 -91M775 704l0 -91M775 704l1 -91M776 704l0 -91M777 704l0 -90M778 704l0 -90M778 704l1 -90M779 704l0 -90M779 704l1 -90"/>
<path stroke="red" d="M780 704l0 -90M781 704l0 -90M781 704l1 -90M782 704l0 -90M782 704l1 -90M783 704l0 -640M784 704l0 -640M785 704l0 -640M786 704l0 -640M787 704l0 -640M788 704l0 -640M789 704l0 -640M790 704l0 -640M791 704l0 -640M792 704l0 -640"/>
<path stroke="red" d="M793 704l0 -640M794 704l0 -640M795 704l0 -640M796 704l0 -640M797 704l0 -640M798 704l0 -640M799 704l0 -640M800 704l0 -640M800 704l1 -628M801 704l0 -628M801 704l1 -565M802 704l0 -565M803 704l0 -509M803 704l1 -468M804 704l0 -468"/>
<path stroke="red" d="M804 704l1 -424M805 704l0 -424M806 704l0 -386M806 704l1 -357M807 704l0 -357M807 704l1 -325M808 704l0 -325M809 704l0 -297M809 704l1 -276M810 704l0 -276M810 704l1 -254M811 704l0 -254M812 704l0 -233M813 704l0 -214M813 704l1 -200"/>
<path stroke="red" d="M814 704l0 -200M815 704l0 -185M816 704l0 -171M816 704l1 -160M817 704l0 -160M818 704l0 -148M819 704l0 -138M819 704l1 -129M820 704l0 -129M821 704l0 -120M822 704l0 -112M822 704l1 -105M823 704l0 -105M823 704l1 -98M824 704l0 -98"/>
<path stroke="red" d="M825 704l0 -92M825 704l1 -87M826 704l0 -87M826 704l1 -81M827 704l0 -81M828 704l0 -76M828 704l1 -72M829 704l0 -72M829 704l1 -67M830 704l0 -67M831 704l0 -63M831 704l1 -60M832 704l0 -60M832 704l1 -56M833 704l0 -56M834 704l0 -53"/>
<path stroke="red" d="M835 704l0 -50M835 704l1 -48M836 704l0 -48M837 704l0 -45M838 704l0 -43M838 704l1 -41M839 704l0 -41M840 704l0 -39M841 704l0 -37M841 704l1 -35M842 704l0 -35M843 704l0 -33M844 704l0 -32M844 704l1 -30M845 704l0 -30M845 704l1 -29"/>
<path stroke="red" d="M846 704l0 -29M847 704l0 -28M847 704l1 -27M848 704l0 -27M848 704l1 -25M849 704l0 -25M850 704l0 -24M850 704l1 -23M851 704l0 -23M851 704l1 -22M852 704l0 -22M853 704l0 -21M853 704l1 -21M854 704l0 -21M854 704l1 -20M855 704l0 -20"/>
<path stroke="red" d="M856 704l0 -19M857 704l0 -18M857 704l1 -18M858 704l0 -18M859 704l0 -17M860 704l0 -16M860 704l1 -16M861 704l0 -16M862 704l0 -15M863 704l0 -15M863 704l1 -14M864 704l0 -14M865 704l0 -14M866 704l0 -13M866 704l1 -13M867 704l0 -13"/>
<path stroke="red" d="M867 704l1 -13M868 704l0 -13M869 704l0 -12M869 704l1 -12M870 704l0 -12M870 704l1 -11M871 704l0 -11M872 704l0 -11M872 704l1 -11M873 704l0 -11M873 704l1 -11M874 704l0 -11M875 704l0 -10M875 704l1 -10M876 704l0 -10M876 704l1 -10"/>
<path stroke="red" d="M877 704l0 -10M878 704l0 -9M879 704l0 -9M879 704l1 -9M880 704l0 -9M881 704l0 -9M882 704l0 -9M882 704l1 -8M883 704l0 -8M884 704l0 -8M885 704l0 -8M885 704l1 -8M886 704l0 -8M887 704l0 -8M888 704l0 -7M888 704l1 -7M889 704l0 -7"/>
<path stroke="red" d="M889 704l1 -7M890 704l0 -7M891 704l0 -7M891 704l1 -7M892 704l0 -7M892 704l1 -7M893 704l0 -7M894 704l0 -7M894 704l1 -6M895 704l0 -6M895 704l1 -6M896 704l0 -6M897 704l0 -6M897 704l1 -6M898 704l0 -6M898 704l1 -6M899 704l0 -6"/>
<path stroke="red" d="M900 704l0 -6M901 704l0 -6M901 704l1 -6M902 704l0 -6M903 704l0 -6M904 704l0 -5M904 704l1 -5M905 704l0 -5M906 704l0 -5M907 704l0 -5M907 704l1 -5M908 704l0 -5M909 704l0 -5M910 704l0 -5M910 704l1 -5M911 704l0 -5M911 704l1 -5"/>
<path stroke="red" d="M912 704l0 -5M913 704l0 -5M913 704l1 -5M914 704l0 -5M914 704l1 -5M915 704l0 -5 1 5 0 -5M916 704l1 -4M917 704l0 -4M917 704l1 -4M918 704l0 -4 1 4 0 -4M919 704l1 -4M920 704l0 -4M920 704l1 -4M921 704l0 -4 1 4 0 -4 1 4 0 -4M923 704l1 -4"/>
<path stroke="red" d="M924 704l0 -4 1 4 0 -4 1 4 0 -4M926 704l1 -4M927 704l0 -4 1 4 0 -4 1 4 0 -4M929 704l1 -4M930 704l0 -4 1 4 0 -4 1 4 0 -4M932 704l1 -4M933 704l0 -4M933 704l1 -4M934 704l0 -4 1 4 0 -4M935 704l1 -4M936 704l0 -4M936 703l1 -3"/>
<path stroke="red" d="M937 703l0 -3 1 3 0 -3M938 703l1 -3M939 703l0 -3M939 703l1 -3M940 703l0 -3M940 701l1 2 0 -2M941 703l1 -2M942 703l0 -2M942 703l1 -2M943 703l0 -2 1 2 0 -2 1 2 0 -2M945 703l1 -2M946 703l0 -2 1 2 0 -2 1 2 0 -2M948 703l1 -2M949 703l0 -2"/>
<path stroke="red" d="M949 701l1 2 0 -2"/>
</svg>
