<?xml version="1.0" standalone="yes"?>
<!DOCTYPE svg PUBLIC "-//W3C//DTD SVG 1.1//EN"
 "http://www.w3.org/Graphics/SVG/1.1/DTD/svg11.dtd">
<svg xmlns="http://www.w3.org/2000/svg" version="1.1"
  width="100%" height="100%" viewBox="0 0 1024 768"
  style="fill: none; stroke-width: 3; font-family: Helvetica;
 font: Helvetica;
">

<!-- Creator: NGspice -->

<rect x="0" y="0" width="1024" height="768" fill="white" stroke="none"/>
<text stroke="none" fill="black" font-size="16" x="358" y="752">
time
</text>
<text stroke="none" fill="black" font-size="16" x="10" y="16">
tran1: Transient: Logic Inputs
</text>
<path stroke="black" stroke-width="3" d="M50 704l0 -639"/>
<text stroke="none" fill="black" font-size="16" x="35" y="728">
0.0
</text>
<path stroke="black" stroke-width="3" stroke-dasharray="1,2" d="M142 704l0 -639"/>
<text stroke="none" fill="black" font-size="16" x="122" y="728">
10.0
</text>
<path stroke="black" stroke-width="3" stroke-dasharray="1,2" d="M234 704l0 -639"/>
<text stroke="none" fill="black" font-size="16" x="214" y="728">
20.0
</text>
<path stroke="black" stroke-width="3" stroke-dasharray="1,2" d="M326 704l0 -639"/>
<text stroke="none" fill="black" font-size="16" x="306" y="728">
30.0
</text>
<path stroke="black" stroke-width="3" stroke-dasharray="1,2" d="M418 704l0 -639"/>
<text stroke="none" fill="black" font-size="16" x="398" y="728">
40.0
</text>
<path stroke="black" stroke-width="3" stroke-dasharray="1,2" d="M510 704l0 -639"/>
<text stroke="none" fill="black" font-size="16" x="490" y="728">
50.0
</text>
<path stroke="black" stroke-width="3" stroke-dasharray="1,2" d="M602 704l0 -639"/>
<text stroke="none" fill="black" font-size="16" x="582" y="728">
60.0
</text>
<path stroke="black" stroke-width="3" stroke-dasharray="1,2" d="M694 704l0 -639"/>
<text stroke="none" fill="black" font-size="16" x="674" y="728">
70.0
</text>
<path stroke="black" stroke-width="3" stroke-dasharray="1,2" d="M786 704l0 -639"/>
<text stroke="none" fill="black" font-size="16" x="766" y="728">
80.0
</text>
<path stroke="black" stroke-width="3" stroke-dasharray="1,2" d="M878 704l0 -639"/>
<text stroke="none" fill="black" font-size="16" x="858" y="728">
90.0
</text>
<path stroke="black" stroke-width="3" stroke-dasharray="1,2" d="M970 704l0 -639"/>
<text stroke="none" fill="black" font-size="16" x="945" y="728">
100.0
</text>
<text stroke="none" fill="black" font-size="16" x="614" y="752">
ns
</text>
<path stroke="black" stroke-width="3" d="M50 704l920 0"/>
<text stroke="none" fill="black" font-size="16" x="18" y="712">
0.0
</text>
<path stroke="black" stroke-width="3" stroke-dasharray="1,2" d="M50 633l920 0"/>
<text stroke="none" fill="black" font-size="16" x="18" y="641">
0.2
</text>
<path stroke="black" stroke-width="3" stroke-dasharray="1,2" d="M50 562l920 0"/>
<text stroke="none" fill="black" font-size="16" x="18" y="570">
0.4
</text>
<path stroke="black" stroke-width="3" stroke-dasharray="1,2" d="M50 491l920 0"/>
<text stroke="none" fill="black" font-size="16" x="18" y="499">
0.6
</text>
<path stroke="black" stroke-width="3" stroke-dasharray="1,2" d="M50 420l920 0"/>
<text stroke="none" fill="black" font-size="16" x="18" y="428">
0.8
</text>
<path stroke="black" stroke-width="3" stroke-dasharray="1,2" d="M50 349l920 0"/>
<text stroke="none" fill="black" font-size="16" x="18" y="357">
1.0
</text>
<path stroke="black" stroke-width="3" stroke-dasharray="1,2" d="M50 278l920 0"/>
<text stroke="none" fill="black" font-size="16" x="18" y="286">
1.2
</text>
<path stroke="black" stroke-width="3" stroke-dasharray="1,2" d="M50 207l920 0"/>
<text stroke="none" fill="black" font-size="16" x="18" y="215">
1.4
</text>
<path stroke="black" stroke-width="3" stroke-dasharray="1,2" d="M50 136l920 0"/>
<text stroke="none" fill="black" font-size="16" x="18" y="144">
1.6
</text>
<path stroke="black" stroke-width="3" stroke-dasharray="1,2" d="M50 65l920 0"/>
<text stroke="none" fill="black" font-size="16" x="18" y="73">
1.8
</text>
<text stroke="none" fill="black" font-size="16" x="10" y="32">
V
</text>
<path stroke="red" d="M460 23l46 0"/>
<text stroke="none" fill="black" font-size="16" x="516" y="32">
v(in_a)
</text>
<path stroke="red" d="M50 704l9 0 0 -160 1 -64 0 -415 175 0M235 416l0 -351M235 416l1 64M236 704l0 -224M236 704l191 0 0 -160 1 -64 0 -415 175 0M603 416l0 -351M603 416l1 64M604 704l0 -224M604 704l191 0 0 -160 1 -64 0 -415 174 0"/>
</svg>
