<?xml version="1.0" standalone="yes"?>
<!DOCTYPE svg PUBLIC "-//W3C//DTD SVG 1.1//EN"
 "http://www.w3.org/Graphics/SVG/1.1/DTD/svg11.dtd">
<svg xmlns="http://www.w3.org/2000/svg" version="1.1"
  width="100%" height="100%" viewBox="0 0 1024 768"
  style="fill: none; stroke-width: 3; font-family: Helvetica;
 font: Helvetica;
">

<!-- Creator: NGspice -->

<rect x="0" y="0" width="1024" height="768" fill="white" stroke="none"/>
<text stroke="none" fill="black" font-size="16" x="358" y="752">
time
</text>
<text stroke="none" fill="black" font-size="16" x="10" y="16">
tran1: Total Supply Current
</text>
<path stroke="black" stroke-width="3" d="M70 704l0 -640"/>
<text stroke="none" fill="black" font-size="16" x="55" y="728">
0.0
</text>
<path stroke="black" stroke-width="3" stroke-dasharray="1,2" d="M217 704l0 -640"/>
<text stroke="none" fill="black" font-size="16" x="202" y="728">
0.5
</text>
<path stroke="black" stroke-width="3" stroke-dasharray="1,2" d="M364 704l0 -640"/>
<text stroke="none" fill="black" font-size="16" x="349" y="728">
1.0
</text>
<path stroke="black" stroke-width="3" stroke-dasharray="1,2" d="M511 704l0 -640"/>
<text stroke="none" fill="black" font-size="16" x="496" y="728">
1.5
</text>
<path stroke="black" stroke-width="3" stroke-dasharray="1,2" d="M658 704l0 -640"/>
<text stroke="none" fill="black" font-size="16" x="643" y="728">
2.0
</text>
<path stroke="black" stroke-width="3" stroke-dasharray="1,2" d="M805 704l0 -640"/>
<text stroke="none" fill="black" font-size="16" x="790" y="728">
2.5
</text>
<path stroke="black" stroke-width="3" stroke-dasharray="1,2" d="M952 704l0 -640"/>
<text stroke="none" fill="black" font-size="16" x="937" y="728">
3.0
</text>
<text stroke="none" fill="black" font-size="16" x="614" y="752">
us
</text>
<path stroke="black" stroke-width="3" stroke-dasharray="1,2" d="M70 704l882 0"/>
<text stroke="none" fill="black" font-size="16" x="8" y="712">
-300.0
</text>
<path stroke="black" stroke-width="3" stroke-dasharray="1,2" d="M70 624l882 0"/>
<text stroke="none" fill="black" font-size="16" x="8" y="632">
-200.0
</text>
<path stroke="black" stroke-width="3" stroke-dasharray="1,2" d="M70 544l882 0"/>
<text stroke="none" fill="black" font-size="16" x="8" y="552">
-100.0
</text>
<path stroke="black" stroke-width="3" d="M70 464l882 0"/>
<text stroke="none" fill="black" font-size="16" x="38" y="472">
0.0
</text>
<path stroke="black" stroke-width="3" stroke-dasharray="1,2" d="M70 384l882 0"/>
<text stroke="none" fill="black" font-size="16" x="18" y="392">
100.0
</text>
<path stroke="black" stroke-width="3" stroke-dasharray="1,2" d="M70 304l882 0"/>
<text stroke="none" fill="black" font-size="16" x="18" y="312">
200.0
</text>
<path stroke="black" stroke-width="3" stroke-dasharray="1,2" d="M70 224l882 0"/>
<text stroke="none" fill="black" font-size="16" x="18" y="232">
300.0
</text>
<path stroke="black" stroke-width="3" stroke-dasharray="1,2" d="M70 144l882 0"/>
<text stroke="none" fill="black" font-size="16" x="18" y="152">
400.0
</text>
<path stroke="black" stroke-width="3" stroke-dasharray="1,2" d="M70 64l882 0"/>
<text stroke="none" fill="black" font-size="16" x="18" y="72">
500.0
</text>
<text stroke="none" fill="black" font-size="16" x="10" y="32">
uA
</text>
<path stroke="red" d="M441 23l44 0"/>
<text stroke="none" fill="black" font-size="16" x="495" y="32">
-i(v_supply)
</text>
<path stroke="red" d="M70 703l0 -241M70 474l1 0M71 577l0 -408M71 461l1 -11M72 577l0 -432M72 464l1 0M73 520l0 -223M73 464l1 0M74 485l0 -287M74 354l1 2M75 487l0 -152M75 457l1 14M76 678l0 -408 1 -22M77 555l0 -320M77 381l1 107 0 -74M78 453l1 22M79 535l0 -246"/>
<path stroke="red" d="M79 464l1 0M80 497l0 -329M80 495l1 -62M81 495l0 -62M81 462l1 4M82 704l0 -478M82 464l1 0M83 570l0 -353M83 486l1 -44M84 485l0 -43M84 460l1 8M85 520l0 -224M85 463l1 2M86 555l0 -355M86 411l1 106 0 -105M87 439l1 49M88 679l0 -462"/>
<path stroke="red" d="M88 464l1 0M89 573l0 -228M89 508l1 -87M90 507l0 -86M90 488l1 -48M91 522l0 -232M91 464l1 0M92 493l0 -333M92 461l1 5M93 477l0 -26M93 477l1 -26M94 704l0 -511M94 456l1 -107M95 539l0 -308M95 431l1 66 0 -66M96 453l1 21M97 520l0 -223"/>
<path stroke="red" d="M97 464l1 0M98 510l0 -312M98 500l1 -72M99 500l0 -72M99 489l1 -50M100 678l0 -442M100 464l1 0M101 556l0 -337M101 435l1 58 0 -58M102 445l1 38M103 535l0 -246M103 464l1 0M104 544l0 -376M104 492l1 -56M105 492l0 -56M105 483l1 -38"/>
<path stroke="red" d="M106 703l0 -476M106 464l1 0M107 518l0 -329M107 504l1 -80M108 503l0 -79M108 495l1 -62M109 520l0 -224M109 463l1 2M110 573l0 -373M110 475l1 -22M111 679l0 -281 1 -77M112 525l0 -343M112 464l1 0M113 573l0 -182M113 453l1 22M114 522l0 -232"/>
<path stroke="red" d="M114 474l1 -1 0 -9 1 0M116 507l0 -351M116 492l1 -56M117 703l0 -267M117 444l1 -26M118 577l0 -404M118 418l1 92M119 569l0 -358M119 486l1 -44M120 520l0 -223M120 464l1 0 0 -155 1 -50M122 542l0 -344M122 473l1 -18M123 678l0 -435"/>
<path stroke="red" d="M123 446l1 36M124 555l0 -320M124 395l1 9M125 546l0 -214M125 458l1 12M126 535l0 -246M126 464l1 0M127 492l0 -324M127 482l1 -35M128 484l0 -40M128 484l1 -40M129 703l0 -477M129 347l1 122M130 570l0 -351M130 419l1 90 0 -89M131 452l1 23"/>
<path stroke="red" d="M132 520l0 -224M132 465l1 -2M133 556l0 -356M133 476l1 -24M134 476l0 -24M134 456l1 16M135 680l0 -455M135 464l1 0M136 573l0 -321M136 453l1 22 0 -22M137 462l1 4M138 522l0 -232M138 464l1 0M139 563l0 -403M139 496l1 -64M140 495l0 -63"/>
<path stroke="red" d="M140 469l1 -10M141 704l0 -511M141 482l1 -16M142 554l0 -313M142 496l1 -63M143 495l0 -62M143 481l1 -34M144 520l0 -223M144 464l1 0M145 491l0 -298M145 468l1 -8M146 478l0 -28M146 478l1 -28M147 678l0 -442M147 464l1 0M148 556l0 -375"/>
<path stroke="red" d="M148 445l1 38M149 486l0 -44 1 44M150 535l0 -246M150 464l1 0M151 556l0 -388M151 490l1 -52M152 490l0 -52M152 483l1 -38M153 703l0 -527M153 464l1 0M154 488l0 -324M154 452l1 24 0 -24M155 456l1 16M156 520l0 -224M156 465l1 -2M157 573l0 -373"/>
<path stroke="red" d="M157 440l1 48M158 524l0 -84M158 524l1 3M159 679l0 -523M159 464l1 0M160 573l0 -191M160 463l1 2M161 522l0 -232M161 495l1 -8 0 -23 1 0M163 490l0 -335M163 455l1 18M164 703l0 -248M164 508l1 5M165 577l0 -409M165 463l1 2M166 577l0 -391"/>
<path stroke="red" d="M166 464l1 0M167 520l0 -223M167 464l2 0M169 506l0 -308M169 448l1 32M170 678l0 -340M170 468l1 -8M171 490l0 -255M171 490l1 65 0 -354M172 476l1 -24M173 535l0 -246M173 464l1 0M174 479l0 -311M174 477l1 75 0 -119M175 445l1 38"/>
<path stroke="red" d="M176 703l0 -496M176 494l1 -109M177 569l0 -352M177 529l1 -130M178 528l0 -129M178 485l1 -42M179 520l0 -224M179 464l1 0M180 555l0 -355M180 493l1 -58M181 493l0 -58M181 473l1 -18M182 679l0 -476M182 464l1 0M183 581l0 -193M183 472l1 -16"/>
<path stroke="red" d="M184 472l0 -16M184 463l1 2M185 522l0 -232M185 464l1 0M186 509l0 -349M186 432l1 63 0 -62M187 454l1 20M188 704l0 -511M188 559l1 -10M189 572l0 -340M189 404l1 120 0 -120M190 432l1 64M191 520l0 -223M191 464l1 0M192 562l0 -364"/>
<path stroke="red" d="M192 477l1 -26M193 477l0 -26M193 477l1 -26M194 678l0 -478M194 464l1 0M195 577l0 -356M195 464l1 0M196 470l0 -12M196 470l1 -12M197 535l0 -246M197 464l1 0M198 546l0 -378M198 408l1 112 0 -112M199 428l1 72M200 703l0 -478M200 464l1 0"/>
<path stroke="red" d="M201 542l0 -352M201 499l1 -70M202 499l0 -70M202 489l1 -50M203 520l0 -224M203 463l1 2M204 573l0 -373M204 498l1 -68M205 498l0 -68M205 488l1 -48M206 680l0 -498M206 464l1 0M207 573l0 -331M207 460l1 8M208 522l0 -89 1 -69M209 511l0 -221"/>
<path stroke="red" d="M209 464l1 0M210 535l0 -379M210 439l1 50M211 704l0 -265M211 519l1 -19M212 577l0 -404M212 470l1 -12M213 571l0 -403M213 444l1 40M214 520l0 -223M214 464l2 0M216 556l0 -358M216 468l1 -8M217 678l0 -498M217 470l1 -12M218 487l0 -252"/>
<path stroke="red" d="M218 412l1 0M219 561l0 -176M219 463l1 2M220 535l0 -246M220 464l1 0M221 476l0 -308M221 476l1 -2M222 505l0 -320M222 491l1 -54M223 703l0 -374M223 330l1 -1M224 585l0 -398M224 517l1 -13M225 526l0 -115M225 470l1 -12M226 520l0 -224"/>
<path stroke="red" d="M226 464l1 0M227 556l0 -374M227 418l1 91 0 -90M228 442l1 44M229 679l0 -454M229 464l1 0M230 573l0 -381M230 408l1 112 0 -111M231 445l1 38M232 522l0 -232M232 464l1 0M233 580l0 -420M233 477l1 -25M234 476l0 -24M234 457l1 14M235 704l0 -511"/>
<path stroke="red" d="M235 460l1 10M236 577l0 -404M236 486l1 -41M237 485l0 -40M237 476l1 -24M238 520l0 -223M238 464l1 0M239 497l0 -330M239 488l1 -47M240 487l0 -46M240 473l1 -18M241 678l0 -439M241 464l1 0M242 556l0 -392M242 422l1 84 0 -84M243 445l1 38"/>
<path stroke="red" d="M244 535l0 -246M244 464l1 0M245 556l0 -388M245 477l1 -26M246 479l0 -30M246 479l1 -30M247 703l0 -520M247 465l1 1M248 500l0 -337M248 479l1 -30M249 479l0 -30M249 477l1 -26M250 520l0 -224M250 465l1 -2M251 573l0 -373M251 459l1 10"/>
<path stroke="red" d="M252 470l0 -12 1 12M253 679l0 -524M253 464l1 0M254 573l0 -170M254 463l1 3 0 -3M255 464l1 0M256 522l0 -232M256 464l1 0M257 514l0 -359M257 438l1 52M258 703l0 -265M258 527l1 39M259 577l0 -413M259 539l1 -149M260 578l0 -442M260 464l1 0"/>
<path stroke="red" d="M261 520l0 -223M261 464l2 0M263 562l0 -364M263 481l1 -34M264 678l0 -417M264 466l1 -5M265 486l0 -251M265 464l1 0M266 563l0 -226M266 445l1 38M267 535l0 -246M267 464l1 0 0 -182 1 -53M269 480l0 -312M269 475l1 -22M270 703l0 -358"/>
<path stroke="red" d="M270 448l1 32M271 570l0 -353M271 448l1 52M272 535l0 -179M272 473l1 -18M273 520l0 -224M273 464l1 0M274 555l0 -355M274 287l1 157M275 478l0 -34M275 478l1 -28M276 680l0 -463M276 464l1 0M277 573l0 -307M277 469l1 -5M278 473l0 -18"/>
<path stroke="red" d="M278 455l1 18M279 522l0 -232M279 464l1 0M280 532l0 -372M280 476l1 -24M281 477l0 -26M281 477l1 -26M282 703l0 -510M282 440l1 48M283 577l0 -346M283 478l1 -28M284 478l0 -28M284 472l1 -16M285 520l0 -223M285 464l1 0M286 495l0 -297"/>
<path stroke="red" d="M286 463l1 2M287 479l0 -30 1 30M288 678l0 -442M288 464l1 0M289 556l0 -337M289 457l1 14M290 472l0 -16M290 472l1 -16M291 535l0 -246M291 464l1 0M292 544l0 -376M292 452l1 24M293 480l0 -32 1 32M294 703l0 -476M294 465l1 -1M295 492l0 -303"/>
<path stroke="red" d="M295 484l1 -41M296 491l0 -54M296 491l1 -54M297 520l0 -224M297 463l1 2M298 580l0 -380M298 468l1 -8M299 473l0 -18 1 18M300 679l0 -497M300 464l1 0M301 573l0 -170M301 462l1 4 0 -4 1 4M303 522l0 -232M303 464l1 0M304 485l0 -329"/>
<path stroke="red" d="M304 450l1 28M305 524l0 -80M305 524l1 3M306 703l0 -530M306 461l1 6M307 570l0 -346M307 450l1 28M308 520l0 -223M308 454l1 -19M309 464l0 -29M309 464l1 0M310 543l0 -345M310 455l1 18M311 678l0 -433M311 467l1 33M312 547l0 -312"/>
<path stroke="red" d="M312 464l1 0M313 555l0 -305M313 453l1 22M314 535l0 -246M314 464l2 0M316 549l0 -381M316 451l1 26M317 704l0 -419M317 456l1 16M318 570l0 -344M318 433l1 -92M319 571l0 -352M319 462l1 4M320 520l0 -224M320 464l1 0M321 556l0 -356"/>
<path stroke="red" d="M321 307l1 3M322 573l0 -352M322 466l1 -4M323 679l0 -454M323 463l1 1M324 573l0 -307M324 497l1 -10M325 564l0 -112M325 466l1 -4M326 522l0 -232M326 464l1 0M327 564l0 -404M327 463l1 2M328 469l0 -10M328 469l1 -10M329 703l0 -510"/>
<path stroke="red" d="M329 436l1 56M330 577l0 -336M330 459l1 11M331 471l0 -14 1 14M332 520l0 -223M332 464l1 0M333 545l0 -351M333 445l1 38 0 -38M334 450l1 28M335 678l0 -442M335 464l1 0M336 556l0 -375M336 483l1 -38M337 483l0 -38M337 483l1 -38M338 535l0 -246"/>
<path stroke="red" d="M338 464l1 0M339 556l0 -388M339 461l1 6M340 474l0 -20M340 474l1 -20M341 704l0 -528M341 467l1 0M342 553l0 -389M342 463l1 2M343 472l0 -16M343 472l1 -16M344 520l0 -224M344 463l1 2M345 573l0 -373M345 465l1 -2M346 475l0 -22M346 475l1 -22"/>
<path stroke="red" d="M347 679l0 -523M347 464l1 0M348 573l0 -303M348 454l1 20 0 -20M349 464l1 0M350 522l0 -232M350 464l1 0M351 555l0 -400M351 465l1 -2M352 471l0 -14M352 471l1 -14M353 703l0 -535M353 490l1 -34M354 577l0 -396M354 464l1 0M355 520l0 -91"/>
<path stroke="red" d="M355 429l1 -63M356 518l0 -221M356 464l1 0M357 507l0 -336M357 446l1 36M358 678l0 -340M358 340l1 53M359 585l0 -350M359 464l1 0M360 555l0 -384M360 484l1 -40M361 535l0 -246M361 464l2 0M363 572l0 -404M363 476l1 -24M364 703l0 -507"/>
<path stroke="red" d="M364 441l1 46M365 570l0 -344M365 412l1 0M366 501l0 -326M366 472l1 -16M367 520l0 -224M367 464l1 0M368 555l0 -355M368 555l1 -32M369 561l0 -176M369 469l1 -10M370 680l0 -484M370 269l1 -20M371 573l0 -328M371 388l1 38M372 600l0 -174"/>
<path stroke="red" d="M372 467l1 -6M373 522l0 -232M373 464l1 0M374 493l0 -333M374 441l1 46 0 -46M375 453l1 22M376 703l0 -528M376 503l1 -76M377 577l0 -424M377 467l1 -6M378 473l0 -18M378 473l1 -18M379 520l0 -223M379 464l1 0M380 579l0 -381M380 469l1 -10"/>
<path stroke="red" d="M381 473l0 -18 1 18M382 678l0 -499M382 464l1 0M383 595l0 -374M383 450l1 28 0 -28M384 468l1 -8M385 535l0 -246M385 464l1 0M386 546l0 -378M386 472l1 -16M387 484l0 -40M387 484l1 -40M388 704l0 -528M388 470l1 -1M389 561l0 -371"/>
<path stroke="red" d="M389 445l1 38M390 484l0 -40 1 40M391 520l0 -224M391 465l1 -2M392 573l0 -373M392 468l1 -8M393 477l0 -26 1 26M394 679l0 -497M394 464l1 0M395 573l0 -378M395 459l1 10M396 472l0 -16 1 16M397 522l0 -232M397 464l1 0M398 555l0 -399"/>
<path stroke="red" d="M398 453l1 22M399 477l0 -26 1 26M400 703l0 -530M400 299l1 -20M401 583l0 -417M401 491l1 -54M402 490l0 -53M402 477l1 -26M403 520l0 -223M403 464l1 0M404 556l0 -358M404 470l1 -12M405 678l0 -286 1 -54M406 490l0 -306M406 464l1 0"/>
<path stroke="red" d="M407 561l0 -176M407 455l1 18M408 535l0 -246M408 468l1 -2 0 -2 1 0M410 489l0 -321M410 440l1 48M411 703l0 -330M411 485l1 -29M412 570l0 -389M412 464l1 0M413 585l0 -366M413 463l1 2M414 520l0 -224M414 464l1 0M415 465l0 -156 1 -50"/>
<path stroke="red" d="M416 556l0 -393M416 470l1 -12M417 680l0 -455M417 453l1 28M418 573l0 -327M418 519l1 -13 0 -314M419 475l1 -22M420 522l0 -232M420 464l1 0M421 580l0 -420M421 462l1 15M422 507l0 -54M422 475l1 -22M423 703l0 -519M423 474l1 20M424 579l0 -395"/>
<path stroke="red" d="M424 468l1 40 0 -55M425 457l1 14M426 520l0 -223M426 464l1 0M427 497l0 -332M427 463l1 2M428 467l0 -6M428 467l1 -6M429 678l0 -435M429 464l1 0M430 556l0 -389M430 459l1 10 0 -10M431 469l1 -10M432 535l0 -246M432 464l1 0M433 556l0 -388"/>
<path stroke="red" d="M433 461l1 11M434 474l0 -20 1 20M435 703l0 -517M435 458l1 -5M436 495l0 -331M436 467l1 -5M437 470l0 -12 1 12M438 520l0 -224M438 463l1 2M439 573l0 -373M439 467l1 -1M440 469l0 -10M440 469l1 -10M441 679l0 -525M441 464l1 0M442 573l0 -170"/>
<path stroke="red" d="M442 467l1 4 0 -8 1 2M444 522l0 -232M444 464l1 0M445 469l0 -314M445 469l1 -10M446 477l0 -26M446 477l1 -26M447 704l0 -531M447 518l1 -6M448 577l0 -432M448 460l1 8M449 573l0 -113M449 464l1 0M450 520l0 -223M450 464l1 0M451 487l0 -289"/>
<path stroke="red" d="M451 459l1 10M452 524l0 -70M452 524l1 3M453 678l0 -443M453 464l1 0M454 555l0 -217M454 472l1 -16M455 535l0 -246M455 519l1 -12 0 -43 1 0M457 497l0 -329M457 459l1 9M458 704l0 -368 1 124M459 570l0 -344M459 464l1 0M460 500l0 -283"/>
<path stroke="red" d="M460 465l1 -2M461 520l0 -224M461 464l1 0M462 465l0 -2 1 2M463 555l0 -355M463 434l1 60M464 679l0 -462M464 497l1 -66M465 502l0 -257M465 502l1 71 0 -228M466 492l1 -56M467 522l0 -232M467 464l1 0M468 493l0 -333M468 374l1 84M469 475l0 -81"/>
<path stroke="red" d="M469 454l1 20M470 704l0 -511M470 252l1 47M471 576l0 -345M471 513l1 -94M472 512l0 -94M472 479l1 -30M473 520l0 -223M473 464l1 0M474 510l0 -312M474 507l1 -86M475 507l0 -86M475 491l1 -54M476 678l0 -442M476 464l1 0M477 556l0 -337"/>
<path stroke="red" d="M477 428l1 72 0 -72M478 443l1 42M479 535l0 -246M479 464l1 0M480 544l0 -376M480 498l1 -68M481 498l0 -68M481 485l1 -42M482 703l0 -476M482 555l1 -8M483 569l0 -380M483 418l1 92 0 -92M484 431l1 66M485 520l0 -224M485 465l1 -2"/>
<path stroke="red" d="M486 573l0 -373M486 457l1 14M487 478l0 -28 1 28M488 679l0 -497M488 464l1 0M489 573l0 -182M489 446l1 36 0 -36M490 462l1 4M491 522l0 -232M491 464l1 0M492 507l0 -351M492 496l1 -64M493 496l0 -64M493 488l1 -48M494 703l0 -530"/>
<path stroke="red" d="M494 493l1 -58M495 569l0 -358M495 492l1 -56M496 492l0 -56M496 479l1 -30M497 520l0 -223M497 464l1 0M498 542l0 -344M498 453l1 22 0 -22M499 458l1 12M500 678l0 -443M500 464l1 0M501 555l0 -223M501 473l1 -18M502 522l0 -90 1 -69"/>
<path stroke="red" d="M503 535l0 -246M503 464l1 0M504 492l0 -324M504 484l1 -40M505 703l0 -330 1 80M506 569l0 -343M506 464l1 0M507 570l0 -351M507 446l1 36M508 520l0 -224M508 464l1 0M509 465l0 -2M509 465l1 -2M510 556l0 -356M510 460l1 8M511 680l0 -455"/>
<path stroke="red" d="M511 479l1 -30M512 487l0 -242M512 412l1 0M513 573l0 -321M513 468l1 -8M514 522l0 -232M514 464l1 0 0 -304M515 238l1 44M516 563l0 -281M516 454l1 20M517 704l0 -460M517 328l1 1M518 576l0 -383M518 517l1 -51M519 516l0 -139M519 484l1 -40"/>
<path stroke="red" d="M520 520l0 -223M520 464l1 0M521 491l0 -298M521 462l1 4M522 476l0 -24M522 476l1 -24M523 678l0 -442M523 464l1 0M524 556l0 -375M524 448l1 32M525 486l0 -44 1 44M526 535l0 -246M526 464l1 0M527 556l0 -388M527 433l1 63 0 -63M528 444l1 40"/>
<path stroke="red" d="M529 703l0 -527M529 448l1 33M530 571l0 -407M530 478l1 -28M531 478l0 -28M531 473l1 -18M532 520l0 -224M532 463l1 2M533 573l0 -373M533 435l1 58 0 -57M534 446l1 36M535 679l0 -523M535 464l1 0M536 573l0 -191M536 461l1 9 0 -9M537 466l1 -4"/>
<path stroke="red" d="M538 522l0 -232M538 464l1 0M539 490l0 -335M539 454l1 20 0 -20M540 457l1 14M541 703l0 -535M541 485l1 -12M542 577l0 -391M542 464l2 0M544 520l0 -223M544 464l1 0M545 506l0 -308M545 486l1 -44M546 486l0 -44M546 473l1 -18M547 678l0 -443"/>
<path stroke="red" d="M547 464l1 0M548 555l0 -354M548 483l1 -38M549 482l0 -37M549 470l1 -12M550 535l0 -246M550 464l1 0M551 552l0 -384M551 445l1 38M552 703l0 -258M552 511l1 40M553 569l0 -362M553 464l1 0M554 530l0 -313M554 493l1 -58M555 520l0 -224"/>
<path stroke="red" d="M555 464l1 0M556 465l0 -2 1 2M557 555l0 -355M557 451l1 26M558 679l0 -476M558 496l1 -63M559 495l0 -250M559 464l1 0M560 581l0 -193M560 463l1 2M561 522l0 -232M561 464l1 0 0 -193 1 -56M563 509l0 -349M563 450l1 28M564 704l0 -312"/>
<path stroke="red" d="M564 444l1 40M565 576l0 -383M565 540l1 -9M566 545l0 -296M566 427l1 74M567 520l0 -223M567 464l1 0M568 562l0 -364M568 483l1 -3M569 495l0 -44M569 477l1 -26M570 678l0 -478M570 464l1 0M571 577l0 -356M571 469l1 -6M572 469l0 -10"/>
<path stroke="red" d="M572 459l1 10M573 535l0 -246M573 464l1 0M574 546l0 -378M574 536l1 -143M575 535l0 -142M575 504l1 -79M576 703l0 -478M576 505l1 -82M577 571l0 -381M577 507l1 -85M578 506l0 -84M578 491l1 -54M579 520l0 -224M579 463l1 2M580 573l0 -373"/>
<path stroke="red" d="M580 506l1 -84M581 506l0 -84M581 490l1 -52M582 680l0 -498M582 464l1 0M583 573l0 -331M583 461l1 6M584 468l0 -8M584 461l1 6M585 522l0 -232M585 464l1 0M586 535l0 -379M586 494l1 -60M587 494l0 -60M587 483l1 -38M588 704l0 -531"/>
<path stroke="red" d="M588 490l1 -41M589 571l0 -403M589 490l1 -52M590 490l0 -52M590 477l1 -26M591 520l0 -223M591 464l1 0M592 556l0 -358M592 469l1 -10M593 469l0 -10M593 467l1 -6M594 678l0 -498M594 464l1 0M595 561l0 -176M595 462l1 4 0 -4M596 464l1 0"/>
<path stroke="red" d="M597 535l0 -246M597 464l1 0M598 505l0 -337M598 494l1 -60M599 524l0 -90M599 524l1 3M600 703l0 -516M600 464l1 0M601 585l0 -366M601 453l1 22M602 520l0 -224M602 441l1 -23M603 465l0 -47M603 465l1 -2M604 556l0 -374M604 490l1 -52"/>
<path stroke="red" d="M605 679l0 -454M605 474l1 59 0 -288M606 464l1 0M607 573l0 -381M607 438l1 52M608 522l0 -232M608 465l1 -1M609 465l0 -1 1 0M610 580l0 -420M610 461l1 6M611 704l0 -508M611 483l1 -37M612 577l0 -404M612 429l1 -81M613 554l0 -206"/>
<path stroke="red" d="M613 477l1 -26M614 520l0 -223M614 464l1 0M615 485l0 -318M615 217l1 -44M616 497l0 -324M616 452l1 24M617 678l0 -439M617 465l1 1M618 556l0 -392M618 524l1 -120M619 524l0 -120M619 487l1 -46M620 535l0 -246M620 464l1 0M621 556l0 -388"/>
<path stroke="red" d="M621 499l1 -25M622 495l0 -46M622 479l1 -30M623 703l0 -520M623 441l1 -4M624 575l0 -412M624 481l1 -34M625 481l0 -34M625 477l1 -26M626 520l0 -224M626 465l1 -2M627 573l0 -373M627 471l1 7 0 -20 1 12M629 679l0 -524M629 464l1 0"/>
<path stroke="red" d="M630 573l0 -170M630 481l1 -5M631 480l0 -17M631 465l1 -2M632 522l0 -232M632 464l1 0M633 514l0 -359M633 494l1 -60M634 494l0 -60M634 486l1 -44M635 703l0 -539M635 494l1 -20M636 578l0 -442M636 442l1 44M637 501l0 -281M637 464l1 0"/>
<path stroke="red" d="M638 520l0 -223M638 464l1 0M639 562l0 -364M639 484l1 -40M640 484l0 -40M640 476l1 -24M641 678l0 -443M641 464l1 0M642 563l0 -226M642 441l1 46 0 -46M643 449l1 30M644 535l0 -246M644 464l1 0M645 480l0 -312M645 456l1 16M646 478l0 -28"/>
<path stroke="red" d="M646 450l1 29M647 703l0 -477M647 464l1 0M648 535l0 -318M648 455l1 18M649 520l0 -91 1 -64M650 519l0 -223M650 463l1 2M651 555l0 -355M651 478l1 -28M652 680l0 -463M652 458l1 -1M653 530l0 -285M653 464l1 0M654 573l0 -307M654 457l1 14"/>
<path stroke="red" d="M655 522l0 -232M655 466l1 0 0 -2 1 0M657 532l0 -372M657 477l1 -26M658 703l0 -421M658 484l1 -34M659 577l0 -384M659 412l1 0M660 549l0 -201M660 455l1 18M661 520l0 -223M661 464l1 0M662 485l0 -287M662 343l1 -1M663 495l0 -274"/>
<path stroke="red" d="M663 476l1 -24M664 678l0 -408 1 -23M665 556l0 -337M665 378l1 -21M666 480l0 -228M666 469l1 -10M667 535l0 -246M667 464l1 0M668 544l0 -376M668 454l1 21M669 479l0 -30 1 30M670 703l0 -476M670 506l1 -23M671 571l0 -382M671 481l1 -34"/>
<path stroke="red" d="M672 489l0 -50M672 489l1 -50M673 520l0 -224M673 463l1 2M674 580l0 -380M674 451l1 26 0 -25M675 471l1 -14M676 679l0 -497M676 464l1 0M677 573l0 -170M677 467l1 -5M678 467l0 -5M678 466l1 -4M679 522l0 -232M679 464l1 0M680 485l0 -329"/>
<path stroke="red" d="M680 453l1 22M681 483l0 -38 1 38M682 703l0 -530M682 474l1 -34M683 570l0 -346M683 450l1 28M684 479l0 -30 1 30M685 520l0 -223M685 464l1 0M686 543l0 -345M686 448l1 31 0 -30M687 462l1 4M688 678l0 -443M688 464l1 0M689 555l0 -305"/>
<path stroke="red" d="M689 480l1 -32M690 480l0 -32M690 468l1 -8M691 535l0 -246M691 464l1 0M692 549l0 -381M692 472l1 -16M693 483l0 -38M693 483l1 -38M694 704l0 -478M694 464l1 0M695 571l0 -352M695 462l1 4 0 -4 1 4M697 520l0 -224M697 463l1 2M698 573l0 -373"/>
<path stroke="red" d="M698 461l1 6M699 679l0 -282 1 -76M700 549l0 -324M700 464l1 0M701 573l0 -307M701 468l1 -8M702 522l0 -232M702 474l1 -2 0 -8 1 0M704 564l0 -404M704 460l1 8M705 703l0 -457M705 485l1 20M706 577l0 -384M706 464l1 0M707 554l0 -266"/>
<path stroke="red" d="M707 471l1 -14M708 520l0 -223M708 464l1 0 0 -155 1 -50M710 545l0 -351M710 449l1 30M711 678l0 -385M711 459l1 11M712 556l0 -320M712 383l1 -60M713 530l0 -349M713 483l1 -38M714 535l0 -246M714 464l1 0M715 556l0 -388M715 414l1 -13"/>
<path stroke="red" d="M716 483l0 -211M716 472l1 -16M717 704l0 -528M717 512l1 9M718 571l0 -407M718 471l1 -14M719 471l0 -14M719 458l1 12M720 520l0 -224M720 465l1 -2M721 573l0 -373M721 479l1 -12M722 477l0 -22 1 18M723 679l0 -523M723 464l1 0M724 573l0 -303"/>
<path stroke="red" d="M724 459l1 33 0 -40M725 462l1 4M726 522l0 -232M726 464l1 0M727 555l0 -400M727 461l1 6M728 469l0 -10M728 469l1 -10M729 703l0 -535M729 480l1 8M730 577l0 -396M730 464l2 0M732 520l0 -223M732 464l1 0M733 507l0 -336M733 489l1 -50"/>
<path stroke="red" d="M734 489l0 -50M734 473l1 -18M735 678l0 -443M735 464l1 0M736 555l0 -384M736 437l1 54 0 -54M737 453l1 22M738 535l0 -246M738 464l1 0M739 572l0 -404M739 475l1 -22M740 478l0 -28M740 478l1 -28M741 703l0 -507M741 464l1 0M742 501l0 -326"/>
<path stroke="red" d="M742 474l1 -20M743 474l0 -20M743 469l1 -9M744 520l0 -224M744 465l1 -2M745 561l0 -361M745 470l1 -12M746 524l0 -66M746 524l1 3M747 680l0 -484M747 464l1 0M748 600l0 -212M748 465l1 -2M749 522l0 -232M749 504l1 -7 0 -33 1 0M751 493l0 -333"/>
<path stroke="red" d="M751 478l1 -28M752 703l0 -291 1 -20M753 578l0 -403M753 464l1 0M754 540l0 -387M754 472l1 -16M755 520l0 -223M755 464l2 0M757 579l0 -381M757 458l1 12M758 678l0 -499M758 495l1 -62M759 495l0 -259M759 490l1 66M760 595l0 -374M760 464l1 0"/>
<path stroke="red" d="M761 535l0 -246M761 464l1 0M762 546l0 -378M762 384l1 8M763 481l0 -310M763 447l1 34M764 704l0 -477M764 487l1 8M765 571l0 -395M765 523l1 -47M766 509l0 -64M766 483l1 -38M767 520l0 -224M767 463l1 2M768 573l0 -373M768 481l1 -31"/>
<path stroke="red" d="M769 480l0 -30M769 454l1 20M770 679l0 -497M770 464l1 0M771 573l0 -378M771 465l1 6 0 -14 1 14M773 522l0 -232M773 464l1 0M774 555l0 -399M774 453l1 22M775 476l0 -24 1 24M776 703l0 -530M776 559l1 -10M777 583l0 -417M777 428l1 72"/>
<path stroke="red" d="M778 500l0 -72M778 448l1 32M779 520l0 -223M779 464l1 0M780 556l0 -358M780 456l1 16 0 -15M781 460l1 8M782 678l0 -494M782 464l1 0M783 561l0 -176M783 454l1 20 0 -20M784 457l1 14M785 535l0 -246M785 464l1 0M786 489l0 -321M786 440l1 48"/>
<path stroke="red" d="M787 488l0 -48 1 48M788 703l0 -522M788 464l1 0M789 585l0 -366M789 466l1 -4M790 470l0 -12 1 12M791 520l0 -224M791 463l1 2M792 556l0 -393M792 459l1 10M793 470l0 -12 1 12M794 680l0 -455M794 464l1 0M795 573l0 -381M795 452l1 24"/>
<path stroke="red" d="M796 522l0 -89 1 -69M797 518l0 -228M797 464l1 0M798 580l0 -420M798 472l1 -16M799 703l0 -253M799 511l1 -5M800 579l0 -395M800 464l1 0M801 554l0 -206M801 456l1 16M802 520l0 -223M802 464l1 1 0 -1 1 0M804 497l0 -332M804 466l1 -4"/>
<path stroke="red" d="M805 678l0 -341M805 472l1 39M806 512l0 -269M806 412l1 0M807 556l0 -389M807 462l1 5M808 535l0 -246M808 464l1 0M809 482l0 -314M809 482l1 -3M810 556l0 -101M810 473l1 -18M811 703l0 -517M811 330l1 -1M812 581l0 -417M812 173l1 95"/>
<path stroke="red" d="M813 471l0 -203M813 459l1 10M814 520l0 -224M814 464l1 0M815 573l0 -373M815 496l1 5 0 -43M816 468l1 -8M817 679l0 -525M817 464l1 0M818 573l0 -170M818 486l1 8M819 495l0 -38M819 463l1 2M820 522l0 -232M820 464l1 0M821 468l0 -313"/>
<path stroke="red" d="M821 464l1 0M822 475l0 -22 1 22M823 704l0 -531M823 433l1 61M824 577l0 -432M824 495l1 -4M825 573l0 -309M825 464l1 0M826 520l0 -223M826 464l1 0M827 487l0 -289M827 463l1 2M828 473l0 -18 1 18M829 678l0 -443M829 464l1 0M830 555l0 -217"/>
<path stroke="red" d="M830 468l1 -8M831 476l0 -24M831 476l1 -24M832 535l0 -246M832 464l1 0M833 497l0 -329M833 450l1 28 0 -28M834 471l1 -14M835 704l0 -478M835 464l1 0M836 500l0 -283M836 455l1 18 0 -17M837 471l1 -14M838 520l0 -224M838 465l1 -2"/>
<path stroke="red" d="M839 555l0 -355M839 502l1 -76M840 502l0 -76M840 485l1 -41M841 679l0 -462M841 464l1 0M842 573l0 -228M842 497l1 -66M843 497l0 -66M843 485l1 -42M844 522l0 -232M844 464l1 0M845 493l0 -333M845 459l1 10M846 704l0 -255M846 527l1 39"/>
<path stroke="red" d="M847 576l0 -383M847 464l1 0M848 539l0 -192M848 486l1 -43M849 520l0 -223M849 465l1 -1 1 0M851 510l0 -312M851 434l1 60M852 678l0 -341M852 509l1 -87M853 508l0 -272M853 464l1 0M854 556l0 -337M854 488l1 -48M855 535l0 -246M855 464l1 0"/>
<path stroke="red" d="M856 464l0 -182 1 -53M857 544l0 -376M857 488l1 -48M858 703l0 -453M858 456l1 16M859 571l0 -382 1 77M860 518l0 -252M860 429l1 70M861 520l0 -224M861 464l1 0M862 573l0 -373M862 403l1 32M863 505l0 -90M863 451l1 26M864 679l0 -497"/>
<path stroke="red" d="M864 464l1 0M865 573l0 -182M865 469l1 -65M866 509l0 -105M866 469l1 -10M867 522l0 -232M867 464l1 0M868 507l0 -351M868 425l1 78 0 -78M869 439l1 50M870 703l0 -530M870 420l1 88M871 577l0 -366M871 500l1 -72M872 500l0 -72M872 482l1 -36"/>
<path stroke="red" d="M873 520l0 -223M873 464l1 0M874 542l0 -344M874 449l1 30 0 -30M875 457l1 14M876 678l0 -443M876 464l1 0M877 555l0 -223M877 478l1 -28M878 478l0 -28M878 468l1 -8M879 535l0 -246M879 464l1 0M880 492l0 -324M880 444l1 40 0 -40M881 445l1 38"/>
<path stroke="red" d="M882 703l0 -477M882 464l1 0M883 570l0 -351M883 492l1 -55M884 491l0 -54M884 471l1 -14M885 520l0 -224M885 463l1 2M886 556l0 -356M886 466l1 -4M887 474l0 -20 1 20M888 680l0 -455M888 464l1 0M889 573l0 -321M889 471l1 -14M890 470l0 -13"/>
<path stroke="red" d="M890 464l1 0M891 522l0 -232M891 464l1 0M892 563l0 -403M892 446l1 36M893 524l0 -78M893 524l1 3M894 704l0 -511M894 464l1 0M895 554l0 -206M895 440l1 48M896 520l0 -223M896 455l1 -22M897 465l0 -32M897 464l1 0M898 491l0 -298M898 455l1 18"/>
<path stroke="red" d="M899 678l0 -341M899 491l1 23M900 518l0 -282M900 464l1 0M901 556l0 -375M901 443l1 42M902 535l0 -246M902 464l2 0M904 556l0 -388M904 442l1 44M905 703l0 -527M905 476l1 -24M906 581l0 -354M906 435l1 -93M907 488l0 -324M907 474l1 -20"/>
<path stroke="red" d="M908 520l0 -224M908 464l1 0M909 573l0 -373M909 503l1 -14M910 513l0 -137M910 484l1 -40M911 679l0 -523M911 463l1 1M912 573l0 -170M912 467l1 14M913 495l0 -113M913 463l1 2M914 522l0 -232M914 464l1 0M915 490l0 -335M915 453l1 22"/>
<path stroke="red" d="M916 475l0 -22M916 456l1 16M917 703l0 -535M917 445l1 38M918 577l0 -391M918 552l1 -5M919 570l0 -164M919 464l1 0M920 520l0 -223M920 464l1 0M921 506l0 -308M921 497l1 -65M922 496l0 -64M922 475l1 -22M923 678l0 -443M923 464l1 0"/>
<path stroke="red" d="M924 555l0 -354M924 435l1 58 0 -58M925 456l1 16M926 535l0 -246M926 464l1 0M927 552l0 -384M927 483l1 -38M928 483l0 -38M928 483l1 -38M929 703l0 -496M929 464l1 1M930 530l0 -313M930 506l1 -84M931 505l0 -83M931 480l1 -31M932 520l0 -224"/>
<path stroke="red" d="M932 463l1 2M933 555l0 -355M933 445l1 38 0 -38M934 458l1 12M935 679l0 -476M935 464l1 0M936 581l0 -193M936 460l1 7 0 -6M937 467l1 -6M938 522l0 -232M938 464l1 0M939 509l0 -349M939 485l1 -41M940 484l0 -40M940 471l1 -14M941 704l0 -511"/>
<path stroke="red" d="M941 465l1 -1M942 545l0 -296M942 510l1 -92M943 520l0 -102M943 429l1 -63M944 519l0 -222M944 464l1 0M945 562l0 -364M945 477l1 -26M946 678l0 -341M946 517l1 7M947 527l0 -327M947 464l1 0M948 577l0 -356M948 461l1 6M949 535l0 -246"/>
<path stroke="red" d="M949 464l2 0M951 546l0 -378M951 509l1 -90M952 509l0 -90"/>
</svg>
