<?xml version="1.0" standalone="yes"?>
<!DOCTYPE svg PUBLIC "-//W3C//DTD SVG 1.1//EN"
 "http://www.w3.org/Graphics/SVG/1.1/DTD/svg11.dtd">
<svg xmlns="http://www.w3.org/2000/svg" version="1.1"
  width="100%" height="100%" viewBox="0 0 1024 768"
  style="fill: none; stroke-width: 3; font-family: Helvetica;
 font: Helvetica;
">

<!-- Creator: NGspice -->

<rect x="0" y="0" width="1024" height="768" fill="white" stroke="none"/>
<text stroke="none" fill="black" font-size="16" x="358" y="752">
time
</text>
<text stroke="none" fill="black" font-size="16" x="10" y="16">
tran1: Cumulative Energy Consumption
</text>
<path stroke="black" stroke-width="3" d="M60 704l0 -640"/>
<text stroke="none" fill="black" font-size="16" x="45" y="728">
0.0
</text>
<path stroke="black" stroke-width="3" stroke-dasharray="1,2" d="M210 704l0 -640"/>
<text stroke="none" fill="black" font-size="16" x="195" y="728">
0.5
</text>
<path stroke="black" stroke-width="3" stroke-dasharray="1,2" d="M360 704l0 -640"/>
<text stroke="none" fill="black" font-size="16" x="345" y="728">
1.0
</text>
<path stroke="black" stroke-width="3" stroke-dasharray="1,2" d="M510 704l0 -640"/>
<text stroke="none" fill="black" font-size="16" x="495" y="728">
1.5
</text>
<path stroke="black" stroke-width="3" stroke-dasharray="1,2" d="M660 704l0 -640"/>
<text stroke="none" fill="black" font-size="16" x="645" y="728">
2.0
</text>
<path stroke="black" stroke-width="3" stroke-dasharray="1,2" d="M810 704l0 -640"/>
<text stroke="none" fill="black" font-size="16" x="795" y="728">
2.5
</text>
<path stroke="black" stroke-width="3" stroke-dasharray="1,2" d="M960 704l0 -640"/>
<text stroke="none" fill="black" font-size="16" x="945" y="728">
3.0
</text>
<text stroke="none" fill="black" font-size="16" x="614" y="752">
us
</text>
<path stroke="black" stroke-width="3" stroke-dasharray="1,2" d="M60 704l900 0"/>
<text stroke="none" fill="black" font-size="16" x="18" y="712">
-5.0
</text>
<path stroke="black" stroke-width="3" d="M60 624l900 0"/>
<text stroke="none" fill="black" font-size="16" x="28" y="632">
0.0
</text>
<path stroke="black" stroke-width="3" stroke-dasharray="1,2" d="M60 544l900 0"/>
<text stroke="none" fill="black" font-size="16" x="28" y="552">
5.0
</text>
<path stroke="black" stroke-width="3" stroke-dasharray="1,2" d="M60 464l900 0"/>
<text stroke="none" fill="black" font-size="16" x="18" y="472">
10.0
</text>
<path stroke="black" stroke-width="3" stroke-dasharray="1,2" d="M60 384l900 0"/>
<text stroke="none" fill="black" font-size="16" x="18" y="392">
15.0
</text>
<path stroke="black" stroke-width="3" stroke-dasharray="1,2" d="M60 304l900 0"/>
<text stroke="none" fill="black" font-size="16" x="18" y="312">
20.0
</text>
<path stroke="black" stroke-width="3" stroke-dasharray="1,2" d="M60 224l900 0"/>
<text stroke="none" fill="black" font-size="16" x="18" y="232">
25.0
</text>
<path stroke="black" stroke-width="3" stroke-dasharray="1,2" d="M60 144l900 0"/>
<text stroke="none" fill="black" font-size="16" x="18" y="152">
30.0
</text>
<path stroke="black" stroke-width="3" stroke-dasharray="1,2" d="M60 64l900 0"/>
<text stroke="none" fill="black" font-size="16" x="18" y="72">
35.0
</text>
<text stroke="none" fill="black" font-size="16" x="10" y="32">
p     
</text>
<path stroke="red" d="M450 23l45 0"/>
<text stroke="none" fill="black" font-size="16" x="505" y="32">
total_energy
</text>
<path stroke="red" d="M60 625l0 -1M60 625l1 0 0 -3 1 0M62 623l0 -2M62 622l3 0 0 -2 1 0M66 621l0 -1 1 0 0 -1 4 0 0 -2 1 0M72 618l0 -1 1 0 0 -1 1 0 0 -1 3 0 0 -1 1 0 0 -1 2 0 0 -1 3 0 0 -2 1 0M84 611l0 -1M84 611l1 0 0 -2 1 0 0 -1 3 0 0 -2 1 0M90 607l0 -1"/>
<path stroke="red" d="M90 606l2 0 0 -1 3 0 0 -1 1 0 0 -1 1 0 0 -1M97 603l1 0 0 -2 3 0 0 -1 1 0M102 601l0 -2 2 0 0 -1M104 599l3 0 0 -3 1 0M108 597l0 -1M108 597l1 0 0 -2 1 0 0 -1 3 0 0 -1 1 0 0 -1 1 0 0 -1 4 0 0 -2 1 0M120 590l0 -1M120 590l1 0"/>
<path stroke="red" d="M121 590l0 -2 1 0 0 -1 1 0M123 588l0 -1 2 0 0 -1 2 0 0 -1 2 0 0 -1M129 585l2 0 0 -2 1 0M132 584l0 -1 1 0 0 -2 4 0 0 -2 2 0 0 -1 1 0 0 -1 3 0 0 -1 1 0M144 577l0 -1 1 0 0 -1 1 0 0 -2 1 0M147 574l0 -1 3 0 0 -1 1 0 0 -1 1 0"/>
<path stroke="red" d="M152 572l0 -1M152 572l1 0 0 -1M153 572l2 0 0 -3 1 0M156 570l0 -1M156 570l1 0 0 -3 1 0M158 568l0 -2M158 567l3 0 0 -2 2 0 0 -1 1 0 0 -1 3 0 0 -1 1 0M168 563l0 -1 1 0 0 -1 1 0 0 -1 1 0 0 -1 3 0 0 -1 1 0 0 -1 2 0M177 558l0 -1"/>
<path stroke="red" d="M177 557l2 0 0 -2 1 0M180 556l0 -1M180 556l1 0 0 -2 1 0 0 -1 3 0 0 -2M185 552l1 0 0 -1 2 0 0 -1 3 0 0 -2 1 0M192 549l0 -1 1 0 0 -1M193 548l1 0 0 -2 3 0 0 -1 1 0M198 546l0 -2M198 545l1 0 0 -1 4 0 0 -2 1 0M204 543l0 -1 1 0"/>
<path stroke="red" d="M205 542l0 -2 1 0M206 541l0 -2 3 0 0 -1 1 0M210 539l0 -2 2 0 0 -1M212 537l3 0 0 -3 1 0M216 535l0 -1M216 535l1 0 0 -2M217 534l1 0 0 -1 3 0 0 -2 1 0M222 532l0 -1 2 0 0 -1 3 0 0 -2M227 529l1 0 0 -1 1 0 0 -2 2 0M231 527l0 -1"/>
<path stroke="red" d="M231 526l2 0 0 -2 1 0M234 525l0 -1M234 525l1 0 0 -1 1 0 0 -2 1 0M237 523l0 -1 2 0 0 -1M239 522l1 0M240 523l0 -2 1 0 0 -1M241 521l1 0 0 -2 3 0 0 -1M245 519l1 0 0 -2 1 0 0 -1 1 0M248 517l0 -1M248 517l3 0 0 -3 1 0M252 515l0 -1"/>
<path stroke="red" d="M252 515l1 0 0 -2 1 0 0 -1 1 0 0 -1 2 0 0 -1 1 0M258 511l0 -1 1 0 0 -1 4 0 0 -2 2 0 0 -1 1 0 0 -1 3 0 0 -1 1 0 0 -1 2 0 0 -1 3 0 0 -2 1 0M276 501l0 -1 1 0 0 -2 4 0 0 -2 3 0 0 -2 3 0 0 -1 1 0M288 494l0 -1 1 0 0 -1 1 0 0 -1"/>
<path stroke="red" d="M290 491l1 0 0 -1 3 0 0 -1 1 0 0 -1 1 0M296 489l0 -1M296 489l1 0 0 -1M297 489l2 0 0 -3 1 0M300 487l0 -1M300 487l1 0 0 -3 1 0M302 485l0 -2M302 484l1 0 0 -1 2 0 0 -1 1 0M306 483l0 -1 1 0 0 -1 2 0 0 -1M309 481l2 0 0 -2 2 0"/>
<path stroke="red" d="M313 479l0 -1 1 0 0 -1 3 0 0 -1 1 0 0 -1 1 0 0 -1 1 0M320 475l0 -1 3 0 0 -2 1 0M324 473l0 -1M324 473l1 0 0 -2 1 0 0 -1 3 0 0 -2 1 0M330 469l0 -1 2 0 0 -2M332 467l3 0 0 -2 1 0M336 466l0 -1 1 0 0 -1M337 465l1 0 0 -2 3 0 0 -1"/>
<path stroke="red" d="M341 462l1 0M342 463l0 -2 1 0 0 -1 1 0M344 461l0 -1M344 461l3 0 0 -3 1 0M348 459l0 -1M348 459l1 0 0 -3M349 457l1 0 0 -1 3 0 0 -2 3 0 0 -2 3 0 0 -1 1 0M360 452l0 -1 1 0 0 -1 1 0 0 -2 1 0M363 449l0 -1 3 0 0 -1 1 0 0 -1 1 0"/>
<path stroke="red" d="M368 447l0 -1M368 447l1 0 0 -1M369 447l2 0 0 -3 1 0M372 445l0 -1M372 445l1 0 0 -2 1 0 0 -1 3 0 0 -2M377 441l1 0 0 -1 1 0 0 -1 4 0 0 -2 1 0M384 438l0 -1 1 0 0 -1 1 0 0 -1 3 0 0 -1 1 0 0 -1 2 0 0 -1 3 0 0 -2M395 431l1 0M396 432l0 -1"/>
<path stroke="red" d="M396 431l1 0 0 -2 1 0 0 -2 3 0 0 -1M401 427l1 0 0 -1 1 0 0 -1 2 0M405 426l0 -1 2 0 0 -2 1 0M408 424l0 -1M408 424l1 0 0 -2 1 0 0 -1M410 422l3 0 0 -2 1 0 0 -1M414 420l1 0 0 -1 1 0 0 -1 3 0 0 -2M419 417l1 0M420 418l0 -2 1 0"/>
<path stroke="red" d="M421 416l0 -2 1 0M422 415l0 -1M422 415l3 0 0 -3 1 0M426 413l0 -1M426 413l1 0 0 -1 1 0 0 -1 1 0 0 -1M429 411l2 0 0 -2M431 410l1 0M432 411l0 -2 1 0 0 -1M433 409l1 0 0 -2 3 0 0 -1M437 407l1 0 0 -2 1 0 0 -1 1 0M440 405l0 -1"/>
<path stroke="red" d="M440 405l1 0M441 406l0 -1 2 0 0 -3 1 0M444 403l0 -1M444 403l1 0 0 -3 1 0M446 401l0 -2M446 400l3 0 0 -2 1 0M450 399l0 -1 1 0 0 -1 4 0 0 -2 1 0M456 396l0 -1 1 0 0 -1 1 0 0 -1 3 0 0 -1 1 0 0 -1 2 0 0 -1 3 0 0 -2 1 0M468 389l0 -1"/>
<path stroke="red" d="M468 389l1 0 0 -2 1 0 0 -1 3 0 0 -2 1 0M474 385l0 -1 2 0 0 -1 3 0 0 -1 1 0 0 -1 1 0 0 -1M481 381l1 0 0 -2 3 0 0 -1 1 0M486 379l0 -2 2 0 0 -1M488 377l3 0 0 -3 1 0M492 375l0 -1M492 375l1 0 0 -2 1 0 0 -1 3 0 0 -1 1 0 0 -1 1 0"/>
<path stroke="red" d="M499 370l0 -1 4 0 0 -2 1 0M504 368l0 -1M504 368l1 0 0 -2 1 0 0 -1 1 0M507 366l0 -1 2 0 0 -1 2 0 0 -1 4 0 0 -2 1 0M516 362l0 -1 1 0 0 -2 4 0 0 -2 2 0 0 -1 1 0 0 -1 3 0 0 -1 1 0M528 355l0 -1 1 0 0 -1 1 0 0 -2 1 0M531 352l0 -1"/>
<path stroke="red" d="M531 351l3 0M534 352l0 -2 1 0 0 -1 1 0M536 350l0 -1M536 350l3 0 0 -3 1 0M540 348l0 -1M540 348l1 0 0 -3 1 0M542 346l0 -2M542 345l3 0 0 -2 2 0 0 -1 1 0 0 -1 3 0 0 -1 1 0M552 341l0 -1 1 0 0 -1 1 0 0 -1 1 0 0 -1 3 0 0 -1 1 0"/>
<path stroke="red" d="M559 336l0 -1 1 0M560 336l0 -1M560 336l1 0 0 -1M561 336l2 0 0 -3 1 0M564 334l0 -1M564 334l1 0 0 -2 1 0 0 -1 3 0 0 -2M569 330l1 0 0 -1 2 0 0 -1 3 0 0 -2 1 0M576 327l0 -1M576 327l1 0 0 -2M577 326l1 0 0 -2 3 0 0 -1 1 0M582 324l0 -2"/>
<path stroke="red" d="M582 323l1 0 0 -1 4 0 0 -2 1 0M588 321l0 -1M588 321l1 -1 0 -2 1 0M590 319l0 -2 3 0 0 -1 1 0M594 317l0 -2 2 0 0 -1M596 315l3 0 0 -3 1 0M600 313l0 -1M600 313l1 0 0 -2M601 312l1 0 0 -1 3 0 0 -2 1 0M606 310l0 -1 2 0 0 -1 3 0"/>
<path stroke="red" d="M611 308l0 -2M611 307l1 0 0 -1 1 0 0 -2 1 0M614 305l0 -1M614 305l1 0 0 -1 2 0 0 -2 1 0M618 303l0 -1M618 303l1 0 0 -1 1 0 0 -1 1 0 0 -1M621 301l2 0 0 -2M623 300l1 0M624 301l0 -2 1 0 0 -1M625 299l1 0 0 -2 3 0 0 -1M629 297l1 0"/>
<path stroke="red" d="M630 297l0 -2 1 0 0 -1 1 0M632 295l0 -1M632 295l3 0 0 -3 1 0M636 293l0 -1M636 293l1 0 0 -2 1 0 0 -1 3 0 0 -2M641 289l1 0 0 -1 1 0 0 -1 4 0 0 -2 2 0 0 -1 1 0 0 -1 3 0 0 -1 1 0 0 -1 2 0 0 -1 3 0 0 -2 1 0M660 279l0 -1 1 0 0 -2"/>
<path stroke="red" d="M661 276l4 0 0 -2 3 0 0 -2 1 0M669 273l0 -1 2 0 0 -1 1 0M672 272l0 -1 1 0 0 -1M673 271l1 0 0 -2 1 0 0 -1 3 0M678 269l0 -2 1 0 0 -1 1 0M680 267l0 -1M680 267l3 0 0 -3 1 0M684 265l0 -1M684 265l1 0 0 -3 1 0M686 263l0 -2M686 262l1 0"/>
<path stroke="red" d="M687 262l0 -1M687 262l2 0 0 -2 1 0M690 261l0 -1 1 0 0 -1 4 0 0 -2 1 0M696 258l0 -1 1 0 0 -1 1 0 0 -1 3 0 0 -1 1 0 0 -1 2 0 0 -1 3 0 0 -2 1 0M708 251l0 -1M708 251l1 0 0 -2 1 0 0 -1 3 0 0 -2 1 0M714 247l0 -1 2 0 0 -1 3 0 0 -1"/>
<path stroke="red" d="M719 244l1 0 0 -1 1 0 0 -1M721 243l1 0 0 -2 3 0 0 -1 1 0M726 241l0 -2 2 0 0 -1M728 239l3 0 0 -3 1 0M732 237l0 -1M732 237l1 0 0 -2 1 0 0 -1 3 0 0 -2 3 0 0 -2 1 0M741 231l0 -1 2 0 0 -1 1 0M744 230l0 -1 1 0 0 -1M745 229l1 0"/>
<path stroke="red" d="M746 229l0 -2 1 0 0 -1 3 0M750 227l0 -2 1 0 0 -1 1 0M752 225l0 -1M752 225l1 0 0 -1M753 225l2 0 0 -3 1 0M756 223l0 -1M756 223l1 0 0 -2 1 0 0 -1 3 0 0 -2M761 219l1 0 0 -1 1 0 0 -1 4 0 0 -2 1 0M768 216l0 -1 1 0 0 -1 1 0 0 -1"/>
<path stroke="red" d="M770 213l3 0 0 -1 1 0 0 -1 1 0M775 212l0 -1 1 0 0 -1 1 0M777 211l0 -1 2 0 0 -2M779 209l1 0M780 210l0 -1 1 0 0 -2 1 0 0 -2 1 0M783 206l0 -1 2 0 0 -1M785 205l1 0 0 -1 1 0 0 -1 1 0M788 204l0 -1M788 204l1 0 0 -1M789 204l2 0"/>
<path stroke="red" d="M791 204l0 -3 1 0M792 202l0 -1M792 202l1 0 0 -2 1 0 0 -1M794 200l3 0 0 -2 1 0 0 -1M798 198l1 0 0 -1 1 0 0 -1 3 0 0 -1 1 0M804 196l0 -1 1 0 0 -2 1 0 0 -1M806 193l3 0 0 -3 1 0M810 191l0 -1M810 191l2 0 0 -2 1 0 0 -1M813 189l2 0"/>
<path stroke="red" d="M815 189l0 -2M815 188l1 0M816 189l0 -2 1 0M817 188l0 -2M817 188l1 0 0 -3 3 0 0 -1M821 185l1 0 0 -2 1 0 0 -1 1 0M824 184l0 -2M824 184l1 0 0 -1M825 184l2 0 0 -4 1 0M828 181l0 -1M828 181l1 0 0 -3 1 0M830 179l0 -2M830 178l3 0"/>
<path stroke="red" d="M833 178l0 -1 1 0 0 -1 1 0 0 -1 4 0 0 -2 1 0M840 174l0 -1 1 0 0 -1 1 0 0 -1 3 0 0 -1 1 0 0 -1 2 0 0 -1 1 0M849 169l0 -1M849 169l2 0 0 -2 2 0 0 -2 1 0 0 -1 3 0 0 -2 1 0M858 163l0 -1 2 0 0 -1 3 0 0 -1 1 0 0 -1 1 0 0 -1M865 159l1 0"/>
<path stroke="red" d="M866 159l0 -2 3 0 0 -1 1 0M870 157l0 -2 5 0 0 -2 2 0 0 -2 1 0 0 -1 3 0 0 -1 1 0 0 -1 2 0 0 -1 3 0 0 -2 1 0M888 146l0 -1M888 146l1 0 0 -2M889 145l1 0 0 -1 1 0 0 -1 2 0 0 -1 1 0M894 143l0 -1 1 0 0 -1 4 0 0 -2 1 0M900 140l0 -1"/>
<path stroke="red" d="M900 139l1 0 0 -2 4 0 0 -2 3 0 0 -2 3 0 0 -1 1 0M912 133l0 -1 1 0 0 -1M913 132l1 0 0 -2 1 0 0 -1 3 0M918 130l0 -2 1 0 0 -1 1 0M920 128l0 -1M920 128l3 0 0 -3 1 0M924 126l0 -1M924 126l1 0 0 -3 1 0M926 124l0 -1 3 0 0 -2 2 0"/>
<path stroke="red" d="M931 121l0 -1 1 0 0 -1 1 0M933 120l0 -1M933 120l2 0 0 -2 1 0M936 119l0 -1 1 0 0 -1 1 0 0 -1 3 0 0 -1 1 0 0 -1 1 0 0 -1 1 0M944 114l0 -1M944 114l1 0 0 -1M945 114l2 0 0 -3 1 0M948 112l0 -1M948 112l1 0 0 -2 1 0 0 -1 3 0 0 -2"/>
<path stroke="red" d="M953 108l1 0 0 -1 2 0 0 -1 3 0 0 -1 1 0"/>
</svg>
