<?xml version="1.0" standalone="yes"?>
<!DOCTYPE svg PUBLIC "-//W3C//DTD SVG 1.1//EN"
 "http://www.w3.org/Graphics/SVG/1.1/DTD/svg11.dtd">
<svg xmlns="http://www.w3.org/2000/svg" version="1.1"
  width="100%" height="100%" viewBox="0 0 1024 768"
  style="fill: none; stroke-width: 3; font-family: Helvetica;
 font: Helvetica;
">

<!-- Creator: NGspice -->

<rect x="0" y="0" width="1024" height="768" fill="white" stroke="none"/>
<text stroke="none" fill="black" font-size="16" x="358" y="752">
time
</text>
<text stroke="none" fill="black" font-size="16" x="10" y="16">
tran1: Even Parity Output
</text>
<path stroke="black" stroke-width="3" d="M50 704l0 -638"/>
<text stroke="none" fill="black" font-size="16" x="35" y="728">
0.0
</text>
<path stroke="black" stroke-width="3" stroke-dasharray="1,2" d="M204 704l0 -638"/>
<text stroke="none" fill="black" font-size="16" x="189" y="728">
0.5
</text>
<path stroke="black" stroke-width="3" stroke-dasharray="1,2" d="M358 704l0 -638"/>
<text stroke="none" fill="black" font-size="16" x="343" y="728">
1.0
</text>
<path stroke="black" stroke-width="3" stroke-dasharray="1,2" d="M512 704l0 -638"/>
<text stroke="none" fill="black" font-size="16" x="497" y="728">
1.5
</text>
<path stroke="black" stroke-width="3" stroke-dasharray="1,2" d="M666 704l0 -638"/>
<text stroke="none" fill="black" font-size="16" x="651" y="728">
2.0
</text>
<path stroke="black" stroke-width="3" stroke-dasharray="1,2" d="M820 704l0 -638"/>
<text stroke="none" fill="black" font-size="16" x="805" y="728">
2.5
</text>
<path stroke="black" stroke-width="3" stroke-dasharray="1,2" d="M974 704l0 -638"/>
<text stroke="none" fill="black" font-size="16" x="959" y="728">
3.0
</text>
<text stroke="none" fill="black" font-size="16" x="614" y="752">
us
</text>
<path stroke="black" stroke-width="3" stroke-dasharray="1,2" d="M50 704l924 0"/>
<text stroke="none" fill="black" font-size="16" x="8" y="712">
-0.2
</text>
<path stroke="black" stroke-width="3" d="M50 646l924 0"/>
<text stroke="none" fill="black" font-size="16" x="18" y="654">
0.0
</text>
<path stroke="black" stroke-width="3" stroke-dasharray="1,2" d="M50 588l924 0"/>
<text stroke="none" fill="black" font-size="16" x="18" y="596">
0.2
</text>
<path stroke="black" stroke-width="3" stroke-dasharray="1,2" d="M50 530l924 0"/>
<text stroke="none" fill="black" font-size="16" x="18" y="538">
0.4
</text>
<path stroke="black" stroke-width="3" stroke-dasharray="1,2" d="M50 472l924 0"/>
<text stroke="none" fill="black" font-size="16" x="18" y="480">
0.6
</text>
<path stroke="black" stroke-width="3" stroke-dasharray="1,2" d="M50 414l924 0"/>
<text stroke="none" fill="black" font-size="16" x="18" y="422">
0.8
</text>
<path stroke="black" stroke-width="3" stroke-dasharray="1,2" d="M50 356l924 0"/>
<text stroke="none" fill="black" font-size="16" x="18" y="364">
1.0
</text>
<path stroke="black" stroke-width="3" stroke-dasharray="1,2" d="M50 298l924 0"/>
<text stroke="none" fill="black" font-size="16" x="18" y="306">
1.2
</text>
<path stroke="black" stroke-width="3" stroke-dasharray="1,2" d="M50 240l924 0"/>
<text stroke="none" fill="black" font-size="16" x="18" y="248">
1.4
</text>
<path stroke="black" stroke-width="3" stroke-dasharray="1,2" d="M50 182l924 0"/>
<text stroke="none" fill="black" font-size="16" x="18" y="190">
1.6
</text>
<path stroke="black" stroke-width="3" stroke-dasharray="1,2" d="M50 124l924 0"/>
<text stroke="none" fill="black" font-size="16" x="18" y="132">
1.8
</text>
<path stroke="black" stroke-width="3" stroke-dasharray="1,2" d="M50 66l924 0"/>
<text stroke="none" fill="black" font-size="16" x="18" y="74">
2.0
</text>
<text stroke="none" fill="black" font-size="16" x="10" y="32">
V
</text>
<path stroke="red" d="M462 23l46 0"/>
<text stroke="none" fill="black" font-size="16" x="518" y="32">
v(out_parity)
</text>
<path stroke="red" d="M50 646l1 0M51 665l0 -466M51 646l1 0M52 664l0 -556M52 136l1 -11 0 -1 2 0M55 649l0 -564M55 646l2 0M57 659l0 -535 1 0M58 649l0 -564M58 646l3 0M61 657l0 -533 2 0M63 654l0 -567M63 124l1 0M64 649l0 -564M64 646l3 0M67 658l0 -534"/>
<path stroke="red" d="M67 124l2 0M69 651l0 -564M69 646l1 0M70 659l0 -535 3 0M73 648l0 -562M73 646l2 0M75 652l0 -567M75 646l1 0M76 656l0 -570M76 646l3 0M79 659l0 -535 2 0M81 652l0 -565M81 646l1 0M82 650l0 -5M82 650l1 9 0 -535 3 0M86 650l0 -564"/>
<path stroke="red" d="M86 646l1 0M87 654l0 -530 1 0M88 648l0 -562M88 646l1 0M89 656l0 -532 3 0M92 652l0 -564M92 646l2 0M94 658l0 -534 1 0M95 648l0 -560M95 646l3 0M98 655l0 -531 2 0M100 659l0 -572M100 646l1 0M101 659l0 -576M101 646l3 0M104 654l0 -530"/>
<path stroke="red" d="M104 124l2 0M106 652l0 -567M106 646l1 0M107 655l0 -531 3 0M110 651l0 -568M110 646l2 0M112 656l0 -573M112 646l1 0M113 656l0 -532 3 0M116 651l0 -566M116 646l2 0M118 657l0 -533 1 0 0 -40 1 122M120 651l0 -445M120 646l3 0M123 658l0 -534"/>
<path stroke="red" d="M123 124l1 0M124 651l0 -566M124 646l1 0M125 653l0 -570M125 646l1 0M126 654l0 -530 3 0M129 647l0 -562M129 646l2 0M131 655l0 -531 1 0M132 650l0 -564M132 646l3 0M135 653l0 -529 2 0M137 655l0 -572M137 124l1 0M138 652l0 -568"/>
<path stroke="red" d="M138 646l3 0M141 654l0 -530 2 0M143 651l0 -566M143 646l1 0M144 653l0 -529 3 0M147 652l0 -568M147 646l2 0M149 653l0 -568M149 646l1 0M150 654l0 -570M150 646l3 0M153 651l0 -527 2 0M155 646l0 -546M155 646l1 0M156 651l0 -527"/>
<path stroke="red" d="M156 124l3 0 0 -23M159 103l1 148M160 646l0 -395M160 646l1 0M161 651l0 -531M161 124l1 0M162 647l0 -546M162 646l1 0M163 650l0 -527M163 124l3 0M166 647l0 -547M166 646l1 0M167 651l0 -531M167 126l1 -3M168 124l0 -1M168 124l1 0"/>
<path stroke="red" d="M169 646l0 -546M169 646l3 0M172 651l0 -530M172 124l2 0M174 651l0 -550M174 646l1 0M175 650l0 -528M175 124l3 0M178 646l0 -546M178 646l2 0M180 650l0 -529M180 124l1 0M181 646l0 -546M181 646l3 0M184 650l0 -526 2 0M186 650l0 -549"/>
<path stroke="red" d="M186 124l1 0M187 647l0 -547M187 646l3 0M190 650l0 -526 2 0M192 646l0 -545M192 646l1 0M193 649l0 -529M193 124l3 0M196 647l0 -546M196 647l1 -2M197 647l0 -2M197 646l1 0M198 650l0 -527M198 124l1 0M199 650l0 -550M199 647l1 1"/>
<path stroke="red" d="M200 649l0 -529M200 124l3 0M203 646l0 -538M203 646l1 0M204 649l0 -530M204 124l2 0M206 646l0 -538M206 646l3 0M209 649l0 -528M209 124l2 0M211 649l0 -541M211 124l1 0M212 646l0 -538M212 646l3 0M215 649l0 -529M215 124l2 0M217 646l0 -537"/>
<path stroke="red" d="M217 646l1 0M218 649l0 -526M218 124l3 0M221 646l0 -537M221 646l2 0M223 649l0 -541M223 648l1 1 0 -536M224 646l3 0M227 649l0 -526M227 124l2 0M229 646l0 -533M229 646l1 0M230 649l0 -525 3 0M233 581l0 -468M233 581l1 54M234 646l0 -11"/>
<path stroke="red" d="M234 646l1 0M235 649l0 -529M235 124l1 0M236 649l0 -536M236 461l1 -265 0 -77M237 124l3 0M240 646l0 -531M240 646l1 0M241 649l0 -525 2 0M243 646l0 -529M243 646l3 0M246 649l0 -529M246 124l2 0M248 649l0 -534M248 124l1 0M249 663l0 -563"/>
<path stroke="red" d="M249 646l3 0 0 -522 2 0M254 648l0 -541M254 646l1 0 0 -522 3 0M258 659l0 -552M258 646l2 0M260 666l0 -558M260 646l1 0 0 -522 3 0M264 655l0 -548M264 646l2 0M266 647l0 -523 1 0M267 650l0 -543M267 646l3 0 0 -522 2 0M272 664l0 -555"/>
<path stroke="red" d="M272 642l1 -95M273 662l0 -554M273 151l1 -13 0 -14 2 0 1 -4M277 652l0 -546M277 646l1 0M278 647l0 -523 2 0M280 647l0 -541M280 646l3 0 0 -522 1 0 0 -1 1 -6M285 666l0 -558M285 124l1 0M286 661l0 -554M286 646l3 0M289 647l0 -523"/>
<path stroke="red" d="M289 124l2 0M291 655l0 -548M291 646l1 0 0 -522 3 0M295 662l0 -554M295 646l2 0M297 653l0 -546M297 139l1 -7M298 647l0 -541M298 124l3 0M301 649l0 -538M301 646l2 0 0 -522 1 0M304 647l0 -536M304 646l3 0 0 -522 2 0M309 665l0 -554"/>
<path stroke="red" d="M309 131l1 -4M310 646l0 -535M310 646l3 0 0 -1M313 646l1 -16 0 -506 1 0M315 663l0 -552M315 646l2 0 0 -522 3 0M320 653l0 -542M320 646l1 0 1 -1M322 653l0 -542M322 124l1 0M323 657l0 -543M323 646l3 0 0 -522 2 0M328 656l0 -542"/>
<path stroke="red" d="M328 646l1 0 0 -522 3 0M332 649l0 -535M332 646l2 0M334 659l0 -545M334 646l1 0 0 -522 3 0M338 652l0 -536M338 646l2 0 0 -522 1 0M341 649l0 -532M341 646l3 0 0 -522 2 0M346 664l0 -547M346 124l1 0M347 662l0 -552M347 124l1 0M348 195l0 -83"/>
<path stroke="red" d="M348 124l2 0M350 656l0 -541M350 647l1 -2M351 646l0 -1M351 646l1 0M352 647l0 -523 1 0 1 -2M354 655l0 -540M354 646l3 0M357 647l0 -523 1 0M358 664l0 -547M358 648l1 -3M359 647l0 -523 1 0M360 651l0 -536M360 646l3 0M363 647l0 -523"/>
<path stroke="red" d="M363 124l2 0M365 664l0 -547M365 646l1 0M366 647l0 -523 3 0M369 649l0 -533M369 646l2 0M371 657l0 -542M371 125l1 0M372 648l0 -531M372 646l3 0M375 647l0 -523 2 0M377 668l0 -552M377 646l1 0M378 647l0 -523 3 0M381 657l0 -541"/>
<path stroke="red" d="M381 646l2 0M383 650l0 -533M383 646l1 0 0 -522 3 0M387 659l0 -542M387 648l1 -3M388 647l0 -2M388 646l1 0M389 647l0 -523 1 0 0 -2 1 -1M391 666l0 -548M391 646l3 0 0 -522 1 0M395 640l0 -522M395 640l1 9M396 660l0 -543M396 124l1 0"/>
<path stroke="red" d="M397 655l0 -539M397 646l3 0M400 647l0 -523 1 0 0 -3 1 -1M402 650l0 -530M402 646l1 0M403 647l0 -523 3 0M406 665l0 -545M406 646l2 0M408 667l0 -546M408 646l1 0M409 647l0 -523 3 0M412 648l0 -529M412 646l2 0M414 647l0 -523 1 0"/>
<path stroke="red" d="M415 668l0 -548M415 646l3 0M418 647l0 -523 2 0M420 653l0 -533M420 136l1 -2M421 666l0 -546M421 156l1 -3 0 -29 1 0 0 -2M423 124l1 0M424 667l0 -545M424 646l2 0M426 647l0 -517 1 -1M427 664l0 -543M427 635l1 17 0 -10M428 646l3 0"/>
<path stroke="red" d="M431 647l0 -523 1 0M432 658l0 -537M432 646l1 0M433 647l0 -523 1 0M434 649l0 -526M434 646l3 0 0 -522 1 0M438 231l0 -108M438 231l1 25M439 662l0 -406M439 646l1 0 0 -520 1 0 0 -3 1 0M442 152l0 -29M442 124l1 0M443 647l0 -523"/>
<path stroke="red" d="M443 646l2 0M445 665l0 -465 1 -1M446 664l0 -556M446 646l1 0 0 -522 2 0M449 649l0 -564M449 646l2 0M451 659l0 -535 1 0M452 649l0 -564M452 646l3 0M455 657l0 -533 2 0M457 654l0 -567M457 124l1 0M458 649l0 -564M458 646l3 0M461 658l0 -534"/>
<path stroke="red" d="M461 124l2 0M463 651l0 -564M463 646l1 0M464 659l0 -535 3 0M467 623l0 -537M467 623l1 23M468 648l0 -4M468 646l1 0M469 652l0 -528 1 0M470 656l0 -571M470 124l1 0M471 649l0 -563M471 646l3 0M474 659l0 -535 1 0M475 566l0 -479M475 566l1 86"/>
<path stroke="red" d="M476 652l0 -9M476 646l1 0M477 659l0 -535 3 0M480 650l0 -564M480 646l2 0M482 654l0 -568M482 646l1 0M483 656l0 -532 3 0M486 652l0 -564M486 646l2 0M488 658l0 -534 1 0M489 648l0 -560M489 646l3 0M492 655l0 -531 2 0M494 659l0 -570"/>
<path stroke="red" d="M494 124l1 0M495 659l0 -576M495 646l3 0M498 654l0 -530 2 0M500 652l0 -567M500 646l1 0M501 655l0 -531 3 0M504 651l0 -568M504 645l1 2 0 -2M505 646l1 0M506 656l0 -532 1 0M507 649l0 -566M507 646l1 0M508 656l0 -532 3 0M511 651l0 -566"/>
<path stroke="red" d="M511 646l1 0M512 657l0 -533 2 0M514 651l0 -567M514 646l3 0M517 658l0 -534 2 0M519 653l0 -570M519 646l1 0M520 654l0 -530 3 0M523 647l0 -562M523 646l2 0M525 655l0 -531 1 0M526 650l0 -564M526 646l3 0M529 653l0 -529 2 0M531 655l0 -572"/>
<path stroke="red" d="M531 124l1 0M532 652l0 -568M532 646l3 0M535 654l0 -530 2 0M537 651l0 -566M537 646l1 0M538 653l0 -528 1 -1 2 0M541 652l0 -568M541 646l2 0M543 653l0 -529 1 0M544 654l0 -570M544 228l1 320M545 652l0 -104M545 646l3 0M548 651l0 -527"/>
<path stroke="red" d="M548 124l1 0M549 646l0 -546M549 646l2 0M551 651l0 -527 3 0M554 646l0 -545M554 646l2 0M556 651l0 -550M556 646l1 0M557 650l0 -527M557 124l3 0M560 647l0 -547M560 646l2 0M562 651l0 -531M562 124l1 0M563 646l0 -546M563 646l3 0"/>
<path stroke="red" d="M566 651l0 -530M566 124l2 0M568 651l0 -550M568 236l1 289M569 650l0 -528M569 124l3 0M572 646l0 -546M572 646l2 0M574 650l0 -529M574 124l1 0M575 646l0 -546M575 646l3 0M578 650l0 -526 2 0M580 650l0 -549M580 650l1 0 0 -550M581 647l1 -3"/>
<path stroke="red" d="M582 647l0 -3M582 646l3 0M585 650l0 -526 1 0M586 646l0 -545M586 646l2 0M588 649l0 -529M588 124l3 0M591 647l0 -546M591 646l2 0M593 650l0 -550M593 646l1 0M594 649l0 -529M594 124l3 0M597 646l0 -538M597 646l2 0M599 649l0 -530"/>
<path stroke="red" d="M599 124l1 0M600 646l0 -538M600 646l3 0M603 649l0 -528M603 124l2 0M605 649l0 -541M605 124l1 0M606 646l0 -538M606 646l3 0M609 649l0 -529M609 124l2 0M611 646l0 -537M611 646l1 0M612 649l0 -526M612 124l3 0M615 646l0 -537M615 646l2 0"/>
<path stroke="red" d="M617 649l0 -541M617 198l1 249M618 649l0 -536M618 391l1 169M619 646l0 -86M619 646l2 0M621 649l0 -397 1 -129M622 126l0 -3M622 124l1 0M623 646l0 -533M623 646l2 0M625 649l0 -525 3 0M628 646l0 -533M628 646l1 0M629 649l0 -426"/>
<path stroke="red" d="M629 223l1 -103M630 646l0 -533M630 646l1 0M631 649l0 -530M631 124l3 0M634 646l0 -531M634 646l2 0M636 649l0 -525 1 0M637 646l0 -529M637 646l3 0M640 649l0 -529M640 124l2 0M642 646l0 -531 1 1M643 649l0 -549M643 646l1 0M644 663l0 -180"/>
<path stroke="red" d="M644 646l2 0 0 -522 2 0M648 648l0 -541M648 646l1 0 0 -522 3 0M652 659l0 -552M652 646l2 0M654 666l0 -558M654 646l1 0 0 -522 3 0M658 655l0 -548M658 649l1 -5M659 647l0 -3M659 646l1 0M660 647l0 -523 2 0M662 650l0 -543M662 646l3 0"/>
<path stroke="red" d="M665 646l0 -522 1 0M666 664l0 -555M666 664l1 -29M667 662l0 -554M667 646l1 0 0 -522 3 0M671 652l0 -546M671 646l2 0M673 647l0 -523 1 0M674 647l0 -541M674 646l3 0 0 -522 2 0M679 666l0 -558M679 124l1 0M680 661l0 -554M680 646l3 0"/>
<path stroke="red" d="M683 647l0 -523 2 0M685 655l0 -548M685 646l1 0 0 -522 3 0M689 662l0 -554M689 646l2 0M691 653l0 -546M691 646l1 0M692 647l0 -541M692 124l3 0M695 649l0 -538M695 646l2 0 0 -522 1 0 0 -13 1 6M699 647l0 -530M699 646l3 0 0 -522"/>
<path stroke="red" d="M702 124l1 0M703 665l0 -554M703 646l1 0 0 -522 1 0M705 646l0 -535M705 646l3 0 0 -522 2 0M710 663l0 -552M710 646l1 0 0 -522 3 0M714 653l0 -542M714 646l2 0M716 653l0 -542M716 124l1 0M717 657l0 -543M717 646l3 0 0 -522 2 0M722 656l0 -542"/>
<path stroke="red" d="M722 646l1 0 0 -522 3 0M726 649l0 -535M726 646l2 0M728 659l0 -545M728 646l1 0 0 -522 3 0M732 652l0 -536M732 645l1 2 0 -1 1 0 0 -522 1 0 0 -1 1 0M736 649l0 -532M736 646l3 0 0 -522 1 0M740 338l0 -221M740 338l1 42M741 664l0 -548"/>
<path stroke="red" d="M741 123l1 -2M742 653l0 -543M742 124l3 0M745 656l0 -541M745 646l1 0 1 -1M747 647l0 -523 1 0M748 655l0 -540M748 646l3 0M751 647l0 -523 2 0M753 664l0 -547M753 124l1 0M754 651l0 -536M754 646l3 0M757 647l0 -523 2 0M759 664l0 -547"/>
<path stroke="red" d="M759 646l1 0M760 647l0 -523 3 0M763 649l0 -533M763 646l2 0M765 657l0 -542M765 646l1 0M766 648l0 -531M766 646l3 0M769 647l0 -523 2 0M771 668l0 -552M771 646l1 0M772 647l0 -500 1 -6 0 -17 2 0M775 277l0 -161M775 277l1 36M776 657l0 -344"/>
<path stroke="red" d="M776 646l1 0M777 647l0 -523 1 0M778 650l0 -533M778 646l1 0 0 -522 3 0M782 659l0 -542M782 646l1 0M783 647l0 -266 1 -96 0 -161 1 0M785 666l0 -548M785 646l3 0 0 -522 2 0M790 660l0 -543M790 646l1 0M791 655l0 -539M791 646l3 0"/>
<path stroke="red" d="M794 647l0 -523 2 0M796 650l0 -530M796 646l1 0M797 647l0 -523 3 0M800 665l0 -545M800 646l2 0M802 667l0 -546M802 646l1 0M803 647l0 -523 3 0M806 648l0 -529M806 646l2 0M808 647l0 -523 1 0M809 668l0 -548M809 646l3 0M812 647l0 -233"/>
<path stroke="red" d="M812 414l1 -83 0 -207 1 0M814 653l0 -533M814 646l1 0M815 666l0 -546M815 646l1 0M816 647l0 -523 1 0 0 -2M817 124l2 0M819 667l0 -545M819 646l1 0M820 647l0 -1 1 -4 0 -518 1 0M822 664l0 -543M822 646l3 0M825 647l0 -523 2 0M827 658l0 -537"/>
<path stroke="red" d="M827 125l1 0M828 649l0 -526M828 646l3 0 0 -521 1 0 0 -1 1 0M833 662l0 -539M833 646l1 0 0 -502 1 -2 0 -18 1 0M836 152l0 -29M836 124l1 0M837 647l0 -523M837 646l2 0M839 665l0 -353M839 646l1 0M840 658l0 -532 1 -1M841 664l0 -556"/>
<path stroke="red" d="M841 124l2 0M843 649l0 -564M843 646l2 0M845 659l0 -535 1 0M846 649l0 -564M846 646l3 0M849 657l0 -533 2 0M851 652l0 -565M851 646l1 0M852 654l0 -569M852 155l1 313M853 649l0 -181M853 646l3 0M856 658l0 -534 1 0M857 651l0 -564"/>
<path stroke="red" d="M857 646l2 0M859 659l0 -535 3 0M862 648l0 -562M862 646l2 0M864 656l0 -571M864 124l1 0M865 649l0 -563M865 646l3 0M868 659l0 -535 2 0M870 652l0 -565M870 646l1 0M871 659l0 -535 3 0M874 650l0 -564M874 646l2 0M876 654l0 -568"/>
<path stroke="red" d="M876 646l1 0M877 656l0 -532 3 0M880 652l0 -564M880 646l2 0M882 658l0 -534 1 0M883 648l0 -560M883 646l3 0M886 655l0 -531 2 0M888 659l0 -570M888 604l1 -233M889 659l0 -576M889 648l1 -4M890 647l0 -3M890 646l3 0M893 654l0 -530"/>
<path stroke="red" d="M893 124l1 0M894 652l0 -567M894 646l2 0M896 655l0 -531 3 0M899 651l0 -568M899 646l2 0M901 656l0 -573M901 646l1 0M902 656l0 -532 3 0M905 651l0 -566M905 646l2 0M907 657l0 -533 1 0M908 651l0 -567M908 646l3 0M911 658l0 -534"/>
<path stroke="red" d="M911 124l2 0M913 653l0 -570M913 645l1 2M914 654l0 -530 3 0M917 647l0 -562M917 646l2 0M919 655l0 -531 1 0M920 650l0 -564M920 646l3 0M923 653l0 -529 2 0M925 655l0 -572M925 588l1 -221M926 652l0 -568M926 646l4 0M930 654l0 -530"/>
<path stroke="red" d="M930 124l1 0M931 651l0 -566M931 646l2 0M933 653l0 -529 3 0M936 652l0 -568M936 646l2 0M938 654l0 -569M938 646l1 0M939 653l0 -569M939 646l3 0M942 651l0 -527 2 0M944 646l0 -546M944 646l1 0M945 651l0 -527 3 0M948 646l0 -545"/>
<path stroke="red" d="M948 646l2 0M950 651l0 -550M950 646l1 0M951 650l0 -527M951 124l3 0M954 647l0 -547M954 646l2 0M956 651l0 -531M956 124l1 0M957 646l0 -546M957 646l3 0M960 651l0 -530M960 124l2 0M962 651l0 -550M962 124l1 0M963 650l0 -549M963 124l3 0"/>
<path stroke="red" d="M966 646l0 -546M966 645l1 1 0 -1M967 646l1 0M968 650l0 -529M968 124l2 0M970 646l0 -546M970 646l3 0M973 650l0 -526 1 0"/>
</svg>
