<?xml version="1.0" standalone="yes"?>
<!DOCTYPE svg PUBLIC "-//W3C//DTD SVG 1.1//EN"
 "http://www.w3.org/Graphics/SVG/1.1/DTD/svg11.dtd">
<svg xmlns="http://www.w3.org/2000/svg" version="1.1"
  width="100%" height="100%" viewBox="0 0 1024 768"
  style="fill: none; stroke-width: 3; font-family: Helvetica;
 font: Helvetica;
">

<!-- Creator: NGspice -->

<rect x="0" y="0" width="1024" height="768" fill="white" stroke="none"/>
<text stroke="none" fill="black" font-size="16" x="358" y="752">
time
</text>
<text stroke="none" fill="black" font-size="16" x="10" y="16">
tran1: Inputs 4-7 (Slow)
</text>
<path stroke="black" stroke-width="3" d="M50 704l0 -639"/>
<text stroke="none" fill="black" font-size="16" x="35" y="728">
0.0
</text>
<path stroke="black" stroke-width="3" stroke-dasharray="1,2" d="M142 704l0 -639"/>
<text stroke="none" fill="black" font-size="16" x="122" y="728">
20.0
</text>
<path stroke="black" stroke-width="3" stroke-dasharray="1,2" d="M234 704l0 -639"/>
<text stroke="none" fill="black" font-size="16" x="214" y="728">
40.0
</text>
<path stroke="black" stroke-width="3" stroke-dasharray="1,2" d="M326 704l0 -639"/>
<text stroke="none" fill="black" font-size="16" x="306" y="728">
60.0
</text>
<path stroke="black" stroke-width="3" stroke-dasharray="1,2" d="M418 704l0 -639"/>
<text stroke="none" fill="black" font-size="16" x="398" y="728">
80.0
</text>
<path stroke="black" stroke-width="3" stroke-dasharray="1,2" d="M510 704l0 -639"/>
<text stroke="none" fill="black" font-size="16" x="485" y="728">
100.0
</text>
<path stroke="black" stroke-width="3" stroke-dasharray="1,2" d="M602 704l0 -639"/>
<text stroke="none" fill="black" font-size="16" x="577" y="728">
120.0
</text>
<path stroke="black" stroke-width="3" stroke-dasharray="1,2" d="M694 704l0 -639"/>
<text stroke="none" fill="black" font-size="16" x="669" y="728">
140.0
</text>
<path stroke="black" stroke-width="3" stroke-dasharray="1,2" d="M786 704l0 -639"/>
<text stroke="none" fill="black" font-size="16" x="761" y="728">
160.0
</text>
<path stroke="black" stroke-width="3" stroke-dasharray="1,2" d="M878 704l0 -639"/>
<text stroke="none" fill="black" font-size="16" x="853" y="728">
180.0
</text>
<path stroke="black" stroke-width="3" stroke-dasharray="1,2" d="M970 704l0 -639"/>
<text stroke="none" fill="black" font-size="16" x="945" y="728">
200.0
</text>
<text stroke="none" fill="black" font-size="16" x="614" y="752">
ns
</text>
<path stroke="black" stroke-width="3" d="M50 704l920 0"/>
<text stroke="none" fill="black" font-size="16" x="18" y="712">
0.0
</text>
<path stroke="black" stroke-width="3" stroke-dasharray="1,2" d="M50 633l920 0"/>
<text stroke="none" fill="black" font-size="16" x="18" y="641">
0.2
</text>
<path stroke="black" stroke-width="3" stroke-dasharray="1,2" d="M50 562l920 0"/>
<text stroke="none" fill="black" font-size="16" x="18" y="570">
0.4
</text>
<path stroke="black" stroke-width="3" stroke-dasharray="1,2" d="M50 491l920 0"/>
<text stroke="none" fill="black" font-size="16" x="18" y="499">
0.6
</text>
<path stroke="black" stroke-width="3" stroke-dasharray="1,2" d="M50 420l920 0"/>
<text stroke="none" fill="black" font-size="16" x="18" y="428">
0.8
</text>
<path stroke="black" stroke-width="3" stroke-dasharray="1,2" d="M50 349l920 0"/>
<text stroke="none" fill="black" font-size="16" x="18" y="357">
1.0
</text>
<path stroke="black" stroke-width="3" stroke-dasharray="1,2" d="M50 278l920 0"/>
<text stroke="none" fill="black" font-size="16" x="18" y="286">
1.2
</text>
<path stroke="black" stroke-width="3" stroke-dasharray="1,2" d="M50 207l920 0"/>
<text stroke="none" fill="black" font-size="16" x="18" y="215">
1.4
</text>
<path stroke="black" stroke-width="3" stroke-dasharray="1,2" d="M50 136l920 0"/>
<text stroke="none" fill="black" font-size="16" x="18" y="144">
1.6
</text>
<path stroke="black" stroke-width="3" stroke-dasharray="1,2" d="M50 65l920 0"/>
<text stroke="none" fill="black" font-size="16" x="18" y="73">
1.8
</text>
<text stroke="none" fill="black" font-size="16" x="10" y="32">
V
</text>
<path stroke="red" d="M460 23l46 0"/>
<text stroke="none" fill="black" font-size="16" x="516" y="32">
v(in_4)
</text>
<path stroke="red" d="M50 704l5 0 0 -639 363 0M418 103l0 -38M418 103l1 51M419 704l0 -550M419 704l372 0 0 -639 179 0"/>
<path stroke="blue" d="M50 23l46 0"/>
<text stroke="none" fill="black" font-size="16" x="106" y="32">
v(in_5)
</text>
<path stroke="blue" d="M50 704l5 0 0 -639 731 0M786 103l0 -38M786 103l1 51M787 704l0 -550M787 704l183 0"/>
<path stroke="darkgreen" d="M460 39l46 0"/>
<text stroke="none" fill="black" font-size="16" x="516" y="48">
v(in_6)
</text>
<path stroke="darkgreen" d="M50 704l5 0 0 -639 915 0"/>
<path stroke="green" d="M50 39l46 0"/>
<text stroke="none" fill="black" font-size="16" x="106" y="48">
v(in_7)
</text>
<path stroke="green" d="M50 704l5 0 0 -639 915 0"/>
</svg>
