<?xml version="1.0" standalone="yes"?>
<!DOCTYPE svg PUBLIC "-//W3C//DTD SVG 1.1//EN"
 "http://www.w3.org/Graphics/SVG/1.1/DTD/svg11.dtd">
<svg xmlns="http://www.w3.org/2000/svg" version="1.1"
  width="100%" height="100%" viewBox="0 0 1024 768"
  style="fill: none; stroke-width: 3; font-family: Helvetica;
 font: Helvetica;
">

<!-- Creator: NGspice -->

<rect x="0" y="0" width="1024" height="768" fill="white" stroke="none"/>
<text stroke="none" fill="black" font-size="16" x="358" y="752">
time
</text>
<text stroke="none" fill="black" font-size="16" x="10" y="16">
tran1: Verification: Physical vs Ideal Parity
</text>
<path stroke="black" stroke-width="3" d="M50 704l0 -639"/>
<text stroke="none" fill="black" font-size="16" x="35" y="728">
0.0
</text>
<path stroke="black" stroke-width="3" stroke-dasharray="1,2" d="M142 704l0 -639"/>
<text stroke="none" fill="black" font-size="16" x="122" y="728">
20.0
</text>
<path stroke="black" stroke-width="3" stroke-dasharray="1,2" d="M234 704l0 -639"/>
<text stroke="none" fill="black" font-size="16" x="214" y="728">
40.0
</text>
<path stroke="black" stroke-width="3" stroke-dasharray="1,2" d="M326 704l0 -639"/>
<text stroke="none" fill="black" font-size="16" x="306" y="728">
60.0
</text>
<path stroke="black" stroke-width="3" stroke-dasharray="1,2" d="M418 704l0 -639"/>
<text stroke="none" fill="black" font-size="16" x="398" y="728">
80.0
</text>
<path stroke="black" stroke-width="3" stroke-dasharray="1,2" d="M510 704l0 -639"/>
<text stroke="none" fill="black" font-size="16" x="485" y="728">
100.0
</text>
<path stroke="black" stroke-width="3" stroke-dasharray="1,2" d="M602 704l0 -639"/>
<text stroke="none" fill="black" font-size="16" x="577" y="728">
120.0
</text>
<path stroke="black" stroke-width="3" stroke-dasharray="1,2" d="M694 704l0 -639"/>
<text stroke="none" fill="black" font-size="16" x="669" y="728">
140.0
</text>
<path stroke="black" stroke-width="3" stroke-dasharray="1,2" d="M786 704l0 -639"/>
<text stroke="none" fill="black" font-size="16" x="761" y="728">
160.0
</text>
<path stroke="black" stroke-width="3" stroke-dasharray="1,2" d="M878 704l0 -639"/>
<text stroke="none" fill="black" font-size="16" x="853" y="728">
180.0
</text>
<path stroke="black" stroke-width="3" stroke-dasharray="1,2" d="M970 704l0 -639"/>
<text stroke="none" fill="black" font-size="16" x="945" y="728">
200.0
</text>
<text stroke="none" fill="black" font-size="16" x="614" y="752">
ns
</text>
<path stroke="black" stroke-width="3" stroke-dasharray="1,2" d="M50 704l920 0"/>
<text stroke="none" fill="black" font-size="16" x="8" y="712">
-0.5
</text>
<path stroke="black" stroke-width="3" d="M50 633l920 0"/>
<text stroke="none" fill="black" font-size="16" x="18" y="641">
0.0
</text>
<path stroke="black" stroke-width="3" stroke-dasharray="1,2" d="M50 562l920 0"/>
<text stroke="none" fill="black" font-size="16" x="18" y="570">
0.5
</text>
<path stroke="black" stroke-width="3" stroke-dasharray="1,2" d="M50 491l920 0"/>
<text stroke="none" fill="black" font-size="16" x="18" y="499">
1.0
</text>
<path stroke="black" stroke-width="3" stroke-dasharray="1,2" d="M50 420l920 0"/>
<text stroke="none" fill="black" font-size="16" x="18" y="428">
1.5
</text>
<path stroke="black" stroke-width="3" stroke-dasharray="1,2" d="M50 349l920 0"/>
<text stroke="none" fill="black" font-size="16" x="18" y="357">
2.0
</text>
<path stroke="black" stroke-width="3" stroke-dasharray="1,2" d="M50 278l920 0"/>
<text stroke="none" fill="black" font-size="16" x="18" y="286">
2.5
</text>
<path stroke="black" stroke-width="3" stroke-dasharray="1,2" d="M50 207l920 0"/>
<text stroke="none" fill="black" font-size="16" x="18" y="215">
3.0
</text>
<path stroke="black" stroke-width="3" stroke-dasharray="1,2" d="M50 136l920 0"/>
<text stroke="none" fill="black" font-size="16" x="18" y="144">
3.5
</text>
<path stroke="black" stroke-width="3" stroke-dasharray="1,2" d="M50 65l920 0"/>
<text stroke="none" fill="black" font-size="16" x="18" y="73">
4.0
</text>
<text stroke="none" fill="black" font-size="16" x="10" y="32">
     
</text>
<path stroke="red" d="M460 23l46 0"/>
<text stroke="none" fill="black" font-size="16" x="516" y="32">
v(out_parity)
</text>
<path stroke="red" d="M50 633l25 0M75 644l0 -268M75 377l23 0M98 639l0 -275M98 635l1 -3M99 634l0 -2M99 633l3 0M102 636l0 -267M102 377l1 1 0 -1 18 0M121 633l0 -274M121 633l23 0M144 637l0 -268M144 378l1 -1 22 0M167 639l0 -275M167 635l1 -3M168 634l0 -2"/>
<path stroke="red" d="M168 633l22 0M190 644l0 -268M190 377l4 0M194 643l0 -289M194 629l1 7 0 -5M195 633l18 0M213 644l0 -272M213 377l1 1 0 -1 21 0 1 1M236 638l0 -275M236 632l1 2 0 -2M237 633l3 0M240 644l0 -267M240 378l1 -1 18 0M259 639l0 -275M259 635l1 -3"/>
<path stroke="red" d="M260 634l0 -2M260 633l22 0M282 644l0 -268M282 377l4 0M286 643l0 -289M286 629l1 7 0 -5M287 633l18 0M305 644l0 -272M305 377l1 1 0 -1 22 0M328 636l0 -280M328 632l1 2 0 -2M329 633l22 0M351 644l0 -268M351 377l23 0M374 639l0 -275"/>
<path stroke="red" d="M374 635l1 -3M375 634l0 -2M375 633l3 0M378 636l0 -267M378 377l1 1 0 -1 18 0M397 633l0 -274M397 633l23 0M420 639l0 -268M420 378l1 -1 21 0M442 378l0 -1M442 378l1 -1M443 645l0 -277M443 630l1 5 0 -4M444 633l22 0M466 643l0 -270"/>
<path stroke="red" d="M466 377l3 0 1 1M470 635l0 -273M470 632l1 2 0 -2M471 633l18 0M489 636l0 -267M489 378l1 -1M490 378l0 -1 21 0M511 378l0 -1M511 378l1 -1M512 634l0 -275M512 633l23 0M535 643l0 -270M535 377l1 1 0 -1 21 0M557 378l0 -1M557 378l1 0"/>
<path stroke="red" d="M558 645l0 -277M558 637l1 -7M559 635l0 -5M559 633l3 0M562 639l0 -268M562 376l1 2 0 -1 17 0 1 1M581 640l0 -274M581 630l1 5 0 -4M582 633l22 0M604 643l0 -271M604 378l1 -1 2 0 1 1M608 647l0 -277M608 627l1 10 0 -7M609 633l18 0"/>
<path stroke="red" d="M627 643l0 -270M627 377l1 1 0 -1 21 0M649 378l0 -1M649 378l1 0M650 645l0 -277M650 637l1 -7M651 635l0 -5M651 633l3 0M654 639l0 -268M654 376l1 2 0 -1 17 0 1 1M673 640l0 -274M673 630l1 5 0 -4M674 633l22 0M696 637l0 -268M696 377l1 1"/>
<path stroke="red" d="M697 378l0 -1 21 0M718 378l0 -1M718 378l1 -1M719 645l0 -277M719 630l1 5 0 -4M720 633l22 0M742 643l0 -270M742 377l3 0 1 1M746 636l0 -274M746 632l1 2 0 -2M747 633l18 0M765 636l0 -267M765 378l1 -1M766 378l0 -1 21 0 1 1M788 637l0 -274"/>
<path stroke="red" d="M788 632l1 2 0 -2M789 633l3 0M792 643l0 -266 18 0M810 378l0 -1M810 378l1 -1M811 645l0 -277M811 630l1 5 0 -4M812 633l22 0M834 643l0 -270M834 377l3 0 1 1M838 635l0 -273M838 632l1 2 0 -2M839 633l18 0M857 636l0 -267M857 378l1 -1"/>
<path stroke="red" d="M858 378l0 -1 21 0M879 378l0 -1M879 378l1 -1M880 634l0 -275M880 633l23 0M903 643l0 -270M903 377l1 1 0 -1 21 0M925 378l0 -1M925 378l1 0M926 645l0 -277M926 637l1 -7M927 635l0 -5M927 633l3 0M930 639l0 -268M930 376l1 2 0 -1"/>
<path stroke="red" d="M931 377l17 0 1 1M949 640l0 -274M949 630l1 5 0 -4M950 633l20 0"/>
<path stroke="blue" d="M50 23l46 0"/>
<text stroke="none" fill="black" font-size="16" x="106" y="32">
ideal_parity
</text>
<path stroke="blue" d="M50 633l5 0 0 -307M55 531l18 0M73 558l0 -27M73 558l1 37 0 -437M74 480l22 0M96 507l0 -27M96 507l1 37M97 618l0 -420M97 429l4 0M101 618l0 -420M101 480l18 0M119 507l0 -27M119 507l1 37M120 618l0 -420M120 429l22 0M142 456l0 -27"/>
<path stroke="blue" d="M142 456l1 37M143 567l0 -420M143 377l4 0M147 618l0 -374M147 480l18 0M165 507l0 -27M165 507l1 37M166 618l0 -420M166 429l22 0M188 456l0 -27M188 456l1 37M189 567l0 -420M189 377l4 0M193 567l0 -420M193 429l18 0M211 456l0 -27"/>
<path stroke="blue" d="M211 456l1 37M212 567l0 -420M212 377l22 0M234 405l0 -28M234 405l1 37M235 607l0 -419M235 326l4 0M239 480l0 -347M239 480l18 0M257 507l0 -27M257 507l1 37M258 618l0 -420M258 429l22 0M280 456l0 -27M280 456l1 37M281 567l0 -420"/>
<path stroke="blue" d="M281 377l4 0M285 567l0 -420M285 429l18 0M303 456l0 -27M303 456l1 37M304 567l0 -420M304 377l22 0M326 405l0 -28M326 405l1 37M327 607l0 -419M327 326l4 0M331 567l0 -374M331 429l18 0M349 456l0 -27M349 456l1 37M350 567l0 -420"/>
<path stroke="blue" d="M350 377l22 0M372 405l0 -28M372 405l1 37M373 607l0 -419M373 326l4 0M377 607l0 -419M377 377l18 0M395 405l0 -28M395 405l1 37M396 607l0 -419M396 326l22 0M418 354l0 -28M418 354l1 37M419 556l0 -419M419 275l4 0M423 529l0 -364"/>
<path stroke="blue" d="M423 480l18 0M441 507l0 -27M441 507l1 37M442 618l0 -420M442 429l22 0M464 456l0 -27M464 456l1 37M465 567l0 -420M465 377l4 0M469 567l0 -420M469 429l18 0M487 456l0 -27M487 456l1 37M488 567l0 -420M488 377l22 0M510 405l0 -28"/>
<path stroke="blue" d="M510 405l1 37M511 607l0 -419M511 326l4 0M515 567l0 -374M515 429l18 0M533 456l0 -27M533 456l1 37M534 567l0 -420M534 377l22 0M556 405l0 -28M556 405l1 37M557 607l0 -419M557 326l4 0M561 607l0 -419M561 377l18 0M579 405l0 -28"/>
<path stroke="blue" d="M579 405l1 37M580 607l0 -419M580 326l22 0M602 354l0 -28M602 354l1 37M603 556l0 -419M603 275l4 0M607 607l0 -483M607 429l18 0M625 456l0 -27M625 456l1 37M626 567l0 -420M626 377l22 0M648 405l0 -28M648 405l1 37M649 607l0 -419"/>
<path stroke="blue" d="M649 326l4 0M653 607l0 -419M653 377l18 0M671 405l0 -28M671 405l1 37M672 607l0 -419M672 326l22 0M694 354l0 -28M694 354l1 37M695 556l0 -419M695 275l4 0M699 515l0 -373M699 377l18 0M717 405l0 -28M717 405l1 37M718 607l0 -419"/>
<path stroke="blue" d="M718 326l22 0M740 354l0 -28M740 354l1 37M741 556l0 -419M741 275l4 0M745 556l0 -419M745 326l18 0M763 354l0 -28M763 354l1 37M764 556l0 -419M764 275l22 0M786 303l0 -28M786 303l1 37M787 597l0 -442M787 224l4 0M791 607l0 -460"/>
<path stroke="blue" d="M791 480l18 0M809 507l0 -27M809 507l1 37M810 618l0 -420M810 429l22 0M832 456l0 -27M832 456l1 37M833 567l0 -420M833 377l4 0M837 567l0 -420M837 429l18 0M855 456l0 -27M855 456l1 37M856 567l0 -420M856 377l22 0M878 405l0 -28"/>
<path stroke="blue" d="M878 405l1 37M879 607l0 -419M879 326l4 0M883 567l0 -374M883 429l18 0M901 456l0 -27M901 456l1 37M902 567l0 -420M902 377l22 0M924 405l0 -28M924 405l1 37M925 607l0 -419M925 326l4 0M929 607l0 -419M929 377l18 0M947 405l0 -28"/>
<path stroke="blue" d="M947 405l1 37M948 607l0 -419M948 326l22 0"/>
</svg>
