<?xml version="1.0" standalone="yes"?>
<!DOCTYPE svg PUBLIC "-//W3C//DTD SVG 1.1//EN"
 "http://www.w3.org/Graphics/SVG/1.1/DTD/svg11.dtd">
<svg xmlns="http://www.w3.org/2000/svg" version="1.1"
  width="100%" height="100%" viewBox="0 0 1024 768"
  style="fill: none; stroke-width: 3; font-family: Helvetica;
 font: Helvetica;
">

<!-- Creator: NGspice -->

<rect x="0" y="0" width="1024" height="768" fill="white" stroke="none"/>
<text stroke="none" fill="black" font-size="16" x="358" y="752">
time
</text>
<text stroke="none" fill="black" font-size="16" x="10" y="16">
tran1: Cumulative Energy Consumption
</text>
<path stroke="black" stroke-width="3" d="M50 704l0 -638"/>
<text stroke="none" fill="black" font-size="16" x="35" y="728">
0.0
</text>
<path stroke="black" stroke-width="3" stroke-dasharray="1,2" d="M142 704l0 -638"/>
<text stroke="none" fill="black" font-size="16" x="122" y="728">
20.0
</text>
<path stroke="black" stroke-width="3" stroke-dasharray="1,2" d="M234 704l0 -638"/>
<text stroke="none" fill="black" font-size="16" x="214" y="728">
40.0
</text>
<path stroke="black" stroke-width="3" stroke-dasharray="1,2" d="M326 704l0 -638"/>
<text stroke="none" fill="black" font-size="16" x="306" y="728">
60.0
</text>
<path stroke="black" stroke-width="3" stroke-dasharray="1,2" d="M418 704l0 -638"/>
<text stroke="none" fill="black" font-size="16" x="398" y="728">
80.0
</text>
<path stroke="black" stroke-width="3" stroke-dasharray="1,2" d="M510 704l0 -638"/>
<text stroke="none" fill="black" font-size="16" x="485" y="728">
100.0
</text>
<path stroke="black" stroke-width="3" stroke-dasharray="1,2" d="M602 704l0 -638"/>
<text stroke="none" fill="black" font-size="16" x="577" y="728">
120.0
</text>
<path stroke="black" stroke-width="3" stroke-dasharray="1,2" d="M694 704l0 -638"/>
<text stroke="none" fill="black" font-size="16" x="669" y="728">
140.0
</text>
<path stroke="black" stroke-width="3" stroke-dasharray="1,2" d="M786 704l0 -638"/>
<text stroke="none" fill="black" font-size="16" x="761" y="728">
160.0
</text>
<path stroke="black" stroke-width="3" stroke-dasharray="1,2" d="M878 704l0 -638"/>
<text stroke="none" fill="black" font-size="16" x="853" y="728">
180.0
</text>
<path stroke="black" stroke-width="3" stroke-dasharray="1,2" d="M970 704l0 -638"/>
<text stroke="none" fill="black" font-size="16" x="945" y="728">
200.0
</text>
<text stroke="none" fill="black" font-size="16" x="614" y="752">
ns
</text>
<path stroke="black" stroke-width="3" stroke-dasharray="1,2" d="M50 704l920 0"/>
<text stroke="none" fill="black" font-size="16" x="8" y="712">
-0.5
</text>
<path stroke="black" stroke-width="3" d="M50 646l920 0"/>
<text stroke="none" fill="black" font-size="16" x="18" y="654">
0.0
</text>
<path stroke="black" stroke-width="3" stroke-dasharray="1,2" d="M50 588l920 0"/>
<text stroke="none" fill="black" font-size="16" x="18" y="596">
0.5
</text>
<path stroke="black" stroke-width="3" stroke-dasharray="1,2" d="M50 530l920 0"/>
<text stroke="none" fill="black" font-size="16" x="18" y="538">
1.0
</text>
<path stroke="black" stroke-width="3" stroke-dasharray="1,2" d="M50 472l920 0"/>
<text stroke="none" fill="black" font-size="16" x="18" y="480">
1.5
</text>
<path stroke="black" stroke-width="3" stroke-dasharray="1,2" d="M50 414l920 0"/>
<text stroke="none" fill="black" font-size="16" x="18" y="422">
2.0
</text>
<path stroke="black" stroke-width="3" stroke-dasharray="1,2" d="M50 356l920 0"/>
<text stroke="none" fill="black" font-size="16" x="18" y="364">
2.5
</text>
<path stroke="black" stroke-width="3" stroke-dasharray="1,2" d="M50 298l920 0"/>
<text stroke="none" fill="black" font-size="16" x="18" y="306">
3.0
</text>
<path stroke="black" stroke-width="3" stroke-dasharray="1,2" d="M50 240l920 0"/>
<text stroke="none" fill="black" font-size="16" x="18" y="248">
3.5
</text>
<path stroke="black" stroke-width="3" stroke-dasharray="1,2" d="M50 182l920 0"/>
<text stroke="none" fill="black" font-size="16" x="18" y="190">
4.0
</text>
<path stroke="black" stroke-width="3" stroke-dasharray="1,2" d="M50 124l920 0"/>
<text stroke="none" fill="black" font-size="16" x="18" y="132">
4.5
</text>
<path stroke="black" stroke-width="3" stroke-dasharray="1,2" d="M50 66l920 0"/>
<text stroke="none" fill="black" font-size="16" x="18" y="74">
5.0
</text>
<text stroke="none" fill="black" font-size="16" x="10" y="32">
p     
</text>
<path stroke="red" d="M460 23l46 0"/>
<text stroke="none" fill="black" font-size="16" x="516" y="32">
total_energy
</text>
<path stroke="red" d="M50 646l5 0M55 655l0 -9M55 653l19 0 0 -7 1 -1 0 -3 21 0 0 -1 1 0 0 -6 1 -1 0 -4 3 0M101 632l0 -4 1 -1 0 -5 18 0 0 -8 1 -1 0 -5 22 0 0 -5 1 -1 0 -4 3 0M147 600l0 -2M147 600l19 0 0 -6 1 -1 0 -4 21 0 0 -1 1 0 0 -6 1 -1 0 -5"/>
<path stroke="red" d="M190 576l3 0M193 578l0 -3 1 -1 0 -5 17 0 1 -1 0 -7 1 -1 0 -5 21 0 1 -1 0 -6 1 -1 0 -4 3 0M239 548l0 -5M239 546l1 -1 0 -6 18 0 0 -7 1 0 0 -5 22 0 0 -6 1 -1 0 -5 3 0M285 517l0 -3 1 -1 0 -5 17 0 1 -1 0 -7 1 -1 0 -5 21 0 1 -1"/>
<path stroke="red" d="M327 493l0 -7 1 -1 0 -4 3 0M331 483l0 -2M331 483l18 0 0 -1 1 0 0 -6 1 -2 0 -3 22 0 0 -7 1 0 0 -5 3 0M377 461l0 -3 1 -1 0 -6 18 0 0 -8 1 0 0 -5 22 0 0 -7 1 0 0 -3 3 0M423 432l0 -4M423 431l19 0 0 -6 1 -2 0 -4 22 0 0 -7 1 -1"/>
<path stroke="red" d="M466 411l0 -4 3 0M469 409l0 -3 1 -1 0 -6 18 0 0 -8 1 0 0 -5 22 0 0 -5 1 -1 0 -5 3 0M515 377l0 -2M515 377l19 0 0 -6 1 -1 0 -4 21 0 1 -1 0 -6 1 -1 0 -5 3 0M561 355l0 -4 1 0 0 -5 17 0 0 -1 1 0 0 -7 1 -1 0 -6 22 0 0 -7 1 -1"/>
<path stroke="red" d="M604 323l0 -3 3 0M607 324l0 -4M607 322l1 -1 0 -6 18 0 0 -7 1 0 0 -4 21 0 0 -1 1 0 0 -6 1 -1 0 -5 3 0M653 293l0 -4 1 0 0 -6 18 0 0 -7 1 -1 0 -6 22 0 0 -8 1 -1 0 -4 3 0M699 258l0 -2M699 258l19 0 0 -7 1 -1 0 -4 22 0 0 -7 1 -1"/>
<path stroke="red" d="M742 238l0 -4 3 0M745 236l0 -3 1 -1 0 -6 18 0 0 -8 1 -1 0 -5 22 0 0 -7 1 0 0 -4 3 0M791 207l0 -6M791 203l1 0 0 -5 18 0 0 -6 1 -1 0 -5 22 0 0 -7 1 0 0 -4 3 0M837 177l0 -4 1 -1 0 -6 18 0 0 -8 1 0 0 -5 22 0 0 -5 1 -1 0 -5 3 0"/>
<path stroke="red" d="M883 145l0 -3M883 144l19 0 0 -6 1 -1 0 -4 22 0 0 -6 1 -1 0 -6 3 0M929 122l0 -3 1 -1 0 -5 17 0 1 -1 0 -7 1 -1 0 -6 21 0"/>
</svg>
