<?xml version="1.0" standalone="yes"?>
<!DOCTYPE svg PUBLIC "-//W3C//DTD SVG 1.1//EN"
 "http://www.w3.org/Graphics/SVG/1.1/DTD/svg11.dtd">
<svg xmlns="http://www.w3.org/2000/svg" version="1.1"
  width="100%" height="100%" viewBox="0 0 1024 768"
  style="fill: none; stroke-width: 3; font-family: Helvetica;
 font: Helvetica;
">

<!-- Creator: NGspice -->

<rect x="0" y="0" width="1024" height="768" fill="white" stroke="none"/>
<text stroke="none" fill="black" font-size="16" x="358" y="752">
time
</text>
<text stroke="none" fill="black" font-size="16" x="10" y="16">
tran1: Transient: Static Leakage Zoom
</text>
<path stroke="black" stroke-width="3" d="M60 704l0 -640"/>
<text stroke="none" fill="black" font-size="16" x="45" y="728">
0.0
</text>
<path stroke="black" stroke-width="3" stroke-dasharray="1,2" d="M150 704l0 -640"/>
<text stroke="none" fill="black" font-size="16" x="130" y="728">
10.0
</text>
<path stroke="black" stroke-width="3" stroke-dasharray="1,2" d="M240 704l0 -640"/>
<text stroke="none" fill="black" font-size="16" x="220" y="728">
20.0
</text>
<path stroke="black" stroke-width="3" stroke-dasharray="1,2" d="M330 704l0 -640"/>
<text stroke="none" fill="black" font-size="16" x="310" y="728">
30.0
</text>
<path stroke="black" stroke-width="3" stroke-dasharray="1,2" d="M420 704l0 -640"/>
<text stroke="none" fill="black" font-size="16" x="400" y="728">
40.0
</text>
<path stroke="black" stroke-width="3" stroke-dasharray="1,2" d="M510 704l0 -640"/>
<text stroke="none" fill="black" font-size="16" x="490" y="728">
50.0
</text>
<path stroke="black" stroke-width="3" stroke-dasharray="1,2" d="M600 704l0 -640"/>
<text stroke="none" fill="black" font-size="16" x="580" y="728">
60.0
</text>
<path stroke="black" stroke-width="3" stroke-dasharray="1,2" d="M690 704l0 -640"/>
<text stroke="none" fill="black" font-size="16" x="670" y="728">
70.0
</text>
<path stroke="black" stroke-width="3" stroke-dasharray="1,2" d="M780 704l0 -640"/>
<text stroke="none" fill="black" font-size="16" x="760" y="728">
80.0
</text>
<path stroke="black" stroke-width="3" stroke-dasharray="1,2" d="M870 704l0 -640"/>
<text stroke="none" fill="black" font-size="16" x="850" y="728">
90.0
</text>
<path stroke="black" stroke-width="3" stroke-dasharray="1,2" d="M960 704l0 -640"/>
<text stroke="none" fill="black" font-size="16" x="935" y="728">
100.0
</text>
<text stroke="none" fill="black" font-size="16" x="614" y="752">
ns
</text>
<path stroke="black" stroke-width="3" d="M60 704l900 0"/>
<text stroke="none" fill="black" font-size="16" x="28" y="712">
0.0
</text>
<path stroke="black" stroke-width="3" stroke-dasharray="1,2" d="M60 640l900 0"/>
<text stroke="none" fill="black" font-size="16" x="28" y="648">
1.0
</text>
<path stroke="black" stroke-width="3" stroke-dasharray="1,2" d="M60 576l900 0"/>
<text stroke="none" fill="black" font-size="16" x="28" y="584">
2.0
</text>
<path stroke="black" stroke-width="3" stroke-dasharray="1,2" d="M60 512l900 0"/>
<text stroke="none" fill="black" font-size="16" x="28" y="520">
3.0
</text>
<path stroke="black" stroke-width="3" stroke-dasharray="1,2" d="M60 448l900 0"/>
<text stroke="none" fill="black" font-size="16" x="28" y="456">
4.0
</text>
<path stroke="black" stroke-width="3" stroke-dasharray="1,2" d="M60 384l900 0"/>
<text stroke="none" fill="black" font-size="16" x="28" y="392">
5.0
</text>
<path stroke="black" stroke-width="3" stroke-dasharray="1,2" d="M60 320l900 0"/>
<text stroke="none" fill="black" font-size="16" x="28" y="328">
6.0
</text>
<path stroke="black" stroke-width="3" stroke-dasharray="1,2" d="M60 256l900 0"/>
<text stroke="none" fill="black" font-size="16" x="28" y="264">
7.0
</text>
<path stroke="black" stroke-width="3" stroke-dasharray="1,2" d="M60 192l900 0"/>
<text stroke="none" fill="black" font-size="16" x="28" y="200">
8.0
</text>
<path stroke="black" stroke-width="3" stroke-dasharray="1,2" d="M60 128l900 0"/>
<text stroke="none" fill="black" font-size="16" x="28" y="136">
9.0
</text>
<path stroke="black" stroke-width="3" stroke-dasharray="1,2" d="M60 64l900 0"/>
<text stroke="none" fill="black" font-size="16" x="18" y="72">
10.0
</text>
<text stroke="none" fill="black" font-size="16" x="10" y="32">
nA
</text>
<path stroke="red" d="M450 23l45 0"/>
<text stroke="none" fill="black" font-size="16" x="505" y="32">
-i(v_supply)
</text>
<path stroke="red" d="M60 703l9 0M69 704l0 -1M70 704l0 -640M71 704l0 -640M72 704l0 -640M73 704l0 -640M74 704l0 -640M75 704l0 -640M76 704l0 -640M77 704l0 -640M78 704l0 -640M79 704l0 -640M80 704l0 -640M81 704l0 -640M82 704l0 -640M83 704l0 -640"/>
<path stroke="red" d="M84 704l0 -640M85 704l0 -640M86 704l0 -640M87 704l0 -640M88 704l0 -640M89 704l0 -640M90 704l0 -640M91 704l0 -640M92 704l0 -640M93 704l0 -640M94 704l0 -640M95 704l0 -640M96 704l0 -640M97 704l0 -640M98 704l0 -640M99 704l0 -640"/>
<path stroke="red" d="M100 704l0 -640M101 704l0 -640M102 704l0 -640M103 704l0 -640M104 704l0 -640M105 704l0 -640M106 704l0 -640M107 704l0 -640M108 704l0 -640M109 704l0 -640M110 704l0 -640M111 704l0 -640M112 704l0 -640M113 704l0 -640M114 704l0 -640"/>
<path stroke="red" d="M115 704l0 -640M116 704l0 -640M117 704l0 -640M117 704l1 -617M118 704l0 -617M119 704l0 -586M119 704l1 -562M120 704l0 -562M121 704l0 -535M121 704l1 -514M122 704l0 -514M123 704l0 -490M124 704l0 -467M124 704l1 -450M125 704l0 -450"/>
<path stroke="red" d="M126 704l0 -430M126 704l1 -414M127 704l0 -414M128 704l0 -397M128 704l1 -383M129 704l0 -383M130 704l0 -367M130 704l1 -355M131 704l0 -355M132 704l0 -341M133 704l0 -329M133 704l1 -318M134 704l0 -318M135 704l0 -307M135 704l1 -298"/>
<path stroke="red" d="M136 704l0 -298M137 704l0 -288M137 704l1 -279M138 704l0 -279M139 704l0 -270M139 704l1 -263M140 704l0 -263M141 704l0 -255M142 704l0 -247M142 704l1 -241M143 704l0 -241M144 704l0 -235M144 704l1 -229M145 704l0 -229M146 704l0 -223"/>
<path stroke="red" d="M146 704l1 -218M147 704l0 -218M148 704l0 -213M148 704l1 -209M149 704l0 -209M150 704l0 -204M151 704l0 -640M152 704l0 -640M153 704l0 -640M154 704l0 -640M155 704l0 -640M156 704l0 -640M157 704l0 -640M158 704l0 -640M159 704l0 -640"/>
<path stroke="red" d="M160 704l0 -640M161 704l0 -640M162 704l0 -640M163 704l0 -640M164 704l0 -640M165 704l0 -640M166 704l0 -640M167 704l0 -640M168 704l0 -640M169 704l0 -640M170 704l0 -640M171 704l0 -640M172 704l0 -640M173 704l0 -640M174 704l0 -640"/>
<path stroke="red" d="M175 704l0 -640M176 704l0 -640M177 704l0 -640M178 704l0 -640M179 704l0 -640M180 704l0 -640M181 704l0 -556M181 704l1 -464M182 704l0 -464M183 704l0 -367M183 704l1 -294M184 704l0 -294M185 704l0 -216M185 704l1 -159M186 704l0 -159"/>
<path stroke="red" d="M186 704l1 -97M187 704l0 -97M188 704l0 -42M188 667l1 36M189 704l0 -75M189 704l1 -82M190 704l0 -115M191 704l0 -145M191 704l1 -151M192 704l0 -178M193 704l0 -202M193 704l1 -207M194 704l0 -228M195 704l0 -251M196 704l0 -269M196 704l1 -272"/>
<path stroke="red" d="M197 704l0 -287M198 704l0 -301M198 704l1 -303M199 704l0 -315M200 704l0 -326M200 704l1 -328M201 704l0 -337M202 704l0 -345M202 704l1 -347M203 704l0 -354M204 704l0 -362M205 704l0 -367M205 704l1 -368M206 704l0 -372M207 704l0 -376"/>
<path stroke="red" d="M207 704l1 -377M208 704l0 -380M209 704l0 -382M209 704l1 -383M210 704l0 -385M211 704l0 -386M211 704l1 -386M212 704l0 -387M213 704l0 -388M214 704l0 -388M214 704l1 -388M215 704l0 -388M216 704l0 -388M216 704l1 -387M217 704l0 -387"/>
<path stroke="red" d="M218 704l0 -386M218 704l1 -385M219 704l0 -385M220 704l0 -383M220 704l1 -381M221 704l0 -381M222 704l0 -379M223 704l0 -377M223 704l1 -375M224 704l0 -375M225 704l0 -372M225 704l1 -370M226 704l0 -370M227 704l0 -367M227 704l1 -364"/>
<path stroke="red" d="M228 704l0 -364M229 704l0 -361M229 704l1 -358M230 704l0 -358M231 704l0 -354M232 704l0 -351M232 704l1 -348M233 704l0 -348M234 704l0 -344M234 704l1 -341M235 704l0 -341M236 704l0 -338M236 704l1 -335M237 704l0 -335M238 704l0 -331"/>
<path stroke="red" d="M238 704l1 -328M239 704l0 -328M240 704l0 -324M241 704l0 -640M242 704l0 -640M243 704l0 -640M244 704l0 -640M245 704l0 -640M246 704l0 -640M247 704l0 -640M248 704l0 -640M249 704l0 -640M250 704l0 -640M251 704l0 -640M252 704l0 -640"/>
<path stroke="red" d="M253 704l0 -640M254 704l0 -640M255 704l0 -640M256 704l0 -640M257 704l0 -640M258 704l0 -640M259 704l0 -640M260 704l0 -640M261 704l0 -640M262 704l0 -640M263 704l0 -640M264 704l0 -640M265 704l0 -640M266 704l0 -640M267 704l0 -640"/>
<path stroke="red" d="M268 704l0 -640M269 704l0 -640M270 704l0 -640M271 704l0 -640M272 704l0 -640M273 704l0 -640M274 704l0 -640M275 704l0 -640M276 704l0 -640M277 704l0 -640M278 704l0 -640M279 704l0 -640M280 704l0 -640M281 704l0 -640M282 704l0 -640"/>
<path stroke="red" d="M283 704l0 -640M284 704l0 -640M285 704l0 -635M286 704l0 -575M286 704l1 -530M287 704l0 -530M288 704l0 -479M288 704l1 -440M289 704l0 -440M290 704l0 -396M290 704l1 -362M291 704l0 -362M292 704l0 -324M292 704l1 -294M293 704l0 -294"/>
<path stroke="red" d="M294 704l0 -260M295 704l0 -228M295 704l1 -203M296 704l0 -203M297 704l0 -175M297 704l1 -152M298 704l0 -152M299 704l0 -126M299 704l1 -105M300 704l0 -105M301 704l0 -82M301 704l1 -63M302 704l0 -63M303 704l0 -41M304 704l0 -21"/>
<path stroke="red" d="M304 704l1 -4M305 704l0 -11M305 704l1 -14M306 704l0 -29M307 704l0 -43M307 704l1 -46M308 704l0 -60M309 704l0 -73M309 704l1 -76M310 704l0 -89M311 704l0 -101M311 704l1 -103M312 704l0 -115M312 704l1 -117M313 704l0 -129M314 704l0 -139"/>
<path stroke="red" d="M314 704l1 -142M315 704l0 -152M316 704l0 -162M316 704l1 -164M317 704l0 -173M318 704l0 -182M318 704l1 -184M319 704l0 -193M320 704l0 -201M320 704l1 -203M321 704l0 -211M321 704l1 -213M322 704l0 -220M323 704l0 -228M323 704l1 -229"/>
<path stroke="red" d="M324 704l0 -236M325 704l0 -243M325 704l1 -245M326 704l0 -251M327 704l0 -257M327 704l1 -259M328 704l0 -265M329 704l0 -271M329 704l1 -272M330 704l0 -277M330 704l1 -278M331 704l0 -640M332 704l0 -640M333 704l0 -640M334 704l0 -640"/>
<path stroke="red" d="M335 704l0 -640M336 704l0 -640M337 704l0 -640M338 704l0 -640M339 704l0 -640M340 704l0 -640M341 704l0 -640M342 704l0 -640M343 704l0 -640M344 704l0 -640M345 704l0 -640M346 704l0 -640M347 704l0 -640M348 704l0 -640M349 704l0 -640"/>
<path stroke="red" d="M350 704l0 -640M351 704l0 -640M352 704l0 -640M353 704l0 -640M354 704l0 -640M355 704l0 -640M356 704l0 -640M357 704l0 -640M358 704l0 -640M359 704l0 -640M360 704l0 -640M361 704l0 -640M362 704l0 -640M363 704l0 -640M364 704l0 -640"/>
<path stroke="red" d="M365 704l0 -640M366 704l0 -640M367 704l0 -640M368 704l0 -640M369 704l0 -640M370 704l0 -640M371 704l0 -640M372 704l0 -640M373 704l0 -640M374 704l0 -640M375 704l0 -640M376 704l0 -640M377 704l0 -640M378 704l0 -640M379 704l0 -640"/>
<path stroke="red" d="M380 704l0 -640M381 704l0 -640M381 704l1 -623M382 704l0 -623M383 704l0 -599M383 704l1 -580M384 704l0 -580M384 704l1 -559M385 704l0 -559M386 704l0 -540M386 704l1 -525M387 704l0 -525M388 704l0 -509M388 704l1 -496M389 704l0 -496"/>
<path stroke="red" d="M390 704l0 -481M390 704l1 -470M391 704l0 -470M392 704l0 -457M392 704l1 -447M393 704l0 -447M393 704l1 -435M394 704l0 -435M395 704l0 -425M395 704l1 -416M396 704l0 -416M397 704l0 -407M397 704l1 -399M398 704l0 -399M399 704l0 -391"/>
<path stroke="red" d="M399 704l1 -384M400 704l0 -384M401 704l0 -376M401 704l1 -370M402 704l0 -370M402 704l1 -363M403 704l0 -363M404 704l0 -356M404 704l1 -351M405 704l0 -351M406 704l0 -344M406 704l1 -340M407 704l0 -340M408 704l0 -334M408 704l1 -329"/>
<path stroke="red" d="M409 704l0 -329M410 704l0 -324M410 704l1 -320M411 704l0 -320M411 704l1 -315M412 704l0 -315M413 704l0 -311M413 704l1 -307M414 704l0 -307M415 704l0 -303M415 704l1 -299M416 704l0 -299M417 704l0 -295M417 704l1 -292M418 704l0 -292"/>
<path stroke="red" d="M419 704l0 -288M419 704l1 -285M420 704l0 -285M420 704l1 -282M421 704l0 -282M422 704l0 -279M422 704l1 -276M423 704l0 -276M424 704l0 -273M424 704l1 -270M425 704l0 -270M426 704l0 -267M426 704l1 -265M427 704l0 -265M428 704l0 -262"/>
<path stroke="red" d="M428 704l1 -260M429 704l0 -260M430 704l0 -640M431 704l0 -640M432 704l0 -640M433 704l0 -640M434 704l0 -640M435 704l0 -640M436 704l0 -640M437 704l0 -640M438 704l0 -640M439 704l0 -640M440 704l0 -640M441 704l0 -640M442 704l0 -640"/>
<path stroke="red" d="M443 704l0 -640M444 704l0 -640M445 704l0 -640M446 704l0 -640M447 704l0 -640M448 704l0 -640M449 704l0 -640M450 704l0 -640M451 704l0 -640M452 704l0 -640M453 704l0 -640M454 704l0 -640M455 704l0 -640M456 704l0 -640M457 704l0 -640"/>
<path stroke="red" d="M458 704l0 -640M459 704l0 -640M460 704l0 -640M461 704l0 -640M462 704l0 -640M463 704l0 -640M464 704l0 -640M465 704l0 -640M466 704l0 -640M467 704l0 -640M468 704l0 -640M469 704l0 -640M470 704l0 -640M471 704l0 -640M472 704l0 -640"/>
<path stroke="red" d="M473 704l0 -640M474 704l0 -640M475 704l0 -640M476 704l0 -640M477 704l0 -640M477 704l1 -617M478 704l0 -617M479 704l0 -586M479 704l1 -562M480 704l0 -562M481 704l0 -535M481 704l1 -514M482 704l0 -514M483 704l0 -490M484 704l0 -467"/>
<path stroke="red" d="M484 704l1 -450M485 704l0 -450M486 704l0 -430M486 704l1 -414M487 704l0 -414M488 704l0 -397M488 704l1 -383M489 704l0 -383M490 704l0 -367M490 704l1 -355M491 704l0 -355M492 704l0 -341M493 704l0 -329M493 704l1 -318M494 704l0 -318"/>
<path stroke="red" d="M495 704l0 -307M495 704l1 -298M496 704l0 -298M497 704l0 -288M497 704l1 -279M498 704l0 -279M499 704l0 -270M499 704l1 -263M500 704l0 -263M501 704l0 -255M502 704l0 -247M502 704l1 -241M503 704l0 -241M504 704l0 -235M504 704l1 -229"/>
<path stroke="red" d="M505 704l0 -229M506 704l0 -223M506 704l1 -218M507 704l0 -218M508 704l0 -213M508 704l1 -209M509 704l0 -209M510 704l0 -204M511 704l0 -640M512 704l0 -640M513 704l0 -640M514 704l0 -640M515 704l0 -640M516 704l0 -640M517 704l0 -640"/>
<path stroke="red" d="M518 704l0 -640M519 704l0 -640M520 704l0 -640M521 704l0 -640M522 704l0 -640M523 704l0 -640M524 704l0 -640M525 704l0 -640M526 704l0 -640M527 704l0 -640M528 704l0 -640M529 704l0 -640M530 704l0 -640M531 704l0 -640M532 704l0 -640"/>
<path stroke="red" d="M533 704l0 -640M534 704l0 -640M535 704l0 -640M536 704l0 -640M537 704l0 -640M538 704l0 -640M539 704l0 -640M540 704l0 -640M541 704l0 -556M541 704l1 -464M542 704l0 -464M543 704l0 -367M543 704l1 -294M544 704l0 -294M545 704l0 -216"/>
<path stroke="red" d="M545 704l1 -159M546 704l0 -159M546 704l1 -97M547 704l0 -97M548 704l0 -42M548 667l1 36M549 704l0 -75M549 704l1 -82M550 704l0 -115M551 704l0 -145M551 704l1 -151M552 704l0 -178M553 704l0 -202M553 704l1 -207M554 704l0 -228M555 704l0 -251"/>
<path stroke="red" d="M556 704l0 -269M556 704l1 -272M557 704l0 -287M558 704l0 -301M558 704l1 -303M559 704l0 -315M560 704l0 -326M560 704l1 -328M561 704l0 -337M562 704l0 -345M562 704l1 -347M563 704l0 -354M564 704l0 -362M565 704l0 -367M565 704l1 -368"/>
<path stroke="red" d="M566 704l0 -372M567 704l0 -376M567 704l1 -377M568 704l0 -380M569 704l0 -382M569 704l1 -383M570 704l0 -385M571 704l0 -386M571 704l1 -386M572 704l0 -387M573 704l0 -388M574 704l0 -388M574 704l1 -388M575 704l0 -388M576 704l0 -388"/>
<path stroke="red" d="M576 704l1 -387M577 704l0 -387M578 704l0 -386M578 704l1 -385M579 704l0 -385M580 704l0 -383M580 704l1 -381M581 704l0 -381M582 704l0 -379M583 704l0 -377M583 704l1 -375M584 704l0 -375M585 704l0 -372M585 704l1 -370M586 704l0 -370"/>
<path stroke="red" d="M587 704l0 -367M587 704l1 -364M588 704l0 -364M589 704l0 -361M589 704l1 -358M590 704l0 -358M591 704l0 -354M592 704l0 -351M592 704l1 -348M593 704l0 -348M594 704l0 -344M594 704l1 -341M595 704l0 -341M596 704l0 -338M596 704l1 -335"/>
<path stroke="red" d="M597 704l0 -335M598 704l0 -331M598 704l1 -328M599 704l0 -328M600 704l0 -324M601 704l0 -640M602 704l0 -640M603 704l0 -640M604 704l0 -640M605 704l0 -640M606 704l0 -640M607 704l0 -640M608 704l0 -640M609 704l0 -640M610 704l0 -640"/>
<path stroke="red" d="M611 704l0 -640M612 704l0 -640M613 704l0 -640M614 704l0 -640M615 704l0 -640M616 704l0 -640M617 704l0 -640M618 704l0 -640M619 704l0 -640M620 704l0 -640M621 704l0 -640M622 704l0 -640M623 704l0 -640M624 704l0 -640M625 704l0 -640"/>
<path stroke="red" d="M626 704l0 -640M627 704l0 -640M628 704l0 -640M629 704l0 -640M630 704l0 -640M631 704l0 -640M632 704l0 -640M633 704l0 -640M634 704l0 -640M635 704l0 -640M636 704l0 -640M637 704l0 -640M638 704l0 -640M639 704l0 -640M640 704l0 -640"/>
<path stroke="red" d="M641 704l0 -640M642 704l0 -640M643 704l0 -640M644 704l0 -640M645 704l0 -635M646 704l0 -575M646 704l1 -530M647 704l0 -530M648 704l0 -479M648 704l1 -440M649 704l0 -440M650 704l0 -396M650 704l1 -362M651 704l0 -362M652 704l0 -324"/>
<path stroke="red" d="M652 704l1 -294M653 704l0 -294M654 704l0 -260M655 704l0 -228M655 704l1 -203M656 704l0 -203M657 704l0 -175M657 704l1 -152M658 704l0 -152M659 704l0 -126M659 704l1 -105M660 704l0 -105M661 704l0 -82M661 704l1 -63M662 704l0 -63"/>
<path stroke="red" d="M663 704l0 -41M664 704l0 -21M664 704l1 -4M665 704l0 -11M665 704l1 -14M666 704l0 -29M667 704l0 -43M667 704l1 -46M668 704l0 -60M669 704l0 -73M669 704l1 -76M670 704l0 -89M671 704l0 -101M671 704l1 -103M672 704l0 -115M672 704l1 -117"/>
<path stroke="red" d="M673 704l0 -129M674 704l0 -139M674 704l1 -142M675 704l0 -152M676 704l0 -162M676 704l1 -164M677 704l0 -173M678 704l0 -182M678 704l1 -184M679 704l0 -193M680 704l0 -201M680 704l1 -203M681 704l0 -211M681 704l1 -213M682 704l0 -220"/>
<path stroke="red" d="M683 704l0 -228M683 704l1 -229M684 704l0 -236M685 704l0 -243M685 704l1 -245M686 704l0 -251M687 704l0 -257M687 704l1 -259M688 704l0 -265M689 704l0 -271M689 704l1 -272M690 704l0 -277M690 704l1 -278M691 704l0 -640M692 704l0 -640"/>
<path stroke="red" d="M693 704l0 -640M694 704l0 -640M695 704l0 -640M696 704l0 -640M697 704l0 -640M698 704l0 -640M699 704l0 -640M700 704l0 -640M701 704l0 -640M702 704l0 -640M703 704l0 -640M704 704l0 -640M705 704l0 -640M706 704l0 -640M707 704l0 -640"/>
<path stroke="red" d="M708 704l0 -640M709 704l0 -640M710 704l0 -640M711 704l0 -640M712 704l0 -640M713 704l0 -640M714 704l0 -640M715 704l0 -640M716 704l0 -640M717 704l0 -640M718 704l0 -640M719 704l0 -640M720 704l0 -640M721 704l0 -640M722 704l0 -640"/>
<path stroke="red" d="M723 704l0 -640M724 704l0 -640M725 704l0 -640M726 704l0 -640M727 704l0 -640M728 704l0 -640M729 704l0 -640M730 704l0 -640M731 704l0 -640M732 704l0 -640M733 704l0 -640M734 704l0 -640M735 704l0 -640M736 704l0 -640M737 704l0 -640"/>
<path stroke="red" d="M738 704l0 -640M739 704l0 -640M740 704l0 -640M741 704l0 -640M741 704l1 -623M742 704l0 -623M743 704l0 -599M743 704l1 -580M744 704l0 -580M744 704l1 -559M745 704l0 -559M746 704l0 -540M746 704l1 -525M747 704l0 -525M748 704l0 -509"/>
<path stroke="red" d="M748 704l1 -496M749 704l0 -496M750 704l0 -481M750 704l1 -470M751 704l0 -470M752 704l0 -457M752 704l1 -447M753 704l0 -447M753 704l1 -435M754 704l0 -435M755 704l0 -425M755 704l1 -416M756 704l0 -416M757 704l0 -407M757 704l1 -399"/>
<path stroke="red" d="M758 704l0 -399M759 704l0 -391M759 704l1 -384M760 704l0 -384M761 704l0 -376M761 704l1 -370M762 704l0 -370M762 704l1 -363M763 704l0 -363M764 704l0 -356M764 704l1 -351M765 704l0 -351M766 704l0 -344M766 704l1 -340M767 704l0 -340"/>
<path stroke="red" d="M768 704l0 -334M768 704l1 -329M769 704l0 -329M770 704l0 -324M770 704l1 -320M771 704l0 -320M771 704l1 -315M772 704l0 -315M773 704l0 -311M773 704l1 -307M774 704l0 -307M775 704l0 -303M775 704l1 -299M776 704l0 -299M777 704l0 -295"/>
<path stroke="red" d="M777 704l1 -292M778 704l0 -292M779 704l0 -288M779 704l1 -285M780 704l0 -285M780 704l1 -282M781 704l0 -282M782 704l0 -279M782 704l1 -276M783 704l0 -276M784 704l0 -273M784 704l1 -270M785 704l0 -270M786 704l0 -267M786 704l1 -265"/>
<path stroke="red" d="M787 704l0 -265M788 704l0 -262M788 704l1 -260M789 704l0 -260M790 704l0 -640M791 704l0 -640M792 704l0 -640M793 704l0 -640M794 704l0 -640M795 704l0 -640M796 704l0 -640M797 704l0 -640M798 704l0 -640M799 704l0 -640M800 704l0 -640"/>
<path stroke="red" d="M801 704l0 -640M802 704l0 -640M803 704l0 -640M804 704l0 -640M805 704l0 -640M806 704l0 -640M807 704l0 -640M808 704l0 -640M809 704l0 -640M810 704l0 -640M811 704l0 -640M812 704l0 -640M813 704l0 -640M814 704l0 -640M815 704l0 -640"/>
<path stroke="red" d="M816 704l0 -640M817 704l0 -640M818 704l0 -640M819 704l0 -640M820 704l0 -640M821 704l0 -640M822 704l0 -640M823 704l0 -640M824 704l0 -640M825 704l0 -640M826 704l0 -640M827 704l0 -640M828 704l0 -640M829 704l0 -640M830 704l0 -640"/>
<path stroke="red" d="M831 704l0 -640M832 704l0 -640M833 704l0 -640M834 704l0 -640M835 704l0 -640M836 704l0 -640M837 704l0 -640M837 704l1 -617M838 704l0 -617M839 704l0 -586M839 704l1 -562M840 704l0 -562M841 704l0 -535M841 704l1 -514M842 704l0 -514"/>
<path stroke="red" d="M843 704l0 -490M844 704l0 -467M844 704l1 -450M845 704l0 -450M846 704l0 -430M846 704l1 -414M847 704l0 -414M848 704l0 -397M848 704l1 -383M849 704l0 -383M850 704l0 -367M850 704l1 -355M851 704l0 -355M852 704l0 -341M853 704l0 -329"/>
<path stroke="red" d="M853 704l1 -318M854 704l0 -318M855 704l0 -307M855 704l1 -298M856 704l0 -298M857 704l0 -288M857 704l1 -279M858 704l0 -279M859 704l0 -270M859 704l1 -263M860 704l0 -263M861 704l0 -255M862 704l0 -247M862 704l1 -241M863 704l0 -241"/>
<path stroke="red" d="M864 704l0 -235M864 704l1 -229M865 704l0 -229M866 704l0 -223M866 704l1 -218M867 704l0 -218M868 704l0 -213M868 704l1 -209M869 704l0 -209M870 704l0 -204M871 704l0 -640M872 704l0 -640M873 704l0 -640M874 704l0 -640M875 704l0 -640"/>
<path stroke="red" d="M876 704l0 -640M877 704l0 -640M878 704l0 -640M879 704l0 -640M880 704l0 -640M881 704l0 -640M882 704l0 -640M883 704l0 -640M884 704l0 -640M885 704l0 -640M886 704l0 -640M887 704l0 -640M888 704l0 -640M889 704l0 -640M890 704l0 -640"/>
<path stroke="red" d="M891 704l0 -640M892 704l0 -640M893 704l0 -640M894 704l0 -640M895 704l0 -640M896 704l0 -640M897 704l0 -640M898 704l0 -640M899 704l0 -640M900 704l0 -640M901 704l0 -556M901 704l1 -464M902 704l0 -464M903 704l0 -367M903 704l1 -294"/>
<path stroke="red" d="M904 704l0 -294M905 704l0 -216M905 704l1 -159M906 704l0 -159M906 704l1 -97M907 704l0 -97M908 704l0 -42M908 667l1 36M909 704l0 -75M909 704l1 -82M910 704l0 -115M911 704l0 -145M911 704l1 -151M912 704l0 -178M913 704l0 -202M913 704l1 -207"/>
<path stroke="red" d="M914 704l0 -228M915 704l0 -251M916 704l0 -269M916 704l1 -272M917 704l0 -287M918 704l0 -301M918 704l1 -303M919 704l0 -315M920 704l0 -326M920 704l1 -328M921 704l0 -337M922 704l0 -345M922 704l1 -347M923 704l0 -354M924 704l0 -362"/>
<path stroke="red" d="M925 704l0 -367M925 704l1 -368M926 704l0 -372M927 704l0 -376M927 704l1 -377M928 704l0 -380M929 704l0 -382M929 704l1 -383M930 704l0 -385M931 704l0 -386M931 704l1 -386M932 704l0 -387M933 704l0 -388M934 704l0 -388M934 704l1 -388"/>
<path stroke="red" d="M935 704l0 -388M936 704l0 -388M936 704l1 -387M937 704l0 -387M938 704l0 -386M938 704l1 -385M939 704l0 -385M940 704l0 -383M940 704l1 -381M941 704l0 -381M942 704l0 -379M943 704l0 -377M943 704l1 -375M944 704l0 -375M945 704l0 -372"/>
<path stroke="red" d="M945 704l1 -370M946 704l0 -370M947 704l0 -367M947 704l1 -364M948 704l0 -364M949 704l0 -361M949 704l1 -358M950 704l0 -358M951 704l0 -354M952 704l0 -351M952 704l1 -348M953 704l0 -348M954 704l0 -344M954 704l1 -341M955 704l0 -341"/>
<path stroke="red" d="M956 704l0 -338M956 704l1 -335M957 704l0 -335M958 704l0 -331M958 704l1 -328M959 704l0 -328M960 704l0 -324"/>
</svg>
