<?xml version="1.0" standalone="yes"?>
<!DOCTYPE svg PUBLIC "-//W3C//DTD SVG 1.1//EN"
 "http://www.w3.org/Graphics/SVG/1.1/DTD/svg11.dtd">
<svg xmlns="http://www.w3.org/2000/svg" version="1.1"
  width="100%" height="100%" viewBox="0 0 1024 768"
  style="fill: none; stroke-width: 3; font-family: Helvetica;
 font: Helvetica;
">

<!-- Creator: NGspice -->

<rect x="0" y="0" width="1024" height="768" fill="white" stroke="none"/>
<text stroke="none" fill="black" font-size="16" x="358" y="752">
time
</text>
<text stroke="none" fill="black" font-size="16" x="10" y="16">
tran1: Transient: Logic Output
</text>
<path stroke="black" stroke-width="3" d="M50 704l0 -640"/>
<text stroke="none" fill="black" font-size="16" x="35" y="728">
0.0
</text>
<path stroke="black" stroke-width="3" stroke-dasharray="1,2" d="M142 704l0 -640"/>
<text stroke="none" fill="black" font-size="16" x="122" y="728">
10.0
</text>
<path stroke="black" stroke-width="3" stroke-dasharray="1,2" d="M234 704l0 -640"/>
<text stroke="none" fill="black" font-size="16" x="214" y="728">
20.0
</text>
<path stroke="black" stroke-width="3" stroke-dasharray="1,2" d="M326 704l0 -640"/>
<text stroke="none" fill="black" font-size="16" x="306" y="728">
30.0
</text>
<path stroke="black" stroke-width="3" stroke-dasharray="1,2" d="M418 704l0 -640"/>
<text stroke="none" fill="black" font-size="16" x="398" y="728">
40.0
</text>
<path stroke="black" stroke-width="3" stroke-dasharray="1,2" d="M510 704l0 -640"/>
<text stroke="none" fill="black" font-size="16" x="490" y="728">
50.0
</text>
<path stroke="black" stroke-width="3" stroke-dasharray="1,2" d="M602 704l0 -640"/>
<text stroke="none" fill="black" font-size="16" x="582" y="728">
60.0
</text>
<path stroke="black" stroke-width="3" stroke-dasharray="1,2" d="M694 704l0 -640"/>
<text stroke="none" fill="black" font-size="16" x="674" y="728">
70.0
</text>
<path stroke="black" stroke-width="3" stroke-dasharray="1,2" d="M786 704l0 -640"/>
<text stroke="none" fill="black" font-size="16" x="766" y="728">
80.0
</text>
<path stroke="black" stroke-width="3" stroke-dasharray="1,2" d="M878 704l0 -640"/>
<text stroke="none" fill="black" font-size="16" x="858" y="728">
90.0
</text>
<path stroke="black" stroke-width="3" stroke-dasharray="1,2" d="M970 704l0 -640"/>
<text stroke="none" fill="black" font-size="16" x="945" y="728">
100.0
</text>
<text stroke="none" fill="black" font-size="16" x="614" y="752">
ns
</text>
<path stroke="black" stroke-width="3" stroke-dasharray="1,2" d="M50 704l920 0"/>
<text stroke="none" fill="black" font-size="16" x="8" y="712">
-0.2
</text>
<path stroke="black" stroke-width="3" d="M50 640l920 0"/>
<text stroke="none" fill="black" font-size="16" x="18" y="648">
0.0
</text>
<path stroke="black" stroke-width="3" stroke-dasharray="1,2" d="M50 576l920 0"/>
<text stroke="none" fill="black" font-size="16" x="18" y="584">
0.2
</text>
<path stroke="black" stroke-width="3" stroke-dasharray="1,2" d="M50 512l920 0"/>
<text stroke="none" fill="black" font-size="16" x="18" y="520">
0.4
</text>
<path stroke="black" stroke-width="3" stroke-dasharray="1,2" d="M50 448l920 0"/>
<text stroke="none" fill="black" font-size="16" x="18" y="456">
0.6
</text>
<path stroke="black" stroke-width="3" stroke-dasharray="1,2" d="M50 384l920 0"/>
<text stroke="none" fill="black" font-size="16" x="18" y="392">
0.8
</text>
<path stroke="black" stroke-width="3" stroke-dasharray="1,2" d="M50 320l920 0"/>
<text stroke="none" fill="black" font-size="16" x="18" y="328">
1.0
</text>
<path stroke="black" stroke-width="3" stroke-dasharray="1,2" d="M50 256l920 0"/>
<text stroke="none" fill="black" font-size="16" x="18" y="264">
1.2
</text>
<path stroke="black" stroke-width="3" stroke-dasharray="1,2" d="M50 192l920 0"/>
<text stroke="none" fill="black" font-size="16" x="18" y="200">
1.4
</text>
<path stroke="black" stroke-width="3" stroke-dasharray="1,2" d="M50 128l920 0"/>
<text stroke="none" fill="black" font-size="16" x="18" y="136">
1.6
</text>
<path stroke="black" stroke-width="3" stroke-dasharray="1,2" d="M50 64l920 0"/>
<text stroke="none" fill="black" font-size="16" x="18" y="72">
1.8
</text>
<text stroke="none" fill="black" font-size="16" x="10" y="32">
V
</text>
<path stroke="red" d="M460 23l46 0"/>
<text stroke="none" fill="black" font-size="16" x="516" y="32">
v(y)
</text>
<path stroke="red" d="M50 640l9 0 0 -126 1 -54M60 640l0 -277M60 640l83 0M143 656l0 -17 1 -54 0 -521 91 0M235 270l0 -206M235 270l1 23M236 640l0 -347M236 640l7 0 0 -124 1 -50 0 -401 1 -1 82 0M327 277l0 -213M327 277l1 46M328 640l0 -317M328 640l99 0"/>
<path stroke="red" d="M427 640l0 -126 1 -54M428 640l0 -277M428 640l83 0M511 656l0 -17 1 -54 0 -521 91 0M603 270l0 -206M603 270l1 23M604 640l0 -347M604 640l7 0 0 -124 1 -50 0 -401 1 -1 82 0M695 277l0 -213M695 277l1 46M696 640l0 -317M696 640l99 0"/>
<path stroke="red" d="M795 640l0 -126 1 -54M796 640l0 -277M796 640l83 0M879 656l0 -17 1 -54 0 -521 90 0"/>
</svg>
