<?xml version="1.0" standalone="yes"?>
<!DOCTYPE svg PUBLIC "-//W3C//DTD SVG 1.1//EN"
 "http://www.w3.org/Graphics/SVG/1.1/DTD/svg11.dtd">
<svg xmlns="http://www.w3.org/2000/svg" version="1.1"
  width="100%" height="100%" viewBox="0 0 1024 768"
  style="fill: none; stroke-width: 3; font-family: Helvetica;
 font: Helvetica;
">

<!-- Creator: NGspice -->

<rect x="0" y="0" width="1024" height="768" fill="white" stroke="none"/>
<text stroke="none" fill="black" font-size="16" x="358" y="752">
time
</text>
<text stroke="none" fill="black" font-size="16" x="10" y="16">
tran1: Total Supply Current
</text>
<path stroke="black" stroke-width="3" d="M50 704l0 -640"/>
<text stroke="none" fill="black" font-size="16" x="35" y="728">
0.0
</text>
<path stroke="black" stroke-width="3" stroke-dasharray="1,2" d="M204 704l0 -640"/>
<text stroke="none" fill="black" font-size="16" x="189" y="728">
0.5
</text>
<path stroke="black" stroke-width="3" stroke-dasharray="1,2" d="M358 704l0 -640"/>
<text stroke="none" fill="black" font-size="16" x="343" y="728">
1.0
</text>
<path stroke="black" stroke-width="3" stroke-dasharray="1,2" d="M512 704l0 -640"/>
<text stroke="none" fill="black" font-size="16" x="497" y="728">
1.5
</text>
<path stroke="black" stroke-width="3" stroke-dasharray="1,2" d="M666 704l0 -640"/>
<text stroke="none" fill="black" font-size="16" x="651" y="728">
2.0
</text>
<path stroke="black" stroke-width="3" stroke-dasharray="1,2" d="M820 704l0 -640"/>
<text stroke="none" fill="black" font-size="16" x="805" y="728">
2.5
</text>
<path stroke="black" stroke-width="3" stroke-dasharray="1,2" d="M974 704l0 -640"/>
<text stroke="none" fill="black" font-size="16" x="959" y="728">
3.0
</text>
<text stroke="none" fill="black" font-size="16" x="614" y="752">
us
</text>
<path stroke="black" stroke-width="3" stroke-dasharray="1,2" d="M50 704l924 0"/>
<text stroke="none" fill="black" font-size="16" x="8" y="712">
-0.8
</text>
<path stroke="black" stroke-width="3" stroke-dasharray="1,2" d="M50 640l924 0"/>
<text stroke="none" fill="black" font-size="16" x="8" y="648">
-0.6
</text>
<path stroke="black" stroke-width="3" stroke-dasharray="1,2" d="M50 576l924 0"/>
<text stroke="none" fill="black" font-size="16" x="8" y="584">
-0.4
</text>
<path stroke="black" stroke-width="3" stroke-dasharray="1,2" d="M50 512l924 0"/>
<text stroke="none" fill="black" font-size="16" x="8" y="520">
-0.2
</text>
<path stroke="black" stroke-width="3" d="M50 448l924 0"/>
<text stroke="none" fill="black" font-size="16" x="18" y="456">
0.0
</text>
<path stroke="black" stroke-width="3" stroke-dasharray="1,2" d="M50 384l924 0"/>
<text stroke="none" fill="black" font-size="16" x="18" y="392">
0.2
</text>
<path stroke="black" stroke-width="3" stroke-dasharray="1,2" d="M50 320l924 0"/>
<text stroke="none" fill="black" font-size="16" x="18" y="328">
0.4
</text>
<path stroke="black" stroke-width="3" stroke-dasharray="1,2" d="M50 256l924 0"/>
<text stroke="none" fill="black" font-size="16" x="18" y="264">
0.6
</text>
<path stroke="black" stroke-width="3" stroke-dasharray="1,2" d="M50 192l924 0"/>
<text stroke="none" fill="black" font-size="16" x="18" y="200">
0.8
</text>
<path stroke="black" stroke-width="3" stroke-dasharray="1,2" d="M50 128l924 0"/>
<text stroke="none" fill="black" font-size="16" x="18" y="136">
1.0
</text>
<path stroke="black" stroke-width="3" stroke-dasharray="1,2" d="M50 64l924 0"/>
<text stroke="none" fill="black" font-size="16" x="18" y="72">
1.2
</text>
<text stroke="none" fill="black" font-size="16" x="10" y="32">
mA
</text>
<path stroke="red" d="M462 23l46 0"/>
<text stroke="none" fill="black" font-size="16" x="518" y="32">
-i(v_supply)
</text>
<path stroke="red" d="M50 696l0 -573M50 441l1 12 0 -11M51 450l1 -4M52 450l0 -92M52 448l1 0M53 479l0 -116M53 371l1 -6M54 449l0 -86M54 447l1 2 0 -92M55 449l1 -2M56 510l0 -149M56 419l1 10M57 448l0 -19M57 448l1 0M58 452l0 -90M58 452l1 -8M59 453l0 -93"/>
<path stroke="red" d="M59 450l1 -7M60 479l0 -115M60 453l1 -10M61 453l0 -96M61 449l1 -2M62 450l0 -89M62 417l1 14M63 541l0 -212M63 450l1 -4M64 451l0 -95M64 445l1 6 0 -88M65 411l1 12M66 479l0 -121M66 444l1 8 0 -95M67 450l1 -4M68 452l0 -9M68 452l1 -9"/>
<path stroke="red" d="M69 510l0 -150M69 448l1 0M70 451l0 -87M70 451l1 -6M71 451l0 -6M71 449l1 -2M72 479l0 -122M72 453l1 -10M73 453l0 -96M73 445l1 5 0 -5M74 449l1 -2M75 572l0 -283M75 450l1 -5M76 450l0 -92M76 448l1 -1M77 449l0 -2 1 2M78 479l0 -117"/>
<path stroke="red" d="M78 449l1 -3M79 452l0 -95M79 437l1 10M80 451l0 -9M80 445l1 6M81 510l0 -149M81 448l1 0 0 -85M82 379l1 -4M83 456l0 -97M83 456l1 -16M84 479l0 -120M84 449l1 -3M85 454l0 -97M85 372l1 13M86 454l0 -92M86 454l1 -12M87 541l0 -212"/>
<path stroke="red" d="M87 445l1 3M88 452l0 -8 1 8M89 454l0 -98M89 442l1 12M90 479l0 -117M90 407l1 -24M91 456l0 -96M91 442l1 12M92 456l0 -99M92 456l1 -17M93 510l0 -150M93 448l1 -1M94 448l0 -1M94 448l1 0M95 451l0 -87M95 444l1 7M96 460l0 -103M96 436l1 24"/>
<path stroke="red" d="M97 479l0 -116M97 448l1 0M98 453l0 -96M98 445l1 6 0 -90M99 446l1 3M100 603l0 -355M100 453l1 -10M101 458l0 -103M101 457l1 -19M102 457l0 -94M102 388l1 23M103 479l0 -118M103 445l1 6 0 -94M104 447l1 2 0 -64 1 -24M106 510l0 -149"/>
<path stroke="red" d="M106 448l1 0M107 454l0 -92M107 454l1 -12M108 454l0 -12 1 12M109 479l0 -119M109 455l1 -14M110 456l0 -99M110 444l1 8 0 -8M111 449l1 -3M112 541l0 -212M112 453l1 -10M113 453l0 -97M113 445l1 5 0 -5M114 450l1 -4M115 479l0 -119"/>
<path stroke="red" d="M115 446l1 4 0 -93M116 446l1 1M117 451l0 -6 1 6M118 510l0 -149M118 448l1 0 0 -84M119 384l1 -17M120 453l0 -94M120 445l1 6M121 479l0 -121M121 455l1 -14M122 456l0 -99M122 375l1 15M123 452l0 -87M123 444l1 8M124 572l0 -283M124 451l1 -6"/>
<path stroke="red" d="M125 451l0 -22M125 431l1 -2M126 450l0 -92M126 446l1 4M127 479l0 -117M127 384l1 18M128 455l0 -90M128 441l1 14 0 -98M129 453l1 -10M130 510l0 -149M130 448l1 -1M131 448l0 -1M131 448l1 0M132 457l0 -99M132 439l1 18M133 479l0 -116"/>
<path stroke="red" d="M133 412l1 7M134 453l0 -92M134 443l1 10M135 455l0 -98M135 441l1 14M136 457l0 -99M136 454l1 -12M137 541l0 -212M137 452l1 -8M138 455l0 -99M138 455l1 -14M139 455l0 -92M139 411l1 -18M140 479l0 -125M140 455l1 -14M141 455l0 -98"/>
<path stroke="red" d="M141 441l1 14M142 456l0 -95M142 384l1 -16M143 510l0 -155M143 448l1 0M144 451l0 -87M144 451l1 -6M145 451l0 -6M145 451l1 -6M146 479l0 -128M146 450l1 -4M147 453l0 -96M147 452l1 -8M148 452l0 -8M148 448l1 0M149 634l0 -426M149 445l1 6"/>
<path stroke="red" d="M150 452l0 -94M150 443l1 9M151 453l0 -10 1 10M152 479l0 -119M152 449l1 -2M153 452l0 -95M153 443l1 9 0 -9M154 444l1 8M155 510l0 -149M155 448l1 0 0 -88M156 425l1 8M157 448l0 -15M157 447l1 1M158 479l0 -122M158 450l1 -4M159 450l0 -93"/>
<path stroke="red" d="M159 365l1 32M160 450l0 -87M160 446l1 4M161 541l0 -212M161 447l1 1M162 449l0 -79M162 410l1 -33M163 451l0 -95M163 451l1 -6M164 479l0 -119M164 454l1 -13M165 454l0 -13M165 452l1 -8M166 455l0 -98M166 441l1 14M167 510l0 -149"/>
<path stroke="red" d="M167 447l1 1 0 -1M168 448l1 0M169 450l0 -85M169 450l1 -4M170 479l0 -122M170 422l1 -7M171 452l0 -91M171 444l1 8M172 454l0 -97M172 452l1 -8M173 452l0 -91M173 451l1 -7M174 572l0 -283M174 446l1 4 0 -92M175 448l1 0M176 450l0 -88"/>
<path stroke="red" d="M176 386l1 -27M177 479l0 -120M177 449l1 -2M178 450l0 -93M178 450l1 -4M179 450l0 -89M179 401l1 -38M180 510l0 -149M180 448l1 0M181 455l0 -99M181 441l1 14M182 456l0 -71 1 -22M183 479l0 -120M183 442l1 12M184 455l0 -98M184 449l1 -2"/>
<path stroke="red" d="M185 450l0 -4M185 450l1 -4M186 541l0 -212M186 448l1 0M187 450l0 -94M187 450l1 -5M188 451l0 -6 1 6M189 479l0 -119M189 451l1 -6M190 454l0 -97M190 441l1 13M191 457l0 -18M191 457l1 -18M192 510l0 -150M192 448l1 0 0 -86M193 445l1 2"/>
<path stroke="red" d="M194 450l0 -4 1 4M195 479l0 -123M195 444l1 8 0 -95M196 401l1 21M197 450l0 -84M197 450l1 -4M198 603l0 -355M198 445l1 5 0 -92M199 365l1 41M200 461l0 -97M200 460l1 -24M201 479l0 -117M201 452l1 -8M202 452l0 -22M202 431l1 -3"/>
<path stroke="red" d="M203 452l0 -95M203 452l1 -8M204 510l0 -149M204 448l2 0M206 450l0 -87M206 450l1 -4M207 479l0 -119M207 395l1 -29M208 454l0 -94M208 454l1 -12M209 455l0 -98M209 443l1 10M210 541l0 -212M210 388l1 19M211 457l0 -92M211 455l1 -14"/>
<path stroke="red" d="M212 455l0 -99M212 450l1 -4M213 455l0 -92M213 455l1 -16M214 479l0 -116M214 449l1 -3M215 452l0 -95M215 446l1 4 0 -89M216 380l1 28M217 510l0 -146M217 448l1 0M218 457l0 -93M218 456l1 -16M219 456l0 -93M219 385l1 -17M220 479l0 -115"/>
<path stroke="red" d="M220 458l1 -20M221 458l0 -101M221 451l1 -6M222 453l0 -10M222 453l1 -11M223 572l0 -283M223 450l1 -4M224 454l0 -97M224 454l1 -12M225 454l0 -12M225 451l1 -7M226 479l0 -118M226 452l1 -8M227 457l0 -100M227 439l1 17 0 -17M228 440l1 16"/>
<path stroke="red" d="M229 510l0 -149M229 448l1 0M230 458l0 -95M230 458l1 -21M231 459l0 -22M231 459l1 -22M232 479l0 -118M232 448l1 0M233 451l0 -94M233 370l1 -8M234 454l0 -92M234 454l1 -12M235 541l0 -212M235 449l1 -3M236 450l0 -94M236 369l1 15"/>
<path stroke="red" d="M237 459l0 -93M237 437l1 22M238 479l0 -116M238 435l1 26 0 -104M239 368l1 13M240 452l0 -86M240 452l1 -8M241 510l0 -149M241 448l2 0M243 450l0 -88M243 449l1 -2M244 479l0 -119M244 418l1 -6M245 449l0 -85M245 448l1 0M246 457l0 -100"/>
<path stroke="red" d="M246 442l1 12M247 665l0 -498M247 340l1 -24M248 451l0 -135M248 450l1 -5M249 453l0 -95M249 452l1 -8M250 452l0 -89M250 444l1 7M251 479l0 -118M251 449l1 -2M252 450l0 -93M252 448l1 0M253 449l0 -88M253 449l1 -6M254 510l0 -142"/>
<path stroke="red" d="M254 448l1 0M255 453l0 -91M255 453l1 -10M256 453l0 -91 1 36M257 479l0 -119M257 453l1 -10M258 454l0 -97M258 450l1 -4M259 453l0 -68 1 -24M260 541l0 -212M260 446l1 4M261 451l0 -95M261 445l1 6 0 -6M262 451l1 -6M263 479l0 -117"/>
<path stroke="red" d="M263 444l1 7M264 455l0 -98M264 455l1 -15M265 456l0 -16M265 441l1 14M266 510l0 -149M266 448l1 0M267 451l0 -90M267 444l1 7 0 -7M268 450l1 -4M269 479l0 -120M269 449l1 -2M270 450l0 -93M270 446l1 3 0 -3M271 447l1 2M272 572l0 -283"/>
<path stroke="red" d="M272 451l1 -6M273 451l0 -93M273 400l1 -39M274 449l0 -88M274 448l1 0M275 479l0 -117M275 450l1 -5M276 452l0 -95M276 368l1 34M277 449l0 -88M277 448l1 0M278 510l0 -149M278 448l1 0 0 -19M279 431l1 -2M280 454l0 -96M280 442l1 11"/>
<path stroke="red" d="M281 479l0 -118M281 378l1 4M282 453l0 -82M282 443l1 10M283 454l0 -97M283 442l1 12M284 541l0 -212M284 413l1 5M285 452l0 -88M285 452l1 -8M286 452l0 -96M286 450l1 -4M287 479l0 -117M287 411l1 7M288 450l0 -94M288 450l1 -4M289 456l0 -99"/>
<path stroke="red" d="M289 440l1 16M290 457l0 -100M290 450l1 -4M291 510l0 -142M291 448l1 0M292 451l0 -87M292 451l1 -6M293 452l0 -89M293 406l1 -18M294 479l0 -125M294 449l1 -2M295 449l0 -92M295 447l1 2M296 450l0 -89M296 411l1 12M297 603l0 -355"/>
<path stroke="red" d="M297 446l1 4M298 456l0 -98M298 440l1 16M299 457l0 -18 1 18M300 479l0 -120M300 450l1 -5M301 453l0 -96M301 443l1 10 0 -10M302 445l1 6M303 510l0 -149M303 448l1 0 0 -90M304 448l1 0M305 451l0 -6 1 6M306 479l0 -121M306 445l1 6"/>
<path stroke="red" d="M307 453l0 -96M307 450l1 -5M308 450l0 -5M308 449l1 -3M309 541l0 -212M309 444l1 8 0 -96M310 374l1 53M311 451l0 -24M311 448l1 0M312 479l0 -117M312 447l1 1 0 -91M313 399l1 -24M314 451l0 -88M314 444l1 8M315 510l0 -149M315 448l1 0"/>
<path stroke="red" d="M316 448l0 -77M316 418l1 -16M317 451l0 -87M317 445l1 6M318 479l0 -121M318 430l1 15M319 455l0 -15M319 441l1 14 0 -98M320 445l1 6M321 572l0 -283M321 444l1 7 0 -7M322 446l1 4M323 455l0 -97M323 444l1 8M324 479l0 -116M324 405l1 -35"/>
<path stroke="red" d="M325 451l0 -92M325 445l1 6M326 452l0 -95M326 452l1 -8M327 453l0 -93M327 450l1 -4M328 510l0 -142M328 448l1 0M329 456l0 -93M329 440l1 16M330 457l0 -94M330 405l1 -34M331 479l0 -118M331 444l1 8M332 453l0 -96M332 445l1 5M333 454l0 -93"/>
<path stroke="red" d="M333 408l1 10M334 541l0 -212M334 448l1 0M335 454l0 -98M335 454l1 -12M336 455l0 -70 1 -22M337 479l0 -118M337 455l1 -14M338 455l0 -98M338 446l1 4M339 455l0 -14M339 455l1 -14M340 510l0 -149M340 448l1 0M341 452l0 -88M341 445l1 6"/>
<path stroke="red" d="M342 451l0 -6M342 447l1 2M343 479l0 -118M343 446l1 4M344 451l0 -94M344 451l1 -6M345 451l0 -6M345 447l1 2M346 634l0 -426M346 445l1 6 0 -93M347 442l1 6M348 452l0 -9M348 452l1 -9M349 479l0 -116M349 448l1 0 0 -91M350 365l1 16"/>
<path stroke="red" d="M351 454l0 -91M351 454l1 -13M352 510l0 -149M352 448l1 0 0 -77M353 405l1 -35M354 449l0 -89M354 447l1 2M355 479l0 -117M355 445l1 5 0 -20M356 431l1 -3M357 450l0 -93M357 450l1 -4M358 541l0 -212M358 383l1 8M359 449l0 -58M359 447l1 2"/>
<path stroke="red" d="M360 451l0 -95M360 450l1 -4M361 479l0 -116M361 366l1 43M362 449l0 -89M362 448l1 0M363 455l0 -98M363 455l1 -14M364 510l0 -149M364 419l1 10M365 448l0 -19M365 448l1 0M366 449l0 -84M366 446l1 4 0 -93M367 450l1 -4M368 479l0 -113"/>
<path stroke="red" d="M368 451l1 -6M369 452l0 -95M369 450l1 -4M370 450l0 -89M370 443l1 -2M371 572l0 -283M371 450l1 -4M372 456l0 -98M372 454l1 -12M373 454l0 -91M373 411l1 2M374 479l0 -117M374 449l1 -2M375 449l0 -92M375 447l1 2M376 450l0 -4 1 4"/>
<path stroke="red" d="M377 510l0 -149M377 448l1 0M378 453l0 -90M378 453l1 -11M379 455l0 -14M379 455l1 -15M380 479l0 -118M380 452l1 -9M381 455l0 -98M381 449l1 -2M382 449l0 -2M382 449l1 -2M383 541l0 -212M383 450l1 -4M384 450l0 -94M384 446l1 3M385 451l0 -6"/>
<path stroke="red" d="M385 445l1 6M386 479l0 -119M386 444l1 8 0 -95M387 372l1 36M388 453l0 -45M388 453l1 -10M389 510l0 -149M389 448l1 0 0 -77M390 397l1 -20M391 452l0 -90M391 450l1 -4M392 479l0 -117M392 449l1 -3M393 453l0 -96M393 372l1 13M394 450l0 -85"/>
<path stroke="red" d="M394 450l1 -4M395 603l0 -355M395 451l1 -7M396 451l0 -7M396 450l1 -4M397 456l0 -98M397 456l1 -16M398 479l0 -117M398 375l1 -6M399 451l0 -82M399 450l1 -4M400 451l0 -94M400 451l1 -6M401 510l0 -149M401 448l1 -1M402 448l0 -1M402 448l1 0"/>
<path stroke="red" d="M403 450l0 -85M403 450l1 -4M404 451l0 -91M404 449l1 -3M405 479l0 -115M405 453l1 -11M406 454l0 -97M406 448l1 0M407 450l0 -89M407 443l1 5M408 541l0 -212M408 453l1 -10M409 454l0 -98M409 449l1 -2M410 449l0 -86M410 400l1 -36"/>
<path stroke="red" d="M411 479l0 -116M411 448l1 -1M412 449l0 -92M412 447l1 2 0 -64 1 -24M414 510l0 -149M414 448l1 0M415 453l0 -89M415 453l1 -10M416 455l0 -14 1 14M417 479l0 -116M417 452l1 -8M418 455l0 -98M418 449l1 -2M419 453l0 -10 1 10M420 572l0 -283"/>
<path stroke="red" d="M420 450l1 -4M421 452l0 -94M421 452l1 -9M422 452l0 -9M422 445l1 6M423 479l0 -116M423 450l1 -4M424 453l0 -96M424 448l1 0M425 452l0 -8M425 452l1 -8M426 510l0 -149M426 448l1 0 0 -85M427 377l1 0M428 454l0 -81M428 442l1 12M429 479l0 -118"/>
<path stroke="red" d="M429 444l1 8 0 -95M430 419l1 -5M431 453l0 -73M431 443l1 10M432 541l0 -212M432 449l1 -3M433 450l0 -21M433 431l1 -2M434 457l0 -101M434 457l1 -18M435 479l0 -118M435 363l1 35M436 458l0 -60M436 458l1 -20M437 458l0 -101M437 444l1 8"/>
<path stroke="red" d="M438 510l0 -149M438 448l1 -1M439 448l0 -1M439 448l1 0M440 449l0 -78M440 448l1 0M441 479l0 -121M441 412l1 7M442 449l0 -72M442 447l1 2M443 456l0 -99M443 455l1 -14M444 455l0 -14M444 454l1 -12M445 696l0 -568M445 446l1 4 0 -92"/>
<path stroke="red" d="M446 448l1 0 0 -85M447 405l1 -30M448 479l0 -116M448 449l1 -2M449 449l0 -92M449 447l1 2 0 -88M450 410l1 4M451 510l0 -146M451 448l1 0M452 452l0 -90M452 444l1 8M453 453l0 -10 1 10M454 479l0 -119M454 444l1 8M455 453l0 -96M455 448l1 0"/>
<path stroke="red" d="M456 449l0 -3 1 3M457 541l0 -212M457 445l1 6 0 -95M458 451l1 -6M459 451l0 -6M459 451l1 -6M460 479l0 -121M460 453l1 -10M461 453l0 -96M461 446l1 3M462 452l0 -8 1 8M463 510l0 -150M463 448l1 0 0 -84M464 370l1 39M465 451l0 -42"/>
<path stroke="red" d="M465 447l1 2M466 479l0 -122M466 443l1 9M467 453l0 -96M467 372l1 -6M468 451l0 -89M468 447l1 2M469 572l0 -283M469 445l1 6 0 -81M470 410l1 -32M471 449l0 -91M471 449l1 -2M472 479l0 -117M472 443l1 1M473 452l0 -8 1 8 0 -95M474 451l1 -6"/>
<path stroke="red" d="M475 510l0 -149M475 447l1 1 0 -1M476 448l1 0M477 456l0 -97M477 440l1 16M478 479l0 -120M478 422l1 -7M479 453l0 -92M479 443l1 10M480 454l0 -97M480 443l1 10M481 455l0 -94M481 443l1 10M482 541l0 -212M482 452l1 -8M483 454l0 -98"/>
<path stroke="red" d="M483 454l1 -12M484 454l0 -92M484 406l1 4M485 479l0 -119M485 454l1 -12M486 456l0 -99M486 440l1 16M487 457l0 -96M487 407l1 11M488 510l0 -150M488 448l1 0M489 451l0 -87M489 451l1 -6M490 452l0 -67 1 -22M491 479l0 -122M491 448l1 0"/>
<path stroke="red" d="M492 453l0 -96M492 452l1 -8M493 452l0 -8M493 448l1 0M494 603l0 -355M494 442l1 12M495 458l0 -103M495 438l1 20 0 -20M496 457l1 -18M497 479l0 -118M497 452l1 -8M498 452l0 -95M498 449l1 -3M499 449l0 -3M499 448l1 0M500 510l0 -149"/>
<path stroke="red" d="M500 448l1 0M501 451l0 -89M501 440l1 13M502 454l0 -13M502 454l1 -12M503 479l0 -119M503 442l1 12M504 456l0 -99M504 416l1 -2M505 452l0 -91M505 446l1 4M506 541l0 -212M506 442l1 12 0 -98M507 381l1 -8M508 450l0 -88M508 446l1 4"/>
<path stroke="red" d="M509 479l0 -119M509 451l1 -7M510 451l0 -21M510 431l1 -3M511 451l0 -94M511 451l1 -6M512 510l0 -149M512 448l2 0M514 453l0 -94M514 451l1 -6M515 479l0 -117M515 426l1 -12M516 456l0 -98M516 456l1 -16M517 456l0 -99M517 451l1 -6"/>
<path stroke="red" d="M518 572l0 -283M518 354l1 29M519 451l0 -97M519 450l1 -4M520 450l0 -92M520 450l1 -4M521 450l0 -87M521 449l1 -7M522 479l0 -117M522 454l1 -12M523 455l0 -98M523 443l1 10 0 -92M524 390l1 -28M525 510l0 -148M525 448l1 0M526 457l0 -99"/>
<path stroke="red" d="M526 457l1 -18M527 458l0 -95M527 390l1 -21M528 479l0 -118M528 452l1 -8M529 455l0 -98M529 455l1 -14M530 457l0 -18M530 457l1 -18M531 541l0 -212M531 444l1 8M532 455l0 -99M532 441l1 14 0 -14 1 14M534 479l0 -125M534 440l1 16"/>
<path stroke="red" d="M535 456l0 -99M535 454l1 -13M536 455l0 -15M536 455l1 -15M537 510l0 -155M537 448l1 0M538 450l0 -86M538 445l1 5M539 451l0 -6 1 6M540 479l0 -128M540 445l1 5 0 -93M541 436l1 14M542 453l0 -13M542 447l1 2M543 634l0 -426M543 451l1 -7"/>
<path stroke="red" d="M544 451l0 -93M544 407l1 -33M545 453l0 -94M545 453l1 -10M546 479l0 -119M546 446l1 3 0 -92M547 368l1 12M548 452l0 -88M548 452l1 -8M549 510l0 -149M549 448l2 0 0 -88M551 448l1 0M552 479l0 -122M552 369l1 33M553 450l0 -91M553 449l1 -2"/>
<path stroke="red" d="M554 450l0 -93M554 450l1 -4M555 541l0 -212M555 404l1 18M556 449l0 -87M556 447l1 2M557 450l0 -94M557 445l1 5M558 451l0 -88M558 448l1 -2M559 479l0 -119M559 443l1 10M560 455l0 -98M560 455l1 -14M561 455l0 -94M561 452l1 -11M562 510l0 -142"/>
<path stroke="red" d="M562 448l1 0M563 449l0 -84M563 446l1 3M564 450l0 -87M564 407l1 11M565 479l0 -122M565 451l1 -6M566 454l0 -97M566 443l1 10 0 -68 1 -24M568 572l0 -283M568 450l1 -4M569 450l0 -92M569 448l1 -1M570 450l0 -4M570 450l1 -4M571 479l0 -120"/>
<path stroke="red" d="M571 446l1 4 0 -93M572 446l1 4 0 -4M573 450l1 -4M574 510l0 -149M574 448l1 0M575 455l0 -99M575 455l1 -14M576 455l0 -15 1 15M577 479l0 -120M577 453l1 -11M578 455l0 -98M578 445l1 5 0 -5M579 446l1 4M580 541l0 -212M580 449l1 -3"/>
<path stroke="red" d="M581 449l0 -93M581 388l1 0M582 451l0 -90M582 451l1 -6M583 479l0 -119M583 444l1 8 0 -95M584 384l1 23M585 457l0 -98M585 439l1 18M586 510l0 -150M586 448l1 0 0 -19M587 431l1 -2M588 450l0 -88M588 450l1 -4M589 479l0 -123M589 385l1 -15"/>
<path stroke="red" d="M590 452l0 -89M590 444l1 8 0 -95M591 446l1 4M592 603l0 -355M592 403l1 -24M593 450l0 -85M593 446l1 4M594 461l0 -103M594 436l1 24M595 479l0 -117M595 411l1 7M596 452l0 -90M596 451l1 -6M597 452l0 -95M597 444l1 8 0 -91M598 451l1 -6"/>
<path stroke="red" d="M599 510l0 -142M599 448l1 0M600 450l0 -87M600 446l1 4M601 451l0 -91M601 374l1 -5M602 479l0 -119M602 442l1 12M603 455l0 -98M603 454l1 -12M604 454l0 -93M604 411l1 13M605 541l0 -212M605 440l1 16 0 -100M606 446l1 4 0 -4M607 447l1 2"/>
<path stroke="red" d="M608 479l0 -116M608 447l1 2M609 452l0 -95M609 451l1 -6M610 451l0 -6M610 448l1 0M611 510l0 -149M611 448l1 0M612 457l0 -93M612 439l1 18 0 -18M613 441l1 14M614 479l0 -116M614 439l1 18M615 458l0 -101M615 445l1 5M616 453l0 -10"/>
<path stroke="red" d="M616 443l1 10M617 572l0 -283M617 445l1 5 0 -92M618 410l1 -14M619 454l0 -97M619 444l1 8M620 479l0 -118M620 445l1 6M621 453l0 -96M621 374l1 2M622 457l0 -90M622 456l1 -16M623 510l0 -149M623 448l1 0 0 -77M624 418l1 -16M625 459l0 -96"/>
<path stroke="red" d="M625 437l1 22M626 479l0 -118M626 449l1 -3M627 451l0 -6 1 6M628 453l0 -96M628 443l1 10M629 541l0 -212M629 413l1 8M630 450l0 -87M630 449l1 -2M631 459l0 -103M631 459l1 -22M632 479l0 -116M632 403l1 -32M633 461l0 -98M633 459l1 -22"/>
<path stroke="red" d="M634 459l0 -102M634 445l1 6M635 462l0 -101M635 435l1 26M636 510l0 -142M636 448l1 0M637 450l0 -88M637 447l1 2 0 -89M638 441l1 -25M639 479l0 -115M639 447l1 1M640 457l0 -100M640 455l1 -14M641 455l0 -94M641 449l1 -2M642 665l0 -498"/>
<path stroke="red" d="M642 445l1 6M643 453l0 -95M643 443l1 9 0 -67 1 -22M645 479l0 -118M645 447l1 2M646 450l0 -93M646 448l1 0M647 449l0 -2M647 449l1 -2M648 510l0 -149M648 448l1 0M649 453l0 -91M649 442l1 11 0 -11M650 453l1 -10M651 479l0 -119M651 443l1 9"/>
<path stroke="red" d="M652 454l0 -97M652 446l1 3M653 452l0 -8M653 452l1 -8M654 541l0 -212M654 450l1 -4M655 450l0 -94M655 450l1 -6M656 451l0 -7M656 445l1 6M657 479l0 -117M657 452l1 -8M658 452l0 -95M658 369l1 -4M659 456l0 -93M659 455l1 -14M660 510l0 -149"/>
<path stroke="red" d="M660 448l1 0 0 -77M661 418l1 -17M662 451l0 -90M662 446l1 4M663 479l0 -120M663 447l1 1M664 450l0 -20M664 431l1 -3M665 449l0 -92M665 449l1 -2M666 572l0 -283M666 444l1 7 0 -7M667 450l1 -4M668 450l0 -92M668 448l1 0M669 479l0 -117"/>
<path stroke="red" d="M669 400l1 -14M670 452l0 -89M670 452l1 -8M671 452l0 -95M671 448l1 0M672 510l0 -149M672 419l1 10M673 448l0 -19M673 448l1 0M674 454l0 -96M674 454l1 -12M675 454l0 -91M675 443l1 -1M676 479l0 -118M676 453l1 -10M677 454l0 -97"/>
<path stroke="red" d="M677 454l1 -12M678 455l0 -94M678 414l1 28M679 541l0 -212M679 444l1 8 0 -96M680 447l1 2M681 450l0 -87M681 411l1 12M682 479l0 -123M682 446l1 4M683 455l0 -98M683 455l1 -15M684 457l0 -18M684 457l1 -18M685 510l0 -153M685 448l1 0"/>
<path stroke="red" d="M686 451l0 -87M686 445l1 6M687 452l0 -8 1 8M688 479l0 -125M688 447l1 2 0 -92M689 449l1 -2M690 450l0 -4M690 450l1 -4M691 603l0 -355M691 450l1 -4M692 456l0 -98M692 456l1 -17M693 457l0 -18M693 457l1 -18M694 479l0 -120M694 445l1 5"/>
<path stroke="red" d="M695 450l0 -93M695 419l1 19M696 453l0 -15M696 451l1 -6M697 510l0 -149M697 448l1 0 0 -83M698 412l1 2M699 450l0 -92M699 450l1 -4M700 479l0 -121M700 449l1 -3M701 453l0 -96M701 372l1 13M702 450l0 -88M702 446l1 4M703 541l0 -212"/>
<path stroke="red" d="M703 451l1 -8M704 452l0 -9M704 451l1 -6M705 451l0 -95M705 449l1 -2M706 479l0 -116M706 423l1 -6M707 448l0 -86M707 448l1 0M708 451l0 -94M708 451l1 -6M709 510l0 -149M709 447l1 0M710 448l0 -1M710 448l1 0M711 451l0 -87M711 451l1 -6"/>
<path stroke="red" d="M712 451l0 -93M712 445l1 5M713 479l0 -116M713 455l1 -14M714 455l0 -98M714 451l1 -6M715 451l0 -90M715 448l1 -1M716 572l0 -283M716 450l1 -4M717 455l0 -97M717 453l1 -10M718 453l0 -90M718 380l1 -9M719 479l0 -120M719 451l1 -6"/>
<path stroke="red" d="M720 452l0 -95M720 444l1 8M721 453l0 -68 1 -24M722 510l0 -150M722 448l1 0M723 456l0 -93M723 456l1 -16M724 457l0 -18 1 18M725 479l0 -118M725 452l1 -8M726 453l0 -96M726 449l1 -2M727 453l0 -10 1 10M728 541l0 -212M728 449l1 -3"/>
<path stroke="red" d="M729 453l0 -97M729 442l1 11M730 455l0 -14M730 455l1 -14M731 479l0 -118M731 441l1 14 0 -98M732 446l1 1M733 454l0 -12 1 12M734 510l0 -149M734 448l1 0 0 -77M735 392l1 -11M736 452l0 -88M736 449l1 -2M737 479l0 -118M737 450l1 -5"/>
<path stroke="red" d="M738 450l0 -93M738 373l1 12M739 451l0 -87M739 449l1 -2M740 634l0 -426M740 452l1 -8M741 452l0 -23M741 431l1 -2M742 452l0 -94M742 444l1 8M743 479l0 -116M743 417l1 -15M744 448l0 -70M744 448l1 0M745 454l0 -97M745 442l1 12M746 510l0 -149"/>
<path stroke="red" d="M746 448l1 -1M747 448l0 -1M747 448l1 0 0 -88M748 448l1 -1M749 479l0 -117M749 412l1 7M750 450l0 -88M750 446l1 4 0 -93M751 446l1 4M752 453l0 -92M752 443l1 10M753 541l0 -212M753 449l1 -2M754 451l0 -95M754 445l1 6 0 -88M755 403l1 4"/>
<path stroke="red" d="M756 479l0 -119M756 448l1 0M757 454l0 -97M757 441l1 13M758 455l0 -94M758 389l1 -20M759 510l0 -149M759 448l1 0M760 449l0 -84M760 449l1 -3M761 450l0 -4M761 449l1 -3M762 479l0 -122M762 446l1 4M763 452l0 -95M763 446l1 4 0 -4"/>
<path stroke="red" d="M764 447l1 2M765 572l0 -283M765 446l1 4M766 456l0 -98M766 440l1 15 0 -15M767 445l1 6M768 479l0 -117M768 447l1 2 0 -92M769 448l1 -1M770 450l0 -4M770 450l1 -4M771 510l0 -149M771 448l1 0 0 -85M772 385l1 -2M773 455l0 -72M773 441l1 14"/>
<path stroke="red" d="M774 479l0 -118M774 445l1 6M775 455l0 -98M775 414l1 -21M776 449l0 -88M776 447l1 2M777 541l0 -212M777 445l1 6 0 -81M778 410l1 -33M779 451l0 -95M779 451l1 -6M780 479l0 -119M780 447l1 -6M781 452l0 -11M781 451l1 -6M782 452l0 -95"/>
<path stroke="red" d="M782 444l1 8M783 510l0 -149M783 447l1 1 1 0M785 452l0 -90M785 446l1 4M786 479l0 -116M786 422l1 -7M787 452l0 -90M787 444l1 8M788 453l0 -96M788 447l1 2M789 451l0 -90M789 446l1 4M790 603l0 -355M790 446l1 4M791 455l0 -97M791 441l1 14"/>
<path stroke="red" d="M792 458l0 -95M792 416l1 0M793 479l0 -117M793 446l1 4M794 451l0 -94M794 445l1 6 0 -90M795 381l1 -11M796 510l0 -143M796 448l1 0M797 450l0 -85M797 446l1 4M798 451l0 -66 1 -22M799 479l0 -119M799 443l1 9M800 454l0 -97M800 447l1 2"/>
<path stroke="red" d="M801 449l0 -2 1 2M802 541l0 -212M802 443l1 9M803 454l0 -98M803 447l1 2 0 -2M804 449l1 -2M805 479l0 -116M805 448l1 0M806 449l0 -92M806 448l1 -1M807 449l0 -2 1 2M808 510l0 -149M808 448l1 0M809 451l0 -87M809 444l1 7M810 454l0 -12"/>
<path stroke="red" d="M810 454l1 -12M811 479l0 -116M811 446l1 4M812 455l0 -98M812 395l1 -16M813 453l0 -78M813 453l1 -10M814 572l0 -283M814 445l1 6 0 -93M815 365l1 42M816 452l0 -75M816 452l1 -8M817 479l0 -116M817 446l1 2M818 453l0 -23M818 431l1 -3"/>
<path stroke="red" d="M819 451l0 -94M819 444l1 7M820 510l0 -149M820 448l2 0M822 453l0 -90M822 453l1 -10M823 479l0 -118M823 393l1 -21M824 452l0 -86M824 447l1 2M825 452l0 -95M825 452l1 -8M826 541l0 -212M826 388l1 19M827 449l0 -71M827 447l1 2M828 456l0 -100"/>
<path stroke="red" d="M828 440l1 16M829 459l0 -96M829 381l1 14M830 479l0 -118M830 438l1 20 0 -101M831 452l1 -8M832 453l0 -92 1 34M833 510l0 -147M833 448l1 0M834 449l0 -78M834 448l1 -1M835 449l0 -86M835 385l1 -17M836 479l0 -121M836 449l1 -2M837 456l0 -99"/>
<path stroke="red" d="M837 440l1 16 0 -16M838 442l1 12M839 696l0 -568M839 451l1 -6M840 451l0 -93M840 447l1 1 0 -1M841 448l1 0M842 479l0 -116M842 447l1 2 0 -92M843 448l1 -1M844 449l0 -2M844 449l1 -2M845 510l0 -149M845 448l1 0M846 451l0 -89M846 451l1 -8"/>
<path stroke="red" d="M847 452l0 -9M847 452l1 -9M848 479l0 -119M848 450l1 -5M849 453l0 -96M849 440l1 4M850 449l0 -5M850 449l1 -2M851 541l0 -212M851 451l1 -7M852 451l0 -95M852 415l1 -37M853 451l0 -87M853 445l1 6M854 479l0 -121M854 441l1 13 0 -97"/>
<path stroke="red" d="M855 368l1 12M856 452l0 -91M856 452l1 -8M857 510l0 -150M857 448l2 0M859 451l0 -87M859 450l1 -4M860 479l0 -122M860 366l1 29M861 453l0 -90M861 453l1 -10M862 453l0 -96M862 448l1 0M863 572l0 -283M863 412l1 4M864 451l0 -35M864 450l1 -4"/>
<path stroke="red" d="M865 450l0 -92M865 448l1 0M866 450l0 -88M866 445l1 5M867 479l0 -116M867 451l1 -6M868 452l0 -95M868 445l1 6 0 -90M869 434l1 7M870 510l0 -142M870 448l1 0M871 455l0 -96M871 455l1 -14M872 456l0 -93M872 386l1 8M873 479l0 -120"/>
<path stroke="red" d="M873 452l1 -8M874 454l0 -97M874 452l1 -8M875 455l0 -70 1 -24M876 541l0 -212M876 445l1 6M877 454l0 -98M877 442l1 12 0 -12M878 454l1 -12M879 479l0 -119M879 441l1 14 0 -98M880 455l1 -15M881 457l0 -18 1 18M882 510l0 -150M882 448l1 0"/>
<path stroke="red" d="M883 450l0 -86M883 445l1 5M884 452l0 -8M884 452l1 -8M885 479l0 -122M885 448l1 0M886 453l0 -96M886 442l1 11 0 -11M887 449l1 -2M888 603l0 -355M888 454l1 -13M889 454l0 -96M889 367l1 22M890 458l0 -103M890 439l1 18M891 479l0 -118"/>
<path stroke="red" d="M891 443l1 9 0 -95M892 371l1 33M893 449l0 -85M893 448l1 0M894 510l0 -149M894 448l1 0 0 -19M895 431l1 -2M896 454l0 -92M896 442l1 12M897 479l0 -119M897 385l1 15M898 456l0 -91M898 440l1 16 0 -99M899 450l1 -4M900 541l0 -212"/>
<path stroke="red" d="M900 406l1 -33M901 454l0 -97M901 444l1 8 0 -96M902 450l1 -4M903 479l0 -119M903 412l1 6M904 451l0 -88M904 448l1 0M905 450l0 -93M905 446l1 4M906 452l0 -91M906 451l1 -7M907 510l0 -142M907 448l1 0M908 453l0 -94M908 444l1 8 0 -89"/>
<path stroke="red" d="M909 421l1 -1M910 479l0 -121M910 440l1 15M911 456l0 -99M911 446l1 4M912 453l0 -92M912 389l1 -20M913 572l0 -283M913 446l1 4 0 -92M914 446l1 4 0 -4M915 447l1 2M916 479l0 -117M916 442l1 11M917 455l0 -98M917 453l1 -11M918 453l0 -11"/>
<path stroke="red" d="M918 452l1 -8M919 510l0 -149M919 448l1 0M920 457l0 -99M920 438l1 19 0 -19M921 439l1 18M922 479l0 -118M922 445l1 6M923 453l0 -96M923 442l1 11M924 456l0 -17 1 18M925 541l0 -212M925 451l1 -7M926 453l0 -97M926 443l1 -9M927 455l0 -21"/>
<path stroke="red" d="M927 455l1 -14M928 479l0 -125M928 457l1 -18M929 457l0 -100M929 420l1 -2M930 455l0 -91M930 441l1 14M931 510l0 -155M931 448l1 0 0 -77M932 418l1 -16M933 451l0 -87M933 451l1 -6M934 479l0 -128M934 407l1 14M935 451l0 -30M935 450l1 -4"/>
<path stroke="red" d="M936 453l0 -96M936 450l1 -4M937 634l0 -426M937 442l1 9M938 452l0 -9M938 446l1 4M939 453l0 -95M939 443l1 10M940 479l0 -118M940 405l1 -35M941 450l0 -90M941 448l1 0M942 452l0 -95M942 444l1 8 0 -91M943 445l1 5M944 510l0 -142"/>
<path stroke="red" d="M944 448l1 0 0 -88M945 448l1 0M946 449l0 -87M946 387l1 -30M947 479l0 -122M947 448l1 0M948 449l0 -92M948 447l1 2M949 450l0 -89M949 381l1 -6M950 541l0 -212M950 449l1 -2M951 450l0 -94M951 450l1 -4M952 451l0 -66 1 -22M953 479l0 -119"/>
<path stroke="red" d="M953 453l1 -10M954 454l0 -97M954 441l1 13M955 455l0 -15M955 455l1 -15M956 510l0 -149M956 448l1 0M957 449l0 -84M957 449l1 -3M958 450l0 -4 1 4M959 479l0 -122M959 445l1 6M960 454l0 -97M960 454l1 -12M961 454l0 -12M961 445l1 6"/>
<path stroke="red" d="M962 572l0 -283M962 445l1 5 0 -92M963 446l1 3 0 -3 1 4M965 479l0 -120M965 451l1 -6M966 451l0 -94M966 381l1 42M967 450l0 -89M967 446l1 4M968 510l0 -149M968 448l1 0 0 -77M969 405l1 -36M970 455l0 -99M970 455l1 -14M971 479l0 -120"/>
<path stroke="red" d="M971 442l1 10M972 455l0 -25M972 431l1 -3M973 450l0 -93M973 449l1 -2M974 450l0 -4"/>
</svg>
