<?xml version="1.0" standalone="yes"?>
<!DOCTYPE svg PUBLIC "-//W3C//DTD SVG 1.1//EN"
 "http://www.w3.org/Graphics/SVG/1.1/DTD/svg11.dtd">
<svg xmlns="http://www.w3.org/2000/svg" version="1.1"
  width="100%" height="100%" viewBox="0 0 1024 768"
  style="fill: none; stroke-width: 3; font-family: Helvetica;
 font: Helvetica;
">

<!-- Creator: NGspice -->

<rect x="0" y="0" width="1024" height="768" fill="white" stroke="none"/>
<text stroke="none" fill="black" font-size="16" x="358" y="752">
time
</text>
<text stroke="none" fill="black" font-size="16" x="10" y="16">
tran1: Even Parity Output
</text>
<path stroke="black" stroke-width="3" d="M50 704l0 -638"/>
<text stroke="none" fill="black" font-size="16" x="35" y="728">
0.0
</text>
<path stroke="black" stroke-width="3" stroke-dasharray="1,2" d="M204 704l0 -638"/>
<text stroke="none" fill="black" font-size="16" x="189" y="728">
0.5
</text>
<path stroke="black" stroke-width="3" stroke-dasharray="1,2" d="M358 704l0 -638"/>
<text stroke="none" fill="black" font-size="16" x="343" y="728">
1.0
</text>
<path stroke="black" stroke-width="3" stroke-dasharray="1,2" d="M512 704l0 -638"/>
<text stroke="none" fill="black" font-size="16" x="497" y="728">
1.5
</text>
<path stroke="black" stroke-width="3" stroke-dasharray="1,2" d="M666 704l0 -638"/>
<text stroke="none" fill="black" font-size="16" x="651" y="728">
2.0
</text>
<path stroke="black" stroke-width="3" stroke-dasharray="1,2" d="M820 704l0 -638"/>
<text stroke="none" fill="black" font-size="16" x="805" y="728">
2.5
</text>
<path stroke="black" stroke-width="3" stroke-dasharray="1,2" d="M974 704l0 -638"/>
<text stroke="none" fill="black" font-size="16" x="959" y="728">
3.0
</text>
<text stroke="none" fill="black" font-size="16" x="614" y="752">
us
</text>
<path stroke="black" stroke-width="3" stroke-dasharray="1,2" d="M50 704l924 0"/>
<text stroke="none" fill="black" font-size="16" x="8" y="712">
-0.2
</text>
<path stroke="black" stroke-width="3" d="M50 646l924 0"/>
<text stroke="none" fill="black" font-size="16" x="18" y="654">
0.0
</text>
<path stroke="black" stroke-width="3" stroke-dasharray="1,2" d="M50 588l924 0"/>
<text stroke="none" fill="black" font-size="16" x="18" y="596">
0.2
</text>
<path stroke="black" stroke-width="3" stroke-dasharray="1,2" d="M50 530l924 0"/>
<text stroke="none" fill="black" font-size="16" x="18" y="538">
0.4
</text>
<path stroke="black" stroke-width="3" stroke-dasharray="1,2" d="M50 472l924 0"/>
<text stroke="none" fill="black" font-size="16" x="18" y="480">
0.6
</text>
<path stroke="black" stroke-width="3" stroke-dasharray="1,2" d="M50 414l924 0"/>
<text stroke="none" fill="black" font-size="16" x="18" y="422">
0.8
</text>
<path stroke="black" stroke-width="3" stroke-dasharray="1,2" d="M50 356l924 0"/>
<text stroke="none" fill="black" font-size="16" x="18" y="364">
1.0
</text>
<path stroke="black" stroke-width="3" stroke-dasharray="1,2" d="M50 298l924 0"/>
<text stroke="none" fill="black" font-size="16" x="18" y="306">
1.2
</text>
<path stroke="black" stroke-width="3" stroke-dasharray="1,2" d="M50 240l924 0"/>
<text stroke="none" fill="black" font-size="16" x="18" y="248">
1.4
</text>
<path stroke="black" stroke-width="3" stroke-dasharray="1,2" d="M50 182l924 0"/>
<text stroke="none" fill="black" font-size="16" x="18" y="190">
1.6
</text>
<path stroke="black" stroke-width="3" stroke-dasharray="1,2" d="M50 124l924 0"/>
<text stroke="none" fill="black" font-size="16" x="18" y="132">
1.8
</text>
<path stroke="black" stroke-width="3" stroke-dasharray="1,2" d="M50 66l924 0"/>
<text stroke="none" fill="black" font-size="16" x="18" y="74">
2.0
</text>
<text stroke="none" fill="black" font-size="16" x="10" y="32">
V
</text>
<path stroke="red" d="M462 23l46 0"/>
<text stroke="none" fill="black" font-size="16" x="518" y="32">
v(out_parity)
</text>
<path stroke="red" d="M50 646l0 -158M50 646l2 0 0 -522 1 0M53 646l0 -522M53 179l1 -14 0 -41 1 0M55 646l0 -522M55 646l1 0 0 -536M56 118l1 2M57 131l0 -11M57 124l1 0M58 646l0 -545M58 646l1 0 0 -522 1 0M60 646l0 -546M60 646l1 0 0 -522 1 0M62 646l0 -522"/>
<path stroke="red" d="M62 646l1 0 0 -522 1 0M64 646l0 -545M64 646l1 0 0 -317 1 -71M66 646l0 -546M66 646l1 0 0 -522 2 0M69 646l0 -522M69 646l1 0 0 -522 2 0M72 646l0 -522 1 0M73 646l0 -522M73 646l2 0 0 -541M75 124l1 0M76 646l0 -561M76 646l2 0M78 650l0 -565"/>
<path stroke="red" d="M78 646l1 0M79 650l0 -526 2 0M81 647l0 -557M81 646l1 0M82 656l0 -529 1 0 0 -3 1 0M84 661l0 -582M84 124l1 0 0 -45 1 0M86 647l0 -568M86 646l1 0M87 654l0 -564M87 646l2 0M89 656l0 -532 1 0M90 661l0 -582M90 125l1 0 0 -1 1 0M92 647l0 -568"/>
<path stroke="red" d="M92 646l1 0M93 652l0 -528 2 0M95 646l0 -561M95 646l1 0M96 650l0 -526 1 0M97 646l0 -561M97 646l1 0M98 650l0 -526 1 0M99 646l0 -522M99 646l1 0 0 -522 1 0M101 646l0 -561M101 646l1 0M102 650l0 -519 1 -2M103 646l0 -561M103 646l1 0"/>
<path stroke="red" d="M104 650l0 -526 1 0M105 125l0 -15 1 -9M106 647l0 -557M106 646l1 0M107 656l0 -532 2 0M109 661l0 -582M109 124l1 0M110 647l0 -568M110 646l2 0M112 654l0 -564M112 646l1 0M113 656l0 -532 2 0M115 661l0 -582M115 124l1 0M116 647l0 -568"/>
<path stroke="red" d="M116 646l2 0M118 652l0 -528 1 0M119 646l0 -561M119 646l2 0M121 650l0 -565M121 646l1 0M122 650l0 -499 1 -8 0 -19 1 0M124 648l0 -524M124 646l2 0 0 -522 1 0M127 646l0 -522M127 125l1 0 0 -1 1 0M129 646l0 -522M129 646l1 0 0 -536"/>
<path stroke="red" d="M130 124l2 0M132 646l0 -545M132 646l1 0 0 -534 1 -2M134 646l0 -546M134 646l1 0 0 -522 1 0M136 646l0 -522M136 646l1 0 0 -522 1 0M138 646l0 -545M138 646l1 0 0 -519 1 0M140 646l0 -546M140 646l1 0 0 -522 1 0M142 619l0 -495M142 619l1 1"/>
<path stroke="red" d="M143 646l0 -26M143 646l1 0 0 -522 2 0M146 646l0 -522 1 0M147 646l0 -522M147 646l2 0M149 649l0 -560M149 124l1 0M150 646l0 -561M150 646l2 0M152 650l0 -565M152 646l1 0M153 650l0 -526 2 0M155 647l0 -557M155 646l1 0M156 656l0 -532"/>
<path stroke="red" d="M156 124l2 0M158 661l0 -583M158 124l1 0M159 647l0 -568M159 646l2 0M161 654l0 -564M161 646l1 0M162 656l0 -11M162 656l1 -13 0 -519 1 0M164 661l0 -583M164 124l2 0M166 647l0 -568M166 646l1 0M167 652l0 -528 2 0M169 646l0 -561"/>
<path stroke="red" d="M169 646l1 0M170 650l0 -565M170 134l1 241M171 646l0 -271M171 646l1 0M172 650l0 -526 1 0M173 646l0 -548M173 646l1 0M174 648l0 -4M174 646l1 0 0 -522 1 0M176 646l0 -522M176 646l1 0 0 -522 1 0M178 647l0 -523M178 646l1 0 0 -497"/>
<path stroke="red" d="M179 149l1 -6 0 -33M180 124l1 0M181 647l0 -546M181 646l1 0 1 -2M183 646l0 -545M183 646l1 0 0 -522 2 0M186 647l0 -523 1 0M187 647l0 -546M187 646l2 0 0 -545M189 646l1 0 0 -522 2 0M192 647l0 -523M192 646l1 0 0 -522 2 0M195 647l0 -523"/>
<path stroke="red" d="M195 124l1 0M196 647l0 -523M196 646l2 0M198 651l0 -546M198 646l1 0 0 -362 1 -48 0 -112 1 0M201 646l0 -522 1 0M202 125l0 -1M202 125l1 9M203 647l0 -513M203 646l1 0 0 -536M204 124l2 0M206 647l0 -546M206 646l1 0 0 -545M207 646l2 0"/>
<path stroke="red" d="M209 646l0 -522 1 0M210 647l0 -523M210 643l1 0M211 645l0 -521 1 0M212 647l0 -546M212 646l1 0 0 -522 1 0M214 646l0 -545M214 646l1 0 0 -522 1 0M216 647l0 -523M216 646l2 0 0 -522 1 0M219 617l0 -493M219 617l1 11M220 647l0 -523"/>
<path stroke="red" d="M220 124l1 0M221 647l0 -523M221 646l2 0M223 650l0 -545M223 124l1 0M224 646l0 -561M224 646l2 0M226 650l0 -565M226 646l1 0M227 650l0 -526 2 0M229 647l0 -557M229 646l1 0M230 656l0 -532 2 0M232 661l0 -583M232 124l1 0M233 647l0 -568"/>
<path stroke="red" d="M233 646l2 0M235 654l0 -564M235 646l1 0M236 656l0 -529 1 -1 0 -2 1 0M238 661l0 -583M238 124l1 0M239 125l0 -46 1 0M240 647l0 -568M240 646l1 0M241 652l0 -528 2 0M243 646l0 -561M243 646l1 0M244 650l0 -565M244 646l2 0M246 650l0 -526"/>
<path stroke="red" d="M246 124l1 0M247 646l0 -522M247 235l1 -32 0 -79 1 0M249 646l0 -561M249 646l1 0M250 650l0 -526 1 0M251 646l0 -561M251 646l1 0M252 650l0 -526 1 0M253 646l0 -556M253 646l1 0M254 647l0 -1 1 0M255 656l0 -532 1 0M256 646l0 -568"/>
<path stroke="red" d="M256 646l1 0M257 661l0 -537 1 0M258 647l0 -568M258 646l1 0M259 650l0 -4M259 650l1 3M260 654l0 -564M260 646l1 0M261 656l0 -532 2 0M263 661l0 -583M263 124l1 0M264 647l0 -568M264 646l2 0M266 652l0 -528 1 0M267 646l0 -561M267 646l2 0"/>
<path stroke="red" d="M269 650l0 -565M269 646l1 0M270 650l0 -526 2 0M272 648l0 -550M272 646l1 0 0 -519 1 -1 0 -2 1 0M275 646l0 -522 1 0M276 646l0 -522M276 646l1 -4M277 647l0 -5M277 646l1 0 0 -536M278 124l2 0M280 647l0 -546M280 646l1 0 0 -545"/>
<path stroke="red" d="M281 646l2 0 0 -522 1 0M284 647l0 -523M284 156l1 -8 0 -24 1 0M286 647l0 -546M286 646l1 0 0 -534 1 -2M288 646l0 -545M288 646l1 0 0 -522 1 0M290 647l0 -523M290 646l2 0 0 -522 1 0M293 647l0 -523M293 646l1 0 0 -522 1 0M295 647l0 -523"/>
<path stroke="red" d="M295 646l1 0M296 651l0 -429 1 -29M297 646l0 -541M297 646l1 0 0 -522 2 0M300 646l0 -522 1 0M301 647l0 -523M301 646l2 0 0 -536M303 124l1 0M304 647l0 -546M304 646l2 0 0 -545M306 646l1 0 0 -522 2 0M309 647l0 -523 1 0M310 647l0 -546"/>
<path stroke="red" d="M310 646l2 0 0 -545M312 646l1 0 0 -511 1 -3 0 -8 1 0M315 647l0 -523M315 646l1 0 0 -4 1 1 0 -519 1 0M318 647l0 -523 2 0M320 647l0 -523M320 646l1 0M321 650l0 -545M321 124l2 0M323 646l0 -561M323 646l1 0M324 650l0 -565M324 137l1 247"/>
<path stroke="red" d="M325 646l0 -262M325 646l1 0M326 650l0 -526 1 0M327 646l0 -556M327 646l1 0M328 647l0 -1 1 0M329 656l0 -532 1 0M330 646l0 -568M330 646l1 0M331 661l0 -537 1 0M332 647l0 -568M332 646l1 0M333 654l0 -526 1 -1M334 646l0 -556M334 646l1 0"/>
<path stroke="red" d="M335 656l0 -532 1 0M336 125l0 -2 1 -9M337 661l0 -583M337 124l1 0M338 647l0 -568M338 646l2 0M340 652l0 -528 1 0M341 646l0 -561M341 646l2 0M343 650l0 -565M343 646l1 0M344 650l0 -526 2 0M346 650l0 -526M346 646l1 0 0 -522 2 0"/>
<path stroke="red" d="M349 646l0 -522 1 0M350 647l0 -523M350 646l2 0 0 -536M352 124l1 0M353 630l0 -529M353 630l1 16M354 647l0 -5M354 646l1 0 0 -545M355 646l2 0 0 -522 1 0M358 647l0 -523M358 125l1 -1 1 0M360 647l0 -546M360 646l1 0 0 -545M361 646l2 0"/>
<path stroke="red" d="M363 646l0 -522 1 0M364 647l0 -523M364 646l2 0 0 -522 1 0M367 647l0 -523M367 646l1 0 0 -522 1 0M369 647l0 -523M369 646l1 0 0 -519 1 -1M371 134l0 -29M371 124l1 0M372 646l0 -561M372 646l1 0M373 650l0 -464 1 -17M374 646l0 -561"/>
<path stroke="red" d="M374 646l1 0M375 650l0 -526 2 0M377 647l0 -557M377 646l1 0M378 656l0 -532 2 0M380 661l0 -582M380 124l1 0M381 647l0 -568M381 646l2 0M383 654l0 -564M383 646l1 0M384 656l0 -532 2 0M386 661l0 -582M386 124l1 0M387 647l0 -568"/>
<path stroke="red" d="M387 646l2 0M389 652l0 -528 1 0M390 646l0 -561M390 646l2 0M392 650l0 -565M392 646l1 0M393 650l0 -14 1 -109 0 -403 1 0M395 646l0 -522 2 0M397 646l0 -561M397 646l1 0M398 650l0 -565M398 646l2 0M400 650l0 -526 1 0M401 647l0 -557"/>
<path stroke="red" d="M401 646l2 0M403 656l0 -532 1 0M404 646l0 -567M404 646l1 0M405 661l0 -537 1 0M406 647l0 -568M406 646l1 0M407 654l0 -530 1 0M408 646l0 -556M408 646l1 0M409 656l0 -532 1 0M410 646l0 -567M410 646l1 0M411 661l0 -537 1 0M412 647l0 -568"/>
<path stroke="red" d="M412 646l1 0M413 649l0 -3M413 649l1 0M414 652l0 -528 1 0M415 646l0 -561M415 646l2 0M417 650l0 -565M417 646l1 0M418 650l0 -526 2 0M420 648l0 -524M420 646l1 0 0 -522 2 0M423 646l0 -522 1 0M424 647l0 -523M424 646l2 0 0 -536"/>
<path stroke="red" d="M426 124l1 0M427 647l0 -546M427 646l2 0 0 -545M429 646l1 0 0 -430 1 -24 0 -68 1 0M432 647l0 -523 2 0M434 647l0 -546M434 646l1 0 0 -545M435 646l2 0 0 -522 1 0M438 647l0 -523M438 646l2 0 0 -522 1 0M441 647l0 -523M441 646l1 0"/>
<path stroke="red" d="M442 646l0 -522 1 0M443 647l0 -523M443 646l2 0 0 -158M445 646l1 0 0 -522 1 0M447 646l0 -522M447 646l1 0 0 -522 1 0M449 646l0 -522M449 646l1 0 0 -250 1 -104 0 -182M451 124l1 0M452 646l0 -545M452 646l2 0 0 -546M454 646l1 0"/>
<path stroke="red" d="M455 646l0 -522 2 0M457 646l0 -522 1 0M458 646l0 -545M458 646l2 0 0 -546M460 646l1 0 0 -522 2 0M463 646l0 -522M463 646l1 0 0 -522 2 0M466 646l0 -522 1 0M467 646l0 -522M467 646l2 0 0 -541M469 124l1 0 0 -23 1 -10M471 646l0 -561"/>
<path stroke="red" d="M471 646l1 0M472 650l0 -565M472 646l2 0M474 650l0 -526 1 0M475 647l0 -557M475 646l2 0M477 656l0 -532 1 0M478 661l0 -582M478 230l1 -46 0 -60 1 0M480 647l0 -568M480 646l1 0M481 654l0 -530 1 0M482 646l0 -556M482 646l1 0M483 656l0 -532"/>
<path stroke="red" d="M483 124l1 0M484 646l0 -567M484 646l1 0M485 661l0 -537 1 0M486 647l0 -568M486 646l1 0M487 652l0 -523 1 -1 0 -4 1 0M489 646l0 -561M489 646l1 0M490 649l0 -3M490 649l1 1 0 -565M491 646l1 0M492 650l0 -526 2 0M494 646l0 -522"/>
<path stroke="red" d="M494 124l1 0M495 646l0 -561M495 646l2 0M497 650l0 -565M497 646l1 0M498 650l0 -526 2 0M500 647l0 -557M500 646l1 0M501 656l0 -532 2 0M503 661l0 -582M503 124l1 0M504 647l0 -568M504 646l2 0M506 654l0 -564M506 646l1 0M507 656l0 -498"/>
<path stroke="red" d="M507 158l1 -9 0 -25 1 0M509 661l0 -582M509 124l2 0M511 647l0 -568M511 646l1 0M512 652l0 -528 2 0M514 646l0 -561M514 646l1 0M515 650l0 -565M515 646l1 -1M516 646l0 -1M516 646l1 0M517 650l0 -526 1 0M518 647l0 -523M518 647l1 1"/>
<path stroke="red" d="M519 648l0 -2 1 0 0 -522 1 0M521 646l0 -522M521 646l1 0 0 -522 1 0M523 646l0 -522M523 646l1 0 0 -518 1 -1M525 131l0 -21M525 124l1 0M526 646l0 -545M526 646l1 0 0 -317 1 -71M528 646l0 -546M528 646l1 0 0 -522 2 0M531 646l0 -522"/>
<path stroke="red" d="M531 124l1 0M532 646l0 -545M532 646l2 0 0 -546M534 646l1 0 0 -522 2 0M537 646l0 -522M537 646l1 0 0 -522 2 0M540 646l0 -522 1 0M541 646l0 -522M541 646l2 0M543 649l0 -560M543 124l1 0M544 646l0 -561M544 646l2 0M546 650l0 -565"/>
<path stroke="red" d="M546 646l1 0M547 650l0 -13 1 -89 0 -424 1 0M549 647l0 -557M549 646l2 0M551 656l0 -532 1 0M552 661l0 -583M552 125l1 0 0 -1 1 0M554 647l0 -568M554 646l1 0M555 654l0 -564M555 574l1 70M556 646l0 -2M556 646l1 0M557 656l0 -532"/>
<path stroke="red" d="M557 124l1 0M558 646l0 -568M558 646l1 0M559 661l0 -537 1 0M560 647l0 -568M560 646l1 0M561 652l0 -528 2 0M563 646l0 -561M563 646l1 0M564 650l0 -520 1 -2M565 646l0 -561M565 646l1 0M566 650l0 -526 1 0 0 -11 1 -9M568 648l0 -550"/>
<path stroke="red" d="M568 646l1 0 0 -522 2 0M571 646l0 -522 1 0M572 647l0 -523M572 646l2 0 0 -536M574 124l1 0M575 647l0 -546M575 646l2 0 0 -545M577 646l1 0 0 -522 2 0M580 647l0 -523 1 0M581 647l0 -546M581 646l2 0 0 -545M583 646l1 0 0 -430 1 -24"/>
<path stroke="red" d="M585 192l0 -68 1 0M586 647l0 -523M586 646l2 0 0 -522 1 0M589 647l0 -523M589 125l1 0 0 -1 1 0M591 647l0 -523M591 646l1 0M592 651l0 -546M592 646l2 0 0 -522 1 0M595 646l0 -522M595 646l1 0 0 -522 1 0M597 647l0 -523M597 646l1 0"/>
<path stroke="red" d="M598 646l0 -522 1 0M599 131l0 -21M599 124l1 0M600 647l0 -546M600 646l1 0 0 -519 1 -1M602 646l0 -545M602 646l1 0 0 -522 1 0M604 628l0 -504M604 628l1 16M605 647l0 -523 1 0M606 647l0 -546M606 646l2 0 0 -545M608 646l1 0 0 -522"/>
<path stroke="red" d="M609 124l2 0M611 647l0 -523M611 646l1 0 0 -522 2 0M614 647l0 -523 1 0M615 647l0 -523M615 646l2 0M617 650l0 -545M617 124l1 0M618 646l0 -561M618 646l2 0M620 650l0 -565M620 646l1 0M621 650l0 -523 1 -1 0 -2 1 0M623 647l0 -557"/>
<path stroke="red" d="M623 646l1 0M624 656l0 -11M624 656l1 -13 0 -519 1 0M626 661l0 -583M626 124l2 0M628 647l0 -568M628 646l1 0M629 654l0 -564M629 646l2 0M631 656l0 -532 1 0M632 661l0 -583M632 231l1 -46 0 -61 1 0M634 647l0 -568M634 646l1 0M635 652l0 -528"/>
<path stroke="red" d="M635 124l2 0M637 646l0 -561M637 646l1 0M638 650l0 -526 1 0M639 646l0 -561M639 646l1 0M640 650l0 -526 1 0M641 646l0 -522M641 646l1 0 0 -522 1 0M643 646l0 -561M643 646l1 0M644 650l0 -4M644 650l1 0 0 -565M645 646l1 0M646 650l0 -526"/>
<path stroke="red" d="M646 124l2 0M648 647l0 -557M648 646l1 0M649 656l0 -532 2 0M651 661l0 -583M651 124l1 0M652 647l0 -568M652 646l2 0M654 654l0 -564M654 646l1 0M655 656l0 -532 2 0M657 661l0 -583M657 124l1 0M658 647l0 -568M658 646l2 0M660 652l0 -528"/>
<path stroke="red" d="M660 124l1 0M661 642l0 -557M661 642l1 2M662 646l0 -2M662 646l1 0M663 650l0 -565M663 646l1 0 1 1M665 650l0 -526 1 0M666 648l0 -550M666 646l2 0 0 -522 1 0M669 646l0 -522M669 179l1 -14 0 -41 1 0M671 647l0 -523M671 646l1 0 0 -536"/>
<path stroke="red" d="M672 118l1 2M673 131l0 -11M673 124l1 0M674 647l0 -546M674 646l1 0 0 -522 1 0M676 646l0 -545M676 646l1 0 0 -522 1 0M678 647l0 -523M678 646l1 0 0 -522 1 0M680 647l0 -546M680 646l1 0 0 -316 1 -71M682 646l0 -545M682 646l1 0"/>
<path stroke="red" d="M683 646l0 -522 2 0M685 647l0 -523M685 646l1 0 0 -522 2 0M688 647l0 -523 1 0M689 647l0 -523M689 646l2 0M691 651l0 -546M691 646l1 0 0 -522 2 0M694 646l0 -522 1 0M695 647l0 -523M695 646l2 0 0 -536M697 124l1 0M698 647l0 -546"/>
<path stroke="red" d="M698 646l2 0 0 -545M700 646l1 0 0 -6M701 641l1 -5 0 -512 1 0M703 647l0 -523 2 0M705 647l0 -546M705 646l1 0 0 -545M706 646l2 0 0 -522 1 0M709 647l0 -523M709 646l2 0 0 -522 1 0M712 647l0 -523M712 646l1 0 0 -522 1 0M714 647l0 -523"/>
<path stroke="red" d="M714 646l1 0M715 650l0 -526 1 0M716 134l0 -29M716 124l1 0M717 646l0 -561M717 646l1 0M718 650l0 -519 1 -2M719 646l0 -561M719 646l1 0M720 650l0 -526 1 0M721 125l0 -15 1 -9M722 647l0 -557M722 646l1 0M723 656l0 -532 2 0M725 661l0 -583"/>
<path stroke="red" d="M725 124l1 0M726 647l0 -568M726 646l2 0M728 654l0 -564M728 646l1 0M729 656l0 -532 2 0M731 661l0 -583M731 124l1 0M732 647l0 -568M732 646l2 0M734 652l0 -528 1 0M735 646l0 -561M735 646l2 0M737 650l0 -565M737 646l1 0M738 650l0 -499"/>
<path stroke="red" d="M738 151l1 -8 0 -19 1 0M740 650l0 -526M740 646l2 0 0 -522 1 0M743 646l0 -522M743 125l1 0 0 -1 1 0M745 647l0 -523M745 646l1 0 0 -536M746 124l2 0M748 647l0 -546M748 646l1 0 0 -534 1 -2M750 646l0 -545M750 646l1 0 0 -522 1 0"/>
<path stroke="red" d="M752 647l0 -523M752 646l1 0 0 -522 1 0M754 647l0 -546M754 646l1 0 0 -519 1 -1M756 646l0 -545M756 646l1 0 0 -522 1 0M758 629l0 -505M758 629l1 3M759 647l0 -15M759 646l1 0 0 -522 2 0M762 647l0 -523 1 0M763 647l0 -523M763 646l2 0"/>
<path stroke="red" d="M765 646l0 -541M765 124l1 0M766 646l0 -561M766 646l2 0M768 650l0 -565M768 646l1 0M769 650l0 -526 2 0M771 647l0 -557M771 646l1 0M772 656l0 -532 2 0M774 661l0 -582M774 124l1 0M775 647l0 -568M775 646l2 0M777 654l0 -564M777 646l1 0"/>
<path stroke="red" d="M778 656l0 -11M778 656l1 -13 0 -519 1 0M780 661l0 -582M780 124l2 0M782 647l0 -568M782 646l1 0M783 652l0 -528 2 0M785 646l0 -561M785 646l1 0M786 650l0 -565M786 134l1 242M787 646l0 -270M787 646l1 0M788 650l0 -526 1 0M789 646l0 -522"/>
<path stroke="red" d="M789 646l1 0 0 -522 1 0M791 646l0 -561M791 646l1 0M792 650l0 -526 1 0M793 646l0 -561M793 646l1 0M794 650l0 -526 1 0M795 646l0 -556M795 646l1 0M796 647l0 -1 1 0M797 656l0 -532 1 0M798 125l0 -2 1 -9M799 661l0 -582M799 124l1 0"/>
<path stroke="red" d="M800 647l0 -568M800 646l2 0M802 654l0 -564M802 646l1 0M803 656l0 -532 2 0M805 661l0 -582M805 124l1 0M806 647l0 -568M806 646l2 0M808 652l0 -528 1 0M809 646l0 -561M809 646l2 0M811 650l0 -565M811 646l1 0M812 650l0 -526 2 0"/>
<path stroke="red" d="M814 648l0 -524M814 646l1 0 0 -362 1 -48 0 -112 1 0M817 646l0 -522 1 0M818 125l0 -1M818 125l1 9M819 647l0 -513M819 646l1 0 0 -536M820 124l2 0M822 647l0 -546M822 646l1 0 0 -545M823 646l2 0 0 -522 1 0M826 647l0 -523M826 643l1 0"/>
<path stroke="red" d="M827 645l0 -521 1 0M828 647l0 -546M828 646l1 0 0 -522 1 0M830 646l0 -545M830 646l1 0 0 -522 1 0M832 647l0 -523M832 646l2 0 0 -522 1 0M835 618l0 -494M835 618l1 9M836 647l0 -523 1 0M837 647l0 -523M837 646l2 0 0 -158M839 646l1 0"/>
<path stroke="red" d="M840 646l0 -522 2 0M842 646l0 -522 1 0M843 646l0 -522M843 646l2 0 0 -536M845 124l1 0M846 646l0 -545M846 646l2 0 0 -546M848 646l1 0 0 -522 2 0M851 646l0 -522 1 0M852 646l0 -545M852 646l2 0 0 -546M854 646l1 0 0 -6 1 -5 0 -511"/>
<path stroke="red" d="M856 124l1 0M857 646l0 -522M857 646l2 0 0 -522 1 0M860 646l0 -522M860 131l1 -2 0 -5 1 0M862 646l0 -522M862 646l1 0 0 -541M863 128l1 -1 0 -3 1 0M865 646l0 -561M865 646l1 0M866 650l0 -526 1 0M867 646l0 -561M867 646l1 0M868 650l0 -526"/>
<path stroke="red" d="M868 124l1 0M869 646l0 -556M869 646l1 0M870 647l0 -1 1 0M871 656l0 -532 1 0M872 646l0 -567M872 646l1 0M873 661l0 -537 1 0M874 647l0 -568M874 646l1 0M875 650l0 -4M875 650l1 3M876 654l0 -564M876 646l1 0M877 656l0 -532 2 0"/>
<path stroke="red" d="M879 661l0 -582M879 124l1 0M880 647l0 -568M880 646l2 0M882 652l0 -528 1 0M883 646l0 -561M883 646l2 0M885 650l0 -565M885 646l1 0M886 650l0 -526 2 0M888 646l0 -522 1 0M889 646l0 -561M889 646l2 0M891 650l0 -565M891 646l1 0"/>
<path stroke="red" d="M892 650l0 -496 1 -8 0 -22 1 0M894 647l0 -557M894 646l2 0M896 656l0 -532 1 0M897 661l0 -582M897 124l2 0M899 647l0 -568M899 646l1 0M900 654l0 -564M900 646l2 0M902 656l0 -532 1 0M903 646l0 -567M903 645l1 0M904 661l0 -537 1 0"/>
<path stroke="red" d="M905 647l0 -568M905 646l1 0M906 652l0 -528 2 0M908 646l0 -561M908 646l1 0M909 650l0 -525 1 0M910 646l0 -561M910 646l1 0M911 650l0 -526 1 0M912 575l0 -451M912 575l1 29M913 648l0 -44M913 646l1 0 0 -522 2 0M916 646l0 -522 1 0"/>
<path stroke="red" d="M917 646l0 -522M917 646l2 0 0 -536M919 124l1 0M920 646l0 -545M920 646l2 0 0 -546M922 646l1 0 0 -522 2 0M925 646l0 -522 1 0M926 646l0 -545M926 646l2 0 0 -546M928 646l1 0 0 -511 1 -3 0 -8 1 0M931 646l0 -522M931 646l1 0 0 -4"/>
<path stroke="red" d="M932 642l1 0 0 -518 1 0M934 646l0 -522 2 0M936 646l0 -522M936 646l1 0M937 649l0 -560M937 124l2 0M939 646l0 -561M939 646l1 0M940 650l0 -565M940 137l1 247M941 646l0 -262M941 646l1 0M942 650l0 -526 1 0M943 646l0 -556M943 646l1 0"/>
<path stroke="red" d="M944 647l0 -1 1 0M945 656l0 -532 1 0M946 646l0 -568M946 646l1 0M947 661l0 -537 1 0M948 647l0 -568M948 646l1 0M949 654l0 -526 1 -1M950 646l0 -556M950 646l1 0M951 656l0 -532 1 0M952 125l0 -2 1 -9M953 661l0 -583M953 124l1 0"/>
<path stroke="red" d="M954 647l0 -568M954 646l2 0M956 652l0 -528 1 0M957 646l0 -561M957 646l2 0M959 650l0 -565M959 646l1 0M960 650l0 -526 2 0M962 648l0 -550M962 646l1 0 0 -522 2 0M965 646l0 -522 1 0M966 647l0 -523M966 646l2 0 0 -536M968 124l1 0"/>
<path stroke="red" d="M969 631l0 -530M969 631l1 16 0 -5M970 646l1 0 0 -545M971 646l2 0 0 -522 1 0"/>
</svg>
