<?xml version="1.0" standalone="yes"?>
<!DOCTYPE svg PUBLIC "-//W3C//DTD SVG 1.1//EN"
 "http://www.w3.org/Graphics/SVG/1.1/DTD/svg11.dtd">
<svg xmlns="http://www.w3.org/2000/svg" version="1.1"
  width="100%" height="100%" viewBox="0 0 1024 768"
  style="fill: none; stroke-width: 3; font-family: Helvetica;
 font: Helvetica;
">

<!-- Creator: NGspice -->

<rect x="0" y="0" width="1024" height="768" fill="white" stroke="none"/>
<text stroke="none" fill="black" font-size="16" x="358" y="752">
time
</text>
<text stroke="none" fill="black" font-size="16" x="10" y="16">
tran1: Transient: Static Leakage Zoom
</text>
<path stroke="black" stroke-width="3" d="M60 704l0 -640"/>
<text stroke="none" fill="black" font-size="16" x="45" y="728">
0.0
</text>
<path stroke="black" stroke-width="3" stroke-dasharray="1,2" d="M150 704l0 -640"/>
<text stroke="none" fill="black" font-size="16" x="130" y="728">
10.0
</text>
<path stroke="black" stroke-width="3" stroke-dasharray="1,2" d="M240 704l0 -640"/>
<text stroke="none" fill="black" font-size="16" x="220" y="728">
20.0
</text>
<path stroke="black" stroke-width="3" stroke-dasharray="1,2" d="M330 704l0 -640"/>
<text stroke="none" fill="black" font-size="16" x="310" y="728">
30.0
</text>
<path stroke="black" stroke-width="3" stroke-dasharray="1,2" d="M420 704l0 -640"/>
<text stroke="none" fill="black" font-size="16" x="400" y="728">
40.0
</text>
<path stroke="black" stroke-width="3" stroke-dasharray="1,2" d="M510 704l0 -640"/>
<text stroke="none" fill="black" font-size="16" x="490" y="728">
50.0
</text>
<path stroke="black" stroke-width="3" stroke-dasharray="1,2" d="M600 704l0 -640"/>
<text stroke="none" fill="black" font-size="16" x="580" y="728">
60.0
</text>
<path stroke="black" stroke-width="3" stroke-dasharray="1,2" d="M690 704l0 -640"/>
<text stroke="none" fill="black" font-size="16" x="670" y="728">
70.0
</text>
<path stroke="black" stroke-width="3" stroke-dasharray="1,2" d="M780 704l0 -640"/>
<text stroke="none" fill="black" font-size="16" x="760" y="728">
80.0
</text>
<path stroke="black" stroke-width="3" stroke-dasharray="1,2" d="M870 704l0 -640"/>
<text stroke="none" fill="black" font-size="16" x="850" y="728">
90.0
</text>
<path stroke="black" stroke-width="3" stroke-dasharray="1,2" d="M960 704l0 -640"/>
<text stroke="none" fill="black" font-size="16" x="935" y="728">
100.0
</text>
<text stroke="none" fill="black" font-size="16" x="614" y="752">
ns
</text>
<path stroke="black" stroke-width="3" d="M60 704l900 0"/>
<text stroke="none" fill="black" font-size="16" x="28" y="712">
0.0
</text>
<path stroke="black" stroke-width="3" stroke-dasharray="1,2" d="M60 640l900 0"/>
<text stroke="none" fill="black" font-size="16" x="28" y="648">
1.0
</text>
<path stroke="black" stroke-width="3" stroke-dasharray="1,2" d="M60 576l900 0"/>
<text stroke="none" fill="black" font-size="16" x="28" y="584">
2.0
</text>
<path stroke="black" stroke-width="3" stroke-dasharray="1,2" d="M60 512l900 0"/>
<text stroke="none" fill="black" font-size="16" x="28" y="520">
3.0
</text>
<path stroke="black" stroke-width="3" stroke-dasharray="1,2" d="M60 448l900 0"/>
<text stroke="none" fill="black" font-size="16" x="28" y="456">
4.0
</text>
<path stroke="black" stroke-width="3" stroke-dasharray="1,2" d="M60 384l900 0"/>
<text stroke="none" fill="black" font-size="16" x="28" y="392">
5.0
</text>
<path stroke="black" stroke-width="3" stroke-dasharray="1,2" d="M60 320l900 0"/>
<text stroke="none" fill="black" font-size="16" x="28" y="328">
6.0
</text>
<path stroke="black" stroke-width="3" stroke-dasharray="1,2" d="M60 256l900 0"/>
<text stroke="none" fill="black" font-size="16" x="28" y="264">
7.0
</text>
<path stroke="black" stroke-width="3" stroke-dasharray="1,2" d="M60 192l900 0"/>
<text stroke="none" fill="black" font-size="16" x="28" y="200">
8.0
</text>
<path stroke="black" stroke-width="3" stroke-dasharray="1,2" d="M60 128l900 0"/>
<text stroke="none" fill="black" font-size="16" x="28" y="136">
9.0
</text>
<path stroke="black" stroke-width="3" stroke-dasharray="1,2" d="M60 64l900 0"/>
<text stroke="none" fill="black" font-size="16" x="18" y="72">
10.0
</text>
<text stroke="none" fill="black" font-size="16" x="10" y="32">
nA
</text>
<path stroke="red" d="M450 23l45 0"/>
<text stroke="none" fill="black" font-size="16" x="505" y="32">
-i(v_supply)
</text>
<path stroke="red" d="M60 704l9 0 0 -640M70 704l0 -640M71 704l0 -640M72 704l0 -640M73 704l0 -640M74 704l0 -640M75 704l0 -640M76 704l0 -640M77 704l0 -640M78 704l0 -640M79 704l0 -640M80 704l0 -640M81 704l0 -640M82 704l0 -640M83 704l0 -640M84 704l0 -640"/>
<path stroke="red" d="M85 704l0 -640M86 704l0 -640M87 704l0 -640M88 704l0 -640M89 704l0 -640M90 704l0 -640M91 704l0 -640M92 704l0 -640M93 704l0 -640M94 704l0 -640M95 704l0 -640M96 704l0 -640M97 704l0 -640M98 704l0 -640M99 704l0 -640M100 704l0 -640"/>
<path stroke="red" d="M101 704l0 -640M102 704l0 -640M103 704l0 -640M104 704l0 -640M105 704l0 -640M106 704l0 -640M107 704l0 -640M108 704l0 -640M109 704l0 -640M110 704l0 -640M111 704l0 -640M112 704l0 -640M113 704l0 -640M114 704l0 -640M115 704l0 -640"/>
<path stroke="red" d="M116 704l0 -640M117 704l0 -640M118 704l0 -640M119 704l0 -607M119 704l1 -576M120 704l0 -576M121 704l0 -543M121 704l1 -517M122 704l0 -517M123 704l0 -487M124 704l0 -460M124 704l1 -439M125 704l0 -439M126 704l0 -416M126 704l1 -397"/>
<path stroke="red" d="M127 704l0 -397M128 704l0 -376M128 704l1 -360M129 704l0 -360M130 704l0 -342M130 704l1 -328M131 704l0 -328M132 704l0 -312M133 704l0 -297M133 704l1 -285M134 704l0 -285M135 704l0 -272M135 704l1 -262M136 704l0 -262M137 704l0 -250"/>
<path stroke="red" d="M137 704l1 -241M138 704l0 -241M139 704l0 -230M139 704l1 -222M140 704l0 -222M141 704l0 -213M142 704l0 -204M142 704l1 -197M143 704l0 -197M144 704l0 -189M144 704l1 -183M145 704l0 -183M146 704l0 -176M146 704l1 -171M147 704l0 -171"/>
<path stroke="red" d="M148 704l0 -164M148 704l1 -159M149 704l0 -159M150 704l0 -153M151 704l0 -148M151 684l1 -2M152 684l0 -2M152 683l89 0 0 -619M242 704l0 -640M243 704l0 -640M244 704l0 -640M245 704l0 -640M246 704l0 -640M247 704l0 -640M248 704l0 -640"/>
<path stroke="red" d="M249 704l0 -640M249 704l1 -188M250 704l0 -188M251 704l0 -5M251 704l1 -4M252 704l0 -4M253 704l0 -3M253 704l1 -3M254 704l0 -3M255 704l0 -2M255 704l1 -2M256 704l0 -2M257 704l0 -2M257 704l1 -2M258 704l0 -2M258 704l1 -1M259 704l0 -1"/>
<path stroke="red" d="M260 704l0 -1M260 704l1 -1M261 704l0 -1M262 704l0 -1M262 704l1 -1M263 704l0 -1M264 704l0 -1M264 704l1 -1M265 704l0 -1 1 1 0 -1M266 704l1 -1M267 704l0 -1M267 704l1 -1M268 704l0 -1 1 1 160 0 0 -640M430 704l0 -640M431 704l0 -640"/>
<path stroke="red" d="M432 704l0 -640M433 704l0 -640M434 704l0 -640M435 704l0 -640M436 704l0 -640M437 704l0 -640M438 704l0 -640M439 704l0 -640M440 704l0 -640M441 704l0 -640M442 704l0 -640M443 704l0 -640M444 704l0 -640M445 704l0 -640M446 704l0 -640"/>
<path stroke="red" d="M447 704l0 -640M448 704l0 -640M449 704l0 -640M450 704l0 -640M451 704l0 -640M452 704l0 -640M453 704l0 -640M454 704l0 -640M455 704l0 -640M456 704l0 -640M457 704l0 -640M458 704l0 -640M459 704l0 -640M460 704l0 -640M461 704l0 -640"/>
<path stroke="red" d="M462 704l0 -640M463 704l0 -640M464 704l0 -640M465 704l0 -640M466 704l0 -640M467 704l0 -640M468 704l0 -640M469 704l0 -640M470 704l0 -640M471 704l0 -640M472 704l0 -640M473 704l0 -640M474 704l0 -640M475 704l0 -640M476 704l0 -640"/>
<path stroke="red" d="M477 704l0 -640M478 704l0 -640M479 704l0 -607M479 704l1 -576M480 704l0 -576M481 704l0 -543M481 704l1 -517M482 704l0 -517M483 704l0 -487M484 704l0 -460M484 704l1 -439M485 704l0 -439M486 704l0 -416M486 704l1 -397M487 704l0 -397"/>
<path stroke="red" d="M488 704l0 -376M488 704l1 -360M489 704l0 -360M490 704l0 -342M490 704l1 -328M491 704l0 -328M492 704l0 -312M493 704l0 -297M493 704l1 -285M494 704l0 -285M495 704l0 -272M495 704l1 -262M496 704l0 -262M497 704l0 -250M497 704l1 -241"/>
<path stroke="red" d="M498 704l0 -241M499 704l0 -230M499 704l1 -222M500 704l0 -222M501 704l0 -213M502 704l0 -204M502 704l1 -197M503 704l0 -197M504 704l0 -189M504 704l1 -183M505 704l0 -183M506 704l0 -176M506 704l1 -171M507 704l0 -171M508 704l0 -164"/>
<path stroke="red" d="M508 704l1 -159M509 704l0 -159M510 704l0 -153M511 704l0 -148M511 684l1 -2M512 684l0 -2M512 683l89 0 0 -619M602 704l0 -640M603 704l0 -640M604 704l0 -640M605 704l0 -640M606 704l0 -640M607 704l0 -640M608 704l0 -640M609 704l0 -640"/>
<path stroke="red" d="M609 704l1 -188M610 704l0 -188M611 704l0 -5M611 704l1 -4M612 704l0 -4M613 704l0 -3M613 704l1 -3M614 704l0 -3M615 704l0 -2M615 704l1 -2M616 704l0 -2M617 704l0 -2M617 704l1 -2M618 704l0 -2M618 704l1 -1M619 704l0 -1M620 704l0 -1"/>
<path stroke="red" d="M620 704l1 -1M621 704l0 -1M622 704l0 -1M622 704l1 -1M623 704l0 -1M624 704l0 -1M624 704l1 -1M625 704l0 -1 1 1 0 -1M626 704l1 -1M627 704l0 -1M627 704l1 -1M628 704l0 -1 1 1 160 0 0 -640M790 704l0 -640M791 704l0 -640M792 704l0 -640"/>
<path stroke="red" d="M793 704l0 -640M794 704l0 -640M795 704l0 -640M796 704l0 -640M797 704l0 -640M798 704l0 -640M799 704l0 -640M800 704l0 -640M801 704l0 -640M802 704l0 -640M803 704l0 -640M804 704l0 -640M805 704l0 -640M806 704l0 -640M807 704l0 -640"/>
<path stroke="red" d="M808 704l0 -640M809 704l0 -640M810 704l0 -640M811 704l0 -640M812 704l0 -640M813 704l0 -640M814 704l0 -640M815 704l0 -640M816 704l0 -640M817 704l0 -640M818 704l0 -640M819 704l0 -640M820 704l0 -640M821 704l0 -640M822 704l0 -640"/>
<path stroke="red" d="M823 704l0 -640M824 704l0 -640M825 704l0 -640M826 704l0 -640M827 704l0 -640M828 704l0 -640M829 704l0 -640M830 704l0 -640M831 704l0 -640M832 704l0 -640M833 704l0 -640M834 704l0 -640M835 704l0 -640M836 704l0 -640M837 704l0 -640"/>
<path stroke="red" d="M838 704l0 -640M839 704l0 -607M839 704l1 -576M840 704l0 -576M841 704l0 -543M841 704l1 -517M842 704l0 -517M843 704l0 -487M844 704l0 -460M844 704l1 -439M845 704l0 -439M846 704l0 -416M846 704l1 -397M847 704l0 -397M848 704l0 -376"/>
<path stroke="red" d="M848 704l1 -360M849 704l0 -360M850 704l0 -342M850 704l1 -328M851 704l0 -328M852 704l0 -312M853 704l0 -297M853 704l1 -285M854 704l0 -285M855 704l0 -272M855 704l1 -262M856 704l0 -262M857 704l0 -250M857 704l1 -241M858 704l0 -241"/>
<path stroke="red" d="M859 704l0 -230M859 704l1 -222M860 704l0 -222M861 704l0 -213M862 704l0 -204M862 704l1 -197M863 704l0 -197M864 704l0 -189M864 704l1 -183M865 704l0 -183M866 704l0 -176M866 704l1 -171M867 704l0 -171M868 704l0 -164M868 704l1 -159"/>
<path stroke="red" d="M869 704l0 -159M870 704l0 -153M871 704l0 -148M871 684l1 -2M872 684l0 -2M872 683l88 0"/>
</svg>
