<?xml version="1.0" standalone="yes"?>
<!DOCTYPE svg PUBLIC "-//W3C//DTD SVG 1.1//EN"
 "http://www.w3.org/Graphics/SVG/1.1/DTD/svg11.dtd">
<svg xmlns="http://www.w3.org/2000/svg" version="1.1"
  width="100%" height="100%" viewBox="0 0 1024 768"
  style="fill: none; stroke-width: 3; font-family: Helvetica;
 font: Helvetica;
">

<!-- Creator: NGspice -->

<rect x="0" y="0" width="1024" height="768" fill="white" stroke="none"/>
<text stroke="none" fill="black" font-size="16" x="358" y="752">
time
</text>
<text stroke="none" fill="black" font-size="16" x="10" y="16">
tran1: Transient: Total Supply Current
</text>
<path stroke="black" stroke-width="3" d="M70 704l0 -640"/>
<text stroke="none" fill="black" font-size="16" x="55" y="728">
0.0
</text>
<path stroke="black" stroke-width="3" stroke-dasharray="1,2" d="M158 704l0 -640"/>
<text stroke="none" fill="black" font-size="16" x="138" y="728">
10.0
</text>
<path stroke="black" stroke-width="3" stroke-dasharray="1,2" d="M246 704l0 -640"/>
<text stroke="none" fill="black" font-size="16" x="226" y="728">
20.0
</text>
<path stroke="black" stroke-width="3" stroke-dasharray="1,2" d="M334 704l0 -640"/>
<text stroke="none" fill="black" font-size="16" x="314" y="728">
30.0
</text>
<path stroke="black" stroke-width="3" stroke-dasharray="1,2" d="M422 704l0 -640"/>
<text stroke="none" fill="black" font-size="16" x="402" y="728">
40.0
</text>
<path stroke="black" stroke-width="3" stroke-dasharray="1,2" d="M510 704l0 -640"/>
<text stroke="none" fill="black" font-size="16" x="490" y="728">
50.0
</text>
<path stroke="black" stroke-width="3" stroke-dasharray="1,2" d="M598 704l0 -640"/>
<text stroke="none" fill="black" font-size="16" x="578" y="728">
60.0
</text>
<path stroke="black" stroke-width="3" stroke-dasharray="1,2" d="M686 704l0 -640"/>
<text stroke="none" fill="black" font-size="16" x="666" y="728">
70.0
</text>
<path stroke="black" stroke-width="3" stroke-dasharray="1,2" d="M774 704l0 -640"/>
<text stroke="none" fill="black" font-size="16" x="754" y="728">
80.0
</text>
<path stroke="black" stroke-width="3" stroke-dasharray="1,2" d="M862 704l0 -640"/>
<text stroke="none" fill="black" font-size="16" x="842" y="728">
90.0
</text>
<path stroke="black" stroke-width="3" stroke-dasharray="1,2" d="M950 704l0 -640"/>
<text stroke="none" fill="black" font-size="16" x="925" y="728">
100.0
</text>
<text stroke="none" fill="black" font-size="16" x="614" y="752">
ns
</text>
<path stroke="black" stroke-width="3" stroke-dasharray="1,2" d="M70 704l880 0"/>
<text stroke="none" fill="black" font-size="16" x="8" y="712">
-200.0
</text>
<path stroke="black" stroke-width="3" stroke-dasharray="1,2" d="M70 640l880 0"/>
<text stroke="none" fill="black" font-size="16" x="8" y="648">
-150.0
</text>
<path stroke="black" stroke-width="3" stroke-dasharray="1,2" d="M70 576l880 0"/>
<text stroke="none" fill="black" font-size="16" x="8" y="584">
-100.0
</text>
<path stroke="black" stroke-width="3" stroke-dasharray="1,2" d="M70 512l880 0"/>
<text stroke="none" fill="black" font-size="16" x="18" y="520">
-50.0
</text>
<path stroke="black" stroke-width="3" d="M70 448l880 0"/>
<text stroke="none" fill="black" font-size="16" x="38" y="456">
0.0
</text>
<path stroke="black" stroke-width="3" stroke-dasharray="1,2" d="M70 384l880 0"/>
<text stroke="none" fill="black" font-size="16" x="28" y="392">
50.0
</text>
<path stroke="black" stroke-width="3" stroke-dasharray="1,2" d="M70 320l880 0"/>
<text stroke="none" fill="black" font-size="16" x="18" y="328">
100.0
</text>
<path stroke="black" stroke-width="3" stroke-dasharray="1,2" d="M70 256l880 0"/>
<text stroke="none" fill="black" font-size="16" x="18" y="264">
150.0
</text>
<path stroke="black" stroke-width="3" stroke-dasharray="1,2" d="M70 192l880 0"/>
<text stroke="none" fill="black" font-size="16" x="18" y="200">
200.0
</text>
<path stroke="black" stroke-width="3" stroke-dasharray="1,2" d="M70 128l880 0"/>
<text stroke="none" fill="black" font-size="16" x="18" y="136">
250.0
</text>
<path stroke="black" stroke-width="3" stroke-dasharray="1,2" d="M70 64l880 0"/>
<text stroke="none" fill="black" font-size="16" x="18" y="72">
300.0
</text>
<text stroke="none" fill="black" font-size="16" x="10" y="32">
uA
</text>
<path stroke="red" d="M440 23l44 0"/>
<text stroke="none" fill="black" font-size="16" x="494" y="32">
-i(v_supply)
</text>
<path stroke="red" d="M70 448l9 0M79 549l0 -101M79 494l1 58M80 679l0 -232M80 449l1 -2M81 449l0 -2M81 449l1 -2M82 449l0 -2 1 2 0 -2M83 449l1 -2M84 449l0 -2M84 449l1 -2M85 449l0 -2 1 2 0 -2 1 2 0 -2M87 449l1 -2M88 481l0 -110M88 406l1 5M89 450l0 -39"/>
<path stroke="red" d="M89 446l1 4 0 -4M90 449l1 -2M91 449l0 -2 1 2 0 -2 1 2 0 -2M93 449l1 -2M94 449l0 -2 1 2 0 -2 1 1 72 0M168 539l0 -151M168 539l1 -32M169 535l0 -88 1 2 0 -2M170 449l1 -2M171 449l0 -2 1 2 0 -2 1 2 0 -2M173 448l74 0 0 -198 1 -45"/>
<path stroke="red" d="M248 450l0 -380M248 450l1 -4M249 450l0 -4M249 450l1 -4M250 450l0 -4 1 4 0 -4M251 449l1 -2M252 449l0 -2M252 449l1 -2M253 449l0 -2 1 2 0 -2 1 2 0 -2M255 449l1 -2M256 449l0 -2 1 2 0 -2M257 448l7 0M264 610l0 -162M264 543l1 -22"/>
<path stroke="red" d="M265 521l0 -75 1 4 0 -4M266 449l1 -2M267 449l0 -2 1 2 0 -2 1 2 0 -2M269 449l1 -2M270 449l0 -2 1 2 0 -2 1 2 0 -1 72 0 0 -153M344 331l1 14M345 449l0 -104M345 447l1 2 0 -2M346 449l1 -2M347 449l0 -2 1 2 0 -2 1 2 0 -2M349 449l1 -2"/>
<path stroke="red" d="M350 449l0 -2M350 448l81 0M431 549l0 -101M431 494l1 58M432 679l0 -232M432 449l1 -2M433 449l0 -2M433 449l1 -2M434 449l0 -2 1 2 0 -2M435 449l1 -2M436 449l0 -2M436 449l1 -2M437 449l0 -2 1 2 0 -2 1 2 0 -2M439 449l1 -2M440 481l0 -110"/>
<path stroke="red" d="M440 406l1 5M441 450l0 -39M441 446l1 4 0 -4M442 449l1 -2M443 449l0 -2 1 2 0 -2 1 2 0 -2M445 449l1 -2M446 449l0 -2 1 2 0 -2 1 1 72 0M520 539l0 -151M520 539l1 -32M521 535l0 -88 1 2 0 -2M522 449l1 -2M523 449l0 -2 1 2 0 -2 1 2"/>
<path stroke="red" d="M525 449l0 -2M525 448l74 0 0 -198 1 -45M600 450l0 -380M600 450l1 -4M601 450l0 -4M601 450l1 -4M602 450l0 -4 1 4 0 -4M603 447l1 2 0 -2M604 449l1 -2M605 449l0 -2 1 2 0 -2 1 2 0 -2M607 449l1 -2M608 449l0 -2 1 2 0 -2M609 448l7 0"/>
<path stroke="red" d="M616 610l0 -162M616 543l1 -22 0 -75 1 4 0 -4M618 449l1 -2M619 449l0 -2 1 2 0 -2 1 2 0 -2M621 449l1 -2M622 449l0 -2 1 2 0 -2 1 2 0 -1 72 0 0 -153M696 331l1 14M697 449l0 -104M697 447l1 2 0 -2M698 449l1 -2M699 449l0 -2 1 2"/>
<path stroke="red" d="M700 449l0 -2 1 2 0 -2M701 449l1 -2M702 449l0 -2M702 448l81 0M783 549l0 -101M783 494l1 58M784 679l0 -232M784 449l1 -2M785 449l0 -2M785 449l1 -2M786 449l0 -2 1 2 0 -2M787 449l1 -2M788 449l0 -2M788 449l1 -2M789 449l0 -2 1 2"/>
<path stroke="red" d="M790 449l0 -2 1 2 0 -2M791 449l1 -2M792 481l0 -110M792 406l1 5M793 450l0 -39M793 446l1 4 0 -4M794 449l1 -2M795 449l0 -2 1 2 0 -2 1 2 0 -2M797 449l1 -2M798 449l0 -2 1 2 0 -2 1 1 72 0M872 539l0 -151M872 539l1 -32M873 535l0 -88"/>
<path stroke="red" d="M873 447l1 2 0 -2M874 449l1 -2M875 449l0 -2 1 2 0 -2 1 2 0 -2M877 448l73 0"/>
</svg>
