<?xml version="1.0" standalone="yes"?>
<!DOCTYPE svg PUBLIC "-//W3C//DTD SVG 1.1//EN"
 "http://www.w3.org/Graphics/SVG/1.1/DTD/svg11.dtd">
<svg xmlns="http://www.w3.org/2000/svg" version="1.1"
  width="100%" height="100%" viewBox="0 0 1024 768"
  style="fill: none; stroke-width: 3; font-family: Helvetica;
 font: Helvetica;
">

<!-- Creator: NGspice -->

<rect x="0" y="0" width="1024" height="768" fill="white" stroke="none"/>
<text stroke="none" fill="black" font-size="16" x="358" y="752">
time
</text>
<text stroke="none" fill="black" font-size="16" x="10" y="16">
tran1: Transient: Static Leakage Zoom
</text>
<path stroke="black" stroke-width="3" d="M70 704l0 -640"/>
<text stroke="none" fill="black" font-size="16" x="55" y="728">
0.0
</text>
<path stroke="black" stroke-width="3" stroke-dasharray="1,2" d="M158 704l0 -640"/>
<text stroke="none" fill="black" font-size="16" x="138" y="728">
10.0
</text>
<path stroke="black" stroke-width="3" stroke-dasharray="1,2" d="M246 704l0 -640"/>
<text stroke="none" fill="black" font-size="16" x="226" y="728">
20.0
</text>
<path stroke="black" stroke-width="3" stroke-dasharray="1,2" d="M334 704l0 -640"/>
<text stroke="none" fill="black" font-size="16" x="314" y="728">
30.0
</text>
<path stroke="black" stroke-width="3" stroke-dasharray="1,2" d="M422 704l0 -640"/>
<text stroke="none" fill="black" font-size="16" x="402" y="728">
40.0
</text>
<path stroke="black" stroke-width="3" stroke-dasharray="1,2" d="M510 704l0 -640"/>
<text stroke="none" fill="black" font-size="16" x="490" y="728">
50.0
</text>
<path stroke="black" stroke-width="3" stroke-dasharray="1,2" d="M598 704l0 -640"/>
<text stroke="none" fill="black" font-size="16" x="578" y="728">
60.0
</text>
<path stroke="black" stroke-width="3" stroke-dasharray="1,2" d="M686 704l0 -640"/>
<text stroke="none" fill="black" font-size="16" x="666" y="728">
70.0
</text>
<path stroke="black" stroke-width="3" stroke-dasharray="1,2" d="M774 704l0 -640"/>
<text stroke="none" fill="black" font-size="16" x="754" y="728">
80.0
</text>
<path stroke="black" stroke-width="3" stroke-dasharray="1,2" d="M862 704l0 -640"/>
<text stroke="none" fill="black" font-size="16" x="842" y="728">
90.0
</text>
<path stroke="black" stroke-width="3" stroke-dasharray="1,2" d="M950 704l0 -640"/>
<text stroke="none" fill="black" font-size="16" x="925" y="728">
100.0
</text>
<text stroke="none" fill="black" font-size="16" x="614" y="752">
ns
</text>
<path stroke="black" stroke-width="3" d="M70 704l880 0"/>
<text stroke="none" fill="black" font-size="16" x="38" y="712">
0.0
</text>
<path stroke="black" stroke-width="3" stroke-dasharray="1,2" d="M70 640l880 0"/>
<text stroke="none" fill="black" font-size="16" x="28" y="648">
10.0
</text>
<path stroke="black" stroke-width="3" stroke-dasharray="1,2" d="M70 576l880 0"/>
<text stroke="none" fill="black" font-size="16" x="28" y="584">
20.0
</text>
<path stroke="black" stroke-width="3" stroke-dasharray="1,2" d="M70 512l880 0"/>
<text stroke="none" fill="black" font-size="16" x="28" y="520">
30.0
</text>
<path stroke="black" stroke-width="3" stroke-dasharray="1,2" d="M70 448l880 0"/>
<text stroke="none" fill="black" font-size="16" x="28" y="456">
40.0
</text>
<path stroke="black" stroke-width="3" stroke-dasharray="1,2" d="M70 384l880 0"/>
<text stroke="none" fill="black" font-size="16" x="28" y="392">
50.0
</text>
<path stroke="black" stroke-width="3" stroke-dasharray="1,2" d="M70 320l880 0"/>
<text stroke="none" fill="black" font-size="16" x="28" y="328">
60.0
</text>
<path stroke="black" stroke-width="3" stroke-dasharray="1,2" d="M70 256l880 0"/>
<text stroke="none" fill="black" font-size="16" x="28" y="264">
70.0
</text>
<path stroke="black" stroke-width="3" stroke-dasharray="1,2" d="M70 192l880 0"/>
<text stroke="none" fill="black" font-size="16" x="28" y="200">
80.0
</text>
<path stroke="black" stroke-width="3" stroke-dasharray="1,2" d="M70 128l880 0"/>
<text stroke="none" fill="black" font-size="16" x="28" y="136">
90.0
</text>
<path stroke="black" stroke-width="3" stroke-dasharray="1,2" d="M70 64l880 0"/>
<text stroke="none" fill="black" font-size="16" x="18" y="72">
100.0
</text>
<text stroke="none" fill="black" font-size="16" x="10" y="32">
nA
</text>
<path stroke="red" d="M440 23l44 0"/>
<text stroke="none" fill="black" font-size="16" x="494" y="32">
-i(v_supply)
</text>
<path stroke="red" d="M70 704l9 0M80 704l0 -640M81 704l0 -640M82 704l0 -640M83 704l0 -640M84 704l0 -640M85 704l0 -640M86 704l0 -640M87 704l0 -640M88 704l0 -640M89 704l0 -640M90 704l0 -640M91 704l0 -640M92 704l0 -640M93 704l0 -640M94 704l0 -640"/>
<path stroke="red" d="M95 704l0 -640M96 704l0 -640M97 704l0 -640M98 704l0 -640M99 704l0 -640M100 704l0 -640M101 704l0 -640M102 704l0 -640M103 704l0 -640M103 704l1 -591M104 704l0 -591M105 704l0 -507M105 704l1 -450M106 704l0 -450M106 704l1 -394"/>
<path stroke="red" d="M107 704l0 -394M108 704l0 -348M108 704l1 -316M109 704l0 -316M109 704l1 -284M110 704l0 -284M111 704l0 -258M112 704l0 -237M112 704l1 -221M113 704l0 -221M114 704l0 -205M115 704l0 -191M115 704l1 -182M116 704l0 -182M117 704l0 -171"/>
<path stroke="red" d="M118 704l0 -162M118 704l1 -155M119 704l0 -155M119 704l1 -147M120 704l0 -147M121 704l0 -141M121 704l1 -135M122 704l0 -135M122 704l1 -130M123 704l0 -130M124 704l0 -124M124 704l1 -120M125 704l0 -120M125 704l1 -116M126 704l0 -116"/>
<path stroke="red" d="M127 704l0 -111M127 704l1 -108M128 704l0 -108M128 704l1 -104M129 704l0 -104M130 704l0 -100M131 704l0 -97M131 704l1 -94M132 704l0 -94M133 704l0 -91M134 704l0 -87M134 704l1 -85M135 704l0 -85M136 704l0 -82M137 704l0 -79M137 704l1 -77"/>
<path stroke="red" d="M138 704l0 -77M139 704l0 -75M140 704l0 -72M140 704l1 -70M141 704l0 -70M141 704l1 -68M142 704l0 -68M143 704l0 -66M143 704l1 -64M144 704l0 -64M144 704l1 -62M145 704l0 -62M146 704l0 -60M146 704l1 -59M147 704l0 -59M147 704l1 -57"/>
<path stroke="red" d="M148 704l0 -57M149 704l0 -55M149 704l1 -54M150 704l0 -54M150 704l1 -53M151 704l0 -53M152 704l0 -51M153 704l0 -50M153 704l1 -48M154 704l0 -48M155 704l0 -47M156 704l0 -46M156 704l1 -45M157 704l0 -45M158 704l0 -43M159 704l0 -42"/>
<path stroke="red" d="M159 704l1 -41M160 704l0 -41M161 704l0 -40M162 704l0 -39M162 704l1 -38M163 704l0 -38M163 704l1 -37M164 704l0 -37M165 704l0 -36M165 704l1 -35M166 704l0 -35M166 704l1 -34M167 704l0 -34M168 704l0 -640M169 704l0 -640M170 704l0 -640"/>
<path stroke="red" d="M171 704l0 -640M172 704l0 -640M173 704l0 -640M174 704l0 -640M175 704l0 -640M176 704l0 -640M177 704l0 -640M178 704l0 -640M179 704l0 -640M180 704l0 -640M181 704l0 -640M182 704l0 -610M182 704l1 -534M183 704l0 -534M183 704l1 -456"/>
<path stroke="red" d="M184 704l0 -456M185 704l0 -389M186 704l0 -333M186 704l1 -292M187 704l0 -292M188 704l0 -249M189 704l0 -213M189 704l1 -186M190 704l0 -186M191 704l0 -158M192 704l0 -134M192 704l1 -117M193 704l0 -117M194 704l0 -98M195 704l0 -82"/>
<path stroke="red" d="M195 704l1 -70M196 704l0 -70M196 704l1 -58M197 704l0 -58M198 704l0 -46M198 704l1 -38M199 704l0 -38M199 704l1 -29M200 704l0 -29M201 704l0 -22M201 704l1 -16M202 704l0 -16M202 704l1 -10M203 704l0 -10M203 699l1 5 0 -4 1 4 0 -8"/>
<path stroke="red" d="M206 704l0 -12M206 704l1 -12M207 704l0 -15M208 704l0 -18M209 704l0 -21M209 704l1 -21M210 704l0 -23M210 704l1 -24M211 704l0 -25M212 704l0 -27M212 704l1 -27M213 704l0 -29M213 704l1 -29M214 704l0 -31M215 704l0 -32M215 704l1 -32"/>
<path stroke="red" d="M216 704l0 -33M216 704l1 -33M217 704l0 -34M218 704l0 -35M218 704l1 -35M219 704l0 -36M219 704l1 -36M220 704l0 -36M221 704l0 -37M222 704l0 -37M222 704l1 -37M223 704l0 -38M224 704l0 -38M225 704l0 -38M225 704l1 -38M226 704l0 -39"/>
<path stroke="red" d="M227 704l0 -39M228 704l0 -39M228 704l1 -39M229 704l0 -39M230 704l0 -39M231 704l0 -39M231 704l1 -39M232 704l0 -39M232 704l1 -39M233 704l0 -39M234 704l0 -38M234 704l1 -38M235 704l0 -38M235 704l1 -38M236 704l0 -38M237 704l0 -38"/>
<path stroke="red" d="M237 704l1 -38M238 704l0 -38M238 704l1 -38M239 704l0 -38M240 704l0 -37M240 704l1 -37M241 704l0 -37M241 704l1 -37M242 704l0 -37M243 704l0 -36M244 704l0 -36M244 704l1 -36M245 704l0 -36M246 704l0 -35M247 704l0 -640M248 704l0 -640"/>
<path stroke="red" d="M249 704l0 -640M250 704l0 -640M251 704l0 -640M252 704l0 -640M253 704l0 -640M254 704l0 -640M255 704l0 -640M256 704l0 -640M257 704l0 -640M258 704l0 -640M259 704l0 -640M260 704l0 -640M261 704l0 -640M262 704l0 -640M263 704l0 -640"/>
<path stroke="red" d="M264 704l0 -640M265 704l0 -640M266 704l0 -640M267 704l0 -640M268 704l0 -640M269 704l0 -640M270 704l0 -640M271 704l0 -640M272 704l0 -640M273 704l0 -640M274 704l0 -640M275 704l0 -640M276 704l0 -640M277 704l0 -640M278 704l0 -640"/>
<path stroke="red" d="M279 704l0 -640M279 704l1 -617M280 704l0 -617M281 704l0 -522M281 704l1 -456M282 704l0 -456M282 704l1 -389M283 704l0 -389M284 704l0 -333M284 704l1 -295M285 704l0 -295M285 704l1 -255M286 704l0 -255M287 704l0 -222M288 704l0 -195"/>
<path stroke="red" d="M288 704l1 -175M289 704l0 -175M290 704l0 -155M291 704l0 -137M291 704l1 -125M292 704l0 -125M293 704l0 -112M294 704l0 -100M294 704l1 -92M295 704l0 -92M296 704l0 -83M297 704l0 -75M297 704l1 -69M298 704l0 -69M298 704l1 -62M299 704l0 -62"/>
<path stroke="red" d="M300 704l0 -57M300 704l1 -52M301 704l0 -52M301 704l1 -47M302 704l0 -47M303 704l0 -42M303 704l1 -39M304 704l0 -39M304 704l1 -35M305 704l0 -35M306 704l0 -31M306 704l1 -28M307 704l0 -28M307 704l1 -25M308 704l0 -25M309 704l0 -22"/>
<path stroke="red" d="M310 704l0 -19M310 704l1 -17M311 704l0 -17M312 704l0 -14M313 704l0 -11M313 704l1 -9M314 704l0 -9M315 704l0 -7M316 704l0 -5M316 704l1 -3M317 704l0 -3M318 704l0 -1M318 704l1 -1M319 704l0 -2M320 704l0 -4M321 704l0 -5M321 704l1 -6"/>
<path stroke="red" d="M322 704l0 -7M323 704l0 -9M324 704l0 -10M324 704l1 -10M325 704l0 -11M326 704l0 -13M327 704l0 -14M327 704l1 -14M328 704l0 -15M329 704l0 -16M330 704l0 -17M330 704l1 -17M331 704l0 -18M331 704l1 -18M332 704l0 -19M333 704l0 -20"/>
<path stroke="red" d="M333 704l1 -20M334 704l0 -21M334 704l1 -21M335 704l0 -22M336 704l0 -23M336 704l1 -23M337 704l0 -24M337 704l1 -24M338 704l0 -24M339 704l0 -25M339 704l1 -25M340 704l0 -26M340 704l1 -26M341 704l0 -27M342 704l0 -27M343 704l0 -28"/>
<path stroke="red" d="M343 704l1 -28M344 704l0 -640M345 704l0 -640M346 704l0 -640M347 704l0 -640M348 704l0 -640M349 704l0 -640M350 704l0 -640M351 704l0 -640M352 704l0 -640M353 704l0 -640M354 704l0 -640M355 704l0 -640M356 704l0 -640M357 704l0 -640"/>
<path stroke="red" d="M358 704l0 -640M359 704l0 -640M360 704l0 -640M361 704l0 -640M362 704l0 -616M362 704l1 -559M363 704l0 -559M364 704l0 -499M365 704l0 -446M365 704l1 -407M366 704l0 -407M367 704l0 -366M368 704l0 -330M368 704l1 -303M369 704l0 -303"/>
<path stroke="red" d="M370 704l0 -275M371 704l0 -249M371 704l1 -231M372 704l0 -231M372 704l1 -211M373 704l0 -211M374 704l0 -193M374 704l1 -180M375 704l0 -180M375 704l1 -166M376 704l0 -166M377 704l0 -153M377 704l1 -144M378 704l0 -144M378 704l1 -133"/>
<path stroke="red" d="M379 704l0 -133M380 704l0 -124M380 704l1 -117M381 704l0 -117M381 704l1 -110M382 704l0 -110M383 704l0 -103M384 704l0 -97M384 704l1 -92M385 704l0 -92M386 704l0 -87M387 704l0 -83M387 704l1 -79M388 704l0 -79M389 704l0 -76M390 704l0 -72"/>
<path stroke="red" d="M390 704l1 -69M391 704l0 -69M392 704l0 -66M393 704l0 -64M393 704l1 -61M394 704l0 -61M394 704l1 -59M395 704l0 -59M396 704l0 -57M396 704l1 -55M397 704l0 -55M397 704l1 -53M398 704l0 -53M399 704l0 -52M399 704l1 -50M400 704l0 -50"/>
<path stroke="red" d="M400 704l1 -49M401 704l0 -49M402 704l0 -47M402 704l1 -46M403 704l0 -46M403 704l1 -45M404 704l0 -45M405 704l0 -44M406 704l0 -43M406 704l1 -42M407 704l0 -42M408 704l0 -41M409 704l0 -40M409 704l1 -39M410 704l0 -39M411 704l0 -39"/>
<path stroke="red" d="M412 704l0 -38M412 704l1 -37M413 704l0 -37M414 704l0 -36M415 704l0 -36M415 704l1 -35M416 704l0 -35M416 704l1 -35M417 704l0 -35M418 704l0 -34M418 704l1 -33M419 704l0 -33M419 704l1 -33M420 704l0 -33M421 704l0 -32M421 704l1 -32"/>
<path stroke="red" d="M422 704l0 -32M422 704l1 -32M423 704l0 -32M424 704l0 -31M424 704l1 -31M425 704l0 -31M425 704l1 -30M426 704l0 -30M427 704l0 -30M428 704l0 -29M428 704l1 -29M429 704l0 -29M430 704l0 -29M431 704l0 -28M432 704l0 -640M433 704l0 -640"/>
<path stroke="red" d="M434 704l0 -640M435 704l0 -640M436 704l0 -640M437 704l0 -640M438 704l0 -640M439 704l0 -640M440 704l0 -640M441 704l0 -640M442 704l0 -640M443 704l0 -640M444 704l0 -640M445 704l0 -640M446 704l0 -640M447 704l0 -640M448 704l0 -640"/>
<path stroke="red" d="M449 704l0 -640M450 704l0 -640M451 704l0 -640M452 704l0 -640M453 704l0 -640M454 704l0 -640M455 704l0 -640M455 704l1 -591M456 704l0 -591M457 704l0 -507M457 704l1 -450M458 704l0 -450M458 704l1 -394M459 704l0 -394M460 704l0 -348"/>
<path stroke="red" d="M461 704l0 -310M461 704l1 -284M462 704l0 -284M463 704l0 -258M464 704l0 -237M464 704l1 -221M465 704l0 -221M466 704l0 -205M467 704l0 -191M467 704l1 -182M468 704l0 -182M469 704l0 -171M470 704l0 -162M470 704l1 -155M471 704l0 -155"/>
<path stroke="red" d="M471 704l1 -147M472 704l0 -147M473 704l0 -141M473 704l1 -135M474 704l0 -135M474 704l1 -130M475 704l0 -130M476 704l0 -124M476 704l1 -120M477 704l0 -120M477 704l1 -116M478 704l0 -116M479 704l0 -111M479 704l1 -108M480 704l0 -108"/>
<path stroke="red" d="M480 704l1 -104M481 704l0 -104M482 704l0 -100M483 704l0 -97M483 704l1 -94M484 704l0 -94M485 704l0 -91M486 704l0 -87M486 704l1 -85M487 704l0 -85M488 704l0 -82M489 704l0 -79M489 704l1 -77M490 704l0 -77M491 704l0 -75M492 704l0 -72"/>
<path stroke="red" d="M492 704l1 -70M493 704l0 -70M493 704l1 -68M494 704l0 -68M495 704l0 -66M495 704l1 -64M496 704l0 -64M496 704l1 -62M497 704l0 -62M498 704l0 -60M498 704l1 -59M499 704l0 -59M499 704l1 -57M500 704l0 -57M501 704l0 -55M501 704l1 -54"/>
<path stroke="red" d="M502 704l0 -54M502 704l1 -53M503 704l0 -53M504 704l0 -51M505 704l0 -50M505 704l1 -48M506 704l0 -48M507 704l0 -47M508 704l0 -46M508 704l1 -45M509 704l0 -45M510 704l0 -43M511 704l0 -42M511 704l1 -41M512 704l0 -41M513 704l0 -40"/>
<path stroke="red" d="M514 704l0 -39M514 704l1 -38M515 704l0 -38M515 704l1 -37M516 704l0 -37M517 704l0 -36M517 704l1 -35M518 704l0 -35M518 704l1 -34M519 704l0 -34M520 704l0 -640M521 704l0 -640M522 704l0 -640M523 704l0 -640M524 704l0 -640M525 704l0 -640"/>
<path stroke="red" d="M526 704l0 -640M527 704l0 -640M528 704l0 -640M529 704l0 -640M530 704l0 -640M531 704l0 -640M532 704l0 -640M533 704l0 -640M534 704l0 -610M534 704l1 -534M535 704l0 -534M535 704l1 -456M536 704l0 -456M537 704l0 -389M538 704l0 -333"/>
<path stroke="red" d="M538 704l1 -292M539 704l0 -292M540 704l0 -249M541 704l0 -213M541 704l1 -186M542 704l0 -186M543 704l0 -158M544 704l0 -134M544 704l1 -117M545 704l0 -117M546 704l0 -98M547 704l0 -82M547 704l1 -70M548 704l0 -70M548 704l1 -58"/>
<path stroke="red" d="M549 704l0 -58M550 704l0 -46M550 704l1 -38M551 704l0 -38M551 704l1 -29M552 704l0 -29M553 704l0 -22M553 704l1 -16M554 704l0 -16M554 704l1 -10M555 704l0 -10M555 699l1 5 0 -4 1 4 0 -8M558 704l0 -12M558 704l1 -12M559 704l0 -15"/>
<path stroke="red" d="M559 704l1 -16M560 704l0 -18M561 704l0 -21M561 704l1 -21M562 704l0 -23M562 704l1 -24M563 704l0 -25M564 704l0 -27M564 704l1 -27M565 704l0 -29M565 704l1 -29M566 704l0 -31M567 704l0 -32M567 704l1 -32M568 704l0 -33M568 704l1 -33"/>
<path stroke="red" d="M569 704l0 -34M570 704l0 -35M571 704l0 -36M571 704l1 -36M572 704l0 -36M573 704l0 -37M574 704l0 -37M574 704l1 -37M575 704l0 -38M576 704l0 -38M577 704l0 -38M577 704l1 -38M578 704l0 -39M579 704l0 -39M580 704l0 -39M580 704l1 -39"/>
<path stroke="red" d="M581 704l0 -39M581 704l1 -39M582 704l0 -39M583 704l0 -39M583 704l1 -39M584 704l0 -39M584 704l1 -39M585 704l0 -39M586 704l0 -38M586 704l1 -38M587 704l0 -38M587 704l1 -38M588 704l0 -38M589 704l0 -38M589 704l1 -38M590 704l0 -38"/>
<path stroke="red" d="M590 704l1 -38M591 704l0 -38M592 704l0 -37M593 704l0 -37M593 704l1 -37M594 704l0 -37M595 704l0 -36M596 704l0 -36M596 704l1 -36M597 704l0 -36M598 704l0 -35M599 704l0 -640M600 704l0 -640M601 704l0 -640M602 704l0 -640M603 704l0 -640"/>
<path stroke="red" d="M604 704l0 -640M605 704l0 -640M606 704l0 -640M607 704l0 -640M608 704l0 -640M609 704l0 -640M610 704l0 -640M611 704l0 -640M612 704l0 -640M613 704l0 -640M614 704l0 -640M615 704l0 -640M616 704l0 -640M617 704l0 -640M618 704l0 -640"/>
<path stroke="red" d="M619 704l0 -640M620 704l0 -640M621 704l0 -640M622 704l0 -640M623 704l0 -640M624 704l0 -640M625 704l0 -640M626 704l0 -640M627 704l0 -640M628 704l0 -640M629 704l0 -640M630 704l0 -640M631 704l0 -640M631 704l1 -617M632 704l0 -617"/>
<path stroke="red" d="M633 704l0 -522M633 704l1 -456M634 704l0 -456M634 704l1 -389M635 704l0 -389M636 704l0 -333M637 704l0 -288M637 704l1 -255M638 704l0 -255M639 704l0 -222M640 704l0 -195M640 704l1 -175M641 704l0 -175M642 704l0 -155M643 704l0 -137"/>
<path stroke="red" d="M643 704l1 -125M644 704l0 -125M645 704l0 -112M646 704l0 -100M646 704l1 -92M647 704l0 -92M647 704l1 -83M648 704l0 -83M649 704l0 -75M649 704l1 -69M650 704l0 -69M650 704l1 -62M651 704l0 -62M652 704l0 -57M652 704l1 -52M653 704l0 -52"/>
<path stroke="red" d="M653 704l1 -47M654 704l0 -47M655 704l0 -42M655 704l1 -39M656 704l0 -39M656 704l1 -35M657 704l0 -35M658 704l0 -31M659 704l0 -28M659 704l1 -25M660 704l0 -25M661 704l0 -22M662 704l0 -19M662 704l1 -17M663 704l0 -17M664 704l0 -14"/>
<path stroke="red" d="M665 704l0 -11M665 704l1 -9M666 704l0 -9M667 704l0 -7M668 704l0 -5M668 704l1 -3M669 704l0 -3M669 704l1 -1M670 704l0 -1M670 704l1 -1M671 704l0 -2M672 704l0 -4M673 704l0 -5M673 704l1 -6M674 704l0 -7M675 704l0 -9M676 704l0 -10"/>
<path stroke="red" d="M676 704l1 -10M677 704l0 -11M678 704l0 -13M679 704l0 -14M679 704l1 -14M680 704l0 -15M680 704l1 -15M681 704l0 -16M682 704l0 -17M682 704l1 -17M683 704l0 -18M683 704l1 -18M684 704l0 -19M685 704l0 -20M685 704l1 -20M686 704l0 -21"/>
<path stroke="red" d="M686 704l1 -21M687 704l0 -22M688 704l0 -23M688 704l1 -23M689 704l0 -24M689 704l1 -24M690 704l0 -24M691 704l0 -25M692 704l0 -26M692 704l1 -26M693 704l0 -27M694 704l0 -27M695 704l0 -28M695 704l1 -28M696 704l0 -640M697 704l0 -640"/>
<path stroke="red" d="M698 704l0 -640M699 704l0 -640M700 704l0 -640M701 704l0 -640M702 704l0 -640M703 704l0 -640M704 704l0 -640M705 704l0 -640M706 704l0 -640M707 704l0 -640M708 704l0 -640M709 704l0 -640M710 704l0 -640M711 704l0 -640M712 704l0 -640"/>
<path stroke="red" d="M713 704l0 -640M714 704l0 -616M714 704l1 -559M715 704l0 -559M716 704l0 -499M717 704l0 -446M717 704l1 -407M718 704l0 -407M719 704l0 -366M720 704l0 -330M720 704l1 -303M721 704l0 -303M722 704l0 -275M723 704l0 -249M723 704l1 -231"/>
<path stroke="red" d="M724 704l0 -231M724 704l1 -211M725 704l0 -211M726 704l0 -193M726 704l1 -180M727 704l0 -180M727 704l1 -166M728 704l0 -166M729 704l0 -153M729 704l1 -144M730 704l0 -144M730 704l1 -133M731 704l0 -133M732 704l0 -124M732 704l1 -117"/>
<path stroke="red" d="M733 704l0 -117M733 704l1 -110M734 704l0 -110M735 704l0 -103M736 704l0 -97M736 704l1 -92M737 704l0 -92M738 704l0 -87M739 704l0 -83M739 704l1 -79M740 704l0 -79M741 704l0 -76M742 704l0 -72M742 704l1 -69M743 704l0 -69M744 704l0 -66"/>
<path stroke="red" d="M745 704l0 -64M745 704l1 -61M746 704l0 -61M746 704l1 -59M747 704l0 -59M748 704l0 -57M748 704l1 -55M749 704l0 -55M749 704l1 -53M750 704l0 -53M751 704l0 -52M751 704l1 -50M752 704l0 -50M752 704l1 -49M753 704l0 -49M754 704l0 -47"/>
<path stroke="red" d="M754 704l1 -46M755 704l0 -46M755 704l1 -45M756 704l0 -45M757 704l0 -44M758 704l0 -43M758 704l1 -42M759 704l0 -42M760 704l0 -41M761 704l0 -40M761 704l1 -39M762 704l0 -39M763 704l0 -39M764 704l0 -38M764 704l1 -37M765 704l0 -37"/>
<path stroke="red" d="M766 704l0 -36M767 704l0 -36M767 704l1 -35M768 704l0 -35M768 704l1 -35M769 704l0 -35M770 704l0 -34M770 704l1 -33M771 704l0 -33M771 704l1 -33M772 704l0 -33M773 704l0 -32M773 704l1 -32M774 704l0 -32M774 704l1 -32M775 704l0 -32"/>
<path stroke="red" d="M776 704l0 -31M776 704l1 -31M777 704l0 -31M777 704l1 -30M778 704l0 -30M779 704l0 -30M780 704l0 -29M780 704l1 -29M781 704l0 -29M782 704l0 -29M783 704l0 -28M784 704l0 -640M785 704l0 -640M786 704l0 -640M787 704l0 -640M788 704l0 -640"/>
<path stroke="red" d="M789 704l0 -640M790 704l0 -640M791 704l0 -640M792 704l0 -640M793 704l0 -640M794 704l0 -640M795 704l0 -640M796 704l0 -640M797 704l0 -640M798 704l0 -640M799 704l0 -640M800 704l0 -640M801 704l0 -640M802 704l0 -640M803 704l0 -640"/>
<path stroke="red" d="M804 704l0 -640M805 704l0 -640M806 704l0 -640M807 704l0 -640M807 704l1 -591M808 704l0 -591M809 704l0 -507M809 704l1 -450M810 704l0 -450M810 704l1 -394M811 704l0 -394M812 704l0 -348M813 704l0 -310M813 704l1 -284M814 704l0 -284"/>
<path stroke="red" d="M815 704l0 -258M816 704l0 -237M816 704l1 -221M817 704l0 -221M818 704l0 -205M819 704l0 -191M819 704l1 -182M820 704l0 -182M821 704l0 -171M822 704l0 -162M822 704l1 -155M823 704l0 -155M823 704l1 -147M824 704l0 -147M825 704l0 -141"/>
<path stroke="red" d="M825 704l1 -135M826 704l0 -135M826 704l1 -130M827 704l0 -130M828 704l0 -124M828 704l1 -120M829 704l0 -120M829 704l1 -116M830 704l0 -116M831 704l0 -111M831 704l1 -108M832 704l0 -108M832 704l1 -104M833 704l0 -104M834 704l0 -100"/>
<path stroke="red" d="M835 704l0 -97M835 704l1 -94M836 704l0 -94M837 704l0 -91M838 704l0 -87M838 704l1 -85M839 704l0 -85M840 704l0 -82M841 704l0 -79M841 704l1 -77M842 704l0 -77M843 704l0 -75M844 704l0 -72M844 704l1 -70M845 704l0 -70M845 704l1 -68"/>
<path stroke="red" d="M846 704l0 -68M847 704l0 -66M847 704l1 -64M848 704l0 -64M848 704l1 -62M849 704l0 -62M850 704l0 -60M850 704l1 -59M851 704l0 -59M851 704l1 -57M852 704l0 -57M853 704l0 -55M853 704l1 -54M854 704l0 -54M854 704l1 -53M855 704l0 -53"/>
<path stroke="red" d="M856 704l0 -51M857 704l0 -50M857 704l1 -48M858 704l0 -48M859 704l0 -47M860 704l0 -46M860 704l1 -45M861 704l0 -45M862 704l0 -43M863 704l0 -42M863 704l1 -41M864 704l0 -41M865 704l0 -40M866 704l0 -39M866 704l1 -38M867 704l0 -38"/>
<path stroke="red" d="M867 704l1 -37M868 704l0 -37M869 704l0 -36M869 704l1 -35M870 704l0 -35M870 704l1 -34M871 704l0 -34M872 704l0 -640M873 704l0 -640M874 704l0 -640M875 704l0 -640M876 704l0 -640M877 704l0 -640M878 704l0 -640M879 704l0 -640M880 704l0 -640"/>
<path stroke="red" d="M881 704l0 -640M882 704l0 -640M883 704l0 -640M884 704l0 -640M885 704l0 -640M886 704l0 -610M886 704l1 -534M887 704l0 -534M887 704l1 -456M888 704l0 -456M889 704l0 -389M890 704l0 -333M890 704l1 -292M891 704l0 -292M892 704l0 -249"/>
<path stroke="red" d="M893 704l0 -213M893 704l1 -186M894 704l0 -186M895 704l0 -158M896 704l0 -134M896 704l1 -117M897 704l0 -117M898 704l0 -98M899 704l0 -82M899 704l1 -70M900 704l0 -70M900 704l1 -58M901 704l0 -58M902 704l0 -46M902 704l1 -38M903 704l0 -38"/>
<path stroke="red" d="M903 704l1 -29M904 704l0 -29M905 704l0 -22M905 704l1 -16M906 704l0 -16M906 704l1 -10M907 704l0 -10M907 699l1 5 0 -4 1 4 0 -8M910 704l0 -12M910 704l1 -12M911 704l0 -15M911 704l1 -16M912 704l0 -18M913 704l0 -21M913 704l1 -21"/>
<path stroke="red" d="M914 704l0 -23M914 704l1 -24M915 704l0 -25M916 704l0 -27M916 704l1 -27M917 704l0 -29M917 704l1 -29M918 704l0 -31M919 704l0 -32M919 704l1 -32M920 704l0 -33M920 704l1 -33M921 704l0 -34M922 704l0 -35M923 704l0 -36M923 704l1 -36"/>
<path stroke="red" d="M924 704l0 -36M925 704l0 -37M926 704l0 -37M926 704l1 -37M927 704l0 -38M928 704l0 -38M929 704l0 -38M929 704l1 -38M930 704l0 -39M931 704l0 -39M932 704l0 -39M932 704l1 -39M933 704l0 -39M933 704l1 -39M934 704l0 -39M935 704l0 -39"/>
<path stroke="red" d="M935 704l1 -39M936 704l0 -39M936 704l1 -39M937 704l0 -39M938 704l0 -38M938 704l1 -38M939 704l0 -38M939 704l1 -38M940 704l0 -38M941 704l0 -38M941 704l1 -38M942 704l0 -38M942 704l1 -38M943 704l0 -38M944 704l0 -37M945 704l0 -37"/>
<path stroke="red" d="M945 704l1 -37M946 704l0 -37M947 704l0 -36M948 704l0 -36M948 704l1 -36M949 704l0 -36M950 704l0 -35"/>
</svg>
