<?xml version="1.0" standalone="yes"?>
<!DOCTYPE svg PUBLIC "-//W3C//DTD SVG 1.1//EN"
 "http://www.w3.org/Graphics/SVG/1.1/DTD/svg11.dtd">
<svg xmlns="http://www.w3.org/2000/svg" version="1.1"
  width="100%" height="100%" viewBox="0 0 1024 768"
  style="fill: none; stroke-width: 3; font-family: Helvetica;
 font: Helvetica;
">

<!-- Creator: NGspice -->

<rect x="0" y="0" width="1024" height="768" fill="white" stroke="none"/>
<text stroke="none" fill="black" font-size="16" x="358" y="752">
time
</text>
<text stroke="none" fill="black" font-size="16" x="10" y="16">
tran1: Transient: Cumulative Energy
</text>
<path stroke="black" stroke-width="3" d="M60 704l0 -640"/>
<text stroke="none" fill="black" font-size="16" x="45" y="728">
0.0
</text>
<path stroke="black" stroke-width="3" stroke-dasharray="1,2" d="M150 704l0 -640"/>
<text stroke="none" fill="black" font-size="16" x="130" y="728">
10.0
</text>
<path stroke="black" stroke-width="3" stroke-dasharray="1,2" d="M240 704l0 -640"/>
<text stroke="none" fill="black" font-size="16" x="220" y="728">
20.0
</text>
<path stroke="black" stroke-width="3" stroke-dasharray="1,2" d="M330 704l0 -640"/>
<text stroke="none" fill="black" font-size="16" x="310" y="728">
30.0
</text>
<path stroke="black" stroke-width="3" stroke-dasharray="1,2" d="M420 704l0 -640"/>
<text stroke="none" fill="black" font-size="16" x="400" y="728">
40.0
</text>
<path stroke="black" stroke-width="3" stroke-dasharray="1,2" d="M510 704l0 -640"/>
<text stroke="none" fill="black" font-size="16" x="490" y="728">
50.0
</text>
<path stroke="black" stroke-width="3" stroke-dasharray="1,2" d="M600 704l0 -640"/>
<text stroke="none" fill="black" font-size="16" x="580" y="728">
60.0
</text>
<path stroke="black" stroke-width="3" stroke-dasharray="1,2" d="M690 704l0 -640"/>
<text stroke="none" fill="black" font-size="16" x="670" y="728">
70.0
</text>
<path stroke="black" stroke-width="3" stroke-dasharray="1,2" d="M780 704l0 -640"/>
<text stroke="none" fill="black" font-size="16" x="760" y="728">
80.0
</text>
<path stroke="black" stroke-width="3" stroke-dasharray="1,2" d="M870 704l0 -640"/>
<text stroke="none" fill="black" font-size="16" x="850" y="728">
90.0
</text>
<path stroke="black" stroke-width="3" stroke-dasharray="1,2" d="M960 704l0 -640"/>
<text stroke="none" fill="black" font-size="16" x="935" y="728">
100.0
</text>
<text stroke="none" fill="black" font-size="16" x="614" y="752">
ns
</text>
<path stroke="black" stroke-width="3" stroke-dasharray="1,2" d="M60 704l900 0"/>
<text stroke="none" fill="black" font-size="16" x="8" y="712">
-20.0
</text>
<path stroke="black" stroke-width="3" stroke-dasharray="1,2" d="M60 640l900 0"/>
<text stroke="none" fill="black" font-size="16" x="8" y="648">
-15.0
</text>
<path stroke="black" stroke-width="3" stroke-dasharray="1,2" d="M60 576l900 0"/>
<text stroke="none" fill="black" font-size="16" x="8" y="584">
-10.0
</text>
<path stroke="black" stroke-width="3" stroke-dasharray="1,2" d="M60 512l900 0"/>
<text stroke="none" fill="black" font-size="16" x="18" y="520">
-5.0
</text>
<path stroke="black" stroke-width="3" d="M60 448l900 0"/>
<text stroke="none" fill="black" font-size="16" x="28" y="456">
0.0
</text>
<path stroke="black" stroke-width="3" stroke-dasharray="1,2" d="M60 384l900 0"/>
<text stroke="none" fill="black" font-size="16" x="28" y="392">
5.0
</text>
<path stroke="black" stroke-width="3" stroke-dasharray="1,2" d="M60 320l900 0"/>
<text stroke="none" fill="black" font-size="16" x="18" y="328">
10.0
</text>
<path stroke="black" stroke-width="3" stroke-dasharray="1,2" d="M60 256l900 0"/>
<text stroke="none" fill="black" font-size="16" x="18" y="264">
15.0
</text>
<path stroke="black" stroke-width="3" stroke-dasharray="1,2" d="M60 192l900 0"/>
<text stroke="none" fill="black" font-size="16" x="18" y="200">
20.0
</text>
<path stroke="black" stroke-width="3" stroke-dasharray="1,2" d="M60 128l900 0"/>
<text stroke="none" fill="black" font-size="16" x="18" y="136">
25.0
</text>
<path stroke="black" stroke-width="3" stroke-dasharray="1,2" d="M60 64l900 0"/>
<text stroke="none" fill="black" font-size="16" x="18" y="72">
30.0
</text>
<text stroke="none" fill="black" font-size="16" x="10" y="32">
f     
</text>
<path stroke="red" d="M450 23l45 0"/>
<text stroke="none" fill="black" font-size="16" x="505" y="32">
total_energy
</text>
<path stroke="red" d="M60 448l9 0M69 538l0 -90M69 538l1 9M70 652l0 -105M70 652l8 0M78 672l0 -20M78 672l1 -3 0 -37 81 0 0 -37 1 7M161 652l0 -50M161 652l80 0 0 -166 1 -39 0 -183 16 0M258 357l0 -93M258 357l1 18M259 479l0 -104M259 479l81 0 0 -126"/>
<path stroke="red" d="M340 353l1 -24 0 -65 88 0M429 354l0 -90M429 354l1 9M430 468l0 -105M430 468l8 0M438 488l0 -20M438 488l1 -3 0 -37 81 0 0 -37 1 7M521 468l0 -50M521 468l80 0 0 -166 1 -39 0 -183 16 0M618 173l0 -93M618 173l1 18M619 296l0 -105"/>
<path stroke="red" d="M619 296l81 0 0 -127 1 -24 0 -65 88 0M789 170l0 -90M789 170l1 9M790 284l0 -105M790 284l8 0M798 304l0 -20M798 304l1 -3 0 -37 81 0 0 -37 1 7M881 284l0 -50M881 284l79 0"/>
</svg>
