<?xml version="1.0" standalone="yes"?>
<!DOCTYPE svg PUBLIC "-//W3C//DTD SVG 1.1//EN"
 "http://www.w3.org/Graphics/SVG/1.1/DTD/svg11.dtd">
<svg xmlns="http://www.w3.org/2000/svg" version="1.1"
  width="100%" height="100%" viewBox="0 0 1024 768"
  style="fill: none; stroke-width: 3; font-family: Helvetica;
 font: Helvetica;
">

<!-- Creator: NGspice -->

<rect x="0" y="0" width="1024" height="768" fill="white" stroke="none"/>
<text stroke="none" fill="black" font-size="16" x="358" y="752">
time
</text>
<text stroke="none" fill="black" font-size="16" x="10" y="16">
tran1: Transient: Total Supply Current
</text>
<path stroke="black" stroke-width="3" d="M70 704l0 -639"/>
<text stroke="none" fill="black" font-size="16" x="55" y="728">
0.0
</text>
<path stroke="black" stroke-width="3" stroke-dasharray="1,2" d="M158 704l0 -639"/>
<text stroke="none" fill="black" font-size="16" x="138" y="728">
10.0
</text>
<path stroke="black" stroke-width="3" stroke-dasharray="1,2" d="M246 704l0 -639"/>
<text stroke="none" fill="black" font-size="16" x="226" y="728">
20.0
</text>
<path stroke="black" stroke-width="3" stroke-dasharray="1,2" d="M334 704l0 -639"/>
<text stroke="none" fill="black" font-size="16" x="314" y="728">
30.0
</text>
<path stroke="black" stroke-width="3" stroke-dasharray="1,2" d="M422 704l0 -639"/>
<text stroke="none" fill="black" font-size="16" x="402" y="728">
40.0
</text>
<path stroke="black" stroke-width="3" stroke-dasharray="1,2" d="M510 704l0 -639"/>
<text stroke="none" fill="black" font-size="16" x="490" y="728">
50.0
</text>
<path stroke="black" stroke-width="3" stroke-dasharray="1,2" d="M598 704l0 -639"/>
<text stroke="none" fill="black" font-size="16" x="578" y="728">
60.0
</text>
<path stroke="black" stroke-width="3" stroke-dasharray="1,2" d="M686 704l0 -639"/>
<text stroke="none" fill="black" font-size="16" x="666" y="728">
70.0
</text>
<path stroke="black" stroke-width="3" stroke-dasharray="1,2" d="M774 704l0 -639"/>
<text stroke="none" fill="black" font-size="16" x="754" y="728">
80.0
</text>
<path stroke="black" stroke-width="3" stroke-dasharray="1,2" d="M862 704l0 -639"/>
<text stroke="none" fill="black" font-size="16" x="842" y="728">
90.0
</text>
<path stroke="black" stroke-width="3" stroke-dasharray="1,2" d="M950 704l0 -639"/>
<text stroke="none" fill="black" font-size="16" x="925" y="728">
100.0
</text>
<text stroke="none" fill="black" font-size="16" x="614" y="752">
ns
</text>
<path stroke="black" stroke-width="3" stroke-dasharray="1,2" d="M70 704l880 0"/>
<text stroke="none" fill="black" font-size="16" x="8" y="712">
-100.0
</text>
<path stroke="black" stroke-width="3" stroke-dasharray="1,2" d="M70 633l880 0"/>
<text stroke="none" fill="black" font-size="16" x="18" y="641">
-50.0
</text>
<path stroke="black" stroke-width="3" d="M70 562l880 0"/>
<text stroke="none" fill="black" font-size="16" x="38" y="570">
0.0
</text>
<path stroke="black" stroke-width="3" stroke-dasharray="1,2" d="M70 491l880 0"/>
<text stroke="none" fill="black" font-size="16" x="28" y="499">
50.0
</text>
<path stroke="black" stroke-width="3" stroke-dasharray="1,2" d="M70 420l880 0"/>
<text stroke="none" fill="black" font-size="16" x="18" y="428">
100.0
</text>
<path stroke="black" stroke-width="3" stroke-dasharray="1,2" d="M70 349l880 0"/>
<text stroke="none" fill="black" font-size="16" x="18" y="357">
150.0
</text>
<path stroke="black" stroke-width="3" stroke-dasharray="1,2" d="M70 278l880 0"/>
<text stroke="none" fill="black" font-size="16" x="18" y="286">
200.0
</text>
<path stroke="black" stroke-width="3" stroke-dasharray="1,2" d="M70 207l880 0"/>
<text stroke="none" fill="black" font-size="16" x="18" y="215">
250.0
</text>
<path stroke="black" stroke-width="3" stroke-dasharray="1,2" d="M70 136l880 0"/>
<text stroke="none" fill="black" font-size="16" x="18" y="144">
300.0
</text>
<path stroke="black" stroke-width="3" stroke-dasharray="1,2" d="M70 65l880 0"/>
<text stroke="none" fill="black" font-size="16" x="18" y="73">
350.0
</text>
<text stroke="none" fill="black" font-size="16" x="10" y="32">
uA
</text>
<path stroke="red" d="M440 23l44 0"/>
<text stroke="none" fill="black" font-size="16" x="494" y="32">
-i(v_supply)
</text>
<path stroke="red" d="M70 562l9 0M79 701l0 -214 1 -84M80 545l0 -208M80 545l1 6M81 561l0 -10M81 561l1 0M82 562l0 -1M82 562l1 -1M83 562l0 -1M83 562l5 0M88 695l0 -477M88 323l1 9M89 560l0 -228M89 560l1 -2M90 562l0 -4M90 559l1 3 0 -3M91 562l1 -2M92 563l0 -3"/>
<path stroke="red" d="M92 563l1 -3M93 563l0 -3 1 3 0 -3M94 563l1 -3M95 563l0 -3M95 563l1 -3M96 563l0 -3M96 561l1 2 0 -2M97 563l1 -2M98 563l0 -2M98 563l1 -2M99 563l0 -2 1 2 0 -2 1 2 0 -2M101 563l1 -2M102 563l0 -2 1 2 0 -2 1 2 0 -2M104 563l1 -2"/>
<path stroke="red" d="M105 563l0 -2 1 2 0 -2 1 2 0 -2M107 563l1 -2M108 563l0 -2 1 2 0 -2 1 2 0 -2M110 563l1 -2M111 563l0 -2M111 563l1 -2M112 563l0 -2 1 2 0 -2M113 563l1 -2M114 563l0 -2M114 563l1 -2M115 563l0 -2 1 2 0 -2M116 563l1 -2M117 563l0 -2"/>
<path stroke="red" d="M117 562l1 -1M118 562l0 -1 1 1 0 -1 1 1 0 -1M120 562l1 -1M121 562l0 -1 1 1 0 -1 1 1 0 -1M123 562l1 -1M124 562l0 -1 1 1 0 -1 1 1 0 -1M126 562l1 -1M127 562l0 -1 1 1 40 0 0 -446 1 23M169 553l0 -414M169 553l1 5M170 562l0 -5"/>
<path stroke="red" d="M170 562l1 -2M171 562l0 -2M171 561l1 1 0 -1 1 1 0 -1M173 562l4 0 0 -1 1 1 0 -1M178 562l1 -1M179 563l0 -2 1 2 0 -2 1 2 0 -2M181 563l1 -2M182 563l0 -2 1 2 0 -2 1 2 0 -2M184 563l1 -2M185 563l0 -2M185 563l1 -2M186 563l0 -2 1 2"/>
<path stroke="red" d="M187 563l0 -2M187 563l1 -2M188 563l0 -2M188 563l1 -2M189 563l0 -2 1 2 0 -2M190 563l1 -2M191 563l0 -2M191 563l1 -2M192 563l0 -2 1 2 0 -2M193 563l1 -2M194 563l0 -2M194 563l1 -2M195 563l0 -2 1 2 0 -2 1 2 0 -2M197 563l1 -2M198 563l0 -2"/>
<path stroke="red" d="M198 561l1 2 0 -2 1 2 0 -2M200 563l1 -2M201 563l0 -2 1 2 0 -2 1 2 0 -2M203 563l1 -2M204 563l0 -2 1 2 0 -2 1 2 0 -2M206 563l1 -2M207 563l0 -2 1 2 0 -2 1 2 0 -2M209 563l1 -2M210 563l0 -2M210 563l1 -2M211 563l0 -2 1 2 0 -2"/>
<path stroke="red" d="M212 563l1 -2M213 563l0 -2M213 563l1 -2M214 563l0 -2 1 2 0 -2M215 563l1 -2M216 563l0 -2M216 563l1 -2M217 563l0 -2 1 2 0 -2M218 563l1 -2M219 563l0 -2M219 563l1 -2M220 563l0 -2 1 2 0 -2 1 2 0 -2M222 563l1 -2M223 563l0 -2 1 2"/>
<path stroke="red" d="M224 563l0 -2 1 2 0 -2M225 563l1 -2M226 563l0 -2 1 2 0 -2 1 2 0 -2M228 563l1 -2M229 563l0 -2 1 2 0 -2 1 2 0 -2M231 563l1 -2M232 563l0 -2M232 563l1 -2M233 563l0 -2 1 2 0 -2M234 563l1 -2M235 563l0 -2M235 563l1 -2M236 563l0 -2"/>
<path stroke="red" d="M236 561l1 2 0 -2M237 563l1 -2M238 563l0 -2M238 563l1 -2M239 563l0 -2 1 2 0 -2M240 563l1 -2M241 563l0 -2M241 563l1 -2M242 563l0 -2 1 2 0 -2 1 2 0 -2M244 563l1 -2M245 563l0 -2 1 2 0 -2 1 2 0 -189 1 -26M248 560l0 -424M248 560l1 2"/>
<path stroke="red" d="M249 563l0 -2 1 2 0 -2M250 563l1 -2M251 563l0 -2 1 2 0 -2 1 2 0 -2M253 563l1 -2M254 563l0 -2M254 563l1 -2M255 563l0 -2 1 2 0 -2M256 563l1 -2M257 563l0 -2M257 563l1 -2M258 563l0 -2 1 2 0 -2M259 563l1 -2M260 563l0 -2M260 563l1 -2"/>
<path stroke="red" d="M261 563l0 -2 1 2 0 -2M262 563l1 -2M263 563l0 -2M263 563l1 -2M264 700l0 -360M264 391l1 13M265 557l0 -153M265 557l1 1M266 562l0 -4M266 561l1 1 0 -1M267 562l77 0 0 -299 1 -75M345 572l0 -384M345 552l1 20 0 -19M346 570l1 -16"/>
<path stroke="red" d="M347 570l0 -16M347 555l1 14 0 -14M348 556l1 12 0 -12M349 567l1 -10M350 567l0 -10M350 566l1 -8M351 566l0 -8M351 559l1 6 0 -6M352 565l1 -6M353 565l0 -6M353 564l1 -4M354 564l0 -4 1 4 0 -4M355 564l1 -4M356 563l0 -3M356 563l1 -2"/>
<path stroke="red" d="M357 563l0 -2 1 2 0 -2M358 563l1 -2M359 563l0 -2M359 563l1 -2M360 563l0 -2M360 562l71 0M431 701l0 -211 1 -87M432 545l0 -208M432 545l1 6M433 561l0 -10M433 561l1 1 0 -1M434 562l1 -1M435 562l0 -1M435 562l5 0M440 695l0 -477"/>
<path stroke="red" d="M440 323l1 9M441 560l0 -228M441 560l1 -2M442 562l0 -4M442 559l1 3 0 -3M443 562l1 -2M444 563l0 -3M444 563l1 -3M445 563l0 -3 1 3 0 -3M446 563l1 -3M447 563l0 -3M447 563l1 -3M448 563l0 -3M448 561l1 2 0 -2 1 2 0 -2M450 563l1 -2"/>
<path stroke="red" d="M451 563l0 -2 1 2 0 -2 1 2 0 -2M453 563l1 -2M454 563l0 -2 1 2 0 -2 1 2 0 -2M456 563l1 -2M457 563l0 -2 1 2 0 -2 1 2 0 -2M459 563l1 -2M460 563l0 -2M460 563l1 -2M461 563l0 -2 1 2 0 -2M462 563l1 -2M463 563l0 -2M463 563l1 -2"/>
<path stroke="red" d="M464 563l0 -2 1 2 0 -2M465 563l1 -2M466 563l0 -2M466 563l1 -2M467 563l0 -2 1 2 0 -2M468 563l1 -2M469 563l0 -2M469 562l1 -1M470 562l0 -1 1 1 0 -1 1 1 0 -1M472 562l1 -1M473 562l0 -1 1 1 0 -1 1 1 0 -1M475 562l1 -1M476 562l0 -1"/>
<path stroke="red" d="M476 561l1 1 0 -1 1 1 0 -1M478 562l1 -1M479 562l0 -1 1 1 40 0 0 -446 1 23M521 553l0 -414M521 553l1 5M522 562l0 -5M522 562l1 -2M523 562l0 -2M523 561l1 1 0 -1 1 1 0 -1M525 562l4 0 0 -1 1 1 0 -1M530 562l1 -1M531 563l0 -2 1 2"/>
<path stroke="red" d="M532 563l0 -2 1 2 0 -2M533 563l1 -2M534 563l0 -2 1 2 0 -2 1 2 0 -2M536 563l1 -2M537 563l0 -2M537 563l1 -2M538 563l0 -2 1 2 0 -2M539 563l1 -2M540 563l0 -2M540 563l1 -2M541 563l0 -2 1 2 0 -2M542 563l1 -2M543 563l0 -2M543 563l1 -2"/>
<path stroke="red" d="M544 563l0 -2 1 2 0 -2M545 563l1 -2M546 563l0 -2M546 563l1 -2M547 563l0 -2 1 2 0 -2 1 2 0 -2M549 563l1 -2M550 563l0 -2 1 2 0 -2 1 2 0 -2M552 563l1 -2M553 563l0 -2 1 2 0 -2 1 2 0 -2M555 563l1 -2M556 563l0 -2 1 2 0 -2 1 2"/>
<path stroke="red" d="M558 563l0 -2M558 563l1 -2M559 563l0 -2M559 563l1 -2M560 563l0 -2 1 2 0 -2M561 563l1 -2M562 563l0 -2M562 563l1 -2M563 563l0 -2 1 2 0 -2M564 563l1 -2M565 563l0 -2M565 563l1 -2M566 563l0 -2 1 2 0 -2M567 563l1 -2M568 563l0 -2"/>
<path stroke="red" d="M568 563l1 -2M569 563l0 -2 1 2 0 -2 1 2 0 -2M571 563l1 -2M572 563l0 -2 1 2 0 -2 1 2 0 -2M574 563l1 -2M575 563l0 -2 1 2 0 -2 1 2 0 -2M577 563l1 -2M578 563l0 -2 1 2 0 -2 1 2 0 -2M580 563l1 -2M581 563l0 -2M581 563l1 -2M582 563l0 -2"/>
<path stroke="red" d="M582 561l1 2 0 -2M583 563l1 -2M584 563l0 -2M584 563l1 -2M585 563l0 -2 1 2 0 -2M586 563l1 -2M587 563l0 -2M587 563l1 -2M588 563l0 -2 1 2 0 -2M589 563l1 -2M590 563l0 -2M590 563l1 -2M591 563l0 -2 1 2 0 -2 1 2 0 -2M593 563l1 -2"/>
<path stroke="red" d="M594 563l0 -2 1 2 0 -2 1 2 0 -2M596 563l1 -2M597 563l0 -2 1 2 0 -2 1 2 0 -189 1 -26M600 560l0 -424M600 560l1 2M601 563l0 -2 1 2 0 -2M602 563l1 -2M603 563l0 -2M603 563l1 -2M604 563l0 -2 1 2 0 -2M605 563l1 -2M606 563l0 -2"/>
<path stroke="red" d="M606 563l1 -2M607 563l0 -2 1 2 0 -2M608 563l1 -2M609 563l0 -2M609 563l1 -2M610 563l0 -2 1 2 0 -2M611 563l1 -2M612 563l0 -2M612 563l1 -2M613 563l0 -2 1 2 0 -2 1 2 0 -2M615 563l1 -2M616 700l0 -360M616 391l1 13M617 557l0 -153"/>
<path stroke="red" d="M617 557l1 1M618 562l0 -4M618 561l1 1 0 -1M619 562l77 0 0 -299 1 -75M697 572l0 -384M697 552l1 20 0 -19M698 570l1 -16M699 570l0 -16M699 555l1 14 0 -14M700 556l1 12 0 -12M701 567l1 -10M702 567l0 -10M702 566l1 -8M703 566l0 -8"/>
<path stroke="red" d="M703 559l1 6 0 -6M704 565l1 -6M705 565l0 -6M705 564l1 -4M706 564l0 -4 1 4 0 -4M707 564l1 -4M708 563l0 -3M708 563l1 -2M709 563l0 -2 1 2 0 -2M710 563l1 -2M711 563l0 -2M711 563l1 -2M712 563l0 -2M712 562l71 0M783 701l0 -211"/>
<path stroke="red" d="M783 490l1 -87M784 545l0 -208M784 545l1 6M785 561l0 -10M785 561l1 1 0 -1M786 562l1 -1M787 562l0 -1M787 562l5 0M792 695l0 -477M792 323l1 9M793 560l0 -228M793 560l1 -2M794 562l0 -4M794 559l1 3 0 -3M795 562l1 -2M796 563l0 -3"/>
<path stroke="red" d="M796 563l1 -3M797 563l0 -3 1 3 0 -3M798 563l1 -3M799 563l0 -3M799 563l1 -3M800 563l0 -3M800 561l1 2 0 -2 1 2 0 -2M802 563l1 -2M803 563l0 -2 1 2 0 -2 1 2 0 -2M805 563l1 -2M806 563l0 -2 1 2 0 -2 1 2 0 -2M808 563l1 -2M809 563l0 -2"/>
<path stroke="red" d="M809 561l1 2 0 -2 1 2 0 -2M811 563l1 -2M812 563l0 -2M812 563l1 -2M813 563l0 -2 1 2 0 -2M814 563l1 -2M815 563l0 -2M815 563l1 -2M816 563l0 -2 1 2 0 -2M817 563l1 -2M818 563l0 -2M818 563l1 -2M819 563l0 -2 1 2 0 -2M820 563l1 -2"/>
<path stroke="red" d="M821 563l0 -2M821 562l1 -1M822 562l0 -1 1 1 0 -1 1 1 0 -1M824 562l1 -1M825 562l0 -1 1 1 0 -1 1 1 0 -1M827 562l1 -1M828 562l0 -1 1 1 0 -1 1 1 0 -1M830 562l1 -1M831 562l0 -1 1 1 40 0 0 -446 1 23M873 553l0 -414M873 553l1 5"/>
<path stroke="red" d="M874 562l0 -5M874 562l1 -2M875 562l0 -2M875 561l1 1 0 -1 1 1 0 -1M877 562l4 0 0 -1 1 1 0 -1M882 562l1 -1M883 563l0 -2 1 2 0 -2 1 2 0 -2M885 563l1 -2M886 563l0 -2 1 2 0 -2 1 2 0 -2M888 563l1 -2M889 563l0 -2M889 563l1 -2M890 563l0 -2"/>
<path stroke="red" d="M890 561l1 2 0 -2M891 563l1 -2M892 563l0 -2M892 563l1 -2M893 563l0 -2 1 2 0 -2M894 563l1 -2M895 563l0 -2M895 563l1 -2M896 563l0 -2 1 2 0 -2M897 563l1 -2M898 563l0 -2M898 563l1 -2M899 563l0 -2 1 2 0 -2 1 2 0 -2M901 563l1 -2"/>
<path stroke="red" d="M902 563l0 -2 1 2 0 -2 1 2 0 -2M904 563l1 -2M905 563l0 -2 1 2 0 -2 1 2 0 -2M907 563l1 -2M908 563l0 -2 1 2 0 -2 1 2 0 -2M910 563l1 -2M911 563l0 -2M911 563l1 -2M912 563l0 -2 1 2 0 -2M913 563l1 -2M914 563l0 -2M914 563l1 -2"/>
<path stroke="red" d="M915 563l0 -2 1 2 0 -2M916 563l1 -2M917 563l0 -2M917 563l1 -2M918 563l0 -2 1 2 0 -2M919 563l1 -2M920 563l0 -2M920 563l1 -2M921 563l0 -2 1 2 0 -2 1 2 0 -2M923 563l1 -2M924 563l0 -2 1 2 0 -2 1 2 0 -2M926 563l1 -2M927 563l0 -2"/>
<path stroke="red" d="M927 561l1 2 0 -2 1 2 0 -2M929 563l1 -2M930 563l0 -2 1 2 0 -2 1 2 0 -2M932 563l1 -2M933 563l0 -2M933 563l1 -2M934 563l0 -2 1 2 0 -2M935 563l1 -2M936 563l0 -2M936 563l1 -2M937 563l0 -2 1 2 0 -2M938 563l1 -2M939 563l0 -2M939 563l1 -2"/>
<path stroke="red" d="M940 563l0 -2 1 2 0 -2M941 563l1 -2M942 563l0 -2M942 563l1 -2M943 563l0 -2 1 2 0 -2 1 2 0 -2M945 563l1 -2M946 563l0 -2 1 2 0 -2 1 2 0 -2M948 563l1 -2M949 563l0 -2 1 2 0 -2"/>
</svg>
