<?xml version="1.0" standalone="yes"?>
<!DOCTYPE svg PUBLIC "-//W3C//DTD SVG 1.1//EN"
 "http://www.w3.org/Graphics/SVG/1.1/DTD/svg11.dtd">
<svg xmlns="http://www.w3.org/2000/svg" version="1.1"
  width="100%" height="100%" viewBox="0 0 1024 768"
  style="fill: none; stroke-width: 3; font-family: Helvetica;
 font: Helvetica;
">

<!-- Creator: NGspice -->

<rect x="0" y="0" width="1024" height="768" fill="white" stroke="none"/>
<text stroke="none" fill="black" font-size="16" x="358" y="752">
time
</text>
<text stroke="none" fill="black" font-size="16" x="10" y="16">
tran1: Transient: Cumulative Energy
</text>
<path stroke="black" stroke-width="3" d="M70 704l0 -640"/>
<text stroke="none" fill="black" font-size="16" x="55" y="728">
0.0
</text>
<path stroke="black" stroke-width="3" stroke-dasharray="1,2" d="M158 704l0 -640"/>
<text stroke="none" fill="black" font-size="16" x="138" y="728">
10.0
</text>
<path stroke="black" stroke-width="3" stroke-dasharray="1,2" d="M246 704l0 -640"/>
<text stroke="none" fill="black" font-size="16" x="226" y="728">
20.0
</text>
<path stroke="black" stroke-width="3" stroke-dasharray="1,2" d="M334 704l0 -640"/>
<text stroke="none" fill="black" font-size="16" x="314" y="728">
30.0
</text>
<path stroke="black" stroke-width="3" stroke-dasharray="1,2" d="M422 704l0 -640"/>
<text stroke="none" fill="black" font-size="16" x="402" y="728">
40.0
</text>
<path stroke="black" stroke-width="3" stroke-dasharray="1,2" d="M510 704l0 -640"/>
<text stroke="none" fill="black" font-size="16" x="490" y="728">
50.0
</text>
<path stroke="black" stroke-width="3" stroke-dasharray="1,2" d="M598 704l0 -640"/>
<text stroke="none" fill="black" font-size="16" x="578" y="728">
60.0
</text>
<path stroke="black" stroke-width="3" stroke-dasharray="1,2" d="M686 704l0 -640"/>
<text stroke="none" fill="black" font-size="16" x="666" y="728">
70.0
</text>
<path stroke="black" stroke-width="3" stroke-dasharray="1,2" d="M774 704l0 -640"/>
<text stroke="none" fill="black" font-size="16" x="754" y="728">
80.0
</text>
<path stroke="black" stroke-width="3" stroke-dasharray="1,2" d="M862 704l0 -640"/>
<text stroke="none" fill="black" font-size="16" x="842" y="728">
90.0
</text>
<path stroke="black" stroke-width="3" stroke-dasharray="1,2" d="M950 704l0 -640"/>
<text stroke="none" fill="black" font-size="16" x="925" y="728">
100.0
</text>
<text stroke="none" fill="black" font-size="16" x="614" y="752">
ns
</text>
<path stroke="black" stroke-width="3" stroke-dasharray="1,2" d="M70 704l880 0"/>
<text stroke="none" fill="black" font-size="16" x="18" y="712">
-50.0
</text>
<path stroke="black" stroke-width="3" d="M70 624l880 0"/>
<text stroke="none" fill="black" font-size="16" x="38" y="632">
0.0
</text>
<path stroke="black" stroke-width="3" stroke-dasharray="1,2" d="M70 544l880 0"/>
<text stroke="none" fill="black" font-size="16" x="28" y="552">
50.0
</text>
<path stroke="black" stroke-width="3" stroke-dasharray="1,2" d="M70 464l880 0"/>
<text stroke="none" fill="black" font-size="16" x="18" y="472">
100.0
</text>
<path stroke="black" stroke-width="3" stroke-dasharray="1,2" d="M70 384l880 0"/>
<text stroke="none" fill="black" font-size="16" x="18" y="392">
150.0
</text>
<path stroke="black" stroke-width="3" stroke-dasharray="1,2" d="M70 304l880 0"/>
<text stroke="none" fill="black" font-size="16" x="18" y="312">
200.0
</text>
<path stroke="black" stroke-width="3" stroke-dasharray="1,2" d="M70 224l880 0"/>
<text stroke="none" fill="black" font-size="16" x="18" y="232">
250.0
</text>
<path stroke="black" stroke-width="3" stroke-dasharray="1,2" d="M70 144l880 0"/>
<text stroke="none" fill="black" font-size="16" x="18" y="152">
300.0
</text>
<path stroke="black" stroke-width="3" stroke-dasharray="1,2" d="M70 64l880 0"/>
<text stroke="none" fill="black" font-size="16" x="18" y="72">
350.0
</text>
<text stroke="none" fill="black" font-size="16" x="10" y="32">
f     
</text>
<path stroke="red" d="M440 23l44 0"/>
<text stroke="none" fill="black" font-size="16" x="494" y="32">
total_energy
</text>
<path stroke="red" d="M70 624l9 0M79 638l0 -14M79 637l1 -2 0 -21 1 0 0 -1 6 0 0 -1 1 0M88 626l0 -19 1 -1 0 -8 1 -1 3 0 0 -1 20 0 0 -1 55 0 0 -33 1 -7 0 -18 3 0 1 -1 74 0 0 -14 1 -4 0 -33 16 0M264 499l0 -14M264 490l1 -1 0 -12 1 0 0 -1 78 0 0 -27"/>
<path stroke="red" d="M344 449l1 -5 0 -22 86 0M431 436l0 -14M431 435l1 -2 0 -21 1 0 0 -1 7 0M440 424l0 -19 1 -1 0 -8 1 0 0 -1 4 0 0 -1 29 0 0 -1 45 0 0 -33 1 -7 0 -18 11 0 0 -1 67 0 0 -14 1 -4 0 -32 16 0M616 297l0 -13M616 288l1 -1 0 -12 3 0 0 -1"/>
<path stroke="red" d="M620 274l76 0 0 -27 1 -5 0 -21 86 0M783 234l0 -13M783 233l1 -2 0 -21 1 0 0 -1 7 0M792 222l0 -19 1 -1 0 -8 1 0 0 -1 7 0 0 -1 42 0 0 -1 29 0 0 -33 1 -6 0 -18 1 -1 37 0 0 -1 39 0"/>
</svg>
