<?xml version="1.0" standalone="yes"?>
<!DOCTYPE svg PUBLIC "-//W3C//DTD SVG 1.1//EN"
 "http://www.w3.org/Graphics/SVG/1.1/DTD/svg11.dtd">
<svg xmlns="http://www.w3.org/2000/svg" version="1.1"
  width="100%" height="100%" viewBox="0 0 1024 768"
  style="fill: none; stroke-width: 3; font-family: Helvetica;
 font: Helvetica;
">

<!-- Creator: NGspice -->

<rect x="0" y="0" width="1024" height="768" fill="white" stroke="none"/>
<text stroke="none" fill="black" font-size="16" x="358" y="752">
time
</text>
<text stroke="none" fill="black" font-size="16" x="10" y="16">
tran1: Transient: Logic Output
</text>
<path stroke="black" stroke-width="3" d="M50 704l0 -636"/>
<text stroke="none" fill="black" font-size="16" x="35" y="728">
0.0
</text>
<path stroke="black" stroke-width="3" stroke-dasharray="1,2" d="M142 704l0 -636"/>
<text stroke="none" fill="black" font-size="16" x="122" y="728">
10.0
</text>
<path stroke="black" stroke-width="3" stroke-dasharray="1,2" d="M234 704l0 -636"/>
<text stroke="none" fill="black" font-size="16" x="214" y="728">
20.0
</text>
<path stroke="black" stroke-width="3" stroke-dasharray="1,2" d="M326 704l0 -636"/>
<text stroke="none" fill="black" font-size="16" x="306" y="728">
30.0
</text>
<path stroke="black" stroke-width="3" stroke-dasharray="1,2" d="M418 704l0 -636"/>
<text stroke="none" fill="black" font-size="16" x="398" y="728">
40.0
</text>
<path stroke="black" stroke-width="3" stroke-dasharray="1,2" d="M510 704l0 -636"/>
<text stroke="none" fill="black" font-size="16" x="490" y="728">
50.0
</text>
<path stroke="black" stroke-width="3" stroke-dasharray="1,2" d="M602 704l0 -636"/>
<text stroke="none" fill="black" font-size="16" x="582" y="728">
60.0
</text>
<path stroke="black" stroke-width="3" stroke-dasharray="1,2" d="M694 704l0 -636"/>
<text stroke="none" fill="black" font-size="16" x="674" y="728">
70.0
</text>
<path stroke="black" stroke-width="3" stroke-dasharray="1,2" d="M786 704l0 -636"/>
<text stroke="none" fill="black" font-size="16" x="766" y="728">
80.0
</text>
<path stroke="black" stroke-width="3" stroke-dasharray="1,2" d="M878 704l0 -636"/>
<text stroke="none" fill="black" font-size="16" x="858" y="728">
90.0
</text>
<path stroke="black" stroke-width="3" stroke-dasharray="1,2" d="M970 704l0 -636"/>
<text stroke="none" fill="black" font-size="16" x="945" y="728">
100.0
</text>
<text stroke="none" fill="black" font-size="16" x="614" y="752">
ns
</text>
<path stroke="black" stroke-width="3" stroke-dasharray="1,2" d="M50 704l920 0"/>
<text stroke="none" fill="black" font-size="16" x="8" y="712">
-0.2
</text>
<path stroke="black" stroke-width="3" d="M50 651l920 0"/>
<text stroke="none" fill="black" font-size="16" x="18" y="659">
0.0
</text>
<path stroke="black" stroke-width="3" stroke-dasharray="1,2" d="M50 598l920 0"/>
<text stroke="none" fill="black" font-size="16" x="18" y="606">
0.2
</text>
<path stroke="black" stroke-width="3" stroke-dasharray="1,2" d="M50 545l920 0"/>
<text stroke="none" fill="black" font-size="16" x="18" y="553">
0.4
</text>
<path stroke="black" stroke-width="3" stroke-dasharray="1,2" d="M50 492l920 0"/>
<text stroke="none" fill="black" font-size="16" x="18" y="500">
0.6
</text>
<path stroke="black" stroke-width="3" stroke-dasharray="1,2" d="M50 439l920 0"/>
<text stroke="none" fill="black" font-size="16" x="18" y="447">
0.8
</text>
<path stroke="black" stroke-width="3" stroke-dasharray="1,2" d="M50 386l920 0"/>
<text stroke="none" fill="black" font-size="16" x="18" y="394">
1.0
</text>
<path stroke="black" stroke-width="3" stroke-dasharray="1,2" d="M50 333l920 0"/>
<text stroke="none" fill="black" font-size="16" x="18" y="341">
1.2
</text>
<path stroke="black" stroke-width="3" stroke-dasharray="1,2" d="M50 280l920 0"/>
<text stroke="none" fill="black" font-size="16" x="18" y="288">
1.4
</text>
<path stroke="black" stroke-width="3" stroke-dasharray="1,2" d="M50 227l920 0"/>
<text stroke="none" fill="black" font-size="16" x="18" y="235">
1.6
</text>
<path stroke="black" stroke-width="3" stroke-dasharray="1,2" d="M50 174l920 0"/>
<text stroke="none" fill="black" font-size="16" x="18" y="182">
1.8
</text>
<path stroke="black" stroke-width="3" stroke-dasharray="1,2" d="M50 121l920 0"/>
<text stroke="none" fill="black" font-size="16" x="18" y="129">
2.0
</text>
<path stroke="black" stroke-width="3" stroke-dasharray="1,2" d="M50 68l920 0"/>
<text stroke="none" fill="black" font-size="16" x="18" y="76">
2.2
</text>
<text stroke="none" fill="black" font-size="16" x="10" y="32">
V
</text>
<path stroke="red" d="M460 23l46 0"/>
<text stroke="none" fill="black" font-size="16" x="516" y="32">
v(y)
</text>
<path stroke="red" d="M50 651l9 0 0 -2 1 -1M60 658l0 -354 1 -45 0 -83 1 -1 0 -1 6 0 0 -2 1 -3M69 550l0 -392M69 550l1 59M70 650l0 -41M70 650l2 0M72 651l0 -1M72 651l80 0M152 655l0 -4M152 655l1 1M153 663l0 -408 1 -27 0 -53 1 0 0 -1 80 0M235 178l0 -4"/>
<path stroke="red" d="M235 175l1 -7M236 650l0 -517M236 650l1 1 16 0M253 669l0 -186 1 -79 0 -226 1 -1 0 -3 81 0M336 175l0 -1M336 175l1 -1M337 639l0 -520M337 639l1 9M338 651l0 -3M338 651l89 0 0 -2 1 -1M428 660l0 -355 1 -45 0 -84 1 -1 0 -1 6 0 0 -2"/>
<path stroke="red" d="M436 172l1 -3M437 550l0 -392M437 550l1 59M438 650l0 -41M438 650l2 0M440 651l0 -1M440 651l80 0M520 655l0 -4M520 655l1 1M521 663l0 -408 1 -27 0 -53 1 0 0 -1 80 0M603 178l0 -4M603 175l1 -7M604 650l0 -517M604 650l1 1 16 0M621 669l0 -186"/>
<path stroke="red" d="M621 483l1 -79 0 -226 1 -1 0 -3 81 0M704 175l0 -1M704 175l1 -1M705 639l0 -520M705 639l1 9M706 651l0 -3M706 651l89 0 0 -2 1 -1M796 660l0 -355 1 -45 0 -84 1 -1 0 -1 6 0 0 -2 1 -3M805 550l0 -392M805 550l1 59M806 650l0 -41M806 650l2 0"/>
<path stroke="red" d="M808 651l0 -1M808 651l80 0M888 655l0 -4M888 655l1 1M889 663l0 -408 1 -27 0 -53 1 0 0 -1 79 0"/>
</svg>
