<?xml version="1.0" standalone="yes"?>
<!DOCTYPE svg PUBLIC "-//W3C//DTD SVG 1.1//EN"
 "http://www.w3.org/Graphics/SVG/1.1/DTD/svg11.dtd">
<svg xmlns="http://www.w3.org/2000/svg" version="1.1"
  width="100%" height="100%" viewBox="0 0 1024 768"
  style="fill: none; stroke-width: 3; font-family: Helvetica;
 font: Helvetica;
">

<!-- Creator: NGspice -->

<rect x="0" y="0" width="1024" height="768" fill="white" stroke="none"/>
<text stroke="none" fill="black" font-size="16" x="358" y="752">
time
</text>
<text stroke="none" fill="black" font-size="16" x="10" y="16">
tran1: Transient: Cumulative Energy
</text>
<path stroke="black" stroke-width="3" d="M70 704l0 -636"/>
<text stroke="none" fill="black" font-size="16" x="55" y="728">
0.0
</text>
<path stroke="black" stroke-width="3" stroke-dasharray="1,2" d="M158 704l0 -636"/>
<text stroke="none" fill="black" font-size="16" x="138" y="728">
10.0
</text>
<path stroke="black" stroke-width="3" stroke-dasharray="1,2" d="M246 704l0 -636"/>
<text stroke="none" fill="black" font-size="16" x="226" y="728">
20.0
</text>
<path stroke="black" stroke-width="3" stroke-dasharray="1,2" d="M334 704l0 -636"/>
<text stroke="none" fill="black" font-size="16" x="314" y="728">
30.0
</text>
<path stroke="black" stroke-width="3" stroke-dasharray="1,2" d="M422 704l0 -636"/>
<text stroke="none" fill="black" font-size="16" x="402" y="728">
40.0
</text>
<path stroke="black" stroke-width="3" stroke-dasharray="1,2" d="M510 704l0 -636"/>
<text stroke="none" fill="black" font-size="16" x="490" y="728">
50.0
</text>
<path stroke="black" stroke-width="3" stroke-dasharray="1,2" d="M598 704l0 -636"/>
<text stroke="none" fill="black" font-size="16" x="578" y="728">
60.0
</text>
<path stroke="black" stroke-width="3" stroke-dasharray="1,2" d="M686 704l0 -636"/>
<text stroke="none" fill="black" font-size="16" x="666" y="728">
70.0
</text>
<path stroke="black" stroke-width="3" stroke-dasharray="1,2" d="M774 704l0 -636"/>
<text stroke="none" fill="black" font-size="16" x="754" y="728">
80.0
</text>
<path stroke="black" stroke-width="3" stroke-dasharray="1,2" d="M862 704l0 -636"/>
<text stroke="none" fill="black" font-size="16" x="842" y="728">
90.0
</text>
<path stroke="black" stroke-width="3" stroke-dasharray="1,2" d="M950 704l0 -636"/>
<text stroke="none" fill="black" font-size="16" x="925" y="728">
100.0
</text>
<text stroke="none" fill="black" font-size="16" x="614" y="752">
ns
</text>
<path stroke="black" stroke-width="3" stroke-dasharray="1,2" d="M70 704l880 0"/>
<text stroke="none" fill="black" font-size="16" x="18" y="712">
-50.0
</text>
<path stroke="black" stroke-width="3" d="M70 598l880 0"/>
<text stroke="none" fill="black" font-size="16" x="38" y="606">
0.0
</text>
<path stroke="black" stroke-width="3" stroke-dasharray="1,2" d="M70 492l880 0"/>
<text stroke="none" fill="black" font-size="16" x="28" y="500">
50.0
</text>
<path stroke="black" stroke-width="3" stroke-dasharray="1,2" d="M70 386l880 0"/>
<text stroke="none" fill="black" font-size="16" x="18" y="394">
100.0
</text>
<path stroke="black" stroke-width="3" stroke-dasharray="1,2" d="M70 280l880 0"/>
<text stroke="none" fill="black" font-size="16" x="18" y="288">
150.0
</text>
<path stroke="black" stroke-width="3" stroke-dasharray="1,2" d="M70 174l880 0"/>
<text stroke="none" fill="black" font-size="16" x="18" y="182">
200.0
</text>
<path stroke="black" stroke-width="3" stroke-dasharray="1,2" d="M70 68l880 0"/>
<text stroke="none" fill="black" font-size="16" x="18" y="76">
250.0
</text>
<text stroke="none" fill="black" font-size="16" x="10" y="32">
f     
</text>
<path stroke="red" d="M440 23l44 0"/>
<text stroke="none" fill="black" font-size="16" x="494" y="32">
total_energy
</text>
<path stroke="red" d="M70 598l9 0M79 635l0 -37M79 632l1 -6 0 -16 1 0 0 -1 1 0 0 -1 7 0 0 -1 27 0 0 -1 43 0 0 -19 1 -7 0 -49 1 -1 0 -1 8 0 0 -1 78 0 0 -19 1 -5 0 -43 7 0M255 479l0 -18M255 478l1 -4 0 -24 1 0 0 -1 46 0 0 -1 32 0 0 -18 1 -5 0 -47"/>
<path stroke="red" d="M336 378l1 -1 94 0M431 414l0 -37M431 412l1 -7 0 -16 1 0 0 -1 3 0 0 -1 12 0 0 -1 49 0 0 -1 14 0 0 -18 1 -7 0 -50 1 0 0 -2 67 0 0 -1 19 0 0 -19 1 -5 0 -43 7 0M607 259l0 -19M607 257l1 -3 0 -24 1 -1 1 0 0 -1 77 0 0 -18 1 -6"/>
<path stroke="red" d="M688 204l0 -47 95 0M783 194l0 -37M783 191l1 -7 0 -15 1 -1 1 0 0 -1 5 0 0 -1 22 0 1 -1 49 0 0 -19 1 -7 0 -49 1 -1 0 -1 4 0 0 -1 81 0"/>
</svg>
