<?xml version="1.0" standalone="yes"?>
<!DOCTYPE svg PUBLIC "-//W3C//DTD SVG 1.1//EN"
 "http://www.w3.org/Graphics/SVG/1.1/DTD/svg11.dtd">
<svg xmlns="http://www.w3.org/2000/svg" version="1.1"
  width="100%" height="100%" viewBox="0 0 1024 768"
  style="fill: none; stroke-width: 3; font-family: Helvetica;
 font: Helvetica;
">

<!-- Creator: NGspice -->

<rect x="0" y="0" width="1024" height="768" fill="white" stroke="none"/>
<text stroke="none" fill="black" font-size="16" x="358" y="752">
time
</text>
<text stroke="none" fill="black" font-size="16" x="10" y="16">
tran1: Verification: Physical vs Ideal Parity
</text>
<path stroke="black" stroke-width="3" d="M50 704l0 -640"/>
<text stroke="none" fill="black" font-size="16" x="35" y="728">
0.0
</text>
<path stroke="black" stroke-width="3" stroke-dasharray="1,2" d="M204 704l0 -640"/>
<text stroke="none" fill="black" font-size="16" x="189" y="728">
0.5
</text>
<path stroke="black" stroke-width="3" stroke-dasharray="1,2" d="M358 704l0 -640"/>
<text stroke="none" fill="black" font-size="16" x="343" y="728">
1.0
</text>
<path stroke="black" stroke-width="3" stroke-dasharray="1,2" d="M512 704l0 -640"/>
<text stroke="none" fill="black" font-size="16" x="497" y="728">
1.5
</text>
<path stroke="black" stroke-width="3" stroke-dasharray="1,2" d="M666 704l0 -640"/>
<text stroke="none" fill="black" font-size="16" x="651" y="728">
2.0
</text>
<path stroke="black" stroke-width="3" stroke-dasharray="1,2" d="M820 704l0 -640"/>
<text stroke="none" fill="black" font-size="16" x="805" y="728">
2.5
</text>
<path stroke="black" stroke-width="3" stroke-dasharray="1,2" d="M974 704l0 -640"/>
<text stroke="none" fill="black" font-size="16" x="959" y="728">
3.0
</text>
<text stroke="none" fill="black" font-size="16" x="614" y="752">
us
</text>
<path stroke="black" stroke-width="3" stroke-dasharray="1,2" d="M50 704l924 0"/>
<text stroke="none" fill="black" font-size="16" x="8" y="712">
-0.5
</text>
<path stroke="black" stroke-width="3" d="M50 624l924 0"/>
<text stroke="none" fill="black" font-size="16" x="18" y="632">
0.0
</text>
<path stroke="black" stroke-width="3" stroke-dasharray="1,2" d="M50 544l924 0"/>
<text stroke="none" fill="black" font-size="16" x="18" y="552">
0.5
</text>
<path stroke="black" stroke-width="3" stroke-dasharray="1,2" d="M50 464l924 0"/>
<text stroke="none" fill="black" font-size="16" x="18" y="472">
1.0
</text>
<path stroke="black" stroke-width="3" stroke-dasharray="1,2" d="M50 384l924 0"/>
<text stroke="none" fill="black" font-size="16" x="18" y="392">
1.5
</text>
<path stroke="black" stroke-width="3" stroke-dasharray="1,2" d="M50 304l924 0"/>
<text stroke="none" fill="black" font-size="16" x="18" y="312">
2.0
</text>
<path stroke="black" stroke-width="3" stroke-dasharray="1,2" d="M50 224l924 0"/>
<text stroke="none" fill="black" font-size="16" x="18" y="232">
2.5
</text>
<path stroke="black" stroke-width="3" stroke-dasharray="1,2" d="M50 144l924 0"/>
<text stroke="none" fill="black" font-size="16" x="18" y="152">
3.0
</text>
<path stroke="black" stroke-width="3" stroke-dasharray="1,2" d="M50 64l924 0"/>
<text stroke="none" fill="black" font-size="16" x="18" y="72">
3.5
</text>
<text stroke="none" fill="black" font-size="16" x="10" y="32">
     
</text>
<path stroke="red" d="M462 23l46 0"/>
<text stroke="none" fill="black" font-size="16" x="518" y="32">
v(out_parity)
</text>
<path stroke="red" d="M50 624l0 -287 1 -1M51 624l0 -291M51 624l1 0M52 629l0 -310M52 629l1 1 0 -299M53 344l1 -2 0 -6 1 0M55 624l0 -288M55 624l2 0 0 -291M57 336l1 0M58 624l0 -301M58 624l2 0M60 626l0 -4M60 624l1 0 0 -288 2 0M63 624l0 -301M63 336l1 0"/>
<path stroke="red" d="M64 624l0 -301M64 624l2 0M66 626l0 -4M66 624l1 0 0 -288 2 0M69 626l0 -303M69 624l1 0 0 -288 2 0M72 402l0 -71M72 336l1 0M73 624l0 -288M73 624l2 0 0 -291M75 624l1 0 0 -309M76 624l2 0M78 626l0 -4M78 624l1 0M79 626l0 -290 2 0"/>
<path stroke="red" d="M81 627l0 -312M81 623l1 0M82 630l0 -292 1 -1 0 -1 1 0M84 343l0 -20M84 336l1 0 0 -25 1 0M86 624l0 -313M86 624l1 0M87 632l0 -296 1 0M88 626l0 -314M88 624l1 0M89 630l0 -294 1 0M90 343l0 -20M90 336l2 0M92 624l0 -313M92 624l1 0"/>
<path stroke="red" d="M93 632l0 -238 1 -25 0 -46M94 336l1 0M95 624l0 -309M95 624l2 0M97 626l0 -4M97 624l1 0M98 626l0 -290 2 0M100 627l0 -313M100 624l1 0M101 628l0 -297M101 624l2 0M103 626l0 -4M103 624l1 0M104 626l0 -290 2 0M106 627l0 -312M106 624l1 0"/>
<path stroke="red" d="M107 630l0 -294 2 0M109 343l0 -20M109 336l1 0M110 624l0 -313M110 624l2 0M112 632l0 -320M112 624l1 0M113 630l0 -294 2 0M115 343l0 -20M115 336l1 0M116 624l0 -313M116 624l2 0M118 632l0 -309M118 337l1 0M119 624l0 -309M119 624l2 0"/>
<path stroke="red" d="M121 626l0 -4M121 624l1 0M122 626l0 -275 1 -4 0 -11 1 0M124 624l0 -310M124 624l1 0M125 629l0 -312M125 624l1 0 0 -288 1 0M127 402l0 -71M127 336l2 0M129 624l0 -288M129 624l1 0 0 -258 1 -7M131 435l0 -102M131 336l1 0M132 624l0 -301"/>
<path stroke="red" d="M132 624l2 0M134 626l0 -4M134 624l1 0 0 -288 2 0M137 624l0 -301M137 336l1 0M138 624l0 -301M138 624l2 0M140 626l0 -4M140 624l1 0 0 -288 2 0M143 626l0 -303M143 624l1 0 0 -288 2 0M146 402l0 -71M146 336l1 0M147 624l0 -288M147 624l2 0"/>
<path stroke="red" d="M149 624l0 -291M149 624l1 0M150 628l0 -295M150 623l1 0M151 624l0 -1M151 624l1 0M152 626l0 -4M152 624l1 0M153 626l0 -290 2 0M155 627l0 -313M155 624l1 0M156 630l0 -294 2 0M158 343l0 -20M158 336l1 0M159 624l0 -313M159 624l2 0"/>
<path stroke="red" d="M161 632l0 -296 1 0M162 630l0 -318M162 630l1 -8 0 -286 1 0M164 343l0 -20M164 336l2 0M166 624l0 -313M166 624l1 0M167 632l0 -295 1 -1M168 345l0 -22M168 336l1 0M169 624l0 -310M169 624l1 0M170 626l0 -4 1 1M171 624l0 -1M171 624l1 0"/>
<path stroke="red" d="M172 626l0 -290 2 0M174 628l0 -314M174 383l1 3M175 624l0 -288 2 0M177 402l0 -71M177 336l1 0M178 625l0 -289M178 624l2 0 0 -291M180 336l1 0M181 625l0 -302M181 624l2 0M183 626l0 -4M183 624l1 0 0 -288 2 0M186 624l0 -301M186 405l1 2"/>
<path stroke="red" d="M187 625l0 -302M187 624l2 0M189 626l0 -4M189 624l1 0 0 -288 2 0M192 626l0 -303M192 624l1 0 0 -288 2 0M195 402l0 -71M195 336l1 0M196 625l0 -289M196 624l2 0 0 -291M198 389l1 21M199 630l0 -297M199 425l1 -27 0 -62 1 0M201 402l0 -71"/>
<path stroke="red" d="M201 336l1 0M202 337l0 -1M202 337l1 5M203 625l0 -283M203 624l1 0 0 -287 1 -1M205 435l0 -102M205 336l1 0M206 625l0 -302M206 624l1 0M207 626l0 -4M207 624l2 0 0 -288 1 0 0 -6 1 -2M211 624l0 -301M211 336l1 0M212 625l0 -302M212 624l2 0"/>
<path stroke="red" d="M214 626l0 -4M214 624l1 0 0 -288 2 0M217 626l0 -303M217 624l1 0 0 -288 2 0M220 402l0 -71M220 336l1 0M221 625l0 -289M221 624l2 0 0 -291M223 367l1 -8M224 624l0 -310M224 624l2 0M226 626l0 -4M226 624l1 0M227 626l0 -290 2 0M229 627l0 -313"/>
<path stroke="red" d="M229 624l1 0M230 630l0 -294 2 0M232 343l0 -20M232 336l1 0M233 624l0 -313M233 624l2 0M235 632l0 -320M235 623l1 1M236 630l0 -292 1 -1 0 -1 1 0M238 343l0 -20M238 336l1 0 0 -25 1 0M240 624l0 -313M240 624l1 0M241 632l0 -296 1 0"/>
<path stroke="red" d="M242 345l0 -22M242 336l1 0M243 624l0 -310M243 624l1 0M244 626l0 -4M244 624l2 0M246 626l0 -290 1 0M247 341l0 -27M247 341l1 134M248 628l0 -311M248 337l1 -1M249 628l0 -314M249 624l2 0M251 626l0 -4M251 624l1 0M252 626l0 -290"/>
<path stroke="red" d="M252 336l2 0M254 627l0 -313M254 624l1 0M255 630l0 -294 2 0M257 343l0 -20M257 336l1 0M258 624l0 -313M258 624l2 0M260 632l0 -320M260 624l1 0M261 630l0 -294 2 0M263 343l0 -20M263 336l1 0M264 624l0 -313M264 624l2 0M266 632l0 -309"/>
<path stroke="red" d="M266 336l1 0M267 624l0 -310M267 624l2 0M269 626l0 -4M269 624l1 0M270 626l0 -290 2 0M272 627l0 -313M272 339l1 -1M273 628l0 -311M273 338l1 -1 0 -1 1 0M275 402l0 -71M275 336l1 0M276 624l0 -288M276 624l1 -2M277 625l0 -3M277 624l1 0"/>
<path stroke="red" d="M278 624l0 -288 1 0M279 435l0 -102M279 336l1 0M280 625l0 -302M280 624l1 0M281 626l0 -4M281 624l2 0 0 -288 1 0M284 624l0 -301M284 624l1 0 0 -293M285 336l1 0M286 625l0 -302M286 624l2 0M288 626l0 -4M288 624l1 0 0 -288 2 0M291 626l0 -303"/>
<path stroke="red" d="M291 624l1 0 0 -288 2 0M294 402l0 -71M294 336l1 0M295 625l0 -289M295 624l2 0 0 -291M297 337l1 -1M298 630l0 -297M298 336l2 0M300 402l0 -71M300 336l1 0M301 625l0 -289M301 624l2 0 0 -291M303 336l1 0M304 625l0 -302M304 624l2 0"/>
<path stroke="red" d="M306 626l0 -4M306 624l1 0 0 -288 2 0M309 624l0 -301M309 337l1 0M310 625l0 -302M310 624l2 0M312 626l0 -4M312 624l1 0 0 -282 1 -2 0 -4 1 0M315 624l0 -301M315 624l1 0M316 626l0 -4 1 0 0 -286 1 0M318 402l0 -71M318 336l2 0M320 625l0 -289"/>
<path stroke="red" d="M320 624l1 0 0 -284 1 -1M322 624l0 -291M322 336l1 0M323 624l0 -310M323 624l1 0M324 626l0 -4 1 1M325 624l0 -1M325 624l1 0M326 626l0 -290 2 0M328 627l0 -313M328 624l1 0M329 630l0 -294 2 0M331 343l0 -20M331 336l1 0M332 624l0 -313"/>
<path stroke="red" d="M332 624l2 0M334 632l0 -320M334 624l1 0M335 630l0 -294 2 0M337 343l0 -20M337 336l1 0M338 624l0 -313M338 624l2 0M340 632l0 -309M340 336l1 0M341 624l0 -310M341 624l2 0M343 626l0 -4M343 624l1 0M344 626l0 -290 2 0M346 627l0 -313"/>
<path stroke="red" d="M346 336l1 0M347 628l0 -311M347 336l1 0M348 348l0 -27M348 336l1 0M349 402l0 -71M349 336l1 0M350 625l0 -289M350 624l2 0 0 -291M352 391l1 20M353 615l0 -292M353 615l1 9M354 625l0 -3M354 624l1 0M355 626l0 -4M355 624l2 0 0 -288"/>
<path stroke="red" d="M357 336l1 0M358 624l0 -301M358 624l1 0 0 -293M359 336l1 0M360 625l0 -302M360 624l1 0M361 626l0 -4M361 624l2 0 0 -288 1 0 0 -6 1 -2M365 626l0 -303M365 624l1 0 0 -288 2 0M368 402l0 -71M368 336l1 0M369 625l0 -289M369 624l2 0"/>
<path stroke="red" d="M371 624l0 -291M371 336l1 0M372 624l0 -309M372 624l2 0M374 626l0 -4M374 624l1 0M375 626l0 -290 2 0M377 627l0 -312M377 624l1 0M378 630l0 -294 2 0M380 343l0 -20M380 336l1 0M381 624l0 -313M381 624l2 0M383 632l0 -320M383 624l1 0"/>
<path stroke="red" d="M384 630l0 -294 2 0M386 343l0 -20M386 336l1 0M387 624l0 -313M387 624l2 0M389 632l0 -309M389 343l1 -2M390 624l0 -309M390 624l2 0M392 626l0 -4M392 624l1 0M393 626l0 -7 1 -61 0 -222 1 0M395 624l0 -310M395 624l1 0M396 628l0 -311"/>
<path stroke="red" d="M396 336l1 0M397 624l0 -293M397 624l1 0M398 626l0 -4M398 624l2 0M400 626l0 -290 1 0M401 344l0 -29M401 344l1 136M402 627l0 -147M402 624l1 0M403 630l0 -294 2 0M405 343l0 -20M405 336l1 0M406 624l0 -313M406 624l2 0M408 632l0 -320"/>
<path stroke="red" d="M408 624l1 0M409 630l0 -294 2 0M411 343l0 -20M411 336l1 0M412 624l0 -313M412 624l2 0M414 632l0 -309M414 336l1 0M415 624l0 -309M415 624l2 0M417 626l0 -4M417 624l1 0M418 626l0 -290 2 0M420 627l0 -313M420 336l1 0M421 629l0 -312"/>
<path stroke="red" d="M421 336l2 0M423 402l0 -71M423 336l1 0M424 625l0 -289M424 624l2 0 0 -291M426 344l1 -2M427 625l0 -302M427 624l2 0M429 626l0 -4M429 624l1 0 0 -237 1 -13 0 -38 1 0M432 624l0 -301M432 624l1 0 0 -293M433 336l1 0M434 625l0 -302"/>
<path stroke="red" d="M434 624l1 0M435 626l0 -4M435 624l2 0 0 -288 1 0M438 624l0 -301M438 624l1 0M439 626l0 -4M439 624l1 0 0 -288 1 0M441 341l0 -10M441 341l1 3M442 402l0 -66 1 0M443 625l0 -289M443 624l2 0 0 -291M445 342l1 15M446 628l0 -309M446 624l1 0"/>
<path stroke="red" d="M447 630l0 -294 1 0M448 402l0 -71M448 336l1 0M449 624l0 -288M449 624l2 0 0 -291M451 336l1 0M452 624l0 -301M452 624l2 0M454 626l0 -4M454 624l1 0 0 -288 2 0M457 624l0 -301M457 333l1 -2M458 624l0 -301M458 624l2 0M460 626l0 -4"/>
<path stroke="red" d="M460 624l1 0 0 -288 2 0M463 626l0 -303M463 624l1 0 0 -288 2 0M466 402l0 -71M466 336l1 0M467 624l0 -288M467 624l2 0 0 -288 1 0M470 624l0 -301 1 -5M471 624l0 -309M471 624l1 0M472 626l0 -4M472 624l2 0M474 626l0 -290 1 0M475 624l0 -309"/>
<path stroke="red" d="M475 624l1 0M476 627l0 -16M476 624l1 0M477 630l0 -294 1 0M478 341l0 -18M478 341l1 2 0 -7 1 0M480 624l0 -313M480 624l2 0M482 632l0 -320M482 624l1 0M483 630l0 -294 2 0M485 343l0 -20M485 336l1 0M486 624l0 -313M486 624l2 0M488 632l0 -309"/>
<path stroke="red" d="M488 336l1 0M489 624l0 -309M489 624l2 0M491 626l0 -4M491 624l1 0M492 626l0 -290 2 0M494 627l0 -313M494 317l1 24M495 628l0 -297M495 624l2 0M497 626l0 -4M497 624l1 0M498 626l0 -290 2 0M500 627l0 -312M500 624l1 0M501 630l0 -294"/>
<path stroke="red" d="M501 336l2 0M503 343l0 -20M503 336l1 0M504 624l0 -313M504 624l2 0M506 632l0 -305 1 -11M507 630l0 -318M507 355l1 -5 0 -14 1 0M509 343l0 -20M509 336l2 0M511 624l0 -313M511 624l1 0M512 632l0 -296 1 0M513 344l0 -21M513 336l1 0"/>
<path stroke="red" d="M514 624l0 -309M514 624l1 0M515 626l0 -4M515 624l2 0M517 626l0 -290 2 0M519 629l0 -315M519 616l1 4M520 624l0 -288 2 0M522 402l0 -71M522 336l1 0M523 624l0 -288M523 624l2 0 0 -291M525 336l1 0M526 624l0 -301M526 624l2 0M528 626l0 -4"/>
<path stroke="red" d="M528 624l1 0 0 -288 2 0M531 624l0 -301M531 350l1 -3M532 624l0 -301M532 624l2 0M534 626l0 -4M534 624l1 0 0 -288 2 0M537 626l0 -303M537 624l1 0 0 -288 2 0M540 402l0 -71M540 336l1 0M541 624l0 -288M541 624l2 0 0 -291M543 607l1 10"/>
<path stroke="red" d="M544 624l0 -291M544 624l1 0M545 628l0 -17M545 624l1 0M546 626l0 -4M546 624l1 0M547 626l0 -7 1 -49 0 -234 1 0M549 624l0 -310M549 624l1 0M550 627l0 -16M550 624l1 0M551 630l0 -294 1 0M552 343l0 -20M552 336l2 0M554 624l0 -313"/>
<path stroke="red" d="M554 624l1 0M555 632l0 -237 1 -25M556 626l0 -314M556 624l1 0M557 630l0 -294 2 0M559 343l0 -20M559 336l1 0M560 624l0 -313M560 624l2 0M562 632l0 -309M562 336l1 0M563 624l0 -310M563 624l2 0M565 626l0 -4M565 624l1 0M566 626l0 -290"/>
<path stroke="red" d="M566 336l2 0M568 627l0 -313M568 624l1 0M569 628l0 -292 2 0M571 402l0 -71M571 336l1 0M572 625l0 -289M572 624l2 0 0 -291M574 336l1 0M575 625l0 -302M575 624l2 0M577 626l0 -4M577 624l1 0 0 -288 2 0M580 624l0 -301M580 346l1 -2"/>
<path stroke="red" d="M581 625l0 -302M581 624l2 0M583 626l0 -4M583 624l1 0 0 -237 1 -13 0 -38 1 0M586 624l0 -301M586 624l1 0M587 626l0 -4M587 624l1 0 0 -288 1 0M589 402l0 -71M589 336l2 0M591 625l0 -289M591 624l1 0 0 -258 1 -7M593 624l0 -291M593 624l1 0"/>
<path stroke="red" d="M594 630l0 -294 1 0M595 341l0 -10M595 341l1 3M596 402l0 -66 1 0M597 625l0 -289M597 624l2 0 0 -291M599 336l1 0M600 625l0 -302M600 624l2 0M602 626l0 -4M602 624l1 0 0 -288 2 0M605 624l0 -301M605 336l1 0M606 625l0 -302M606 624l2 0"/>
<path stroke="red" d="M608 626l0 -4M608 624l1 0 0 -288 2 0M611 626l0 -303M611 624l1 0 0 -288 2 0M614 402l0 -71M614 336l1 0M615 625l0 -289M615 624l2 0 0 -291M617 624l1 0 0 -310M618 624l2 0M620 626l0 -4M620 624l1 0M621 626l0 -288 1 -1 0 -1 1 0"/>
<path stroke="red" d="M623 624l0 -310M623 624l1 0M624 630l0 -19M624 630l1 -8 0 -286 1 0M626 343l0 -20M626 336l2 0M628 624l0 -313M628 624l1 0M629 632l0 -295 1 -1M630 626l0 -314M630 624l1 0M631 630l0 -294 1 0M632 341l0 -18M632 341l1 2 0 -7 1 0"/>
<path stroke="red" d="M634 624l0 -313M634 624l2 0M636 632l0 -309M636 336l1 0M637 624l0 -310M637 624l2 0M639 626l0 -4M639 624l1 0M640 626l0 -290 2 0M642 627l0 -313M642 624l1 0M643 628l0 -314M643 624l1 0M644 628l0 -8M644 624l1 0M645 626l0 -4M645 624l1 0"/>
<path stroke="red" d="M646 626l0 -290 2 0M648 627l0 -313M648 624l1 0M649 630l0 -294 2 0M651 343l0 -20M651 336l1 0M652 624l0 -313M652 624l2 0M654 632l0 -320M654 624l1 0M655 630l0 -294 2 0M657 343l0 -20M657 336l1 0M658 624l0 -313M658 624l2 0M660 632l0 -303"/>
<path stroke="red" d="M660 329l1 -5M661 622l0 -308M661 622l1 1M662 624l0 -1M662 624l1 0M663 626l0 -4M663 624l1 0 1 1M665 626l0 -290 1 0M666 624l0 -310M666 624l1 0M667 628l0 -311M667 624l1 0 0 -288 1 0M669 402l0 -71M669 344l1 -2 0 -6 1 0M671 625l0 -289"/>
<path stroke="red" d="M671 624l2 0 0 -291M673 336l1 0M674 625l0 -302M674 624l2 0M676 626l0 -4M676 624l1 0 0 -288 2 0M679 624l0 -301M679 336l1 0M680 625l0 -302M680 624l2 0M682 626l0 -4M682 624l1 0 0 -288 2 0M685 626l0 -303M685 624l1 0 0 -288 2 0"/>
<path stroke="red" d="M688 402l0 -71M688 336l1 0M689 625l0 -289M689 624l2 0 0 -291M691 624l1 0M692 630l0 -297M692 336l2 0M694 402l0 -71M694 336l1 0M695 625l0 -289M695 624l2 0 0 -291M697 387l1 -13M698 625l0 -302M698 624l2 0M700 626l0 -4M700 624l1 0"/>
<path stroke="red" d="M701 624l0 -3 1 -2 0 -283 1 0M703 624l0 -301M703 624l1 0 0 -293M704 336l1 0M705 625l0 -302M705 624l1 0M706 626l0 -4M706 624l2 0 0 -288 1 0M709 510l0 -187M709 510l1 82M710 626l0 -34M710 624l1 0 0 -288 2 0M713 402l0 -71M713 336l1 0"/>
<path stroke="red" d="M714 625l0 -289M714 624l2 0 0 -291M716 336l1 0M717 624l0 -310M717 624l2 0M719 626l0 -4M719 624l1 0M720 626l0 -290 2 0M722 627l0 -313M722 624l1 0M723 630l0 -294 2 0M725 343l0 -20M725 336l1 0M726 624l0 -313M726 624l2 0M728 632l0 -320"/>
<path stroke="red" d="M728 624l1 0M729 630l0 -294 2 0M731 343l0 -20M731 336l1 0M732 624l0 -313M732 624l2 0M734 632l0 -309M734 337l1 0M735 624l0 -310M735 624l2 0M737 626l0 -4M737 624l1 0M738 626l0 -275 1 -5 0 -10 1 0M740 624l0 -310M740 624l1 0"/>
<path stroke="red" d="M741 628l0 -311M741 324l1 -2M742 621l0 -300M742 336l1 0M743 402l0 -71M743 336l2 0M745 625l0 -289M745 624l1 0 0 -258 1 -7M747 435l0 -102M747 336l1 0M748 625l0 -302M748 624l2 0M750 626l0 -4M750 624l1 0 0 -288 2 0M753 624l0 -301"/>
<path stroke="red" d="M753 336l1 0M754 625l0 -302M754 624l2 0M756 626l0 -4M756 624l1 0 0 -288 2 0M759 626l0 -303M759 624l1 0 0 -288 2 0M762 402l0 -71M762 336l1 0M763 625l0 -289M763 624l2 0 0 -291M765 624l1 0 0 -309M766 624l2 0M768 626l0 -4M768 624l1 0"/>
<path stroke="red" d="M769 626l0 -290 2 0M771 627l0 -312M771 624l1 0M772 630l0 -294 2 0M774 343l0 -20M774 336l1 0M775 624l0 -313M775 624l2 0M777 632l0 -296 1 0M778 630l0 -318M778 630l1 -8 0 -286 1 0M780 343l0 -20M780 336l2 0M782 624l0 -313M782 624l1 0"/>
<path stroke="red" d="M783 632l0 -295 1 -1M784 344l0 -21M784 336l1 0M785 624l0 -309M785 624l1 0M786 626l0 -4 1 1M787 624l0 -1M787 624l1 0M788 626l0 -290 2 0M790 628l0 -314M790 395l1 -26M791 624l0 -293M791 624l2 0M793 626l0 -4M793 624l1 0M794 626l0 -290"/>
<path stroke="red" d="M794 336l2 0M796 627l0 -312M796 624l1 0M797 630l0 -294 2 0M799 343l0 -20M799 336l1 0M800 624l0 -313M800 624l2 0M802 632l0 -320M802 624l1 -1M803 630l0 -294 2 0M805 343l0 -20M805 336l1 0M806 624l0 -313M806 624l2 0M808 632l0 -309"/>
<path stroke="red" d="M808 336l1 0M809 624l0 -309M809 624l2 0M811 626l0 -4M811 624l1 0M812 626l0 -290 2 0M814 627l0 -313M814 627l1 -1M815 629l0 -312M815 424l1 -26 0 -62 1 0M817 402l0 -71M817 336l1 0M818 337l0 -1M818 337l1 5M819 625l0 -283M819 624l1 0"/>
<path stroke="red" d="M820 624l0 -287 1 -1M821 435l0 -102M821 336l1 0M822 625l0 -302M822 624l1 0M823 626l0 -4M823 624l2 0 0 -288 1 0 0 -6 1 -2M827 624l0 -301M827 336l1 0M828 625l0 -302M828 624l2 0M830 626l0 -4M830 624l1 0 0 -288 2 0M833 626l0 -303"/>
<path stroke="red" d="M833 624l1 0 0 -288 2 0M836 402l0 -71M836 336l1 0M837 625l0 -289M837 624l2 0 0 -291M839 367l1 -8M840 628l0 -295M840 336l1 0M841 630l0 -311M841 336l1 0M842 402l0 -71M842 336l1 0M843 624l0 -288M843 624l2 0 0 -291M845 336l1 0"/>
<path stroke="red" d="M846 624l0 -301M846 624l2 0M848 626l0 -4M848 624l1 0 0 -288 2 0M851 624l0 -301M851 400l1 -17M852 624l0 -301M852 624l2 0M854 626l0 -4M854 624l1 0 0 -3 1 -3 0 -282 1 0M857 624l0 -301M857 624l1 0M858 626l0 -4M858 624l1 0 0 -288"/>
<path stroke="red" d="M859 336l1 0M860 402l0 -71M860 337l1 0 0 -1 1 0M862 624l0 -288M862 624l1 0 0 -33 1 -73M864 624l0 -291M864 343l1 -2M865 624l0 -309M865 624l2 0M867 626l0 -4M867 624l1 0M868 626l0 -290 2 0M870 627l0 -312M870 624l1 0M871 630l0 -294"/>
<path stroke="red" d="M871 336l2 0M873 343l0 -20M873 336l1 0M874 624l0 -313M874 624l2 0M876 632l0 -320M876 624l1 0M877 630l0 -294 2 0M879 343l0 -20M879 336l1 0M880 624l0 -313M880 624l2 0M882 632l0 -309M882 336l1 0M883 624l0 -309M883 624l2 0M885 626l0 -4"/>
<path stroke="red" d="M885 624l1 0M886 626l0 -290 2 0M888 627l0 -313M888 339l1 -1M889 628l0 -311M889 624l2 0M891 626l0 -4M891 624l1 0M892 626l0 -273 1 -5 0 -12 1 0M894 624l0 -309M894 624l1 0M895 627l0 -16M895 624l1 0M896 630l0 -294 1 0M897 343l0 -20"/>
<path stroke="red" d="M897 336l2 0M899 624l0 -313M899 624l1 0M900 632l0 -289 1 -2M901 626l0 -314M901 624l1 0M902 630l0 -294 1 0M903 337l0 -1M903 337l1 0M904 343l0 -20M904 336l1 0M905 624l0 -313M905 624l2 0M907 632l0 -309M907 336l1 0M908 624l0 -309"/>
<path stroke="red" d="M908 624l2 0M910 626l0 -4M910 624l1 0M911 626l0 -290 2 0M913 627l0 -313M913 624l1 0M914 629l0 -293 2 0M916 402l0 -71M916 336l1 0M917 624l0 -288M917 624l2 0 0 -291M919 336l1 0M920 624l0 -301M920 624l2 0M922 626l0 -4M922 624l1 0"/>
<path stroke="red" d="M923 624l0 -288 2 0M925 624l0 -301M925 337l1 0M926 624l0 -301M926 624l2 0M928 626l0 -4M928 624l1 0 0 -282 1 -2 0 -4 1 0M931 624l0 -301M931 624l1 0M932 626l0 -4 1 0 0 -286 1 0M934 402l0 -71M934 336l2 0M936 624l0 -288M936 624l1 0"/>
<path stroke="red" d="M937 624l0 -284 1 -1M938 624l0 -291M938 624l1 0M939 628l0 -224M939 624l1 0M940 626l0 -4 1 1M941 624l0 -1M941 624l1 0M942 626l0 -290 2 0M944 627l0 -313M944 624l1 0M945 630l0 -294 2 0M947 343l0 -20M947 336l1 0M948 624l0 -313"/>
<path stroke="red" d="M948 624l2 0M950 632l0 -320M950 624l1 0M951 630l0 -294 2 0M953 343l0 -20M953 336l1 0M954 624l0 -313M954 624l2 0M956 632l0 -309M956 336l1 0M957 624l0 -310M957 624l2 0M959 626l0 -4M959 624l1 0M960 626l0 -290 2 0M962 627l0 -313"/>
<path stroke="red" d="M962 336l1 0M963 628l0 -311M963 336l2 0M965 402l0 -71M965 336l1 0M966 625l0 -289M966 624l2 0 0 -291M968 391l1 20M969 616l0 -293M969 616l1 9 0 -3M970 624l1 0M971 626l0 -4M971 624l2 0 0 -288 1 0"/>
<path stroke="blue" d="M50 23l46 0"/>
<text stroke="none" fill="black" font-size="16" x="106" y="32">
ideal_parity
</text>
<path stroke="blue" d="M50 624l0 -518 1 0M51 609l0 -544M51 278l1 0M52 607l0 -530M52 451l1 0M53 587l0 -499M53 451l2 0M55 607l0 -473M55 394l1 0M56 607l0 -473M56 451l1 0M57 587l0 -499M57 451l1 0M58 607l0 -473M58 394l2 0M60 607l0 -473M60 394l1 0"/>
<path stroke="blue" d="M61 549l0 -472M61 336l2 0M63 607l0 -530M63 451l1 0M64 607l0 -473M64 394l2 0M66 607l0 -473M66 394l1 0M67 549l0 -472M67 336l2 0M69 607l0 -530M69 394l1 0M70 549l0 -472M70 336l2 0M72 549l0 -472M72 336l1 0M73 595l0 -472M73 278l2 0"/>
<path stroke="blue" d="M75 595l0 -518M75 394l1 0M76 607l0 -519M76 394l2 0M78 607l0 -473M78 394l1 0M79 549l0 -472M79 336l2 0M81 607l0 -530M81 394l1 0M82 549l0 -472M82 336l2 0M84 549l0 -472M84 336l1 0M85 595l0 -472M85 278l2 0M87 595l0 -472M87 336l1 0"/>
<path stroke="blue" d="M88 607l0 -530M88 394l1 0M89 549l0 -472M89 336l1 0M90 549l0 -472M90 336l2 0M92 595l0 -472M92 278l1 0M93 595l0 -472M93 336l1 0M94 549l0 -472M94 336l1 0M95 595l0 -472M95 278l2 0M97 595l0 -472M97 278l1 0M98 538l0 -473M98 221l2 0"/>
<path stroke="blue" d="M100 595l0 -530M100 394l1 0M101 607l0 -529M101 394l2 0M103 607l0 -473M103 394l1 0M104 549l0 -472M104 336l2 0M106 607l0 -530M106 394l1 0M107 549l0 -472M107 336l2 0M109 549l0 -472M109 336l1 0M110 595l0 -472M110 278l2 0M112 595l0 -518"/>
<path stroke="blue" d="M112 394l1 0M113 607l0 -530M113 336l2 0M115 549l0 -472M115 336l1 0M116 595l0 -472M116 278l2 0M118 595l0 -518M118 336l1 0M119 595l0 -472M119 278l2 0M121 595l0 -472M121 278l1 0M122 538l0 -473M122 221l2 0M124 538l0 -473M124 278l1 0"/>
<path stroke="blue" d="M125 607l0 -530M125 466l1 83 0 -472M126 336l1 0M127 549l0 -472M127 336l2 0M129 595l0 -472M129 278l1 0M130 595l0 -472M130 336l1 0M131 549l0 -472M131 336l1 0M132 595l0 -472M132 278l1 0M133 595l0 -472M133 346l1 21M134 595l0 -472"/>
<path stroke="blue" d="M134 278l1 0M135 538l0 -473M135 221l2 0M137 595l0 -530M137 336l1 0M138 595l0 -472M138 278l2 0M140 595l0 -472M140 278l1 0M141 538l0 -473M141 221l2 0M143 595l0 -530M143 278l1 0M144 538l0 -473M144 221l2 0M146 538l0 -473M146 221l1 0"/>
<path stroke="blue" d="M147 584l0 -499M147 163l2 0M149 595l0 -530M149 595l1 -103M150 607l0 -530M150 394l2 0M152 607l0 -473M152 394l1 0M153 549l0 -472M153 336l2 0M155 607l0 -530M155 394l1 0M156 549l0 -472M156 336l2 0M158 549l0 -472M158 336l1 0"/>
<path stroke="blue" d="M159 595l0 -472M159 278l2 0M161 595l0 -472M161 305l1 -42M162 607l0 -530M162 336l2 0M164 549l0 -472M164 336l2 0M166 595l0 -472M166 278l1 0M167 595l0 -472M167 336l1 0M168 549l0 -472M168 336l1 0M169 595l0 -472M169 278l1 0"/>
<path stroke="blue" d="M170 595l0 -472M170 278l2 0M172 538l0 -473M172 221l2 0M174 607l0 -542M174 394l1 0M175 549l0 -472M175 336l2 0M177 549l0 -472M177 336l1 0M178 595l0 -472M178 278l2 0M180 595l0 -518M180 336l1 0M181 595l0 -472M181 278l2 0M183 595l0 -472"/>
<path stroke="blue" d="M183 278l1 0M184 538l0 -473M184 221l2 0M186 595l0 -530M186 180l1 78M187 595l0 -472M187 278l2 0M189 595l0 -472M189 278l1 0M190 538l0 -473M190 221l2 0M192 595l0 -530M192 278l1 0M193 538l0 -473M193 221l2 0M195 538l0 -473M195 221l1 0"/>
<path stroke="blue" d="M196 584l0 -499M196 163l2 0M198 584l0 -519M198 278l1 0M199 607l0 -530M199 336l2 0M201 549l0 -472M201 336l1 0M202 409l0 -73M202 409l1 83M203 595l0 -472M203 278l1 0M204 595l0 -472M204 336l1 0M205 549l0 -472M205 336l1 0M206 595l0 -472"/>
<path stroke="blue" d="M206 278l1 0M207 595l0 -472M207 278l2 0M209 538l0 -473M209 221l1 0M210 538l0 -473M210 278l1 0M211 595l0 -518M211 336l1 0M212 595l0 -472M212 278l2 0M214 595l0 -472M214 278l1 0M215 538l0 -473M215 221l2 0M217 595l0 -530M217 278l1 0"/>
<path stroke="blue" d="M218 538l0 -473M218 221l2 0M220 538l0 -473M220 221l1 0M221 584l0 -499M221 163l2 0M223 595l0 -530M223 336l1 0M224 595l0 -518M224 278l2 0M226 595l0 -472M226 278l1 0M227 538l0 -473M227 221l2 0M229 595l0 -530M229 278l1 0M230 538l0 -473"/>
<path stroke="blue" d="M230 221l2 0M232 538l0 -473M232 221l1 0M233 584l0 -499M233 163l2 0M235 584l0 -519M235 278l1 0M236 595l0 -530M236 221l2 0M238 538l0 -473M238 221l1 0M239 584l0 -499M239 163l2 0M241 584l0 -493M241 221l1 0M242 538l0 -473M242 221l1 0"/>
<path stroke="blue" d="M243 584l0 -499M243 163l1 0M244 584l0 -499M244 163l2 0M246 604l0 -498 1 0M247 609l0 -535M247 163l1 0M248 595l0 -530M248 336l1 0M249 607l0 -530M249 394l2 0M251 607l0 -473M251 394l1 0M252 549l0 -472M252 336l2 0M254 607l0 -530"/>
<path stroke="blue" d="M254 394l1 0M255 549l0 -472M255 336l2 0M257 549l0 -472M257 336l1 0M258 595l0 -472M258 278l2 0M260 607l0 -530M260 394l1 0M261 549l0 -472M261 336l2 0M263 549l0 -472M263 336l1 0M264 595l0 -472M264 278l2 0M266 595l0 -518M266 336l1 0"/>
<path stroke="blue" d="M267 595l0 -472M267 278l2 0M269 595l0 -472M269 278l1 0M270 538l0 -473M270 221l2 0M272 595l0 -530M272 336l1 0M273 607l0 -530M273 336l2 0M275 549l0 -472M275 336l1 0M276 595l0 -472M276 278l2 0M278 595l0 -472M278 336l1 0M279 549l0 -472"/>
<path stroke="blue" d="M279 409l1 83M280 595l0 -472M280 278l1 0M281 595l0 -472M281 278l2 0M283 538l0 -473M283 221l1 0M284 538l0 -473M284 278l1 0M285 595l0 -518M285 336l1 0M286 595l0 -472M286 278l1 0M287 595l0 -472M287 346l1 21M288 595l0 -472"/>
<path stroke="blue" d="M288 278l1 0M289 538l0 -473M289 221l2 0M291 595l0 -530M291 278l1 0M292 538l0 -473M292 221l2 0M294 538l0 -473M294 221l1 0M295 584l0 -499M295 163l2 0M297 595l0 -530M297 336l1 0M298 607l0 -530M298 336l2 0M300 549l0 -472M300 336l1 0"/>
<path stroke="blue" d="M301 595l0 -472M301 278l2 0M303 595l0 -518M303 336l1 0M304 595l0 -472M304 278l2 0M306 595l0 -472M306 278l1 0M307 538l0 -473M307 221l2 0M309 595l0 -530M309 336l1 0M310 595l0 -518M310 278l2 0M312 595l0 -472M312 278l1 0M313 538l0 -473"/>
<path stroke="blue" d="M313 221l2 0M315 538l0 -473M315 247l1 -41M316 595l0 -530M316 221l2 0M318 538l0 -473M318 221l2 0M320 584l0 -499M320 163l1 0M321 584l0 -493M321 221l1 0M322 595l0 -530M322 336l1 0M323 595l0 -472M323 278l1 0M324 595l0 -472"/>
<path stroke="blue" d="M324 278l2 0M326 538l0 -473M326 221l2 0M328 595l0 -530M328 278l1 0M329 538l0 -473M329 221l2 0M331 538l0 -473M331 221l1 0M332 584l0 -499M332 163l2 0M334 595l0 -530M334 278l1 0M335 538l0 -473M335 221l2 0M337 538l0 -473M337 221l1 0"/>
<path stroke="blue" d="M338 584l0 -499M338 163l2 0M340 584l0 -519M340 221l1 0M341 584l0 -499M341 163l2 0M343 584l0 -499M343 163l1 0M344 604l0 -498 2 0M346 609l0 -535M346 221l1 0M347 595l0 -530M347 336l1 0M348 549l0 -472M348 336l1 0M349 549l0 -472"/>
<path stroke="blue" d="M349 336l1 0M350 595l0 -472M350 278l2 0M352 595l0 -518M352 549l1 -472M353 595l0 -518M353 278l2 0M355 595l0 -472M355 278l1 0M356 351l0 -73M356 351l1 83M357 538l0 -473M357 221l1 0M358 538l0 -473M358 278l1 0M359 595l0 -518"/>
<path stroke="blue" d="M359 336l1 0M360 595l0 -472M360 278l1 0M361 595l0 -472M361 278l2 0M363 538l0 -473M363 221l1 0M364 538l0 -473M364 278l1 0M365 595l0 -472M365 278l1 0M366 538l0 -473M366 221l2 0M368 538l0 -473M368 221l1 0M369 584l0 -499M369 163l2 0"/>
<path stroke="blue" d="M371 595l0 -530M371 336l1 0M372 595l0 -518M372 278l2 0M374 595l0 -472M374 278l1 0M375 538l0 -473M375 221l2 0M377 595l0 -530M377 278l1 0M378 538l0 -473M378 221l2 0M380 538l0 -473M380 221l1 0M381 584l0 -499M381 163l2 0M383 584l0 -519"/>
<path stroke="blue" d="M383 278l1 0M384 595l0 -530M384 221l2 0M386 538l0 -473M386 221l1 0M387 584l0 -499M387 163l2 0M389 584l0 -519M389 221l1 0M390 584l0 -499M390 163l2 0M392 584l0 -499M392 163l1 0M393 604l0 -498 2 0M395 609l0 -535M395 163l1 0"/>
<path stroke="blue" d="M396 595l0 -530M396 336l1 0M397 549l0 -472M397 278l1 0M398 595l0 -472M398 278l2 0M400 538l0 -473M400 221l1 0M401 538l0 -473M401 278l1 0M402 595l0 -472M402 278l1 0M403 538l0 -473M403 221l2 0M405 538l0 -473M405 221l1 0M406 584l0 -499"/>
<path stroke="blue" d="M406 163l2 0M408 595l0 -530M408 278l1 0M409 538l0 -473M409 221l2 0M411 538l0 -473M411 221l1 0M412 584l0 -499M412 163l2 0M414 584l0 -519M414 221l1 0M415 584l0 -499M415 163l2 0M417 584l0 -499M417 163l1 0M418 604l0 -498 2 0"/>
<path stroke="blue" d="M420 609l0 -535M420 221l1 0M421 595l0 -530M421 221l2 0M423 538l0 -473M423 221l1 0M424 584l0 -499M424 163l2 0M426 584l0 -519M426 221l1 0M427 584l0 -499M427 163l2 0M429 584l0 -499M429 163l1 0M430 604l0 -498 2 0M432 609l0 -535"/>
<path stroke="blue" d="M432 163l1 0M433 584l0 -519M433 293l1 83M434 584l0 -499M434 163l1 0M435 584l0 -499M435 163l2 0M437 604l0 -498 1 0M438 609l0 -535M438 163l1 0M439 584l0 -499M439 163l1 0M440 604l0 -498 1 0M441 609l0 -535M441 174l1 20M442 604l0 -498"/>
<path stroke="blue" d="M442 106l1 0M443 624l0 -518M443 624l2 0 0 -559M445 356l1 -78M446 595l0 -518M446 394l1 0M447 607l0 -473M447 451l1 0M448 587l0 -499M448 451l1 0M449 607l0 -473M449 394l2 0M451 607l0 -519M451 451l1 0M452 607l0 -473M452 394l2 0"/>
<path stroke="blue" d="M454 607l0 -473M454 394l1 0M455 549l0 -472M455 336l2 0M457 607l0 -530M457 192l1 -104M458 607l0 -519M458 394l2 0M460 607l0 -473M460 394l1 0M461 549l0 -472M461 336l2 0M463 607l0 -530M463 394l1 0M464 549l0 -472M464 336l2 0"/>
<path stroke="blue" d="M466 549l0 -472M466 336l1 0M467 595l0 -472M467 278l2 0M469 595l0 -472M469 305l1 -42M470 607l0 -530M470 394l2 0M472 607l0 -473M472 394l2 0M474 549l0 -472M474 336l1 0M475 549l0 -472M475 394l1 0M476 607l0 -473M476 394l1 0"/>
<path stroke="blue" d="M477 549l0 -472M477 336l1 0M478 549l0 -472M478 336l2 0M480 595l0 -472M480 278l2 0M482 607l0 -530M482 394l1 0M483 549l0 -472M483 336l2 0M485 549l0 -472M485 336l1 0M486 595l0 -472M486 278l2 0M488 595l0 -518M488 336l1 0M489 595l0 -472"/>
<path stroke="blue" d="M489 278l2 0M491 595l0 -472M491 278l1 0M492 538l0 -473M492 221l2 0M494 595l0 -530M494 394l1 0M495 607l0 -529M495 394l2 0M497 607l0 -473M497 394l1 0M498 549l0 -472M498 336l2 0M500 607l0 -530M500 394l1 0M501 549l0 -472M501 336l2 0"/>
<path stroke="blue" d="M503 549l0 -472M503 336l1 0M504 595l0 -472M504 278l2 0M506 595l0 -518M506 394l1 0M507 607l0 -530M507 336l2 0M509 549l0 -472M509 336l1 0M510 409l0 -73M510 409l1 83M511 595l0 -472M511 278l1 0M512 595l0 -472M512 336l1 0M513 549l0 -472"/>
<path stroke="blue" d="M513 336l1 0M514 595l0 -472M514 278l1 0M515 595l0 -472M515 278l2 0M517 538l0 -473M517 221l1 0M518 538l0 -473M518 278l1 0M519 607l0 -530M519 394l1 0M520 549l0 -472M520 336l2 0M522 549l0 -472M522 336l1 0M523 595l0 -472M523 278l2 0"/>
<path stroke="blue" d="M525 595l0 -518M525 336l1 0M526 595l0 -472M526 278l2 0M528 595l0 -472M528 278l1 0M529 538l0 -473M529 221l2 0M531 595l0 -530M531 336l1 0M532 595l0 -472M532 278l2 0M534 595l0 -472M534 278l1 0M535 538l0 -473M535 221l2 0M537 595l0 -530"/>
<path stroke="blue" d="M537 278l1 0M538 538l0 -473M538 221l2 0M540 538l0 -473M540 221l1 0M541 584l0 -499M541 163l2 0M543 584l0 -519M543 278l1 0M544 607l0 -530M544 394l1 0M545 607l0 -473M545 394l1 0M546 607l0 -473M546 394l1 0M547 549l0 -472M547 336l2 0"/>
<path stroke="blue" d="M549 549l0 -472M549 394l1 0M550 607l0 -473M550 394l1 0M551 549l0 -472M551 336l1 0M552 549l0 -472M552 336l2 0M554 595l0 -472M554 278l1 0M555 595l0 -472M555 336l1 0M556 607l0 -530M556 394l1 0M557 549l0 -472M557 336l2 0M559 549l0 -472"/>
<path stroke="blue" d="M559 336l1 0M560 595l0 -472M560 278l2 0M562 595l0 -518M562 336l1 0M563 595l0 -472M563 278l2 0M565 595l0 -472M565 278l1 0M566 538l0 -473M566 221l2 0M568 595l0 -530M568 394l1 0M569 607l0 -530M569 336l2 0M571 549l0 -472M571 336l1 0"/>
<path stroke="blue" d="M572 595l0 -472M572 278l2 0M574 595l0 -518M574 336l1 0M575 595l0 -472M575 278l2 0M577 595l0 -472M577 278l1 0M578 538l0 -473M578 221l2 0M580 595l0 -530M580 336l1 0M581 595l0 -518M581 278l2 0M583 595l0 -472M583 278l1 0M584 538l0 -473"/>
<path stroke="blue" d="M584 221l2 0M586 538l0 -473M586 278l1 0M587 595l0 -472M587 351l1 83M588 538l0 -473M588 221l1 0M589 538l0 -473M589 221l2 0M591 584l0 -499M591 163l1 0M592 584l0 -493M592 221l1 0M593 595l0 -530M593 394l1 0M594 607l0 -473M594 336l1 0"/>
<path stroke="blue" d="M595 549l0 -472M595 404l1 21M596 549l0 -472M596 336l1 0M597 595l0 -472M597 278l2 0M599 595l0 -518M599 336l1 0M600 595l0 -472M600 278l2 0M602 595l0 -472M602 278l1 0M603 538l0 -473M603 221l2 0M605 595l0 -530M605 336l1 0M606 595l0 -472"/>
<path stroke="blue" d="M606 278l2 0M608 595l0 -472M608 278l1 0M609 538l0 -473M609 221l2 0M611 595l0 -530M611 278l1 0M612 538l0 -473M612 221l2 0M614 538l0 -473M614 221l1 0M615 584l0 -499M615 163l2 0M617 584l0 -519M617 278l1 0M618 595l0 -518M618 278l2 0"/>
<path stroke="blue" d="M620 595l0 -472M620 278l1 0M621 538l0 -473M621 221l2 0M623 538l0 -473M623 247l1 -41M624 595l0 -530M624 221l2 0M626 538l0 -473M626 221l2 0M628 584l0 -499M628 163l1 0M629 584l0 -493M629 221l1 0M630 595l0 -530M630 278l1 0"/>
<path stroke="blue" d="M631 538l0 -473M631 221l1 0M632 538l0 -473M632 221l2 0M634 584l0 -499M634 163l2 0M636 584l0 -519M636 221l1 0M637 584l0 -499M637 163l2 0M639 584l0 -499M639 163l1 0M640 604l0 -498 2 0M642 609l0 -544M642 278l1 0M643 595l0 -518"/>
<path stroke="blue" d="M643 394l1 0M644 607l0 -473M644 394l1 0M645 607l0 -473M645 394l1 0M646 549l0 -472M646 336l2 0M648 607l0 -530M648 394l1 0M649 549l0 -472M649 336l2 0M651 549l0 -472M651 336l1 0M652 595l0 -472M652 278l2 0M654 595l0 -518M654 394l1 0"/>
<path stroke="blue" d="M655 607l0 -530M655 336l2 0M657 549l0 -472M657 336l1 0M658 595l0 -472M658 278l2 0M660 595l0 -518M660 549l1 -472M661 595l0 -518M661 278l2 0M663 595l0 -472M663 278l1 0M664 351l0 -73M664 351l1 83M665 538l0 -473M665 221l1 0"/>
<path stroke="blue" d="M666 538l0 -473M666 278l1 0M667 607l0 -530M667 394l1 0M668 549l0 -472M668 336l1 0M669 549l0 -472M669 336l2 0M671 595l0 -472M671 278l1 0M672 595l0 -472M672 336l1 0M673 549l0 -472M673 336l1 0M674 595l0 -472M674 278l2 0M676 595l0 -472"/>
<path stroke="blue" d="M676 278l1 0M677 538l0 -473M677 221l2 0M679 595l0 -530M679 336l1 0M680 595l0 -472M680 278l2 0M682 595l0 -472M682 278l1 0M683 538l0 -473M683 221l2 0M685 595l0 -530M685 278l1 0M686 538l0 -473M686 221l2 0M688 538l0 -473M688 221l1 0"/>
<path stroke="blue" d="M689 584l0 -499M689 163l2 0M691 584l0 -519M691 278l1 0M692 607l0 -530M692 336l2 0M694 549l0 -472M694 336l1 0M695 595l0 -472M695 278l2 0M697 595l0 -518M697 336l1 0M698 595l0 -472M698 278l2 0M700 595l0 -472M700 278l1 0M701 538l0 -473"/>
<path stroke="blue" d="M701 221l2 0M703 538l0 -473M703 278l1 0M704 595l0 -518M704 336l1 0M705 595l0 -472M705 278l1 0M706 595l0 -472M706 278l2 0M708 538l0 -473M708 221l1 0M709 538l0 -473M709 278l1 0M710 595l0 -472M710 278l1 0M711 538l0 -473M711 221l2 0"/>
<path stroke="blue" d="M713 538l0 -473M713 221l1 0M714 584l0 -499M714 163l2 0M716 595l0 -530M716 336l1 0M717 595l0 -518M717 278l2 0M719 595l0 -472M719 278l1 0M720 538l0 -473M720 221l2 0M722 595l0 -530M722 278l1 0M723 538l0 -473M723 221l2 0M725 538l0 -473"/>
<path stroke="blue" d="M725 221l1 0M726 584l0 -499M726 163l2 0M728 584l0 -519M728 278l1 0M729 595l0 -530M729 221l2 0M731 538l0 -473M731 221l1 0M732 584l0 -499M732 163l2 0M734 584l0 -519M734 221l1 0M735 584l0 -499M735 163l2 0M737 584l0 -499M737 163l1 0"/>
<path stroke="blue" d="M738 604l0 -498 2 0M740 609l0 -535M740 163l1 0M741 595l0 -530M741 466l1 83 0 -472M742 336l1 0M743 549l0 -472M743 336l2 0M745 595l0 -472M745 278l1 0M746 595l0 -472M746 336l1 0M747 549l0 -472M747 336l1 0M748 595l0 -472M748 278l1 0"/>
<path stroke="blue" d="M749 595l0 -472M749 346l1 21M750 595l0 -472M750 278l1 0M751 538l0 -473M751 221l2 0M753 595l0 -530M753 336l1 0M754 595l0 -472M754 278l2 0M756 595l0 -472M756 278l1 0M757 538l0 -473M757 221l2 0M759 595l0 -530M759 278l1 0M760 538l0 -473"/>
<path stroke="blue" d="M760 221l2 0M762 538l0 -473M762 221l1 0M763 584l0 -499M763 163l2 0M765 595l0 -530M765 595l1 -103M766 595l0 -518M766 278l2 0M768 595l0 -472M768 278l1 0M769 538l0 -473M769 221l2 0M771 595l0 -530M771 278l1 0M772 538l0 -473"/>
<path stroke="blue" d="M772 221l2 0M774 538l0 -473M774 221l1 0M775 584l0 -499M775 163l2 0M777 584l0 -493M777 190l1 -42M778 595l0 -530M778 221l2 0M780 538l0 -473M780 221l2 0M782 584l0 -499M782 163l1 0M783 584l0 -493M783 221l1 0M784 538l0 -473"/>
<path stroke="blue" d="M784 221l1 0M785 584l0 -499M785 163l1 0M786 584l0 -499M786 163l2 0M788 604l0 -498 2 0M790 609l0 -544M790 336l1 0M791 549l0 -472M791 278l2 0M793 595l0 -472M793 278l1 0M794 538l0 -473M794 221l2 0M796 595l0 -530M796 278l1 0"/>
<path stroke="blue" d="M797 538l0 -473M797 221l2 0M799 538l0 -473M799 221l1 0M800 584l0 -499M800 163l2 0M802 595l0 -530M802 123l1 78M803 538l0 -473M803 221l2 0M805 538l0 -473M805 221l1 0M806 584l0 -499M806 163l2 0M808 584l0 -519M808 221l1 0M809 584l0 -499"/>
<path stroke="blue" d="M809 163l2 0M811 584l0 -499M811 163l1 0M812 604l0 -498 2 0M814 609l0 -535M814 221l1 0M815 595l0 -530M815 221l2 0M817 538l0 -473M817 221l1 0M818 293l0 -72M818 293l1 83M819 584l0 -499M819 163l1 0M820 584l0 -493M820 221l1 0"/>
<path stroke="blue" d="M821 538l0 -473M821 221l1 0M822 584l0 -499M822 163l1 0M823 584l0 -499M823 163l2 0M825 604l0 -498 1 0M826 609l0 -535M826 163l1 0M827 584l0 -519M827 221l1 0M828 584l0 -499M828 163l2 0M830 584l0 -499M830 163l1 0M831 604l0 -498"/>
<path stroke="blue" d="M831 106l2 0M833 609l0 -535M833 163l1 0M834 604l0 -498 2 0M836 609l0 -535M836 106l1 0M837 624l0 -518M837 624l2 0 0 -550M839 221l1 0M840 595l0 -530M840 336l1 0M841 607l0 -530M841 451l1 0M842 587l0 -499M842 451l1 0M843 607l0 -473"/>
<path stroke="blue" d="M843 394l2 0M845 607l0 -519M845 451l1 0M846 607l0 -473M846 394l2 0M848 607l0 -473M848 394l1 0M849 549l0 -472M849 336l2 0M851 607l0 -530M851 451l1 0M852 607l0 -519M852 394l2 0M854 607l0 -473M854 394l1 0M855 549l0 -472M855 336l2 0"/>
<path stroke="blue" d="M857 549l0 -472M857 394l1 0M858 607l0 -473M858 394l1 0M859 549l0 -472M859 336l1 0M860 549l0 -472M860 336l2 0M862 595l0 -472M862 278l1 0M863 595l0 -472M863 336l1 0M864 607l0 -530M864 451l1 0M865 607l0 -473M865 394l2 0M867 607l0 -473"/>
<path stroke="blue" d="M867 394l1 0M868 549l0 -472M868 336l2 0M870 607l0 -530M870 394l1 0M871 549l0 -472M871 336l2 0M873 549l0 -472M873 336l1 0M874 595l0 -472M874 278l2 0M876 607l0 -530M876 394l1 0M877 549l0 -472M877 336l2 0M879 549l0 -472M879 336l1 0"/>
<path stroke="blue" d="M880 595l0 -472M880 278l2 0M882 595l0 -518M882 336l1 0M883 595l0 -472M883 278l2 0M885 595l0 -472M885 278l1 0M886 538l0 -473M886 221l2 0M888 595l0 -530M888 336l1 0M889 607l0 -530M889 394l2 0M891 607l0 -473M891 394l1 0M892 549l0 -472"/>
<path stroke="blue" d="M892 336l2 0M894 549l0 -472M894 394l1 0M895 607l0 -473M895 466l1 83 0 -472M896 336l1 0M897 549l0 -472M897 336l2 0M899 595l0 -472M899 278l1 0M900 595l0 -472M900 336l1 0M901 607l0 -530M901 394l1 0M902 549l0 -472M902 336l1 0"/>
<path stroke="blue" d="M903 549l0 -472M903 404l1 21M904 549l0 -472M904 336l1 0M905 595l0 -472M905 278l2 0M907 595l0 -518M907 336l1 0M908 595l0 -472M908 278l2 0M910 595l0 -472M910 278l1 0M911 538l0 -473M911 221l2 0M913 595l0 -530M913 394l1 0M914 607l0 -530"/>
<path stroke="blue" d="M914 336l2 0M916 549l0 -472M916 336l1 0M917 595l0 -472M917 278l2 0M919 595l0 -518M919 336l1 0M920 595l0 -472M920 278l2 0M922 595l0 -472M922 278l1 0M923 538l0 -473M923 221l2 0M925 595l0 -530M925 336l1 0M926 595l0 -518M926 278l2 0"/>
<path stroke="blue" d="M928 595l0 -472M928 278l1 0M929 538l0 -473M929 221l2 0M931 538l0 -473M931 247l1 -41M932 595l0 -530M932 221l2 0M934 538l0 -473M934 221l2 0M936 584l0 -499M936 163l1 0M937 584l0 -493M937 221l1 0M938 595l0 -530M938 394l1 0"/>
<path stroke="blue" d="M939 607l0 -473M939 394l1 0M940 607l0 -473M940 394l2 0M942 549l0 -472M942 336l2 0M944 607l0 -530M944 394l1 0M945 549l0 -472M945 336l2 0M947 549l0 -472M947 336l1 0M948 595l0 -472M948 278l2 0M950 607l0 -530M950 394l1 0M951 549l0 -472"/>
<path stroke="blue" d="M951 336l2 0M953 549l0 -472M953 336l1 0M954 595l0 -472M954 278l2 0M956 595l0 -518M956 336l1 0M957 595l0 -472M957 278l2 0M959 595l0 -472M959 278l1 0M960 538l0 -473M960 221l2 0M962 595l0 -530M962 336l1 0M963 607l0 -530M963 336l2 0"/>
<path stroke="blue" d="M965 549l0 -472M965 336l1 0M966 595l0 -472M966 278l2 0M968 595l0 -518M968 549l1 -472M969 595l0 -518M969 278l2 0M971 595l0 -472M971 278l1 0M972 351l0 -73M972 351l1 83M973 538l0 -473M973 221l1 0"/>
</svg>
