<?xml version="1.0" standalone="yes"?>
<!DOCTYPE svg PUBLIC "-//W3C//DTD SVG 1.1//EN"
 "http://www.w3.org/Graphics/SVG/1.1/DTD/svg11.dtd">
<svg xmlns="http://www.w3.org/2000/svg" version="1.1"
  width="100%" height="100%" viewBox="0 0 1024 768"
  style="fill: none; stroke-width: 3; font-family: Helvetica;
 font: Helvetica;
">

<!-- Creator: NGspice -->

<rect x="0" y="0" width="1024" height="768" fill="white" stroke="none"/>
<text stroke="none" fill="black" font-size="16" x="358" y="752">
time
</text>
<text stroke="none" fill="black" font-size="16" x="10" y="16">
tran1: Even Parity Output
</text>
<path stroke="black" stroke-width="3" d="M50 704l0 -638"/>
<text stroke="none" fill="black" font-size="16" x="35" y="728">
0.0
</text>
<path stroke="black" stroke-width="3" stroke-dasharray="1,2" d="M204 704l0 -638"/>
<text stroke="none" fill="black" font-size="16" x="189" y="728">
0.5
</text>
<path stroke="black" stroke-width="3" stroke-dasharray="1,2" d="M358 704l0 -638"/>
<text stroke="none" fill="black" font-size="16" x="343" y="728">
1.0
</text>
<path stroke="black" stroke-width="3" stroke-dasharray="1,2" d="M512 704l0 -638"/>
<text stroke="none" fill="black" font-size="16" x="497" y="728">
1.5
</text>
<path stroke="black" stroke-width="3" stroke-dasharray="1,2" d="M666 704l0 -638"/>
<text stroke="none" fill="black" font-size="16" x="651" y="728">
2.0
</text>
<path stroke="black" stroke-width="3" stroke-dasharray="1,2" d="M820 704l0 -638"/>
<text stroke="none" fill="black" font-size="16" x="805" y="728">
2.5
</text>
<path stroke="black" stroke-width="3" stroke-dasharray="1,2" d="M974 704l0 -638"/>
<text stroke="none" fill="black" font-size="16" x="959" y="728">
3.0
</text>
<text stroke="none" fill="black" font-size="16" x="614" y="752">
us
</text>
<path stroke="black" stroke-width="3" stroke-dasharray="1,2" d="M50 704l924 0"/>
<text stroke="none" fill="black" font-size="16" x="8" y="712">
-0.2
</text>
<path stroke="black" stroke-width="3" d="M50 646l924 0"/>
<text stroke="none" fill="black" font-size="16" x="18" y="654">
0.0
</text>
<path stroke="black" stroke-width="3" stroke-dasharray="1,2" d="M50 588l924 0"/>
<text stroke="none" fill="black" font-size="16" x="18" y="596">
0.2
</text>
<path stroke="black" stroke-width="3" stroke-dasharray="1,2" d="M50 530l924 0"/>
<text stroke="none" fill="black" font-size="16" x="18" y="538">
0.4
</text>
<path stroke="black" stroke-width="3" stroke-dasharray="1,2" d="M50 472l924 0"/>
<text stroke="none" fill="black" font-size="16" x="18" y="480">
0.6
</text>
<path stroke="black" stroke-width="3" stroke-dasharray="1,2" d="M50 414l924 0"/>
<text stroke="none" fill="black" font-size="16" x="18" y="422">
0.8
</text>
<path stroke="black" stroke-width="3" stroke-dasharray="1,2" d="M50 356l924 0"/>
<text stroke="none" fill="black" font-size="16" x="18" y="364">
1.0
</text>
<path stroke="black" stroke-width="3" stroke-dasharray="1,2" d="M50 298l924 0"/>
<text stroke="none" fill="black" font-size="16" x="18" y="306">
1.2
</text>
<path stroke="black" stroke-width="3" stroke-dasharray="1,2" d="M50 240l924 0"/>
<text stroke="none" fill="black" font-size="16" x="18" y="248">
1.4
</text>
<path stroke="black" stroke-width="3" stroke-dasharray="1,2" d="M50 182l924 0"/>
<text stroke="none" fill="black" font-size="16" x="18" y="190">
1.6
</text>
<path stroke="black" stroke-width="3" stroke-dasharray="1,2" d="M50 124l924 0"/>
<text stroke="none" fill="black" font-size="16" x="18" y="132">
1.8
</text>
<path stroke="black" stroke-width="3" stroke-dasharray="1,2" d="M50 66l924 0"/>
<text stroke="none" fill="black" font-size="16" x="18" y="74">
2.0
</text>
<text stroke="none" fill="black" font-size="16" x="10" y="32">
V
</text>
<path stroke="red" d="M462 23l46 0"/>
<text stroke="none" fill="black" font-size="16" x="518" y="32">
v(out_parity)
</text>
<path stroke="red" d="M50 646l0 -521 1 0M51 646l0 -528M51 646l1 0M52 655l0 -562M52 655l1 2 0 -541M53 138l1 -3 0 -11 1 0M55 646l0 -522M55 646l2 0 0 -528M57 124l1 0M58 646l0 -545M58 646l2 0M60 650l0 -8M60 646l1 0 0 -522 2 0M63 646l0 -546M63 124l1 0"/>
<path stroke="red" d="M64 646l0 -545M64 646l2 0M66 650l0 -8M66 646l1 0 0 -522 2 0M69 650l0 -550M69 646l1 0 0 -522 2 0M72 244l0 -128M72 124l1 0M73 646l0 -522M73 646l2 0 0 -528M75 646l1 0 0 -561M76 646l2 0M78 650l0 -7M78 646l1 0M79 650l0 -526 2 0"/>
<path stroke="red" d="M81 651l0 -566M81 643l1 2M82 656l0 -529 1 0 0 -3 1 0M84 136l0 -35M84 124l1 0 0 -45 1 0M86 647l0 -568M86 646l1 0M87 661l0 -537 1 0M88 650l0 -570M88 646l1 0M89 656l0 -532 1 0M90 136l0 -35M90 124l2 0M92 647l0 -568M92 646l1 0"/>
<path stroke="red" d="M93 661l0 -431 1 -46 0 -83M94 124l1 0M95 646l0 -561M95 646l2 0M97 650l0 -7M97 646l1 0M98 650l0 -526 2 0M100 651l0 -566M100 646l1 0M101 653l0 -538M101 646l2 0M103 650l0 -7M103 646l1 0M104 650l0 -526 2 0M106 651l0 -566M106 646l1 0"/>
<path stroke="red" d="M107 656l0 -532 2 0M109 136l0 -35M109 124l1 0M110 647l0 -568M110 646l2 0M112 661l0 -581M112 646l1 0M113 656l0 -532 2 0M115 136l0 -35M115 124l1 0M116 647l0 -568M116 646l2 0M118 661l0 -560M118 126l1 -1M119 646l0 -561M119 646l2 0"/>
<path stroke="red" d="M121 650l0 -7M121 646l1 0M122 650l0 -499 1 -8 0 -19 1 0M124 646l0 -561M124 646l1 0M125 656l0 -566M125 646l1 0 0 -522 1 0M127 244l0 -128M127 124l2 0M129 646l0 -522M129 646l1 0 0 -467 1 -14M131 303l0 -185M131 124l1 0M132 646l0 -545"/>
<path stroke="red" d="M132 646l2 0M134 650l0 -8M134 646l1 0 0 -522 2 0M137 646l0 -546M137 124l1 0M138 646l0 -545M138 646l2 0M140 650l0 -8M140 646l1 0 0 -522 2 0M143 650l0 -550M143 646l1 0 0 -522 2 0M146 244l0 -128M146 124l1 0M147 646l0 -522M147 646l2 0"/>
<path stroke="red" d="M149 646l0 -528M149 646l1 0M150 654l0 -536M150 644l1 1M151 646l0 -1M151 646l1 0M152 650l0 -7M152 646l1 0M153 650l0 -526 2 0M155 651l0 -566M155 646l1 0M156 656l0 -532 2 0M158 137l0 -36M158 124l1 0M159 647l0 -568M159 646l2 0"/>
<path stroke="red" d="M161 661l0 -537 1 0M162 656l0 -576M162 656l1 -13 0 -519 1 0M164 137l0 -36M164 124l2 0M166 647l0 -568M166 646l1 0M167 661l0 -536 1 0M168 140l0 -40M168 124l1 0M169 646l0 -561M169 646l1 0M170 650l0 -7 1 1M171 646l0 -2M171 646l1 0"/>
<path stroke="red" d="M172 650l0 -526 2 0M174 653l0 -568M174 210l1 4M175 646l0 -522 2 0M177 244l0 -128M177 124l1 0M178 647l0 -523M178 646l2 0 0 -528M180 124l1 0M181 647l0 -546M181 646l2 0M183 650l0 -7M183 646l1 0 0 -522 2 0M186 646l0 -545M186 250l1 3"/>
<path stroke="red" d="M187 647l0 -546M187 646l2 0M189 650l0 -7M189 646l1 0 0 -522 2 0M192 650l0 -549M192 646l1 0 0 -522 2 0M195 244l0 -128M195 124l1 0M196 647l0 -523M196 646l2 0 0 -528M198 221l1 36M199 656l0 -538M199 285l1 -48 0 -113 1 0M201 244l0 -128"/>
<path stroke="red" d="M201 124l1 0M202 125l0 -1M202 125l1 9M203 647l0 -513M203 646l1 0 0 -521 1 0M205 303l0 -185M205 124l1 0M206 647l0 -546M206 646l1 0M207 650l0 -7M207 646l2 0 0 -522 1 0 0 -12 1 -2M211 646l0 -545M211 124l1 0M212 647l0 -546M212 646l2 0"/>
<path stroke="red" d="M214 650l0 -7M214 646l1 0 0 -522 2 0M217 650l0 -549M217 646l1 0 0 -522 2 0M220 244l0 -128M220 124l1 0M221 647l0 -523M221 646l2 0M223 647l0 -529M223 180l1 -15M224 646l0 -561M224 646l2 0M226 650l0 -7M226 646l1 0M227 650l0 -526"/>
<path stroke="red" d="M227 124l2 0M229 651l0 -566M229 646l1 0M230 656l0 -532 2 0M232 137l0 -36M232 124l1 0M233 647l0 -568M233 646l2 0M235 661l0 -581M235 643l1 3M236 656l0 -529 1 -1 0 -2 1 0M238 137l0 -36M238 124l1 0M239 125l0 -46 1 0M240 647l0 -568"/>
<path stroke="red" d="M240 646l1 0M241 661l0 -537 1 0M242 140l0 -40M242 124l1 0M243 646l0 -561M243 646l1 0M244 650l0 -7M244 646l2 0M246 650l0 -526 1 0M247 134l0 -49M247 134l1 242M248 653l0 -563M248 125l1 0M249 653l0 -569M249 646l2 0M251 650l0 -7"/>
<path stroke="red" d="M251 646l1 0M252 650l0 -526 2 0M254 651l0 -566M254 646l1 0M255 656l0 -532 2 0M257 137l0 -36M257 124l1 0M258 647l0 -568M258 646l2 0M260 661l0 -581M260 646l1 0M261 656l0 -532 2 0M263 137l0 -36M263 124l1 0M264 647l0 -568M264 646l2 0"/>
<path stroke="red" d="M266 661l0 -561M266 124l1 0M267 646l0 -561M267 646l2 0M269 650l0 -7M269 646l1 0M270 650l0 -526 2 0M272 651l0 -566M272 129l1 -1M273 653l0 -563M273 127l1 -1 0 -2 1 0M275 244l0 -128M275 124l1 0M276 646l0 -522M276 646l1 -4M277 647l0 -5"/>
<path stroke="red" d="M277 646l1 0 0 -522 1 0M279 303l0 -185M279 124l1 0M280 647l0 -546M280 646l1 0M281 650l0 -7M281 646l2 0 0 -522 1 0M284 646l0 -545M284 646l1 0 0 -531M285 124l1 0M286 647l0 -546M286 646l2 0M288 650l0 -7M288 646l1 0 0 -522 2 0"/>
<path stroke="red" d="M291 650l0 -549M291 646l1 0 0 -522 2 0M294 244l0 -128M294 124l1 0M295 647l0 -523M295 646l2 0M297 647l0 -529M297 125l1 0M298 656l0 -538M298 124l2 0M300 244l0 -128M300 124l1 0M301 647l0 -523M301 646l2 0 0 -528M303 124l1 0"/>
<path stroke="red" d="M304 647l0 -546M304 646l2 0M306 650l0 -7M306 646l1 0 0 -522 2 0M309 646l0 -545M309 126l1 0M310 647l0 -546M310 646l2 0M312 650l0 -7M312 646l1 0 0 -511 1 -3 0 -8 1 0M315 646l0 -545M315 646l1 0M316 650l0 -8 1 1 0 -519 1 0M318 244l0 -128"/>
<path stroke="red" d="M318 124l2 0M320 647l0 -523M320 646l1 0 0 -515 1 -2M322 647l0 -529M322 124l1 0M323 646l0 -561M323 646l1 0M324 650l0 -7 1 1M325 646l0 -2M325 646l1 0M326 650l0 -526 2 0M328 651l0 -566M328 646l1 0M329 656l0 -532 2 0M331 137l0 -36"/>
<path stroke="red" d="M331 124l1 0M332 647l0 -568M332 646l2 0M334 661l0 -581M334 646l1 0M335 656l0 -532 2 0M337 137l0 -36M337 124l1 0M338 647l0 -568M338 646l2 0M340 661l0 -561M340 124l1 0M341 646l0 -561M341 646l2 0M343 650l0 -7M343 646l1 0M344 650l0 -526"/>
<path stroke="red" d="M344 124l2 0M346 651l0 -566M346 124l1 0M347 653l0 -563M347 124l1 0M348 145l0 -48M348 124l1 0M349 244l0 -128M349 124l1 0M350 647l0 -523M350 646l2 0 0 -528M352 223l1 38M353 630l0 -529M353 630l1 16M354 647l0 -5M354 646l1 0"/>
<path stroke="red" d="M355 650l0 -7M355 646l2 0 0 -522 1 0M358 646l0 -545M358 646l1 0 0 -531M359 124l1 0M360 647l0 -546M360 646l1 0M361 650l0 -7M361 646l2 0 0 -522 1 0 0 -12 1 -2M365 650l0 -549M365 646l1 0 0 -522 2 0M368 244l0 -128M368 124l1 0"/>
<path stroke="red" d="M369 647l0 -523M369 646l2 0 0 -528M371 124l1 0M372 646l0 -561M372 646l2 0M374 650l0 -7M374 646l1 0M375 650l0 -526 2 0M377 651l0 -566M377 646l1 0M378 656l0 -532 2 0M380 136l0 -35M380 124l1 0M381 647l0 -568M381 646l2 0M383 661l0 -581"/>
<path stroke="red" d="M383 646l1 0M384 656l0 -532 2 0M386 136l0 -35M386 124l1 0M387 647l0 -568M387 646l2 0M389 661l0 -560M389 136l1 -3M390 646l0 -561M390 646l2 0M392 650l0 -7M392 646l1 0M393 650l0 -14 1 -109 0 -403 1 0M395 646l0 -561M395 646l1 0"/>
<path stroke="red" d="M396 653l0 -563M396 124l1 0M397 646l0 -531M397 646l1 0M398 650l0 -7M398 646l2 0M400 650l0 -526 1 0M401 138l0 -53M401 138l1 247M402 651l0 -266M402 646l1 0M403 656l0 -532 2 0M405 136l0 -35M405 124l1 0M406 647l0 -568M406 646l2 0"/>
<path stroke="red" d="M408 661l0 -581M408 646l1 0M409 656l0 -532 2 0M411 136l0 -35M411 124l1 0M412 647l0 -568M412 646l2 0M414 661l0 -560M414 124l1 0M415 646l0 -561M415 646l2 0M417 650l0 -7M417 646l1 0M418 650l0 -526 2 0M420 651l0 -566M420 124l1 0"/>
<path stroke="red" d="M421 656l0 -566M421 124l2 0M423 244l0 -128M423 124l1 0M424 647l0 -523M424 646l2 0 0 -528M426 139l1 -4M427 647l0 -546M427 646l2 0M429 650l0 -7M429 646l1 0 0 -430 1 -24 0 -68 1 0M432 646l0 -545M432 646l1 0 0 -531M433 124l1 0"/>
<path stroke="red" d="M434 647l0 -546M434 646l1 0M435 650l0 -7M435 646l2 0 0 -522 1 0M438 646l0 -545M438 646l1 0M439 650l0 -7M439 646l1 0 0 -522 1 0M441 132l0 -16M441 132l1 7M442 244l0 -120 1 0M443 647l0 -523M443 646l2 0 0 -528M445 136l1 26M446 653l0 -560"/>
<path stroke="red" d="M446 646l1 0M447 657l0 -533 1 0M448 244l0 -128M448 124l1 0M449 646l0 -522M449 646l2 0 0 -528M451 124l1 0M452 646l0 -545M452 646l2 0M454 650l0 -8M454 646l1 0 0 -522 2 0M457 646l0 -546M457 118l1 -3M458 646l0 -545M458 646l2 0"/>
<path stroke="red" d="M460 650l0 -8M460 646l1 0 0 -522 2 0M463 650l0 -550M463 646l1 0 0 -522 2 0M466 244l0 -128M466 124l1 0M467 646l0 -522M467 646l2 0 0 -522 1 -1M470 646l0 -545 1 -10M471 646l0 -561M471 646l1 0M472 650l0 -7M472 646l2 0M474 650l0 -526"/>
<path stroke="red" d="M474 124l1 0M475 646l0 -561M475 646l1 0M476 651l0 -29M476 646l1 0M477 656l0 -532 1 0M478 134l0 -33M478 134l1 2 0 -12 1 0M480 647l0 -568M480 646l2 0M482 661l0 -581M482 646l1 0M483 656l0 -532 2 0M485 136l0 -35M485 124l1 0"/>
<path stroke="red" d="M486 647l0 -568M486 646l2 0M488 661l0 -560M488 124l1 0M489 646l0 -561M489 646l2 0M491 650l0 -7M491 646l1 0M492 650l0 -526 2 0M494 651l0 -566M494 90l1 43M495 653l0 -538M495 646l2 0M497 650l0 -7M497 646l1 0M498 650l0 -526"/>
<path stroke="red" d="M498 124l2 0M500 651l0 -566M500 646l1 0M501 656l0 -532 2 0M503 136l0 -35M503 124l1 0M504 647l0 -568M504 646l2 0M506 661l0 -554 1 -19M507 656l0 -576M507 158l1 -9 0 -25 1 0M509 136l0 -35M509 124l2 0M511 647l0 -568M511 646l1 0"/>
<path stroke="red" d="M512 661l0 -537 1 0M513 139l0 -38M513 124l1 0M514 646l0 -561M514 646l1 0M515 650l0 -7M515 646l2 0M517 650l0 -526 1 0 0 -1 1 1M519 656l0 -571M519 631l1 7M520 646l0 -522 2 0M522 244l0 -128M522 124l1 0M523 646l0 -522M523 646l2 0"/>
<path stroke="red" d="M525 646l0 -528M525 124l1 0M526 646l0 -545M526 646l2 0M528 650l0 -8M528 646l1 0 0 -522 2 0M531 646l0 -546M531 150l1 -7M532 646l0 -545M532 646l2 0M534 650l0 -8M534 646l1 0 0 -522 2 0M537 650l0 -550M537 646l1 0 0 -522 2 0"/>
<path stroke="red" d="M540 244l0 -128M540 124l1 0M541 646l0 -522M541 646l2 0 0 -528M543 616l1 17M544 647l0 -529M544 646l1 0M545 654l0 -31M545 646l1 0M546 650l0 -7M546 646l1 0M547 650l0 -13 1 -89 0 -424 1 0M549 646l0 -561M549 646l1 0M550 651l0 -29"/>
<path stroke="red" d="M550 646l1 0M551 656l0 -532 1 0M552 137l0 -36M552 124l2 0M554 647l0 -568M554 646l1 0M555 661l0 -430 1 -46M556 650l0 -570M556 646l1 0M557 656l0 -532 2 0M559 137l0 -36M559 124l1 0M560 647l0 -568M560 646l2 0M562 661l0 -561"/>
<path stroke="red" d="M562 124l1 0M563 646l0 -561M563 646l2 0M565 650l0 -7M565 646l1 0M566 650l0 -526 2 0M568 651l0 -566M568 646l1 0M569 653l0 -529 2 0M571 244l0 -128M571 124l1 0M572 647l0 -523M572 646l2 0 0 -528M574 124l1 0M575 647l0 -546M575 646l2 0"/>
<path stroke="red" d="M577 650l0 -7M577 646l1 0 0 -522 2 0M580 646l0 -545M580 143l1 -5M581 647l0 -546M581 646l2 0M583 650l0 -7M583 646l1 0 0 -430 1 -24 0 -68 1 0M586 646l0 -545M586 646l1 0M587 650l0 -7M587 646l1 0 0 -522 1 0M589 244l0 -128M589 124l2 0"/>
<path stroke="red" d="M591 647l0 -523M591 646l1 0 0 -467 1 -14M593 647l0 -529M593 646l1 0M594 656l0 -532 1 0M595 132l0 -16M595 132l1 7M596 244l0 -120 1 0M597 647l0 -523M597 646l2 0 0 -528M599 124l1 0M600 647l0 -546M600 646l2 0M602 650l0 -7M602 646l1 0"/>
<path stroke="red" d="M603 646l0 -522 2 0M605 646l0 -545M605 124l1 0M606 647l0 -546M606 646l2 0M608 650l0 -7M608 646l1 0 0 -522 2 0M611 650l0 -549M611 646l1 0 0 -522 2 0M614 244l0 -128M614 124l1 0M615 647l0 -523M615 646l2 0M617 647l0 -529M617 646l1 0"/>
<path stroke="red" d="M618 646l0 -561M618 646l2 0M620 650l0 -7M620 646l1 0M621 650l0 -523 1 -1 0 -2 1 0M623 646l0 -561M623 646l1 0M624 656l0 -34M624 656l1 -13 0 -519 1 0M626 137l0 -36M626 124l2 0M628 647l0 -568M628 646l1 0M629 661l0 -536 1 0"/>
<path stroke="red" d="M630 650l0 -570M630 646l1 0M631 656l0 -532 1 0M632 134l0 -33M632 134l1 3 0 -13 1 0M634 647l0 -568M634 646l2 0M636 661l0 -561M636 124l1 0M637 646l0 -561M637 646l2 0M639 650l0 -7M639 646l1 0M640 650l0 -526 2 0M642 651l0 -566"/>
<path stroke="red" d="M642 646l1 0M643 653l0 -569M643 646l1 0M644 653l0 -13M644 646l1 0M645 650l0 -7M645 646l1 0M646 650l0 -526 2 0M648 651l0 -566M648 646l1 0M649 656l0 -532 2 0M651 137l0 -36M651 124l1 0M652 647l0 -568M652 646l2 0M654 661l0 -581"/>
<path stroke="red" d="M654 646l1 0M655 656l0 -532 2 0M657 137l0 -36M657 124l1 0M658 647l0 -568M658 646l2 0M660 661l0 -549 1 -10M661 642l0 -557M661 642l1 2M662 646l0 -2M662 646l1 0M663 650l0 -7M663 646l1 0 1 1M665 650l0 -526 1 0M666 646l0 -561"/>
<path stroke="red" d="M666 646l1 0M667 653l0 -563M667 646l1 0 0 -522 1 0M669 244l0 -128M669 138l1 -3 0 -11 1 0M671 647l0 -523M671 646l2 0 0 -528M673 124l1 0M674 647l0 -546M674 646l2 0M676 650l0 -7M676 646l1 0 0 -522 2 0M679 646l0 -545M679 124l1 0"/>
<path stroke="red" d="M680 647l0 -546M680 646l2 0M682 650l0 -7M682 646l1 0 0 -522 2 0M685 650l0 -549M685 646l1 0 0 -522 2 0M688 244l0 -128M688 124l1 0M689 647l0 -523M689 646l2 0M691 647l0 -529M691 646l1 0M692 656l0 -538M692 124l2 0M694 244l0 -128"/>
<path stroke="red" d="M694 124l1 0M695 647l0 -523M695 646l2 0 0 -528M697 216l1 -24M698 647l0 -546M698 646l2 0M700 650l0 -7M700 646l1 0 0 -6M701 641l1 -5 0 -512 1 0M703 646l0 -545M703 646l1 0 0 -531M704 124l1 0M705 647l0 -546M705 646l1 0M706 650l0 -7"/>
<path stroke="red" d="M706 646l2 0 0 -522 1 0M709 440l0 -339M709 440l1 147M710 650l0 -63M710 646l1 0 0 -522 2 0M713 244l0 -128M713 124l1 0M714 647l0 -523M714 646l2 0M716 647l0 -529M716 124l1 0M717 646l0 -561M717 646l2 0M719 650l0 -7M719 646l1 0"/>
<path stroke="red" d="M720 650l0 -526 2 0M722 651l0 -566M722 646l1 0M723 656l0 -532 2 0M725 137l0 -36M725 124l1 0M726 647l0 -568M726 646l2 0M728 661l0 -581M728 646l1 0M729 656l0 -532 2 0M731 137l0 -36M731 124l1 0M732 647l0 -568M732 646l2 0M734 661l0 -561"/>
<path stroke="red" d="M734 126l1 -1M735 646l0 -561M735 646l2 0M737 650l0 -7M737 646l1 0M738 650l0 -499 1 -8 0 -19 1 0M740 646l0 -561M740 646l1 0M741 653l0 -563M741 102l1 -4M742 640l0 -543M742 124l1 0M743 244l0 -128M743 124l2 0M745 647l0 -523"/>
<path stroke="red" d="M745 646l1 0 0 -467 1 -14M747 303l0 -185M747 124l1 0M748 647l0 -546M748 646l2 0M750 650l0 -7M750 646l1 0 0 -522 2 0M753 646l0 -545M753 124l1 0M754 647l0 -546M754 646l2 0M756 650l0 -7M756 646l1 0 0 -522 2 0M759 650l0 -549"/>
<path stroke="red" d="M759 646l1 0 0 -522 2 0M762 244l0 -128M762 124l1 0M763 647l0 -523M763 646l2 0 0 -528M765 646l1 0 0 -561M766 646l2 0M768 650l0 -7M768 646l1 0M769 650l0 -526 2 0M771 651l0 -566M771 646l1 0M772 656l0 -532 2 0M774 136l0 -35"/>
<path stroke="red" d="M774 124l1 0M775 647l0 -568M775 646l2 0M777 661l0 -537 1 0M778 656l0 -576M778 656l1 -13 0 -519 1 0M780 136l0 -35M780 124l2 0M782 647l0 -568M782 646l1 0M783 661l0 -536 1 0M784 139l0 -38M784 124l1 0M785 646l0 -561M785 646l1 0"/>
<path stroke="red" d="M786 650l0 -7 1 1M787 646l0 -2M787 646l1 0M788 650l0 -526 2 0M790 653l0 -568M790 232l1 -49M791 646l0 -531M791 646l2 0M793 650l0 -7M793 646l1 0M794 650l0 -526 2 0M796 651l0 -566M796 646l1 0M797 656l0 -532 2 0M799 136l0 -35"/>
<path stroke="red" d="M799 124l1 0M800 647l0 -568M800 646l2 0M802 661l0 -581M802 647l1 -3M803 656l0 -532 2 0M805 136l0 -35M805 124l1 0M806 647l0 -568M806 646l2 0M808 661l0 -560M808 124l1 0M809 646l0 -561M809 646l2 0M811 650l0 -7M811 646l1 0M812 650l0 -526"/>
<path stroke="red" d="M812 124l2 0M814 651l0 -566M814 651l1 -2M815 656l0 -566M815 284l1 -48 0 -112 1 0M817 244l0 -128M817 124l1 0M818 125l0 -1M818 125l1 9M819 647l0 -513M819 646l1 0 0 -521 1 0M821 303l0 -185M821 124l1 0M822 647l0 -546M822 646l1 0"/>
<path stroke="red" d="M823 650l0 -7M823 646l2 0 0 -522 1 0 0 -12 1 -2M827 646l0 -545M827 124l1 0M828 647l0 -546M828 646l2 0M830 650l0 -7M830 646l1 0 0 -522 2 0M833 650l0 -549M833 646l1 0 0 -522 2 0M836 244l0 -128M836 124l1 0M837 647l0 -523M837 646l2 0"/>
<path stroke="red" d="M839 646l0 -528M839 180l1 -15M840 653l0 -535M840 125l1 0M841 657l0 -564M841 124l1 0M842 244l0 -128M842 124l1 0M843 646l0 -522M843 646l2 0 0 -528M845 124l1 0M846 646l0 -545M846 646l2 0M848 650l0 -8M848 646l1 0 0 -522 2 0"/>
<path stroke="red" d="M851 646l0 -546M851 239l1 -30M852 646l0 -545M852 646l2 0M854 650l0 -8M854 646l1 0 0 -6 1 -5 0 -511 1 0M857 646l0 -546M857 646l1 0M858 650l0 -8M858 646l1 0 0 -522 1 0M860 244l0 -128M860 126l1 -1 0 -1 1 0M862 646l0 -522M862 646l1 0"/>
<path stroke="red" d="M863 646l0 -59 1 -132M864 646l0 -528M864 137l1 -4M865 646l0 -561M865 646l2 0M867 650l0 -7M867 646l1 0M868 650l0 -526 2 0M870 651l0 -566M870 646l1 0M871 656l0 -532 2 0M873 136l0 -35M873 124l1 0M874 647l0 -568M874 646l2 0"/>
<path stroke="red" d="M876 661l0 -581M876 646l1 0M877 656l0 -532 2 0M879 136l0 -35M879 124l1 0M880 647l0 -568M880 646l2 0M882 661l0 -560M882 124l1 0M883 646l0 -561M883 646l2 0M885 650l0 -7M885 646l1 0M886 650l0 -526 2 0M888 651l0 -566M888 130l1 -2"/>
<path stroke="red" d="M889 653l0 -563M889 646l2 0M891 650l0 -7M891 646l1 0M892 650l0 -496 1 -8 0 -22 1 0M894 646l0 -561M894 646l1 0M895 651l0 -29M895 646l1 0M896 656l0 -532 1 0M897 136l0 -35M897 124l2 0M899 647l0 -568M899 646l1 0M900 661l0 -525"/>
<path stroke="red" d="M900 136l1 -3M901 650l0 -570M901 646l1 0M902 656l0 -532 1 0M903 125l0 -1M903 125l1 1M904 136l0 -35M904 124l1 0M905 647l0 -568M905 646l2 0M907 661l0 -560M907 124l1 0M908 646l0 -561M908 646l2 0M910 650l0 -7M910 646l1 0M911 650l0 -526"/>
<path stroke="red" d="M911 124l2 0M913 651l0 -566M913 646l1 0M914 656l0 -532 2 0M916 244l0 -128M916 124l1 0M917 646l0 -522M917 646l2 0 0 -528M919 124l1 0M920 646l0 -545M920 646l2 0M922 650l0 -8M922 646l1 0 0 -522 2 0M925 646l0 -546M925 126l1 0"/>
<path stroke="red" d="M926 646l0 -545M926 646l2 0M928 650l0 -8M928 646l1 0 0 -511 1 -3 0 -8 1 0M931 646l0 -546M931 646l1 0M932 650l0 -8 1 0 0 -518 1 0M934 244l0 -128M934 124l2 0M936 646l0 -522M936 646l1 0 0 -515 1 -2M938 646l0 -528M938 646l1 0"/>
<path stroke="red" d="M939 654l0 -406M939 646l1 0M940 650l0 -7 1 1M941 646l0 -2M941 646l1 0M942 650l0 -526 2 0M944 651l0 -566M944 646l1 0M945 656l0 -532 2 0M947 137l0 -36M947 124l1 0M948 647l0 -568M948 646l2 0M950 661l0 -581M950 646l1 0M951 656l0 -532"/>
<path stroke="red" d="M951 124l2 0M953 137l0 -36M953 124l1 0M954 647l0 -568M954 646l2 0M956 661l0 -561M956 124l1 0M957 646l0 -561M957 646l2 0M959 650l0 -7M959 646l1 0M960 650l0 -526 2 0M962 651l0 -566M962 124l1 0M963 653l0 -563M963 124l2 0M965 244l0 -128"/>
<path stroke="red" d="M965 124l1 0M966 647l0 -523M966 646l2 0 0 -528M968 223l1 38M969 631l0 -530M969 631l1 16 0 -5M970 646l1 0M971 650l0 -7M971 646l2 0 0 -522 1 0"/>
</svg>
