<?xml version="1.0" standalone="yes"?>
<!DOCTYPE svg PUBLIC "-//W3C//DTD SVG 1.1//EN"
 "http://www.w3.org/Graphics/SVG/1.1/DTD/svg11.dtd">
<svg xmlns="http://www.w3.org/2000/svg" version="1.1"
  width="100%" height="100%" viewBox="0 0 1024 768"
  style="fill: none; stroke-width: 3; font-family: Helvetica;
 font: Helvetica;
">

<!-- Creator: NGspice -->

<rect x="0" y="0" width="1024" height="768" fill="white" stroke="none"/>
<text stroke="none" fill="black" font-size="16" x="358" y="752">
time
</text>
<text stroke="none" fill="black" font-size="16" x="10" y="16">
tran1: Total Supply Current
</text>
<path stroke="black" stroke-width="3" d="M70 704l0 -640"/>
<text stroke="none" fill="black" font-size="16" x="55" y="728">
0.0
</text>
<path stroke="black" stroke-width="3" stroke-dasharray="1,2" d="M217 704l0 -640"/>
<text stroke="none" fill="black" font-size="16" x="202" y="728">
0.5
</text>
<path stroke="black" stroke-width="3" stroke-dasharray="1,2" d="M364 704l0 -640"/>
<text stroke="none" fill="black" font-size="16" x="349" y="728">
1.0
</text>
<path stroke="black" stroke-width="3" stroke-dasharray="1,2" d="M511 704l0 -640"/>
<text stroke="none" fill="black" font-size="16" x="496" y="728">
1.5
</text>
<path stroke="black" stroke-width="3" stroke-dasharray="1,2" d="M658 704l0 -640"/>
<text stroke="none" fill="black" font-size="16" x="643" y="728">
2.0
</text>
<path stroke="black" stroke-width="3" stroke-dasharray="1,2" d="M805 704l0 -640"/>
<text stroke="none" fill="black" font-size="16" x="790" y="728">
2.5
</text>
<path stroke="black" stroke-width="3" stroke-dasharray="1,2" d="M952 704l0 -640"/>
<text stroke="none" fill="black" font-size="16" x="937" y="728">
3.0
</text>
<text stroke="none" fill="black" font-size="16" x="614" y="752">
us
</text>
<path stroke="black" stroke-width="3" stroke-dasharray="1,2" d="M70 704l882 0"/>
<text stroke="none" fill="black" font-size="16" x="8" y="712">
-400.0
</text>
<path stroke="black" stroke-width="3" stroke-dasharray="1,2" d="M70 640l882 0"/>
<text stroke="none" fill="black" font-size="16" x="8" y="648">
-300.0
</text>
<path stroke="black" stroke-width="3" stroke-dasharray="1,2" d="M70 576l882 0"/>
<text stroke="none" fill="black" font-size="16" x="8" y="584">
-200.0
</text>
<path stroke="black" stroke-width="3" stroke-dasharray="1,2" d="M70 512l882 0"/>
<text stroke="none" fill="black" font-size="16" x="8" y="520">
-100.0
</text>
<path stroke="black" stroke-width="3" d="M70 448l882 0"/>
<text stroke="none" fill="black" font-size="16" x="38" y="456">
0.0
</text>
<path stroke="black" stroke-width="3" stroke-dasharray="1,2" d="M70 384l882 0"/>
<text stroke="none" fill="black" font-size="16" x="18" y="392">
100.0
</text>
<path stroke="black" stroke-width="3" stroke-dasharray="1,2" d="M70 320l882 0"/>
<text stroke="none" fill="black" font-size="16" x="18" y="328">
200.0
</text>
<path stroke="black" stroke-width="3" stroke-dasharray="1,2" d="M70 256l882 0"/>
<text stroke="none" fill="black" font-size="16" x="18" y="264">
300.0
</text>
<path stroke="black" stroke-width="3" stroke-dasharray="1,2" d="M70 192l882 0"/>
<text stroke="none" fill="black" font-size="16" x="18" y="200">
400.0
</text>
<path stroke="black" stroke-width="3" stroke-dasharray="1,2" d="M70 128l882 0"/>
<text stroke="none" fill="black" font-size="16" x="18" y="136">
500.0
</text>
<path stroke="black" stroke-width="3" stroke-dasharray="1,2" d="M70 64l882 0"/>
<text stroke="none" fill="black" font-size="16" x="18" y="72">
600.0
</text>
<text stroke="none" fill="black" font-size="16" x="10" y="32">
uA
</text>
<path stroke="red" d="M441 23l44 0"/>
<text stroke="none" fill="black" font-size="16" x="495" y="32">
-i(v_supply)
</text>
<path stroke="red" d="M70 644l0 -197M70 449l1 -2M71 645l0 -359M71 541l1 -22M72 625l0 -317M72 449l1 0M73 499l0 -196M73 448l1 0 0 -243M74 334l1 10M75 465l0 -121M75 459l1 -22M76 646l0 -352M76 296l1 6M77 496l0 -240M77 450l1 -4M78 450l0 -4M78 450l1 -4"/>
<path stroke="red" d="M79 508l0 -201M79 448l1 0M80 498l0 -282M80 445l1 6 0 -6M81 449l1 -2M82 637l0 -342M82 445l1 8M83 502l0 -205M83 450l1 -4M84 450l0 -4M84 450l1 -4M85 507l0 -200M85 448l1 0M86 498l0 -282M86 446l1 4 0 -4M87 449l1 -2M88 636l0 -402"/>
<path stroke="red" d="M88 448l1 0M89 545l0 -144M89 438l1 20 0 -19M90 444l1 8M91 499l0 -194M91 448l1 0M92 455l0 -250M92 455l1 -14M93 456l0 -16M93 456l1 -16M94 645l0 -357M94 468l1 -14M95 542l0 -253M95 452l1 -8M96 452l0 -8M96 450l1 -4M97 506l0 -202"/>
<path stroke="red" d="M97 448l1 0M98 457l0 -249M98 449l1 -2M99 453l0 -10M99 453l1 -10M100 646l0 -389M100 448l1 0M101 468l0 -160M101 444l1 8 0 -8M102 445l1 6M103 503l0 -196M103 448l1 0M104 482l0 -266M104 458l1 -19M105 457l0 -18M105 451l1 -6M106 636l0 -340"/>
<path stroke="red" d="M106 448l1 0M107 468l0 -160M107 452l1 -8M108 452l0 -8M108 451l1 -6M109 502l0 -195M109 448l1 0M110 482l0 -265M110 440l1 16M111 636l0 -251 1 -33M112 485l0 -254M112 448l1 0M113 540l0 -139M113 444l1 8M114 506l0 -201M114 451l1 -1"/>
<path stroke="red" d="M115 450l0 -2 1 0M116 463l0 -254M116 445l1 6M117 644l0 -248M117 462l1 -28M118 643l0 -367M118 444l1 8M119 569l0 -311M119 447l1 2M120 506l0 -202M120 448l1 0 0 -146 1 -43M122 457l0 -249M122 451l1 -6M123 646l0 -250M123 435l1 26"/>
<path stroke="red" d="M124 496l0 -239M124 456l1 7 0 -20M125 445l1 6M126 503l0 -196M126 448l1 0M127 482l0 -266M127 465l1 -34M128 465l0 -34M128 453l1 -10M129 636l0 -326M129 454l1 -9M130 510l0 -214M130 443l1 10 0 -10M131 445l1 6M132 502l0 -195M132 448l1 0"/>
<path stroke="red" d="M133 482l0 -265M133 463l1 -30M134 463l0 -30M134 453l1 -10M135 636l0 -405M135 448l1 0M136 540l0 -139M136 442l1 12 0 -12M137 445l1 6M138 506l0 -201M138 448l1 0M139 463l0 -254M139 447l1 2M140 453l0 -10 1 10M141 644l0 -368M141 434l1 -33"/>
<path stroke="red" d="M142 547l0 -430M142 439l1 18 0 -18M143 445l1 6M144 499l0 -196M144 448l1 0M145 465l0 -260M145 434l1 28 0 -28M146 438l1 20M147 646l0 -390M147 448l1 0M148 450l0 -142M148 450l1 -4M149 450l0 -4M149 450l1 -4M150 508l0 -201M150 448l1 0"/>
<path stroke="red" d="M151 498l0 -282M151 449l1 -2M152 449l0 -3 1 4M153 637l0 -342M153 448l1 0M154 450l0 -142M154 446l1 4 0 -4 1 4M156 507l0 -200M156 448l1 0M157 498l0 -282M157 448l1 0M158 496l0 -50M158 496l1 2M159 636l0 -402M159 449l1 -2M160 545l0 -144"/>
<path stroke="red" d="M160 454l1 -12M161 499l0 -194M161 486l1 -8 0 -30 1 0M163 456l0 -251M163 456l1 -16M164 644l0 -205M164 458l1 -5M165 645l0 -357M165 442l1 12M166 645l0 -382M166 448l1 0M167 507l0 -203M167 448l2 0M169 456l0 -248M169 445l1 6M170 646l0 -250"/>
<path stroke="red" d="M170 461l1 -26M171 496l0 -239M171 404l1 -35M172 469l0 -161M172 451l1 -6M173 502l0 -195M173 448l1 0M174 483l0 -267M174 436l1 31 0 -35M175 443l1 10M176 636l0 -327M176 422l1 58M177 510l0 -214M177 453l1 -10M178 453l0 -10M178 451l1 -6"/>
<path stroke="red" d="M179 502l0 -195M179 448l1 0M180 482l0 -265M180 463l1 -30M181 463l0 -30M181 453l1 -10M182 636l0 -405M182 448l1 0M183 541l0 -140M183 454l1 -12M184 454l0 -12M184 451l1 -6M185 506l0 -201M185 448l1 0M186 463l0 -254M186 449l1 -2"/>
<path stroke="red" d="M187 453l0 -10M187 453l1 -10M188 644l0 -369M188 485l1 -14M189 644l0 -367M189 457l1 -18M190 457l0 -18M190 451l1 -6M191 498l0 -193M191 448l1 0M192 466l0 -261M192 463l1 -29M193 462l0 -28M193 458l1 -20M194 646l0 -390M194 447l1 2"/>
<path stroke="red" d="M195 451l0 -145M195 451l1 -6M196 451l0 -6M196 450l1 -4M197 508l0 -201M197 448l1 0M198 495l0 -279M198 447l1 2 0 -2M199 449l1 -2M200 636l0 -344M200 448l1 0M201 451l0 -145M201 451l1 -6M202 451l0 -6M202 450l1 -4M203 507l0 -200"/>
<path stroke="red" d="M203 448l1 0M204 495l0 -279M204 448l1 0M205 450l0 -4M205 450l1 -4M206 636l0 -401M206 447l1 2M207 544l0 -143M207 442l1 12M208 494l0 -74 1 -56M209 497l0 -191M209 448l1 0M210 456l0 -250M210 456l1 -16M211 644l0 -205M211 484l1 -6"/>
<path stroke="red" d="M212 644l0 -359M212 442l1 12M213 534l0 -268M213 454l1 -12M214 498l0 -193M214 449l1 0 0 -1 1 0M216 466l0 -261M216 460l1 -24M217 646l0 -210M217 449l1 -2M218 495l0 -239M218 406l1 0M219 451l0 -145M219 446l1 4M220 508l0 -201"/>
<path stroke="red" d="M220 448l1 0M221 464l0 -248M221 464l1 22M222 495l0 -49M222 447l1 2M223 636l0 -344M223 331l1 -9M224 500l0 -202M224 451l1 -6M225 451l0 -6M225 450l1 -4M226 507l0 -200M226 448l1 0M227 495l0 -279M227 446l1 5 0 -6M228 449l1 -2"/>
<path stroke="red" d="M229 636l0 -401M229 448l1 0M230 544l0 -143M230 437l1 22 0 -21M231 444l1 8M232 497l0 -191M232 448l1 0M233 455l0 -249M233 441l1 14M234 456l0 -16 1 16M235 644l0 -359M235 439l1 18M236 644l0 -549M236 443l1 10 0 -10M237 445l1 6"/>
<path stroke="red" d="M238 506l0 -202M238 448l1 0M239 456l0 -248M239 448l1 -1M240 453l0 -10M240 453l1 -10M241 646l0 -389M241 448l1 0M242 469l0 -161M242 444l1 8 0 -8M243 445l1 6M244 502l0 -195M244 448l1 0M245 482l0 -266M245 459l1 -22M246 458l0 -21"/>
<path stroke="red" d="M246 451l1 -6M247 636l0 -340M247 448l1 0M248 469l0 -161M248 444l1 8 0 -8M249 445l1 6M250 502l0 -195M250 448l1 0M251 482l0 -265M251 457l1 -18M252 457l0 -18M252 450l1 -4M253 636l0 -405M253 448l1 0M254 541l0 -140M254 443l1 10"/>
<path stroke="red" d="M255 453l0 -10M255 446l1 4M256 506l0 -201M256 448l1 0M257 463l0 -254M257 445l1 6M258 644l0 -202M258 499l1 30M259 644l0 -369M259 444l1 8M260 638l0 -345M260 448l1 0M261 506l0 -202M261 451l1 -1 0 -2 1 0M263 456l0 -248M263 445l1 6"/>
<path stroke="red" d="M264 646l0 -250M264 462l1 -28M265 496l0 -239M265 448l1 0M266 469l0 -161M266 451l1 -6M267 502l0 -195M267 448l1 0M268 449l0 -125 1 -43M269 483l0 -267M269 454l1 -12M270 636l0 -327M270 430l1 36M271 510l0 -214M271 457l1 6 0 -20"/>
<path stroke="red" d="M272 445l1 6M273 502l0 -195M273 448l1 0M274 482l0 -265M274 465l1 -33M275 464l0 -32M275 453l1 -10M276 636l0 -405M276 449l1 0M277 541l0 -140M277 455l1 -14M278 455l0 -14M278 451l1 -6M279 506l0 -201M279 448l1 0M280 463l0 -254"/>
<path stroke="red" d="M280 448l1 0M281 453l0 -10M281 453l1 -10M282 644l0 -369M282 440l1 16M283 644l0 -367M283 438l1 20 0 -20M284 444l1 7M285 498l0 -193M285 448l1 0M286 466l0 -261M286 433l1 30 0 -30M287 438l1 20M288 646l0 -390M288 449l1 -2M289 451l0 -145"/>
<path stroke="red" d="M289 451l1 -6M290 451l0 -6M290 450l1 -4M291 508l0 -201M291 448l1 0M292 495l0 -279M292 447l1 2 0 -2M293 449l1 -2M294 636l0 -344M294 448l1 0M295 451l0 -145M295 451l1 -6M296 451l0 -6M296 450l1 -4M297 507l0 -200M297 448l1 0"/>
<path stroke="red" d="M298 495l0 -279M298 449l1 -2M299 450l0 -4 1 4M300 636l0 -401M300 448l1 0M301 544l0 -143M301 455l1 -14M302 455l0 -14M302 450l1 -4M303 497l0 -191M303 448l1 0M304 456l0 -250M304 456l1 -16M305 496l0 -57M305 496l1 2M306 644l0 -359"/>
<path stroke="red" d="M306 441l1 13M307 534l0 -268M307 454l1 -12M308 498l0 -193M308 485l1 -8 0 -29 1 0M310 466l0 -261M310 460l1 -24M311 646l0 -210M311 458l1 -4M312 495l0 -239M312 448l1 0M313 451l0 -145M313 450l1 -4M314 508l0 -201M314 448l1 0"/>
<path stroke="red" d="M315 449l0 -2 1 2M316 495l0 -279M316 448l1 0M317 636l0 -344M317 450l1 -4M318 500l0 -202M318 408l1 -39M319 451l0 -145M319 450l1 -4M320 507l0 -200M320 448l1 0M321 495l0 -279M321 459l1 3 0 -17M322 449l1 -2M323 636l0 -401M323 371l1 46"/>
<path stroke="red" d="M324 544l0 -143M324 438l1 22 0 -23M325 444l1 8M326 497l0 -191M326 448l1 0M327 455l0 -249M327 455l1 -14M328 456l0 -16M328 456l1 -16M329 644l0 -359M329 458l1 -20M330 644l0 -549M330 453l1 -10M331 453l0 -10M331 451l1 -6M332 506l0 -202"/>
<path stroke="red" d="M332 448l1 0M333 456l0 -248M333 448l1 0M334 453l0 -10M334 453l1 -10M335 646l0 -389M335 448l1 0M336 469l0 -161M336 443l1 10 0 -10M337 445l1 6M338 502l0 -195M338 448l1 0M339 483l0 -267M339 460l1 -24M340 460l0 -24M340 451l1 -6"/>
<path stroke="red" d="M341 636l0 -340M341 448l1 0M342 469l0 -160M342 452l1 -8M343 452l0 -8M343 451l1 -6M344 502l0 -195M344 448l1 0M345 482l0 -265M345 438l1 20 0 -20M346 445l1 6M347 636l0 -405M347 448l1 0M348 540l0 -139M348 443l1 10 0 -10M349 445l1 6"/>
<path stroke="red" d="M350 506l0 -201M350 448l1 0M351 462l0 -253M351 445l1 6M352 454l0 -12 1 12M353 644l0 -369M353 449l1 9M354 638l0 -415M354 448l1 0M355 494l0 -75 1 -57M356 498l0 -194M356 448l1 0M357 465l0 -260M357 460l1 -24M358 646l0 -210M358 485l1 -7"/>
<path stroke="red" d="M359 495l0 -239M359 448l1 0M360 451l0 -143M360 446l1 4M361 508l0 -201M361 448l1 0M362 449l0 -2M362 449l1 -2M363 497l0 -281M363 448l1 0M364 636l0 -342M364 447l1 2M365 501l0 -204M365 406l1 0M366 451l0 -143M366 446l1 4M367 507l0 -200"/>
<path stroke="red" d="M367 448l1 0M368 464l0 -248M368 463l1 23M369 497l0 -52M369 447l1 2M370 636l0 -378 1 -18M371 545l0 -310M371 444l1 22 0 -29M372 443l1 10M373 498l0 -193M373 448l1 0M374 454l0 -249M374 442l1 12M375 456l0 -16 1 16M376 644l0 -357"/>
<path stroke="red" d="M376 438l1 20M377 645l0 -358M377 443l1 10 0 -10M378 445l1 6M379 506l0 -202M379 448l1 0M380 457l0 -249M380 449l1 -2M381 452l0 -8 1 8M382 646l0 -389M382 448l1 0M383 468l0 -160M383 453l1 -10M384 453l0 -10M384 451l1 -6M385 503l0 -196"/>
<path stroke="red" d="M385 448l1 0M386 482l0 -266M386 460l1 -24M387 460l0 -24M387 452l1 -8M388 636l0 -340M388 452l1 -1M389 468l0 -160M389 444l1 8 0 -8M390 445l1 6M391 502l0 -195M391 448l1 0M392 482l0 -265M392 459l1 -22M393 459l0 -22M393 451l1 -6"/>
<path stroke="red" d="M394 636l0 -405M394 448l1 0M395 540l0 -139M395 453l1 -10M396 453l0 -10M396 451l1 -6M397 506l0 -201M397 448l1 0M398 463l0 -254M398 450l1 -4M399 454l0 -12M399 454l1 -12M400 644l0 -368M400 352l1 -2M401 569l0 -310M401 447l1 2"/>
<path stroke="red" d="M402 449l0 -2 1 2M403 506l0 -202M403 448l1 0M404 457l0 -249M404 446l1 4M405 646l0 -203M405 498l1 32 0 -273M406 448l1 0M407 468l0 -159M407 452l1 -8M408 503l0 -196M408 450l1 -2M409 449l0 -1 1 0M410 482l0 -266M410 441l1 14"/>
<path stroke="red" d="M411 636l0 -326M411 468l1 -39M412 510l0 -214M412 448l1 0M413 468l0 -159M413 452l1 -8M414 502l0 -195M414 448l1 0 0 -124 1 -43M416 482l0 -265M416 454l1 -12M417 636l0 -326M417 430l1 36M418 540l0 -308M418 484l1 -20M419 469l0 -28"/>
<path stroke="red" d="M419 452l1 -8M420 506l0 -201M420 448l1 0M421 463l0 -254M421 447l1 3M422 452l0 -8M422 452l1 -8M423 644l0 -368M423 441l1 20M424 643l0 -526M424 459l1 -22M425 459l0 -22M425 452l1 -8M426 498l0 -194M426 448l1 0M427 465l0 -260"/>
<path stroke="red" d="M427 464l1 -32M428 464l0 -32M428 458l1 -20M429 646l0 -390M429 447l1 2M430 451l0 -143M430 451l1 -6M431 451l0 -6M431 450l1 -4M432 508l0 -201M432 448l1 0M433 497l0 -281M433 446l1 4 0 -4M434 449l1 -2M435 636l0 -342M435 484l1 -1"/>
<path stroke="red" d="M436 501l0 -193M436 451l1 -6M437 451l0 -6M437 450l1 -4M438 507l0 -200M438 448l1 0M439 497l0 -281M439 447l1 2 0 -2M440 449l1 -2M441 636l0 -401M441 448l1 0M442 545l0 -144M442 440l1 16 0 -16M443 445l1 6M444 498l0 -193M444 448l1 0"/>
<path stroke="red" d="M445 455l0 -250M445 455l1 -14M446 457l0 -18M446 457l1 -18M447 645l0 -359M447 465l1 -2M448 644l0 -336M448 452l1 -8M449 466l0 -128M449 448l1 0M450 499l0 -196M450 448l1 0M451 465l0 -260M451 460l1 -24M452 496l0 -60M452 496l1 2"/>
<path stroke="red" d="M453 646l0 -390M453 448l1 0M454 450l0 -142M454 446l1 4M455 508l0 -201M455 428l1 -6M456 449l0 -27M456 448l1 0M457 498l0 -282M457 448l1 0M458 637l0 -342M458 448l1 -1M459 502l0 -205M459 448l1 0M460 450l0 -142M460 450l1 -4M461 507l0 -200"/>
<path stroke="red" d="M461 448l1 0M462 449l0 -2 1 2M463 498l0 -282M463 448l1 0M464 636l0 -341M464 449l1 -2M465 477l0 -243M465 477l1 68 0 -108M466 443l1 10M467 499l0 -194M467 448l1 0M468 451l0 -246M468 442l1 11M469 456l0 -16 1 16M470 644l0 -356"/>
<path stroke="red" d="M470 341l1 71M471 645l0 -356M471 443l1 11 0 -11M472 445l1 6M473 506l0 -202M473 448l1 0M474 457l0 -249M474 446l1 3M475 452l0 -8M475 452l1 -8M476 646l0 -389M476 448l1 0M477 468l0 -160M477 443l1 10 0 -10M478 445l1 6M479 503l0 -196"/>
<path stroke="red" d="M479 448l1 0M480 482l0 -266M480 462l1 -28M481 461l0 -27M481 452l1 -8M482 636l0 -326M482 478l1 -37M483 510l0 -214M483 443l1 10 0 -10M484 445l1 6M485 502l0 -195M485 448l1 0M486 482l0 -265M486 460l1 -24M487 460l0 -24M487 452l1 -8"/>
<path stroke="red" d="M488 636l0 -405M488 448l1 0M489 540l0 -139M489 443l1 10 0 -10M490 445l1 6M491 506l0 -201M491 448l1 0M492 463l0 -254M492 446l1 4M493 454l0 -12 1 12M494 644l0 -368M494 456l1 -16M495 569l0 -311M495 447l1 2 0 -2 1 2M497 506l0 -202"/>
<path stroke="red" d="M497 448l1 0M498 457l0 -249M498 446l1 4M499 453l0 -10 1 10M500 646l0 -389M500 448l1 0M501 468l0 -159M501 452l1 -8M502 493l0 -75 1 -54M503 503l0 -196M503 448l1 0M504 482l0 -266M504 456l1 -16M505 636l0 -326M505 440l1 38M506 510l0 -214"/>
<path stroke="red" d="M506 448l1 0M507 468l0 -159M507 444l1 8M508 502l0 -195M508 448l2 0M510 482l0 -265M510 455l1 -14M511 636l0 -326M511 429l1 38 0 -236M512 406l1 0M513 540l0 -139M513 452l1 -8M514 506l0 -201M514 448l1 0 0 -239M515 375l1 76M516 463l0 -19"/>
<path stroke="red" d="M516 452l1 -8M517 644l0 -306M517 340l1 0M518 643l0 -526M518 444l1 21 0 -28M519 444l1 8M520 499l0 -196M520 448l1 0M521 465l0 -260M521 431l1 33 0 -32M522 437l1 21M523 646l0 -390M523 450l1 -2M524 450l0 -142M524 450l1 -4M525 450l0 -4"/>
<path stroke="red" d="M525 450l1 -4M526 508l0 -201M526 448l1 0M527 498l0 -282M527 446l1 4 0 -4M528 449l1 -2M529 637l0 -342M529 445l1 6M530 502l0 -205M530 450l1 -4M531 450l0 -4M531 450l1 -4M532 507l0 -200M532 448l1 0M533 498l0 -282M533 450l1 -4"/>
<path stroke="red" d="M534 450l0 -4M534 447l1 2M535 636l0 -402M535 448l1 0M536 545l0 -144M536 457l1 -18M537 456l0 -17M537 451l1 -6M538 499l0 -194M538 448l1 0M539 455l0 -250M539 455l1 -14M540 456l0 -16M540 456l1 -16M541 645l0 -357M541 453l1 -10"/>
<path stroke="red" d="M542 645l0 -382M542 448l2 0M544 507l0 -203M544 448l1 0M545 456l0 -248M545 450l1 -4M546 453l0 -10M546 453l1 -10M547 646l0 -389M547 448l1 0M548 469l0 -161M548 452l1 -8M549 452l0 -8M549 451l1 -6M550 502l0 -195M550 448l1 0M551 483l0 -267"/>
<path stroke="red" d="M551 440l1 16M552 636l0 -252 1 -32M553 510l0 -214M553 448l1 0M554 469l0 -161M554 452l1 -8M555 502l0 -195M555 450l1 -1 0 -1 1 0M557 482l0 -265M557 441l1 14M558 636l0 -327M558 467l1 -38M559 467l0 -236M559 447l1 2M560 541l0 -140"/>
<path stroke="red" d="M560 444l1 8M561 506l0 -201M561 448l1 0 0 -146 1 -43M563 463l0 -254M563 452l1 -8M564 644l0 -248M564 435l1 26M565 644l0 -369M565 496l1 -26M566 487l0 -50M566 453l1 -9M567 498l0 -193M567 448l1 0M568 466l0 -261M568 466l1 -35"/>
<path stroke="red" d="M569 465l0 -34M569 459l1 -22M570 646l0 -390M570 455l1 0 0 -149M571 445l1 6 0 -6M572 446l1 4M573 508l0 -201M573 448l1 0M574 495l0 -279M574 450l1 -4M575 450l0 -4M575 447l1 2M576 636l0 -344M576 451l1 -6M577 500l0 -202M577 451l1 -6"/>
<path stroke="red" d="M578 451l0 -6M578 450l1 -4M579 507l0 -200M579 448l1 0M580 495l0 -279M580 446l1 4 0 -4M581 449l1 -2M582 636l0 -401M582 448l1 0M583 544l0 -143M583 439l1 18 0 -18M584 445l1 6M585 497l0 -191M585 448l1 0M586 455l0 -249M586 441l1 14"/>
<path stroke="red" d="M587 457l0 -18 1 18M588 644l0 -359M588 443l1 10M589 534l0 -268M589 441l1 14 0 -14M590 445l1 6M591 498l0 -193M591 448l1 0M592 466l0 -261M592 461l1 -26M593 461l0 -26M593 457l1 -18M594 646l0 -390M594 448l1 0M595 451l0 -145"/>
<path stroke="red" d="M595 446l1 4 0 -4 1 4M597 508l0 -201M597 448l1 0M598 495l0 -279M598 448l1 0M599 496l0 -50M599 496l1 2M600 636l0 -344M600 448l1 0M601 451l0 -145M601 446l1 4M602 507l0 -200M602 430l1 -7M603 449l0 -26M603 448l1 0M604 495l0 -279"/>
<path stroke="red" d="M604 448l1 0M605 636l0 -344M605 448l1 0M606 467l0 -232M606 449l1 -2M607 544l0 -143M607 443l1 10M608 497l0 -191M608 448l2 0M610 456l0 -250M610 440l1 16M611 644l0 -205M611 447l1 2M612 644l0 -549M612 475l1 67 0 -132M613 445l1 6"/>
<path stroke="red" d="M614 506l0 -202M614 448l1 0M615 456l0 -248M615 454l1 -5M616 452l0 -8 1 8M617 646l0 -389M617 495l1 -7 0 -180M618 453l1 -10M619 453l0 -10M619 451l1 -6M620 502l0 -195M620 448l1 0M621 482l0 -266M621 463l1 -30M622 463l0 -30M622 453l1 -10"/>
<path stroke="red" d="M623 636l0 -327M623 452l1 -8M624 510l0 -214M624 443l1 10 0 -10M625 445l1 6M626 502l0 -195M626 448l1 0M627 482l0 -265M627 461l1 -26M628 461l0 -26M628 452l1 -8M629 636l0 -405M629 448l1 0M630 541l0 -140M630 454l1 -12M631 454l0 -12"/>
<path stroke="red" d="M631 451l1 -6M632 506l0 -201M632 448l1 0M633 463l0 -254M633 450l1 -4M634 454l0 -12M634 454l1 -12M635 644l0 -369M635 439l1 18M636 638l0 -345M636 446l1 4M637 510l0 -209M637 448l1 0M638 506l0 -202M638 448l1 0M639 456l0 -248"/>
<path stroke="red" d="M639 447l1 2M640 453l0 -10 1 10M641 646l0 -389M641 448l1 0M642 469l0 -161M642 452l1 -8M643 452l0 -8M643 451l1 -6M644 502l0 -195M644 448l1 0M645 483l0 -267M645 439l1 18 0 -18M646 446l1 4M647 636l0 -340M647 448l1 0M648 469l0 -161"/>
<path stroke="red" d="M648 452l1 -8M649 493l0 -75 1 -54M650 502l0 -195M650 448l1 0M651 482l0 -265M651 456l1 -16M652 636l0 -327M652 440l1 38 0 -247M653 448l1 0M654 541l0 -140M654 452l1 -8M655 506l0 -201M655 448l2 0M657 463l0 -254M657 452l1 -8"/>
<path stroke="red" d="M658 644l0 -248M658 435l1 26M659 644l0 -369M659 406l1 0M660 546l0 -144M660 453l1 -10M661 498l0 -193M661 448l1 0 0 -243M662 328l1 0M663 466l0 -138M663 459l1 -22M664 646l0 -350M664 298l1 6M665 495l0 -239M665 451l1 -6M666 451l0 -6"/>
<path stroke="red" d="M666 450l1 -4M667 508l0 -201M667 448l1 0M668 495l0 -279M668 446l1 5 0 -5M669 449l1 -2M670 636l0 -344M670 446l1 7M671 500l0 -202M671 451l1 -6M672 451l0 -6M672 450l1 -4M673 507l0 -200M673 448l1 0M674 495l0 -279M674 446l1 4"/>
<path stroke="red" d="M675 450l0 -4M675 449l1 -2M676 636l0 -401M676 448l1 0M677 544l0 -143M677 439l1 18 0 -18M678 445l1 6M679 497l0 -191M679 448l1 0M680 455l0 -249M680 455l1 -14M681 457l0 -18M681 457l1 -18M682 644l0 -359M682 469l1 -14M683 534l0 -268"/>
<path stroke="red" d="M683 456l1 -16M684 456l0 -16M684 451l1 -6M685 498l0 -193M685 448l1 0M686 466l0 -261M686 462l1 -28M687 462l0 -28M687 457l1 -18M688 646l0 -390M688 448l1 0M689 451l0 -145M689 445l1 6 0 -6M690 446l1 4M691 508l0 -201M691 448l1 0"/>
<path stroke="red" d="M692 495l0 -279M692 449l1 -2M693 450l0 -4 1 4M694 636l0 -344M694 448l1 0M695 451l0 -145M695 450l1 -4M696 450l0 -4M696 450l1 -4M697 507l0 -200M697 448l1 0M698 495l0 -279M698 448l1 0M699 636l0 -248 1 -35M700 467l0 -232M700 447l1 2"/>
<path stroke="red" d="M701 544l0 -143M701 442l1 12M702 497l0 -191M702 454l1 -2 0 -4 1 0M704 456l0 -250M704 440l1 16M705 644l0 -205M705 448l1 2M706 644l0 -549M706 445l1 6M707 542l0 -140M707 445l1 6M708 506l0 -202M708 448l1 0 0 -146 1 -43M710 456l0 -248"/>
<path stroke="red" d="M710 452l1 -8M711 646l0 -250M711 435l1 26M712 496l0 -239M712 457l1 6 0 -20M713 445l1 6M714 502l0 -195M714 448l1 0M715 483l0 -267M715 465l1 -33M716 464l0 -32M716 453l1 -10M717 636l0 -327M717 454l1 -8M718 510l0 -214M718 443l1 10"/>
<path stroke="red" d="M719 453l0 -10M719 445l1 6M720 502l0 -195M720 448l1 0M721 482l0 -265M721 463l1 -30M722 462l0 -29M722 452l1 -8M723 636l0 -405M723 448l1 0M724 540l0 -139M724 442l1 12 0 -12M725 445l1 6M726 506l0 -201M726 448l1 0M727 462l0 -253"/>
<path stroke="red" d="M727 447l1 2M728 454l0 -12 1 12M729 644l0 -369M729 434l1 -33M730 638l0 -415M730 449l1 -2M731 449l0 -2M731 448l1 0M732 498l0 -194M732 448l1 0M733 465l0 -260M733 434l1 28 0 -28M734 438l1 20M735 646l0 -390M735 448l1 0M736 451l0 -143"/>
<path stroke="red" d="M736 450l1 -4M737 450l0 -4M737 450l1 -4M738 508l0 -201M738 448l1 0M739 497l0 -281M739 449l1 -2M740 450l0 -4 1 4M741 636l0 -342M741 448l1 0M742 451l0 -143M742 446l1 4 0 -4 1 4M744 507l0 -200M744 448l1 0M745 497l0 -281M745 448l1 0"/>
<path stroke="red" d="M746 496l0 -50M746 496l1 2M747 636l0 -401M747 449l1 -2M748 545l0 -144M748 454l1 -12M749 498l0 -193M749 485l1 -7 0 -30 1 0M751 456l0 -251M751 456l1 -16M752 644l0 -205M752 458l1 -5M753 645l0 -358M753 444l1 8M754 542l0 -140"/>
<path stroke="red" d="M754 445l1 6M755 506l0 -202M755 448l2 0M757 457l0 -249M757 445l1 6M758 646l0 -250M758 461l1 -26M759 496l0 -239M759 404l1 -35M760 468l0 -160M760 451l1 -6M761 503l0 -196M761 448l1 0M762 482l0 -266M762 436l1 31 0 -35M763 442l1 12"/>
<path stroke="red" d="M764 636l0 -326M764 422l1 57M765 510l0 -214M765 454l1 -11M766 454l0 -11M766 451l1 -6M767 502l0 -195M767 448l1 0M768 482l0 -265M768 463l1 -30M769 463l0 -30M769 453l1 -10M770 636l0 -405M770 448l1 0M771 540l0 -139M771 454l1 -12"/>
<path stroke="red" d="M772 454l0 -12M772 451l1 -6M773 506l0 -201M773 448l1 0M774 463l0 -254M774 448l1 0M775 453l0 -10M775 453l1 -10M776 644l0 -368M776 485l1 -14M777 643l0 -384M777 449l1 -2M778 449l0 -2M778 449l1 -2M779 506l0 -202M779 448l1 0"/>
<path stroke="red" d="M780 457l0 -249M780 448l1 0M781 453l0 -10M781 453l1 -10M782 646l0 -389M782 448l1 0M783 468l0 -159M783 452l1 -8M784 452l0 -8M784 451l1 -6M785 503l0 -196M785 448l1 0M786 482l0 -266M786 438l1 20 0 -20M787 445l1 6M788 636l0 -340"/>
<path stroke="red" d="M788 448l1 0M789 468l0 -159M789 452l1 -8M790 452l0 -8M790 451l1 -6M791 502l0 -195M791 448l1 0M792 482l0 -265M792 439l1 18 0 -18M793 446l1 4M794 636l0 -404M794 448l1 0M795 540l0 -139M795 443l1 10M796 494l0 -74 1 -56M797 506l0 -201"/>
<path stroke="red" d="M797 448l1 0M798 463l0 -254M798 451l1 -6M799 644l0 -248M799 465l1 15M800 643l0 -526M800 449l1 -2M801 546l0 -144M801 454l1 -12M802 498l0 -194M802 448l1 1 0 -1 1 0M804 465l0 -260M804 460l1 -24M805 646l0 -210M805 449l1 -2M806 495l0 -239"/>
<path stroke="red" d="M806 406l1 0M807 451l0 -143M807 446l1 4M808 508l0 -201M808 448l1 0M809 464l0 -248M809 463l1 23M810 497l0 -51M810 447l1 2M811 636l0 -342M811 331l1 -9M812 501l0 -204M812 451l1 -6M813 451l0 -6M813 450l1 -4M814 507l0 -200M814 448l1 0"/>
<path stroke="red" d="M815 497l0 -281M815 446l1 5 0 -5M816 449l1 -2M817 636l0 -401M817 448l1 0M818 545l0 -144M818 437l1 22 0 -21M819 444l1 8M820 498l0 -193M820 448l1 0M821 455l0 -250M821 441l1 14M822 456l0 -16 1 16M823 644l0 -358M823 439l1 18"/>
<path stroke="red" d="M824 645l0 -337M824 459l1 -1M825 625l0 -287M825 448l1 0M826 499l0 -196M826 448l1 0M827 465l0 -260M827 462l1 -28M828 462l0 -28M828 458l1 -20M829 646l0 -390M829 447l1 2M830 450l0 -142M830 446l1 4 0 -4 1 4M832 508l0 -201M832 448l1 0"/>
<path stroke="red" d="M833 498l0 -282M833 449l1 -2M834 449l0 -2 1 2M835 637l0 -342M835 448l1 0M836 450l0 -142M836 446l1 4 0 -4 1 4M838 507l0 -200M838 448l1 0M839 498l0 -282M839 449l1 -2M840 450l0 -4 1 4M841 636l0 -402M841 449l1 -2M842 545l0 -144"/>
<path stroke="red" d="M842 441l1 14 0 -14M843 446l1 4M844 499l0 -194M844 448l1 0M845 455l0 -250M845 441l1 14M846 644l0 -205M846 502l1 33M847 645l0 -357M847 454l1 -9M848 542l0 -140M848 444l1 8M849 506l0 -202M849 451l1 -1 0 -2 1 0M851 457l0 -249"/>
<path stroke="red" d="M851 445l1 6M852 646l0 -250M852 462l1 -28M853 496l0 -239M853 448l1 0M854 468l0 -160M854 452l1 -8M855 503l0 -196M855 448l1 0 0 -124 1 -43M857 482l0 -266M857 454l1 -12M858 636l0 -326M858 430l1 36M859 510l0 -214M859 456l1 7"/>
<path stroke="red" d="M860 463l0 -20M860 445l1 6M861 502l0 -195M861 448l1 0M862 482l0 -265M862 465l1 -34M863 465l0 -34M863 453l1 -10M864 636l0 -405M864 449l1 0M865 540l0 -139M865 455l1 -14M866 455l0 -14M866 451l1 -6M867 506l0 -201M867 448l1 0"/>
<path stroke="red" d="M868 463l0 -254M868 448l1 0M869 453l0 -10M869 453l1 -10M870 644l0 -368M870 439l1 18M871 643l0 -385M871 447l1 2 0 -2 1 2M873 506l0 -202M873 448l1 0M874 457l0 -249M874 448l1 0M875 452l0 -8 1 8M876 646l0 -389M876 448l1 0M877 468l0 -159"/>
<path stroke="red" d="M877 453l1 -10M878 453l0 -10M878 451l1 -6M879 503l0 -196M879 448l1 0M880 482l0 -266M880 437l1 22 0 -22M881 445l1 6M882 636l0 -340M882 448l1 0M883 468l0 -159M883 452l1 -8M884 452l0 -8M884 451l1 -6M885 502l0 -195M885 448l1 0"/>
<path stroke="red" d="M886 482l0 -265M886 458l1 -20M887 458l0 -20M887 451l1 -6M888 636l0 -405M888 448l1 0M889 540l0 -139M889 453l1 -10M890 453l0 -10M890 451l1 -6M891 506l0 -201M891 448l1 0M892 463l0 -254M892 451l1 -6M893 496l0 -54M893 496l1 2"/>
<path stroke="red" d="M894 644l0 -527M894 448l1 -2M895 547l0 -145M895 454l1 -12M896 499l0 -196M896 486l1 -8 0 -30 1 0M898 465l0 -260M898 460l1 -24M899 646l0 -210M899 458l1 -5M900 496l0 -240M900 448l1 0M901 450l0 -142M901 450l1 -4M902 508l0 -201"/>
<path stroke="red" d="M902 448l1 0M903 449l0 -2 1 2M904 498l0 -282M904 448l1 0M905 637l0 -342M905 449l1 -2M906 502l0 -205M906 406l1 -42M907 450l0 -142M907 450l1 -4M908 507l0 -200M908 448l1 0M909 498l0 -282M909 458l1 4 0 -17M910 449l1 -2M911 636l0 -402"/>
<path stroke="red" d="M911 370l1 48M912 545l0 -144M912 438l1 22 0 -23M913 444l1 8M914 499l0 -194M914 448l1 0M915 454l0 -249M915 454l1 -12M916 456l0 -16M916 456l1 -16M917 644l0 -356M917 458l1 -20M918 645l0 -317M918 455l1 -39M919 501l0 -238M919 448l1 0"/>
<path stroke="red" d="M920 507l0 -203M920 448l1 0M921 456l0 -248M921 448l1 0M922 453l0 -10M922 453l1 -10M923 646l0 -389M923 448l1 0M924 469l0 -161M924 443l1 10 0 -10M925 445l1 6M926 502l0 -195M926 448l1 0M927 483l0 -267M927 460l1 -24M928 460l0 -24"/>
<path stroke="red" d="M928 451l1 -6M929 636l0 -340M929 448l1 0M930 469l0 -161M930 452l1 -8M931 452l0 -8M931 451l1 -6M932 502l0 -195M932 448l1 0M933 482l0 -265M933 438l1 20 0 -20M934 445l1 6M935 636l0 -405M935 448l1 0M936 541l0 -140M936 443l1 10"/>
<path stroke="red" d="M937 453l0 -10M937 445l1 6M938 506l0 -201M938 448l1 0M939 463l0 -254M939 445l1 6M940 454l0 -12 1 12M941 644l0 -369M941 358l1 40M942 546l0 -148M942 442l1 12M943 494l0 -74 1 -57M944 498l0 -193M944 448l1 0M945 466l0 -261M945 460l1 -24"/>
<path stroke="red" d="M946 646l0 -210M946 484l1 -6M947 495l0 -239M947 448l1 0M948 451l0 -145M948 446l1 4M949 508l0 -201M949 448l1 0M950 449l0 -2M950 449l1 -2M951 495l0 -279M951 448l1 0M952 449l0 -2"/>
</svg>
