<?xml version="1.0" standalone="yes"?>
<!DOCTYPE svg PUBLIC "-//W3C//DTD SVG 1.1//EN"
 "http://www.w3.org/Graphics/SVG/1.1/DTD/svg11.dtd">
<svg xmlns="http://www.w3.org/2000/svg" version="1.1"
  width="100%" height="100%" viewBox="0 0 1024 768"
  style="fill: none; stroke-width: 3; font-family: Helvetica;
 font: Helvetica;
">

<!-- Creator: NGspice -->

<rect x="0" y="0" width="1024" height="768" fill="white" stroke="none"/>
<text stroke="none" fill="black" font-size="16" x="358" y="752">
time
</text>
<text stroke="none" fill="black" font-size="16" x="10" y="16">
tran1: Cumulative Energy Consumption
</text>
<path stroke="black" stroke-width="3" d="M60 704l0 -639"/>
<text stroke="none" fill="black" font-size="16" x="45" y="728">
0.0
</text>
<path stroke="black" stroke-width="3" stroke-dasharray="1,2" d="M210 704l0 -639"/>
<text stroke="none" fill="black" font-size="16" x="195" y="728">
0.5
</text>
<path stroke="black" stroke-width="3" stroke-dasharray="1,2" d="M360 704l0 -639"/>
<text stroke="none" fill="black" font-size="16" x="345" y="728">
1.0
</text>
<path stroke="black" stroke-width="3" stroke-dasharray="1,2" d="M510 704l0 -639"/>
<text stroke="none" fill="black" font-size="16" x="495" y="728">
1.5
</text>
<path stroke="black" stroke-width="3" stroke-dasharray="1,2" d="M660 704l0 -639"/>
<text stroke="none" fill="black" font-size="16" x="645" y="728">
2.0
</text>
<path stroke="black" stroke-width="3" stroke-dasharray="1,2" d="M810 704l0 -639"/>
<text stroke="none" fill="black" font-size="16" x="795" y="728">
2.5
</text>
<path stroke="black" stroke-width="3" stroke-dasharray="1,2" d="M960 704l0 -639"/>
<text stroke="none" fill="black" font-size="16" x="945" y="728">
3.0
</text>
<text stroke="none" fill="black" font-size="16" x="614" y="752">
us
</text>
<path stroke="black" stroke-width="3" stroke-dasharray="1,2" d="M60 704l900 0"/>
<text stroke="none" fill="black" font-size="16" x="18" y="712">
-2.0
</text>
<path stroke="black" stroke-width="3" d="M60 633l900 0"/>
<text stroke="none" fill="black" font-size="16" x="28" y="641">
0.0
</text>
<path stroke="black" stroke-width="3" stroke-dasharray="1,2" d="M60 562l900 0"/>
<text stroke="none" fill="black" font-size="16" x="28" y="570">
2.0
</text>
<path stroke="black" stroke-width="3" stroke-dasharray="1,2" d="M60 491l900 0"/>
<text stroke="none" fill="black" font-size="16" x="28" y="499">
4.0
</text>
<path stroke="black" stroke-width="3" stroke-dasharray="1,2" d="M60 420l900 0"/>
<text stroke="none" fill="black" font-size="16" x="28" y="428">
6.0
</text>
<path stroke="black" stroke-width="3" stroke-dasharray="1,2" d="M60 349l900 0"/>
<text stroke="none" fill="black" font-size="16" x="28" y="357">
8.0
</text>
<path stroke="black" stroke-width="3" stroke-dasharray="1,2" d="M60 278l900 0"/>
<text stroke="none" fill="black" font-size="16" x="18" y="286">
10.0
</text>
<path stroke="black" stroke-width="3" stroke-dasharray="1,2" d="M60 207l900 0"/>
<text stroke="none" fill="black" font-size="16" x="18" y="215">
12.0
</text>
<path stroke="black" stroke-width="3" stroke-dasharray="1,2" d="M60 136l900 0"/>
<text stroke="none" fill="black" font-size="16" x="18" y="144">
14.0
</text>
<path stroke="black" stroke-width="3" stroke-dasharray="1,2" d="M60 65l900 0"/>
<text stroke="none" fill="black" font-size="16" x="18" y="73">
16.0
</text>
<text stroke="none" fill="black" font-size="16" x="10" y="32">
p     
</text>
<path stroke="red" d="M450 23l45 0"/>
<text stroke="none" fill="black" font-size="16" x="505" y="32">
total_energy
</text>
<path stroke="red" d="M60 635l0 -2M60 635l1 0 0 -3 1 0M62 634l0 -2M62 634l1 0 0 -1M63 634l2 0 0 -4 1 0M66 632l0 -2M66 632l1 0 0 -1 1 0 0 -2 1 0M69 630l0 -1 2 0 0 -2M71 628l1 0M72 629l0 -1 1 0 0 -1M73 628l1 0 0 -2 3 0 0 -2 1 0M78 625l0 -1 1 0"/>
<path stroke="red" d="M79 624l0 -2 1 0 0 -1M80 622l3 0 0 -3 1 0M84 621l0 -2M84 621l1 0 0 -3M85 619l4 0 0 -3 1 0M90 618l0 -2M90 618l1 0 0 -2 1 0 0 -1 1 0M93 616l0 -1 2 0 0 -2 1 0M96 614l0 -1M96 614l1 0 0 -1 1 0 0 -1 3 0 0 -2 1 0M102 611l0 -1 1 0"/>
<path stroke="red" d="M103 610l0 -2 1 0 0 -1M104 608l1 0 0 -1M105 608l2 0 0 -3 1 0M108 606l0 -1M108 606l1 0 0 -1 1 0 0 -1M110 605l1 0 0 -1M111 605l2 0 0 -3 1 0M114 603l0 -1M114 603l1 0 0 -1 1 0 0 -1 3 0 0 -2 1 0M120 600l0 -1 1 0 0 -1M121 599l1 0"/>
<path stroke="red" d="M122 599l0 -1 1 0 0 -1 2 0 0 -1 2 0 0 -3 2 0M129 594l0 -1M129 594l2 0 0 -3 1 0M132 592l0 -1M132 592l1 0 0 -4 1 0 0 -1M134 588l3 0 0 -3 1 0M138 587l0 -2M138 587l1 0 0 -2M139 586l1 0 0 -2 3 0 0 -2M143 583l1 0 0 -1 1 0 0 -1"/>
<path stroke="red" d="M145 582l1 0 0 -2 1 0M147 581l0 -1 2 0 0 -2M149 579l1 0M150 580l0 -1 1 0 0 -3 1 0M152 577l0 -1M152 577l1 0 0 -1M153 577l2 0 0 -3 1 0M156 575l0 -1M156 575l1 0 0 -2 1 0M158 575l0 -2M158 574l1 0 0 -1M159 574l2 0 0 -3 1 0M162 572l0 -1"/>
<path stroke="red" d="M162 572l1 0 0 -1 1 0 0 -1 3 0 0 -2 1 0M168 569l0 -1 1 0 0 -1M169 568l1 0 0 -2M170 567l1 0 0 -1 2 0 0 -2M173 565l2 0 0 -3 2 0M177 563l0 -1 2 0 0 -2 1 0M180 561l0 -1M180 561l1 0 0 -3 1 0M182 559l0 -1M182 559l1 0 0 -1M183 559l2 0"/>
<path stroke="red" d="M185 559l0 -4 1 0M186 557l0 -2M186 557l1 0 0 -1 1 0 0 -2 1 0M189 555l0 -1 2 0 0 -2M191 553l1 0M192 554l0 -1 1 0 0 -1M193 553l1 0 0 -2 3 0 0 -2 1 0M198 550l0 -1 1 0 0 -2 1 0 0 -1M200 547l3 0 0 -3 1 0M204 546l0 -2M204 546l1 0"/>
<path stroke="red" d="M205 546l0 -3 1 0M206 544l0 -1M206 544l1 0 0 -1M207 544l2 0 0 -3 1 0M210 542l0 -1M210 542l1 0 0 -1 1 0 0 -1 1 0 0 -1 2 0 0 -1 1 0M216 539l0 -1 1 0 0 -1M217 538l1 0 0 -2 3 0 0 -2M221 535l1 0 0 -1 1 0 0 -2 1 0 0 -1M224 532l3 0"/>
<path stroke="red" d="M227 532l0 -3 1 0M228 531l0 -2M228 531l1 0 0 -4M229 528l1 0 0 -1M230 528l1 0 0 -1M231 528l2 0 0 -3 1 0M234 526l0 -1M234 526l1 0 0 -1 1 0 0 -1 3 0 0 -2 1 0M240 523l0 -1 1 0 0 -1M241 522l1 0 0 -2 1 0M243 521l0 -1 2 0 0 -2"/>
<path stroke="red" d="M245 519l1 0 0 -1M246 519l1 0 0 -3 2 0M249 517l0 -1 2 0 0 -2 1 0M252 515l0 -1M252 515l1 0 0 -2 1 0M254 514l0 -1 3 0 0 -2 1 0M258 512l0 -1M258 512l1 0 0 -2M259 511l1 0 0 -2M260 510l1 0 0 -1 2 0 0 -2M263 508l2 0 0 -1 1 0 0 -1"/>
<path stroke="red" d="M266 506l3 0 0 -2 1 0M270 505l0 -1 1 0 0 -2 1 0 0 -1M272 502l3 0 0 -3 1 0M276 500l0 -1M276 500l1 0 0 -2 1 0 0 -1M278 498l3 0 0 -3 1 0M282 497l0 -2M282 497l1 0 0 -2M283 496l1 0 0 -2 3 0 0 -2M287 493l1 0 0 -1 1 0 0 -1M289 492l1 0"/>
<path stroke="red" d="M290 492l0 -2 1 0M291 491l0 -1 2 0 0 -2M293 489l1 0M294 490l0 -1 1 0 0 -3 1 0M296 487l0 -1M296 487l1 0 0 -1M297 487l2 0 0 -3 1 0M300 485l0 -1M300 485l1 0 0 -2 1 0 0 -1M302 483l3 0 0 -3 1 0M306 482l0 -2M306 482l1 0 0 -2M307 481l1 0"/>
<path stroke="red" d="M308 481l0 -2 3 0 0 -2M311 478l1 0 0 -1 2 0 0 -1 1 0 0 -1 2 0 0 -1 1 0M318 475l0 -1 1 0 0 -3 1 0M320 472l0 -1M320 472l1 0 0 -1M321 472l2 0 0 -3 1 0M324 470l0 -1M324 470l1 0 0 -3 4 0 0 -3M329 465l1 0M330 466l0 -1M330 466l1 0"/>
<path stroke="red" d="M331 466l0 -2M331 465l1 0 0 -2 1 0M333 464l0 -1 2 0 0 -2M335 462l2 0 0 -1 1 0 0 -1 3 0 0 -2 1 0M342 459l0 -1 1 0 0 -2 1 0 0 -1M344 456l1 0 0 -1M345 456l2 0 0 -3 1 0M348 454l0 -1M348 454l1 0 0 -1 1 0 0 -2 3 0 0 -3 1 0M354 450l0 -2"/>
<path stroke="red" d="M354 450l1 0 0 -2 1 0 0 -1 1 0 0 -1 2 0 0 -1 1 0M360 446l0 -1 1 0 0 -1M361 445l1 0 0 -2 3 0 0 -2M365 442l1 0M366 443l0 -2 1 0 0 -2 1 0M368 440l0 -1M368 440l1 0 0 -1M369 440l2 0 0 -4 1 0M372 438l0 -2M372 438l1 0 0 -2 2 0"/>
<path stroke="red" d="M375 437l0 -1 2 0 0 -2 1 0M378 435l0 -1M378 435l1 0 0 -2M379 434l1 0 0 -1 1 0 0 -1 2 0 0 -1 1 0M384 432l0 -1 1 0 0 -1 1 0 0 -1 3 0 0 -2 1 0M390 428l0 -1 1 0 0 -2 4 0 0 -3 1 0M396 424l0 -2M396 424l1 0 0 -2 1 0 0 -1M398 422l3 0"/>
<path stroke="red" d="M401 422l0 -3M401 420l1 0M402 421l0 -1M402 421l1 0 0 -2M403 420l1 0 0 -2 1 0M405 419l0 -1 2 0 0 -2M407 417l2 0 0 -1 1 0 0 -1 3 0 0 -2 1 0M414 414l0 -1 1 0 0 -2 1 0 0 -1M416 411l1 0 0 -1M417 411l2 0 0 -3 1 0M420 409l0 -1"/>
<path stroke="red" d="M420 409l1 0 0 -4 2 0M423 406l0 -1M423 406l2 0 0 -4 1 0M426 404l0 -2M426 404l1 0 0 -2M427 403l1 0 0 -2 3 0 0 -2M431 400l1 0M432 401l0 -2 1 0M433 400l0 -1 1 0 0 -1 1 0 0 -1 2 0 0 -1 1 0M438 397l0 -1 1 0 0 -3 1 0M440 394l0 -1"/>
<path stroke="red" d="M440 394l3 0 0 -3 1 0M444 393l0 -2M444 393l1 0 0 -3 1 0M446 392l0 -2M446 391l1 0M447 392l0 -1M447 392l2 0 0 -4 1 0M450 390l0 -2M450 390l1 0 0 -2M451 389l1 0 0 -2 3 0 0 -2M455 386l1 0M456 387l0 -2 1 0M457 386l0 -1 1 0 0 -1"/>
<path stroke="red" d="M458 384l1 0 0 -1 2 0 0 -1 1 0M462 383l0 -1 1 0 0 -3 1 0M464 380l0 -1M464 380l3 0 0 -3 1 0M468 379l0 -2M468 379l1 0 0 -3M469 377l1 0 0 -1M470 377l3 0 0 -3 1 0M474 375l0 -1M474 375l1 0M475 376l0 -2 1 0 0 -1 3 0 0 -2 1 0M480 372l0 -1"/>
<path stroke="red" d="M480 371l1 0 0 -1M481 371l1 0 0 -1 1 0 0 -1 2 0 0 -1 1 0M486 369l0 -1 1 0 0 -2 1 0 0 -1M488 366l1 0 0 -1M489 366l2 0 0 -3 1 0M492 364l0 -1M492 364l1 0 0 -2M493 363l1 0 0 -1M494 363l1 0 0 -1M495 363l2 0 0 -3 1 0M498 361l0 -1"/>
<path stroke="red" d="M498 361l1 0 0 -1 1 0 0 -1 3 0 0 -2 1 0M504 358l0 -1 1 0 0 -1M505 357l1 0 0 -2M506 356l1 0 0 -1 2 0 0 -2M509 354l2 0 0 -3 2 0M513 352l0 -1 2 0 0 -2 1 0M516 350l0 -1M516 350l1 0 0 -5 1 0M518 346l0 -1M518 346l3 0 0 -3 1 0"/>
<path stroke="red" d="M522 345l0 -2M522 345l1 0 0 -2 1 0 0 -1 1 0 0 -1M525 342l2 0 0 -2 1 0M528 341l0 -1 1 0 0 -1M529 340l1 0 0 -2 3 0 0 -2M533 337l1 0M534 338l0 -2 1 0 0 -2 1 0M536 335l0 -1M536 335l1 0 0 -1M537 335l2 0 0 -4 1 0M540 333l0 -2"/>
<path stroke="red" d="M540 333l1 0 0 -2 1 0M542 333l0 -2M542 332l1 0 0 -1M543 332l2 0 0 -3 1 0M546 330l0 -1M546 330l1 0 0 -1 1 0 0 -1 3 0 0 -2 1 0M552 327l0 -1 1 0 0 -1M553 326l1 0 0 -2 1 0M555 325l0 -1 2 0 0 -2 1 0M558 323l0 -1M558 323l1 0 0 -3"/>
<path stroke="red" d="M559 320l4 0 0 -3M563 318l1 0M564 319l0 -1M564 319l1 0 0 -3 2 0M567 317l0 -1M567 317l2 0 0 -4 1 0M570 315l0 -2M570 315l1 0 0 -2M571 314l1 0 0 -2 1 0M573 313l0 -1 2 0 0 -2M575 311l1 0M576 312l0 -2 1 0M577 311l0 -1 1 0 0 -1"/>
<path stroke="red" d="M578 309l1 0 0 -1 2 0 0 -1 1 0M582 308l0 -1 1 0 0 -2 1 0 0 -1M584 305l3 0 0 -3 1 0M588 304l0 -2M588 304l1 0 0 -3 1 0M590 302l0 -1M590 302l1 0 0 -1M591 302l2 0 0 -4 1 0M594 300l0 -2M594 300l1 0 0 -1 1 0 0 -2 1 0M597 298l0 -1"/>
<path stroke="red" d="M597 297l2 0 0 -2M599 296l1 0M600 297l0 -1 1 0 0 -1M601 296l1 0 0 -2 3 0 0 -2 1 0M606 293l0 -1 1 0 0 -2 1 0 0 -1M608 290l3 0 0 -3 1 0M612 289l0 -2M612 289l1 0 0 -4 2 0M615 286l0 -1M615 286l2 0 0 -3 1 0M618 284l0 -1M618 284l1 0"/>
<path stroke="red" d="M619 284l0 -1 1 0 0 -1 1 0 0 -1M621 282l2 0 0 -2 1 0M624 281l0 -1 1 0 0 -1 1 0 0 -1 1 0M627 279l0 -1 2 0 0 -2 1 0M630 277l0 -1M630 277l1 0 0 -3 4 0 0 -3M635 272l1 0M636 273l0 -1M636 273l1 0 0 -2 1 0M638 272l0 -1 3 0 0 -3"/>
<path stroke="red" d="M641 268l1 0M642 270l0 -2M642 270l1 0 0 -2M643 269l1 0 0 -2 1 0M645 268l0 -1 2 0 0 -2 1 0M648 266l0 -1M648 266l1 0 0 -1 1 0 0 -1 3 0 0 -2 1 0M654 263l0 -1 1 0 0 -2 1 0 0 -1M656 260l1 0 0 -1M657 260l2 0 0 -3 1 0M660 258l0 -1"/>
<path stroke="red" d="M660 258l1 0 0 -2 1 0 0 -1M662 256l3 0 0 -3 1 0M666 255l0 -2M666 255l1 0 0 -2 1 0 0 -1 1 0 0 -1M669 252l2 0 0 -2 1 0M672 251l0 -1 1 0 0 -1M673 250l1 0 0 -2 1 0M675 249l0 -1 2 0 0 -2M677 247l1 0M678 248l0 -2 1 0 0 -2 1 0"/>
<path stroke="red" d="M680 245l0 -1M680 245l1 0 0 -1M681 245l2 0 0 -4 1 0M684 243l0 -2M684 243l1 0 0 -2 1 0 0 -1M686 241l3 0 0 -3 1 0M690 240l0 -2M690 240l1 0 0 -2M691 239l1 0 0 -2 3 0 0 -2M695 236l1 0 0 -1 1 0 0 -1M697 235l1 0 0 -2 1 0M699 234l0 -1"/>
<path stroke="red" d="M699 233l2 0 0 -2M701 232l1 0M702 233l0 -1 1 0 0 -3 1 0M704 230l0 -1M704 230l1 0 0 -1M705 230l2 0 0 -3 1 0M708 228l0 -1M708 228l1 0 0 -3 4 0 0 -3 1 0M714 224l0 -2M714 224l1 0 0 -2 1 0 0 -1 1 0M717 222l0 -1 2 0 0 -2 1 0M720 220l0 -1"/>
<path stroke="red" d="M720 220l1 0 0 -1 1 0 0 -1 3 0 0 -2 1 0M726 217l0 -1 1 0 0 -2 1 0 0 -1M728 214l1 0 0 -1M729 214l2 0 0 -3 1 0M732 212l0 -1M732 212l1 0 0 -2M733 211l1 0 0 -2 3 0 0 -3 1 0M738 207l0 -1M738 207l1 0 0 -1 1 0 0 -1 1 0 0 -1 2 0"/>
<path stroke="red" d="M743 204l0 -1 1 0M744 204l0 -1 1 0 0 -1M745 203l1 0 0 -2 3 0 0 -2M749 200l1 0 0 -1 1 0 0 -2 1 0 0 -1M752 197l1 0M753 198l0 -1 2 0 0 -3 1 0M756 196l0 -2M756 196l1 0 0 -2 4 0 0 -2 1 0M762 193l0 -1M762 193l1 0 0 -2M763 192l1 0"/>
<path stroke="red" d="M764 192l0 -2M764 191l1 0 0 -1 2 0 0 -1 2 0 0 -1 1 0 0 -1 3 0 0 -2 1 0M774 186l0 -1 1 0 0 -2 4 0 0 -3 1 0M780 182l0 -2M780 182l1 0 0 -2 1 0 0 -1M782 180l3 0 0 -3 1 0M786 179l0 -2M786 179l1 0 0 -2 1 0 0 -1 1 0M789 177l0 -1"/>
<path stroke="red" d="M789 176l2 0 0 -2 1 0M792 175l0 -1M792 175l1 0 0 -1 1 0 0 -1 3 0 0 -2 1 0M798 172l0 -1 1 0 0 -2 1 0 0 -1M800 169l1 0 0 -1M801 169l2 0 0 -3 1 0M804 167l0 -1M804 167l1 0 0 -4 1 0 0 -1M806 163l1 0M807 164l0 -1 2 0 0 -3 1 0"/>
<path stroke="red" d="M810 162l0 -2M810 162l1 0 0 -2M811 161l1 0 0 -2 3 0 0 -2M815 158l1 0M816 159l0 -2 2 0 0 -1 1 0 0 -1 2 0 0 -1 1 0M822 155l0 -1 1 0 0 -3 1 0M824 152l0 -1M824 152l3 0 0 -3 1 0M828 150l0 -1M828 150l1 0 0 -2 1 0M830 150l0 -2"/>
<path stroke="red" d="M830 149l1 0M831 150l0 -1 2 0 0 -3 1 0M834 148l0 -2M834 148l1 0 0 -2M835 147l1 0 0 -2 3 0 0 -2M839 144l1 0M840 145l0 -2 2 0 0 -1 1 0 0 -1 2 0 0 -1 1 0M846 141l0 -1 1 0 0 -3 1 0M848 138l0 -1M848 138l3 0 0 -3 1 0M852 136l0 -1"/>
<path stroke="red" d="M852 136l1 0 0 -2M853 135l1 0 0 -1M854 135l1 0 0 -1M855 135l2 0 0 -3 1 0M858 133l0 -1M858 133l1 0 0 -1 1 0 0 -1 3 0 0 -2 1 0M864 130l0 -1 1 0 0 -1M865 129l1 0 0 -2M866 128l1 0 0 -1 2 0 0 -1 2 0 0 -3 2 0M873 124l0 -1M873 124l2 0"/>
<path stroke="red" d="M875 124l0 -3 1 0M876 122l0 -1M876 122l1 0 0 -2 1 0M878 121l0 -1M878 121l1 0 0 -1M879 121l2 0 0 -3 1 0M882 119l0 -1M882 119l1 0 0 -1 1 0 0 -1 3 0 0 -2 1 0M888 116l0 -1 1 0 0 -1M889 115l1 0 0 -2 1 0M891 114l0 -1 2 0 0 -2"/>
<path stroke="red" d="M893 111l1 0M894 112l0 -1M894 112l1 0 0 -3 4 0 0 -3M899 107l1 0M900 108l0 -1M900 108l1 0 0 -5 1 0M902 104l0 -1M902 104l3 0 0 -3 1 0M906 102l0 -1M906 102l1 0 0 -1 1 0 0 -1 1 0 0 -1 2 0 0 -1 1 0M912 99l0 -1 1 0 0 -1M913 98l1 0"/>
<path stroke="red" d="M914 98l0 -2 3 0 0 -2M917 95l1 0 0 -1 1 0 0 -2 1 0 0 -1M920 92l1 0M921 93l0 -1 2 0 0 -3 1 0M924 91l0 -2M924 91l1 0 0 -2 1 0M926 90l0 -1 1 0M927 90l0 -1 2 0 0 -2 1 0M930 88l0 -1M930 88l1 0 0 -2M931 87l1 0 0 -1 1 0 0 -1 2 0"/>
<path stroke="red" d="M935 85l0 -1 1 0M936 85l0 -1 1 0 0 -1 1 0 0 -1 3 0 0 -2 1 0M942 81l0 -1 1 0 0 -2 4 0 0 -3 1 0M948 77l0 -2M948 77l1 0 0 -3 1 0 0 -1M950 74l1 0M951 75l0 -1 2 0 0 -3 1 0M954 73l0 -2M954 73l1 0 0 -2M955 72l1 0 0 -2 3 0 0 -2"/>
<path stroke="red" d="M959 69l1 0"/>
</svg>
