<?xml version="1.0" standalone="yes"?>
<!DOCTYPE svg PUBLIC "-//W3C//DTD SVG 1.1//EN"
 "http://www.w3.org/Graphics/SVG/1.1/DTD/svg11.dtd">
<svg xmlns="http://www.w3.org/2000/svg" version="1.1"
  width="100%" height="100%" viewBox="0 0 1024 768"
  style="fill: none; stroke-width: 3; font-family: Helvetica;
 font: Helvetica;
">

<!-- Creator: NGspice -->

<rect x="0" y="0" width="1024" height="768" fill="white" stroke="none"/>
<text stroke="none" fill="black" font-size="16" x="358" y="752">
time
</text>
<text stroke="none" fill="black" font-size="16" x="10" y="16">
tran1: Transient: Logic Output
</text>
<path stroke="black" stroke-width="3" d="M50 704l0 -636"/>
<text stroke="none" fill="black" font-size="16" x="35" y="728">
0.0
</text>
<path stroke="black" stroke-width="3" stroke-dasharray="1,2" d="M142 704l0 -636"/>
<text stroke="none" fill="black" font-size="16" x="122" y="728">
10.0
</text>
<path stroke="black" stroke-width="3" stroke-dasharray="1,2" d="M234 704l0 -636"/>
<text stroke="none" fill="black" font-size="16" x="214" y="728">
20.0
</text>
<path stroke="black" stroke-width="3" stroke-dasharray="1,2" d="M326 704l0 -636"/>
<text stroke="none" fill="black" font-size="16" x="306" y="728">
30.0
</text>
<path stroke="black" stroke-width="3" stroke-dasharray="1,2" d="M418 704l0 -636"/>
<text stroke="none" fill="black" font-size="16" x="398" y="728">
40.0
</text>
<path stroke="black" stroke-width="3" stroke-dasharray="1,2" d="M510 704l0 -636"/>
<text stroke="none" fill="black" font-size="16" x="490" y="728">
50.0
</text>
<path stroke="black" stroke-width="3" stroke-dasharray="1,2" d="M602 704l0 -636"/>
<text stroke="none" fill="black" font-size="16" x="582" y="728">
60.0
</text>
<path stroke="black" stroke-width="3" stroke-dasharray="1,2" d="M694 704l0 -636"/>
<text stroke="none" fill="black" font-size="16" x="674" y="728">
70.0
</text>
<path stroke="black" stroke-width="3" stroke-dasharray="1,2" d="M786 704l0 -636"/>
<text stroke="none" fill="black" font-size="16" x="766" y="728">
80.0
</text>
<path stroke="black" stroke-width="3" stroke-dasharray="1,2" d="M878 704l0 -636"/>
<text stroke="none" fill="black" font-size="16" x="858" y="728">
90.0
</text>
<path stroke="black" stroke-width="3" stroke-dasharray="1,2" d="M970 704l0 -636"/>
<text stroke="none" fill="black" font-size="16" x="945" y="728">
100.0
</text>
<text stroke="none" fill="black" font-size="16" x="614" y="752">
ns
</text>
<path stroke="black" stroke-width="3" stroke-dasharray="1,2" d="M50 704l920 0"/>
<text stroke="none" fill="black" font-size="16" x="8" y="712">
-0.2
</text>
<path stroke="black" stroke-width="3" d="M50 651l920 0"/>
<text stroke="none" fill="black" font-size="16" x="18" y="659">
0.0
</text>
<path stroke="black" stroke-width="3" stroke-dasharray="1,2" d="M50 598l920 0"/>
<text stroke="none" fill="black" font-size="16" x="18" y="606">
0.2
</text>
<path stroke="black" stroke-width="3" stroke-dasharray="1,2" d="M50 545l920 0"/>
<text stroke="none" fill="black" font-size="16" x="18" y="553">
0.4
</text>
<path stroke="black" stroke-width="3" stroke-dasharray="1,2" d="M50 492l920 0"/>
<text stroke="none" fill="black" font-size="16" x="18" y="500">
0.6
</text>
<path stroke="black" stroke-width="3" stroke-dasharray="1,2" d="M50 439l920 0"/>
<text stroke="none" fill="black" font-size="16" x="18" y="447">
0.8
</text>
<path stroke="black" stroke-width="3" stroke-dasharray="1,2" d="M50 386l920 0"/>
<text stroke="none" fill="black" font-size="16" x="18" y="394">
1.0
</text>
<path stroke="black" stroke-width="3" stroke-dasharray="1,2" d="M50 333l920 0"/>
<text stroke="none" fill="black" font-size="16" x="18" y="341">
1.2
</text>
<path stroke="black" stroke-width="3" stroke-dasharray="1,2" d="M50 280l920 0"/>
<text stroke="none" fill="black" font-size="16" x="18" y="288">
1.4
</text>
<path stroke="black" stroke-width="3" stroke-dasharray="1,2" d="M50 227l920 0"/>
<text stroke="none" fill="black" font-size="16" x="18" y="235">
1.6
</text>
<path stroke="black" stroke-width="3" stroke-dasharray="1,2" d="M50 174l920 0"/>
<text stroke="none" fill="black" font-size="16" x="18" y="182">
1.8
</text>
<path stroke="black" stroke-width="3" stroke-dasharray="1,2" d="M50 121l920 0"/>
<text stroke="none" fill="black" font-size="16" x="18" y="129">
2.0
</text>
<path stroke="black" stroke-width="3" stroke-dasharray="1,2" d="M50 68l920 0"/>
<text stroke="none" fill="black" font-size="16" x="18" y="76">
2.2
</text>
<text stroke="none" fill="black" font-size="16" x="10" y="32">
V
</text>
<path stroke="red" d="M460 23l46 0"/>
<text stroke="none" fill="black" font-size="16" x="516" y="32">
v(y)
</text>
<path stroke="red" d="M50 651l9 0 0 -3 1 0M60 664l0 -66M60 641l1 4M61 650l0 -5M61 650l1 0M62 651l0 -1M62 651l81 0M143 658l0 -7M143 658l1 4M144 663l0 -453 1 -12 0 -23 1 0 0 -1 89 0M235 178l0 -4M235 175l1 -7M236 650l0 -517M236 650l1 1 7 0M244 669l0 -341"/>
<path stroke="red" d="M244 328l1 -54 0 -98 1 -1 0 -1 81 0M327 175l0 -3 1 -7M328 650l0 -531M328 650l1 1 98 0 0 -3 1 0M428 665l0 -67M428 641l1 4M429 650l0 -5M429 650l1 0M430 651l0 -1M430 651l81 0M511 658l0 -7M511 658l1 4M512 663l0 -453 1 -12 0 -23"/>
<path stroke="red" d="M513 175l1 0 0 -1 89 0M603 178l0 -4M603 175l1 -7M604 650l0 -517M604 650l1 1 7 0M612 669l0 -341 1 -54 0 -98 1 -1 0 -1 81 0M695 175l0 -3 1 -7M696 650l0 -531M696 650l1 1 98 0 0 -3 1 0M796 665l0 -67M796 641l1 4M797 650l0 -5"/>
<path stroke="red" d="M797 650l1 0M798 651l0 -1M798 651l81 0M879 658l0 -7M879 658l1 4M880 663l0 -453 1 -12 0 -23 1 0 0 -1 88 0"/>
</svg>
