<?xml version="1.0" standalone="yes"?>
<!DOCTYPE svg PUBLIC "-//W3C//DTD SVG 1.1//EN"
 "http://www.w3.org/Graphics/SVG/1.1/DTD/svg11.dtd">
<svg xmlns="http://www.w3.org/2000/svg" version="1.1"
  width="100%" height="100%" viewBox="0 0 1024 768"
  style="fill: none; stroke-width: 3; font-family: Helvetica;
 font: Helvetica;
">

<!-- Creator: NGspice -->

<rect x="0" y="0" width="1024" height="768" fill="white" stroke="none"/>
<text stroke="none" fill="black" font-size="16" x="358" y="752">
time
</text>
<text stroke="none" fill="black" font-size="16" x="10" y="16">
tran1: Transient: Static Leakage Zoom
</text>
<path stroke="black" stroke-width="3" d="M70 704l0 -640"/>
<text stroke="none" fill="black" font-size="16" x="55" y="728">
0.0
</text>
<path stroke="black" stroke-width="3" stroke-dasharray="1,2" d="M158 704l0 -640"/>
<text stroke="none" fill="black" font-size="16" x="138" y="728">
10.0
</text>
<path stroke="black" stroke-width="3" stroke-dasharray="1,2" d="M246 704l0 -640"/>
<text stroke="none" fill="black" font-size="16" x="226" y="728">
20.0
</text>
<path stroke="black" stroke-width="3" stroke-dasharray="1,2" d="M334 704l0 -640"/>
<text stroke="none" fill="black" font-size="16" x="314" y="728">
30.0
</text>
<path stroke="black" stroke-width="3" stroke-dasharray="1,2" d="M422 704l0 -640"/>
<text stroke="none" fill="black" font-size="16" x="402" y="728">
40.0
</text>
<path stroke="black" stroke-width="3" stroke-dasharray="1,2" d="M510 704l0 -640"/>
<text stroke="none" fill="black" font-size="16" x="490" y="728">
50.0
</text>
<path stroke="black" stroke-width="3" stroke-dasharray="1,2" d="M598 704l0 -640"/>
<text stroke="none" fill="black" font-size="16" x="578" y="728">
60.0
</text>
<path stroke="black" stroke-width="3" stroke-dasharray="1,2" d="M686 704l0 -640"/>
<text stroke="none" fill="black" font-size="16" x="666" y="728">
70.0
</text>
<path stroke="black" stroke-width="3" stroke-dasharray="1,2" d="M774 704l0 -640"/>
<text stroke="none" fill="black" font-size="16" x="754" y="728">
80.0
</text>
<path stroke="black" stroke-width="3" stroke-dasharray="1,2" d="M862 704l0 -640"/>
<text stroke="none" fill="black" font-size="16" x="842" y="728">
90.0
</text>
<path stroke="black" stroke-width="3" stroke-dasharray="1,2" d="M950 704l0 -640"/>
<text stroke="none" fill="black" font-size="16" x="925" y="728">
100.0
</text>
<text stroke="none" fill="black" font-size="16" x="614" y="752">
ns
</text>
<path stroke="black" stroke-width="3" d="M70 704l880 0"/>
<text stroke="none" fill="black" font-size="16" x="38" y="712">
0.0
</text>
<path stroke="black" stroke-width="3" stroke-dasharray="1,2" d="M70 640l880 0"/>
<text stroke="none" fill="black" font-size="16" x="28" y="648">
10.0
</text>
<path stroke="black" stroke-width="3" stroke-dasharray="1,2" d="M70 576l880 0"/>
<text stroke="none" fill="black" font-size="16" x="28" y="584">
20.0
</text>
<path stroke="black" stroke-width="3" stroke-dasharray="1,2" d="M70 512l880 0"/>
<text stroke="none" fill="black" font-size="16" x="28" y="520">
30.0
</text>
<path stroke="black" stroke-width="3" stroke-dasharray="1,2" d="M70 448l880 0"/>
<text stroke="none" fill="black" font-size="16" x="28" y="456">
40.0
</text>
<path stroke="black" stroke-width="3" stroke-dasharray="1,2" d="M70 384l880 0"/>
<text stroke="none" fill="black" font-size="16" x="28" y="392">
50.0
</text>
<path stroke="black" stroke-width="3" stroke-dasharray="1,2" d="M70 320l880 0"/>
<text stroke="none" fill="black" font-size="16" x="28" y="328">
60.0
</text>
<path stroke="black" stroke-width="3" stroke-dasharray="1,2" d="M70 256l880 0"/>
<text stroke="none" fill="black" font-size="16" x="28" y="264">
70.0
</text>
<path stroke="black" stroke-width="3" stroke-dasharray="1,2" d="M70 192l880 0"/>
<text stroke="none" fill="black" font-size="16" x="28" y="200">
80.0
</text>
<path stroke="black" stroke-width="3" stroke-dasharray="1,2" d="M70 128l880 0"/>
<text stroke="none" fill="black" font-size="16" x="28" y="136">
90.0
</text>
<path stroke="black" stroke-width="3" stroke-dasharray="1,2" d="M70 64l880 0"/>
<text stroke="none" fill="black" font-size="16" x="18" y="72">
100.0
</text>
<text stroke="none" fill="black" font-size="16" x="10" y="32">
nA
</text>
<path stroke="red" d="M440 23l44 0"/>
<text stroke="none" fill="black" font-size="16" x="494" y="32">
-i(v_supply)
</text>
<path stroke="red" d="M70 704l9 0M80 704l0 -640M81 704l0 -640M82 704l0 -640M83 704l0 -640M84 704l0 -640M85 704l0 -640M86 704l0 -640M87 704l0 -640M88 704l0 -640M89 704l0 -640M90 704l0 -640M91 704l0 -640M92 704l0 -640M93 704l0 -640M94 704l0 -640"/>
<path stroke="red" d="M95 704l0 -640M96 704l0 -640M97 704l0 -640M98 704l0 -640M99 704l0 -580M99 704l1 -511M100 704l0 -511M100 704l1 -441M101 704l0 -441M102 704l0 -384M102 704l1 -344M103 704l0 -344M103 704l1 -304M104 704l0 -304M105 704l0 -271"/>
<path stroke="red" d="M105 704l1 -247M106 704l0 -247M106 704l1 -223M107 704l0 -223M108 704l0 -202M108 704l1 -187M109 704l0 -187M109 704l1 -171M110 704l0 -171M111 704l0 -158M112 704l0 -146M112 704l1 -137M113 704l0 -137M114 704l0 -127M115 704l0 -118"/>
<path stroke="red" d="M115 704l1 -112M116 704l0 -112M117 704l0 -105M118 704l0 -98M118 704l1 -93M119 704l0 -93M119 704l1 -88M120 704l0 -88M121 704l0 -83M121 704l1 -79M122 704l0 -79M122 704l1 -75M123 704l0 -75M124 704l0 -71M124 704l1 -67M125 704l0 -67"/>
<path stroke="red" d="M125 704l1 -64M126 704l0 -64M127 704l0 -61M127 704l1 -58M128 704l0 -58M128 704l1 -55M129 704l0 -55M130 704l0 -53M131 704l0 -50M131 704l1 -48M132 704l0 -48M133 704l0 -46M134 704l0 -44M134 704l1 -42M135 704l0 -42M136 704l0 -41"/>
<path stroke="red" d="M137 704l0 -39M137 704l1 -38M138 704l0 -38M139 704l0 -36M140 704l0 -35M140 704l1 -33M141 704l0 -33M141 704l1 -32M142 704l0 -32M143 704l0 -31M143 704l1 -30M144 704l0 -30M144 704l1 -29M145 704l0 -29M146 704l0 -28M146 704l1 -27"/>
<path stroke="red" d="M147 704l0 -27M147 704l1 -26M148 704l0 -26M149 704l0 -26M149 704l1 -25M150 704l0 -25M150 704l1 -24M151 704l0 -24M152 704l0 -24M153 704l0 -23M153 704l1 -22M154 704l0 -22M155 704l0 -22M156 704l0 -21M156 704l1 -21M157 704l0 -21"/>
<path stroke="red" d="M158 704l0 -20M159 704l0 -640M160 704l0 -640M161 704l0 -640M162 704l0 -640M163 704l0 -640M164 704l0 -640M165 704l0 -640M166 704l0 -640M167 704l0 -640M168 704l0 -640M169 704l0 -640M170 704l0 -640M171 704l0 -640M172 704l0 -640"/>
<path stroke="red" d="M173 704l0 -626M173 704l1 -548M174 704l0 -548M174 704l1 -468M175 704l0 -468M176 704l0 -400M176 704l1 -351M177 704l0 -351M177 704l1 -300M178 704l0 -300M179 704l0 -256M179 704l1 -224M180 704l0 -224M180 704l1 -191M181 704l0 -191"/>
<path stroke="red" d="M182 704l0 -163M182 704l1 -142M183 704l0 -142M183 704l1 -120M184 704l0 -120M185 704l0 -101M186 704l0 -85M186 704l1 -72M187 704l0 -72M188 704l0 -60M189 704l0 -48M189 704l1 -40M190 704l0 -40M191 704l0 -31M192 704l0 -23M192 704l1 -17"/>
<path stroke="red" d="M193 704l0 -17M194 704l0 -11M195 704l0 -5M195 701l1 2M196 704l0 -7M197 704l0 -11M197 704l1 -12M198 704l0 -15M199 704l0 -18M200 704l0 -20M200 704l1 -21M201 704l0 -23M202 704l0 -25M203 704l0 -27M203 704l1 -27M204 704l0 -29"/>
<path stroke="red" d="M205 704l0 -30M206 704l0 -32M206 704l1 -32M207 704l0 -33M207 704l1 -33M208 704l0 -34M209 704l0 -35M209 704l1 -35M210 704l0 -36M210 704l1 -36M211 704l0 -36M212 704l0 -37M212 704l1 -37M213 704l0 -37M213 704l1 -37M214 704l0 -38"/>
<path stroke="red" d="M215 704l0 -38M215 704l1 -38M216 704l0 -38M216 704l1 -38M217 704l0 -39M218 704l0 -39M218 704l1 -39M219 704l0 -39M219 704l1 -39M220 704l0 -39M221 704l0 -39M222 704l0 -39M222 704l1 -39M223 704l0 -39M224 704l0 -39M225 704l0 -39"/>
<path stroke="red" d="M225 704l1 -38M226 704l0 -38M227 704l0 -38M228 704l0 -38M228 704l1 -38M229 704l0 -38M230 704l0 -38M231 704l0 -37M231 704l1 -37M232 704l0 -37M232 704l1 -37M233 704l0 -37M234 704l0 -36M234 704l1 -36M235 704l0 -36M235 704l1 -36"/>
<path stroke="red" d="M236 704l0 -36M237 704l0 -36M237 704l1 -35M238 704l0 -35M238 704l1 -35M239 704l0 -35M240 704l0 -34M240 704l1 -34M241 704l0 -34M241 704l1 -34M242 704l0 -34M243 704l0 -33M244 704l0 -33M244 704l1 -33M245 704l0 -33M246 704l0 -32"/>
<path stroke="red" d="M247 704l0 -640M248 704l0 -640M249 704l0 -640M250 704l0 -640M251 704l0 -640M252 704l0 -640M253 704l0 -640M254 704l0 -640M255 704l0 -640M256 704l0 -640M257 704l0 -640M258 704l0 -640M259 704l0 -640M260 704l0 -640M261 704l0 -640"/>
<path stroke="red" d="M262 704l0 -640M263 704l0 -640M264 704l0 -640M265 704l0 -640M266 704l0 -640M267 704l0 -640M268 704l0 -640M269 704l0 -640M270 704l0 -640M271 704l0 -635M272 704l0 -537M272 704l1 -468M273 704l0 -468M274 704l0 -399M275 704l0 -342"/>
<path stroke="red" d="M275 704l1 -302M276 704l0 -302M276 704l1 -261M277 704l0 -261M278 704l0 -227M278 704l1 -203M279 704l0 -203M279 704l1 -179M280 704l0 -179M281 704l0 -158M281 704l1 -143M282 704l0 -143M282 704l1 -127M283 704l0 -127M284 704l0 -114"/>
<path stroke="red" d="M284 704l1 -104M285 704l0 -104M285 704l1 -94M286 704l0 -94M287 704l0 -84M288 704l0 -76M288 704l1 -70M289 704l0 -70M290 704l0 -64M291 704l0 -58M291 704l1 -53M292 704l0 -53M293 704l0 -48M294 704l0 -43M294 704l1 -40M295 704l0 -40"/>
<path stroke="red" d="M296 704l0 -36M297 704l0 -32M297 704l1 -29M298 704l0 -29M298 704l1 -25M299 704l0 -25M300 704l0 -22M300 704l1 -20M301 704l0 -20M301 704l1 -17M302 704l0 -17M303 704l0 -14M303 704l1 -12M304 704l0 -12M304 704l1 -10M305 704l0 -10"/>
<path stroke="red" d="M306 704l0 -7M306 704l1 -6M307 704l0 -6M307 704l1 -3M308 704l0 -3M309 704l0 -1M309 704l1 0 0 -2M311 704l0 -3M311 704l1 -4M312 704l0 -5M312 704l1 -5M313 704l0 -7M314 704l0 -8M314 704l1 -8M315 704l0 -10M315 704l1 -10M316 704l0 -11"/>
<path stroke="red" d="M317 704l0 -12M317 704l1 -12M318 704l0 -14M318 704l1 -14M319 704l0 -15M320 704l0 -16M321 704l0 -17M321 704l1 -17M322 704l0 -18M323 704l0 -19M324 704l0 -20M324 704l1 -20M325 704l0 -21M326 704l0 -22M327 704l0 -23M327 704l1 -23"/>
<path stroke="red" d="M328 704l0 -24M329 704l0 -24M330 704l0 -25M330 704l1 -25M331 704l0 -26M331 704l1 -26M332 704l0 -26M333 704l0 -27M333 704l1 -27M334 704l0 -28M334 704l1 -28M335 704l0 -640M336 704l0 -640M337 704l0 -640M338 704l0 -640M339 704l0 -640"/>
<path stroke="red" d="M340 704l0 -640M341 704l0 -640M342 704l0 -640M343 704l0 -640M344 704l0 -640M345 704l0 -640M346 704l0 -640M347 704l0 -640M348 704l0 -640M349 704l0 -640M350 704l0 -640M351 704l0 -640M352 704l0 -640M353 704l0 -640M353 704l1 -570"/>
<path stroke="red" d="M354 704l0 -570M355 704l0 -508M355 704l1 -463M356 704l0 -463M356 704l1 -415M357 704l0 -415M358 704l0 -372M358 704l1 -341M359 704l0 -341M359 704l1 -308M360 704l0 -308M361 704l0 -279M362 704l0 -253M362 704l1 -234M363 704l0 -234"/>
<path stroke="red" d="M364 704l0 -214M365 704l0 -196M365 704l1 -183M366 704l0 -183M367 704l0 -168M368 704l0 -155M368 704l1 -146M369 704l0 -146M370 704l0 -135M371 704l0 -126M371 704l1 -119M372 704l0 -119M372 704l1 -111M373 704l0 -111M374 704l0 -104"/>
<path stroke="red" d="M374 704l1 -99M375 704l0 -99M375 704l1 -93M376 704l0 -93M377 704l0 -88M377 704l1 -84M378 704l0 -84M378 704l1 -80M379 704l0 -80M380 704l0 -76M380 704l1 -73M381 704l0 -73M381 704l1 -70M382 704l0 -70M383 704l0 -67M384 704l0 -64"/>
<path stroke="red" d="M384 704l1 -62M385 704l0 -62M386 704l0 -60M387 704l0 -57M387 704l1 -56M388 704l0 -56M389 704l0 -54M390 704l0 -52M390 704l1 -51M391 704l0 -51M392 704l0 -49M393 704l0 -48M393 704l1 -47M394 704l0 -47M394 704l1 -45M395 704l0 -45"/>
<path stroke="red" d="M396 704l0 -44M396 704l1 -43M397 704l0 -43M397 704l1 -42M398 704l0 -42M399 704l0 -41M399 704l1 -40M400 704l0 -40M400 704l1 -39M401 704l0 -39M402 704l0 -39M402 704l1 -38M403 704l0 -38M403 704l1 -37M404 704l0 -37M405 704l0 -37"/>
<path stroke="red" d="M406 704l0 -36M406 704l1 -35M407 704l0 -35M408 704l0 -35M409 704l0 -34M409 704l1 -34M410 704l0 -34M411 704l0 -33M412 704l0 -32M412 704l1 -32M413 704l0 -32M414 704l0 -32M415 704l0 -31M415 704l1 -31M416 704l0 -31M416 704l1 -30"/>
<path stroke="red" d="M417 704l0 -30M418 704l0 -30M418 704l1 -30M419 704l0 -30M419 704l1 -29M420 704l0 -29M421 704l0 -29M421 704l1 -29M422 704l0 -29M422 704l1 -28M423 704l0 -28M424 704l0 -28M424 704l1 -28M425 704l0 -28M425 704l1 -27M426 704l0 -27"/>
<path stroke="red" d="M427 704l0 -27M428 704l0 -27M428 704l1 -26M429 704l0 -26M430 704l0 -26M431 704l0 -26M432 704l0 -640M433 704l0 -640M434 704l0 -640M435 704l0 -640M436 704l0 -640M437 704l0 -640M438 704l0 -640M439 704l0 -640M440 704l0 -640"/>
<path stroke="red" d="M441 704l0 -640M442 704l0 -640M443 704l0 -640M444 704l0 -640M445 704l0 -640M446 704l0 -640M447 704l0 -640M448 704l0 -640M449 704l0 -640M450 704l0 -640M451 704l0 -580M451 704l1 -511M452 704l0 -511M452 704l1 -441M453 704l0 -441"/>
<path stroke="red" d="M454 704l0 -384M454 704l1 -344M455 704l0 -344M455 704l1 -304M456 704l0 -304M457 704l0 -271M457 704l1 -247M458 704l0 -247M458 704l1 -223M459 704l0 -223M460 704l0 -202M461 704l0 -184M461 704l1 -171M462 704l0 -171M463 704l0 -158"/>
<path stroke="red" d="M464 704l0 -146M464 704l1 -137M465 704l0 -137M466 704l0 -127M467 704l0 -118M467 704l1 -112M468 704l0 -112M469 704l0 -105M470 704l0 -98M470 704l1 -93M471 704l0 -93M471 704l1 -88M472 704l0 -88M473 704l0 -83M473 704l1 -79M474 704l0 -79"/>
<path stroke="red" d="M474 704l1 -75M475 704l0 -75M476 704l0 -71M476 704l1 -67M477 704l0 -67M477 704l1 -64M478 704l0 -64M479 704l0 -61M479 704l1 -58M480 704l0 -58M480 704l1 -55M481 704l0 -55M482 704l0 -53M483 704l0 -50M483 704l1 -48M484 704l0 -48"/>
<path stroke="red" d="M485 704l0 -46M486 704l0 -44M486 704l1 -42M487 704l0 -42M488 704l0 -41M489 704l0 -39M489 704l1 -38M490 704l0 -38M491 704l0 -36M492 704l0 -35M492 704l1 -33M493 704l0 -33M493 704l1 -32M494 704l0 -32M495 704l0 -31M495 704l1 -30"/>
<path stroke="red" d="M496 704l0 -30M496 704l1 -29M497 704l0 -29M498 704l0 -28M498 704l1 -27M499 704l0 -27M499 704l1 -26M500 704l0 -26M501 704l0 -26M501 704l1 -25M502 704l0 -25M502 704l1 -24M503 704l0 -24M504 704l0 -24M505 704l0 -23M505 704l1 -22"/>
<path stroke="red" d="M506 704l0 -22M507 704l0 -22M508 704l0 -21M508 704l1 -21M509 704l0 -21M510 704l0 -20M511 704l0 -640M512 704l0 -640M513 704l0 -640M514 704l0 -640M515 704l0 -640M516 704l0 -640M517 704l0 -640M518 704l0 -640M519 704l0 -640"/>
<path stroke="red" d="M520 704l0 -640M521 704l0 -640M522 704l0 -640M523 704l0 -640M524 704l0 -640M525 704l0 -626M525 704l1 -548M526 704l0 -548M526 704l1 -468M527 704l0 -468M528 704l0 -400M528 704l1 -351M529 704l0 -351M529 704l1 -300M530 704l0 -300"/>
<path stroke="red" d="M531 704l0 -256M531 704l1 -224M532 704l0 -224M532 704l1 -191M533 704l0 -191M534 704l0 -163M534 704l1 -142M535 704l0 -142M535 704l1 -120M536 704l0 -120M537 704l0 -101M538 704l0 -85M538 704l1 -72M539 704l0 -72M540 704l0 -60"/>
<path stroke="red" d="M541 704l0 -48M541 704l1 -40M542 704l0 -40M543 704l0 -31M544 704l0 -23M544 704l1 -17M545 704l0 -17M546 704l0 -11M547 704l0 -5M547 701l1 2M548 704l0 -7M549 704l0 -11M549 704l1 -12M550 704l0 -15M551 704l0 -18M552 704l0 -20"/>
<path stroke="red" d="M552 704l1 -21M553 704l0 -23M554 704l0 -25M555 704l0 -27M555 704l1 -27M556 704l0 -29M557 704l0 -30M558 704l0 -32M558 704l1 -32M559 704l0 -33M559 704l1 -33M560 704l0 -34M561 704l0 -35M561 704l1 -35M562 704l0 -36M562 704l1 -36"/>
<path stroke="red" d="M563 704l0 -36M564 704l0 -37M564 704l1 -37M565 704l0 -37M565 704l1 -37M566 704l0 -38M567 704l0 -38M567 704l1 -38M568 704l0 -38M568 704l1 -38M569 704l0 -39M570 704l0 -39M571 704l0 -39M571 704l1 -39M572 704l0 -39M573 704l0 -39"/>
<path stroke="red" d="M574 704l0 -39M574 704l1 -39M575 704l0 -39M576 704l0 -39M577 704l0 -39M577 704l1 -38M578 704l0 -38M579 704l0 -38M580 704l0 -38M580 704l1 -38M581 704l0 -38M581 704l1 -38M582 704l0 -38M583 704l0 -37M583 704l1 -37M584 704l0 -37"/>
<path stroke="red" d="M584 704l1 -37M585 704l0 -37M586 704l0 -36M586 704l1 -36M587 704l0 -36M587 704l1 -36M588 704l0 -36M589 704l0 -36M589 704l1 -35M590 704l0 -35M590 704l1 -35M591 704l0 -35M592 704l0 -34M593 704l0 -34M593 704l1 -34M594 704l0 -34"/>
<path stroke="red" d="M595 704l0 -33M596 704l0 -33M596 704l1 -33M597 704l0 -33M598 704l0 -32M599 704l0 -640M600 704l0 -640M601 704l0 -640M602 704l0 -640M603 704l0 -640M604 704l0 -640M605 704l0 -640M606 704l0 -640M607 704l0 -640M608 704l0 -640"/>
<path stroke="red" d="M609 704l0 -640M610 704l0 -640M611 704l0 -640M612 704l0 -640M613 704l0 -640M614 704l0 -640M615 704l0 -640M616 704l0 -640M617 704l0 -640M618 704l0 -640M619 704l0 -640M620 704l0 -640M621 704l0 -640M622 704l0 -640M623 704l0 -635"/>
<path stroke="red" d="M624 704l0 -537M624 704l1 -468M625 704l0 -468M625 704l1 -399M626 704l0 -399M627 704l0 -342M627 704l1 -302M628 704l0 -302M628 704l1 -261M629 704l0 -261M630 704l0 -227M630 704l1 -203M631 704l0 -203M631 704l1 -179M632 704l0 -179"/>
<path stroke="red" d="M633 704l0 -158M633 704l1 -143M634 704l0 -143M634 704l1 -127M635 704l0 -127M636 704l0 -114M637 704l0 -102M637 704l1 -94M638 704l0 -94M639 704l0 -84M640 704l0 -76M640 704l1 -70M641 704l0 -70M642 704l0 -64M643 704l0 -58M643 704l1 -53"/>
<path stroke="red" d="M644 704l0 -53M645 704l0 -48M646 704l0 -43M646 704l1 -40M647 704l0 -40M647 704l1 -36M648 704l0 -36M649 704l0 -32M649 704l1 -29M650 704l0 -29M650 704l1 -25M651 704l0 -25M652 704l0 -22M652 704l1 -20M653 704l0 -20M653 704l1 -17"/>
<path stroke="red" d="M654 704l0 -17M655 704l0 -14M655 704l1 -12M656 704l0 -12M656 704l1 -10M657 704l0 -10M658 704l0 -7M659 704l0 -5M659 704l1 -3M660 704l0 -3M661 704l0 -1M661 704l1 0 0 -2M663 704l0 -3M663 704l1 -4M664 704l0 -5M664 704l1 -5M665 704l0 -7"/>
<path stroke="red" d="M666 704l0 -8M666 704l1 -8M667 704l0 -10M667 704l1 -10M668 704l0 -11M669 704l0 -12M670 704l0 -14M670 704l1 -14M671 704l0 -15M672 704l0 -16M673 704l0 -17M673 704l1 -17M674 704l0 -18M675 704l0 -19M676 704l0 -20M676 704l1 -20"/>
<path stroke="red" d="M677 704l0 -21M678 704l0 -22M679 704l0 -23M679 704l1 -23M680 704l0 -24M680 704l1 -24M681 704l0 -24M682 704l0 -25M682 704l1 -25M683 704l0 -26M683 704l1 -26M684 704l0 -26M685 704l0 -27M685 704l1 -27M686 704l0 -28M686 704l1 -28"/>
<path stroke="red" d="M687 704l0 -640M688 704l0 -640M689 704l0 -640M690 704l0 -640M691 704l0 -640M692 704l0 -640M693 704l0 -640M694 704l0 -640M695 704l0 -640M696 704l0 -640M697 704l0 -640M698 704l0 -640M699 704l0 -640M700 704l0 -640M701 704l0 -640"/>
<path stroke="red" d="M702 704l0 -640M703 704l0 -640M704 704l0 -640M705 704l0 -640M705 704l1 -570M706 704l0 -570M707 704l0 -508M707 704l1 -463M708 704l0 -463M708 704l1 -415M709 704l0 -415M710 704l0 -372M710 704l1 -341M711 704l0 -341M711 704l1 -308"/>
<path stroke="red" d="M712 704l0 -308M713 704l0 -279M714 704l0 -253M714 704l1 -234M715 704l0 -234M716 704l0 -214M717 704l0 -196M717 704l1 -183M718 704l0 -183M719 704l0 -168M720 704l0 -155M720 704l1 -146M721 704l0 -146M722 704l0 -135M723 704l0 -126"/>
<path stroke="red" d="M723 704l1 -119M724 704l0 -119M724 704l1 -111M725 704l0 -111M726 704l0 -104M726 704l1 -99M727 704l0 -99M727 704l1 -93M728 704l0 -93M729 704l0 -88M729 704l1 -84M730 704l0 -84M730 704l1 -80M731 704l0 -80M732 704l0 -76M732 704l1 -73"/>
<path stroke="red" d="M733 704l0 -73M733 704l1 -70M734 704l0 -70M735 704l0 -67M736 704l0 -64M736 704l1 -62M737 704l0 -62M738 704l0 -60M739 704l0 -57M739 704l1 -56M740 704l0 -56M741 704l0 -54M742 704l0 -52M742 704l1 -51M743 704l0 -51M744 704l0 -49"/>
<path stroke="red" d="M745 704l0 -48M745 704l1 -47M746 704l0 -47M746 704l1 -45M747 704l0 -45M748 704l0 -44M748 704l1 -43M749 704l0 -43M749 704l1 -42M750 704l0 -42M751 704l0 -41M751 704l1 -40M752 704l0 -40M752 704l1 -39M753 704l0 -39M754 704l0 -39"/>
<path stroke="red" d="M754 704l1 -38M755 704l0 -38M755 704l1 -37M756 704l0 -37M757 704l0 -37M758 704l0 -36M758 704l1 -35M759 704l0 -35M760 704l0 -35M761 704l0 -34M761 704l1 -34M762 704l0 -34M763 704l0 -33M764 704l0 -32M764 704l1 -32M765 704l0 -32"/>
<path stroke="red" d="M766 704l0 -32M767 704l0 -31M767 704l1 -31M768 704l0 -31M768 704l1 -30M769 704l0 -30M770 704l0 -30M770 704l1 -30M771 704l0 -30M771 704l1 -29M772 704l0 -29M773 704l0 -29M773 704l1 -29M774 704l0 -29M774 704l1 -28M775 704l0 -28"/>
<path stroke="red" d="M776 704l0 -28M776 704l1 -28M777 704l0 -28M777 704l1 -27M778 704l0 -27M779 704l0 -27M780 704l0 -27M780 704l1 -26M781 704l0 -26M782 704l0 -26M783 704l0 -26M784 704l0 -640M785 704l0 -640M786 704l0 -640M787 704l0 -640M788 704l0 -640"/>
<path stroke="red" d="M789 704l0 -640M790 704l0 -640M791 704l0 -640M792 704l0 -640M793 704l0 -640M794 704l0 -640M795 704l0 -640M796 704l0 -640M797 704l0 -640M798 704l0 -640M799 704l0 -640M800 704l0 -640M801 704l0 -640M802 704l0 -640M803 704l0 -580"/>
<path stroke="red" d="M803 704l1 -511M804 704l0 -511M804 704l1 -441M805 704l0 -441M806 704l0 -384M806 704l1 -344M807 704l0 -344M807 704l1 -304M808 704l0 -304M809 704l0 -271M809 704l1 -247M810 704l0 -247M810 704l1 -223M811 704l0 -223M812 704l0 -202"/>
<path stroke="red" d="M813 704l0 -184M813 704l1 -171M814 704l0 -171M815 704l0 -158M816 704l0 -146M816 704l1 -137M817 704l0 -137M818 704l0 -127M819 704l0 -118M819 704l1 -112M820 704l0 -112M821 704l0 -105M822 704l0 -98M822 704l1 -93M823 704l0 -93"/>
<path stroke="red" d="M823 704l1 -88M824 704l0 -88M825 704l0 -83M825 704l1 -79M826 704l0 -79M826 704l1 -75M827 704l0 -75M828 704l0 -71M828 704l1 -67M829 704l0 -67M829 704l1 -64M830 704l0 -64M831 704l0 -61M831 704l1 -58M832 704l0 -58M832 704l1 -55"/>
<path stroke="red" d="M833 704l0 -55M834 704l0 -53M835 704l0 -50M835 704l1 -48M836 704l0 -48M837 704l0 -46M838 704l0 -44M838 704l1 -42M839 704l0 -42M840 704l0 -41M841 704l0 -39M841 704l1 -38M842 704l0 -38M843 704l0 -36M844 704l0 -35M844 704l1 -33"/>
<path stroke="red" d="M845 704l0 -33M845 704l1 -32M846 704l0 -32M847 704l0 -31M847 704l1 -30M848 704l0 -30M848 704l1 -29M849 704l0 -29M850 704l0 -28M850 704l1 -27M851 704l0 -27M851 704l1 -26M852 704l0 -26M853 704l0 -26M853 704l1 -25M854 704l0 -25"/>
<path stroke="red" d="M854 704l1 -24M855 704l0 -24M856 704l0 -24M857 704l0 -23M857 704l1 -22M858 704l0 -22M859 704l0 -22M860 704l0 -21M860 704l1 -21M861 704l0 -21M862 704l0 -20M863 704l0 -640M864 704l0 -640M865 704l0 -640M866 704l0 -640M867 704l0 -640"/>
<path stroke="red" d="M868 704l0 -640M869 704l0 -640M870 704l0 -640M871 704l0 -640M872 704l0 -640M873 704l0 -640M874 704l0 -640M875 704l0 -640M876 704l0 -640M877 704l0 -626M877 704l1 -548M878 704l0 -548M878 704l1 -468M879 704l0 -468M880 704l0 -400"/>
<path stroke="red" d="M880 704l1 -351M881 704l0 -351M881 704l1 -300M882 704l0 -300M883 704l0 -256M883 704l1 -224M884 704l0 -224M884 704l1 -191M885 704l0 -191M886 704l0 -163M886 704l1 -142M887 704l0 -142M887 704l1 -120M888 704l0 -120M889 704l0 -101"/>
<path stroke="red" d="M890 704l0 -85M890 704l1 -72M891 704l0 -72M892 704l0 -60M893 704l0 -48M893 704l1 -40M894 704l0 -40M895 704l0 -31M896 704l0 -23M896 704l1 -17M897 704l0 -17M898 704l0 -11M899 704l0 -5M899 701l1 2M900 704l0 -7M901 704l0 -11"/>
<path stroke="red" d="M901 704l1 -12M902 704l0 -15M903 704l0 -18M904 704l0 -20M904 704l1 -21M905 704l0 -23M906 704l0 -25M907 704l0 -27M907 704l1 -27M908 704l0 -29M909 704l0 -30M910 704l0 -32M910 704l1 -32M911 704l0 -33M911 704l1 -33M912 704l0 -34"/>
<path stroke="red" d="M913 704l0 -35M913 704l1 -35M914 704l0 -36M914 704l1 -36M915 704l0 -36M916 704l0 -37M916 704l1 -37M917 704l0 -37M917 704l1 -37M918 704l0 -38M919 704l0 -38M919 704l1 -38M920 704l0 -38M920 704l1 -38M921 704l0 -39M922 704l0 -39"/>
<path stroke="red" d="M923 704l0 -39M923 704l1 -39M924 704l0 -39M925 704l0 -39M926 704l0 -39M926 704l1 -39M927 704l0 -39M928 704l0 -39M929 704l0 -39M929 704l1 -38M930 704l0 -38M931 704l0 -38M932 704l0 -38M932 704l1 -38M933 704l0 -38M933 704l1 -38"/>
<path stroke="red" d="M934 704l0 -38M935 704l0 -37M935 704l1 -37M936 704l0 -37M936 704l1 -37M937 704l0 -37M938 704l0 -36M938 704l1 -36M939 704l0 -36M939 704l1 -36M940 704l0 -36M941 704l0 -36M941 704l1 -35M942 704l0 -35M942 704l1 -35M943 704l0 -35"/>
<path stroke="red" d="M944 704l0 -34M945 704l0 -34M945 704l1 -34M946 704l0 -34M947 704l0 -33M948 704l0 -33M948 704l1 -33M949 704l0 -33M950 704l0 -32"/>
</svg>
