<?xml version="1.0" standalone="yes"?>
<!DOCTYPE svg PUBLIC "-//W3C//DTD SVG 1.1//EN"
 "http://www.w3.org/Graphics/SVG/1.1/DTD/svg11.dtd">
<svg xmlns="http://www.w3.org/2000/svg" version="1.1"
  width="100%" height="100%" viewBox="0 0 1024 768"
  style="fill: none; stroke-width: 3; font-family: Helvetica;
 font: Helvetica;
">

<!-- Creator: NGspice -->

<rect x="0" y="0" width="1024" height="768" fill="white" stroke="none"/>
<text stroke="none" fill="black" font-size="16" x="358" y="752">
time
</text>
<text stroke="none" fill="black" font-size="16" x="10" y="16">
tran1: Verification: Physical vs Ideal Parity
</text>
<path stroke="black" stroke-width="3" d="M50 704l0 -639"/>
<text stroke="none" fill="black" font-size="16" x="35" y="728">
0.0
</text>
<path stroke="black" stroke-width="3" stroke-dasharray="1,2" d="M204 704l0 -639"/>
<text stroke="none" fill="black" font-size="16" x="189" y="728">
0.5
</text>
<path stroke="black" stroke-width="3" stroke-dasharray="1,2" d="M358 704l0 -639"/>
<text stroke="none" fill="black" font-size="16" x="343" y="728">
1.0
</text>
<path stroke="black" stroke-width="3" stroke-dasharray="1,2" d="M512 704l0 -639"/>
<text stroke="none" fill="black" font-size="16" x="497" y="728">
1.5
</text>
<path stroke="black" stroke-width="3" stroke-dasharray="1,2" d="M666 704l0 -639"/>
<text stroke="none" fill="black" font-size="16" x="651" y="728">
2.0
</text>
<path stroke="black" stroke-width="3" stroke-dasharray="1,2" d="M820 704l0 -639"/>
<text stroke="none" fill="black" font-size="16" x="805" y="728">
2.5
</text>
<path stroke="black" stroke-width="3" stroke-dasharray="1,2" d="M974 704l0 -639"/>
<text stroke="none" fill="black" font-size="16" x="959" y="728">
3.0
</text>
<text stroke="none" fill="black" font-size="16" x="614" y="752">
us
</text>
<path stroke="black" stroke-width="3" stroke-dasharray="1,2" d="M50 704l924 0"/>
<text stroke="none" fill="black" font-size="16" x="8" y="712">
-0.5
</text>
<path stroke="black" stroke-width="3" d="M50 633l924 0"/>
<text stroke="none" fill="black" font-size="16" x="18" y="641">
0.0
</text>
<path stroke="black" stroke-width="3" stroke-dasharray="1,2" d="M50 562l924 0"/>
<text stroke="none" fill="black" font-size="16" x="18" y="570">
0.5
</text>
<path stroke="black" stroke-width="3" stroke-dasharray="1,2" d="M50 491l924 0"/>
<text stroke="none" fill="black" font-size="16" x="18" y="499">
1.0
</text>
<path stroke="black" stroke-width="3" stroke-dasharray="1,2" d="M50 420l924 0"/>
<text stroke="none" fill="black" font-size="16" x="18" y="428">
1.5
</text>
<path stroke="black" stroke-width="3" stroke-dasharray="1,2" d="M50 349l924 0"/>
<text stroke="none" fill="black" font-size="16" x="18" y="357">
2.0
</text>
<path stroke="black" stroke-width="3" stroke-dasharray="1,2" d="M50 278l924 0"/>
<text stroke="none" fill="black" font-size="16" x="18" y="286">
2.5
</text>
<path stroke="black" stroke-width="3" stroke-dasharray="1,2" d="M50 207l924 0"/>
<text stroke="none" fill="black" font-size="16" x="18" y="215">
3.0
</text>
<path stroke="black" stroke-width="3" stroke-dasharray="1,2" d="M50 136l924 0"/>
<text stroke="none" fill="black" font-size="16" x="18" y="144">
3.5
</text>
<path stroke="black" stroke-width="3" stroke-dasharray="1,2" d="M50 65l924 0"/>
<text stroke="none" fill="black" font-size="16" x="18" y="73">
4.0
</text>
<text stroke="none" fill="black" font-size="16" x="10" y="32">
     
</text>
<path stroke="red" d="M462 23l46 0"/>
<text stroke="none" fill="black" font-size="16" x="518" y="32">
v(out_parity)
</text>
<path stroke="red" d="M50 633l0 -78M50 633l2 0 0 -256 1 0M53 633l0 -256M53 404l1 -7 0 -20 1 0M55 633l0 -256M55 633l1 0 0 -262M56 375l1 1M57 381l0 -5M57 377l1 0M58 633l0 -267M58 633l1 0 0 -256 1 0M60 633l0 -267M60 633l1 0 0 -256 1 0M62 633l0 -256"/>
<path stroke="red" d="M62 633l1 0 0 -256 1 0M64 633l0 -267M64 633l1 0 0 -155 1 -35M66 633l0 -267M66 633l1 0 0 -256 2 0M69 633l0 -256M69 633l1 0 0 -256 2 0M72 633l0 -256 1 0M73 633l0 -256M73 633l2 0 0 -265M75 377l1 0M76 633l0 -275M76 633l2 0M78 635l0 -277"/>
<path stroke="red" d="M78 633l1 0M79 635l0 -258 2 0M81 633l0 -272M81 633l1 0M82 638l0 -259 1 0 0 -2 1 0M84 640l0 -285M84 377l1 0M85 378l0 -22 1 -1M86 633l0 -278M86 633l1 0M87 637l0 -276M87 633l2 0M89 638l0 -261 1 0M90 640l0 -285M90 378l1 0 0 -1"/>
<path stroke="red" d="M91 377l1 0M92 633l0 -278M92 633l1 0M93 636l0 -259 2 0M95 633l0 -275M95 633l1 0M96 635l0 -258 1 0M97 633l0 -275M97 633l1 0M98 635l0 -258 1 0M99 633l0 -256M99 633l1 0 0 -256 1 0M101 633l0 -275M101 633l1 0M102 635l0 -254 1 -1"/>
<path stroke="red" d="M103 633l0 -275M103 633l1 0M104 635l0 -258 1 0M105 378l0 -8 1 -4M106 633l0 -272M106 633l1 0M107 638l0 -261 2 0M109 640l0 -285M109 377l1 0M110 633l0 -278M110 633l2 0M112 637l0 -276M112 633l1 0M113 638l0 -261 2 0M115 640l0 -285"/>
<path stroke="red" d="M115 377l1 0M116 633l0 -278M116 633l2 0M118 636l0 -259 1 0M119 633l0 -275M119 633l2 0M121 635l0 -277M121 633l1 0M122 635l0 -245 1 -3 0 -10 1 0M124 634l0 -257M124 633l2 0 0 -256 1 0M127 633l0 -256M127 378l1 0 0 -1 1 0M129 633l0 -256"/>
<path stroke="red" d="M129 633l1 0 0 -262M130 378l1 0 0 -1 1 0M132 633l0 -267M132 633l1 0 0 -261 1 -2M134 633l0 -267M134 633l1 0 0 -256 1 0M136 633l0 -256M136 633l1 0 0 -256 1 0M138 633l0 -267M138 633l1 0 0 -254 1 0M140 633l0 -267M140 633l1 0"/>
<path stroke="red" d="M141 633l0 -256 1 0M142 620l0 -243M142 620l1 0M143 633l0 -13M143 633l1 0 0 -256 2 0M146 633l0 -256 1 0M147 633l0 -256M147 633l2 0M149 635l0 -275M149 377l1 0M150 633l0 -275M150 633l2 0M152 635l0 -277M152 633l1 0M153 635l0 -258"/>
<path stroke="red" d="M153 377l2 0M155 633l0 -272M155 633l1 0M156 638l0 -261 2 0M158 640l0 -285M158 377l1 0M159 633l0 -278M159 633l2 0M161 637l0 -276M161 633l1 0M162 638l0 -5M162 638l1 -6 0 -255 1 0M164 640l0 -285M164 377l2 0M166 633l0 -278M166 633l1 0"/>
<path stroke="red" d="M167 636l0 -259 2 0M169 633l0 -275M169 633l1 0M170 635l0 -277M170 382l1 119M171 633l0 -132M171 633l1 0M172 635l0 -258 1 0M173 633l0 -268M173 633l1 0M174 634l0 -2M174 633l1 0 0 -256 1 0M176 633l0 -256M176 633l1 0 0 -256 1 0"/>
<path stroke="red" d="M178 634l0 -257M178 633l1 0 0 -243 1 -3 0 -16M180 377l1 0M181 634l0 -268M181 633l1 0 1 -1M183 633l0 -267M183 633l1 0 0 -256 2 0M186 633l0 -256 1 0M187 634l0 -268M187 633l2 0 0 -267M189 633l1 0 0 -256 2 0M192 634l0 -257M192 633l1 0"/>
<path stroke="red" d="M193 633l0 -256 2 0M195 634l0 -257 1 0M196 634l0 -257M196 633l2 0M198 635l0 -267M198 633l1 0 0 -177 1 -24 0 -55 1 0M201 633l0 -256 1 0M202 378l0 -1M202 378l1 4M203 634l0 -252M203 633l1 0 0 -262M204 377l2 0M206 634l0 -268"/>
<path stroke="red" d="M206 633l1 0 0 -267M207 633l2 0 0 -256 1 0M210 633l0 -256M210 632l1 -1M211 632l0 -255 1 0M212 634l0 -268M212 633l1 0 0 -256 1 0M214 633l0 -267M214 633l1 0 0 -256 1 0M216 634l0 -257M216 633l2 0 0 -256 1 0M219 619l0 -242M219 619l1 5"/>
<path stroke="red" d="M220 634l0 -257 1 0M221 634l0 -257M221 633l2 0M223 635l0 -267M223 377l1 0M224 633l0 -275M224 633l2 0M226 635l0 -277M226 633l1 0M227 635l0 -258 2 0M229 633l0 -272M229 633l1 0M230 638l0 -261 2 0M232 640l0 -285M232 377l1 0"/>
<path stroke="red" d="M233 633l0 -278M233 633l2 0M235 637l0 -276M235 633l1 0M236 638l0 -259 1 0 0 -2 1 0M238 640l0 -285M238 377l1 0M239 378l0 -23 1 0M240 633l0 -278M240 633l1 0M241 636l0 -259 2 0M243 633l0 -275M243 633l1 0M244 635l0 -277M244 633l2 0"/>
<path stroke="red" d="M246 635l0 -258 1 0M247 633l0 -256M247 432l1 -16 0 -39 1 0M249 633l0 -275M249 633l1 0M250 635l0 -258 1 0M251 633l0 -275M251 633l1 0M252 635l0 -258 1 0M253 633l0 -272M253 633l2 0M255 638l0 -261 1 0M256 633l0 -278M256 633l1 0"/>
<path stroke="red" d="M257 640l0 -263 1 0M258 633l0 -278M258 633l1 0M259 635l0 -2M259 635l1 1M260 637l0 -276M260 633l1 0M261 638l0 -261 2 0M263 640l0 -285M263 377l1 0M264 633l0 -278M264 633l2 0M266 636l0 -259 1 0M267 633l0 -275M267 633l2 0M269 635l0 -277"/>
<path stroke="red" d="M269 633l1 0M270 635l0 -258 2 0M272 634l0 -269M272 633l1 0 0 -254 1 0 0 -2 1 0M275 633l0 -256 1 0M276 633l0 -256M276 633l1 -2M277 634l0 -3M277 633l1 0 0 -262M278 377l1 0 1 1M280 634l0 -268M280 633l1 0 0 -267M281 633l2 0"/>
<path stroke="red" d="M283 633l0 -256 1 0M284 633l0 -256M284 393l1 -4 0 -12 1 0M286 634l0 -268M286 633l1 0 0 -261 1 -2M288 633l0 -267M288 633l1 0 0 -256 1 0M290 634l0 -257M290 633l2 0 0 -256 1 0M293 634l0 -257M293 633l1 0 0 -256 1 0M295 634l0 -257"/>
<path stroke="red" d="M295 633l1 0M296 635l0 -210 1 -14M297 633l0 -265M297 633l1 0 0 -256 2 0M300 633l0 -256 1 0M301 634l0 -257M301 633l2 0 0 -262M303 377l1 0M304 634l0 -268M304 633l2 0 0 -267M306 633l1 0 0 -256 2 0M309 633l0 -256 1 0M310 634l0 -268"/>
<path stroke="red" d="M310 633l2 0 0 -267M312 633l1 0 0 -250 1 -2 0 -4 1 0M315 634l0 -257M315 633l1 0 0 -2 1 0 0 -254 1 0M318 634l0 -257 2 0M320 634l0 -257M320 633l1 0M321 635l0 -267M321 377l2 0M323 633l0 -275M323 633l1 0M324 635l0 -277M324 384l1 121"/>
<path stroke="red" d="M325 633l0 -128M325 633l1 0M326 635l0 -258 1 0M327 633l0 -272M327 633l2 0M329 638l0 -261 1 0M330 633l0 -278M330 633l1 0M331 640l0 -263 1 0M332 633l0 -278M332 633l1 0M333 637l0 -258 1 0M334 633l0 -272M334 633l1 0M335 638l0 -261"/>
<path stroke="red" d="M335 377l1 0M336 378l0 -1 1 -4M337 640l0 -285M337 377l1 0M338 633l0 -278M338 633l2 0M340 636l0 -259 1 0M341 633l0 -275M341 633l2 0M343 635l0 -277M343 633l1 0M344 635l0 -258 2 0M346 635l0 -258M346 633l1 0 0 -256 2 0M349 633l0 -256"/>
<path stroke="red" d="M349 377l1 0M350 634l0 -257M350 633l2 0 0 -262M352 377l1 0M353 625l0 -259M353 625l1 8M354 634l0 -3M354 633l1 0 0 -267M355 633l2 0 0 -256 1 0M358 633l0 -256M358 378l1 0 0 -1 1 0M360 634l0 -268M360 633l1 0 0 -267M361 633l2 0"/>
<path stroke="red" d="M363 633l0 -256 1 0M364 634l0 -257M364 633l2 0 0 -256 1 0M367 634l0 -257M367 633l1 0 0 -256 1 0M369 633l0 -256M369 633l1 0 0 -254 1 0M371 382l0 -14M371 377l1 0M372 633l0 -275M372 633l1 0M373 635l0 -227 1 -8M374 633l0 -275"/>
<path stroke="red" d="M374 633l1 0M375 635l0 -258 2 0M377 633l0 -272M377 633l1 0M378 638l0 -261 2 0M380 640l0 -285M380 377l1 0M381 633l0 -278M381 633l2 0M383 637l0 -276M383 633l1 0M384 638l0 -261 2 0M386 640l0 -285M386 377l1 0M387 633l0 -278"/>
<path stroke="red" d="M387 633l2 0M389 636l0 -259 1 0M390 633l0 -275M390 633l2 0M392 635l0 -277M392 633l1 0M393 635l0 -7 1 -53 0 -198 1 0M395 633l0 -256 2 0M397 633l0 -275M397 633l1 0M398 635l0 -277M398 633l2 0M400 635l0 -258 1 0M401 633l0 -272"/>
<path stroke="red" d="M401 633l2 0M403 638l0 -261 1 0M404 633l0 -278M404 633l1 0M405 640l0 -263 1 0M406 633l0 -278M406 633l1 0M407 637l0 -260 1 0M408 633l0 -272M408 633l1 0M409 638l0 -261 1 0M410 633l0 -278M410 633l1 0M411 640l0 -263 1 0M412 633l0 -278"/>
<path stroke="red" d="M412 633l1 0M413 634l0 -1M413 634l1 1M414 636l0 -259 1 0M415 633l0 -275M415 633l2 0M417 635l0 -277M417 633l1 0M418 635l0 -258 2 0M420 634l0 -257M420 633l1 0 0 -256 2 0M423 633l0 -256 1 0M424 634l0 -257M424 633l2 0 0 -262"/>
<path stroke="red" d="M426 377l1 0M427 634l0 -268M427 633l2 0 0 -267M429 633l1 0 0 -210 1 -12 0 -34 1 0M432 633l0 -256 1 0 1 1M434 634l0 -268M434 633l1 0 0 -267M435 633l2 0 0 -256 1 0M438 634l0 -257M438 633l2 0 0 -256 1 0M441 634l0 -257M441 633l1 0"/>
<path stroke="red" d="M442 633l0 -256 1 0M443 633l0 -256M443 633l2 0 0 -78M445 633l1 0 0 -256 1 0M447 633l0 -256M447 633l1 0 0 -256 1 0M449 633l0 -256M449 633l1 0 0 -122 1 -51 0 -89M451 377l1 0M452 633l0 -267M452 633l2 0 0 -267M454 633l1 0 0 -256"/>
<path stroke="red" d="M455 377l2 0M457 633l0 -256 1 0M458 633l0 -267M458 633l2 0 0 -267M460 633l1 0 0 -256 2 0M463 633l0 -256M463 633l1 0 0 -255 1 0 0 -1 1 0M466 633l0 -256 1 0M467 633l0 -256M467 633l2 0 0 -265M469 377l1 0 0 -11 1 -5M471 633l0 -275"/>
<path stroke="red" d="M471 633l1 0M472 635l0 -277M472 633l2 0M474 635l0 -258 1 0M475 633l0 -272M475 633l2 0M477 638l0 -261 1 0M478 640l0 -285M478 429l1 -22 0 -30 1 0M480 633l0 -278M480 633l1 0M481 637l0 -260 1 0M482 633l0 -272M482 633l1 0M483 638l0 -261"/>
<path stroke="red" d="M483 377l1 0M484 633l0 -278M484 633l1 0M485 640l0 -263 1 0M486 633l0 -278M486 633l1 0M487 636l0 -256 1 -1 0 -2 1 0M489 633l0 -275M489 633l1 0M490 635l0 -2M490 635l1 0 0 -277M491 633l1 0M492 635l0 -258 2 0M494 633l0 -256"/>
<path stroke="red" d="M494 377l1 0M495 633l0 -275M495 633l2 0M497 635l0 -277M497 633l1 0M498 635l0 -258 2 0M500 633l0 -272M500 633l1 0M501 638l0 -261 2 0M503 640l0 -285M503 377l1 0M504 633l0 -278M504 633l2 0M506 637l0 -276M506 633l1 0M507 638l0 -244"/>
<path stroke="red" d="M507 394l1 -5 0 -12 1 0M509 640l0 -285M509 377l1 0 1 1M511 633l0 -278M511 633l1 0M512 636l0 -259 2 0M514 633l0 -275M514 633l1 0M515 635l0 -277M515 633l2 0M517 635l0 -258 1 0M518 634l0 -257M518 634l1 0 0 -1 1 0 0 -256 1 0"/>
<path stroke="red" d="M521 633l0 -256M521 633l1 0 0 -256 1 0M523 633l0 -256M523 633l1 0 0 -254 1 0M525 381l0 -10M525 377l1 0M526 633l0 -267M526 633l1 0 0 -155 1 -35M528 633l0 -267M528 633l1 0 0 -256 2 0M531 633l0 -256 1 0M532 633l0 -267M532 633l2 0"/>
<path stroke="red" d="M534 633l0 -267M534 633l1 0 0 -256 2 0M537 633l0 -256M537 633l1 0 0 -256 2 0M540 633l0 -256 1 0M541 633l0 -256M541 633l2 0M543 635l0 -275M543 377l1 0M544 633l0 -275M544 633l2 0M546 635l0 -277M546 633l1 0M547 635l0 -6 1 -44"/>
<path stroke="red" d="M548 585l0 -208 1 0M549 633l0 -272M549 633l2 0M551 638l0 -261 1 0M552 640l0 -285M552 378l1 0 0 -1 1 0M554 633l0 -278M554 633l1 0M555 637l0 -276M555 598l1 34M556 633l0 -1M556 633l1 0M557 638l0 -261 1 0M558 633l0 -278M558 633l1 0"/>
<path stroke="red" d="M559 640l0 -263 1 0M560 633l0 -278M560 633l1 0M561 636l0 -259 1 0M562 378l0 -1 1 0M563 633l0 -275M563 633l1 0M564 635l0 -255 1 -1M565 633l0 -275M565 633l1 0M566 635l0 -258 1 0M567 378l0 -6 1 -4M568 634l0 -269M568 633l1 0"/>
<path stroke="red" d="M569 633l0 -256 2 0M571 633l0 -256 1 0M572 634l0 -257M572 633l2 0 0 -262M574 377l1 0M575 634l0 -268M575 633l2 0 0 -267M577 633l1 0 0 -256 2 0M580 633l0 -256 1 0M581 634l0 -268M581 633l2 0 0 -267M583 633l1 0 0 -210 1 -12"/>
<path stroke="red" d="M585 411l0 -34 1 0M586 634l0 -257M586 633l2 0 0 -256 1 0M589 634l0 -257M589 378l1 0 0 -1 1 0M591 634l0 -257M591 633l1 0M592 635l0 -267M592 633l2 0 0 -256 1 0M595 633l0 -256M595 633l1 0 0 -256 1 0M597 634l0 -257M597 633l1 0"/>
<path stroke="red" d="M598 633l0 -256 1 0M599 381l0 -10M599 377l1 0M600 634l0 -268M600 633l1 0 0 -254 1 0M602 633l0 -267M602 633l1 0 0 -256 1 0M604 624l0 -247M604 624l1 8M605 633l0 -256 1 0M606 634l0 -268M606 633l2 0 0 -267M608 633l1 0 0 -256"/>
<path stroke="red" d="M609 377l2 0M611 634l0 -257M611 633l1 0 0 -256 2 0M614 634l0 -257 1 0M615 634l0 -257M615 633l2 0M617 635l0 -267M617 377l1 0M618 633l0 -275M618 633l2 0M620 635l0 -277M620 633l1 0M621 635l0 -256 1 -1 0 -1 1 0M623 633l0 -272"/>
<path stroke="red" d="M623 633l1 0M624 638l0 -5M624 638l1 -6 0 -255 1 0M626 640l0 -285M626 377l2 0M628 633l0 -278M628 633l1 0M629 637l0 -276M629 633l2 0M631 638l0 -261 1 0M632 640l0 -285M632 430l1 -23 0 -30 1 0M634 633l0 -278M634 633l1 0M635 636l0 -259"/>
<path stroke="red" d="M635 377l1 0M636 378l0 -1 1 0M637 633l0 -275M637 633l1 0M638 635l0 -258 1 0M639 633l0 -275M639 633l1 0M640 635l0 -258 1 0M641 633l0 -256M641 633l1 0 0 -256 1 0M643 633l0 -275M643 633l1 0M644 635l0 -2M644 635l1 0 0 -277M645 633l1 0"/>
<path stroke="red" d="M646 635l0 -258 2 0M648 633l0 -272M648 633l1 0M649 638l0 -261 2 0M651 640l0 -285M651 377l1 0M652 633l0 -278M652 633l2 0M654 637l0 -276M654 633l1 0M655 638l0 -261 2 0M657 640l0 -285M657 377l1 0M658 633l0 -278M658 633l2 0"/>
<path stroke="red" d="M660 636l0 -259 1 0M661 631l0 -273M661 631l1 1M662 633l0 -1M662 633l1 0M663 635l0 -277M663 633l2 0M665 635l0 -258 1 0M666 634l0 -269M666 633l2 0 0 -256 1 0M669 633l0 -256M669 404l1 -7 0 -20 1 0M671 634l0 -257M671 633l1 0"/>
<path stroke="red" d="M672 633l0 -262M672 375l1 1M673 381l0 -5M673 377l1 0M674 634l0 -268M674 633l1 0 0 -256 1 0M676 633l0 -267M676 633l1 0 0 -256 1 0M678 633l0 -256M678 633l1 0 0 -256 1 0M680 634l0 -268M680 633l1 0 0 -155 1 -34M682 633l0 -267"/>
<path stroke="red" d="M682 633l1 0 0 -256 2 0M685 634l0 -257M685 633l1 0 0 -256 2 0M688 634l0 -257 1 0M689 634l0 -257M689 633l2 0M691 635l0 -267M691 633l1 0 0 -256 2 0M694 633l0 -256 1 0M695 634l0 -257M695 633l2 0 0 -262M697 377l1 0M698 634l0 -268"/>
<path stroke="red" d="M698 633l2 0 0 -267M700 633l1 0 0 -3M701 631l1 -3 0 -251 1 0M703 633l0 -256 2 0M705 634l0 -268M705 633l1 0 0 -267M706 633l2 0 0 -256 1 0M709 634l0 -257M709 633l2 0 0 -256 1 0M712 634l0 -257M712 633l1 0 0 -256 1 0M714 634l0 -257"/>
<path stroke="red" d="M714 633l1 0M715 635l0 -258 1 0M716 382l0 -14M716 377l1 0M717 633l0 -275M717 633l1 0M718 635l0 -254 1 -1M719 633l0 -275M719 633l1 0M720 635l0 -258 1 0M721 378l0 -8 1 -4M722 633l0 -272M722 633l1 0M723 638l0 -261 2 0M725 640l0 -285"/>
<path stroke="red" d="M725 377l1 0M726 633l0 -278M726 633l2 0M728 637l0 -276M728 633l1 0M729 638l0 -261 2 0M731 640l0 -285M731 377l1 0M732 633l0 -278M732 633l2 0M734 636l0 -259 1 0M735 633l0 -275M735 633l2 0M737 635l0 -277M737 633l1 0M738 635l0 -245"/>
<path stroke="red" d="M738 390l1 -3 0 -10 1 0M740 635l0 -258M740 633l2 0 0 -256 1 0M743 633l0 -256M743 378l1 0 0 -1 1 0M745 634l0 -257M745 633l1 0 0 -262M746 378l1 0 0 -1 1 0M748 634l0 -268M748 633l1 0 0 -261 1 -2M750 633l0 -267M750 633l1 0 0 -256"/>
<path stroke="red" d="M751 377l1 0M752 633l0 -256M752 633l1 0 0 -256 1 0M754 634l0 -268M754 633l1 0 0 -254 1 0M756 633l0 -267M756 633l1 0 0 -256 1 0M758 625l0 -248M758 625l1 1M759 634l0 -8M759 633l1 0 0 -256 2 0M762 634l0 -257 1 0M763 633l0 -256"/>
<path stroke="red" d="M763 633l2 0 0 -265M765 377l1 0M766 633l0 -275M766 633l2 0M768 635l0 -277M768 633l1 0M769 635l0 -258 2 0M771 633l0 -272M771 633l1 0M772 638l0 -261 2 0M774 640l0 -285M774 377l1 0M775 633l0 -278M775 633l2 0M777 637l0 -276"/>
<path stroke="red" d="M777 633l1 0M778 638l0 -5M778 638l1 -6 0 -255 1 0M780 640l0 -285M780 377l2 0M782 633l0 -278M782 633l1 0M783 636l0 -259 2 0M785 633l0 -275M785 633l1 0M786 635l0 -277M786 382l1 119M787 633l0 -132M787 633l1 0M788 635l0 -258"/>
<path stroke="red" d="M788 377l1 0M789 633l0 -256M789 633l1 0 0 -256 1 0M791 633l0 -275M791 633l1 0M792 635l0 -258 1 0M793 633l0 -275M793 633l1 0M794 635l0 -258 1 0M795 633l0 -272M795 633l2 0M797 638l0 -261 1 0M798 378l0 -1 1 -4M799 640l0 -285"/>
<path stroke="red" d="M799 377l1 0M800 633l0 -278M800 633l2 0M802 637l0 -276M802 633l1 0M803 638l0 -261 2 0M805 640l0 -285M805 377l1 0M806 633l0 -278M806 633l2 0M808 636l0 -259 1 0M809 633l0 -275M809 633l2 0M811 635l0 -277M811 633l1 0M812 635l0 -257"/>
<path stroke="red" d="M812 378l1 0 0 -1 1 0M814 634l0 -257M814 633l1 0 0 -177 1 -24 0 -55 1 0M817 633l0 -256 1 0M818 378l0 -1M818 378l1 4M819 634l0 -252M819 633l1 0 0 -262M820 377l2 0M822 634l0 -268M822 633l1 0 0 -267M823 633l2 0 0 -256 1 0M826 633l0 -256"/>
<path stroke="red" d="M826 632l1 -1M827 632l0 -255 1 0M828 634l0 -268M828 633l1 0 0 -256 1 0M830 633l0 -267M830 633l1 0 0 -256 1 0M832 634l0 -257M832 633l2 0 0 -256 1 0M835 619l0 -242M835 619l1 5M836 634l0 -257 1 0M837 633l0 -256M837 633l2 0"/>
<path stroke="red" d="M839 633l0 -78M839 633l1 0 0 -256 2 0M842 633l0 -256 1 0M843 633l0 -256M843 633l2 0 0 -262M845 377l1 0M846 633l0 -267M846 633l2 0 0 -267M848 633l1 0 0 -255 1 -1 1 0M851 633l0 -256 1 0M852 633l0 -267M852 633l2 0 0 -267M854 633l1 0"/>
<path stroke="red" d="M855 633l0 -3 1 -2 0 -251 1 0M857 633l0 -256M857 633l2 0 0 -256 1 0M860 633l0 -256M860 381l1 -1 0 -3 1 0M862 633l0 -256M862 633l1 0 0 -265M863 380l1 -1 0 -2 1 0M865 633l0 -275M865 633l1 0M866 635l0 -258 1 0M867 633l0 -275"/>
<path stroke="red" d="M867 633l1 0M868 635l0 -258 1 0M869 633l0 -272M869 633l2 0M871 638l0 -261 1 0M872 633l0 -278M872 633l1 0M873 640l0 -263 1 0M874 633l0 -278M874 633l1 0M875 635l0 -2M875 635l1 1M876 637l0 -276M876 633l1 0M877 638l0 -261 2 0"/>
<path stroke="red" d="M879 640l0 -285M879 377l1 0M880 633l0 -278M880 633l2 0M882 636l0 -259 1 0M883 633l0 -275M883 633l2 0M885 635l0 -277M885 633l1 0M886 635l0 -258 2 0M888 633l0 -256 1 0M889 633l0 -275M889 633l2 0M891 635l0 -277M891 633l1 0"/>
<path stroke="red" d="M892 635l0 -243 1 -4 0 -11 1 0M894 633l0 -272M894 633l2 0M896 638l0 -261 1 0M897 640l0 -285M897 377l2 0M899 633l0 -278M899 633l1 0M900 637l0 -276M900 633l2 0M902 638l0 -261 1 0M903 633l0 -278M903 633l1 0M904 640l0 -263 1 0"/>
<path stroke="red" d="M905 633l0 -278M905 633l1 0M906 636l0 -259 1 0M907 378l0 -1 1 0M908 633l0 -275M908 633l1 0M909 635l0 -257 1 0M910 633l0 -275M910 633l1 0M911 635l0 -258 1 0M912 598l0 -221M912 598l1 14M913 634l0 -22M913 633l1 0 0 -256 2 0"/>
<path stroke="red" d="M916 633l0 -256 1 0M917 633l0 -256M917 633l2 0 0 -262M919 377l1 0M920 633l0 -267M920 633l2 0 0 -267M922 633l1 0 0 -256 2 0M925 633l0 -256 1 0M926 633l0 -267M926 633l2 0 0 -267M928 633l1 0 0 -250 1 -2 0 -4 1 0M931 633l0 -256"/>
<path stroke="red" d="M931 633l1 0 0 -2 1 0 0 -254 1 0M934 633l0 -256 2 0M936 633l0 -256M936 633l1 0M937 635l0 -275M937 377l2 0M939 633l0 -275M939 633l1 0M940 635l0 -277M940 384l1 121M941 633l0 -128M941 633l1 0M942 635l0 -258 1 0M943 633l0 -272"/>
<path stroke="red" d="M943 633l2 0M945 638l0 -261 1 0M946 633l0 -278M946 633l1 0M947 640l0 -263 1 0M948 633l0 -278M948 633l1 0M949 637l0 -258 1 0M950 633l0 -272M950 633l1 0M951 638l0 -261 1 0M952 378l0 -1 1 -4M953 640l0 -285M953 377l1 0M954 633l0 -278"/>
<path stroke="red" d="M954 633l2 0M956 636l0 -259 1 0M957 633l0 -275M957 633l2 0M959 635l0 -277M959 633l1 0M960 635l0 -258 2 0M962 634l0 -269M962 633l1 0 0 -256 2 0M965 633l0 -256 1 0M966 634l0 -257M966 633l2 0 0 -262M968 377l1 0M969 626l0 -260"/>
<path stroke="red" d="M969 626l1 7M970 634l0 -3M970 633l1 0 0 -267M971 633l2 0 0 -256 1 0"/>
<path stroke="blue" d="M50 23l46 0"/>
<text stroke="none" fill="black" font-size="16" x="106" y="32">
ideal_parity
</text>
<path stroke="blue" d="M50 633l0 -307M50 531l2 0M52 595l0 -437M52 480l1 0M53 618l0 -420M53 480l2 0M55 618l0 -420M55 429l1 0M56 618l0 -471M56 480l2 0M58 618l0 -420M58 429l1 0M59 567l0 -420M59 377l1 0M60 567l0 -420M60 429l1 0M61 567l0 -420M61 377l1 0"/>
<path stroke="blue" d="M62 607l0 -419M62 326l1 0M63 480l0 -347M63 480l1 0M64 618l0 -420M64 429l1 0M65 567l0 -420M65 377l1 0M66 567l0 -420M66 429l1 0M67 567l0 -420M67 377l2 0M69 607l0 -419M69 429l1 0M70 567l0 -420M70 377l2 0M72 607l0 -419M72 377l1 0"/>
<path stroke="blue" d="M73 607l0 -419M73 326l2 0M75 556l0 -419M75 480l1 0M76 618l0 -420M76 429l2 0M78 567l0 -420M78 429l1 0M79 567l0 -420M79 377l2 0M81 607l0 -419M81 429l1 0M82 567l0 -420M82 377l2 0M84 607l0 -419M84 377l1 0M85 607l0 -419M85 326l2 0"/>
<path stroke="blue" d="M87 607l0 -483M87 429l2 0M89 567l0 -420M89 377l1 0M90 607l0 -419M90 377l2 0M92 607l0 -419M92 326l1 0M93 556l0 -419M93 377l2 0M95 607l0 -419M95 326l1 0M96 556l0 -419M96 275l1 0M97 556l0 -419M97 326l1 0M98 556l0 -419M98 275l1 0"/>
<path stroke="blue" d="M99 597l0 -442M99 224l1 0M100 607l0 -460M100 480l1 0M101 618l0 -420M101 429l1 0M102 567l0 -420M102 377l1 0M103 567l0 -420M103 429l1 0M104 567l0 -420M104 377l1 0M105 607l0 -419M105 257l1 69M106 567l0 -374M106 429l1 0M107 567l0 -420"/>
<path stroke="blue" d="M107 377l2 0M109 607l0 -419M109 377l1 0M110 607l0 -419M110 326l2 0M112 607l0 -483M112 429l1 0M113 567l0 -420M113 377l2 0M115 607l0 -419M115 377l1 0M116 607l0 -419M116 326l2 0M118 556l0 -419M118 377l1 0M119 607l0 -419M119 326l2 0"/>
<path stroke="blue" d="M121 556l0 -419M121 326l1 0M122 556l0 -419M122 275l2 0M124 625l0 -470M124 429l1 0M125 493l0 -64M125 493l1 74 0 -420M126 377l1 0M127 607l0 -419M127 377l2 0M129 607l0 -419M129 326l1 0M130 556l0 -419M130 377l2 0M132 607l0 -419"/>
<path stroke="blue" d="M132 326l1 0M133 556l0 -419M133 326l2 0M135 556l0 -419M135 275l1 0M136 597l0 -442M136 224l1 0M137 584l0 -443M137 377l1 0M138 607l0 -419M138 326l1 0M139 556l0 -419M139 275l1 0M140 556l0 -419M140 326l1 0M141 556l0 -419M141 275l1 0"/>
<path stroke="blue" d="M142 597l0 -442M142 224l1 0M143 606l0 -437M143 326l1 0M144 556l0 -419M144 275l2 0M146 597l0 -442M146 275l1 0M147 597l0 -442M147 224l2 0M149 629l0 -456M149 480l1 0M150 618l0 -420M150 429l2 0M152 567l0 -420M152 429l1 0M153 567l0 -420"/>
<path stroke="blue" d="M153 377l2 0M155 607l0 -419M155 429l1 0M156 567l0 -420M156 377l2 0M158 607l0 -419M158 377l1 0M159 607l0 -419M159 326l2 0M161 607l0 -483M161 429l1 0M162 567l0 -420M162 377l2 0M164 607l0 -419M164 377l2 0M166 607l0 -419M166 326l1 0"/>
<path stroke="blue" d="M167 556l0 -419M167 377l2 0M169 607l0 -419M169 326l1 0M170 556l0 -419M170 326l2 0M172 556l0 -419M172 275l1 0M173 597l0 -442M173 224l1 0M174 625l0 -442M174 429l1 0M175 567l0 -420M175 377l1 0M176 607l0 -419M176 326l1 0M177 607l0 -419"/>
<path stroke="blue" d="M177 377l1 0M178 607l0 -419M178 326l1 0M179 556l0 -419M179 275l1 0M180 515l0 -373M180 377l1 0M181 607l0 -419M181 326l1 0M182 556l0 -419M182 206l1 69M183 556l0 -419M183 326l1 0M184 556l0 -419M184 275l2 0M186 597l0 -456M186 377l1 0"/>
<path stroke="blue" d="M187 607l0 -419M187 326l2 0M189 556l0 -419M189 326l1 0M190 556l0 -419M190 275l2 0M192 606l0 -451M192 326l1 0M193 556l0 -419M193 275l2 0M195 597l0 -442M195 275l1 0M196 597l0 -442M196 224l2 0M198 615l0 -488M198 429l1 0M199 567l0 -420"/>
<path stroke="blue" d="M199 377l2 0M201 607l0 -419M201 377l1 0M202 442l0 -65M202 442l1 73M203 607l0 -419M203 326l1 0M204 556l0 -419M204 377l2 0M206 607l0 -419M206 326l1 0M207 556l0 -419M207 326l2 0M209 556l0 -419M209 275l1 0M210 597l0 -456M210 377l2 0"/>
<path stroke="blue" d="M212 607l0 -419M212 326l1 0M213 556l0 -419M213 275l1 0M214 556l0 -419M214 326l1 0M215 556l0 -419M215 275l1 0M216 597l0 -442M216 224l1 0M217 606l0 -437M217 326l1 0M218 556l0 -419M218 275l1 0M219 597l0 -442M219 224l1 0M220 597l0 -437"/>
<path stroke="blue" d="M220 275l1 0M221 597l0 -442M221 224l2 0M223 615l0 -483M223 377l1 0M224 607l0 -419M224 326l2 0M226 556l0 -419M226 326l1 0M227 556l0 -419M227 275l2 0M229 606l0 -451M229 326l1 0M230 556l0 -419M230 275l2 0M232 597l0 -442M232 275l1 0"/>
<path stroke="blue" d="M233 597l0 -442M233 224l2 0M235 615l0 -470M235 326l1 0M236 556l0 -419M236 275l2 0M238 597l0 -442M238 275l1 0M239 597l0 -442M239 224l2 0M241 629l0 -474M241 275l2 0M243 597l0 -442M243 224l1 0M244 620l0 -475M244 224l2 0M246 615l0 -442"/>
<path stroke="blue" d="M246 173l1 0M247 633l0 -460M247 480l2 0M249 618l0 -420M249 429l1 0M250 567l0 -420M250 377l1 0M251 567l0 -420M251 429l1 0M252 567l0 -420M252 377l1 0M253 607l0 -419M253 326l1 0M254 567l0 -374M254 429l1 0M255 567l0 -420M255 377l1 0"/>
<path stroke="blue" d="M256 607l0 -419M256 326l1 0M257 607l0 -419M257 377l1 0M258 607l0 -419M258 326l1 0M259 556l0 -419M259 206l1 69M260 607l0 -483M260 429l1 0M261 567l0 -420M261 377l2 0M263 607l0 -419M263 377l1 0M264 607l0 -419M264 326l2 0M266 556l0 -419"/>
<path stroke="blue" d="M266 377l1 0M267 607l0 -419M267 326l2 0M269 556l0 -419M269 326l1 0M270 556l0 -419M270 275l2 0M272 625l0 -470M272 429l1 0M273 567l0 -420M273 377l2 0M275 607l0 -419M275 377l1 0M276 607l0 -419M276 326l2 0M278 556l0 -419M278 377l1 0"/>
<path stroke="blue" d="M279 442l0 -65M279 442l1 73M280 607l0 -419M280 326l1 0M281 556l0 -419M281 326l2 0M283 556l0 -419M283 275l1 0M284 597l0 -456M284 377l2 0M286 607l0 -419M286 326l1 0M287 556l0 -419M287 326l2 0M289 556l0 -419M289 275l1 0M290 597l0 -442"/>
<path stroke="blue" d="M290 224l1 0M291 606l0 -437M291 326l1 0M292 556l0 -419M292 275l1 0M293 597l0 -442M293 224l1 0M294 597l0 -437M294 275l1 0M295 597l0 -442M295 224l1 0M296 615l0 -442 1 0M297 607l0 -480M297 429l1 0M298 567l0 -420M298 377l2 0"/>
<path stroke="blue" d="M300 607l0 -419M300 377l1 0M301 607l0 -419M301 326l2 0M303 556l0 -419M303 377l1 0M304 607l0 -419M304 326l2 0M306 556l0 -419M306 326l1 0M307 556l0 -419M307 275l2 0M309 597l0 -456M309 377l1 0M310 607l0 -419M310 326l2 0M312 556l0 -419"/>
<path stroke="blue" d="M312 326l1 0M313 556l0 -419M313 275l2 0M315 606l0 -451M315 326l1 0M316 556l0 -419M316 275l2 0M318 597l0 -442M318 275l2 0M320 597l0 -442M320 224l1 0M321 615l0 -483M321 377l2 0M323 607l0 -419M323 326l1 0M324 556l0 -419M324 326l2 0"/>
<path stroke="blue" d="M326 556l0 -419M326 275l1 0M327 597l0 -442M327 224l1 0M328 606l0 -437M328 326l1 0M329 556l0 -419M329 275l1 0M330 597l0 -442M330 224l1 0M331 597l0 -437M331 275l1 0M332 597l0 -442M332 224l1 0M333 615l0 -442 1 0M334 601l0 -456"/>
<path stroke="blue" d="M334 326l1 0M335 556l0 -419M335 275l1 0M336 597l0 -442 1 69M337 597l0 -437M337 275l1 0M338 597l0 -442M338 224l2 0M340 629l0 -474M340 275l1 0M341 597l0 -442M341 224l2 0M343 620l0 -475M343 224l1 0M344 615l0 -442 2 0M346 633l0 -460"/>
<path stroke="blue" d="M346 429l1 0M347 567l0 -420M347 377l2 0M349 607l0 -419M349 377l1 0M350 607l0 -419M350 326l2 0M352 556l0 -419M352 377l1 0M353 607l0 -419M353 326l2 0M355 556l0 -419M355 326l1 0M356 391l0 -65M356 391l1 73M357 556l0 -419M357 275l1 0"/>
<path stroke="blue" d="M358 597l0 -456M358 377l2 0M360 607l0 -419M360 326l1 0M361 556l0 -419M361 326l2 0M363 556l0 -419M363 275l1 0M364 606l0 -451M364 326l2 0M366 556l0 -419M366 275l1 0M367 597l0 -442M367 224l1 0M368 597l0 -437M368 275l1 0M369 597l0 -442"/>
<path stroke="blue" d="M369 224l1 0M370 615l0 -442 1 0M371 574l0 -442M371 377l1 0M372 607l0 -419M372 326l1 0M373 556l0 -419M373 275l1 0M374 556l0 -419M374 326l1 0M375 556l0 -419M375 275l2 0M377 606l0 -451M377 326l1 0M378 556l0 -419M378 275l2 0"/>
<path stroke="blue" d="M380 597l0 -442M380 275l1 0M381 597l0 -442M381 224l2 0M383 615l0 -470M383 326l1 0M384 556l0 -419M384 275l2 0M386 597l0 -442M386 275l1 0M387 597l0 -442M387 224l2 0M389 629l0 -474M389 275l1 0M390 597l0 -442M390 224l2 0M392 620l0 -475"/>
<path stroke="blue" d="M392 224l1 0M393 615l0 -442 2 0M395 633l0 -460M395 377l2 0M397 607l0 -419M397 326l1 0M398 556l0 -419M398 326l2 0M400 556l0 -419M400 275l1 0M401 606l0 -451M401 326l2 0M403 556l0 -419M403 275l1 0M404 597l0 -442M404 224l1 0"/>
<path stroke="blue" d="M405 597l0 -437M405 275l1 0M406 597l0 -442M406 224l1 0M407 615l0 -442 1 0M408 601l0 -456M408 326l1 0M409 556l0 -419M409 275l1 0M410 597l0 -442M410 224l1 0M411 597l0 -437M411 275l1 0M412 597l0 -442M412 224l1 0M413 615l0 -391"/>
<path stroke="blue" d="M413 615l1 -442M414 629l0 -474M414 275l1 0M415 597l0 -442M415 224l2 0M417 620l0 -475M417 224l1 0M418 615l0 -442 2 0M420 633l0 -460M420 326l1 0M421 556l0 -419M421 275l2 0M423 597l0 -442M423 275l1 0M424 597l0 -442M424 224l2 0"/>
<path stroke="blue" d="M426 629l0 -474M426 275l1 0M427 597l0 -442M427 224l2 0M429 620l0 -475M429 224l1 0M430 615l0 -442 2 0M432 633l0 -460M432 275l1 0M433 340l0 -65M433 340l1 73M434 597l0 -442M434 224l1 0M435 620l0 -475M435 224l2 0M437 615l0 -442"/>
<path stroke="blue" d="M437 173l1 0M438 633l0 -460M438 224l2 0M440 615l0 -442 1 0M441 633l0 -460 2 0M443 633l0 -460M443 633l2 0 0 -307M445 531l1 0M446 595l0 -437M446 480l1 0M447 618l0 -420M447 429l1 0M448 618l0 -420M448 480l1 0M449 618l0 -420"/>
<path stroke="blue" d="M449 429l1 0M450 567l0 -420M450 377l1 0M451 618l0 -374M451 480l1 0M452 618l0 -420M452 429l2 0M454 567l0 -420M454 429l1 0M455 567l0 -420M455 377l2 0M457 607l0 -474M457 480l1 0M458 618l0 -420M458 429l2 0M460 567l0 -420M460 429l1 0"/>
<path stroke="blue" d="M461 567l0 -420M461 377l2 0M463 607l0 -419M463 429l1 0M464 567l0 -420M464 377l2 0M466 607l0 -419M466 377l1 0M467 607l0 -419M467 326l2 0M469 556l0 -419M469 480l1 0M470 618l0 -420M470 429l2 0M472 567l0 -420M472 429l2 0M474 567l0 -420"/>
<path stroke="blue" d="M474 377l1 0M475 607l0 -419M475 429l2 0M477 567l0 -420M477 377l1 0M478 607l0 -419M478 377l2 0M480 607l0 -419M480 326l1 0M481 556l0 -419M481 275l1 0M482 607l0 -483M482 429l1 0M483 567l0 -420M483 377l1 0M484 607l0 -419M484 326l1 0"/>
<path stroke="blue" d="M485 607l0 -419M485 377l1 0M486 607l0 -419M486 326l1 0M487 556l0 -419M487 275l1 0M488 515l0 -373M488 377l1 0M489 607l0 -419M489 326l1 0M490 556l0 -419M490 206l1 69M491 556l0 -419M491 326l1 0M492 556l0 -419M492 275l2 0M494 607l0 -460"/>
<path stroke="blue" d="M494 480l1 0M495 618l0 -420M495 429l2 0M497 567l0 -420M497 429l1 0M498 567l0 -420M498 377l2 0M500 607l0 -419M500 429l1 0M501 567l0 -420M501 377l2 0M503 607l0 -419M503 377l1 0M504 607l0 -419M504 326l2 0M506 607l0 -483M506 429l1 0"/>
<path stroke="blue" d="M507 567l0 -420M507 377l2 0M509 607l0 -419M509 377l1 0M510 442l0 -65M510 442l1 73M511 607l0 -419M511 326l1 0M512 556l0 -419M512 377l2 0M514 607l0 -419M514 326l1 0M515 556l0 -419M515 326l2 0M517 556l0 -419M517 275l1 0M518 625l0 -470"/>
<path stroke="blue" d="M518 429l2 0M520 567l0 -420M520 377l1 0M521 607l0 -419M521 326l1 0M522 607l0 -419M522 377l1 0M523 607l0 -419M523 326l1 0M524 556l0 -419M524 275l1 0M525 515l0 -373M525 377l1 0M526 607l0 -419M526 326l1 0M527 556l0 -419M527 275l1 0"/>
<path stroke="blue" d="M528 556l0 -419M528 326l1 0M529 556l0 -419M529 275l2 0M531 597l0 -456M531 377l1 0M532 607l0 -419M532 326l2 0M534 556l0 -419M534 326l1 0M535 556l0 -419M535 275l2 0M537 606l0 -451M537 326l1 0M538 556l0 -419M538 275l2 0M540 597l0 -442"/>
<path stroke="blue" d="M540 275l1 0M541 597l0 -442M541 224l2 0M543 629l0 -456M543 480l1 0M544 618l0 -420M544 429l2 0M546 567l0 -420M546 429l1 0M547 567l0 -420M547 377l2 0M549 607l0 -419M549 429l2 0M551 567l0 -420M551 377l1 0M552 607l0 -419M552 377l2 0"/>
<path stroke="blue" d="M554 607l0 -419M554 326l1 0M555 607l0 -483M555 429l2 0M557 567l0 -420M557 377l1 0M558 607l0 -419M558 326l1 0M559 607l0 -419M559 377l1 0M560 607l0 -419M560 326l1 0M561 556l0 -419M561 275l1 0M562 515l0 -373M562 377l1 0M563 607l0 -419"/>
<path stroke="blue" d="M563 326l1 0M564 556l0 -419M564 275l1 0M565 556l0 -419M565 326l1 0M566 556l0 -419M566 275l1 0M567 597l0 -442 1 69M568 625l0 -442M568 429l1 0M569 567l0 -420M569 377l2 0M571 607l0 -419M571 377l1 0M572 607l0 -419M572 326l2 0"/>
<path stroke="blue" d="M574 556l0 -419M574 377l1 0M575 607l0 -419M575 326l2 0M577 556l0 -419M577 326l1 0M578 556l0 -419M578 275l2 0M580 597l0 -456M580 377l1 0M581 607l0 -419M581 326l2 0M583 556l0 -419M583 326l1 0M584 556l0 -419M584 275l2 0M586 606l0 -451"/>
<path stroke="blue" d="M586 326l1 0M587 391l0 -65M587 391l1 73M588 556l0 -419M588 275l1 0M589 597l0 -442M589 275l2 0M591 597l0 -442M591 224l1 0M592 615l0 -488M592 429l2 0M594 567l0 -420M594 377l1 0M595 607l0 -419M595 377l2 0M597 607l0 -419M597 326l1 0"/>
<path stroke="blue" d="M598 556l0 -419M598 275l1 0M599 515l0 -373M599 377l1 0M600 607l0 -419M600 326l1 0M601 556l0 -419M601 275l1 0M602 556l0 -419M602 326l1 0M603 556l0 -419M603 275l1 0M604 597l0 -442M604 224l1 0M605 584l0 -443M605 377l1 0M606 607l0 -419"/>
<path stroke="blue" d="M606 326l2 0M608 556l0 -419M608 326l1 0M609 556l0 -419M609 275l2 0M611 606l0 -451M611 326l1 0M612 556l0 -419M612 275l2 0M614 597l0 -442M614 275l1 0M615 597l0 -442M615 224l2 0M617 615l0 -483M617 377l1 0M618 607l0 -419M618 326l2 0"/>
<path stroke="blue" d="M620 556l0 -419M620 326l1 0M621 556l0 -419M621 275l2 0M623 606l0 -451M623 326l1 0M624 556l0 -419M624 275l2 0M626 597l0 -442M626 275l2 0M628 597l0 -442M628 224l1 0M629 615l0 -470M629 326l2 0M631 556l0 -419M631 275l1 0M632 597l0 -442"/>
<path stroke="blue" d="M632 275l2 0M634 597l0 -442M634 224l1 0M635 615l0 -442 1 0M636 629l0 -474M636 275l1 0M637 597l0 -442M637 224l1 0M638 615l0 -442 1 0M639 620l0 -475M639 224l1 0M640 615l0 -442 1 0M641 633l0 -460M641 633l1 0 0 -455M642 480l1 0"/>
<path stroke="blue" d="M643 618l0 -420M643 429l1 0M644 567l0 -420M644 308l1 69M645 567l0 -420M645 429l1 0M646 567l0 -420M646 377l2 0M648 607l0 -419M648 429l1 0M649 567l0 -420M649 377l2 0M651 607l0 -419M651 377l1 0M652 607l0 -419M652 326l2 0M654 607l0 -483"/>
<path stroke="blue" d="M654 429l1 0M655 567l0 -420M655 377l2 0M657 607l0 -419M657 377l1 0M658 607l0 -419M658 326l2 0M660 556l0 -419M660 377l1 0M661 607l0 -419M661 326l2 0M663 556l0 -419M663 326l1 0M664 391l0 -65M664 391l1 73M665 556l0 -419M665 275l1 0"/>
<path stroke="blue" d="M666 625l0 -470M666 429l2 0M668 567l0 -420M668 377l1 0M669 607l0 -419M669 377l2 0M671 607l0 -419M671 326l1 0M672 556l0 -419M672 377l2 0M674 607l0 -419M674 326l1 0M675 556l0 -419M675 275l1 0M676 556l0 -419M676 326l1 0M677 556l0 -419"/>
<path stroke="blue" d="M677 275l1 0M678 597l0 -442M678 224l1 0M679 584l0 -443M679 377l1 0M680 607l0 -419M680 326l1 0M681 556l0 -419M681 275l1 0M682 556l0 -419M682 326l1 0M683 556l0 -419M683 275l2 0M685 606l0 -451M685 326l1 0M686 556l0 -419M686 275l2 0"/>
<path stroke="blue" d="M688 597l0 -442M688 275l1 0M689 597l0 -442M689 224l2 0M691 615l0 -488M691 429l1 0M692 567l0 -420M692 377l2 0M694 607l0 -419M694 377l1 0M695 607l0 -419M695 326l2 0M697 556l0 -419M697 377l1 0M698 607l0 -419M698 326l2 0M700 556l0 -419"/>
<path stroke="blue" d="M700 326l1 0M701 556l0 -419M701 275l2 0M703 597l0 -456M703 377l2 0M705 607l0 -419M705 326l1 0M706 556l0 -419M706 326l2 0M708 556l0 -419M708 275l1 0M709 606l0 -451M709 326l2 0M711 556l0 -419M711 275l1 0M712 597l0 -442M712 224l1 0"/>
<path stroke="blue" d="M713 597l0 -437M713 275l1 0M714 597l0 -442M714 224l1 0M715 615l0 -442 1 0M716 574l0 -442M716 377l1 0M717 607l0 -419M717 326l1 0M718 556l0 -419M718 275l1 0M719 556l0 -419M719 326l1 0M720 556l0 -419M720 275l1 0M721 597l0 -442"/>
<path stroke="blue" d="M721 155l1 69M722 606l0 -437M722 326l1 0M723 556l0 -419M723 275l2 0M725 597l0 -442M725 275l1 0M726 597l0 -442M726 224l2 0M728 615l0 -470M728 326l1 0M729 556l0 -419M729 275l2 0M731 597l0 -442M731 275l1 0M732 597l0 -442M732 224l2 0"/>
<path stroke="blue" d="M734 629l0 -474M734 275l1 0M735 597l0 -442M735 224l2 0M737 620l0 -475M737 224l1 0M738 615l0 -442 2 0M740 633l0 -460M740 429l1 0M741 493l0 -64M741 493l1 74 0 -420M742 377l1 0M743 607l0 -419M743 377l2 0M745 607l0 -419M745 326l1 0"/>
<path stroke="blue" d="M746 556l0 -419M746 377l2 0M748 607l0 -419M748 326l1 0M749 556l0 -419M749 326l2 0M751 556l0 -419M751 275l1 0M752 597l0 -442M752 224l1 0M753 584l0 -443M753 377l1 0M754 607l0 -419M754 326l1 0M755 556l0 -419M755 275l1 0M756 556l0 -419"/>
<path stroke="blue" d="M756 326l1 0M757 556l0 -419M757 275l1 0M758 597l0 -442M758 224l1 0M759 606l0 -437M759 326l1 0M760 556l0 -419M760 275l2 0M762 597l0 -442M762 275l1 0M763 597l0 -442M763 224l2 0M765 615l0 -483M765 377l1 0M766 607l0 -419M766 326l2 0"/>
<path stroke="blue" d="M768 556l0 -419M768 326l1 0M769 556l0 -419M769 275l2 0M771 606l0 -451M771 326l1 0M772 556l0 -419M772 275l2 0M774 597l0 -442M774 275l1 0M775 597l0 -442M775 224l2 0M777 615l0 -470M777 326l1 0M778 556l0 -419M778 275l2 0M780 597l0 -442"/>
<path stroke="blue" d="M780 275l2 0M782 597l0 -442M782 224l1 0M783 629l0 -474M783 275l2 0M785 597l0 -442M785 224l1 0M786 620l0 -475M786 224l2 0M788 615l0 -442 1 0M789 633l0 -460M789 633l1 0 0 -422M790 377l1 0M791 607l0 -419M791 326l1 0M792 556l0 -419"/>
<path stroke="blue" d="M792 275l1 0M793 556l0 -419M793 326l1 0M794 556l0 -419M794 275l1 0M795 597l0 -442M795 224l1 0M796 606l0 -437M796 326l1 0M797 556l0 -419M797 275l1 0M798 597l0 -442 1 69M799 597l0 -437M799 275l1 0M800 597l0 -442M800 224l2 0"/>
<path stroke="blue" d="M802 615l0 -470M802 326l1 0M803 556l0 -419M803 275l2 0M805 597l0 -442M805 275l1 0M806 597l0 -442M806 224l2 0M808 629l0 -474M808 275l1 0M809 597l0 -442M809 224l2 0M811 620l0 -475M811 224l1 0M812 615l0 -442 2 0M814 633l0 -460"/>
<path stroke="blue" d="M814 326l1 0M815 556l0 -419M815 275l2 0M817 597l0 -442M817 275l1 0M818 340l0 -65M818 340l1 73M819 597l0 -442M819 224l1 0M820 629l0 -474M820 275l2 0M822 597l0 -442M822 224l1 0M823 620l0 -475M823 224l2 0M825 615l0 -442 1 0"/>
<path stroke="blue" d="M826 633l0 -460M826 275l2 0M828 597l0 -442M828 224l1 0M829 615l0 -442 1 0M830 620l0 -475M830 224l1 0M831 615l0 -442 1 0M832 633l0 -460M832 633l1 0 0 -460M833 224l1 0M834 615l0 -442 1 0M835 633l0 -460M835 633l1 0 0 -460"/>
<path stroke="blue" d="M836 173l1 0M837 633l0 -460M837 633l2 0 0 -307M839 531l1 0M840 595l0 -437M840 480l2 0M842 618l0 -420M842 480l1 0M843 618l0 -420M843 429l2 0M845 618l0 -471M845 480l1 0M846 618l0 -420M846 429l2 0M848 567l0 -420M848 429l1 0"/>
<path stroke="blue" d="M849 567l0 -420M849 377l2 0M851 607l0 -474M851 480l1 0M852 618l0 -420M852 429l2 0M854 567l0 -420M854 429l1 0M855 567l0 -420M855 377l2 0M857 607l0 -419M857 429l2 0M859 567l0 -420M859 377l1 0M860 607l0 -419M860 377l2 0M862 607l0 -419"/>
<path stroke="blue" d="M862 326l1 0M863 556l0 -419M863 480l2 0M865 618l0 -420M865 429l1 0M866 567l0 -420M866 377l1 0M867 567l0 -420M867 429l1 0M868 567l0 -420M868 377l1 0M869 607l0 -419M869 326l1 0M870 567l0 -374M870 429l1 0M871 567l0 -420M871 377l1 0"/>
<path stroke="blue" d="M872 607l0 -419M872 326l1 0M873 607l0 -419M873 377l1 0M874 607l0 -419M874 326l1 0M875 556l0 -419M875 206l1 69M876 607l0 -483M876 429l1 0M877 567l0 -420M877 377l2 0M879 607l0 -419M879 377l1 0M880 607l0 -419M880 326l2 0M882 556l0 -419"/>
<path stroke="blue" d="M882 377l1 0M883 607l0 -419M883 326l2 0M885 556l0 -419M885 326l1 0M886 556l0 -419M886 275l2 0M888 607l0 -460M888 480l1 0M889 618l0 -420M889 429l2 0M891 567l0 -420M891 429l1 0M892 567l0 -420M892 377l2 0M894 607l0 -419M894 429l1 0"/>
<path stroke="blue" d="M895 493l0 -64M895 493l1 74 0 -420M896 377l1 0M897 607l0 -419M897 377l2 0M899 607l0 -419M899 326l1 0M900 607l0 -483M900 429l2 0M902 567l0 -420M902 377l1 0M903 607l0 -419M903 377l2 0M905 607l0 -419M905 326l1 0M906 556l0 -419"/>
<path stroke="blue" d="M906 275l1 0M907 515l0 -373M907 377l1 0M908 607l0 -419M908 326l1 0M909 556l0 -419M909 275l1 0M910 556l0 -419M910 326l1 0M911 556l0 -419M911 275l1 0M912 597l0 -442M912 224l1 0M913 625l0 -442M913 429l1 0M914 567l0 -420M914 377l2 0"/>
<path stroke="blue" d="M916 607l0 -419M916 377l1 0M917 607l0 -419M917 326l2 0M919 556l0 -419M919 377l1 0M920 607l0 -419M920 326l2 0M922 556l0 -419M922 326l1 0M923 556l0 -419M923 275l2 0M925 597l0 -456M925 377l1 0M926 607l0 -419M926 326l2 0M928 556l0 -419"/>
<path stroke="blue" d="M928 326l1 0M929 556l0 -419M929 275l2 0M931 606l0 -451M931 326l1 0M932 556l0 -419M932 275l2 0M934 597l0 -442M934 275l2 0M936 597l0 -442M936 224l1 0M937 629l0 -456M937 480l2 0M939 618l0 -420M939 429l1 0M940 567l0 -420M940 429l2 0"/>
<path stroke="blue" d="M942 567l0 -420M942 377l1 0M943 607l0 -419M943 326l1 0M944 567l0 -374M944 429l1 0M945 567l0 -420M945 377l1 0M946 607l0 -419M946 326l1 0M947 607l0 -419M947 377l1 0M948 607l0 -419M948 326l1 0M949 556l0 -419M949 275l1 0M950 607l0 -483"/>
<path stroke="blue" d="M950 429l1 0M951 567l0 -420M951 377l1 0M952 607l0 -419M952 257l1 69M953 607l0 -419M953 377l1 0M954 607l0 -419M954 326l2 0M956 556l0 -419M956 377l1 0M957 607l0 -419M957 326l2 0M959 556l0 -419M959 326l1 0M960 556l0 -419M960 275l2 0"/>
<path stroke="blue" d="M962 625l0 -470M962 429l1 0M963 567l0 -420M963 377l2 0M965 607l0 -419M965 377l1 0M966 607l0 -419M966 326l2 0M968 556l0 -419M968 377l1 0M969 607l0 -419M969 326l2 0M971 556l0 -419M971 326l1 0M972 391l0 -65M972 391l1 73M973 556l0 -419"/>
<path stroke="blue" d="M973 275l1 0"/>
</svg>
