<?xml version="1.0" standalone="yes"?>
<!DOCTYPE svg PUBLIC "-//W3C//DTD SVG 1.1//EN"
 "http://www.w3.org/Graphics/SVG/1.1/DTD/svg11.dtd">
<svg xmlns="http://www.w3.org/2000/svg" version="1.1"
  width="100%" height="100%" viewBox="0 0 1024 768"
  style="fill: none; stroke-width: 3; font-family: Helvetica;
 font: Helvetica;
">

<!-- Creator: NGspice -->

<rect x="0" y="0" width="1024" height="768" fill="white" stroke="none"/>
<text stroke="none" fill="black" font-size="16" x="358" y="752">
time
</text>
<text stroke="none" fill="black" font-size="16" x="10" y="16">
tran1: Total Supply Current
</text>
<path stroke="black" stroke-width="3" d="M50 704l0 -640"/>
<text stroke="none" fill="black" font-size="16" x="35" y="728">
0.0
</text>
<path stroke="black" stroke-width="3" stroke-dasharray="1,2" d="M204 704l0 -640"/>
<text stroke="none" fill="black" font-size="16" x="189" y="728">
0.5
</text>
<path stroke="black" stroke-width="3" stroke-dasharray="1,2" d="M358 704l0 -640"/>
<text stroke="none" fill="black" font-size="16" x="343" y="728">
1.0
</text>
<path stroke="black" stroke-width="3" stroke-dasharray="1,2" d="M512 704l0 -640"/>
<text stroke="none" fill="black" font-size="16" x="497" y="728">
1.5
</text>
<path stroke="black" stroke-width="3" stroke-dasharray="1,2" d="M666 704l0 -640"/>
<text stroke="none" fill="black" font-size="16" x="651" y="728">
2.0
</text>
<path stroke="black" stroke-width="3" stroke-dasharray="1,2" d="M820 704l0 -640"/>
<text stroke="none" fill="black" font-size="16" x="805" y="728">
2.5
</text>
<path stroke="black" stroke-width="3" stroke-dasharray="1,2" d="M974 704l0 -640"/>
<text stroke="none" fill="black" font-size="16" x="959" y="728">
3.0
</text>
<text stroke="none" fill="black" font-size="16" x="614" y="752">
us
</text>
<path stroke="black" stroke-width="3" stroke-dasharray="1,2" d="M50 704l924 0"/>
<text stroke="none" fill="black" font-size="16" x="8" y="712">
-1.0
</text>
<path stroke="black" stroke-width="3" stroke-dasharray="1,2" d="M50 624l924 0"/>
<text stroke="none" fill="black" font-size="16" x="8" y="632">
-0.8
</text>
<path stroke="black" stroke-width="3" stroke-dasharray="1,2" d="M50 544l924 0"/>
<text stroke="none" fill="black" font-size="16" x="8" y="552">
-0.6
</text>
<path stroke="black" stroke-width="3" stroke-dasharray="1,2" d="M50 464l924 0"/>
<text stroke="none" fill="black" font-size="16" x="8" y="472">
-0.4
</text>
<path stroke="black" stroke-width="3" stroke-dasharray="1,2" d="M50 384l924 0"/>
<text stroke="none" fill="black" font-size="16" x="8" y="392">
-0.2
</text>
<path stroke="black" stroke-width="3" d="M50 304l924 0"/>
<text stroke="none" fill="black" font-size="16" x="18" y="312">
0.0
</text>
<path stroke="black" stroke-width="3" stroke-dasharray="1,2" d="M50 224l924 0"/>
<text stroke="none" fill="black" font-size="16" x="18" y="232">
0.2
</text>
<path stroke="black" stroke-width="3" stroke-dasharray="1,2" d="M50 144l924 0"/>
<text stroke="none" fill="black" font-size="16" x="18" y="152">
0.4
</text>
<path stroke="black" stroke-width="3" stroke-dasharray="1,2" d="M50 64l924 0"/>
<text stroke="none" fill="black" font-size="16" x="18" y="72">
0.6
</text>
<text stroke="none" fill="black" font-size="16" x="10" y="32">
mA
</text>
<path stroke="red" d="M462 23l46 0"/>
<text stroke="none" fill="black" font-size="16" x="518" y="32">
-i(v_supply)
</text>
<path stroke="red" d="M50 680l0 -586M50 303l1 2 0 -2M51 304l1 0M52 366l0 -91M52 300l1 7M53 428l0 -260M53 315l1 -1 0 -12 1 4M55 315l0 -163M55 312l1 -15M56 392l0 -145 1 7M57 305l0 -51M57 304l1 0M58 305l0 -88M58 305l1 -2M59 338l0 -168M59 305l1 -2"/>
<path stroke="red" d="M60 422l0 -213M60 301l1 6M61 335l0 -176M61 304l1 0M62 311l0 -120M62 310l1 -12M63 423l0 -125M63 302l1 4 0 -89M64 305l1 -2M65 338l0 -167M65 338l1 -13M66 422l0 -213M66 301l1 6M67 335l0 -176M67 305l1 -2M68 305l0 -2 1 2M69 392l0 -232"/>
<path stroke="red" d="M69 304l1 0M70 365l0 -90M70 298l1 12 0 -12M71 302l1 4M72 427l0 -260M72 303l1 2M73 308l0 -156M73 308l1 -8M74 309l0 -10M74 309l1 -10M75 494l0 -298M75 304l1 0M76 363l0 -88M76 301l1 6 0 -6M77 302l1 4M78 428l0 -265M78 297l1 14"/>
<path stroke="red" d="M79 311l0 -157M79 303l1 2M80 306l0 -4M80 306l1 -4M81 392l0 -145M81 304l1 0M82 317l0 -100M82 308l1 -7M83 308l0 -7M83 306l1 -4M84 422l0 -252M84 293l1 22 0 -156M85 310l1 -14M86 325l0 -53M86 308l1 -8M87 423l0 -231M87 308l1 -8"/>
<path stroke="red" d="M88 308l0 -8M88 304l1 0M89 317l0 -100M89 306l1 -4M90 422l0 -251M90 292l1 25 0 -25M91 297l1 14M92 325l0 -166M92 309l1 -10M93 392l0 -228M93 304l2 0M95 362l0 -87M95 301l1 6M96 320l0 -157M96 310l1 -12M97 426l0 -155M97 298l1 12"/>
<path stroke="red" d="M98 313l0 -158M98 306l1 -4M99 307l0 -142M99 303l1 2M100 525l0 -260M100 306l1 -4M101 362l0 -87M101 301l1 6M102 311l0 -148M102 308l1 -6M103 428l0 -157M103 298l1 12 0 -156M104 305l1 -2M105 307l0 -33M105 280l1 15M106 392l0 -145"/>
<path stroke="red" d="M106 304l1 0M107 317l0 -100M107 307l1 -6M108 307l0 -6M108 302l1 4M109 422l0 -252M109 295l1 18M110 326l0 -167M110 312l1 -16M111 312l0 -16M111 301l1 6M112 423l0 -231M112 306l1 -4M113 317l0 -100M113 307l1 -6M114 307l0 -6M114 302l1 4"/>
<path stroke="red" d="M115 422l0 -252M115 294l1 20M116 325l0 -166M116 314l1 -19M117 313l0 -18M117 301l1 6M118 392l0 -228M118 304l1 0M119 362l0 -87M119 300l1 8 0 -8M120 306l1 -4M121 426l0 -263M121 296l1 16M122 313l0 -158M122 309l1 1 0 -9 1 6M124 494l0 -343"/>
<path stroke="red" d="M124 305l1 -2M125 305l0 -27M125 280l1 1M126 366l0 -91M126 307l1 -6M127 428l0 -260M127 305l1 -1M128 306l0 -4M128 306l1 -4M129 315l0 -163M129 297l1 14M130 392l0 -145M130 305l1 -1 1 0M132 305l0 -89M132 303l1 2M133 422l0 -252"/>
<path stroke="red" d="M133 385l1 -10 0 -166M134 307l1 -6M135 335l0 -176M135 304l1 0M136 311l0 -120M136 298l1 12M137 423l0 -125M137 306l1 -4M138 306l0 -90M138 303l1 2M139 338l0 -167M139 303l1 3M140 422l0 -213M140 307l1 -6M141 335l0 -176M141 303l1 2"/>
<path stroke="red" d="M142 305l0 -145M142 283l1 12M143 392l0 -145M143 304l1 0M144 365l0 -90M144 309l1 -10M145 309l0 -10M145 306l1 -4M146 427l0 -260M146 305l1 -2M147 308l0 -156M147 300l1 8M148 309l0 -10 1 10M149 583l0 -446M149 303l1 2M150 363l0 -88"/>
<path stroke="red" d="M150 307l1 -6M151 307l0 -6M151 306l1 -4M152 428l0 -265M152 311l1 -14M153 311l0 -157M153 304l1 0M154 307l0 -6 1 6M155 392l0 -145M155 304l1 0M156 317l0 -100M156 301l1 6 0 -6M157 302l1 4M158 422l0 -252M158 314l1 -20M159 326l0 -167"/>
<path stroke="red" d="M159 294l1 21 0 -21M160 301l1 6M161 423l0 -232M161 301l1 6 0 -53 1 -29M163 317l0 -100M163 302l1 4M164 422l0 -251M164 316l1 -23M165 315l0 -22M165 311l1 -14M166 326l0 -167M166 300l1 8M167 392l0 -228M167 304l2 0M169 362l0 -87"/>
<path stroke="red" d="M169 307l1 -6M170 426l0 -263M170 292l1 -21M171 324l0 -53M171 309l1 -10M172 313l0 -158M172 302l1 4M173 308l0 -65M173 301l1 6M174 493l0 -295M174 304l1 0M175 365l0 -90M175 308l1 -8M176 309l0 -141M176 309l1 -10M177 428l0 -129"/>
<path stroke="red" d="M177 306l1 -4M178 315l0 -163M178 296l1 16M179 358l0 -84M179 310l1 -1M180 392l0 -145M180 304l1 0M181 306l0 -90M181 302l1 4 0 -88 1 -48M183 422l0 -252M183 307l1 -6M184 334l0 -175M184 303l1 2 0 -2 1 2M186 423l0 -232M186 306l1 -4"/>
<path stroke="red" d="M187 306l0 -90M187 302l1 4 0 -4M188 305l1 -2M189 421l0 -251M189 306l1 -5M190 334l0 -175M190 303l1 2 0 -2 1 2M192 392l0 -232M192 304l1 0M193 364l0 -89M193 311l1 -14M194 311l0 -14M194 301l1 6M195 427l0 -259M195 304l1 0M196 308l0 -155"/>
<path stroke="red" d="M196 300l1 8M197 309l0 -10M197 309l1 -10M198 525l0 -363M198 296l1 16M199 365l0 -90M199 334l1 -16M200 328l0 -31M200 301l1 6M201 428l0 -260M201 304l1 0M202 306l0 -56 1 -9M203 315l0 -163M203 311l1 -14M204 392l0 -145M204 304l2 0"/>
<path stroke="red" d="M206 306l0 -90M206 305l1 -2M207 422l0 -252M207 304l1 0M208 308l0 -8 1 8M209 334l0 -175M209 304l1 0M210 423l0 -232M210 333l1 6M211 355l0 -53 1 4 0 -90M212 306l1 -4M213 336l0 -166M213 305l1 -2M214 421l0 -215M214 301l1 6M215 334l0 -175"/>
<path stroke="red" d="M215 304l1 0M216 305l0 -145M216 303l1 2M217 392l0 -145M217 304l1 0M218 364l0 -89M218 299l1 10 0 -141M219 277l1 15M220 427l0 -135M220 303l1 2M221 309l0 -156M221 309l1 -10M222 309l0 -10M222 309l1 -10M223 494l0 -336M223 304l1 0"/>
<path stroke="red" d="M224 363l0 -88M224 301l1 6 0 -6M225 302l1 4M226 428l0 -265M226 297l1 14 0 -157M227 304l1 0M228 307l0 -6M228 307l1 -6M229 392l0 -145M229 304l1 0M230 317l0 -100M230 307l1 -6M231 307l0 -6M231 306l1 -4M232 422l0 -252M232 294l1 20"/>
<path stroke="red" d="M233 326l0 -167M233 314l1 -20M234 314l0 -20M234 307l1 -6M235 423l0 -232M235 307l1 -6M236 317l0 -100M236 308l1 -7M237 308l0 -7M237 306l1 -4M238 422l0 -251M238 293l1 22 0 -156M239 310l1 -15M240 325l0 -53M240 308l1 -8M241 392l0 -228"/>
<path stroke="red" d="M241 304l2 0M243 362l0 -87M243 302l1 4M244 426l0 -263M244 296l1 17 0 -17M245 299l1 10M246 313l0 -158M246 306l1 -4M247 613l0 -424M247 326l1 -6 0 -17 1 2M249 363l0 -88M249 302l1 4M250 310l0 -147M250 306l1 -4M251 428l0 -157"/>
<path stroke="red" d="M251 298l1 12 0 -156M252 305l1 -2M253 355l0 -81M253 307l1 -6M254 392l0 -145M254 304l1 0M255 317l0 -100M255 307l1 -6M256 326l0 -156M256 294l1 22M257 422l0 -205M257 296l1 16M258 326l0 -167M258 311l1 -14M259 311l0 -89 1 -31"/>
<path stroke="red" d="M260 423l0 -232M260 306l1 -4M261 317l0 -100M261 307l1 -6M262 307l0 -6M262 302l1 4M263 422l0 -251M263 295l1 18M264 326l0 -167M264 312l1 -16M265 312l0 -16M265 302l1 4M266 392l0 -228M266 304l1 0M267 362l0 -87M267 300l1 8 0 -8"/>
<path stroke="red" d="M268 306l1 -4M269 426l0 -263M269 297l1 14M270 313l0 -158M270 304l1 0M271 307l0 -6 1 6M272 493l0 -295M272 304l1 0M273 365l0 -90M273 298l1 14 0 -15M274 307l1 -6M275 428l0 -260M275 304l1 0M276 308l0 -156M276 308l1 -17M277 315l0 -24"/>
<path stroke="red" d="M277 297l1 14M278 392l0 -145M278 304l1 0 0 -26M279 280l1 1M280 306l0 -90M280 303l1 2M281 422l0 -252M281 303l1 2M282 308l0 -8M282 308l1 -8M283 334l0 -175M283 304l1 0M284 423l0 -232M284 310l1 2 0 -10M285 306l1 -4M286 306l0 -90"/>
<path stroke="red" d="M286 303l1 2M287 421l0 -251M287 385l1 -10 0 -169M288 308l1 -8M289 334l0 -175M289 304l1 0M290 305l0 -145M290 305l1 -2M291 392l0 -145M291 304l1 0M292 364l0 -89M292 308l1 -8M293 310l0 -142M293 298l1 12M294 427l0 -129M294 305l1 -2"/>
<path stroke="red" d="M295 309l0 -156M295 299l1 10M296 340l0 -178M296 329l1 -13M297 525l0 -298M297 297l1 14M298 365l0 -90M298 309l1 -10M299 309l0 -10M299 306l1 -4M300 428l0 -260M300 305l1 -2M301 315l0 -163M301 295l1 18 0 -18M302 298l1 12M303 392l0 -145"/>
<path stroke="red" d="M303 304l1 0M304 306l0 -90M304 302l1 4 0 -4M305 303l1 2M306 422l0 -252M306 306l1 -4M307 334l0 -175M307 303l1 2 0 -2M308 305l1 -2M309 423l0 -232M309 306l1 -4M310 306l0 -90M310 302l1 4 0 -4M311 303l1 2M312 421l0 -251M312 306l1 -4"/>
<path stroke="red" d="M313 334l0 -175M313 305l1 3 0 -6M314 304l1 0M315 392l0 -232M315 304l1 0M316 364l0 -89M316 364l1 -34M317 334l0 -37M317 307l1 -6M318 427l0 -259M318 304l1 0M319 306l0 -4M319 306l1 -4M320 309l0 -156M320 299l1 10M321 494l0 -336"/>
<path stroke="red" d="M321 303l1 2 0 -2M322 304l1 0M323 363l0 -88M323 306l1 -4M324 428l0 -265M324 292l1 -21M325 324l0 -53M325 310l1 -12M326 310l0 -156M326 302l1 4M327 355l0 -81M327 302l1 4M328 392l0 -145M328 304l1 0M329 317l0 -100M329 302l1 4"/>
<path stroke="red" d="M330 326l0 -156M330 314l1 -20M331 422l0 -205M331 312l1 -16M332 326l0 -167M332 298l1 12M333 321l0 -129M333 298l1 14M334 423l0 -149M334 303l1 2M335 317l0 -100M335 301l1 6 0 -89 1 -47M337 422l0 -251M337 313l1 -18M338 325l0 -166"/>
<path stroke="red" d="M338 297l1 14 0 -14M339 306l1 -4M340 392l0 -228M340 304l1 0M341 362l0 -87M341 308l1 -8M342 308l0 -8M342 302l1 4M343 426l0 -263M343 311l1 -14M344 313l0 -158M344 304l1 0M345 307l0 -6M345 307l1 -6M346 582l0 -442M346 304l1 0"/>
<path stroke="red" d="M347 365l0 -90M347 311l1 -13M348 310l0 -12M348 301l1 6M349 428l0 -260M349 304l1 0M350 315l0 -163M350 293l1 22 0 -22M351 311l1 -14M352 392l0 -145M352 304l1 0 0 -87M353 297l1 6M354 306l0 -4M354 305l1 -2M355 422l0 -252M355 305l1 -2"/>
<path stroke="red" d="M356 308l0 -56 1 -3M357 334l0 -175M357 304l1 0M358 423l0 -232M358 306l1 -4M359 306l0 -4 1 4 0 -89M360 305l1 -2M361 422l0 -251M361 304l1 0M362 308l0 -8 1 8M363 334l0 -175M363 304l1 0M364 392l0 -232M364 247l1 8M365 304l0 -49"/>
<path stroke="red" d="M365 304l1 0M366 364l0 -89M366 300l1 8M367 310l0 -142M367 309l1 -10M368 427l0 -128M368 302l1 4M369 309l0 -157M369 309l1 -10M370 358l0 -83M370 310l1 -11M371 494l0 -298M371 304l1 0M372 362l0 -87M372 301l1 6 0 -144M373 299l1 10"/>
<path stroke="red" d="M374 428l0 -157M374 298l1 12 0 -156M375 304l1 0M376 307l0 -6M376 307l1 -6M377 392l0 -145M377 304l1 0M378 316l0 -99M378 307l1 -6M379 307l0 -6M379 306l1 -4M380 422l0 -252M380 295l1 18M381 325l0 -166M381 312l1 -16M382 312l0 -16"/>
<path stroke="red" d="M382 307l1 -6M383 423l0 -231M383 306l1 -4M384 316l0 -99M384 307l1 -6M385 307l0 -6M385 306l1 -4M386 422l0 -252M386 294l1 20M387 325l0 -166M387 314l1 -20M388 314l0 -20M388 307l1 -6M389 392l0 -228M389 304l1 0M390 362l0 -87"/>
<path stroke="red" d="M390 301l1 8 0 -9M391 302l1 4M392 426l0 -263M392 296l1 16 0 -157M393 219l1 -17M394 313l0 -111M394 306l1 -4M395 525l0 -361M395 306l1 -4M396 306l0 -4M396 306l1 -4M397 362l0 -87M397 302l1 4M398 428l0 -265M398 295l1 18 0 -18"/>
<path stroke="red" d="M399 298l1 12 0 -156M400 306l1 -4M401 392l0 -145M401 305l1 -1M402 305l0 -1 1 0M403 316l0 -99M403 306l1 -4M404 326l0 -156M404 294l1 20M405 422l0 -204M405 296l1 16M406 325l0 -166M406 310l1 -12M407 320l0 -128M407 311l1 -14"/>
<path stroke="red" d="M408 423l0 -149M408 305l1 -2M409 316l0 -99M409 307l1 -6M410 326l0 -156M410 294l1 22M411 422l0 -204M411 295l1 17M412 325l0 -166M412 311l1 -14M413 311l0 -123 1 -24M414 392l0 -228M414 304l1 0M415 362l0 -87M415 300l1 8 0 -7"/>
<path stroke="red" d="M416 306l1 -4M417 426l0 -263M417 297l1 14M418 313l0 -158M418 304l1 0M419 307l0 -6 1 6M420 494l0 -342M420 304l1 0M421 365l0 -90M421 298l1 12 0 -12M422 306l1 -4M423 428l0 -260M423 303l1 2M424 315l0 -163M424 314l1 -20M425 314l0 -20"/>
<path stroke="red" d="M425 297l1 14M426 392l0 -145M426 304l1 0M427 306l0 -90M427 306l1 -4M428 306l0 -4M428 303l1 2M429 422l0 -252M429 303l1 2M430 334l0 -175M430 325l1 -8M431 318l0 -16M431 304l1 0M432 423l0 -232M432 302l1 4 0 -28M433 280l1 1M434 306l0 -90"/>
<path stroke="red" d="M434 303l1 2M435 422l0 -251M435 303l1 2M436 308l0 -8M436 308l1 -8M437 334l0 -175M437 304l1 0M438 392l0 -232M438 304l2 0M440 364l0 -89M440 308l1 -8M441 427l0 -259M441 389l1 -15 0 -72M442 306l1 -4M443 309l0 -157M443 299l1 10"/>
<path stroke="red" d="M444 309l0 -10 1 10M445 680l0 -586M445 304l1 0M446 366l0 -91M446 308l1 -8M447 309l0 -141M447 299l1 10M448 428l0 -129M448 306l1 -4M449 315l0 -163M449 296l1 16M450 358l0 -84M450 337l1 -9M451 392l0 -145M451 304l1 0M452 305l0 -88"/>
<path stroke="red" d="M452 303l1 2 0 -2 1 2M454 422l0 -252M454 307l1 -6M455 335l0 -176M455 303l1 2 0 -2M456 305l1 -2M457 423l0 -232M457 306l1 -4M458 306l0 -89M458 303l1 2 0 -2 1 2M460 422l0 -251M460 306l1 -4M461 335l0 -176M461 303l1 2 0 -2M462 305l1 -2"/>
<path stroke="red" d="M463 392l0 -232M463 304l1 0M464 365l0 -90M464 311l1 -14M465 311l0 -14M465 307l1 -6M466 427l0 -260M466 304l1 0M467 307l0 -155M467 301l1 6M468 309l0 -10 1 10M469 494l0 -298M469 303l1 2M470 363l0 -88M470 363l1 -32 0 -51M471 306l1 -4"/>
<path stroke="red" d="M472 428l0 -265M472 313l1 -18M473 312l0 -17M473 309l1 -10M474 309l0 -155M474 302l1 4M475 392l0 -145M475 304l2 0M477 317l0 -100M477 302l1 4M478 422l0 -252M478 316l1 -15M479 327l0 -35M479 312l1 -16M480 325l0 -166M480 299l1 10"/>
<path stroke="red" d="M481 321l0 -129M481 297l1 14M482 423l0 -149M482 303l1 2M483 317l0 -100M483 301l1 6M484 326l0 -155M484 314l1 -20M485 422l0 -204M485 312l1 -16M486 325l0 -166M486 298l1 12M487 314l0 -150M487 307l1 -4M488 392l0 -145M488 304l1 0"/>
<path stroke="red" d="M489 362l0 -87M489 307l1 -6M490 307l0 -90 1 -54M491 426l0 -263M491 310l1 -12M492 313l0 -158M492 303l1 2M493 307l0 -6M493 307l1 -6M494 525l0 -360M494 302l1 4M495 362l0 -87M495 307l1 -6M496 307l0 -6M496 302l1 4M497 428l0 -265"/>
<path stroke="red" d="M497 311l1 -14M498 311l0 -157M498 304l1 0M499 306l0 -4M499 306l1 -4M500 392l0 -145M500 304l1 0M501 317l0 -100M501 301l1 6 0 -6M502 306l1 -4M503 422l0 -252M503 315l1 -21M504 326l0 -167M504 294l1 20 0 -20M505 307l1 -6M506 423l0 -231"/>
<path stroke="red" d="M506 301l1 6M507 317l0 -100M507 309l1 4 0 -12M508 306l1 -4M509 422l0 -252M509 316l1 -24M510 315l0 -63 1 -3M511 325l0 -166M511 308l1 -8M512 392l0 -228M512 304l2 0M514 362l0 -87M514 301l1 6M515 426l0 -263M515 317l1 -18M516 315l0 -19"/>
<path stroke="red" d="M516 299l1 10M517 313l0 -158M517 306l1 -4M518 494l0 -343M518 197l1 11M519 305l0 -97M519 304l1 0M520 366l0 -91M520 300l1 8M521 309l0 -141M521 309l1 -10M522 428l0 -129M522 302l1 4M523 315l0 -163M523 312l1 -16M524 359l0 -85"/>
<path stroke="red" d="M524 305l1 0M525 392l0 -145M525 304l1 0M526 305l0 -89M526 305l1 -2M527 338l0 -168M527 338l1 -13M528 422l0 -213M528 301l1 6M529 335l0 -176M529 305l1 -2M530 305l0 -2 1 2M531 423l0 -232M531 302l1 4 0 -90M532 305l1 -2M533 305l0 -2"/>
<path stroke="red" d="M533 305l1 -2M534 422l0 -251M534 302l1 4M535 335l0 -176M535 305l1 -2M536 305l0 -2 1 2M537 392l0 -232M537 304l1 0M538 365l0 -90M538 298l1 12 0 -12M539 301l1 6M540 427l0 -260M540 304l1 0M541 308l0 -156M541 308l1 -8M542 309l0 -10"/>
<path stroke="red" d="M542 309l1 -10M543 583l0 -446M543 305l1 -2M544 363l0 -88M544 302l1 6 0 -7M545 302l1 4M546 428l0 -265M546 296l1 16 0 -158M547 231l1 -7M548 309l0 -85M548 306l1 -4M549 392l0 -145M549 304l2 0M551 317l0 -100M551 306l1 -4M552 422l0 -252"/>
<path stroke="red" d="M552 292l1 24 0 -24M553 297l1 14M554 326l0 -167M554 309l1 -10M555 423l0 -232M555 304l1 14M556 322l0 -22M556 305l1 -2M557 317l0 -100M557 306l1 -4M558 326l0 -155M558 294l1 19M559 422l0 -205M559 296l1 16M560 326l0 -167M560 310l1 -12"/>
<path stroke="red" d="M561 314l0 -150M561 303l1 2M562 392l0 -145M562 304l1 0M563 362l0 -87M563 301l1 6M564 320l0 -157M564 312l1 -14M565 426l0 -155M565 298l1 12M566 313l0 -158M566 305l1 -2M567 308l0 -35M567 276l1 -1M568 493l0 -295M568 304l1 0"/>
<path stroke="red" d="M569 365l0 -90M569 299l1 10 0 -10M570 306l1 -4M571 428l0 -260M571 303l1 2M572 315l0 -163M572 313l1 -18M573 313l0 -18M573 298l1 12M574 392l0 -145M574 304l1 0M575 306l0 -90M575 306l1 -4M576 306l0 -4M576 303l1 2M577 422l0 -252"/>
<path stroke="red" d="M577 302l1 4M578 334l0 -175M578 305l1 -2M579 305l0 -2M579 305l1 -2M580 423l0 -232M580 302l1 4 0 -90M581 306l1 -4M582 306l0 -4M582 303l1 2M583 421l0 -251M583 302l1 4M584 334l0 -175M584 325l1 -8M585 318l0 -16M585 304l1 0M586 392l0 -232"/>
<path stroke="red" d="M586 304l1 0 0 -26M587 280l1 1M588 364l0 -89M588 307l1 -6M589 427l0 -259M589 305l1 -1M590 306l0 -4M590 306l1 -4M591 309l0 -156M591 299l1 10M592 525l0 -363M592 313l1 -18M593 313l0 -18M593 298l1 12M594 365l0 -90M594 308l1 -8"/>
<path stroke="red" d="M595 428l0 -260M595 390l1 -14 0 -74M596 306l1 -4M597 315l0 -163M597 296l1 16M598 358l0 -84M598 304l1 0M599 392l0 -145M599 304l1 0M600 306l0 -90M600 302l1 4M601 336l0 -166M601 303l1 3M602 422l0 -216M602 307l1 -6M603 334l0 -175"/>
<path stroke="red" d="M603 303l1 2 0 -114M604 290l1 18M605 423l0 -126M605 306l1 -4M606 306l0 -90M606 302l1 4 0 -4M607 303l1 2M608 421l0 -251M608 307l1 -6M609 334l0 -175M609 303l1 2 0 -2M610 305l1 -2M611 392l0 -232M611 304l1 0M612 364l0 -89M612 310l1 -12"/>
<path stroke="red" d="M613 310l0 -12M613 306l1 -4M614 427l0 -259M614 305l1 -2M615 308l0 -155M615 300l1 8M616 309l0 -10 1 10M617 494l0 -336M617 304l1 0M618 363l0 -88M618 307l1 -6M619 307l0 -6M619 306l1 -4M620 428l0 -265M620 312l1 -16M621 312l0 -158"/>
<path stroke="red" d="M621 306l1 -3M622 306l0 -4 1 4M623 392l0 -145M623 304l1 0 0 -50 1 -29M625 317l0 -100M625 302l1 4M626 422l0 -252M626 315l1 -22M627 315l0 -22M627 311l1 -14M628 326l0 -167M628 300l1 8M629 423l0 -232M629 300l1 8 0 -8M630 303l1 2"/>
<path stroke="red" d="M631 317l0 -100M631 302l1 4M632 422l0 -251M632 315l1 -13M633 327l0 -35M633 311l1 -14M634 325l0 -166M634 299l1 10M635 314l0 -150M635 305l1 -2M636 392l0 -145M636 304l1 0M637 362l0 -87M637 307l1 -6M638 320l0 -157M638 298l1 12"/>
<path stroke="red" d="M639 426l0 -155M639 310l1 -12M640 313l0 -158M640 302l1 4M641 308l0 -119M641 303l1 2M642 613l0 -393M642 305l1 -2M643 363l0 -88M643 307l1 -6M644 307l0 -91 1 -53M645 428l0 -265M645 310l1 -12M646 310l0 -156M646 304l1 0M647 307l0 -6"/>
<path stroke="red" d="M647 307l1 -6M648 392l0 -145M648 304l1 0M649 317l0 -100M649 301l1 6 0 -6M650 306l1 -4M651 422l0 -252M651 313l1 -18M652 326l0 -167M652 295l1 18 0 -18M653 307l1 -6M654 423l0 -232M654 301l1 6M655 317l0 -100M655 301l1 6 0 -6"/>
<path stroke="red" d="M656 306l1 -4M657 422l0 -251M657 314l1 -20M658 326l0 -167M658 294l1 20 0 -20M659 307l1 -6M660 392l0 -228M660 304l1 0M661 362l0 -87M661 327l1 -12M662 317l0 -17M662 302l1 4M663 426l0 -263M663 312l1 -16M664 312l0 -62 1 -8M665 313l0 -158"/>
<path stroke="red" d="M665 307l1 -6M666 493l0 -295M666 303l1 2 0 -2M667 304l1 0M668 365l0 -90M668 301l1 6M669 428l0 -260M669 316l1 -1 0 -13 1 4M671 315l0 -163M671 312l1 -16M672 392l0 -145 1 8M673 305l0 -50M673 304l1 0M674 306l0 -90M674 306l1 -4"/>
<path stroke="red" d="M675 336l0 -166M675 305l1 -2M676 422l0 -216M676 301l1 6M677 334l0 -175M677 304l1 0M678 311l0 -120M678 311l1 -13M679 423l0 -125M679 302l1 4 0 -90M680 306l1 -4M681 336l0 -166M681 336l1 -12M682 421l0 -215M682 301l1 6M683 334l0 -175"/>
<path stroke="red" d="M683 305l1 -2M684 305l0 -2 1 2M685 392l0 -232M685 304l1 0M686 364l0 -89M686 298l1 12 0 -11M687 302l1 4M688 427l0 -259M688 303l1 2M689 308l0 -155M689 308l1 -8M690 309l0 -10M690 309l1 -10M691 525l0 -363M691 311l1 -14M692 365l0 -90"/>
<path stroke="red" d="M692 298l1 12 0 -12M693 302l1 4M694 428l0 -260M694 304l1 1M695 315l0 -163M695 315l1 -22M696 314l0 -21M696 311l1 -14M697 392l0 -145M697 304l1 0M698 306l0 -90M698 306l1 -4M699 306l0 -4M699 305l1 -2M700 422l0 -252M700 303l1 2"/>
<path stroke="red" d="M701 314l0 -155M701 314l1 -14M702 334l0 -34M702 304l1 0M703 423l0 -232M703 302l1 4 0 -4 1 4 0 -90M705 305l1 -2M706 421l0 -251M706 304l1 0M707 308l0 -8 1 8M708 334l0 -175M708 304l1 0M709 392l0 -232M709 304l2 0M711 364l0 -89"/>
<path stroke="red" d="M711 300l1 8M712 310l0 -142M712 299l1 10M713 427l0 -128M713 302l1 4M714 309l0 -156M714 309l1 -10M715 339l0 -181M715 300l1 8M716 494l0 -298M716 304l1 0M717 363l0 -88M717 302l1 4M718 310l0 -147M718 308l1 -5M719 428l0 -157"/>
<path stroke="red" d="M719 298l1 12 0 -156M720 305l1 -2M721 307l0 -33M721 280l1 15M722 392l0 -145M722 304l1 0M723 317l0 -100M723 307l1 -6M724 307l0 -6M724 302l1 4M725 422l0 -252M725 295l1 18M726 326l0 -167M726 312l1 -16M727 312l0 -16M727 302l1 4"/>
<path stroke="red" d="M728 423l0 -231M728 306l1 -4M729 317l0 -100M729 307l1 -6M730 307l0 -6M730 302l1 4M731 422l0 -251M731 294l1 20M732 325l0 -166M732 313l1 -18M733 313l0 -18M733 301l1 6M734 392l0 -228M734 304l1 0M735 362l0 -87M735 300l1 8 0 -8"/>
<path stroke="red" d="M736 306l1 -4M737 426l0 -263M737 296l1 16M738 313l0 -158M738 309l1 1 0 -9 1 6M740 582l0 -442M740 305l1 -2M741 305l0 -27M741 280l1 1M742 365l0 -90M742 307l1 -6M743 428l0 -260M743 305l1 -1M744 306l0 -4M744 306l1 -4M745 315l0 -163"/>
<path stroke="red" d="M745 297l1 14M746 392l0 -145M746 305l1 -1 1 0M748 306l0 -89M748 303l1 2M749 422l0 -252M749 385l1 -10 0 -167M750 308l1 -8M751 334l0 -175M751 304l1 0M752 311l0 -120M752 298l1 12M753 423l0 -125M753 306l1 -4M754 306l0 -89M754 303l1 2"/>
<path stroke="red" d="M755 337l0 -166M755 303l1 3M756 422l0 -214M756 307l1 -6M757 334l0 -175M757 303l1 2 0 -145M758 280l1 17M759 392l0 -145M759 304l1 0M760 364l0 -89M760 309l1 -10M761 309l0 -10M761 306l1 -4M762 427l0 -259M762 305l1 -2M763 308l0 -156"/>
<path stroke="red" d="M763 300l1 8M764 309l0 -10 1 10M765 494l0 -298M765 304l1 0M766 362l0 -87M766 307l1 -6M767 307l0 -6M767 306l1 -4M768 428l0 -265M768 311l1 -14M769 311l0 -157M769 305l1 -2M770 306l0 -4 1 4M771 392l0 -145M771 304l1 0M772 316l0 -99"/>
<path stroke="red" d="M772 301l1 6 0 -6M773 302l1 4M774 422l0 -252M774 315l1 -22M775 325l0 -166M775 294l1 21 0 -21M776 300l1 8M777 423l0 -231M777 301l1 6 0 -53 1 -29M779 316l0 -99M779 302l1 4M780 422l0 -252M780 316l1 -24M781 316l0 -24M781 311l1 -14"/>
<path stroke="red" d="M782 325l0 -166M782 300l1 8M783 392l0 -228M783 304l2 0M785 362l0 -87M785 307l1 -6M786 426l0 -263M786 292l1 -21M787 324l0 -53M787 310l1 -12M788 313l0 -158M788 302l1 4M789 307l0 -143M789 304l1 0M790 525l0 -259M790 302l1 4"/>
<path stroke="red" d="M791 362l0 -87M791 306l1 -4M792 311l0 -148M792 302l1 5M793 428l0 -157M793 310l1 -12M794 310l0 -156M794 303l1 2M795 355l0 -81M795 302l1 6M796 392l0 -145M796 304l1 0M797 316l0 -99M797 301l1 6 0 -89 1 -48M799 422l0 -252M799 313l1 -18"/>
<path stroke="red" d="M800 325l0 -166M800 297l1 14 0 -14M801 306l1 -4M802 423l0 -231M802 302l1 4M803 316l0 -99M803 301l1 6 0 -6M804 306l1 -4M805 422l0 -252M805 314l1 -20M806 325l0 -166M806 295l1 18 0 -18M807 307l1 -6M808 392l0 -228M808 304l1 0"/>
<path stroke="red" d="M809 362l0 -87M809 308l1 -8M810 308l0 -8M810 302l1 4M811 426l0 -263M811 311l1 -14M812 313l0 -158M812 305l1 -2M813 307l0 -6M813 307l1 -6M814 494l0 -342M814 304l1 0M815 365l0 -90M815 335l1 -17M816 328l0 -31M816 301l1 6M817 428l0 -260"/>
<path stroke="red" d="M817 304l1 0M818 306l0 -56 1 -9M819 315l0 -163M819 311l1 -14M820 392l0 -145M820 304l2 0M822 306l0 -90M822 305l1 -2M823 422l0 -252M823 304l1 0M824 308l0 -8 1 8M825 334l0 -175M825 304l1 0M826 423l0 -232M826 333l1 7M827 355l0 -53"/>
<path stroke="red" d="M827 302l1 4 0 -90M828 305l1 -2M829 337l0 -166M829 305l1 -2M830 422l0 -214M830 301l1 6M831 334l0 -175M831 304l1 0M832 305l0 -145M832 303l1 2M833 392l0 -145M833 304l1 0M834 364l0 -89M834 299l1 10 0 -141M835 278l1 10M836 427l0 -139"/>
<path stroke="red" d="M836 303l1 2M837 308l0 -156M837 308l1 -8M838 309l0 -10M838 309l1 -10M839 680l0 -586M839 304l1 0M840 366l0 -91M840 299l1 10 0 -10M841 302l1 4M842 428l0 -260M842 303l1 2M843 315l0 -163M843 313l1 -18M844 313l0 -18M844 310l1 -12"/>
<path stroke="red" d="M845 392l0 -145M845 304l1 0M846 305l0 -88M846 305l1 -2M847 305l0 -2M847 305l1 -2M848 422l0 -252M848 302l1 4M849 335l0 -176M849 306l1 -4M850 306l0 -4M850 304l1 0M851 423l0 -232M851 302l1 4 0 -89M852 305l1 -2M853 305l0 -2"/>
<path stroke="red" d="M853 305l1 -2M854 422l0 -251M854 303l1 2M855 315l0 -156M855 315l1 -16M856 335l0 -36M856 304l1 0M857 392l0 -232M857 304l2 0M859 365l0 -90M859 301l1 6M860 427l0 -260M860 306l1 -1M861 306l0 -4 1 4M862 309l0 -157M862 309l1 -10"/>
<path stroke="red" d="M863 494l0 -298M863 305l1 -2M864 305l0 -2M864 304l1 0M865 363l0 -88M865 302l1 4M866 311l0 -148M866 306l1 -4M867 428l0 -157M867 298l1 12 0 -156M868 305l1 -2M869 355l0 -81M869 307l1 -6M870 392l0 -145M870 304l1 0M871 317l0 -100"/>
<path stroke="red" d="M871 307l1 -6M872 326l0 -156M872 294l1 22M873 422l0 -204M873 295l1 18M874 325l0 -166M874 311l1 -14M875 311l0 -89 1 -30M876 423l0 -231M876 306l1 -4M877 317l0 -100M877 307l1 -6M878 307l0 -6M878 302l1 4M879 422l0 -251M879 295l1 18"/>
<path stroke="red" d="M880 325l0 -166M880 312l1 -16M881 312l0 -16M881 301l1 6M882 392l0 -228M882 304l1 0M883 362l0 -87M883 300l1 8 0 -8M884 306l1 -4M885 426l0 -263M885 297l1 14M886 313l0 -158M886 304l1 0M887 307l0 -6 1 6M888 525l0 -360M888 306l1 -4"/>
<path stroke="red" d="M889 362l0 -87M889 301l1 6 0 -6M890 306l1 -4M891 428l0 -265M891 296l1 16 0 -158M892 306l1 3 0 -7 1 4M894 392l0 -145M894 304l1 0 0 -26M895 280l1 1M896 317l0 -100M896 302l1 4M897 422l0 -252M897 292l1 24 0 -24M898 311l1 -14"/>
<path stroke="red" d="M899 326l0 -167M899 299l1 10M900 423l0 -231M900 311l1 -10M901 309l0 -9M901 303l1 2M902 317l0 -100M902 302l1 4M903 422l0 -252M903 385l1 -10 0 -157M904 312l1 -16M905 325l0 -166M905 299l1 10M906 314l0 -150M906 303l1 2M907 392l0 -145"/>
<path stroke="red" d="M907 304l1 0M908 362l0 -87M908 307l1 -6M909 320l0 -157M909 311l1 -14M910 426l0 -155M910 310l1 -12M911 313l0 -158M911 303l1 2M912 307l0 -156M912 276l1 17M913 494l0 -297M913 304l1 0M914 366l0 -91M914 309l1 -10M915 309l0 -10"/>
<path stroke="red" d="M915 306l1 -4M916 428l0 -260M916 305l1 -2M917 315l0 -163M917 295l1 18 0 -18M918 298l1 12M919 392l0 -145M919 304l1 0M920 305l0 -89M920 303l1 2 0 -2 1 2M922 422l0 -252M922 306l1 -4M923 335l0 -176M923 303l1 2 0 -2M924 305l1 -2"/>
<path stroke="red" d="M925 423l0 -232M925 306l1 -4M926 306l0 -90M926 303l1 2 0 -2 1 2M928 422l0 -251M928 305l1 -2M929 335l0 -176M929 305l1 3 0 -6M930 304l1 0M931 392l0 -232M931 304l1 0M932 365l0 -90M932 365l1 -34M933 336l0 -39M933 307l1 -6M934 427l0 -260"/>
<path stroke="red" d="M934 304l1 0M935 306l0 -4M935 306l1 -4M936 309l0 -157M936 299l1 10M937 583l0 -446M937 303l1 2 0 -2M938 304l1 0M939 363l0 -88M939 306l1 -4M940 428l0 -265M940 291l1 -20M941 324l0 -53M941 310l1 -12M942 310l0 -156M942 302l1 4"/>
<path stroke="red" d="M943 355l0 -81M943 302l1 4M944 392l0 -145M944 304l1 0M945 317l0 -100M945 302l1 4M946 326l0 -156M946 314l1 -20M947 422l0 -205M947 312l1 -16M948 326l0 -167M948 298l1 12M949 321l0 -130M949 298l1 14M950 423l0 -149M950 303l1 2"/>
<path stroke="red" d="M951 317l0 -100M951 301l1 6 0 -89 1 -47M953 422l0 -251M953 313l1 -18M954 326l0 -167M954 297l1 14 0 -14M955 306l1 -4M956 392l0 -228M956 304l1 0M957 362l0 -87M957 308l1 -8M958 308l0 -8M958 302l1 4M959 426l0 -263M959 311l1 -14"/>
<path stroke="red" d="M960 313l0 -158M960 304l1 0M961 307l0 -6M961 307l1 -6M962 493l0 -295M962 304l1 0M963 365l0 -90M963 311l1 -13M964 310l0 -12M964 301l1 6M965 428l0 -260M965 304l1 0M966 315l0 -163M966 293l1 22 0 -22M967 311l1 -14M968 392l0 -145"/>
<path stroke="red" d="M968 304l1 0 0 -88M969 301l1 2M970 306l0 -4M970 305l1 -2M971 422l0 -252M971 305l1 -2M972 308l0 -56 1 -3M973 334l0 -175M973 304l1 0M974 305l0 -2"/>
</svg>
