<?xml version="1.0" standalone="yes"?>
<!DOCTYPE svg PUBLIC "-//W3C//DTD SVG 1.1//EN"
 "http://www.w3.org/Graphics/SVG/1.1/DTD/svg11.dtd">
<svg xmlns="http://www.w3.org/2000/svg" version="1.1"
  width="100%" height="100%" viewBox="0 0 1024 768"
  style="fill: none; stroke-width: 3; font-family: Helvetica;
 font: Helvetica;
">

<!-- Creator: NGspice -->

<rect x="0" y="0" width="1024" height="768" fill="white" stroke="none"/>
<text stroke="none" fill="black" font-size="16" x="358" y="752">
time
</text>
<text stroke="none" fill="black" font-size="16" x="10" y="16">
tran1: Total Supply Current
</text>
<path stroke="black" stroke-width="3" d="M70 704l0 -640"/>
<text stroke="none" fill="black" font-size="16" x="55" y="728">
0.0
</text>
<path stroke="black" stroke-width="3" stroke-dasharray="1,2" d="M217 704l0 -640"/>
<text stroke="none" fill="black" font-size="16" x="202" y="728">
0.5
</text>
<path stroke="black" stroke-width="3" stroke-dasharray="1,2" d="M364 704l0 -640"/>
<text stroke="none" fill="black" font-size="16" x="349" y="728">
1.0
</text>
<path stroke="black" stroke-width="3" stroke-dasharray="1,2" d="M511 704l0 -640"/>
<text stroke="none" fill="black" font-size="16" x="496" y="728">
1.5
</text>
<path stroke="black" stroke-width="3" stroke-dasharray="1,2" d="M658 704l0 -640"/>
<text stroke="none" fill="black" font-size="16" x="643" y="728">
2.0
</text>
<path stroke="black" stroke-width="3" stroke-dasharray="1,2" d="M805 704l0 -640"/>
<text stroke="none" fill="black" font-size="16" x="790" y="728">
2.5
</text>
<path stroke="black" stroke-width="3" stroke-dasharray="1,2" d="M952 704l0 -640"/>
<text stroke="none" fill="black" font-size="16" x="937" y="728">
3.0
</text>
<text stroke="none" fill="black" font-size="16" x="614" y="752">
us
</text>
<path stroke="black" stroke-width="3" stroke-dasharray="1,2" d="M70 704l882 0"/>
<text stroke="none" fill="black" font-size="16" x="8" y="712">
-100.0
</text>
<path stroke="black" stroke-width="3" d="M70 624l882 0"/>
<text stroke="none" fill="black" font-size="16" x="38" y="632">
0.0
</text>
<path stroke="black" stroke-width="3" stroke-dasharray="1,2" d="M70 544l882 0"/>
<text stroke="none" fill="black" font-size="16" x="18" y="552">
100.0
</text>
<path stroke="black" stroke-width="3" stroke-dasharray="1,2" d="M70 464l882 0"/>
<text stroke="none" fill="black" font-size="16" x="18" y="472">
200.0
</text>
<path stroke="black" stroke-width="3" stroke-dasharray="1,2" d="M70 384l882 0"/>
<text stroke="none" fill="black" font-size="16" x="18" y="392">
300.0
</text>
<path stroke="black" stroke-width="3" stroke-dasharray="1,2" d="M70 304l882 0"/>
<text stroke="none" fill="black" font-size="16" x="18" y="312">
400.0
</text>
<path stroke="black" stroke-width="3" stroke-dasharray="1,2" d="M70 224l882 0"/>
<text stroke="none" fill="black" font-size="16" x="18" y="232">
500.0
</text>
<path stroke="black" stroke-width="3" stroke-dasharray="1,2" d="M70 144l882 0"/>
<text stroke="none" fill="black" font-size="16" x="18" y="152">
600.0
</text>
<path stroke="black" stroke-width="3" stroke-dasharray="1,2" d="M70 64l882 0"/>
<text stroke="none" fill="black" font-size="16" x="18" y="72">
700.0
</text>
<text stroke="none" fill="black" font-size="16" x="10" y="32">
uA
</text>
<path stroke="red" d="M441 23l44 0"/>
<text stroke="none" fill="black" font-size="16" x="495" y="32">
-i(v_supply)
</text>
<path stroke="red" d="M70 702l0 -247M70 515l1 48M71 701l0 -283M71 497l1 25M72 701l0 -404M72 623l1 2M73 702l0 -324M73 620l1 7 0 -222M74 536l1 14M75 626l0 -225M75 625l1 -3M76 702l0 -293M76 446l1 7M77 624l0 -267M77 531l1 -2M78 634l0 -226M78 634l1 -20"/>
<path stroke="red" d="M79 703l0 -450M79 614l1 19 0 -229M80 490l1 60M81 626l0 -76M81 624l1 -1M82 702l0 -297M82 437l1 67M83 700l0 -414M83 613l1 16M84 630l0 -16M84 618l1 12M85 702l0 -325M85 627l1 -6M86 627l0 -222M86 626l1 -6M87 626l0 -6M87 622l1 4"/>
<path stroke="red" d="M88 702l0 -344M88 623l1 1M89 630l0 -215M89 629l1 -12M90 629l0 -12M90 624l1 0M91 703l0 -462M91 633l1 -18M92 633l0 -229M92 616l1 15 0 -15M93 623l1 2M94 702l0 -303M94 452l1 61M95 698l0 -350M95 621l1 5M96 629l0 -10M96 629l1 -10"/>
<path stroke="red" d="M97 702l0 -323M97 621l1 6M98 633l0 -228M98 614l1 19M99 636l0 -24 1 24M100 702l0 -345M100 624l1 -1M101 642l0 -238M101 605l1 37M102 644l0 -40 1 40M103 703l0 -450M103 633l1 -19M104 633l0 -229M104 628l1 -9M105 634l0 -21M105 634l1 -21"/>
<path stroke="red" d="M106 702l0 -416M106 626l1 -5M107 638l0 -246M107 611l1 26 0 -26 1 25M109 702l0 -325M109 627l1 -6M110 637l0 -232M110 610l1 28M111 702l0 -175M111 535l1 -76M112 697l0 -339M112 623l1 1M113 634l0 -219M113 613l1 21M114 703l0 -462"/>
<path stroke="red" d="M114 367l1 -106M115 640l0 -379M115 639l1 -30M116 639l0 -235M116 631l1 -14M117 702l0 -288M117 460l1 51M118 701l0 -306M118 638l1 -30M119 701l0 -586M119 645l1 -42M120 702l0 -324M120 627l1 -7M121 627l0 -120 1 -45M122 633l0 -228"/>
<path stroke="red" d="M122 615l1 18M123 702l0 -297M123 615l1 15M124 697l0 -339M124 512l1 -85M125 637l0 -226M125 613l1 22M126 703l0 -450M126 633l1 -19M127 633l0 -229M127 448l1 -37M128 637l0 -231M128 615l1 17M129 702l0 -302M129 487l1 -47M130 701l0 -414"/>
<path stroke="red" d="M130 543l1 26M131 627l0 -58M131 625l1 -2M132 702l0 -325M132 621l1 6M133 633l0 -228M133 612l1 21 0 -21M134 620l1 8M135 702l0 -344M135 624l1 -1M136 633l0 -231M136 633l1 -20M137 633l0 -20M137 628l1 -8M138 703l0 -462M138 631l1 -14"/>
<path stroke="red" d="M139 631l0 -227M139 627l1 -6M140 630l0 -12 1 12M141 702l0 -303M141 506l1 -52M142 698l0 -350M142 623l1 1M143 630l0 -12 1 12M144 702l0 -323M144 627l1 -6M145 639l0 -234M145 639l1 -31M146 639l0 -31M146 639l1 -30M147 702l0 -344"/>
<path stroke="red" d="M147 623l1 1M148 648l0 -253M148 647l1 -47M149 647l0 -47M149 647l1 -46M150 703l0 -450M150 615l1 18M151 636l0 -232M151 636l1 -25M152 642l0 -36M152 642l1 -36M153 702l0 -416M153 626l1 -5M154 640l0 -248M154 639l1 -30M155 639l0 -30"/>
<path stroke="red" d="M155 638l1 -29M156 702l0 -325M156 621l1 6M157 639l0 -234M157 639l1 -31M158 702l0 -95M158 702l1 0 0 -344M159 624l1 -1M160 631l0 -218M160 631l1 -14M161 703l0 -462M161 343l1 25M162 650l0 -398M162 601l1 46 0 -248M163 619l1 10"/>
<path stroke="red" d="M164 702l0 -239M164 497l1 -48M165 701l0 -317M165 603l1 41M166 701l0 -485M166 622l1 4M167 702l0 -324M167 627l1 -7M168 627l0 -7M168 626l1 -4M169 638l0 -234M169 610l1 28M170 702l0 -292M170 615l1 13M171 697l0 -340M171 572l1 -25"/>
<path stroke="red" d="M172 625l0 -221M172 625l1 -3M173 703l0 -450M173 614l1 19 0 -229M174 434l1 -13M175 627l0 -221M175 624l1 0M176 702l0 -299M176 415l1 88M177 701l0 -414M177 459l1 -21M178 632l0 -222M178 616l1 16M179 702l0 -325M179 627l1 -7M180 627l0 -222"/>
<path stroke="red" d="M180 611l1 -1M181 632l0 -22M181 632l1 -16M182 702l0 -344M182 624l1 -1M183 628l0 -214M183 628l1 -11M184 631l0 -15M184 631l1 -15M185 703l0 -462M185 615l1 18 0 -229M186 615l1 17 0 -17M187 620l1 8M188 702l0 -308M188 670l1 -86"/>
<path stroke="red" d="M189 698l0 -350M189 612l1 23 0 -23M190 622l1 3M191 702l0 -323M191 621l1 6M192 637l0 -239M192 611l1 26 0 -26 1 26M194 702l0 -344M194 624l1 -1M195 639l0 -243M195 639l1 -31M196 641l0 -34M196 641l1 -34M197 703l0 -450M197 614l1 19"/>
<path stroke="red" d="M198 636l0 -232M198 633l1 -18M199 633l0 -18M199 627l1 -6M200 702l0 -416M200 621l1 5M201 628l0 -236M201 619l1 9M202 630l0 -13 1 13M203 702l0 -325M203 627l1 -6M204 629l0 -224M204 619l1 10M205 635l0 -22 1 22M206 702l0 -344"/>
<path stroke="red" d="M206 623l1 1M207 631l0 -221M207 616l1 15M208 703l0 -260 1 115M209 645l0 -404M209 641l1 -34M210 641l0 -237M210 627l1 -6M211 702l0 -238M211 507l1 -44M212 701l0 -314M212 612l1 22M213 701l0 -586M213 602l1 43M214 702l0 -324M214 619l1 8"/>
<path stroke="red" d="M215 627l0 -8M215 622l1 4M216 627l0 -222M216 621l1 6M217 702l0 -292M217 600l1 35M218 697l0 -339M218 576l1 3M219 626l0 -209M219 621l1 5M220 703l0 -450M220 633l1 -19M221 633l0 -229M221 447l1 27M222 640l0 -225M222 611l1 26"/>
<path stroke="red" d="M223 702l0 -293M223 479l1 4M224 701l0 -414M224 561l1 -48M225 631l0 -224M225 630l1 -12M226 702l0 -325M226 627l1 -7M227 627l0 -222M227 421l1 36M228 644l0 -187M228 638l1 -28M229 702l0 -344M229 623l1 0M230 644l0 -232M230 644l1 -42"/>
<path stroke="red" d="M231 644l0 -42M231 638l1 -28M232 703l0 -462M232 632l1 -16M233 632l0 -228M233 616l1 15M234 636l0 -24 1 24M235 702l0 -291M235 636l1 -26M236 701l0 -353M236 636l1 -26M237 636l0 -26M237 626l1 -4M238 702l0 -323M238 627l1 -6M239 639l0 -234"/>
<path stroke="red" d="M239 609l1 30M240 641l0 -34 1 34M241 702l0 -344M241 624l1 -1M242 653l0 -241M242 595l1 57M243 653l0 -58 1 58M244 703l0 -450M244 633l1 -18M245 633l0 -229M245 633l1 -19M246 639l0 -30M246 639l1 -30M247 702l0 -416M247 626l1 -5"/>
<path stroke="red" d="M248 650l0 -258M248 649l1 -50M249 649l0 -50M249 649l1 -50M250 702l0 -325M250 621l1 6M251 628l0 -223M251 628l1 -8M252 634l0 -20M252 634l1 -20M253 702l0 -343M253 624l1 -1M254 630l0 -222M254 626l1 -5M255 626l0 -5M255 622l1 4"/>
<path stroke="red" d="M256 703l0 -462M256 660l1 -72M257 660l0 -256M257 638l1 -28M258 702l0 -175M258 552l1 -28M259 701l0 -294M259 648l1 -50M260 701l0 -404M260 624l1 -1M261 702l0 -324M261 612l1 1M262 627l0 -14M262 626l1 -4M263 630l0 -225M263 618l1 11"/>
<path stroke="red" d="M264 702l0 -293M264 445l1 62M265 697l0 -340M265 623l1 1M266 635l0 -227M266 634l1 -20M267 703l0 -450M267 614l1 19 0 -125 1 -44M269 628l0 -224M269 628l1 -9M270 702l0 -295M270 638l1 -30M271 701l0 -414M271 458l1 -20M272 629l0 -218"/>
<path stroke="red" d="M272 629l1 -10M273 702l0 -325M273 620l1 7 0 -222M274 516l1 5M275 635l0 -224M275 635l1 -22M276 702l0 -344M276 623l1 0M277 625l0 -217M277 457l1 -35M278 633l0 -211M278 631l1 -15M279 703l0 -462M279 615l1 18 0 -229M280 614l1 18"/>
<path stroke="red" d="M281 632l0 -17M281 623l1 2M282 702l0 -303M282 597l1 50M283 701l0 -353M283 625l1 -4M284 628l0 -8 1 8M285 702l0 -323M285 627l1 -6M286 637l0 -232M286 636l1 -25M287 636l0 -25M287 631l1 -14M288 702l0 -344M288 623l1 1M289 636l0 -238"/>
<path stroke="red" d="M289 636l1 -25M290 636l0 -25M290 635l1 -23M291 703l0 -450M291 614l1 19 0 -229M292 617l1 13M293 634l0 -20 1 20M294 702l0 -416M294 621l1 5 0 -234M295 623l1 2M296 629l0 -10 1 10M297 702l0 -325M297 627l1 -6M298 638l0 -233M298 638l1 -28"/>
<path stroke="red" d="M299 640l0 -32M299 640l1 -32M300 702l0 -344M300 624l1 -1M301 633l0 -218M301 633l1 -18M302 635l0 -22M302 635l1 -22M303 703l0 -462M303 606l1 36 0 -238M304 626l1 -5M305 702l0 -82M305 702l1 0 0 -314M306 463l1 -36M307 701l0 -586"/>
<path stroke="red" d="M307 604l1 40M308 702l0 -324M308 493l1 -31M309 627l0 -215M309 621l1 5 0 -222M310 624l1 -1M311 702l0 -292M311 456l1 -12M312 697l0 -339M312 624l1 -1M313 626l0 -224M313 626l1 -4M314 703l0 -450M314 614l1 19 0 -19 1 19 0 -229"/>
<path stroke="red" d="M316 632l1 -16M317 702l0 -303M317 622l1 0M318 701l0 -414M318 573l1 -50M319 632l0 -240M319 626l1 -4M320 702l0 -325M320 627l1 -7M321 627l0 -222M321 541l1 -44M322 628l0 -217M322 627l1 -6M323 702l0 -344M323 581l1 29M324 625l0 -213"/>
<path stroke="red" d="M324 466l1 -46M325 629l0 -210M325 627l1 -6M326 703l0 -462M326 632l1 -16M327 632l0 -228M327 631l1 -18M328 632l0 -19M328 631l1 -14M329 702l0 -310M329 545l1 77M330 701l0 -353M330 605l1 36 0 -36M331 623l1 2M332 702l0 -323M332 621l1 6"/>
<path stroke="red" d="M333 637l0 -232M333 611l1 26M334 638l0 -28 1 28M335 702l0 -344M335 624l1 -1M336 643l0 -231M336 604l1 39M337 646l0 -45 1 46M338 703l0 -450M338 633l1 -19M339 633l0 -229M339 630l1 -12M340 634l0 -20M340 634l1 -20M341 702l0 -416"/>
<path stroke="red" d="M341 626l1 -6M342 636l0 -244M342 612l1 24M343 639l0 -30 1 30M344 702l0 -325M344 627l1 -6M345 628l0 -223M345 623l1 2M346 636l0 -24 1 24M347 702l0 -344M347 623l1 1M348 632l0 -218M348 626l1 -5M349 631l0 -14 1 14M350 703l0 -462"/>
<path stroke="red" d="M350 648l1 -49M351 651l0 -247M351 628l1 -9M352 628l0 -9M352 624l1 0M353 702l0 -290M353 466l1 -22M354 701l0 -479M354 621l1 5M355 702l0 -252 1 116M356 627l0 -249M356 626l1 -5M357 631l0 -227M357 623l1 2M358 702l0 -292M358 539l1 -19"/>
<path stroke="red" d="M359 697l0 -339M359 624l1 -1M360 627l0 -223M360 627l1 -7M361 703l0 -450M361 627l1 -16M362 633l0 -22M362 633l1 -19M363 633l0 -229M363 625l1 -2M364 702l0 -299M364 612l1 1M365 701l0 -414M365 576l1 3M366 633l0 -241M366 619l1 10"/>
<path stroke="red" d="M367 702l0 -325M367 620l1 7 0 -222M368 537l1 15M369 632l0 -218M369 632l1 -16M370 702l0 -296M370 446l1 7M371 625l0 -267M371 415l1 24M372 631l0 -202M372 617l1 14M373 703l0 -462M373 633l1 -18M374 633l0 -229M374 430l1 101M375 632l0 -101"/>
<path stroke="red" d="M375 616l1 16M376 702l0 -308M376 441l1 -5M377 701l0 -353M377 639l1 -33M378 640l0 -34M378 633l1 -18M379 702l0 -323M379 627l1 -6M380 632l0 -227M380 632l1 -17M381 637l0 -26M381 637l1 -26M382 702l0 -344M382 623l1 1M383 635l0 -223"/>
<path stroke="red" d="M383 635l1 -23M384 640l0 -32M384 640l1 -32M385 703l0 -450M385 614l1 19 0 -229M386 628l1 -9M387 628l0 -9M387 624l1 0M388 702l0 -416M388 622l1 -4M389 627l0 -235M389 627l1 -7M390 630l0 -12M390 630l1 -12M391 702l0 -325M391 621l1 6"/>
<path stroke="red" d="M392 627l0 -222M392 623l1 2M393 627l0 -6M393 627l1 -6M394 702l0 -344M394 624l1 -1M395 633l0 -223M395 618l1 12 0 -12M396 625l1 -2M397 703l0 -462M397 598l1 52 0 -246M398 627l1 -6M399 632l0 -16M399 632l1 -16M400 702l0 -292"/>
<path stroke="red" d="M400 455l1 0M401 701l0 -587M401 631l1 -15M402 637l0 -26M402 637l1 -26M403 702l0 -324M403 626l1 -5M404 626l0 -221M404 626l1 -4M405 702l0 -175M405 535l1 -75M406 697l0 -339M406 623l1 1M407 627l0 -208M407 627l1 -6M408 703l0 -450"/>
<path stroke="red" d="M408 380l1 88M409 633l0 -165M409 614l1 19 0 -229M410 623l1 2M411 702l0 -287M411 545l1 -26M412 701l0 -414M412 622l1 4M413 628l0 -236M413 628l1 -9M414 702l0 -325M414 627l1 -7M415 627l0 -120 1 -45M416 633l0 -228M416 615l1 18"/>
<path stroke="red" d="M417 702l0 -296M417 628l1 -10M418 697l0 -339M418 547l1 -43M419 638l0 -226M419 610l1 28M420 703l0 -462M420 615l1 18 0 -229M421 569l1 -23M422 634l0 -194M422 634l1 -20M423 702l0 -287M423 539l1 3M424 701l0 -353M424 532l1 17"/>
<path stroke="red" d="M425 635l0 -170M425 621l1 6M426 702l0 -323M426 621l1 6M427 630l0 -225M427 629l1 -11M428 629l0 -11M428 620l1 8M429 702l0 -344M429 624l1 -1M430 632l0 -220M430 632l1 -16M431 643l0 -39M431 643l1 -39M432 703l0 -450M432 614l1 19"/>
<path stroke="red" d="M433 633l0 -229M433 620l1 8M434 638l0 -29 1 30M435 702l0 -387 1 -29M436 641l0 -355M436 607l1 34M437 649l0 -50 1 50M438 702l0 -325M438 627l1 -6M439 628l0 -223M439 620l1 8M440 634l0 -20 1 20M441 702l0 -343M441 623l1 1M442 625l0 -189"/>
<path stroke="red" d="M442 625l1 -2M443 626l0 -4 1 4M444 703l0 -462M444 651l1 -54M445 655l0 -251M445 606l1 36 0 -36M446 610l1 28M447 702l0 -284M447 694l1 4M448 701l0 -404M448 632l1 -18M449 701l0 -179M449 624l1 0M450 702l0 -324M450 621l1 5 0 -225"/>
<path stroke="red" d="M451 624l1 0M452 702l0 -81M452 702l1 0 0 -345M453 624l1 -1M454 634l0 -226M454 614l1 20M455 703l0 -450M455 345l1 -24M456 633l0 -312M456 633l1 -19M457 633l0 -229M457 623l1 2M458 702l0 -287M458 534l1 -7M459 700l0 -414M459 626l1 -5"/>
<path stroke="red" d="M460 630l0 -238M460 618l1 12M461 702l0 -325M461 627l1 -7M462 627l0 -7M462 626l1 -4M463 626l0 -221M463 623l1 2M464 702l0 -296M464 625l1 -6M465 697l0 -339M465 572l1 -25M466 630l0 -215M466 625l1 -2M467 703l0 -462M467 633l1 -19"/>
<path stroke="red" d="M468 633l0 -229M468 444l1 96M469 633l0 -221M469 627l1 -6M470 702l0 -289M470 451l1 -12M471 701l0 -353M471 518l1 -103M472 627l0 -223M472 620l1 7M473 702l0 -323M473 627l1 -6M474 628l0 -223M474 613l1 17M475 635l0 -22 1 22M476 702l0 -345"/>
<path stroke="red" d="M476 623l1 0M477 641l0 -237M477 605l1 36M478 643l0 -38 1 38M479 703l0 -450M479 633l1 -19M480 633l0 -229M480 624l1 -1M481 633l0 -18M481 633l1 -18M482 702l0 -307M482 669l1 -86M483 638l0 -352M483 638l1 -28M484 638l0 -28M484 636l1 -25"/>
<path stroke="red" d="M485 702l0 -325M485 621l1 6M486 635l0 -230M486 635l1 -23M487 640l0 -32M487 640l1 -32M488 702l0 -344M488 624l1 -1M489 633l0 -218M489 615l1 18M490 636l0 -24 1 24M491 703l0 -462M491 640l1 -32M492 640l0 -236M492 634l1 -20M493 634l0 -20"/>
<path stroke="red" d="M493 626l1 -4M494 702l0 -307M494 612l1 21M495 701l0 -586M495 646l1 -44M496 646l0 -44M496 644l1 -40M497 702l0 -324M497 626l1 -5M498 633l0 -228M498 633l1 -18M499 633l0 -18M499 633l1 -18M500 702l0 -344M500 623l1 1M501 637l0 -226"/>
<path stroke="red" d="M501 636l1 -24M502 703l0 -260 1 115M503 633l0 -380M503 614l1 19M504 637l0 -233M504 614l1 20M505 702l0 -271 1 -16M506 701l0 -414M506 626l1 -5M507 627l0 -235M507 625l1 -3M508 702l0 -325M508 619l1 8 0 -8M509 621l1 5M510 633l0 -228"/>
<path stroke="red" d="M510 619l1 10M511 702l0 -296M511 588l1 10M512 697l0 -339M512 576l1 3M513 633l0 -231M513 619l1 10M514 703l0 -462M514 614l1 19 0 -229M515 441l1 20M516 628l0 -212M516 628l1 -8M517 702l0 -303M517 479l1 4M518 701l0 -353M518 567l1 -34"/>
<path stroke="red" d="M519 628l0 -221M519 619l1 9M520 702l0 -323M520 627l1 -6M521 627l0 -222M521 441l1 96M522 639l0 -102M522 639l1 -30M523 702l0 -344M523 623l1 0M524 646l0 -251M524 646l1 -50M525 648l0 -52M525 647l1 -46M526 703l0 -450M526 614l1 19"/>
<path stroke="red" d="M527 633l0 -229M527 615l1 17M528 641l0 -34 1 34M529 702l0 -303M529 633l1 -21M530 701l0 -415M530 608l1 32 0 -32M531 610l1 28M532 702l0 -325M532 627l1 -6M533 638l0 -233M533 638l1 -28M534 641l0 -34M534 641l1 -34M535 702l0 -344"/>
<path stroke="red" d="M535 624l1 -1M536 630l0 -217M536 630l1 -13M537 632l0 -16M537 632l1 -16M538 703l0 -462M538 600l1 48 0 -249M539 615l1 18 0 -18M540 623l1 2M541 702l0 -318M541 621l1 -6M542 701l0 -485M542 626l1 -5M543 626l0 -5M543 625l1 -3M544 702l0 -324"/>
<path stroke="red" d="M544 621l1 6M545 637l0 -233M545 637l1 -26M546 640l0 -32M546 640l1 -32M547 702l0 -345M547 624l1 -1M548 625l0 -221M548 625l1 -2M549 626l0 -4M549 626l1 -5M550 703l0 -450M550 614l1 19 0 -229M551 625l1 -2M552 702l0 -175M552 552l1 -28"/>
<path stroke="red" d="M553 701l0 -414M553 621l1 5M554 631l0 -239M554 617l1 14M555 702l0 -325M555 613l1 1M556 627l0 -13M556 626l1 -5M557 631l0 -226M557 616l1 15M558 702l0 -296M558 451l1 0M559 697l0 -339M559 623l1 1M560 631l0 -217M560 617l1 14"/>
<path stroke="red" d="M561 703l0 -462M561 632l1 -18M562 633l0 -125 1 -44M563 632l0 -228M563 619l1 10M564 702l0 -289M564 622l1 2M565 701l0 -353M565 411l1 93M566 637l0 -231M566 620l1 7M567 702l0 -323M567 620l1 7 0 -222M568 541l1 6M569 637l0 -239"/>
<path stroke="red" d="M569 611l1 26M570 702l0 -344M570 623l1 0M571 624l0 -228 1 119M572 640l0 -125M572 608l1 32M573 703l0 -450M573 633l1 -19M574 636l0 -232M574 610l1 26 0 -26M575 620l1 8M576 702l0 -309M576 598l1 50M577 701l0 -415M577 619l1 8"/>
<path stroke="red" d="M578 630l0 -12 1 12M579 702l0 -325M579 627l1 -6M580 627l0 -222M580 622l1 3M581 633l0 -19 1 20M582 702l0 -344M582 623l1 1M583 629l0 -219M583 619l1 10M584 635l0 -22 1 22M585 703l0 -462M585 643l1 -38M586 643l0 -239M586 623l1 2"/>
<path stroke="red" d="M587 630l0 -12 1 12M588 702l0 -315M588 425l1 114M589 701l0 -586M589 646l1 -44M590 646l0 -44M590 645l1 -43M591 702l0 -324M591 627l1 -6M592 627l0 -222M592 621l1 5M593 628l0 -8 1 8M594 702l0 -344M594 624l1 -1M595 626l0 -209"/>
<path stroke="red" d="M595 622l1 4M596 627l0 -7 1 7M597 703l0 -450M597 633l1 -19M598 640l0 -236M598 610l1 28M599 702l0 -92M599 702l1 0 0 -415M600 626l1 -5M601 631l0 -239M601 617l1 13M602 702l0 -325M602 495l1 -33M603 627l0 -218M603 621l1 5M604 644l0 -239"/>
<path stroke="red" d="M604 608l1 32M605 702l0 -296M605 557l1 -53M606 697l0 -339M606 624l1 -1M607 644l0 -232M607 639l1 -30M608 703l0 -462M608 631l1 -20M609 633l0 -22M609 628l1 -8M610 635l0 -231M610 613l1 22M611 702l0 -287M611 598l1 51M612 701l0 -353"/>
<path stroke="red" d="M612 572l1 -48M613 637l0 -239M613 629l1 -10M614 702l0 -323M614 627l1 -7M615 627l0 -222M615 444l1 2M616 640l0 -218M616 640l1 -32M617 702l0 -344M617 580l1 29M618 624l0 -212M618 449l1 -8M619 653l0 -224M619 652l1 -57M620 703l0 -450"/>
<path stroke="red" d="M620 614l1 19 0 -229M621 603l1 -2M622 638l0 -37M622 638l1 -28M623 702l0 -294M623 450l1 -32M624 701l0 -415M624 650l1 -53M625 650l0 -53M625 648l1 -49M626 702l0 -325M626 621l1 6 0 -222M627 624l1 -1M628 632l0 -17M628 632l1 -17"/>
<path stroke="red" d="M629 702l0 -343M629 624l1 0M630 630l0 -222M630 618l1 11 0 -11M631 625l1 -2M632 703l0 -462M632 588l1 71M633 660l0 -256M633 605l1 37 0 -36M634 615l1 18M635 702l0 -291M635 479l1 91M636 701l0 -404M636 620l1 6M637 698l0 -354"/>
<path stroke="red" d="M637 624l1 0M638 702l0 -324M638 627l1 -6M639 630l0 -225M639 618l1 12 0 -12M640 619l1 10M641 702l0 -345M641 623l1 1M642 635l0 -227M642 635l1 -22M643 635l0 -22M643 633l1 -18M644 703l0 -450M644 614l1 19 0 -229M645 622l1 4M646 632l0 -16"/>
<path stroke="red" d="M646 616l1 16M647 702l0 -415M647 621l1 5M648 629l0 -237M648 619l1 10M649 702l0 -252 1 116M650 627l0 -250M650 626l1 -5M651 635l0 -230M651 635l1 -22M652 702l0 -296M652 432l1 32M653 697l0 -339M653 624l1 -1M654 633l0 -225M654 632l1 -17"/>
<path stroke="red" d="M655 703l0 -462M655 433l1 29M656 633l0 -171M656 616l1 16 0 -228M657 621l1 6M658 702l0 -296M658 420l1 110M659 701l0 -353M659 576l1 3M660 627l0 -229M660 627l1 -6M661 702l0 -323M661 620l1 7 0 -222M662 536l1 15M663 637l0 -229"/>
<path stroke="red" d="M663 616l1 16M664 702l0 -299M664 446l1 7M665 624l0 -266M665 455l1 -18M666 636l0 -238M666 635l1 -23M667 703l0 -450M667 614l1 19 0 -229M668 511l1 -20M669 633l0 -199M669 615l1 18M670 702l0 -302M670 426l1 47M671 701l0 -415M671 623l1 -1"/>
<path stroke="red" d="M672 628l0 -8 1 8M673 702l0 -325M673 627l1 -6M674 635l0 -230M674 611l1 24M675 640l0 -32 1 32M676 702l0 -344M676 623l1 1M677 630l0 -215M677 616l1 14M678 635l0 -22 1 22M679 703l0 -462M679 644l1 -40M680 644l0 -240M680 626l1 -4"/>
<path stroke="red" d="M681 628l0 -8M681 628l1 -8M682 702l0 -314M682 448l1 119M683 701l0 -586M683 604l1 39M684 644l0 -40 1 40M685 702l0 -324M685 621l1 6 0 -223M686 625l1 -2M687 625l0 -2M687 624l1 0M688 702l0 -344M688 624l1 -1M689 626l0 -224M689 624l1 -1"/>
<path stroke="red" d="M690 629l0 -11 1 11M691 703l0 -450M691 633l1 -19M692 633l0 -229M692 616l1 16 0 -16M693 617l1 14M694 702l0 -415M694 626l1 -5M695 632l0 -240M695 628l1 -9M696 628l0 -9M696 622l1 4M697 702l0 -325M697 627l1 -6M698 628l0 -223"/>
<path stroke="red" d="M698 627l1 -7M699 702l0 -175M699 535l1 -76M700 697l0 -339M700 623l1 1M701 629l0 -217M701 628l1 -8M702 703l0 -462M702 443l1 -51M703 633l0 -305M703 628l1 -8M704 632l0 -228M704 617l1 14M705 702l0 -287M705 423l1 -5M706 701l0 -353"/>
<path stroke="red" d="M706 623l1 1M707 641l0 -243M707 629l1 -10M708 702l0 -323M708 627l1 -7M709 627l0 -120 1 -45M710 638l0 -233M710 610l1 28M711 702l0 -303M711 625l1 -4M712 697l0 -339M712 512l1 -88M713 645l0 -233M713 602l1 44M714 703l0 -450M714 633l1 -19"/>
<path stroke="red" d="M715 633l0 -229M715 461l1 59M716 633l0 -229M716 633l1 -18M717 702l0 -294M717 561l1 -11M718 701l0 -415M718 570l1 15M719 638l0 -53M719 638l1 -28M720 702l0 -325M720 621l1 6M721 628l0 -223M721 617l1 11M722 633l0 -19M722 633l1 -19"/>
<path stroke="red" d="M723 702l0 -344M723 624l1 -1M724 632l0 -218M724 631l1 -16M725 631l0 -16M725 619l1 10M726 703l0 -462M726 645l1 -42M727 651l0 -247M727 631l1 -14M728 631l0 -14M728 625l1 -2M729 702l0 -290M729 506l1 -52M730 701l0 -479M730 621l1 5"/>
<path stroke="red" d="M731 626l0 -5M731 622l1 4M732 702l0 -324M732 627l1 -6M733 631l0 -227M733 628l1 -9M734 628l0 -9M734 620l1 8M735 702l0 -344M735 623l1 1M736 626l0 -222M736 621l1 5M737 628l0 -9 1 9M738 703l0 -450M738 614l1 19 0 -229M739 625l1 -2"/>
<path stroke="red" d="M740 625l0 -2M740 625l1 -2M741 702l0 -415M741 626l1 -5M742 633l0 -241M742 617l1 14 0 -14M743 622l1 4M744 702l0 -325M744 621l1 6M745 632l0 -227M745 632l1 -16M746 702l0 -86M746 702l1 0 0 -344M747 624l1 -1M748 630l0 -215M748 630l1 -12"/>
<path stroke="red" d="M749 703l0 -462M749 343l1 23M750 633l0 -297M750 616l1 16 0 -228M751 632l1 -16M752 702l0 -284 1 11M753 701l0 -353M753 624l1 -1M754 640l0 -242M754 635l1 -22M755 702l0 -323M755 627l1 -7M756 627l0 -7M756 626l1 -4M757 635l0 -230"/>
<path stroke="red" d="M757 635l1 -23M758 702l0 -303M758 617l1 11M759 697l0 -339M759 572l1 -25M760 639l0 -227M760 639l1 -30M761 703l0 -450M761 614l1 19 0 -229M762 496l1 -20M763 630l0 -216M763 623l1 2M764 702l0 -294M764 416l1 90M765 701l0 -415"/>
<path stroke="red" d="M765 472l1 7M766 629l0 -171M766 618l1 11M767 702l0 -325M767 627l1 -7M768 627l0 -222M768 620l1 5M769 626l0 -6M769 626l1 -4M770 702l0 -344M770 624l1 -1M771 633l0 -223M771 613l1 20 0 -19M772 624l1 0M773 703l0 -462M773 594l1 59"/>
<path stroke="red" d="M774 653l0 -249M774 624l1 0M775 631l0 -14M775 631l1 -14M776 702l0 -292M776 670l1 -86M777 701l0 -587M777 619l1 9M778 635l0 -23 1 24M779 702l0 -324M779 621l1 6 0 -222M780 623l1 1M781 628l0 -8 1 8M782 702l0 -344M782 624l1 -1"/>
<path stroke="red" d="M783 627l0 -208M783 627l1 -6M784 628l0 -8M784 628l1 -8M785 703l0 -450M785 614l1 19 0 -229M786 621l1 6 0 -6M787 627l1 -6M788 702l0 -415M788 621l1 5M789 628l0 -236M789 628l1 -8M790 629l0 -10M790 629l1 -10M791 702l0 -325M791 627l1 -6"/>
<path stroke="red" d="M792 631l0 -226M792 631l1 -14M793 637l0 -26M793 637l1 -26M794 702l0 -344M794 623l1 1M795 636l0 -224M795 636l1 -25M796 703l0 -260 1 115M797 633l0 -392M797 629l1 -10M798 632l0 -228M798 632l1 -16M799 702l0 -238M799 507l1 -43"/>
<path stroke="red" d="M800 701l0 -353M800 624l1 -1M801 635l0 -237M801 619l1 10M802 702l0 -323M802 619l1 8 0 -8M803 622l1 4M804 630l0 -225M804 623l1 2M805 702l0 -292M805 504l1 -50M806 697l0 -339M806 576l1 3M807 640l0 -228M807 608l1 32M808 703l0 -450"/>
<path stroke="red" d="M808 633l1 -19M809 633l0 -229M809 447l1 28M810 636l0 -218M810 636l1 -24M811 702l0 -294M811 479l1 5M812 701l0 -415M812 425l1 42M813 647l0 -233M813 601l1 46M814 702l0 -325M814 627l1 -7M815 627l0 -222M815 468l1 21M816 632l0 -181"/>
<path stroke="red" d="M816 615l1 18M817 702l0 -343M817 623l1 1M818 625l0 -189M818 564l1 15M819 626l0 -47M819 622l1 4M820 703l0 -462M820 645l1 -43M821 655l0 -251M821 645l1 -41M822 644l0 -40M822 639l1 -30M823 702l0 -284M823 643l1 -38M824 701l0 -404"/>
<path stroke="red" d="M824 491l1 -56M825 701l0 -283M825 624l1 0M826 702l0 -324M826 627l1 -6M827 627l0 -226M827 622l1 3M828 626l0 -5M828 626l1 -5M829 702l0 -345M829 624l1 -1M830 633l0 -225M830 614l1 19M831 634l0 -20 1 20M832 703l0 -450M832 633l1 -19"/>
<path stroke="red" d="M833 633l0 -229M833 622l1 4 0 -4M834 624l1 0M835 702l0 -416M835 626l1 -5M836 630l0 -238M836 630l1 -13M837 630l0 -13M837 630l1 -12M838 702l0 -325M838 621l1 6 0 -222M839 623l1 1M840 627l0 -6M840 627l1 -6M841 702l0 -344M841 624l1 -1"/>
<path stroke="red" d="M842 630l0 -215M842 627l1 -6M843 627l0 -6M843 623l1 2M844 703l0 -462M844 632l1 -16M845 633l0 -229M845 629l1 -10M846 702l0 -175M846 552l1 -28M847 701l0 -353M847 623l1 0M848 627l0 -229M848 623l1 2M849 702l0 -323M849 612l1 2"/>
<path stroke="red" d="M850 627l0 -13M850 626l1 -4M851 634l0 -229M851 634l1 -21M852 702l0 -299M852 420l1 119M853 697l0 -340M853 623l1 1M854 643l0 -239M854 643l1 -38M855 703l0 -450M855 614l1 19 0 -125 1 -44M857 631l0 -227M857 631l1 -15M858 702l0 -301"/>
<path stroke="red" d="M858 640l1 -34M859 701l0 -415M859 460l1 -25M860 638l0 -226M860 637l1 -26M861 702l0 -325M861 620l1 7 0 -222M862 467l1 -58M863 639l0 -230M863 639l1 -31M864 702l0 -344M864 623l1 0M865 625l0 -210M865 505l1 -89M866 635l0 -219"/>
<path stroke="red" d="M866 635l1 -22M867 703l0 -462M867 607l1 33 0 -236M868 608l1 30 0 -29M869 620l1 8M870 702l0 -307M870 593l1 59M871 701l0 -586M871 647l1 -47M872 647l0 -47M872 644l1 -40M873 702l0 -324M873 627l1 -6M874 633l0 -228M874 633l1 -19"/>
<path stroke="red" d="M875 633l0 -19M875 633l1 -18M876 702l0 -344M876 623l1 1M877 637l0 -226M877 637l1 -27M878 637l0 -27M878 635l1 -22M879 703l0 -450M879 614l1 19M880 637l0 -233M880 636l1 -24M881 636l0 -24M881 631l1 -15M882 702l0 -415M882 621l1 5"/>
<path stroke="red" d="M883 627l0 -235M883 621l1 5 0 -5M884 623l1 2M885 702l0 -325M885 627l1 -6M886 633l0 -228M886 617l1 13 0 -13M887 621l1 6M888 702l0 -344M888 624l1 -1M889 633l0 -231M889 617l1 13 0 -13M890 621l1 6M891 703l0 -462M891 619l1 10"/>
<path stroke="red" d="M892 629l0 -225M892 625l1 -3M893 702l0 -86M893 702l1 0 0 -354M894 623l1 0M895 627l0 -229M895 627l1 -6M896 702l0 -323M896 493l1 -31M897 627l0 -216M897 621l1 5M898 639l0 -234M898 609l1 30M899 702l0 -292M899 565l1 -25M900 697l0 -339"/>
<path stroke="red" d="M900 624l1 -1M901 648l0 -253M901 647l1 -46M902 703l0 -450M902 614l1 19 0 -19 1 19M904 639l0 -235M904 609l1 30M905 702l0 -303M905 598l1 48M906 701l0 -415M906 573l1 -50M907 640l0 -248M907 609l1 29M908 702l0 -325M908 627l1 -7"/>
<path stroke="red" d="M909 627l0 -222M909 545l1 -3M910 640l0 -225M910 608l1 32M911 702l0 -344M911 581l1 29M912 625l0 -189M912 482l1 -20M913 631l0 -218M913 616l1 15M914 703l0 -462M914 649l1 -51M915 649l0 -250M915 607l1 29 0 -27M916 621l1 5M917 702l0 -318"/>
<path stroke="red" d="M917 574l1 71M918 701l0 -485M918 669l1 -86M919 626l0 -335M919 626l1 -4M920 702l0 -324M920 621l1 6M921 635l0 -231M921 635l1 -23M922 639l0 -30M922 639l1 -30M923 702l0 -345M923 624l1 -1M924 624l0 -220M924 623l1 1M925 626l0 -4"/>
<path stroke="red" d="M925 622l1 4M926 703l0 -450M926 633l1 -19M927 633l0 -229M927 621l1 5 0 -5M928 625l1 -2M929 702l0 -415M929 626l1 -6M930 631l0 -239M930 617l1 14M931 632l0 -16 1 16M932 702l0 -325M932 627l1 -6M933 630l0 -225M933 617l1 13M934 632l0 -16"/>
<path stroke="red" d="M934 616l1 16M935 702l0 -344M935 623l1 1M936 630l0 -216M936 617l1 13M937 631l0 -15 1 15M938 703l0 -462M938 632l1 -16M939 632l0 -228M939 630l1 -12M940 630l0 -12M940 627l1 -6M941 702l0 -354M941 617l1 3M942 637l0 -239M942 631l1 -14"/>
<path stroke="red" d="M943 702l0 -252 1 116M944 627l0 -248M944 626l1 -5M945 637l0 -239M945 611l1 26M946 702l0 -292M946 540l1 -16M947 697l0 -339M947 624l1 -1M948 640l0 -244M948 608l1 32M949 703l0 -450M949 628l1 -17M950 633l0 -22M950 633l1 -19"/>
<path stroke="red" d="M951 636l0 -232M951 618l1 12 0 -12"/>
</svg>
