<?xml version="1.0" standalone="yes"?>
<!DOCTYPE svg PUBLIC "-//W3C//DTD SVG 1.1//EN"
 "http://www.w3.org/Graphics/SVG/1.1/DTD/svg11.dtd">
<svg xmlns="http://www.w3.org/2000/svg" version="1.1"
  width="100%" height="100%" viewBox="0 0 1024 768"
  style="fill: none; stroke-width: 3; font-family: Helvetica;
 font: Helvetica;
">

<!-- Creator: NGspice -->

<rect x="0" y="0" width="1024" height="768" fill="white" stroke="none"/>
<text stroke="none" fill="black" font-size="16" x="358" y="752">
time
</text>
<text stroke="none" fill="black" font-size="16" x="10" y="16">
tran1: Cumulative Energy Consumption
</text>
<path stroke="black" stroke-width="3" d="M70 704l0 -640"/>
<text stroke="none" fill="black" font-size="16" x="55" y="728">
0.0
</text>
<path stroke="black" stroke-width="3" stroke-dasharray="1,2" d="M217 704l0 -640"/>
<text stroke="none" fill="black" font-size="16" x="202" y="728">
0.5
</text>
<path stroke="black" stroke-width="3" stroke-dasharray="1,2" d="M364 704l0 -640"/>
<text stroke="none" fill="black" font-size="16" x="349" y="728">
1.0
</text>
<path stroke="black" stroke-width="3" stroke-dasharray="1,2" d="M511 704l0 -640"/>
<text stroke="none" fill="black" font-size="16" x="496" y="728">
1.5
</text>
<path stroke="black" stroke-width="3" stroke-dasharray="1,2" d="M658 704l0 -640"/>
<text stroke="none" fill="black" font-size="16" x="643" y="728">
2.0
</text>
<path stroke="black" stroke-width="3" stroke-dasharray="1,2" d="M805 704l0 -640"/>
<text stroke="none" fill="black" font-size="16" x="790" y="728">
2.5
</text>
<path stroke="black" stroke-width="3" stroke-dasharray="1,2" d="M952 704l0 -640"/>
<text stroke="none" fill="black" font-size="16" x="937" y="728">
3.0
</text>
<text stroke="none" fill="black" font-size="16" x="614" y="752">
us
</text>
<path stroke="black" stroke-width="3" d="M70 704l882 0"/>
<text stroke="none" fill="black" font-size="16" x="28" y="712">
-0.0
</text>
<path stroke="black" stroke-width="3" stroke-dasharray="1,2" d="M70 624l882 0"/>
<text stroke="none" fill="black" font-size="16" x="28" y="632">
20.0
</text>
<path stroke="black" stroke-width="3" stroke-dasharray="1,2" d="M70 544l882 0"/>
<text stroke="none" fill="black" font-size="16" x="28" y="552">
40.0
</text>
<path stroke="black" stroke-width="3" stroke-dasharray="1,2" d="M70 464l882 0"/>
<text stroke="none" fill="black" font-size="16" x="28" y="472">
60.0
</text>
<path stroke="black" stroke-width="3" stroke-dasharray="1,2" d="M70 384l882 0"/>
<text stroke="none" fill="black" font-size="16" x="28" y="392">
80.0
</text>
<path stroke="black" stroke-width="3" stroke-dasharray="1,2" d="M70 304l882 0"/>
<text stroke="none" fill="black" font-size="16" x="18" y="312">
100.0
</text>
<path stroke="black" stroke-width="3" stroke-dasharray="1,2" d="M70 224l882 0"/>
<text stroke="none" fill="black" font-size="16" x="18" y="232">
120.0
</text>
<path stroke="black" stroke-width="3" stroke-dasharray="1,2" d="M70 144l882 0"/>
<text stroke="none" fill="black" font-size="16" x="18" y="152">
140.0
</text>
<path stroke="black" stroke-width="3" stroke-dasharray="1,2" d="M70 64l882 0"/>
<text stroke="none" fill="black" font-size="16" x="18" y="72">
160.0
</text>
<text stroke="none" fill="black" font-size="16" x="10" y="32">
p     
</text>
<path stroke="red" d="M441 23l44 0"/>
<text stroke="none" fill="black" font-size="16" x="495" y="32">
total_energy
</text>
<path stroke="red" d="M70 704l0 -1 1 0 0 -2 1 0 0 -1 1 0 0 -1 2 0 0 -1 2 0 0 -1 2 0 0 -1 1 0 0 -1 2 0 0 -1 1 0 0 -1 2 0 0 -1 1 0 0 -1 2 0M88 692l0 -2 3 0 0 -1 1 0 0 -1 2 0 0 -2 1 0 0 -1 2 0 0 -1 2 0 0 -1 1 0M100 684l0 -1 1 0 0 -1 2 0 0 -1 1 0"/>
<path stroke="red" d="M104 681l0 -1 2 0 0 -1 1 0 0 -1 2 0 0 -1 3 0 0 -1 1 0 0 -1 1 0 0 -1 1 0 0 -1 2 0 0 -1 1 0 0 -2 1 0 0 -1 1 0 0 -1 3 0 0 -1 1 0 0 -1 2 0 0 -1 2 0 0 -1 1 0 0 -1 1 0 0 -1 3 0 0 -1 2 0 0 -1 1 0 0 -1 2 0 0 -1 1 0 0 -1 2 0 0 -1"/>
<path stroke="red" d="M141 656l1 0 0 -2 3 0 0 -1 2 0 0 -1 1 0 0 -1 2 0 0 -1 1 0 0 -1 2 0M153 650l0 -2 1 0 0 -1 3 0 0 -1 2 0 0 -1 1 0 0 -1 2 0 0 -2 2 0 0 -1 1 0 0 -2 1 0 0 -1 1 0 0 -1 2 0 0 -1 2 0 0 -1 2 0 0 -1 2 0 0 -1 1 0 0 -1 1 0 0 -1 2 0 0 -1"/>
<path stroke="red" d="M179 630l1 0 0 -1 2 0 0 -1 3 0 0 -1 1 0 0 -1 2 0 0 -2 1 0 0 -1 2 0 0 -1 1 0 0 -1 2 0 0 -1 3 0 0 -1 1 0 0 -1 2 0 0 -1 1 0 0 -1 2 0 0 -1 1 0 0 -1 2 0M206 615l0 -1 1 0 0 -1 2 0 0 -2 1 0 0 -1 2 0 0 -2 1 0 0 -1 1 0 0 -1 3 0 0 -1"/>
<path stroke="red" d="M217 605l2 0 0 -1 1 0 0 -1 2 0 0 -1 2 0 0 -2 2 0 0 -1 3 0 0 -1 1 0 0 -1 2 0 0 -1 1 0 0 -1 2 0 0 -1 1 0 0 -2 2 0 0 -1 3 0 0 -1 1 0 0 -1 2 0 0 -1 1 0 0 -1 2 0 0 -1 1 0 0 -1 3 0 0 -1 2 0 0 -1 1 0 0 -1 2 0 0 -2 3 0 0 -3 1 0"/>
<path stroke="red" d="M260 577l0 -2 3 0 0 -1 1 0 0 -1 2 0 0 -1 3 0 0 -1 1 0 0 -1 1 0 0 -1 1 0 0 -1 2 0 0 -1 2 0 0 -1 1 0 0 -1 2 0 0 -1 1 0 0 -1 2 0 0 -1 1 0 0 -2 3 0 0 -1 2 0 0 -1 1 0 0 -1 3 0 0 -1 2 0 0 -2 1 0 0 -1 3 0 0 -1 2 0 0 -1 1 0 0 -1"/>
<path stroke="red" d="M301 550l2 0 0 -1 1 0 0 -1 2 0 0 -3 1 0 0 -1 3 0 0 -1 2 0 0 -1 1 0 0 -1 3 0 0 -1 1 0 0 -1 1 0 0 -1 1 0 0 -1 3 0 0 -1 1 0 0 -1 2 0 0 -1 1 0 0 -1 3 0 0 -2 1 0 0 -2 3 0 0 -1 2 0 0 -1 1 0 0 -1 3 0 0 -1 2 0 0 -2 1 0 0 -1 3 0"/>
<path stroke="red" d="M345 522l0 -1 2 0 0 -1 1 0 0 -1 2 0 0 -1 1 0 0 -1 2 0 0 -2 1 0 0 -2 3 0 0 -1 2 0 0 -1 1 0 0 -1 1 0 0 -1 3 0 0 -1 1 0 0 -1 1 0 0 -1 2 0 0 -1 2 0 0 -1 1 0 0 -1 2 0 0 -1 1 0 0 -1 2 0 0 -1 1 0 0 -2 3 0 0 -1 2 0 0 -1 1 0 0 -1"/>
<path stroke="red" d="M383 495l2 0 0 -1 3 0 0 -2 1 0 0 -1 3 0 0 -1 2 0 0 -1 1 0 0 -1 2 0 0 -1 1 0 0 -1 2 0 0 -2 1 0 0 -2 3 0 0 -1 2 0 0 -1 1 0 0 -1 3 0 0 -1 1 0 0 -1 1 0 0 -1 1 0 0 -1 3 0 0 -1 1 0 0 -1 2 0 0 -1 1 0 0 -1 2 0 0 -1 1 0 0 -1 1 0"/>
<path stroke="red" d="M424 469l0 -2 3 0 0 -1 2 0 0 -1 1 0 0 -1 3 0 0 -1 2 0 0 -2 1 0 0 -1 3 0 0 -1 2 0 0 -1 1 0 0 -1 2 0 0 -1 1 0 0 -1 2 0 0 -2 1 0 0 -2 2 0 0 -1 1 0 0 -1 2 0 0 -1 2 0 0 -1 2 0 0 -1 2 0 0 -2 2 0 0 -1 2 0 0 -1 2 0 0 -1 2 0 0 -1"/>
<path stroke="red" d="M467 440l1 0 0 -1 2 0 0 -1 1 0 0 -2 2 0 0 -1 1 0 0 -1 2 0 0 -1 3 0 0 -1 1 0 0 -1 2 0 0 -1 1 0 0 -1 2 0 0 -1 3 0 0 -1 1 0 0 -1 2 0 0 -2 1 0 0 -1 2 0 0 -2 1 0 0 -1 2 0 0 -1 3 0 0 -1 1 0 0 -1 2 0 0 -1 1 0 0 -1 2 0 0 -1 1 0"/>
<path stroke="red" d="M507 414l0 -1 1 0 0 -1 3 0 0 -1 2 0 0 -1 1 0 0 -1 2 0 0 -1 1 0 0 -1 1 0 0 -2 3 0 0 -1 2 0 0 -1 1 0 0 -1 2 0 0 -1 1 0 0 -1 2 0 0 -1 1 0 0 -1 3 0 0 -1 2 0 0 -1 1 0 0 -1 2 0 0 -2 3 0 0 -2 1 0 0 -2 2 0 0 -1 1 0 0 -1 2 0 0 -1"/>
<path stroke="red" d="M547 386l3 0 0 -1 1 0 0 -1 2 0 0 -2 2 0 0 -1 2 0 0 -1 2 0 0 -1 2 0 0 -1 2 0 0 -1 1 0 0 -1 1 0 0 -2 2 0 0 -1 2 0 0 -1 1 0 0 -1 3 0 0 -1 1 0 0 -1 2 0 0 -1 1 0 0 -1 2 0 0 -1 1 0 0 -1 2 0 0 -1 3 0 0 -2 1 0 0 -1 2 0 0 -2 1 0"/>
<path stroke="red" d="M589 359l0 -1 2 0 0 -1 3 0 0 -1 1 0 0 -1 2 0 0 -1 1 0 0 -1 2 0 0 -1 1 0 0 -1 2 0 0 -1 2 0 0 -1 2 0 0 -1 1 0 0 -1 2 0 0 -1 1 0 0 -1 1 0 0 -2 2 0 0 -1 3 0 0 -1 1 0 0 -1 2 0 0 -1 1 0 0 -1 2 0 0 -1 1 0 0 -1 2 0 0 -1 3 0 0 -1"/>
<path stroke="red" d="M629 334l1 0 0 -1 2 0 0 -2 1 0 0 -1 2 0M635 331l0 -2 1 0 0 -3 3 0 0 -1 2 0 0 -1 1 0 0 -1 3 0 0 -1 2 0 0 -2 1 0 0 -1 3 0 0 -1 2 0 0 -1 1 0 0 -1 1 0 0 -1 2 0 0 -1 2 0 0 -2 1 0 0 -1 3 0 0 -1 1 0 0 -1 2 0 0 -1 2 0 0 -1 2 0 0 -2"/>
<path stroke="red" d="M670 305l1 0 0 -1 3 0 0 -1 2 0 0 -1 1 0 0 -1 2 0 0 -1 1 0 0 -1 2 0 0 -2 1 0 0 -2 3 0 0 -1 2 0 0 -1 1 0 0 -1 3 0 0 -1 2 0 0 -2 1 0 0 -1 3 0 0 -1 2 0 0 -1 1 0 0 -1 2 0 0 -1 1 0 0 -1 1 0M705 284l0 -1 1 0 0 -2 1 0 0 -1 3 0 0 -1"/>
<path stroke="red" d="M710 279l1 0 0 -1 2 0 0 -1 2 0 0 -1 2 0 0 -1 1 0 0 -2 3 0 0 -1 2 0 0 -1 1 0 0 -1 2 0 0 -1 1 0 0 -1 2 0 0 -1 1 -1 0 -2 3 0 0 -1 2 0 0 -1 1 0 0 -1 2 0 0 -1 3 0 0 -2 1 0 0 -1 3 0 0 -1 2 0 0 -1 1 0 0 -1 2 0 0 -1 1 0 0 -1 2 0"/>
<path stroke="red" d="M753 252l0 -2 1 0 0 -1 3 0 0 -1 1 0 0 -1 2 0 0 -1 1 0 0 -1 3 0 0 -1 1 0 0 -2 3 0 0 -1 2 0 0 -1 1 0 0 -1 2 0 0 -1 1 0 0 -1 2 0 0 -2 1 0 0 -2 3 0 0 -1 2 0 0 -1 1 0 0 -1 3 0 0 -1 2 0 0 -2 1 0 0 -1 3 0 0 -1 2 0 0 -1 1 0 0 -1"/>
<path stroke="red" d="M795 223l2 0 0 -1 1 0 0 -1 2 0 0 -2 1 0 0 -1 3 0 0 -1 1 0 0 -1 2 0 0 -1 2 0 0 -1 2 0 0 -1 1 0 0 -1 1 0 0 -1 2 0 0 -1 2 0 0 -1 1 0 0 -1 2 0 0 -1 1 0 0 -1 2 0 0 -2 1 0 0 -2 2 0 0 -1 1 0 0 -1 2 0 0 -1 3 0 0 -1 1 0 0 -1 2 0"/>
<path stroke="red" d="M835 197l0 -2 3 0 0 -1 1 0 0 -1 2 0 0 -1 3 0 0 -1 1 0 0 -1 2 0 0 -3 2 0 0 -1 2 0 0 -1 2 0 0 -1 2 0 0 -1 2 0 0 -1 1 0 0 -1 1 0 0 -1 2 0 0 -1 2 0 0 -1 1 0M864 179l0 -2 3 0 0 -2 1 0 0 -1 2 0 0 -1 1 0 0 -2 2 0 0 -1 3 0 0 -1"/>
<path stroke="red" d="M876 169l1 0 0 -1 2 0 0 -1 1 0 0 -1 2 0 0 -1 1 0 0 -1 2 0 0 -1 3 0 0 -1 1 0 0 -1 2 0 0 -1 1 0 0 -1 2 0 0 -2 1 0 0 -1 2 0 0 -1 2 0 0 -1 2 0 0 -1 1 0 0 -1 2 0 0 -1 2 0 0 -1 1 0 0 -1 1 0 0 -1 3 0 0 -1 1 0 0 -1 2 0 0 -2 3 0"/>
<path stroke="red" d="M917 144l0 -2 1 0 0 -2 1 0 0 -1 2 0 0 -1 2 0 0 -1 1 0 0 -1 3 0 0 -1 2 0 0 -2 1 0 0 -1 3 0 0 -1 2 0 0 -1 3 0 0 -1 1 0 0 -1 2 0 0 -3 3 0 0 -1 1 0 0 -1 2 0 0 -1 2 0 0 -1 2 0 0 -1 1 0"/>
</svg>
