<?xml version="1.0" standalone="yes"?>
<!DOCTYPE svg PUBLIC "-//W3C//DTD SVG 1.1//EN"
 "http://www.w3.org/Graphics/SVG/1.1/DTD/svg11.dtd">
<svg xmlns="http://www.w3.org/2000/svg" version="1.1"
  width="100%" height="100%" viewBox="0 0 1024 768"
  style="fill: none; stroke-width: 3; font-family: Helvetica;
 font: Helvetica;
">

<!-- Creator: NGspice -->

<rect x="0" y="0" width="1024" height="768" fill="white" stroke="none"/>
<text stroke="none" fill="black" font-size="16" x="358" y="752">
time
</text>
<text stroke="none" fill="black" font-size="16" x="10" y="16">
tran1: Even Parity Output
</text>
<path stroke="black" stroke-width="3" d="M50 704l0 -638"/>
<text stroke="none" fill="black" font-size="16" x="35" y="728">
0.0
</text>
<path stroke="black" stroke-width="3" stroke-dasharray="1,2" d="M204 704l0 -638"/>
<text stroke="none" fill="black" font-size="16" x="189" y="728">
0.5
</text>
<path stroke="black" stroke-width="3" stroke-dasharray="1,2" d="M358 704l0 -638"/>
<text stroke="none" fill="black" font-size="16" x="343" y="728">
1.0
</text>
<path stroke="black" stroke-width="3" stroke-dasharray="1,2" d="M512 704l0 -638"/>
<text stroke="none" fill="black" font-size="16" x="497" y="728">
1.5
</text>
<path stroke="black" stroke-width="3" stroke-dasharray="1,2" d="M666 704l0 -638"/>
<text stroke="none" fill="black" font-size="16" x="651" y="728">
2.0
</text>
<path stroke="black" stroke-width="3" stroke-dasharray="1,2" d="M820 704l0 -638"/>
<text stroke="none" fill="black" font-size="16" x="805" y="728">
2.5
</text>
<path stroke="black" stroke-width="3" stroke-dasharray="1,2" d="M974 704l0 -638"/>
<text stroke="none" fill="black" font-size="16" x="959" y="728">
3.0
</text>
<text stroke="none" fill="black" font-size="16" x="614" y="752">
us
</text>
<path stroke="black" stroke-width="3" stroke-dasharray="1,2" d="M50 704l924 0"/>
<text stroke="none" fill="black" font-size="16" x="8" y="712">
-0.2
</text>
<path stroke="black" stroke-width="3" d="M50 646l924 0"/>
<text stroke="none" fill="black" font-size="16" x="18" y="654">
0.0
</text>
<path stroke="black" stroke-width="3" stroke-dasharray="1,2" d="M50 588l924 0"/>
<text stroke="none" fill="black" font-size="16" x="18" y="596">
0.2
</text>
<path stroke="black" stroke-width="3" stroke-dasharray="1,2" d="M50 530l924 0"/>
<text stroke="none" fill="black" font-size="16" x="18" y="538">
0.4
</text>
<path stroke="black" stroke-width="3" stroke-dasharray="1,2" d="M50 472l924 0"/>
<text stroke="none" fill="black" font-size="16" x="18" y="480">
0.6
</text>
<path stroke="black" stroke-width="3" stroke-dasharray="1,2" d="M50 414l924 0"/>
<text stroke="none" fill="black" font-size="16" x="18" y="422">
0.8
</text>
<path stroke="black" stroke-width="3" stroke-dasharray="1,2" d="M50 356l924 0"/>
<text stroke="none" fill="black" font-size="16" x="18" y="364">
1.0
</text>
<path stroke="black" stroke-width="3" stroke-dasharray="1,2" d="M50 298l924 0"/>
<text stroke="none" fill="black" font-size="16" x="18" y="306">
1.2
</text>
<path stroke="black" stroke-width="3" stroke-dasharray="1,2" d="M50 240l924 0"/>
<text stroke="none" fill="black" font-size="16" x="18" y="248">
1.4
</text>
<path stroke="black" stroke-width="3" stroke-dasharray="1,2" d="M50 182l924 0"/>
<text stroke="none" fill="black" font-size="16" x="18" y="190">
1.6
</text>
<path stroke="black" stroke-width="3" stroke-dasharray="1,2" d="M50 124l924 0"/>
<text stroke="none" fill="black" font-size="16" x="18" y="132">
1.8
</text>
<path stroke="black" stroke-width="3" stroke-dasharray="1,2" d="M50 66l924 0"/>
<text stroke="none" fill="black" font-size="16" x="18" y="74">
2.0
</text>
<text stroke="none" fill="black" font-size="16" x="10" y="32">
V
</text>
<path stroke="red" d="M462 23l46 0"/>
<text stroke="none" fill="black" font-size="16" x="518" y="32">
v(out_parity)
</text>
<path stroke="red" d="M50 646l1 0M51 651l0 -550M51 646l1 0M52 663l0 -577M52 476l1 -140 0 -212 2 0M55 646l0 -535M55 646l2 0M57 662l0 -538 1 0M58 646l0 -537M58 646l3 0M61 661l0 -537 2 0M63 660l0 -551M63 124l1 0M64 646l0 -536M64 646l3 0M67 663l0 -539"/>
<path stroke="red" d="M67 124l2 0M69 646l0 -536M69 646l1 0M70 658l0 -534 3 0M73 646l0 -536M73 646l2 0M75 661l0 -552M75 646l1 -1M76 658l0 -549M76 646l3 0M79 660l0 -510 1 -16 0 -10 1 0M81 646l0 -537M81 646l2 0M83 662l0 -538 3 0M86 646l0 -536M86 646l1 0"/>
<path stroke="red" d="M87 662l0 -534 1 -3M88 646l0 -536M88 646l1 0M89 660l0 -536 3 0M92 646l0 -537M92 646l2 0M94 658l0 -534 1 0M95 646l0 -536M95 646l2 0M97 658l0 -454M97 646l1 0M98 658l0 -534 2 0M100 661l0 -552M100 646l1 0M101 661l0 -551M101 646l3 0"/>
<path stroke="red" d="M104 663l0 -539 2 0M106 646l0 -537M106 646l1 0M107 657l0 -533 3 0M110 646l0 -536M110 646l2 0M112 660l0 -551M112 646l1 0M113 659l0 -535 3 0M116 645l0 -536M116 645l1 1 0 -1M117 646l1 0M118 661l0 -537 1 0M119 125l0 -1M119 125l1 0"/>
<path stroke="red" d="M120 646l0 -538M120 646l1 0M121 647l0 -1 2 0M123 659l0 -535 1 0M124 646l0 -537M124 645l1 1M125 658l0 -550M125 646l1 0M126 657l0 -533 3 0M129 646l0 -536M129 646l2 0M131 661l0 -537 1 0M132 646l0 -536M132 646l3 0M135 662l0 -538"/>
<path stroke="red" d="M135 124l2 0M137 661l0 -550M137 124l1 0M138 646l0 -537M138 646l3 0M141 657l0 -533 2 0M143 646l0 -538M143 646l1 0M144 658l0 -534 2 0M146 656l0 -547M146 124l1 0M147 646l0 -537M147 646l2 0M149 658l0 -548M149 646l1 0M150 662l0 -552"/>
<path stroke="red" d="M150 646l3 0M153 669l0 -545 2 0M155 646l0 -535M155 646l1 0M156 670l0 -427 1 -68 0 -51 3 0M160 646l0 -535M160 646l1 0M161 669l0 -545 1 0M162 646l0 -534M162 646l1 0M163 670l0 -546 3 0M166 646l0 -536M166 646l1 0 1 -1M168 664l0 -540"/>
<path stroke="red" d="M168 124l1 0M169 646l0 -536M169 646l3 0M172 670l0 -546 2 0M174 670l0 -560M174 646l1 0M175 670l0 -546 3 0M178 646l0 -534M178 646l2 0M180 669l0 -545 1 0M181 646l0 -535M181 646l3 0M184 666l0 -542 2 0M186 664l0 -553M186 124l1 0"/>
<path stroke="red" d="M187 646l0 -536M187 646l3 0M190 669l0 -545 2 0M192 646l0 -535M192 646l1 0M193 670l0 -539 1 -4 0 -3 1 0M195 657l0 -546M195 124l1 0 0 -3 1 -7M197 646l0 -536M197 646l1 0M198 670l0 -546 1 0M199 668l0 -557M199 646l1 0M200 667l0 -543"/>
<path stroke="red" d="M200 124l3 0M203 646l0 -536M203 646l1 0M204 665l0 -158 1 -217 0 -166 1 0M206 646l0 -535M206 646l3 0M209 666l0 -542 2 0M211 670l0 -560M211 124l1 0M212 646l0 -534M212 646l3 0M215 666l0 -542 2 0M217 646l0 -535M217 646l1 0M218 668l0 -544"/>
<path stroke="red" d="M218 124l3 0M221 646l0 -534M221 646l2 0M223 667l0 -556M223 646l1 0M224 669l0 -558M224 646l3 0M227 669l0 -545 2 0M229 646l0 -536M229 646l1 0M230 664l0 -540 3 0M233 157l0 -46M233 157l1 102M234 646l0 -387M234 646l1 0M235 668l0 -544"/>
<path stroke="red" d="M235 124l1 0M236 646l0 -534M236 646l1 0M237 667l0 -543 3 0M240 646l0 -535M240 646l1 0M241 669l0 -544 1 -1 1 0M243 646l0 -535M243 646l1 0M244 647l0 -3M244 647l1 10M245 665l0 -554M245 646l1 0M246 669l0 -545 2 0M248 664l0 -553"/>
<path stroke="red" d="M248 155l1 -19M249 664l0 -553M249 646l3 0M252 656l0 -532 2 0M254 651l0 -568M254 646l1 0 0 -522 3 0M258 647l0 -563M258 646l2 0M260 647l0 -554M260 646l1 0 0 -522 3 0M264 652l0 -567M264 646l2 0 0 -522 1 0M267 652l0 -559M267 646l3 0"/>
<path stroke="red" d="M270 646l0 -521 1 0 0 -1 1 0M272 652l0 -564M272 646l1 0M273 651l0 -550M273 646l1 0 0 -522 3 0M277 647l0 -559M277 646l1 0 0 -521 1 0 0 -1 1 0M280 650l0 -567M280 646l3 0 0 -522 2 0M285 647l0 -562M285 124l1 0M286 652l0 -564"/>
<path stroke="red" d="M286 646l3 0 0 -522 2 0M291 650l0 -549M291 646l1 0 0 -522 2 0M294 645l0 -554M294 124l1 0M295 652l0 -559M295 646l2 0M297 651l0 -568M297 636l1 -3M298 650l0 -567M298 124l3 0M301 651l0 -567M301 646l2 0 0 -522 1 0M304 651l0 -555"/>
<path stroke="red" d="M304 646l3 0 0 -522 2 0M309 652l0 -562M309 643l1 -5 0 -541M310 393l1 224M311 648l0 -31M311 646l3 0 0 -522 1 0M315 647l0 -561M315 646l2 0 0 -522 3 0M320 647l0 -552M320 646l2 0M322 650l0 -548M322 124l1 0M323 651l0 -554M323 646l3 0"/>
<path stroke="red" d="M326 646l0 -522 2 0M328 652l0 -563M328 646l1 0 0 -522 3 0M332 649l0 -566M332 646l2 0M334 647l0 -559M334 646l1 0 0 -522 3 0M338 651l0 -553M338 646l2 0 0 -522 1 0M341 649l0 -550M341 646l2 0M343 647l0 -553M343 646l1 0 0 -522"/>
<path stroke="red" d="M344 124l2 0M346 651l0 -551M346 182l1 -33M347 650l0 -567M347 127l1 -1 0 -2 2 0 1 3M351 652l0 -566M351 646l1 0 0 -522 2 0M354 649l0 -566M354 646l3 0 0 -522 1 0M358 130l0 -7 1 -37M359 647l0 -561M359 124l1 0M360 652l0 -568"/>
<path stroke="red" d="M360 646l3 0 0 -522 2 0M365 649l0 -545M365 646l1 0 0 -522 3 0M369 652l0 -569M369 646l2 0M371 651l0 -570M371 125l1 0M372 650l0 -568M372 646l3 0 0 -522 2 0M377 647l0 -561M377 646l1 0 0 -522 3 0M381 647l0 -548M381 646l2 0M383 650l0 -553"/>
<path stroke="red" d="M383 646l1 0 0 -522 3 0M387 185l0 -103M387 185l1 336M388 650l0 -129M388 646l1 0 0 -522 2 0M391 652l0 -570M391 646l1 0M392 650l0 -530M392 646l2 0 0 -522 1 0M395 651l0 -570M395 651l1 -8M396 652l0 -567M396 124l1 0M397 652l0 -564"/>
<path stroke="red" d="M397 646l3 0 0 -522 2 0M402 649l0 -547M402 646l1 0 0 -522 3 0M406 651l0 -557M406 646l2 0M408 650l0 -569M408 646l1 0 0 -522 3 0M412 647l0 -551M412 646l2 0 0 -522 1 0M415 647l0 -557M415 646l3 0 0 -522 2 0M420 647l0 -553M420 124l1 0"/>
<path stroke="red" d="M421 647l0 -561M421 124l3 0M424 652l0 -565M424 646l2 0 0 -522 1 0 0 -1 1 1M428 650l0 -552M428 646l3 0 0 -522 1 0M432 652l0 -562M432 646l1 0 0 -522 1 0M434 647l0 -554M434 646l3 0 0 -522 2 0M439 648l0 -564M439 646l1 0 0 -522"/>
<path stroke="red" d="M440 124l2 0M442 648l0 -547M442 124l1 0M443 648l0 -564M443 646l2 0M445 650l0 -549M445 124l1 0M446 652l0 -566M446 646l1 0M447 663l0 -539 2 0M449 646l0 -535M449 646l2 0M451 662l0 -538 1 0M452 646l0 -537M452 646l3 0M455 661l0 -537"/>
<path stroke="red" d="M455 124l2 0M457 660l0 -551M457 124l1 0M458 646l0 -536M458 646l3 0M461 663l0 -539 2 0M463 646l0 -536M463 646l1 0M464 658l0 -118 1 -213 0 -203 3 0M468 646l0 -536M468 646l1 0M469 661l0 -537 1 0M470 658l0 -549M470 124l1 0M471 646l0 -537"/>
<path stroke="red" d="M471 646l3 0M474 660l0 -536 2 0M476 646l0 -537M476 646l1 0M477 662l0 -538 3 0M480 646l0 -536M480 646l2 0M482 662l0 -552M482 646l1 0M483 660l0 -536 3 0M486 646l0 -537M486 646l2 0M488 658l0 -534 1 0M489 646l0 -536M489 646l2 0"/>
<path stroke="red" d="M491 658l0 -454M491 646l1 0M492 658l0 -534 2 0M494 661l0 -552M494 124l1 0M495 661l0 -551M495 646l3 0M498 663l0 -539 2 0M500 646l0 -537M500 646l1 0M501 657l0 -531 1 -1 0 -1 2 0M504 125l0 -15 1 1M505 646l0 -535M505 646l1 0"/>
<path stroke="red" d="M506 660l0 -536 1 0M507 646l0 -537M507 646l1 0M508 659l0 -535 3 0M511 646l0 -537M511 646l1 0M512 661l0 -15M512 661l1 -43 0 -494 1 0M514 646l0 -538M514 646l2 0M516 647l0 -1 1 0M517 659l0 -535 2 0M519 658l0 -550M519 646l1 0"/>
<path stroke="red" d="M520 657l0 -533 3 0M523 646l0 -536M523 646l2 0M525 661l0 -537 1 0M526 646l0 -536M526 646l3 0M529 662l0 -538 2 0M531 661l0 -550M531 124l1 0M532 646l0 -537M532 646l3 0M535 657l0 -533 2 0M537 646l0 -538M537 646l1 0M538 658l0 -534"/>
<path stroke="red" d="M538 124l2 0M540 656l0 -547M540 124l1 0M541 642l0 -533M541 642l1 2M542 646l0 -2M542 646l1 0M543 658l0 -534 1 0M544 662l0 -552M544 127l1 -2M545 649l0 -538M545 646l3 0M548 669l0 -545 1 0M549 644l0 -533M549 644l1 0M550 646l0 -2"/>
<path stroke="red" d="M550 646l1 0M551 670l0 -546 3 0M554 646l0 -535M554 646l2 0M556 669l0 -557M556 646l1 0M557 670l0 -546 3 0M560 646l0 -536M560 646l2 0M562 664l0 -540 1 0M563 646l0 -536M563 646l3 0M566 670l0 -546 2 0M568 670l0 -560M568 124l1 0"/>
<path stroke="red" d="M569 670l0 -559M569 124l3 0M572 646l0 -534M572 646l2 0M574 669l0 -545 1 0M575 646l0 -535M575 646l3 0M578 666l0 -542 2 0M580 646l0 -535M580 646l1 0M581 664l0 -541M581 124l1 -3M582 646l0 -536M582 646l3 0M585 669l0 -545 1 0"/>
<path stroke="red" d="M586 646l0 -535M586 645l1 1 1 0M588 670l0 -546 1 0M589 282l0 -171M589 282l1 175M590 657l0 -533 1 0M591 646l0 -536M591 646l2 0M593 670l0 -559M593 645l1 0M594 667l0 -543 3 0M597 646l0 -536M597 646l2 0M599 665l0 -541 1 0M600 646l0 -535"/>
<path stroke="red" d="M600 646l3 0M603 666l0 -542 2 0M605 670l0 -560M605 124l1 0M606 646l0 -534M606 646l3 0M609 666l0 -542 2 0M611 646l0 -535M611 646l1 0M612 668l0 -544 3 0M615 646l0 -534M615 646l2 0M617 667l0 -544M617 124l1 -4M618 669l0 -558"/>
<path stroke="red" d="M618 111l1 16M619 646l0 -519M619 646l3 0M622 669l0 -545 1 0M623 646l0 -536M623 646l2 0M625 664l0 -540 3 0M628 646l0 -535M628 646l2 0M630 668l0 -556M630 646l1 0M631 667l0 -543 3 0M634 646l0 -535M634 646l2 0M636 669l0 -545"/>
<path stroke="red" d="M636 124l1 0M637 646l0 -535M637 646l2 0M639 665l0 -554M639 646l1 0M640 669l0 -545 2 0M642 664l0 -553M642 540l1 95M643 664l0 -553M643 646l1 0M644 664l0 -249M644 646l2 0M646 656l0 -532 2 0M648 651l0 -568M648 646l1 0 0 -522"/>
<path stroke="red" d="M649 124l3 0M652 647l0 -563M652 646l2 0M654 647l0 -554M654 647l1 -1M655 647l0 -521 1 -1 0 -1 2 0M658 125l0 -1M658 125l1 1M659 652l0 -567M659 646l1 0 0 -522 2 0M662 652l0 -559M662 646l3 0 0 -522 1 0M666 128l0 -4M666 128l1 -2"/>
<path stroke="red" d="M667 652l0 -564M667 646l1 0 0 -522 3 0M671 647l0 -559M671 646l2 0 0 -522 1 0M674 650l0 -567M674 646l3 0 0 -522 2 0M679 647l0 -562M679 124l1 0M680 652l0 -564M680 646l3 0 0 -522 2 0M685 650l0 -549M685 646l1 0 0 -522 2 0M688 645l0 -554"/>
<path stroke="red" d="M688 124l1 0M689 652l0 -559M689 646l2 0M691 651l0 -568M691 646l1 0M692 650l0 -567M692 124l3 0M695 543l0 -459M695 543l1 108 0 -8M696 646l1 0 0 -522 2 0M699 651l0 -555M699 646l3 0 0 -522 1 0M703 652l0 -562M703 644l1 3 0 -523"/>
<path stroke="red" d="M704 124l1 0M705 648l0 -551M705 646l3 0 0 -522 2 0M710 647l0 -561M710 646l1 0 0 -522 3 0M714 647l0 -552M714 646l2 0M716 650l0 -548M716 124l1 0M717 651l0 -554M717 646l3 0 0 -522 2 0M722 652l0 -563M722 646l1 0 0 -522 3 0M726 649l0 -566"/>
<path stroke="red" d="M726 646l2 0M728 647l0 -559M728 646l1 0 0 -522 3 0M732 651l0 -553M732 647l1 -1 1 0 0 -522 2 0M736 649l0 -550M736 646l1 0M737 647l0 -553M737 646l2 0 0 -522 1 0M740 651l0 -551M740 646l1 0M741 648l0 -552M741 124l1 0M742 650l0 -567"/>
<path stroke="red" d="M742 124l3 0M745 652l0 -566M745 646l2 0 0 -522 1 0M748 649l0 -566M748 646l3 0 0 -522 2 0M753 647l0 -561M753 124l1 0M754 652l0 -568M754 646l3 0 0 -522 2 0M759 649l0 -545M759 646l1 0 0 -522 3 0M763 652l0 -569M763 646l2 0M765 651l0 -570"/>
<path stroke="red" d="M765 646l1 0M766 650l0 -568M766 646l3 0 0 -522 2 0M771 647l0 -561M771 646l1 0 0 -16M772 635l1 -73 0 -438 3 0M776 647l0 -548M776 646l1 0 0 -522 1 0M778 650l0 -553M778 646l1 0 0 -522 3 0M782 650l0 -568M782 646l2 0 0 -522 1 0"/>
<path stroke="red" d="M785 652l0 -570M785 646l2 0M787 650l0 -530M787 646l1 0 0 -522 2 0M790 652l0 -571M790 646l1 0M791 652l0 -564M791 646l3 0 0 -522 2 0M796 649l0 -547M796 646l1 0 0 -522 3 0M800 651l0 -557M800 646l2 0M802 650l0 -569M802 646l1 0"/>
<path stroke="red" d="M803 646l0 -522 3 0M806 647l0 -551M806 646l2 0 0 -522 1 0M809 647l0 -557M809 647l1 -2M810 647l0 -2M810 646l3 0 0 -522 1 0M814 647l0 -553M814 646l1 0M815 647l0 -561M815 646l1 0 0 -522 3 0M819 652l0 -565M819 646l1 0 0 -1 1 -1"/>
<path stroke="red" d="M821 644l0 -520 1 0M822 650l0 -552M822 646l3 0 0 -522 2 0M827 652l0 -562M827 124l1 0M828 647l0 -554M828 646l3 0 0 -522 2 0M833 648l0 -564M833 646l1 0 0 -522 2 0M836 648l0 -547M836 124l1 0M837 648l0 -564M837 646l2 0M839 650l0 -549"/>
<path stroke="red" d="M839 646l1 0M840 652l0 -566M840 125l1 -1M841 663l0 -568M841 124l2 0M843 646l0 -535M843 646l2 0M845 662l0 -538 1 0M846 646l0 -537M846 646l3 0M849 661l0 -514 1 -14 0 -9 1 0M851 646l0 -537M851 646l1 0M852 660l0 -536 1 0M853 646l0 -536"/>
<path stroke="red" d="M853 646l3 0M856 663l0 -539 1 0M857 645l0 -535M857 645l1 0M858 646l0 -1M858 646l1 0M859 658l0 -534 3 0M862 646l0 -536M862 646l2 0M864 661l0 -552M864 124l1 0M865 646l0 -537M865 646l3 0M868 660l0 -536 2 0M870 646l0 -537M870 646l1 0"/>
<path stroke="red" d="M871 662l0 -538 3 0M874 646l0 -536M874 646l2 0M876 662l0 -552M876 646l1 0M877 660l0 -536 3 0M880 646l0 -537M880 646l2 0M882 658l0 -534 1 0M883 646l0 -536M883 646l2 0M885 658l0 -454M885 646l1 0M886 658l0 -534 2 0M888 646l0 -537"/>
<path stroke="red" d="M888 646l1 0M889 661l0 -551M889 124l1 -5M890 646l0 -536M890 646l3 0M893 663l0 -539 1 0M894 646l0 -537M894 646l2 0M896 657l0 -533 3 0M899 646l0 -536M899 646l2 0M901 660l0 -551M901 646l1 0M902 659l0 -535 3 0M905 646l0 -537"/>
<path stroke="red" d="M905 646l2 0M907 661l0 -537 1 0M908 646l0 -538M908 646l2 0M910 647l0 -1 1 0M911 659l0 -535 2 0M913 658l0 -550M913 271l1 167M914 657l0 -533 3 0M917 646l0 -536M917 646l2 0M919 661l0 -537 1 0M920 646l0 -536M920 646l3 0M923 662l0 -538"/>
<path stroke="red" d="M923 124l2 0M925 647l0 -536M925 647l1 3M926 661l0 -552M926 641l1 1M927 646l0 -4M927 646l3 0M930 657l0 -533 1 0M931 646l0 -538M931 646l2 0M933 658l0 -534 1 0M934 656l0 -547M934 593l1 -191 0 -278 1 0M936 646l0 -537M936 646l2 0"/>
<path stroke="red" d="M938 659l0 -549M938 646l1 0M939 662l0 -551M939 646l3 0M942 669l0 -545 2 0M944 646l0 -535M944 646l1 0M945 670l0 -546 3 0M948 646l0 -535M948 646l2 0M950 669l0 -557M950 646l1 0M951 670l0 -546 3 0M954 646l0 -536M954 646l2 0"/>
<path stroke="red" d="M956 664l0 -540 1 0M957 646l0 -536M957 646l3 0M960 670l0 -546 2 0M962 670l0 -560M962 143l1 -11M963 670l0 -559M963 125l1 0 0 -1 2 0 0 -1 1 -5M967 646l0 -534M967 646l1 0M968 669l0 -545 2 0M970 646l0 -535M970 646l3 0M973 666l0 -542"/>
<path stroke="red" d="M973 124l1 0"/>
</svg>
