<?xml version="1.0" standalone="yes"?>
<!DOCTYPE svg PUBLIC "-//W3C//DTD SVG 1.1//EN"
 "http://www.w3.org/Graphics/SVG/1.1/DTD/svg11.dtd">
<svg xmlns="http://www.w3.org/2000/svg" version="1.1"
  width="100%" height="100%" viewBox="0 0 1024 768"
  style="fill: none; stroke-width: 3; font-family: Helvetica;
 font: Helvetica;
">

<!-- Creator: NGspice -->

<rect x="0" y="0" width="1024" height="768" fill="white" stroke="none"/>
<text stroke="none" fill="black" font-size="16" x="358" y="752">
time
</text>
<text stroke="none" fill="black" font-size="16" x="10" y="16">
tran1: Verification: Physical vs Ideal Parity
</text>
<path stroke="black" stroke-width="3" d="M50 704l0 -640"/>
<text stroke="none" fill="black" font-size="16" x="35" y="728">
0.0
</text>
<path stroke="black" stroke-width="3" stroke-dasharray="1,2" d="M204 704l0 -640"/>
<text stroke="none" fill="black" font-size="16" x="189" y="728">
0.5
</text>
<path stroke="black" stroke-width="3" stroke-dasharray="1,2" d="M358 704l0 -640"/>
<text stroke="none" fill="black" font-size="16" x="343" y="728">
1.0
</text>
<path stroke="black" stroke-width="3" stroke-dasharray="1,2" d="M512 704l0 -640"/>
<text stroke="none" fill="black" font-size="16" x="497" y="728">
1.5
</text>
<path stroke="black" stroke-width="3" stroke-dasharray="1,2" d="M666 704l0 -640"/>
<text stroke="none" fill="black" font-size="16" x="651" y="728">
2.0
</text>
<path stroke="black" stroke-width="3" stroke-dasharray="1,2" d="M820 704l0 -640"/>
<text stroke="none" fill="black" font-size="16" x="805" y="728">
2.5
</text>
<path stroke="black" stroke-width="3" stroke-dasharray="1,2" d="M974 704l0 -640"/>
<text stroke="none" fill="black" font-size="16" x="959" y="728">
3.0
</text>
<text stroke="none" fill="black" font-size="16" x="614" y="752">
us
</text>
<path stroke="black" stroke-width="3" stroke-dasharray="1,2" d="M50 704l924 0"/>
<text stroke="none" fill="black" font-size="16" x="8" y="712">
-0.5
</text>
<path stroke="black" stroke-width="3" d="M50 624l924 0"/>
<text stroke="none" fill="black" font-size="16" x="18" y="632">
0.0
</text>
<path stroke="black" stroke-width="3" stroke-dasharray="1,2" d="M50 544l924 0"/>
<text stroke="none" fill="black" font-size="16" x="18" y="552">
0.5
</text>
<path stroke="black" stroke-width="3" stroke-dasharray="1,2" d="M50 464l924 0"/>
<text stroke="none" fill="black" font-size="16" x="18" y="472">
1.0
</text>
<path stroke="black" stroke-width="3" stroke-dasharray="1,2" d="M50 384l924 0"/>
<text stroke="none" fill="black" font-size="16" x="18" y="392">
1.5
</text>
<path stroke="black" stroke-width="3" stroke-dasharray="1,2" d="M50 304l924 0"/>
<text stroke="none" fill="black" font-size="16" x="18" y="312">
2.0
</text>
<path stroke="black" stroke-width="3" stroke-dasharray="1,2" d="M50 224l924 0"/>
<text stroke="none" fill="black" font-size="16" x="18" y="232">
2.5
</text>
<path stroke="black" stroke-width="3" stroke-dasharray="1,2" d="M50 144l924 0"/>
<text stroke="none" fill="black" font-size="16" x="18" y="152">
3.0
</text>
<path stroke="black" stroke-width="3" stroke-dasharray="1,2" d="M50 64l924 0"/>
<text stroke="none" fill="black" font-size="16" x="18" y="72">
3.5
</text>
<text stroke="none" fill="black" font-size="16" x="10" y="32">
     
</text>
<path stroke="red" d="M462 23l46 0"/>
<text stroke="none" fill="black" font-size="16" x="518" y="32">
v(out_parity)
</text>
<path stroke="red" d="M50 624l1 0M51 626l0 -303M51 624l1 0M52 633l0 -318M52 530l1 -77 0 -117 2 0M55 624l0 -295M55 624l2 0M57 633l0 -297 1 0M58 624l0 -296M58 624l3 0M61 632l0 -296 2 0M63 632l0 -304M63 336l1 0M64 624l0 -296M64 624l3 0M67 633l0 -297"/>
<path stroke="red" d="M67 336l2 0M69 624l0 -296M69 624l1 0M70 631l0 -295 3 0M73 624l0 -296M73 624l2 0M75 632l0 -304M75 624l1 0M76 630l0 -302M76 624l3 0M79 632l0 -282 1 -8 0 -6 1 0M81 624l0 -296M81 624l2 0M83 633l0 -297 3 0M86 624l0 -296M86 624l1 0"/>
<path stroke="red" d="M87 633l0 -295 1 -1M88 624l0 -296M88 624l1 0M89 632l0 -296 3 0M92 624l0 -296M92 624l2 0M94 631l0 -295 1 0M95 624l0 -296M95 624l2 0M97 631l0 -251M97 624l1 0M98 631l0 -295 2 0M100 632l0 -304M100 624l1 0M101 632l0 -303M101 624l3 0"/>
<path stroke="red" d="M104 633l0 -297 2 0M106 624l0 -296M106 624l1 0M107 630l0 -294 3 0M110 624l0 -295M110 624l2 0M112 632l0 -304M112 624l1 0M113 631l0 -295 3 0M116 623l0 -295M116 623l1 1 1 0M118 632l0 -296 2 0M120 624l0 -297M120 624l3 0M123 631l0 -295"/>
<path stroke="red" d="M123 336l1 0M124 624l0 -296M124 624l1 0M125 631l0 -304M125 624l1 0M126 630l0 -294 3 0M129 624l0 -296M129 624l2 0M131 632l0 -296 1 0M132 624l0 -296M132 624l3 0M135 633l0 -297 2 0M137 632l0 -303M137 336l1 0M138 624l0 -296"/>
<path stroke="red" d="M138 624l3 0M141 630l0 -294 2 0M143 624l0 -297M143 624l1 0M144 631l0 -295 2 0M146 630l0 -302M146 336l1 0M147 624l0 -296M147 624l2 0M149 630l0 -302M149 624l1 0M150 633l0 -305M150 624l3 0M153 637l0 -301 2 0M155 624l0 -295"/>
<path stroke="red" d="M155 624l1 0M156 637l0 -235 1 -38 0 -28 3 0M160 624l0 -295M160 624l1 0M161 637l0 -301 1 0M162 624l0 -295M162 624l1 0M163 637l0 -301 3 0M166 624l0 -295M166 624l1 0 1 -1M168 634l0 -298 1 0M169 624l0 -295M169 624l3 0M172 637l0 -301"/>
<path stroke="red" d="M172 336l2 0M174 638l0 -309M174 624l1 0M175 637l0 -301 3 0M178 624l0 -295M178 624l2 0M180 636l0 -300 1 0M181 624l0 -295M181 624l3 0M184 635l0 -299 2 0M186 634l0 -305M186 336l1 0M187 624l0 -295M187 624l3 0M190 637l0 -301"/>
<path stroke="red" d="M190 336l2 0M192 624l0 -295M192 624l1 0M193 637l0 -297 1 -3 0 -1 1 0M195 630l0 -301M195 336l1 0 0 -2 1 -3M197 624l0 -296M197 624l1 0M198 637l0 -301 1 0M199 636l0 -307M199 624l1 0M200 636l0 -300 3 0M203 624l0 -295M203 624l1 0"/>
<path stroke="red" d="M204 634l0 -87 1 -119 0 -92 1 0M206 624l0 -295M206 624l3 0M209 635l0 -299 2 0M211 637l0 -308M211 336l1 0M212 624l0 -295M212 624l3 0M215 635l0 -299 2 0M217 624l0 -295M217 624l1 0M218 636l0 -300 3 0M221 624l0 -295M221 624l2 0"/>
<path stroke="red" d="M223 635l0 -306M223 624l1 0M224 637l0 -308M224 624l3 0M227 637l0 -301 2 0M229 624l0 -295M229 624l1 0M230 634l0 -298 3 0M233 354l0 -25M233 354l1 56M234 624l0 -214M234 624l1 0M235 636l0 -300 1 0M236 624l0 -295M236 624l1 0"/>
<path stroke="red" d="M237 636l0 -300 3 0M240 624l0 -295M240 624l1 0M241 637l0 -301 2 0M243 624l0 -295M243 624l1 0 0 -1M244 624l1 6M245 635l0 -306M245 624l1 0M246 637l0 -301 2 0M248 634l0 -305M248 353l1 -10M249 634l0 -305M249 624l3 0M252 630l0 -294"/>
<path stroke="red" d="M252 336l2 0M254 627l0 -313M254 624l1 0 0 -288 3 0M258 625l0 -311M258 624l2 0 0 -305M260 624l1 0 0 -288 3 0M264 627l0 -313M264 624l2 0 0 -288 1 0M267 627l0 -308M267 624l3 0 0 -287 1 -1 1 0M272 627l0 -311M272 624l1 0M273 627l0 -304"/>
<path stroke="red" d="M273 624l1 0 0 -288 3 0M277 625l0 -309M277 624l1 0 0 -288 2 0M280 626l0 -313M280 624l3 0 0 -288 2 0M285 625l0 -311M285 336l1 0M286 627l0 -311M286 624l3 0 0 -288 2 0M291 626l0 -303M291 624l1 0 0 -288 2 0M294 623l0 -305M294 336l1 0"/>
<path stroke="red" d="M295 627l0 -308M295 624l2 0M297 627l0 -313M297 618l1 -1M298 626l0 -313M298 336l3 0M301 627l0 -313M301 624l2 0 0 -288 1 0M304 627l0 -306M304 624l3 0 0 -288 2 0M309 627l0 -310M309 622l1 -2 0 -299M310 484l1 124M311 625l0 -17"/>
<path stroke="red" d="M311 624l3 0 0 -288 1 0M315 625l0 -310M315 624l2 0 0 -288 3 0M320 625l0 -305M320 624l2 0M322 626l0 -302M322 336l1 0M323 627l0 -306M323 624l3 0 0 -288 2 0M328 627l0 -310M328 624l1 0 0 -288 3 0M332 626l0 -312M332 624l2 0M334 625l0 -309"/>
<path stroke="red" d="M334 624l1 0 0 -288 3 0M338 627l0 -306M338 624l2 0 0 -288 1 0M341 626l0 -304M341 624l2 0 0 -305M343 624l1 0 0 -288 2 0M346 627l0 -304M346 368l1 -18M347 626l0 -313M347 338l1 -1 0 -1 2 0 1 2M351 627l0 -312M351 624l1 0 0 -288"/>
<path stroke="red" d="M352 336l2 0M354 626l0 -313M354 624l3 0 0 -288 1 0M358 339l0 -3 1 -21M359 625l0 -310M359 336l1 0M360 627l0 -313M360 624l3 0 0 -288 2 0M365 626l0 -301M365 624l1 0 0 -288 3 0M369 627l0 -314M369 624l2 0M371 627l0 -315M371 336l1 0"/>
<path stroke="red" d="M372 626l0 -313M372 624l3 0 0 -288 2 0M377 625l0 -310M377 624l1 0 0 -288 3 0M381 625l0 -303M381 624l2 0M383 626l0 -305M383 624l1 0 0 -288 3 0M387 370l0 -57M387 370l1 185M388 626l0 -71M388 624l1 0 0 -288 2 0M391 627l0 -314"/>
<path stroke="red" d="M391 624l1 0M392 626l0 -292M392 624l2 0 0 -288 1 0M395 627l0 -315M395 627l1 -5M396 627l0 -313M396 336l1 0M397 627l0 -311M397 624l3 0 0 -288 2 0M402 625l0 -301M402 624l1 0 0 -288 3 0M406 627l0 -308M406 624l2 0M408 626l0 -313"/>
<path stroke="red" d="M408 624l1 0 0 -288 3 0M412 624l0 -303M412 624l2 0 0 -288 1 0M415 625l0 -308M415 624l3 0 0 -288 2 0M420 624l0 -304M420 336l1 0M421 625l0 -310M421 336l3 0M424 627l0 -311M424 624l2 0 0 -288 2 0M428 626l0 -304M428 624l3 0 0 -288"/>
<path stroke="red" d="M431 336l1 0M432 627l0 -310M432 624l1 0 0 -288 1 0M434 625l0 -306M434 624l3 0 0 -288 2 0M439 625l0 -311M439 624l1 0 0 -288 2 0M442 625l0 -302M442 336l1 0M443 625l0 -311M443 624l2 0M445 626l0 -303M445 336l1 0M446 627l0 -312"/>
<path stroke="red" d="M446 624l1 0M447 633l0 -297 2 0M449 624l0 -295M449 624l2 0M451 633l0 -297 1 0M452 624l0 -296M452 624l3 0M455 632l0 -296 2 0M457 632l0 -304M457 336l1 0M458 624l0 -296M458 624l3 0M461 633l0 -297 2 0M463 624l0 -296M463 624l1 0"/>
<path stroke="red" d="M464 631l0 -65 1 -118 0 -112 3 0M468 624l0 -296M468 624l1 0M469 632l0 -296 1 0M470 630l0 -302M470 336l1 0M471 624l0 -296M471 624l3 0M474 632l0 -296 2 0M476 624l0 -296M476 624l1 0M477 633l0 -297 3 0M480 624l0 -296M480 624l2 0"/>
<path stroke="red" d="M482 633l0 -305M482 624l1 0M483 632l0 -296 3 0M486 624l0 -296M486 624l2 0M488 631l0 -295 1 0M489 624l0 -296M489 624l2 0M491 631l0 -251M491 624l1 0M492 631l0 -295 2 0M494 632l0 -304M494 336l1 0M495 632l0 -303M495 624l3 0"/>
<path stroke="red" d="M498 633l0 -297 2 0M500 624l0 -296M500 624l1 0M501 630l0 -293 1 0 0 -1 2 0 0 -7 1 0M505 624l0 -295M505 624l1 0M506 632l0 -296 1 0M507 624l0 -296M507 624l1 0M508 631l0 -295 3 0M511 624l0 -296M511 624l1 0M512 632l0 -8M512 632l1 -24"/>
<path stroke="red" d="M513 608l0 -272 1 0M514 624l0 -297M514 624l3 0M517 631l0 -295 2 0M519 631l0 -304M519 624l1 0M520 630l0 -294 3 0M523 624l0 -296M523 624l2 0M525 632l0 -296 1 0M526 624l0 -296M526 624l3 0M529 633l0 -297 2 0M531 632l0 -303M531 336l1 0"/>
<path stroke="red" d="M532 624l0 -296M532 624l3 0M535 630l0 -294 2 0M537 624l0 -297M537 624l1 0M538 631l0 -295 2 0M540 630l0 -302M540 336l1 0M541 622l0 -294M541 622l1 1M542 624l0 -1M542 624l1 0M543 630l0 -294 1 0M544 633l0 -305M544 338l1 -1M545 625l0 -296"/>
<path stroke="red" d="M545 624l3 0M548 637l0 -301 1 0M549 623l0 -294M549 623l1 0M550 624l0 -1M550 624l1 0M551 637l0 -301 3 0M554 624l0 -295M554 624l2 0M556 637l0 -308M556 624l1 0M557 637l0 -301 3 0M560 624l0 -295M560 624l2 0M562 634l0 -298 1 0"/>
<path stroke="red" d="M563 624l0 -295M563 624l3 0M566 637l0 -301 2 0M568 638l0 -309M568 336l1 0M569 637l0 -308M569 336l3 0M572 624l0 -295M572 624l2 0M574 636l0 -300 1 0M575 624l0 -295M575 624l3 0M578 635l0 -299 2 0M580 624l0 -295M580 624l1 0"/>
<path stroke="red" d="M581 634l0 -298 1 -1M582 624l0 -295M582 624l3 0M585 637l0 -301 1 0M586 624l0 -295M586 624l2 0M588 637l0 -301 1 0M589 423l0 -94M589 423l1 97M590 630l0 -294 1 0M591 624l0 -296M591 624l2 0M593 637l0 -308M593 624l1 0M594 636l0 -300"/>
<path stroke="red" d="M594 336l3 0M597 624l0 -295M597 624l2 0M599 634l0 -298 1 0M600 624l0 -295M600 624l3 0M603 635l0 -299 2 0M605 637l0 -308M605 336l1 0M606 624l0 -295M606 624l3 0M609 635l0 -299 2 0M611 624l0 -295M611 624l1 0M612 636l0 -300"/>
<path stroke="red" d="M612 336l3 0M615 624l0 -295M615 624l2 0M617 635l0 -299 1 -2M618 637l0 -308 1 8M619 624l0 -287M619 624l3 0M622 637l0 -301 1 0M623 624l0 -295M623 624l2 0M625 634l0 -298 3 0M628 624l0 -295M628 624l2 0M630 636l0 -307M630 624l1 0"/>
<path stroke="red" d="M631 636l0 -300 3 0M634 624l0 -295M634 624l2 0M636 637l0 -301 1 0M637 624l0 -295M637 624l2 0M639 635l0 -306M639 624l1 0M640 637l0 -301 2 0M642 634l0 -305M642 566l1 52M643 634l0 -305M643 624l1 0M644 634l0 -137M644 624l2 0"/>
<path stroke="red" d="M646 630l0 -294 2 0M648 627l0 -313M648 624l1 0 0 -288 3 0M652 625l0 -311M652 624l2 0 0 -305M654 624l1 0 0 -287 1 0 0 -1 2 0 1 1M659 627l0 -313M659 624l1 0 0 -288 2 0M662 627l0 -308M662 624l3 0 0 -288 1 0M666 338l0 -2M666 338l1 -1"/>
<path stroke="red" d="M667 627l0 -311M667 624l1 0 0 -288 3 0M671 625l0 -309M671 624l2 0 0 -288 1 0M674 626l0 -313M674 624l3 0 0 -288 2 0M679 625l0 -311M679 336l1 0M680 627l0 -311M680 624l3 0 0 -288 2 0M685 626l0 -303M685 624l1 0 0 -288 2 0M688 623l0 -305"/>
<path stroke="red" d="M688 336l1 0M689 627l0 -308M689 624l2 0M691 627l0 -313M691 624l1 0M692 626l0 -313M692 336l3 0M695 567l0 -253M695 567l1 60 0 -5M696 624l1 0 0 -288 2 0M699 627l0 -306M699 624l3 0 0 -288 1 0M703 627l0 -310M703 623l1 1 0 -288"/>
<path stroke="red" d="M704 336l1 0M705 625l0 -304M705 624l3 0 0 -288 2 0M710 625l0 -310M710 624l1 0 0 -288 3 0M714 625l0 -305M714 624l2 0M716 626l0 -302M716 336l1 0M717 627l0 -306M717 624l3 0 0 -288 2 0M722 627l0 -310M722 624l1 0 0 -288 3 0M726 626l0 -312"/>
<path stroke="red" d="M726 624l2 0M728 625l0 -309M728 624l1 0 0 -288 3 0M732 627l0 -306M732 624l2 0 0 -288 2 0M736 626l0 -304M736 624l1 0 0 -305M737 624l2 0 0 -288 1 0M740 627l0 -304M740 624l1 0M741 625l0 -305M741 336l1 0M742 626l0 -313M742 336l3 0"/>
<path stroke="red" d="M745 627l0 -312M745 624l2 0 0 -288 1 0M748 626l0 -313M748 624l3 0 0 -288 2 0M753 625l0 -310M753 336l1 0M754 627l0 -313M754 624l3 0 0 -288 2 0M759 626l0 -301M759 624l1 0 0 -288 3 0M763 627l0 -314M763 624l2 0M765 627l0 -315"/>
<path stroke="red" d="M765 624l1 0M766 626l0 -313M766 624l3 0 0 -288 2 0M771 625l0 -310M771 624l1 0 0 -9M772 618l1 -40 0 -242 3 0M776 625l0 -303M776 624l1 0 0 -288 1 0M778 626l0 -305M778 624l1 0 0 -288 3 0M782 626l0 -313M782 624l2 0 0 -288 1 0"/>
<path stroke="red" d="M785 627l0 -314M785 624l2 0M787 626l0 -292M787 624l1 0 0 -288 2 0M790 627l0 -315M790 624l1 0M791 627l0 -311M791 624l3 0 0 -288 2 0M796 625l0 -301M796 624l1 0 0 -288 3 0M800 627l0 -308M800 624l2 0M802 626l0 -313M802 624l1 0"/>
<path stroke="red" d="M803 624l0 -288 3 0M806 624l0 -303M806 624l2 0 0 -288 1 0M809 625l0 -308M809 624l4 0 0 -288 1 0M814 624l0 -304M814 624l1 0M815 625l0 -310M815 624l1 0 0 -288 3 0M819 627l0 -311M819 624l1 0 0 -1 1 0 0 -287 1 0M822 626l0 -304"/>
<path stroke="red" d="M822 624l3 0 0 -288 2 0M827 627l0 -310M827 336l1 0M828 625l0 -306M828 624l3 0 0 -288 2 0M833 625l0 -311M833 624l1 0 0 -288 2 0M836 625l0 -302M836 336l1 0M837 625l0 -311M837 624l2 0M839 626l0 -303M839 624l1 0M840 627l0 -312"/>
<path stroke="red" d="M840 336l1 0M841 633l0 -313M841 336l2 0M843 624l0 -295M843 624l2 0M845 633l0 -297 1 0M846 624l0 -296M846 624l3 0M849 632l0 -283 1 -8 0 -5 1 0M851 624l0 -296M851 624l1 0M852 632l0 -296 1 0M853 624l0 -296M853 624l3 0M856 633l0 -297"/>
<path stroke="red" d="M856 336l1 0M857 623l0 -295M857 623l1 0M858 624l0 -1M858 624l1 0M859 631l0 -295 3 0M862 624l0 -296M862 624l2 0M864 632l0 -304M864 336l1 0M865 624l0 -296M865 624l3 0M868 632l0 -296 2 0M870 624l0 -296M870 624l1 0M871 633l0 -297"/>
<path stroke="red" d="M871 336l3 0M874 624l0 -296M874 624l2 0M876 633l0 -305M876 624l1 0M877 632l0 -296 3 0M880 624l0 -296M880 624l2 0M882 631l0 -295 1 0M883 624l0 -296M883 624l2 0M885 631l0 -251M885 624l1 0M886 631l0 -295 2 0M888 624l0 -296"/>
<path stroke="red" d="M888 624l1 0M889 632l0 -303M889 336l1 -3M890 624l0 -295M890 624l3 0M893 633l0 -297 1 0M894 624l0 -296M894 624l2 0M896 630l0 -294 3 0M899 624l0 -295M899 624l2 0M901 632l0 -304M901 624l1 0M902 631l0 -295 3 0M905 624l0 -296"/>
<path stroke="red" d="M905 624l2 0M907 632l0 -296 1 0M908 624l0 -297M908 624l3 0M911 631l0 -295 2 0M913 631l0 -304M913 417l1 92M914 630l0 -294 3 0M917 624l0 -296M917 624l2 0M919 632l0 -296 1 0M920 624l0 -296M920 624l3 0M923 633l0 -297 2 0M925 625l0 -296"/>
<path stroke="red" d="M925 625l1 1M926 632l0 -304M926 621l1 1M927 624l0 -2M927 624l3 0M930 630l0 -294 1 0M931 624l0 -297M931 624l2 0M933 631l0 -295 1 0M934 630l0 -302M934 595l1 -106 0 -153 1 0M936 624l0 -296M936 624l2 0M938 631l0 -303M938 624l1 0"/>
<path stroke="red" d="M939 633l0 -304M939 624l3 0M942 637l0 -301 2 0M944 624l0 -295M944 624l1 0M945 637l0 -301 3 0M948 624l0 -295M948 624l2 0M950 637l0 -308M950 624l1 0M951 637l0 -301 3 0M954 624l0 -295M954 624l2 0M956 634l0 -298 1 0M957 624l0 -295"/>
<path stroke="red" d="M957 624l3 0M960 637l0 -301 2 0M962 638l0 -309M962 346l1 -6M963 637l0 -308M963 337l1 -1 2 0 1 -3M967 624l0 -295M967 624l1 0M968 636l0 -300 2 0M970 624l0 -295M970 624l3 0M973 635l0 -299 1 0"/>
<path stroke="blue" d="M50 23l46 0"/>
<text stroke="none" fill="black" font-size="16" x="106" y="32">
ideal_parity
</text>
<path stroke="blue" d="M50 624l0 -518 1 0M51 609l0 -544M51 278l1 0M52 607l0 -530M52 451l1 0M53 587l0 -499M53 451l2 0M55 607l0 -473M55 394l1 0M56 607l0 -473M56 451l1 0M57 587l0 -499M57 451l1 0M58 607l0 -473M58 394l2 0M60 607l0 -473M60 394l1 0"/>
<path stroke="blue" d="M61 549l0 -472M61 336l2 0M63 607l0 -530M63 451l1 0M64 607l0 -473M64 394l2 0M66 607l0 -473M66 394l1 0M67 549l0 -472M67 336l2 0M69 607l0 -530M69 394l1 0M70 549l0 -472M70 336l2 0M72 549l0 -472M72 336l1 0M73 595l0 -472M73 278l2 0"/>
<path stroke="blue" d="M75 595l0 -518M75 394l1 0M76 607l0 -519M76 394l2 0M78 607l0 -473M78 394l1 0M79 549l0 -472M79 336l2 0M81 607l0 -530M81 394l1 0M82 549l0 -472M82 336l2 0M84 549l0 -472M84 336l1 0M85 595l0 -472M85 278l2 0M87 595l0 -472M87 336l1 0"/>
<path stroke="blue" d="M88 607l0 -530M88 394l1 0M89 549l0 -472M89 336l1 0M90 549l0 -472M90 336l2 0M92 595l0 -472M92 278l1 0M93 595l0 -472M93 336l1 0M94 549l0 -472M94 336l1 0M95 595l0 -472M95 278l2 0M97 595l0 -472M97 278l1 0M98 538l0 -473M98 221l2 0"/>
<path stroke="blue" d="M100 595l0 -530M100 394l1 0M101 607l0 -529M101 394l2 0M103 607l0 -473M103 394l1 0M104 549l0 -472M104 336l2 0M106 607l0 -530M106 394l1 0M107 549l0 -472M107 336l2 0M109 549l0 -472M109 336l1 0M110 595l0 -472M110 278l2 0M112 595l0 -518"/>
<path stroke="blue" d="M112 394l1 0M113 607l0 -530M113 336l2 0M115 549l0 -472M115 336l1 0M116 595l0 -472M116 278l2 0M118 595l0 -518M118 336l1 0M119 595l0 -472M119 278l2 0M121 595l0 -472M121 278l1 0M122 538l0 -473M122 221l2 0M124 538l0 -473M124 278l1 0"/>
<path stroke="blue" d="M125 607l0 -530M125 466l1 83 0 -472M126 336l1 0M127 549l0 -472M127 336l2 0M129 595l0 -472M129 278l1 0M130 595l0 -472M130 336l1 0M131 549l0 -472M131 336l1 0M132 595l0 -472M132 278l1 0M133 595l0 -472M133 346l1 21M134 595l0 -472"/>
<path stroke="blue" d="M134 278l1 0M135 538l0 -473M135 221l2 0M137 595l0 -530M137 336l1 0M138 595l0 -472M138 278l2 0M140 595l0 -472M140 278l1 0M141 538l0 -473M141 221l2 0M143 595l0 -530M143 278l1 0M144 538l0 -473M144 221l2 0M146 538l0 -473M146 221l1 0"/>
<path stroke="blue" d="M147 584l0 -499M147 163l2 0M149 595l0 -530M149 595l1 -103M150 607l0 -530M150 394l2 0M152 607l0 -473M152 394l1 0M153 549l0 -472M153 336l2 0M155 607l0 -530M155 394l1 0M156 549l0 -472M156 336l2 0M158 549l0 -472M158 336l1 0"/>
<path stroke="blue" d="M159 595l0 -472M159 278l2 0M161 595l0 -472M161 305l1 -42M162 607l0 -530M162 336l2 0M164 549l0 -472M164 336l2 0M166 595l0 -472M166 278l1 0M167 595l0 -472M167 336l1 0M168 549l0 -472M168 336l1 0M169 595l0 -472M169 278l1 0"/>
<path stroke="blue" d="M170 595l0 -472M170 278l2 0M172 538l0 -473M172 221l2 0M174 607l0 -542M174 394l1 0M175 549l0 -472M175 336l2 0M177 549l0 -472M177 336l1 0M178 595l0 -472M178 278l2 0M180 595l0 -518M180 336l1 0M181 595l0 -472M181 278l2 0M183 595l0 -472"/>
<path stroke="blue" d="M183 278l1 0M184 538l0 -473M184 221l2 0M186 595l0 -530M186 180l1 78M187 595l0 -472M187 278l2 0M189 595l0 -472M189 278l1 0M190 538l0 -473M190 221l2 0M192 595l0 -530M192 278l1 0M193 538l0 -473M193 221l2 0M195 538l0 -473M195 221l1 0"/>
<path stroke="blue" d="M196 584l0 -499M196 163l2 0M198 584l0 -519M198 278l1 0M199 607l0 -530M199 336l2 0M201 549l0 -472M201 336l1 0M202 409l0 -73M202 409l1 83M203 595l0 -472M203 278l1 0M204 595l0 -472M204 336l1 0M205 549l0 -472M205 336l1 0M206 595l0 -472"/>
<path stroke="blue" d="M206 278l1 0M207 595l0 -472M207 278l2 0M209 538l0 -473M209 221l1 0M210 538l0 -473M210 278l1 0M211 595l0 -518M211 336l1 0M212 595l0 -472M212 278l2 0M214 595l0 -472M214 278l1 0M215 538l0 -473M215 221l2 0M217 595l0 -530M217 278l1 0"/>
<path stroke="blue" d="M218 538l0 -473M218 221l2 0M220 538l0 -473M220 221l1 0M221 584l0 -499M221 163l2 0M223 595l0 -530M223 336l1 0M224 595l0 -518M224 278l2 0M226 595l0 -472M226 278l1 0M227 538l0 -473M227 221l2 0M229 595l0 -530M229 278l1 0M230 538l0 -473"/>
<path stroke="blue" d="M230 221l2 0M232 538l0 -473M232 221l1 0M233 584l0 -499M233 163l2 0M235 584l0 -519M235 278l1 0M236 595l0 -530M236 221l2 0M238 538l0 -473M238 221l1 0M239 584l0 -499M239 163l2 0M241 584l0 -493M241 221l1 0M242 538l0 -473M242 221l1 0"/>
<path stroke="blue" d="M243 584l0 -499M243 163l1 0M244 584l0 -499M244 163l2 0M246 604l0 -498 1 0M247 609l0 -535M247 163l1 0M248 595l0 -530M248 336l1 0M249 607l0 -530M249 394l2 0M251 607l0 -473M251 394l1 0M252 549l0 -472M252 336l2 0M254 607l0 -530"/>
<path stroke="blue" d="M254 394l1 0M255 549l0 -472M255 336l2 0M257 549l0 -472M257 336l1 0M258 595l0 -472M258 278l2 0M260 607l0 -530M260 394l1 0M261 549l0 -472M261 336l2 0M263 549l0 -472M263 336l1 0M264 595l0 -472M264 278l2 0M266 595l0 -518M266 336l1 0"/>
<path stroke="blue" d="M267 595l0 -472M267 278l2 0M269 595l0 -472M269 278l1 0M270 538l0 -473M270 221l2 0M272 595l0 -530M272 336l1 0M273 607l0 -530M273 336l2 0M275 549l0 -472M275 336l1 0M276 595l0 -472M276 278l2 0M278 595l0 -472M278 336l1 0M279 549l0 -472"/>
<path stroke="blue" d="M279 409l1 83M280 595l0 -472M280 278l1 0M281 595l0 -472M281 278l2 0M283 538l0 -473M283 221l1 0M284 538l0 -473M284 278l1 0M285 595l0 -518M285 336l1 0M286 595l0 -472M286 278l1 0M287 595l0 -472M287 346l1 21M288 595l0 -472"/>
<path stroke="blue" d="M288 278l1 0M289 538l0 -473M289 221l2 0M291 595l0 -530M291 278l1 0M292 538l0 -473M292 221l2 0M294 538l0 -473M294 221l1 0M295 584l0 -499M295 163l2 0M297 595l0 -530M297 336l1 0M298 607l0 -530M298 336l2 0M300 549l0 -472M300 336l1 0"/>
<path stroke="blue" d="M301 595l0 -472M301 278l2 0M303 595l0 -518M303 336l1 0M304 595l0 -472M304 278l2 0M306 595l0 -472M306 278l1 0M307 538l0 -473M307 221l2 0M309 595l0 -530M309 336l1 0M310 595l0 -518M310 278l2 0M312 595l0 -472M312 278l1 0M313 538l0 -473"/>
<path stroke="blue" d="M313 221l2 0M315 538l0 -473M315 247l1 -41M316 595l0 -530M316 221l2 0M318 538l0 -473M318 221l2 0M320 584l0 -499M320 163l1 0M321 584l0 -493M321 221l1 0M322 595l0 -530M322 336l1 0M323 595l0 -472M323 278l1 0M324 595l0 -472"/>
<path stroke="blue" d="M324 278l2 0M326 538l0 -473M326 221l2 0M328 595l0 -530M328 278l1 0M329 538l0 -473M329 221l2 0M331 538l0 -473M331 221l1 0M332 584l0 -499M332 163l2 0M334 595l0 -530M334 278l1 0M335 538l0 -473M335 221l2 0M337 538l0 -473M337 221l1 0"/>
<path stroke="blue" d="M338 584l0 -499M338 163l2 0M340 584l0 -519M340 221l1 0M341 584l0 -499M341 163l2 0M343 584l0 -499M343 163l1 0M344 604l0 -498 2 0M346 609l0 -535M346 221l1 0M347 595l0 -530M347 336l1 0M348 549l0 -472M348 336l1 0M349 549l0 -472"/>
<path stroke="blue" d="M349 336l1 0M350 595l0 -472M350 278l2 0M352 595l0 -518M352 549l1 -472M353 595l0 -518M353 278l2 0M355 595l0 -472M355 278l1 0M356 351l0 -73M356 351l1 83M357 538l0 -473M357 221l1 0M358 538l0 -473M358 278l1 0M359 595l0 -518"/>
<path stroke="blue" d="M359 336l1 0M360 595l0 -472M360 278l1 0M361 595l0 -472M361 278l2 0M363 538l0 -473M363 221l1 0M364 538l0 -473M364 278l1 0M365 595l0 -472M365 278l1 0M366 538l0 -473M366 221l2 0M368 538l0 -473M368 221l1 0M369 584l0 -499M369 163l2 0"/>
<path stroke="blue" d="M371 595l0 -530M371 336l1 0M372 595l0 -518M372 278l2 0M374 595l0 -472M374 278l1 0M375 538l0 -473M375 221l2 0M377 595l0 -530M377 278l1 0M378 538l0 -473M378 221l2 0M380 538l0 -473M380 221l1 0M381 584l0 -499M381 163l2 0M383 584l0 -519"/>
<path stroke="blue" d="M383 278l1 0M384 595l0 -530M384 221l2 0M386 538l0 -473M386 221l1 0M387 584l0 -499M387 163l2 0M389 584l0 -519M389 221l1 0M390 584l0 -499M390 163l2 0M392 584l0 -499M392 163l1 0M393 604l0 -498 2 0M395 609l0 -535M395 163l1 0"/>
<path stroke="blue" d="M396 595l0 -530M396 336l1 0M397 549l0 -472M397 278l1 0M398 595l0 -472M398 278l2 0M400 538l0 -473M400 221l1 0M401 538l0 -473M401 278l1 0M402 595l0 -472M402 278l1 0M403 538l0 -473M403 221l2 0M405 538l0 -473M405 221l1 0M406 584l0 -499"/>
<path stroke="blue" d="M406 163l2 0M408 595l0 -530M408 278l1 0M409 538l0 -473M409 221l2 0M411 538l0 -473M411 221l1 0M412 584l0 -499M412 163l2 0M414 584l0 -519M414 221l1 0M415 584l0 -499M415 163l2 0M417 584l0 -499M417 163l1 0M418 604l0 -498 2 0"/>
<path stroke="blue" d="M420 609l0 -535M420 221l1 0M421 595l0 -530M421 221l2 0M423 538l0 -473M423 221l1 0M424 584l0 -499M424 163l2 0M426 584l0 -519M426 221l1 0M427 584l0 -499M427 163l2 0M429 584l0 -499M429 163l1 0M430 604l0 -498 2 0M432 609l0 -535"/>
<path stroke="blue" d="M432 163l1 0M433 584l0 -519M433 293l1 83M434 584l0 -499M434 163l1 0M435 584l0 -499M435 163l2 0M437 604l0 -498 1 0M438 609l0 -535M438 163l1 0M439 584l0 -499M439 163l1 0M440 604l0 -498 1 0M441 609l0 -535M441 174l1 20M442 604l0 -498"/>
<path stroke="blue" d="M442 106l1 0M443 624l0 -518M443 624l2 0 0 -559M445 356l1 -78M446 595l0 -518M446 394l1 0M447 607l0 -473M447 451l1 0M448 587l0 -499M448 451l1 0M449 607l0 -473M449 394l2 0M451 607l0 -519M451 451l1 0M452 607l0 -473M452 394l2 0"/>
<path stroke="blue" d="M454 607l0 -473M454 394l1 0M455 549l0 -472M455 336l2 0M457 607l0 -530M457 192l1 -104M458 607l0 -519M458 394l2 0M460 607l0 -473M460 394l1 0M461 549l0 -472M461 336l2 0M463 607l0 -530M463 394l1 0M464 549l0 -472M464 336l2 0"/>
<path stroke="blue" d="M466 549l0 -472M466 336l1 0M467 595l0 -472M467 278l2 0M469 595l0 -472M469 305l1 -42M470 607l0 -530M470 394l2 0M472 607l0 -473M472 394l2 0M474 549l0 -472M474 336l1 0M475 549l0 -472M475 394l1 0M476 607l0 -473M476 394l1 0"/>
<path stroke="blue" d="M477 549l0 -472M477 336l1 0M478 549l0 -472M478 336l2 0M480 595l0 -472M480 278l2 0M482 607l0 -530M482 394l1 0M483 549l0 -472M483 336l2 0M485 549l0 -472M485 336l1 0M486 595l0 -472M486 278l2 0M488 595l0 -518M488 336l1 0M489 595l0 -472"/>
<path stroke="blue" d="M489 278l2 0M491 595l0 -472M491 278l1 0M492 538l0 -473M492 221l2 0M494 595l0 -530M494 394l1 0M495 607l0 -529M495 394l2 0M497 607l0 -473M497 394l1 0M498 549l0 -472M498 336l2 0M500 607l0 -530M500 394l1 0M501 549l0 -472M501 336l2 0"/>
<path stroke="blue" d="M503 549l0 -472M503 336l1 0M504 595l0 -472M504 278l2 0M506 595l0 -518M506 394l1 0M507 607l0 -530M507 336l2 0M509 549l0 -472M509 336l1 0M510 409l0 -73M510 409l1 83M511 595l0 -472M511 278l1 0M512 595l0 -472M512 336l1 0M513 549l0 -472"/>
<path stroke="blue" d="M513 336l1 0M514 595l0 -472M514 278l1 0M515 595l0 -472M515 278l2 0M517 538l0 -473M517 221l1 0M518 538l0 -473M518 278l1 0M519 607l0 -530M519 394l1 0M520 549l0 -472M520 336l2 0M522 549l0 -472M522 336l1 0M523 595l0 -472M523 278l2 0"/>
<path stroke="blue" d="M525 595l0 -518M525 336l1 0M526 595l0 -472M526 278l2 0M528 595l0 -472M528 278l1 0M529 538l0 -473M529 221l2 0M531 595l0 -530M531 336l1 0M532 595l0 -472M532 278l2 0M534 595l0 -472M534 278l1 0M535 538l0 -473M535 221l2 0M537 595l0 -530"/>
<path stroke="blue" d="M537 278l1 0M538 538l0 -473M538 221l2 0M540 538l0 -473M540 221l1 0M541 584l0 -499M541 163l2 0M543 584l0 -519M543 278l1 0M544 607l0 -530M544 394l1 0M545 607l0 -473M545 394l1 0M546 607l0 -473M546 394l1 0M547 549l0 -472M547 336l2 0"/>
<path stroke="blue" d="M549 549l0 -472M549 394l1 0M550 607l0 -473M550 394l1 0M551 549l0 -472M551 336l1 0M552 549l0 -472M552 336l2 0M554 595l0 -472M554 278l1 0M555 595l0 -472M555 336l1 0M556 607l0 -530M556 394l1 0M557 549l0 -472M557 336l2 0M559 549l0 -472"/>
<path stroke="blue" d="M559 336l1 0M560 595l0 -472M560 278l2 0M562 595l0 -518M562 336l1 0M563 595l0 -472M563 278l2 0M565 595l0 -472M565 278l1 0M566 538l0 -473M566 221l2 0M568 595l0 -530M568 394l1 0M569 607l0 -530M569 336l2 0M571 549l0 -472M571 336l1 0"/>
<path stroke="blue" d="M572 595l0 -472M572 278l2 0M574 595l0 -518M574 336l1 0M575 595l0 -472M575 278l2 0M577 595l0 -472M577 278l1 0M578 538l0 -473M578 221l2 0M580 595l0 -530M580 336l1 0M581 595l0 -518M581 278l2 0M583 595l0 -472M583 278l1 0M584 538l0 -473"/>
<path stroke="blue" d="M584 221l2 0M586 538l0 -473M586 278l1 0M587 595l0 -472M587 351l1 83M588 538l0 -473M588 221l1 0M589 538l0 -473M589 221l2 0M591 584l0 -499M591 163l1 0M592 584l0 -493M592 221l1 0M593 595l0 -530M593 394l1 0M594 607l0 -473M594 336l1 0"/>
<path stroke="blue" d="M595 549l0 -472M595 404l1 21M596 549l0 -472M596 336l1 0M597 595l0 -472M597 278l2 0M599 595l0 -518M599 336l1 0M600 595l0 -472M600 278l2 0M602 595l0 -472M602 278l1 0M603 538l0 -473M603 221l2 0M605 595l0 -530M605 336l1 0M606 595l0 -472"/>
<path stroke="blue" d="M606 278l2 0M608 595l0 -472M608 278l1 0M609 538l0 -473M609 221l2 0M611 595l0 -530M611 278l1 0M612 538l0 -473M612 221l2 0M614 538l0 -473M614 221l1 0M615 584l0 -499M615 163l2 0M617 584l0 -519M617 278l1 0M618 595l0 -518M618 278l2 0"/>
<path stroke="blue" d="M620 595l0 -472M620 278l1 0M621 538l0 -473M621 221l2 0M623 538l0 -473M623 247l1 -41M624 595l0 -530M624 221l2 0M626 538l0 -473M626 221l2 0M628 584l0 -499M628 163l1 0M629 584l0 -493M629 221l1 0M630 595l0 -530M630 278l1 0"/>
<path stroke="blue" d="M631 538l0 -473M631 221l1 0M632 538l0 -473M632 221l2 0M634 584l0 -499M634 163l2 0M636 584l0 -519M636 221l1 0M637 584l0 -499M637 163l2 0M639 584l0 -499M639 163l1 0M640 604l0 -498 2 0M642 609l0 -544M642 278l1 0M643 595l0 -518"/>
<path stroke="blue" d="M643 394l1 0M644 607l0 -473M644 394l1 0M645 607l0 -473M645 394l1 0M646 549l0 -472M646 336l2 0M648 607l0 -530M648 394l1 0M649 549l0 -472M649 336l2 0M651 549l0 -472M651 336l1 0M652 595l0 -472M652 278l2 0M654 595l0 -518M654 394l1 0"/>
<path stroke="blue" d="M655 607l0 -530M655 336l2 0M657 549l0 -472M657 336l1 0M658 595l0 -472M658 278l2 0M660 595l0 -518M660 549l1 -472M661 595l0 -518M661 278l2 0M663 595l0 -472M663 278l1 0M664 351l0 -73M664 351l1 83M665 538l0 -473M665 221l1 0"/>
<path stroke="blue" d="M666 538l0 -473M666 278l1 0M667 607l0 -530M667 394l1 0M668 549l0 -472M668 336l1 0M669 549l0 -472M669 336l2 0M671 595l0 -472M671 278l1 0M672 595l0 -472M672 336l1 0M673 549l0 -472M673 336l1 0M674 595l0 -472M674 278l2 0M676 595l0 -472"/>
<path stroke="blue" d="M676 278l1 0M677 538l0 -473M677 221l2 0M679 595l0 -530M679 336l1 0M680 595l0 -472M680 278l2 0M682 595l0 -472M682 278l1 0M683 538l0 -473M683 221l2 0M685 595l0 -530M685 278l1 0M686 538l0 -473M686 221l2 0M688 538l0 -473M688 221l1 0"/>
<path stroke="blue" d="M689 584l0 -499M689 163l2 0M691 584l0 -519M691 278l1 0M692 607l0 -530M692 336l2 0M694 549l0 -472M694 336l1 0M695 595l0 -472M695 278l2 0M697 595l0 -518M697 336l1 0M698 595l0 -472M698 278l2 0M700 595l0 -472M700 278l1 0M701 538l0 -473"/>
<path stroke="blue" d="M701 221l2 0M703 538l0 -473M703 278l1 0M704 595l0 -518M704 336l1 0M705 595l0 -472M705 278l1 0M706 595l0 -472M706 278l2 0M708 538l0 -473M708 221l1 0M709 538l0 -473M709 278l1 0M710 595l0 -472M710 278l1 0M711 538l0 -473M711 221l2 0"/>
<path stroke="blue" d="M713 538l0 -473M713 221l1 0M714 584l0 -499M714 163l2 0M716 595l0 -530M716 336l1 0M717 595l0 -518M717 278l2 0M719 595l0 -472M719 278l1 0M720 538l0 -473M720 221l2 0M722 595l0 -530M722 278l1 0M723 538l0 -473M723 221l2 0M725 538l0 -473"/>
<path stroke="blue" d="M725 221l1 0M726 584l0 -499M726 163l2 0M728 584l0 -519M728 278l1 0M729 595l0 -530M729 221l2 0M731 538l0 -473M731 221l1 0M732 584l0 -499M732 163l2 0M734 584l0 -519M734 221l1 0M735 584l0 -499M735 163l2 0M737 584l0 -499M737 163l1 0"/>
<path stroke="blue" d="M738 604l0 -498 2 0M740 609l0 -535M740 163l1 0M741 595l0 -530M741 466l1 83 0 -472M742 336l1 0M743 549l0 -472M743 336l2 0M745 595l0 -472M745 278l1 0M746 595l0 -472M746 336l1 0M747 549l0 -472M747 336l1 0M748 595l0 -472M748 278l1 0"/>
<path stroke="blue" d="M749 595l0 -472M749 346l1 21M750 595l0 -472M750 278l1 0M751 538l0 -473M751 221l2 0M753 595l0 -530M753 336l1 0M754 595l0 -472M754 278l2 0M756 595l0 -472M756 278l1 0M757 538l0 -473M757 221l2 0M759 595l0 -530M759 278l1 0M760 538l0 -473"/>
<path stroke="blue" d="M760 221l2 0M762 538l0 -473M762 221l1 0M763 584l0 -499M763 163l2 0M765 595l0 -530M765 595l1 -103M766 595l0 -518M766 278l2 0M768 595l0 -472M768 278l1 0M769 538l0 -473M769 221l2 0M771 595l0 -530M771 278l1 0M772 538l0 -473"/>
<path stroke="blue" d="M772 221l2 0M774 538l0 -473M774 221l1 0M775 584l0 -499M775 163l2 0M777 584l0 -493M777 190l1 -42M778 595l0 -530M778 221l2 0M780 538l0 -473M780 221l2 0M782 584l0 -499M782 163l1 0M783 584l0 -493M783 221l1 0M784 538l0 -473"/>
<path stroke="blue" d="M784 221l1 0M785 584l0 -499M785 163l1 0M786 584l0 -499M786 163l2 0M788 604l0 -498 2 0M790 609l0 -544M790 336l1 0M791 549l0 -472M791 278l2 0M793 595l0 -472M793 278l1 0M794 538l0 -473M794 221l2 0M796 595l0 -530M796 278l1 0"/>
<path stroke="blue" d="M797 538l0 -473M797 221l2 0M799 538l0 -473M799 221l1 0M800 584l0 -499M800 163l2 0M802 595l0 -530M802 123l1 78M803 538l0 -473M803 221l2 0M805 538l0 -473M805 221l1 0M806 584l0 -499M806 163l2 0M808 584l0 -519M808 221l1 0M809 584l0 -499"/>
<path stroke="blue" d="M809 163l2 0M811 584l0 -499M811 163l1 0M812 604l0 -498 2 0M814 609l0 -535M814 221l1 0M815 595l0 -530M815 221l2 0M817 538l0 -473M817 221l1 0M818 293l0 -72M818 293l1 83M819 584l0 -499M819 163l1 0M820 584l0 -493M820 221l1 0"/>
<path stroke="blue" d="M821 538l0 -473M821 221l1 0M822 584l0 -499M822 163l1 0M823 584l0 -499M823 163l2 0M825 604l0 -498 1 0M826 609l0 -535M826 163l1 0M827 584l0 -519M827 221l1 0M828 584l0 -499M828 163l2 0M830 584l0 -499M830 163l1 0M831 604l0 -498"/>
<path stroke="blue" d="M831 106l2 0M833 609l0 -535M833 163l1 0M834 604l0 -498 2 0M836 609l0 -535M836 106l1 0M837 624l0 -518M837 624l2 0 0 -550M839 221l1 0M840 595l0 -530M840 336l1 0M841 607l0 -530M841 451l1 0M842 587l0 -499M842 451l1 0M843 607l0 -473"/>
<path stroke="blue" d="M843 394l2 0M845 607l0 -519M845 451l1 0M846 607l0 -473M846 394l2 0M848 607l0 -473M848 394l1 0M849 549l0 -472M849 336l2 0M851 607l0 -530M851 451l1 0M852 607l0 -519M852 394l2 0M854 607l0 -473M854 394l1 0M855 549l0 -472M855 336l2 0"/>
<path stroke="blue" d="M857 549l0 -472M857 394l1 0M858 607l0 -473M858 394l1 0M859 549l0 -472M859 336l1 0M860 549l0 -472M860 336l2 0M862 595l0 -472M862 278l1 0M863 595l0 -472M863 336l1 0M864 607l0 -530M864 451l1 0M865 607l0 -473M865 394l2 0M867 607l0 -473"/>
<path stroke="blue" d="M867 394l1 0M868 549l0 -472M868 336l2 0M870 607l0 -530M870 394l1 0M871 549l0 -472M871 336l2 0M873 549l0 -472M873 336l1 0M874 595l0 -472M874 278l2 0M876 607l0 -530M876 394l1 0M877 549l0 -472M877 336l2 0M879 549l0 -472M879 336l1 0"/>
<path stroke="blue" d="M880 595l0 -472M880 278l2 0M882 595l0 -518M882 336l1 0M883 595l0 -472M883 278l2 0M885 595l0 -472M885 278l1 0M886 538l0 -473M886 221l2 0M888 595l0 -530M888 336l1 0M889 607l0 -530M889 394l2 0M891 607l0 -473M891 394l1 0M892 549l0 -472"/>
<path stroke="blue" d="M892 336l2 0M894 549l0 -472M894 394l1 0M895 607l0 -473M895 466l1 83 0 -472M896 336l1 0M897 549l0 -472M897 336l2 0M899 595l0 -472M899 278l1 0M900 595l0 -472M900 336l1 0M901 607l0 -530M901 394l1 0M902 549l0 -472M902 336l1 0"/>
<path stroke="blue" d="M903 549l0 -472M903 404l1 21M904 549l0 -472M904 336l1 0M905 595l0 -472M905 278l2 0M907 595l0 -518M907 336l1 0M908 595l0 -472M908 278l2 0M910 595l0 -472M910 278l1 0M911 538l0 -473M911 221l2 0M913 595l0 -530M913 394l1 0M914 607l0 -530"/>
<path stroke="blue" d="M914 336l2 0M916 549l0 -472M916 336l1 0M917 595l0 -472M917 278l2 0M919 595l0 -518M919 336l1 0M920 595l0 -472M920 278l2 0M922 595l0 -472M922 278l1 0M923 538l0 -473M923 221l2 0M925 595l0 -530M925 336l1 0M926 595l0 -518M926 278l2 0"/>
<path stroke="blue" d="M928 595l0 -472M928 278l1 0M929 538l0 -473M929 221l2 0M931 538l0 -473M931 247l1 -41M932 595l0 -530M932 221l2 0M934 538l0 -473M934 221l2 0M936 584l0 -499M936 163l1 0M937 584l0 -493M937 221l1 0M938 595l0 -530M938 394l1 0"/>
<path stroke="blue" d="M939 607l0 -473M939 394l1 0M940 607l0 -473M940 394l2 0M942 549l0 -472M942 336l2 0M944 607l0 -530M944 394l1 0M945 549l0 -472M945 336l2 0M947 549l0 -472M947 336l1 0M948 595l0 -472M948 278l2 0M950 607l0 -530M950 394l1 0M951 549l0 -472"/>
<path stroke="blue" d="M951 336l2 0M953 549l0 -472M953 336l1 0M954 595l0 -472M954 278l2 0M956 595l0 -518M956 336l1 0M957 595l0 -472M957 278l2 0M959 595l0 -472M959 278l1 0M960 538l0 -473M960 221l2 0M962 595l0 -530M962 336l1 0M963 607l0 -530M963 336l2 0"/>
<path stroke="blue" d="M965 549l0 -472M965 336l1 0M966 595l0 -472M966 278l2 0M968 595l0 -518M968 549l1 -472M969 595l0 -518M969 278l2 0M971 595l0 -472M971 278l1 0M972 351l0 -73M972 351l1 83M973 538l0 -473M973 221l1 0"/>
</svg>
