<?xml version="1.0" standalone="yes"?>
<!DOCTYPE svg PUBLIC "-//W3C//DTD SVG 1.1//EN"
 "http://www.w3.org/Graphics/SVG/1.1/DTD/svg11.dtd">
<svg xmlns="http://www.w3.org/2000/svg" version="1.1"
  width="100%" height="100%" viewBox="0 0 1024 768"
  style="fill: none; stroke-width: 3; font-family: Helvetica;
 font: Helvetica;
">

<!-- Creator: NGspice -->

<rect x="0" y="0" width="1024" height="768" fill="white" stroke="none"/>
<text stroke="none" fill="black" font-size="16" x="358" y="752">
time
</text>
<text stroke="none" fill="black" font-size="16" x="10" y="16">
tran1: Transient: Total Supply Current
</text>
<path stroke="black" stroke-width="3" d="M70 704l0 -636"/>
<text stroke="none" fill="black" font-size="16" x="55" y="728">
0.0
</text>
<path stroke="black" stroke-width="3" stroke-dasharray="1,2" d="M158 704l0 -636"/>
<text stroke="none" fill="black" font-size="16" x="138" y="728">
10.0
</text>
<path stroke="black" stroke-width="3" stroke-dasharray="1,2" d="M246 704l0 -636"/>
<text stroke="none" fill="black" font-size="16" x="226" y="728">
20.0
</text>
<path stroke="black" stroke-width="3" stroke-dasharray="1,2" d="M334 704l0 -636"/>
<text stroke="none" fill="black" font-size="16" x="314" y="728">
30.0
</text>
<path stroke="black" stroke-width="3" stroke-dasharray="1,2" d="M422 704l0 -636"/>
<text stroke="none" fill="black" font-size="16" x="402" y="728">
40.0
</text>
<path stroke="black" stroke-width="3" stroke-dasharray="1,2" d="M510 704l0 -636"/>
<text stroke="none" fill="black" font-size="16" x="490" y="728">
50.0
</text>
<path stroke="black" stroke-width="3" stroke-dasharray="1,2" d="M598 704l0 -636"/>
<text stroke="none" fill="black" font-size="16" x="578" y="728">
60.0
</text>
<path stroke="black" stroke-width="3" stroke-dasharray="1,2" d="M686 704l0 -636"/>
<text stroke="none" fill="black" font-size="16" x="666" y="728">
70.0
</text>
<path stroke="black" stroke-width="3" stroke-dasharray="1,2" d="M774 704l0 -636"/>
<text stroke="none" fill="black" font-size="16" x="754" y="728">
80.0
</text>
<path stroke="black" stroke-width="3" stroke-dasharray="1,2" d="M862 704l0 -636"/>
<text stroke="none" fill="black" font-size="16" x="842" y="728">
90.0
</text>
<path stroke="black" stroke-width="3" stroke-dasharray="1,2" d="M950 704l0 -636"/>
<text stroke="none" fill="black" font-size="16" x="925" y="728">
100.0
</text>
<text stroke="none" fill="black" font-size="16" x="614" y="752">
ns
</text>
<path stroke="black" stroke-width="3" stroke-dasharray="1,2" d="M70 704l880 0"/>
<text stroke="none" fill="black" font-size="16" x="8" y="712">
-200.0
</text>
<path stroke="black" stroke-width="3" stroke-dasharray="1,2" d="M70 651l880 0"/>
<text stroke="none" fill="black" font-size="16" x="8" y="659">
-150.0
</text>
<path stroke="black" stroke-width="3" stroke-dasharray="1,2" d="M70 598l880 0"/>
<text stroke="none" fill="black" font-size="16" x="8" y="606">
-100.0
</text>
<path stroke="black" stroke-width="3" stroke-dasharray="1,2" d="M70 545l880 0"/>
<text stroke="none" fill="black" font-size="16" x="18" y="553">
-50.0
</text>
<path stroke="black" stroke-width="3" d="M70 492l880 0"/>
<text stroke="none" fill="black" font-size="16" x="38" y="500">
0.0
</text>
<path stroke="black" stroke-width="3" stroke-dasharray="1,2" d="M70 439l880 0"/>
<text stroke="none" fill="black" font-size="16" x="28" y="447">
50.0
</text>
<path stroke="black" stroke-width="3" stroke-dasharray="1,2" d="M70 386l880 0"/>
<text stroke="none" fill="black" font-size="16" x="18" y="394">
100.0
</text>
<path stroke="black" stroke-width="3" stroke-dasharray="1,2" d="M70 333l880 0"/>
<text stroke="none" fill="black" font-size="16" x="18" y="341">
150.0
</text>
<path stroke="black" stroke-width="3" stroke-dasharray="1,2" d="M70 280l880 0"/>
<text stroke="none" fill="black" font-size="16" x="18" y="288">
200.0
</text>
<path stroke="black" stroke-width="3" stroke-dasharray="1,2" d="M70 227l880 0"/>
<text stroke="none" fill="black" font-size="16" x="18" y="235">
250.0
</text>
<path stroke="black" stroke-width="3" stroke-dasharray="1,2" d="M70 174l880 0"/>
<text stroke="none" fill="black" font-size="16" x="18" y="182">
300.0
</text>
<path stroke="black" stroke-width="3" stroke-dasharray="1,2" d="M70 121l880 0"/>
<text stroke="none" fill="black" font-size="16" x="18" y="129">
350.0
</text>
<path stroke="black" stroke-width="3" stroke-dasharray="1,2" d="M70 68l880 0"/>
<text stroke="none" fill="black" font-size="16" x="18" y="76">
400.0
</text>
<text stroke="none" fill="black" font-size="16" x="10" y="32">
uA
</text>
<path stroke="red" d="M440 23l44 0"/>
<text stroke="none" fill="black" font-size="16" x="494" y="32">
-i(v_supply)
</text>
<path stroke="red" d="M70 492l9 0M79 700l0 -208M79 508l1 11 0 -158M80 495l1 -6M81 495l0 -6M81 494l1 -4M82 494l0 -4 1 4 0 -4M83 494l1 -4M84 493l0 -3M84 493l1 -2M85 493l0 -2 1 2 0 -2 1 2 0 -2M87 493l1 -2M88 493l0 -2 1 2 0 -2M89 492l70 0M159 525l0 -87"/>
<path stroke="red" d="M159 525l1 48M160 622l0 -170M160 480l1 25 0 -25M161 482l1 20 0 -20M162 501l1 -18M163 501l0 -18M163 500l1 -16M164 500l0 -16M164 485l1 14 0 -14M165 498l1 -12M166 498l0 -12M166 497l1 -10M167 497l0 -10M167 488l1 8 0 -8M168 496l1 -8"/>
<path stroke="red" d="M169 496l0 -8M169 495l1 -6M170 495l0 -6M170 490l1 4 0 -4M171 494l1 -4M172 494l0 -4M172 493l1 -2M173 493l0 -2 1 2 0 -2M174 492l2 0M176 493l0 -2M176 493l1 -2M177 493l0 -2M177 493l1 -2M178 493l0 -2 1 2M179 494l0 -4M179 494l1 -4"/>
<path stroke="red" d="M180 494l0 -4M180 494l1 -4M181 494l0 -4 1 4 0 -4M182 494l1 -4M183 495l0 -5M183 495l1 -6M184 495l0 -6 1 6 0 -6 1 6 0 -6M186 495l1 -6M187 495l0 -6 1 6 0 -6 1 6 0 -6M189 495l1 -6M190 495l0 -6 1 6M191 496l0 -8 1 8 0 -8M192 496l1 -8"/>
<path stroke="red" d="M193 496l0 -8 1 8 0 -8 1 8 0 -8M195 496l1 -8M196 496l0 -8M196 496l1 -8M197 496l0 -8 1 8 0 -8M198 496l1 -8M199 496l0 -8M199 496l1 -8M200 496l0 -8 1 8 0 -8M201 496l1 -8M202 496l0 -8M202 496l1 -8M203 496l0 -8 1 8 0 -8M204 496l1 -8"/>
<path stroke="red" d="M205 496l0 -8M205 496l1 -8M206 496l0 -8 1 8 0 -8 1 8M208 497l0 -10M208 497l1 -10M209 497l0 -10 1 10 0 -10 1 10 0 -10M211 497l1 -10M212 497l0 -10 1 10 0 -10 1 10 0 -10M214 497l1 -10M215 497l0 -10 1 10 0 -10 1 10 0 -10M217 497l1 -10"/>
<path stroke="red" d="M218 497l0 -10 1 10 0 -10 1 10 0 -10M220 497l1 -10M221 497l0 -10M221 497l1 -10M222 497l0 -10 1 10 0 -10M223 497l1 -10M224 497l0 -10M224 497l1 -10M225 497l0 -10 1 10 0 -10M226 497l1 -10M227 497l0 -10M227 497l1 -10M228 497l0 -10"/>
<path stroke="red" d="M228 487l1 10 0 -10M229 497l1 -10M230 497l0 -10M230 497l1 -10M231 497l0 -10 1 10 0 -10 1 10 0 -10M233 497l1 -10M234 497l0 -10 1 10 0 -10 1 10 0 -10M236 497l1 -10M237 497l0 -10 1 10 0 -10 1 10 0 -10M239 497l1 -10M240 497l0 -10"/>
<path stroke="red" d="M240 487l1 10 0 -10 1 10 0 -10M242 497l1 -10M243 497l0 -10M243 497l1 -10M244 497l0 -10 1 10 0 -10M245 497l1 -10M246 497l0 -10M246 497l1 -10M247 497l0 -182 1 -39M248 494l0 -393M248 494l1 -4M249 495l0 -6M249 495l1 -7M250 496l0 -8"/>
<path stroke="red" d="M250 488l1 8M251 497l0 -10M251 497l1 -10M252 498l0 -12M252 498l1 -12M253 498l0 -12 1 12M254 499l0 -14 1 14M255 621l0 -136M255 582l1 -10M256 574l0 -83 1 2 0 -2 1 2 0 -2M258 493l1 -2M259 493l0 -2 1 2 0 -2 1 2 0 -2M261 493l1 -2"/>
<path stroke="red" d="M262 493l0 -2 1 2 0 -2 1 2 0 -2M264 493l1 -2M265 493l0 -2M265 493l1 -2M266 493l0 -2 1 2 0 -2M267 493l1 -2M268 493l0 -2M268 492l67 0 0 -112 1 -51M336 494l0 -290M336 494l1 -4M337 494l0 -4M337 493l1 -2M338 493l0 -2 1 2 0 -2"/>
<path stroke="red" d="M339 491l1 2 0 -2M340 493l1 -2M341 493l0 -2M341 492l10 0M351 493l0 -2M351 493l1 -2M352 493l0 -2 1 2 0 -2 1 2 0 -2M354 493l1 -2M355 493l0 -2 1 2 0 -2 1 2 0 -2M357 493l1 -2M358 493l0 -2 1 2 0 -2 1 2 0 -2M360 493l1 -2M361 493l0 -2"/>
<path stroke="red" d="M361 493l1 -2M362 493l0 -2 1 2 0 -2M363 493l1 -2M364 493l0 -2M364 493l1 -2M365 493l0 -2 1 2 0 -2M366 493l1 -2M367 493l0 -2M367 493l1 -2M368 493l0 -2 1 2 0 -2M369 493l1 -2M370 493l0 -2M370 493l1 -2M371 493l0 -2 1 2 0 -2 1 2"/>
<path stroke="red" d="M373 493l0 -2M373 493l1 -2M374 493l0 -2 1 2 0 -2 1 2 0 -2M376 493l1 -2M377 493l0 -2 1 2 0 -2 1 2 0 -2M379 493l1 -2M380 493l0 -2 1 2 0 -2 1 2 0 -2M382 493l1 -2M383 493l0 -2M383 493l1 -2M384 493l0 -2 1 2 0 -2M385 493l1 -2"/>
<path stroke="red" d="M386 493l0 -2M386 493l1 -2M387 493l0 -2 1 2 0 -2M388 493l1 -2M389 493l0 -2M389 493l1 -2M390 493l0 -2 1 2 0 -2M391 493l1 -2M392 493l0 -2M392 493l1 -2M393 493l0 -2 1 2 0 -2 1 2 0 -2M395 493l1 -2M396 493l0 -2 1 2 0 -2 1 2 0 -2"/>
<path stroke="red" d="M398 493l1 -2M399 493l0 -2 1 2 0 -2 1 2 0 -2M401 493l1 -2M402 493l0 -2 1 2 0 -2 1 2 0 -2M404 493l1 -2M405 493l0 -2M405 493l1 -2M406 493l0 -2 1 2 0 -2M407 493l1 -2M408 493l0 -2M408 493l1 -2M409 493l0 -2 1 2 0 -2M410 492l21 0"/>
<path stroke="red" d="M431 700l0 -208M431 508l1 11 0 -158M432 495l1 -6M433 495l0 -6M433 494l1 -4M434 494l0 -4 1 4 0 -4M435 494l1 -4M436 493l0 -3M436 493l1 -2M437 493l0 -2 1 2 0 -2 1 2 0 -2M439 493l1 -2M440 493l0 -2 1 2 0 -2M441 492l70 0M511 525l0 -87"/>
<path stroke="red" d="M511 525l1 48M512 622l0 -170M512 480l1 25 0 -25M513 482l1 20 0 -20M514 501l1 -18M515 501l0 -18M515 500l1 -16M516 500l0 -16M516 485l1 14 0 -14M517 498l1 -12M518 498l0 -12M518 497l1 -10M519 497l0 -10M519 488l1 8 0 -8M520 496l1 -8"/>
<path stroke="red" d="M521 496l0 -8M521 495l1 -6M522 495l0 -6M522 490l1 4 0 -4M523 494l1 -4M524 494l0 -4M524 493l1 -2M525 493l0 -2 1 2 0 -2M526 492l2 0M528 493l0 -2M528 493l1 -2M529 493l0 -2M529 493l1 -2M530 493l0 -2 1 2M531 494l0 -4M531 494l1 -4"/>
<path stroke="red" d="M532 494l0 -4M532 494l1 -4M533 494l0 -4 1 4 0 -4M534 494l1 -4M535 495l0 -5M535 495l1 -6M536 495l0 -6 1 6 0 -6 1 6 0 -6M538 495l1 -6M539 495l0 -6 1 6 0 -6 1 6 0 -6M541 495l1 -6M542 495l0 -6 1 6M543 496l0 -8 1 8 0 -8M544 496l1 -8"/>
<path stroke="red" d="M545 496l0 -8 1 8 0 -8 1 8 0 -8M547 496l1 -8M548 496l0 -8M548 496l1 -8M549 496l0 -8 1 8 0 -8M550 496l1 -8M551 496l0 -8M551 496l1 -8M552 496l0 -8 1 8 0 -8M553 496l1 -8M554 496l0 -8M554 496l1 -8M555 496l0 -8 1 8 0 -8M556 496l1 -8"/>
<path stroke="red" d="M557 496l0 -8M557 496l1 -8M558 496l0 -8 1 8 0 -8 1 8M560 497l0 -10M560 497l1 -10M561 497l0 -10 1 10 0 -10 1 10 0 -10M563 497l1 -10M564 497l0 -10 1 10 0 -10 1 10 0 -10M566 497l1 -10M567 497l0 -10 1 10 0 -10 1 10 0 -10M569 497l1 -10"/>
<path stroke="red" d="M570 497l0 -10M570 497l1 -10M571 497l0 -10 1 10 0 -10M572 497l1 -10M573 497l0 -10M573 497l1 -10M574 497l0 -10 1 10 0 -10M575 497l1 -10M576 497l0 -10M576 497l1 -10M577 497l0 -10 1 10 0 -10M578 497l1 -10M579 497l0 -10M579 497l1 -10"/>
<path stroke="red" d="M580 497l0 -10 1 10 0 -10 1 10 0 -10M582 497l1 -10M583 497l0 -10 1 10 0 -10 1 10 0 -10M585 497l1 -10M586 497l0 -10 1 10 0 -10 1 10 0 -10M588 497l1 -10M589 497l0 -10 1 10 0 -10 1 10 0 -10M591 497l1 -10M592 497l0 -10M592 497l1 -10"/>
<path stroke="red" d="M593 497l0 -10 1 10 0 -10M594 497l1 -10M595 497l0 -10M595 497l1 -10M596 497l0 -10 1 10 0 -10M597 497l1 -10M598 497l0 -10M598 497l1 -10M599 497l0 -182 1 -39M600 494l0 -393M600 494l1 -4M601 495l0 -6M601 495l1 -7M602 496l0 -8"/>
<path stroke="red" d="M602 488l1 8M603 497l0 -10 1 10M604 498l0 -12M604 498l1 -12M605 498l0 -12 1 12M606 499l0 -14 1 14M607 621l0 -136M607 582l1 -10M608 574l0 -83 1 2 0 -2 1 2 0 -2M610 493l1 -2M611 493l0 -2 1 2 0 -2 1 2 0 -2M613 493l1 -2M614 493l0 -2"/>
<path stroke="red" d="M614 493l1 -2M615 493l0 -2 1 2 0 -2M616 493l1 -2M617 493l0 -2M617 493l1 -2M618 493l0 -2 1 2 0 -2M619 493l1 -2M620 493l0 -2M620 492l67 0 0 -112 1 -51M688 494l0 -290M688 494l1 -4M689 494l0 -4M689 493l1 -2M690 493l0 -2 1 2"/>
<path stroke="red" d="M691 493l0 -2 1 2 0 -2M692 493l1 -2M693 493l0 -2M693 492l10 0M703 493l0 -2M703 493l1 -2M704 493l0 -2 1 2 0 -2 1 2 0 -2M706 493l1 -2M707 493l0 -2 1 2 0 -2 1 2 0 -2M709 493l1 -2M710 493l0 -2 1 2 0 -2 1 2 0 -2M712 493l1 -2"/>
<path stroke="red" d="M713 493l0 -2M713 493l1 -2M714 493l0 -2 1 2 0 -2M715 493l1 -2M716 493l0 -2M716 493l1 -2M717 493l0 -2 1 2 0 -2M718 493l1 -2M719 493l0 -2M719 493l1 -2M720 493l0 -2 1 2 0 -2M721 493l1 -2M722 493l0 -2M722 493l1 -2M723 493l0 -2"/>
<path stroke="red" d="M723 491l1 2 0 -2 1 2 0 -2M725 493l1 -2M726 493l0 -2 1 2 0 -2 1 2 0 -2M728 493l1 -2M729 493l0 -2 1 2 0 -2 1 2 0 -2M731 493l1 -2M732 493l0 -2 1 2 0 -2 1 2 0 -2M734 493l1 -2M735 493l0 -2M735 493l1 -2M736 493l0 -2 1 2 0 -2"/>
<path stroke="red" d="M737 493l1 -2M738 493l0 -2M738 493l1 -2M739 493l0 -2 1 2 0 -2M740 493l1 -2M741 493l0 -2M741 493l1 -2M742 493l0 -2 1 2 0 -2M743 493l1 -2M744 493l0 -2M744 493l1 -2M745 493l0 -2 1 2 0 -2 1 2 0 -2M747 493l1 -2M748 493l0 -2 1 2"/>
<path stroke="red" d="M749 493l0 -2 1 2 0 -2M750 493l1 -2M751 493l0 -2 1 2 0 -2 1 2 0 -2M753 493l1 -2M754 493l0 -2 1 2 0 -2 1 2 0 -2M756 493l1 -2M757 493l0 -2M757 493l1 -2M758 493l0 -2 1 2 0 -2M759 493l1 -2M760 493l0 -2M760 493l1 -2M761 493l0 -2"/>
<path stroke="red" d="M761 491l1 2 0 -2M762 492l21 0M783 700l0 -208M783 508l1 11 0 -158M784 495l1 -6M785 495l0 -6M785 494l1 -4M786 494l0 -4 1 4 0 -4M787 494l1 -4M788 493l0 -3M788 493l1 -2M789 493l0 -2 1 2 0 -2 1 2 0 -2M791 493l1 -2M792 493l0 -2"/>
<path stroke="red" d="M792 491l1 2 0 -2M793 492l70 0M863 525l0 -87M863 525l1 48M864 622l0 -170M864 480l1 25 0 -25M865 482l1 20 0 -20M866 501l1 -18M867 501l0 -18M867 500l1 -16M868 500l0 -16M868 485l1 14 0 -14M869 498l1 -12M870 498l0 -12M870 497l1 -10"/>
<path stroke="red" d="M871 497l0 -10M871 488l1 8 0 -8M872 496l1 -8M873 496l0 -8M873 495l1 -6M874 495l0 -6M874 490l1 4 0 -4M875 494l1 -4M876 494l0 -4M876 493l1 -2M877 493l0 -2 1 2 0 -2M878 492l2 0M880 493l0 -2M880 493l1 -2M881 493l0 -2M881 493l1 -2"/>
<path stroke="red" d="M882 493l0 -2 1 2M883 494l0 -4M883 494l1 -4M884 494l0 -4M884 494l1 -4M885 494l0 -4 1 4 0 -4M886 494l1 -4M887 495l0 -5M887 495l1 -6M888 495l0 -6 1 6 0 -6 1 6 0 -6M890 495l1 -6M891 495l0 -6 1 6 0 -6 1 6 0 -6M893 495l1 -6M894 495l0 -6"/>
<path stroke="red" d="M894 489l1 6M895 496l0 -8 1 8 0 -8M896 496l1 -8M897 496l0 -8 1 8 0 -8 1 8 0 -8M899 496l1 -8M900 496l0 -8M900 496l1 -8M901 496l0 -8 1 8 0 -8M902 496l1 -8M903 496l0 -8M903 496l1 -8M904 496l0 -8 1 8 0 -8M905 496l1 -8M906 496l0 -8"/>
<path stroke="red" d="M906 496l1 -8M907 496l0 -8 1 8 0 -8M908 496l1 -8M909 496l0 -8M909 496l1 -8M910 496l0 -8 1 8 0 -8 1 8M912 497l0 -10M912 497l1 -10M913 497l0 -10 1 10 0 -10 1 10 0 -10M915 497l1 -10M916 497l0 -10 1 10 0 -10 1 10 0 -10M918 497l1 -10"/>
<path stroke="red" d="M919 497l0 -10 1 10 0 -10 1 10 0 -10M921 497l1 -10M922 497l0 -10M922 497l1 -10M923 497l0 -10 1 10 0 -10M924 497l1 -10M925 497l0 -10M925 497l1 -10M926 497l0 -10 1 10 0 -10M927 497l1 -10M928 497l0 -10M928 497l1 -10M929 497l0 -10"/>
<path stroke="red" d="M929 487l1 10 0 -10M930 497l1 -10M931 497l0 -10M931 497l1 -10M932 497l0 -10 1 10 0 -10 1 10 0 -10M934 497l1 -10M935 497l0 -10 1 10 0 -10 1 10 0 -10M937 497l1 -10M938 497l0 -10 1 10 0 -10 1 10 0 -10M940 497l1 -10M941 497l0 -10"/>
<path stroke="red" d="M941 487l1 10 0 -10 1 10 0 -10M943 497l1 -10M944 497l0 -10M944 497l1 -10M945 497l0 -10 1 10 0 -10M946 497l1 -10M947 497l0 -10M947 497l1 -10M948 497l0 -10 1 10 0 -10M949 497l1 -10M950 497l0 -10"/>
</svg>
