<?xml version="1.0" standalone="yes"?>
<!DOCTYPE svg PUBLIC "-//W3C//DTD SVG 1.1//EN"
 "http://www.w3.org/Graphics/SVG/1.1/DTD/svg11.dtd">
<svg xmlns="http://www.w3.org/2000/svg" version="1.1"
  width="100%" height="100%" viewBox="0 0 1024 768"
  style="fill: none; stroke-width: 3; font-family: Helvetica;
 font: Helvetica;
">

<!-- Creator: NGspice -->

<rect x="0" y="0" width="1024" height="768" fill="white" stroke="none"/>
<text stroke="none" fill="black" font-size="16" x="358" y="752">
time
</text>
<text stroke="none" fill="black" font-size="16" x="10" y="16">
tran1: Transient: Static Leakage Zoom
</text>
<path stroke="black" stroke-width="3" d="M70 704l0 -640"/>
<text stroke="none" fill="black" font-size="16" x="55" y="728">
0.0
</text>
<path stroke="black" stroke-width="3" stroke-dasharray="1,2" d="M158 704l0 -640"/>
<text stroke="none" fill="black" font-size="16" x="138" y="728">
10.0
</text>
<path stroke="black" stroke-width="3" stroke-dasharray="1,2" d="M246 704l0 -640"/>
<text stroke="none" fill="black" font-size="16" x="226" y="728">
20.0
</text>
<path stroke="black" stroke-width="3" stroke-dasharray="1,2" d="M334 704l0 -640"/>
<text stroke="none" fill="black" font-size="16" x="314" y="728">
30.0
</text>
<path stroke="black" stroke-width="3" stroke-dasharray="1,2" d="M422 704l0 -640"/>
<text stroke="none" fill="black" font-size="16" x="402" y="728">
40.0
</text>
<path stroke="black" stroke-width="3" stroke-dasharray="1,2" d="M510 704l0 -640"/>
<text stroke="none" fill="black" font-size="16" x="490" y="728">
50.0
</text>
<path stroke="black" stroke-width="3" stroke-dasharray="1,2" d="M598 704l0 -640"/>
<text stroke="none" fill="black" font-size="16" x="578" y="728">
60.0
</text>
<path stroke="black" stroke-width="3" stroke-dasharray="1,2" d="M686 704l0 -640"/>
<text stroke="none" fill="black" font-size="16" x="666" y="728">
70.0
</text>
<path stroke="black" stroke-width="3" stroke-dasharray="1,2" d="M774 704l0 -640"/>
<text stroke="none" fill="black" font-size="16" x="754" y="728">
80.0
</text>
<path stroke="black" stroke-width="3" stroke-dasharray="1,2" d="M862 704l0 -640"/>
<text stroke="none" fill="black" font-size="16" x="842" y="728">
90.0
</text>
<path stroke="black" stroke-width="3" stroke-dasharray="1,2" d="M950 704l0 -640"/>
<text stroke="none" fill="black" font-size="16" x="925" y="728">
100.0
</text>
<text stroke="none" fill="black" font-size="16" x="614" y="752">
ns
</text>
<path stroke="black" stroke-width="3" d="M70 704l880 0"/>
<text stroke="none" fill="black" font-size="16" x="38" y="712">
0.0
</text>
<path stroke="black" stroke-width="3" stroke-dasharray="1,2" d="M70 640l880 0"/>
<text stroke="none" fill="black" font-size="16" x="28" y="648">
10.0
</text>
<path stroke="black" stroke-width="3" stroke-dasharray="1,2" d="M70 576l880 0"/>
<text stroke="none" fill="black" font-size="16" x="28" y="584">
20.0
</text>
<path stroke="black" stroke-width="3" stroke-dasharray="1,2" d="M70 512l880 0"/>
<text stroke="none" fill="black" font-size="16" x="28" y="520">
30.0
</text>
<path stroke="black" stroke-width="3" stroke-dasharray="1,2" d="M70 448l880 0"/>
<text stroke="none" fill="black" font-size="16" x="28" y="456">
40.0
</text>
<path stroke="black" stroke-width="3" stroke-dasharray="1,2" d="M70 384l880 0"/>
<text stroke="none" fill="black" font-size="16" x="28" y="392">
50.0
</text>
<path stroke="black" stroke-width="3" stroke-dasharray="1,2" d="M70 320l880 0"/>
<text stroke="none" fill="black" font-size="16" x="28" y="328">
60.0
</text>
<path stroke="black" stroke-width="3" stroke-dasharray="1,2" d="M70 256l880 0"/>
<text stroke="none" fill="black" font-size="16" x="28" y="264">
70.0
</text>
<path stroke="black" stroke-width="3" stroke-dasharray="1,2" d="M70 192l880 0"/>
<text stroke="none" fill="black" font-size="16" x="28" y="200">
80.0
</text>
<path stroke="black" stroke-width="3" stroke-dasharray="1,2" d="M70 128l880 0"/>
<text stroke="none" fill="black" font-size="16" x="28" y="136">
90.0
</text>
<path stroke="black" stroke-width="3" stroke-dasharray="1,2" d="M70 64l880 0"/>
<text stroke="none" fill="black" font-size="16" x="18" y="72">
100.0
</text>
<text stroke="none" fill="black" font-size="16" x="10" y="32">
nA
</text>
<path stroke="red" d="M440 23l44 0"/>
<text stroke="none" fill="black" font-size="16" x="494" y="32">
-i(v_supply)
</text>
<path stroke="red" d="M70 704l9 0M80 704l0 -640M81 704l0 -640M82 704l0 -640M83 704l0 -640M84 704l0 -640M85 704l0 -640M86 704l0 -640M87 704l0 -640M88 704l0 -640M89 704l0 -640M90 704l0 -640M91 704l0 -640M92 704l0 -640M93 704l0 -640M94 704l0 -640"/>
<path stroke="red" d="M95 704l0 -640M96 704l0 -640M97 704l0 -640M98 704l0 -595M99 704l0 -512M99 704l1 -456M100 704l0 -456M100 704l1 -401M101 704l0 -401M102 704l0 -356M102 704l1 -325M103 704l0 -325M103 704l1 -295M104 704l0 -295M105 704l0 -271"/>
<path stroke="red" d="M105 704l1 -253M106 704l0 -253M106 704l1 -236M107 704l0 -236M108 704l0 -222M108 704l1 -212M109 704l0 -212M109 704l1 -202M110 704l0 -202M111 704l0 -193M112 704l0 -185M112 704l1 -180M113 704l0 -180M114 704l0 -174M115 704l0 -170"/>
<path stroke="red" d="M115 704l1 -166M116 704l0 -166M117 704l0 -162M118 704l0 -159M118 704l1 -156M119 704l0 -156M119 704l1 -154M120 704l0 -154M121 704l0 -151M121 704l1 -150M122 704l0 -150M122 704l1 -148M123 704l0 -148M124 704l0 -146M124 704l1 -145"/>
<path stroke="red" d="M125 704l0 -145M125 704l1 -144M126 704l0 -144M127 704l0 -143M127 704l1 -142M128 704l0 -142M128 704l1 -141M129 704l0 -141M130 704l0 -140M131 704l0 -139M131 704l1 -139M132 704l0 -139M133 704l0 -139M134 704l0 -138M134 704l1 -138"/>
<path stroke="red" d="M135 704l0 -138M136 704l0 -138M137 704l0 -138M137 704l1 -138M138 704l0 -138M139 704l0 -137M140 704l0 -138M140 704l1 -138M141 704l0 -138M141 704l1 -138M142 704l0 -138M143 704l0 -138M143 704l1 -138M144 704l0 -138M144 704l1 -138"/>
<path stroke="red" d="M145 704l0 -138M146 704l0 -139M146 704l1 -139M147 704l0 -139M147 704l1 -139M148 704l0 -139M149 704l0 -140M149 704l1 -140M150 704l0 -140M150 704l1 -140M151 704l0 -140M152 704l0 -141M153 704l0 -141M153 704l1 -141M154 704l0 -142"/>
<path stroke="red" d="M155 704l0 -142M156 704l0 -143M156 704l1 -143M157 704l0 -143M158 704l0 -144M159 704l0 -640M160 704l0 -640M161 704l0 -640M162 704l0 -640M163 704l0 -640M164 704l0 -640M165 704l0 -640M166 704l0 -640M167 704l0 -640M168 704l0 -640"/>
<path stroke="red" d="M169 704l0 -640M170 704l0 -640M171 704l0 -640M172 704l0 -640M173 704l0 -640M174 704l0 -640M175 704l0 -640M176 704l0 -640M177 704l0 -640M178 704l0 -640M179 704l0 -640M180 704l0 -640M181 704l0 -640M182 704l0 -640M183 704l0 -640"/>
<path stroke="red" d="M184 704l0 -640M185 704l0 -640M186 704l0 -640M187 704l0 -640M188 704l0 -640M189 704l0 -640M190 704l0 -640M191 704l0 -640M192 704l0 -640M193 704l0 -640M194 704l0 -640M195 704l0 -640M196 704l0 -640M197 704l0 -640M198 704l0 -640"/>
<path stroke="red" d="M199 704l0 -640M200 704l0 -640M201 704l0 -640M202 704l0 -640M203 704l0 -640M204 704l0 -640M205 704l0 -640M206 704l0 -640M207 704l0 -640M208 704l0 -640M209 704l0 -640M210 704l0 -640M211 704l0 -640M212 704l0 -640M213 704l0 -640"/>
<path stroke="red" d="M214 704l0 -640M215 704l0 -640M216 704l0 -640M217 704l0 -640M218 704l0 -640M219 704l0 -640M220 704l0 -640M221 704l0 -640M222 704l0 -640M223 704l0 -640M224 704l0 -640M225 704l0 -640M226 704l0 -640M227 704l0 -640M228 704l0 -640"/>
<path stroke="red" d="M229 704l0 -640M230 704l0 -640M231 704l0 -640M232 704l0 -640M233 704l0 -640M234 704l0 -640M235 704l0 -640M236 704l0 -640M237 704l0 -640M238 704l0 -640M239 704l0 -640M240 704l0 -640M241 704l0 -640M242 704l0 -640M243 704l0 -640"/>
<path stroke="red" d="M244 704l0 -640M245 704l0 -640M246 704l0 -640M247 704l0 -640M248 704l0 -640M249 704l0 -640M250 704l0 -640M251 704l0 -640M252 704l0 -640M253 704l0 -640M254 704l0 -640M255 704l0 -640M256 704l0 -640M257 704l0 -640M258 704l0 -640"/>
<path stroke="red" d="M259 704l0 -640M260 704l0 -640M261 704l0 -640M262 704l0 -640M263 704l0 -640M264 704l0 -640M265 704l0 -640M266 704l0 -640M267 704l0 -640M268 704l0 -640M269 704l0 -640M270 704l0 -640M271 704l0 -640M272 704l0 -640M273 704l0 -640"/>
<path stroke="red" d="M274 704l0 -640M275 704l0 -640M276 704l0 -640M277 704l0 -464M277 704l1 -305M278 704l0 -305M279 704l0 -128M279 704l1 -26M280 704l0 -153M281 704l0 -270M281 704l1 -293M282 704l0 -401M282 704l1 -423M283 704l0 -524M284 704l0 -619"/>
<path stroke="red" d="M284 704l1 -637M285 704l0 -640M286 704l0 -640M287 704l0 -640M288 704l0 -640M289 704l0 -640M290 704l0 -640M291 704l0 -640M292 704l0 -640M293 704l0 -640M294 704l0 -640M295 704l0 -640M296 704l0 -640M297 704l0 -640M298 704l0 -640"/>
<path stroke="red" d="M299 704l0 -640M300 704l0 -640M301 704l0 -640M302 704l0 -640M303 704l0 -640M304 704l0 -640M305 704l0 -640M306 704l0 -640M307 704l0 -640M308 704l0 -640M309 704l0 -640M310 704l0 -640M311 704l0 -640M312 704l0 -640M313 704l0 -640"/>
<path stroke="red" d="M314 704l0 -640M315 704l0 -640M316 704l0 -640M317 704l0 -640M318 704l0 -640M319 704l0 -640M320 704l0 -640M321 704l0 -640M322 704l0 -640M323 704l0 -640M324 704l0 -640M325 704l0 -640M326 704l0 -640M327 704l0 -640M328 704l0 -640"/>
<path stroke="red" d="M329 704l0 -640M330 704l0 -640M331 704l0 -640M332 704l0 -640M333 704l0 -640M334 704l0 -640M335 704l0 -640M336 704l0 -640M337 704l0 -640M338 704l0 -640M339 704l0 -640M340 704l0 -640M341 704l0 -640M342 704l0 -640M343 704l0 -640"/>
<path stroke="red" d="M343 704l1 -270M344 704l0 -301M344 704l1 -417M345 704l0 -640M346 704l0 -640M347 704l0 -640M348 704l0 -640M349 704l0 -640M350 704l0 -640M351 704l0 -640M352 704l0 -640M353 704l0 -640M354 704l0 -640M355 704l0 -640M356 704l0 -640"/>
<path stroke="red" d="M357 704l0 -640M358 704l0 -640M359 704l0 -640M360 704l0 -640M361 704l0 -640M362 704l0 -640M363 704l0 -640M364 704l0 -640M365 704l0 -640M366 704l0 -640M367 704l0 -640M368 704l0 -640M369 704l0 -640M370 704l0 -640M371 704l0 -640"/>
<path stroke="red" d="M372 704l0 -640M373 704l0 -640M374 704l0 -640M375 704l0 -640M376 704l0 -640M377 704l0 -640M378 704l0 -640M379 704l0 -640M380 704l0 -640M381 704l0 -640M382 704l0 -640M383 704l0 -640M384 704l0 -640M385 704l0 -640M386 704l0 -640"/>
<path stroke="red" d="M387 704l0 -640M388 704l0 -640M389 704l0 -640M390 704l0 -640M391 704l0 -640M392 704l0 -640M393 704l0 -640M394 704l0 -640M395 704l0 -640M396 704l0 -640M397 704l0 -640M398 704l0 -640M399 704l0 -640M400 704l0 -640M401 704l0 -640"/>
<path stroke="red" d="M402 704l0 -640M403 704l0 -640M404 704l0 -640M405 704l0 -640M406 704l0 -640M407 704l0 -640M408 704l0 -640M409 704l0 -640M410 704l0 -640M411 704l0 -640M412 704l0 -640M413 704l0 -640M414 704l0 -640M415 704l0 -640M416 704l0 -640"/>
<path stroke="red" d="M417 704l0 -640M418 704l0 -640M419 704l0 -640M420 704l0 -640M421 704l0 -640M422 704l0 -640M423 704l0 -640M424 704l0 -640M425 704l0 -640M426 704l0 -640M427 704l0 -640M428 704l0 -640M429 704l0 -640M430 704l0 -640M431 704l0 -640"/>
<path stroke="red" d="M432 704l0 -640M433 704l0 -640M434 704l0 -640M435 704l0 -640M436 704l0 -640M437 704l0 -640M438 704l0 -640M439 704l0 -640M440 704l0 -640M441 704l0 -640M442 704l0 -640M443 704l0 -640M444 704l0 -640M445 704l0 -640M446 704l0 -640"/>
<path stroke="red" d="M447 704l0 -640M448 704l0 -640M449 704l0 -640M449 704l1 -595M450 704l0 -595M451 704l0 -512M451 704l1 -456M452 704l0 -456M452 704l1 -401M453 704l0 -401M454 704l0 -356M454 704l1 -325M455 704l0 -325M455 704l1 -295M456 704l0 -295"/>
<path stroke="red" d="M457 704l0 -271M457 704l1 -253M458 704l0 -253M458 704l1 -236M459 704l0 -236M460 704l0 -222M461 704l0 -210M461 704l1 -202M462 704l0 -202M463 704l0 -193M464 704l0 -185M464 704l1 -180M465 704l0 -180M466 704l0 -174M467 704l0 -170"/>
<path stroke="red" d="M467 704l1 -166M468 704l0 -166M469 704l0 -162M470 704l0 -159M470 704l1 -156M471 704l0 -156M471 704l1 -154M472 704l0 -154M473 704l0 -151M473 704l1 -150M474 704l0 -150M474 704l1 -148M475 704l0 -148M476 704l0 -146M476 704l1 -145"/>
<path stroke="red" d="M477 704l0 -145M477 704l1 -144M478 704l0 -144M479 704l0 -143M479 704l1 -142M480 704l0 -142M480 704l1 -141M481 704l0 -141M482 704l0 -140M483 704l0 -139M483 704l1 -139M484 704l0 -139M485 704l0 -139M486 704l0 -138M486 704l1 -138"/>
<path stroke="red" d="M487 704l0 -138M488 704l0 -138M489 704l0 -138M489 704l1 -138M490 704l0 -138M491 704l0 -137M492 704l0 -138M492 704l1 -138M493 704l0 -138M493 704l1 -138M494 704l0 -138M495 704l0 -138M495 704l1 -138M496 704l0 -138M496 704l1 -138"/>
<path stroke="red" d="M497 704l0 -138M498 704l0 -139M498 704l1 -139M499 704l0 -139M499 704l1 -139M500 704l0 -139M501 704l0 -140M501 704l1 -140M502 704l0 -140M502 704l1 -140M503 704l0 -140M504 704l0 -141M505 704l0 -141M505 704l1 -141M506 704l0 -142"/>
<path stroke="red" d="M507 704l0 -142M508 704l0 -143M508 704l1 -143M509 704l0 -143M510 704l0 -144M511 704l0 -640M512 704l0 -640M513 704l0 -640M514 704l0 -640M515 704l0 -640M516 704l0 -640M517 704l0 -640M518 704l0 -640M519 704l0 -640M520 704l0 -640"/>
<path stroke="red" d="M521 704l0 -640M522 704l0 -640M523 704l0 -640M524 704l0 -640M525 704l0 -640M526 704l0 -640M527 704l0 -640M528 704l0 -640M529 704l0 -640M530 704l0 -640M531 704l0 -640M532 704l0 -640M533 704l0 -640M534 704l0 -640M535 704l0 -640"/>
<path stroke="red" d="M536 704l0 -640M537 704l0 -640M538 704l0 -640M539 704l0 -640M540 704l0 -640M541 704l0 -640M542 704l0 -640M543 704l0 -640M544 704l0 -640M545 704l0 -640M546 704l0 -640M547 704l0 -640M548 704l0 -640M549 704l0 -640M550 704l0 -640"/>
<path stroke="red" d="M551 704l0 -640M552 704l0 -640M553 704l0 -640M554 704l0 -640M555 704l0 -640M556 704l0 -640M557 704l0 -640M558 704l0 -640M559 704l0 -640M560 704l0 -640M561 704l0 -640M562 704l0 -640M563 704l0 -640M564 704l0 -640M565 704l0 -640"/>
<path stroke="red" d="M566 704l0 -640M567 704l0 -640M568 704l0 -640M569 704l0 -640M570 704l0 -640M571 704l0 -640M572 704l0 -640M573 704l0 -640M574 704l0 -640M575 704l0 -640M576 704l0 -640M577 704l0 -640M578 704l0 -640M579 704l0 -640M580 704l0 -640"/>
<path stroke="red" d="M581 704l0 -640M582 704l0 -640M583 704l0 -640M584 704l0 -640M585 704l0 -640M586 704l0 -640M587 704l0 -640M588 704l0 -640M589 704l0 -640M590 704l0 -640M591 704l0 -640M592 704l0 -640M593 704l0 -640M594 704l0 -640M595 704l0 -640"/>
<path stroke="red" d="M596 704l0 -640M597 704l0 -640M598 704l0 -640M599 704l0 -640M600 704l0 -640M601 704l0 -640M602 704l0 -640M603 704l0 -640M604 704l0 -640M605 704l0 -640M606 704l0 -640M607 704l0 -640M608 704l0 -640M609 704l0 -640M610 704l0 -640"/>
<path stroke="red" d="M611 704l0 -640M612 704l0 -640M613 704l0 -640M614 704l0 -640M615 704l0 -640M616 704l0 -640M617 704l0 -640M618 704l0 -640M619 704l0 -640M620 704l0 -640M621 704l0 -640M622 704l0 -640M623 704l0 -640M624 704l0 -640M625 704l0 -640"/>
<path stroke="red" d="M626 704l0 -640M627 704l0 -640M628 704l0 -640M629 704l0 -464M629 704l1 -305M630 704l0 -305M631 704l0 -128M631 704l1 -26M632 704l0 -153M633 704l0 -270M633 704l1 -293M634 704l0 -401M634 704l1 -423M635 704l0 -524M636 704l0 -637"/>
<path stroke="red" d="M637 704l0 -640M638 704l0 -640M639 704l0 -640M640 704l0 -640M641 704l0 -640M642 704l0 -640M643 704l0 -640M644 704l0 -640M645 704l0 -640M646 704l0 -640M647 704l0 -640M648 704l0 -640M649 704l0 -640M650 704l0 -640M651 704l0 -640"/>
<path stroke="red" d="M652 704l0 -640M653 704l0 -640M654 704l0 -640M655 704l0 -640M656 704l0 -640M657 704l0 -640M658 704l0 -640M659 704l0 -640M660 704l0 -640M661 704l0 -640M662 704l0 -640M663 704l0 -640M664 704l0 -640M665 704l0 -640M666 704l0 -640"/>
<path stroke="red" d="M667 704l0 -640M668 704l0 -640M669 704l0 -640M670 704l0 -640M671 704l0 -640M672 704l0 -640M673 704l0 -640M674 704l0 -640M675 704l0 -640M676 704l0 -640M677 704l0 -640M678 704l0 -640M679 704l0 -640M680 704l0 -640M681 704l0 -640"/>
<path stroke="red" d="M682 704l0 -640M683 704l0 -640M684 704l0 -640M685 704l0 -640M686 704l0 -640M687 704l0 -640M688 704l0 -640M689 704l0 -640M690 704l0 -640M691 704l0 -640M692 704l0 -640M693 704l0 -640M694 704l0 -640M695 704l0 -640M695 704l1 -270"/>
<path stroke="red" d="M696 704l0 -301M696 704l1 -417M697 704l0 -640M698 704l0 -640M699 704l0 -640M700 704l0 -640M701 704l0 -640M702 704l0 -640M703 704l0 -640M704 704l0 -640M705 704l0 -640M706 704l0 -640M707 704l0 -640M708 704l0 -640M709 704l0 -640"/>
<path stroke="red" d="M710 704l0 -640M711 704l0 -640M712 704l0 -640M713 704l0 -640M714 704l0 -640M715 704l0 -640M716 704l0 -640M717 704l0 -640M718 704l0 -640M719 704l0 -640M720 704l0 -640M721 704l0 -640M722 704l0 -640M723 704l0 -640M724 704l0 -640"/>
<path stroke="red" d="M725 704l0 -640M726 704l0 -640M727 704l0 -640M728 704l0 -640M729 704l0 -640M730 704l0 -640M731 704l0 -640M732 704l0 -640M733 704l0 -640M734 704l0 -640M735 704l0 -640M736 704l0 -640M737 704l0 -640M738 704l0 -640M739 704l0 -640"/>
<path stroke="red" d="M740 704l0 -640M741 704l0 -640M742 704l0 -640M743 704l0 -640M744 704l0 -640M745 704l0 -640M746 704l0 -640M747 704l0 -640M748 704l0 -640M749 704l0 -640M750 704l0 -640M751 704l0 -640M752 704l0 -640M753 704l0 -640M754 704l0 -640"/>
<path stroke="red" d="M755 704l0 -640M756 704l0 -640M757 704l0 -640M758 704l0 -640M759 704l0 -640M760 704l0 -640M761 704l0 -640M762 704l0 -640M763 704l0 -640M764 704l0 -640M765 704l0 -640M766 704l0 -640M767 704l0 -640M768 704l0 -640M769 704l0 -640"/>
<path stroke="red" d="M770 704l0 -640M771 704l0 -640M772 704l0 -640M773 704l0 -640M774 704l0 -640M775 704l0 -640M776 704l0 -640M777 704l0 -640M778 704l0 -640M779 704l0 -640M780 704l0 -640M781 704l0 -640M782 704l0 -640M783 704l0 -640M784 704l0 -640"/>
<path stroke="red" d="M785 704l0 -640M786 704l0 -640M787 704l0 -640M788 704l0 -640M789 704l0 -640M790 704l0 -640M791 704l0 -640M792 704l0 -640M793 704l0 -640M794 704l0 -640M795 704l0 -640M796 704l0 -640M797 704l0 -640M798 704l0 -640M799 704l0 -640"/>
<path stroke="red" d="M800 704l0 -640M801 704l0 -640M801 704l1 -595M802 704l0 -595M803 704l0 -512M803 704l1 -456M804 704l0 -456M804 704l1 -401M805 704l0 -401M806 704l0 -356M806 704l1 -325M807 704l0 -325M807 704l1 -295M808 704l0 -295M809 704l0 -271"/>
<path stroke="red" d="M809 704l1 -253M810 704l0 -253M810 704l1 -236M811 704l0 -236M812 704l0 -222M813 704l0 -210M813 704l1 -202M814 704l0 -202M815 704l0 -193M816 704l0 -185M816 704l1 -180M817 704l0 -180M818 704l0 -174M819 704l0 -170M819 704l1 -166"/>
<path stroke="red" d="M820 704l0 -166M821 704l0 -162M822 704l0 -159M822 704l1 -156M823 704l0 -156M823 704l1 -154M824 704l0 -154M825 704l0 -151M825 704l1 -150M826 704l0 -150M826 704l1 -148M827 704l0 -148M828 704l0 -146M828 704l1 -145M829 704l0 -145"/>
<path stroke="red" d="M829 704l1 -144M830 704l0 -144M831 704l0 -143M831 704l1 -142M832 704l0 -142M832 704l1 -141M833 704l0 -141M834 704l0 -140M835 704l0 -139M835 704l1 -139M836 704l0 -139M837 704l0 -139M838 704l0 -138M838 704l1 -138M839 704l0 -138"/>
<path stroke="red" d="M840 704l0 -138M841 704l0 -138M841 704l1 -138M842 704l0 -138M843 704l0 -137M844 704l0 -138M844 704l1 -138M845 704l0 -138M845 704l1 -138M846 704l0 -138M847 704l0 -138M847 704l1 -138M848 704l0 -138M848 704l1 -138M849 704l0 -138"/>
<path stroke="red" d="M850 704l0 -139M850 704l1 -139M851 704l0 -139M851 704l1 -139M852 704l0 -139M853 704l0 -140M853 704l1 -140M854 704l0 -140M854 704l1 -140M855 704l0 -140M856 704l0 -141M857 704l0 -141M857 704l1 -141M858 704l0 -142M859 704l0 -142"/>
<path stroke="red" d="M860 704l0 -143M860 704l1 -143M861 704l0 -143M862 704l0 -144M863 704l0 -640M864 704l0 -640M865 704l0 -640M866 704l0 -640M867 704l0 -640M868 704l0 -640M869 704l0 -640M870 704l0 -640M871 704l0 -640M872 704l0 -640M873 704l0 -640"/>
<path stroke="red" d="M874 704l0 -640M875 704l0 -640M876 704l0 -640M877 704l0 -640M878 704l0 -640M879 704l0 -640M880 704l0 -640M881 704l0 -640M882 704l0 -640M883 704l0 -640M884 704l0 -640M885 704l0 -640M886 704l0 -640M887 704l0 -640M888 704l0 -640"/>
<path stroke="red" d="M889 704l0 -640M890 704l0 -640M891 704l0 -640M892 704l0 -640M893 704l0 -640M894 704l0 -640M895 704l0 -640M896 704l0 -640M897 704l0 -640M898 704l0 -640M899 704l0 -640M900 704l0 -640M901 704l0 -640M902 704l0 -640M903 704l0 -640"/>
<path stroke="red" d="M904 704l0 -640M905 704l0 -640M906 704l0 -640M907 704l0 -640M908 704l0 -640M909 704l0 -640M910 704l0 -640M911 704l0 -640M912 704l0 -640M913 704l0 -640M914 704l0 -640M915 704l0 -640M916 704l0 -640M917 704l0 -640M918 704l0 -640"/>
<path stroke="red" d="M919 704l0 -640M920 704l0 -640M921 704l0 -640M922 704l0 -640M923 704l0 -640M924 704l0 -640M925 704l0 -640M926 704l0 -640M927 704l0 -640M928 704l0 -640M929 704l0 -640M930 704l0 -640M931 704l0 -640M932 704l0 -640M933 704l0 -640"/>
<path stroke="red" d="M934 704l0 -640M935 704l0 -640M936 704l0 -640M937 704l0 -640M938 704l0 -640M939 704l0 -640M940 704l0 -640M941 704l0 -640M942 704l0 -640M943 704l0 -640M944 704l0 -640M945 704l0 -640M946 704l0 -640M947 704l0 -640M948 704l0 -640"/>
<path stroke="red" d="M949 704l0 -640M950 704l0 -640"/>
</svg>
