<?xml version="1.0" standalone="yes"?>
<!DOCTYPE svg PUBLIC "-//W3C//DTD SVG 1.1//EN"
 "http://www.w3.org/Graphics/SVG/1.1/DTD/svg11.dtd">
<svg xmlns="http://www.w3.org/2000/svg" version="1.1"
  width="100%" height="100%" viewBox="0 0 1024 768"
  style="fill: none; stroke-width: 3; font-family: Helvetica;
 font: Helvetica;
">

<!-- Creator: NGspice -->

<rect x="0" y="0" width="1024" height="768" fill="white" stroke="none"/>
<text stroke="none" fill="black" font-size="16" x="358" y="752">
time
</text>
<text stroke="none" fill="black" font-size="16" x="10" y="16">
tran1: Verification: Physical vs Ideal Parity
</text>
<path stroke="black" stroke-width="3" d="M50 704l0 -639"/>
<text stroke="none" fill="black" font-size="16" x="35" y="728">
0.0
</text>
<path stroke="black" stroke-width="3" stroke-dasharray="1,2" d="M204 704l0 -639"/>
<text stroke="none" fill="black" font-size="16" x="189" y="728">
0.5
</text>
<path stroke="black" stroke-width="3" stroke-dasharray="1,2" d="M358 704l0 -639"/>
<text stroke="none" fill="black" font-size="16" x="343" y="728">
1.0
</text>
<path stroke="black" stroke-width="3" stroke-dasharray="1,2" d="M512 704l0 -639"/>
<text stroke="none" fill="black" font-size="16" x="497" y="728">
1.5
</text>
<path stroke="black" stroke-width="3" stroke-dasharray="1,2" d="M666 704l0 -639"/>
<text stroke="none" fill="black" font-size="16" x="651" y="728">
2.0
</text>
<path stroke="black" stroke-width="3" stroke-dasharray="1,2" d="M820 704l0 -639"/>
<text stroke="none" fill="black" font-size="16" x="805" y="728">
2.5
</text>
<path stroke="black" stroke-width="3" stroke-dasharray="1,2" d="M974 704l0 -639"/>
<text stroke="none" fill="black" font-size="16" x="959" y="728">
3.0
</text>
<text stroke="none" fill="black" font-size="16" x="614" y="752">
us
</text>
<path stroke="black" stroke-width="3" stroke-dasharray="1,2" d="M50 704l924 0"/>
<text stroke="none" fill="black" font-size="16" x="8" y="712">
-0.5
</text>
<path stroke="black" stroke-width="3" d="M50 633l924 0"/>
<text stroke="none" fill="black" font-size="16" x="18" y="641">
0.0
</text>
<path stroke="black" stroke-width="3" stroke-dasharray="1,2" d="M50 562l924 0"/>
<text stroke="none" fill="black" font-size="16" x="18" y="570">
0.5
</text>
<path stroke="black" stroke-width="3" stroke-dasharray="1,2" d="M50 491l924 0"/>
<text stroke="none" fill="black" font-size="16" x="18" y="499">
1.0
</text>
<path stroke="black" stroke-width="3" stroke-dasharray="1,2" d="M50 420l924 0"/>
<text stroke="none" fill="black" font-size="16" x="18" y="428">
1.5
</text>
<path stroke="black" stroke-width="3" stroke-dasharray="1,2" d="M50 349l924 0"/>
<text stroke="none" fill="black" font-size="16" x="18" y="357">
2.0
</text>
<path stroke="black" stroke-width="3" stroke-dasharray="1,2" d="M50 278l924 0"/>
<text stroke="none" fill="black" font-size="16" x="18" y="286">
2.5
</text>
<path stroke="black" stroke-width="3" stroke-dasharray="1,2" d="M50 207l924 0"/>
<text stroke="none" fill="black" font-size="16" x="18" y="215">
3.0
</text>
<path stroke="black" stroke-width="3" stroke-dasharray="1,2" d="M50 136l924 0"/>
<text stroke="none" fill="black" font-size="16" x="18" y="144">
3.5
</text>
<path stroke="black" stroke-width="3" stroke-dasharray="1,2" d="M50 65l924 0"/>
<text stroke="none" fill="black" font-size="16" x="18" y="73">
4.0
</text>
<text stroke="none" fill="black" font-size="16" x="10" y="32">
     
</text>
<path stroke="red" d="M462 23l46 0"/>
<text stroke="none" fill="black" font-size="16" x="518" y="32">
v(out_parity)
</text>
<path stroke="red" d="M50 633l2 0M52 644l0 -268M52 377l1 0M53 639l0 -275M53 381l1 -5M54 378l0 -2M54 377l1 0M55 633l0 -274M55 633l1 0M56 637l0 -268M56 377l2 0M58 639l0 -275M58 633l1 0M59 644l0 -268M59 377l1 0M60 643l0 -289M60 633l1 0M61 644l0 -272"/>
<path stroke="red" d="M61 377l1 0M62 638l0 -275M62 632l1 1M63 644l0 -267 1 0M64 639l0 -275M64 633l2 0M66 644l0 -290M66 633l1 0M67 644l0 -272M67 377l2 0M69 636l0 -280M69 633l1 0M70 644l0 -268M70 377l2 0M72 639l0 -275M72 377l1 0M73 633l0 -274M73 633l2 0"/>
<path stroke="red" d="M75 639l0 -268M75 377l1 0M76 645l0 -277M76 633l2 0M78 643l0 -281M78 633l1 0M79 636l0 -267M79 377l2 0M81 634l0 -275M81 633l1 0M82 643l0 -270M82 378l1 -1M83 378l0 -1 1 0M84 645l0 -277M84 377l2 0M86 640l0 -274M86 633l1 0M87 647l0 -277"/>
<path stroke="red" d="M87 633l2 0M89 643l0 -270M89 377l1 0M90 645l0 -277M90 377l2 0M92 640l0 -274M92 633l1 0M93 637l0 -268M93 377l2 0M95 645l0 -277M95 633l1 0M96 643l0 -270M96 377l1 0M97 636l0 -274M97 633l1 0M98 636l0 -267M98 377l1 0M99 637l0 -274"/>
<path stroke="red" d="M99 633l1 0M100 643l0 -266 1 0M101 645l0 -277M101 633l1 0M102 643l0 -270 1 6M103 635l0 -273M103 633l1 0M104 636l0 -267M104 377l2 0M106 634l0 -275M106 633l1 0M107 643l0 -270M107 377l2 0M109 645l0 -277M109 377l1 0M110 640l0 -274"/>
<path stroke="red" d="M110 633l2 0M112 647l0 -277M112 633l1 0M113 643l0 -270M113 377l2 0M115 645l0 -277M115 377l1 0M116 640l0 -274M116 633l2 0M118 637l0 -268M118 377l1 0M119 645l0 -277M119 634l1 -1 1 0M121 643l0 -281M121 633l2 0M123 636l0 -267"/>
<path stroke="red" d="M123 377l1 0M124 639l0 -284M124 633l2 0M126 644l0 -268M126 377l1 0M127 639l0 -275M127 377l2 0M129 633l0 -274M129 633l1 0M130 637l0 -268M130 377l2 0M132 639l0 -275M132 633l1 0M133 644l0 -268M133 377l1 0M134 643l0 -289M134 633l1 0"/>
<path stroke="red" d="M135 644l0 -272M135 377l1 0M136 638l0 -275M136 633l1 0M137 644l0 -267 1 0M138 639l0 -275M138 633l1 0M139 644l0 -268M139 377l1 0M140 643l0 -289M140 633l1 0M141 644l0 -272M141 377l2 0M143 636l0 -280M143 633l1 0M144 644l0 -268"/>
<path stroke="red" d="M144 377l2 0M146 639l0 -275M146 377l1 0M147 633l0 -274M147 633l2 0M149 644l0 -270M149 377l1 0M150 645l0 -277M150 633l2 0M152 643l0 -281M152 633l1 0M153 636l0 -267M153 377l2 0M155 634l0 -275M155 633l1 0M156 643l0 -270M156 377l2 0"/>
<path stroke="red" d="M158 645l0 -277M158 377l1 0M159 640l0 -274M159 637l1 -7M160 635l0 -5M160 633l1 0M161 647l0 -277M161 633l2 0M163 643l0 -270M163 377l1 0M164 645l0 -277M164 377l2 0M166 640l0 -274M166 633l1 0M167 637l0 -268M167 377l2 0M169 645l0 -277"/>
<path stroke="red" d="M169 633l1 0M170 643l0 -270M170 377l1 0M171 636l0 -274M171 633l1 0M172 636l0 -267M172 377l1 0M173 637l0 -275M173 633l2 0M175 644l0 -268M175 377l1 0M176 639l0 -275M176 633l1 0M177 636l0 -267M177 377l1 0M178 633l0 -274M178 633l1 0"/>
<path stroke="red" d="M179 637l0 -268M179 381l1 -5M180 378l0 -2M180 377l1 0M181 639l0 -275M181 633l2 0M183 644l0 -290M183 633l1 0M184 644l0 -272M184 377l2 0M186 644l0 -281M186 377l1 0M187 639l0 -275M187 633l2 0M189 644l0 -290M189 633l1 0M190 644l0 -272"/>
<path stroke="red" d="M190 377l2 0M192 636l0 -280M192 633l1 0M193 644l0 -268M193 377l2 0M195 639l0 -275M195 377l1 0M196 633l0 -274M196 633l2 0M198 647l0 -289M198 633l1 0M199 644l0 -11M199 644l1 -159 0 -109M200 377l1 0M201 639l0 -275M201 377l2 0"/>
<path stroke="red" d="M203 633l0 -274M203 633l1 0M204 637l0 -268M204 377l2 0M206 639l0 -275M206 633l1 0M207 644l0 -290M207 643l1 -18M208 638l0 -13M208 633l1 0M209 644l0 -272M209 377l1 0M210 638l0 -275M210 633l1 0M211 644l0 -267 1 0M212 639l0 -275"/>
<path stroke="red" d="M212 633l1 0M213 644l0 -268M213 377l1 0M214 643l0 -289M214 633l1 0M215 644l0 -272M215 377l1 0M216 636l0 -280M216 632l1 1 1 0M218 644l0 -268M218 377l2 0M220 639l0 -275M220 377l1 0M221 633l0 -274M221 633l2 0M223 642l0 -267"/>
<path stroke="red" d="M223 377l1 0M224 645l0 -277M224 633l2 0M226 643l0 -281M226 633l1 0M227 636l0 -267M227 377l2 0M229 634l0 -275M229 633l1 0M230 643l0 -270M230 377l2 0M232 645l0 -277M232 377l1 0M233 640l0 -274M233 633l2 0M235 647l0 -277M235 633l1 0"/>
<path stroke="red" d="M236 643l0 -270M236 378l1 -1M237 378l0 -1 1 0M238 645l0 -277M238 377l2 0M240 640l0 -274M240 633l1 0M241 637l0 -268M241 377l2 0M243 645l0 -277M243 633l1 0M244 643l0 -281M244 633l2 0M246 636l0 -267M246 377l1 0M247 635l0 -274"/>
<path stroke="red" d="M247 633l1 0M248 638l0 -269M248 377l1 0M249 645l0 -277M249 633l1 0M250 643l0 -270M250 377l1 0M251 635l0 -273M251 633l1 0M252 636l0 -267M252 377l1 0M253 634l0 -275M253 633l2 0M255 643l0 -270M255 377l1 0M256 645l0 -277M256 645l1 -21"/>
<path stroke="red" d="M257 640l0 -269M257 377l1 0M258 640l0 -274M258 633l2 0M260 647l0 -277M260 633l1 0M261 643l0 -270M261 377l2 0M263 645l0 -277M263 377l1 0M264 640l0 -274M264 633l2 0M266 637l0 -268M266 377l1 0M267 645l0 -277M267 633l2 0M269 643l0 -281"/>
<path stroke="red" d="M269 633l1 0M270 636l0 -267M270 377l2 0M272 637l0 -275M272 633l1 0M273 644l0 -268M273 377l2 0M275 639l0 -275M275 377l1 0M276 378l0 -1M276 378l1 -1M277 633l0 -274M277 633l1 0M278 637l0 -268M278 377l2 0M280 639l0 -275M280 633l1 0"/>
<path stroke="red" d="M281 644l0 -290M281 633l2 0M283 644l0 -272M283 377l1 0M284 644l0 -281M284 377l1 1 0 -1 1 0M286 639l0 -275M286 633l1 0M287 644l0 -268M287 377l1 0M288 643l0 -289M288 633l1 0M289 644l0 -272M289 377l1 0M290 636l0 -280M290 633l2 0"/>
<path stroke="red" d="M292 644l0 -268M292 377l1 0M293 639l0 -275M293 634l1 -2M294 636l0 -267M294 377l1 0M295 633l0 -274M295 633l2 0M297 647l0 -289M297 633l1 0M298 644l0 -268M298 377l2 0M300 639l0 -275M300 377l1 0M301 633l0 -274M301 633l2 0M303 637l0 -268"/>
<path stroke="red" d="M303 377l1 0M304 639l0 -275M304 633l2 0M306 644l0 -290M306 633l1 0M307 644l0 -272M307 377l2 0M309 644l0 -281M309 377l1 0M310 639l0 -275M310 633l2 0M312 644l0 -290M312 633l1 0M313 644l0 -272M313 378l1 -1M314 378l0 -1 1 0"/>
<path stroke="red" d="M315 636l0 -280M315 633l2 0M317 644l0 -268M317 377l1 0M318 639l0 -275M318 377l2 0M320 633l0 -274M320 633l1 0M321 642l0 -267M321 377l2 0M323 645l0 -277M323 633l1 0M324 643l0 -270M324 377l1 0M325 635l0 -273M325 633l1 0M326 636l0 -267"/>
<path stroke="red" d="M326 377l1 0M327 634l0 -275M327 633l2 0M329 643l0 -270M329 377l1 0M330 645l0 -277M330 633l1 0M331 639l0 -268M331 377l1 0M332 640l0 -274M332 633l1 0M333 643l0 -271M333 379l1 -2M334 647l0 -277M334 633l1 0M335 643l0 -270M335 377l2 0"/>
<path stroke="red" d="M337 645l0 -277M337 377l1 0M338 640l0 -274M338 633l2 0M340 637l0 -268M340 377l1 0M341 645l0 -277M341 633l2 0M343 643l0 -281M343 633l1 0M344 636l0 -267M344 377l2 0M346 644l0 -290M346 633l1 0M347 644l0 -268M347 377l2 0M349 639l0 -275"/>
<path stroke="red" d="M349 377l1 0M350 633l0 -274M350 633l2 0M352 637l0 -268M352 377l1 0M353 378l0 -1M353 378l1 -14M354 639l0 -275M354 633l1 0M355 644l0 -290M355 633l2 0M357 644l0 -272M357 377l1 0M358 644l0 -281M358 377l2 0M360 639l0 -275M360 633l1 0"/>
<path stroke="red" d="M361 644l0 -290M361 643l1 -18M362 638l0 -13M362 633l1 0M363 644l0 -272M363 377l1 0M364 636l0 -280M364 633l2 0M366 644l0 -268M366 377l1 0M367 639l0 -275M367 633l1 0M368 636l0 -267M368 377l1 0M369 633l0 -274M369 633l1 0M370 639l0 -268"/>
<path stroke="red" d="M370 377l2 0M372 645l0 -277M372 633l2 0M374 643l0 -281M374 633l1 0M375 636l0 -267M375 377l2 0M377 634l0 -275M377 633l1 0M378 643l0 -270M378 377l2 0M380 645l0 -277M380 377l1 0M381 640l0 -274M381 633l2 0M383 647l0 -277M383 633l1 0"/>
<path stroke="red" d="M384 643l0 -270M384 377l2 0M386 645l0 -277M386 377l1 0M387 640l0 -274M387 633l2 0M389 637l0 -268M389 377l1 0M390 645l0 -277M390 637l1 -7M391 635l0 -5M391 633l1 0M392 643l0 -281M392 633l2 0M394 636l0 -267M394 377l1 0M395 643l0 -280"/>
<path stroke="red" d="M395 377l2 0M397 645l0 -277M397 633l1 0M398 643l0 -281M398 633l2 0M400 636l0 -267M400 377l1 0M401 634l0 -275M401 633l2 0M403 643l0 -270M403 377l1 0M404 645l0 -277M404 633l1 0M405 639l0 -268M405 377l1 0M406 640l0 -274M406 633l1 0"/>
<path stroke="red" d="M407 643l0 -271M407 377l1 0M408 647l0 -277M408 633l1 0M409 643l0 -270M409 377l1 0M410 645l0 -277M410 645l1 -21M411 640l0 -269M411 377l1 0M412 640l0 -274M412 633l2 0M414 637l0 -268M414 377l1 0M415 645l0 -277M415 633l2 0M417 643l0 -281"/>
<path stroke="red" d="M417 633l1 0M418 636l0 -267M418 377l2 0M420 639l0 -284M420 633l1 0M421 644l0 -268M421 377l2 0M423 639l0 -275M423 377l1 0M424 633l0 -274M424 633l2 0M426 637l0 -268M426 377l1 0M427 639l0 -275M427 633l2 0M429 644l0 -290M429 633l1 0"/>
<path stroke="red" d="M430 633l1 2M431 644l0 -272M431 377l1 0M432 644l0 -281M432 377l2 0M434 639l0 -275M434 633l1 0M435 644l0 -290M435 633l2 0M437 644l0 -272M437 377l1 0M438 636l0 -280M438 633l2 0M440 644l0 -268M440 377l1 0M441 639l0 -275M441 633l1 0"/>
<path stroke="red" d="M442 636l0 -267M442 377l1 0M443 633l0 -274M443 633l3 0M446 644l0 -268M446 377l1 0M447 639l0 -275M447 634l1 -2M448 636l0 -267M448 377l1 0M449 633l0 -274M449 633l2 0M451 637l0 -268M451 377l1 0M452 639l0 -275M452 633l2 0M454 644l0 -290"/>
<path stroke="red" d="M454 633l1 0M455 644l0 -272M455 377l2 0M457 644l0 -281M457 377l1 0M458 639l0 -275M458 633l2 0M460 644l0 -290M460 633l1 0M461 644l0 -272M461 377l2 0M463 636l0 -280M463 633l1 0M464 644l0 -268M464 377l2 0M466 639l0 -275M466 377l1 0"/>
<path stroke="red" d="M467 633l0 -274M467 633l2 0M469 639l0 -268M469 377l2 0M471 645l0 -277M471 633l1 0M472 643l0 -281M472 633l2 0M474 636l0 -267M474 377l1 0M475 634l0 -275M475 633l2 0M477 643l0 -270M477 377l1 0M478 645l0 -277M478 633l1 0M479 639l0 -268"/>
<path stroke="red" d="M479 377l1 0M480 640l0 -274M480 633l1 0M481 643l0 -271M481 377l1 0M482 647l0 -277M482 633l1 0M483 643l0 -270M483 377l1 0M484 645l0 -277M484 633l1 0M485 639l0 -268M485 377l1 0M486 640l0 -274M486 633l1 0M487 637l0 -268 1 12"/>
<path stroke="red" d="M488 381l0 -5M488 377l1 0M489 645l0 -277M489 633l2 0M491 643l0 -281M491 633l1 0M492 636l0 -267M492 377l2 0M494 643l0 -280M494 377l1 0M495 645l0 -277M495 633l2 0M497 643l0 -281M497 633l1 0M498 636l0 -267M498 377l2 0M500 634l0 -275"/>
<path stroke="red" d="M500 633l1 0M501 643l0 -270M501 377l2 0M503 645l0 -277M503 377l1 0M504 640l0 -274M504 634l1 -2M505 633l0 -1M505 633l1 0M506 647l0 -277M506 633l1 0 1 2M508 643l0 -270M508 377l1 0M509 645l0 -277M509 377l2 0M511 640l0 -274"/>
<path stroke="red" d="M511 633l1 0M512 637l0 -268M512 377l2 0M514 645l0 -277M514 633l1 0M515 643l0 -281M515 636l1 -5M516 634l0 -3M516 633l1 0M517 636l0 -267M517 377l1 0M518 639l0 -284M518 633l2 0M520 644l0 -268M520 377l1 0M521 639l0 -275M521 633l1 0"/>
<path stroke="red" d="M522 636l0 -267M522 377l1 0M523 633l0 -274M523 633l1 0M524 637l0 -268M524 377l2 0M526 639l0 -275M526 633l2 0M528 644l0 -290M528 633l1 0M529 644l0 -272M529 377l2 0M531 644l0 -281M531 377l1 0M532 639l0 -275M532 633l2 0M534 644l0 -290"/>
<path stroke="red" d="M534 633l1 0M535 644l0 -272M535 377l2 0M537 636l0 -280M537 633l1 0M538 644l0 -268M538 377l2 0M540 639l0 -275M540 377l1 0M541 633l0 -274M541 633l2 0M543 644l0 -270M543 377l1 0M544 645l0 -277M544 637l1 -7M545 635l0 -5M545 633l1 0"/>
<path stroke="red" d="M546 643l0 -281M546 633l2 0M548 636l0 -267M548 377l1 0M549 634l0 -275M549 633l2 0M551 643l0 -270M551 377l1 0M552 645l0 -277M552 377l2 0M554 640l0 -274M554 633l1 0M555 643l0 -271M555 378l1 -1M556 647l0 -277M556 633l1 0M557 643l0 -270"/>
<path stroke="red" d="M557 377l1 0M558 645l0 -277M558 633l1 0M559 639l0 -268M559 377l1 0M560 640l0 -274M560 633l1 0M561 637l0 -268M561 377l2 0M563 645l0 -277M563 633l1 0M564 643l0 -270 1 6M565 636l0 -274M565 633l1 0M566 636l0 -267M566 377l2 0"/>
<path stroke="red" d="M568 637l0 -275M568 633l1 0M569 644l0 -268M569 377l2 0M571 639l0 -275M571 377l1 0M572 633l0 -274M572 633l2 0M574 637l0 -268M574 377l1 0M575 639l0 -275M575 633l2 0M577 644l0 -290M577 633l1 0M578 644l0 -272M578 377l2 0M580 644l0 -281"/>
<path stroke="red" d="M580 377l1 0M581 639l0 -275M581 633l2 0M583 644l0 -290M583 633l1 0 1 2M585 644l0 -272M585 377l1 0M586 636l0 -280M586 633l2 0M588 644l0 -268M588 377l1 0M589 639l0 -275M589 377l2 0M591 633l0 -274M591 633l1 0M592 647l0 -289"/>
<path stroke="red" d="M592 622l1 19 0 -14M593 633l1 0M594 644l0 -268M594 377l1 0M595 639l0 -275M595 633l1 0M596 636l0 -267M596 377l1 0M597 633l0 -274M597 633l1 0M598 637l0 -268M598 377l2 0M600 639l0 -275M600 633l1 0M601 644l0 -268M601 377l1 0"/>
<path stroke="red" d="M602 643l0 -289M602 633l1 0M603 644l0 -272M603 377l1 0 1 1M605 644l0 -281M605 377l1 0M606 639l0 -275M606 633l2 0M608 644l0 -290M608 633l1 0M609 644l0 -272M609 377l2 0M611 636l0 -280M611 633l1 0M612 644l0 -268M612 377l2 0"/>
<path stroke="red" d="M614 639l0 -275M614 377l1 0M615 633l0 -274M615 633l2 0M617 642l0 -267M617 377l1 0M618 645l0 -277M618 633l2 0M620 643l0 -281M620 633l1 0M621 636l0 -267M621 376l1 2 0 -1 1 0M623 634l0 -275M623 633l2 0M625 643l0 -270M625 377l1 0"/>
<path stroke="red" d="M626 645l0 -277M626 377l2 0M628 640l0 -274M628 633l1 0M629 647l0 -277M629 631l1 3 0 -2M630 633l1 0M631 643l0 -270M631 377l1 0M632 645l0 -277M632 633l1 0M633 639l0 -268M633 377l1 0M634 640l0 -274M634 633l1 0M635 637l0 -268"/>
<path stroke="red" d="M635 377l2 0M637 645l0 -277M637 633l1 0M638 643l0 -270M638 377l1 0M639 636l0 -274M639 633l1 0M640 636l0 -267M640 377l1 0M641 635l0 -274M641 634l1 -2M642 638l0 -269M642 377l1 0M643 645l0 -277M643 633l2 0M645 643l0 -281M645 633l1 0"/>
<path stroke="red" d="M646 636l0 -267M646 377l2 0M648 634l0 -275M648 633l1 0M649 643l0 -270M649 377l2 0M651 645l0 -277M651 377l1 0M652 640l0 -274M652 633l2 0M654 647l0 -277M654 633l1 0M655 643l0 -270M655 377l2 0M657 645l0 -277M657 377l1 0M658 640l0 -274"/>
<path stroke="red" d="M658 634l1 -2M659 633l0 -1M659 633l1 0M660 637l0 -268M660 377l1 0M661 378l0 -10 1 20M662 645l0 -257M662 633l1 0M663 643l0 -281M663 633l2 0M665 636l0 -267M665 377l1 0M666 637l0 -275M666 633l2 0M668 644l0 -268M668 377l1 0"/>
<path stroke="red" d="M669 639l0 -275M669 381l1 -5M670 378l0 -2M670 377l1 0M671 633l0 -274M671 633l1 0M672 637l0 -268M672 377l2 0M674 639l0 -275M674 633l1 0M675 644l0 -268M675 377l1 0M676 643l0 -289M676 633l1 0M677 644l0 -272M677 377l1 0M678 638l0 -275"/>
<path stroke="red" d="M678 632l1 1M679 644l0 -267 1 0M680 639l0 -275M680 633l2 0M682 644l0 -290M682 633l1 0M683 644l0 -272M683 377l2 0M685 636l0 -280M685 633l1 0M686 644l0 -268M686 377l2 0M688 639l0 -275M688 377l1 0M689 633l0 -274M689 633l2 0"/>
<path stroke="red" d="M691 647l0 -289M691 633l1 0M692 644l0 -268M692 377l2 0M694 639l0 -275M694 377l1 0M695 633l0 -274M695 633l2 0M697 637l0 -268M697 377l1 0M698 639l0 -275M698 631l1 4 0 -3M699 633l1 0M700 644l0 -290M700 633l2 0M702 644l0 -272"/>
<path stroke="red" d="M702 377l1 0M703 644l0 -281M703 377l2 0M705 639l0 -275M705 633l1 0M706 644l0 -290M706 632l1 2 0 -2M707 633l1 0M708 644l0 -272M708 377l1 0M709 636l0 -280M709 633l2 0M711 644l0 -268M711 377l1 0M712 639l0 -275M712 633l1 0M713 636l0 -267"/>
<path stroke="red" d="M713 377l1 0M714 633l0 -274M714 633l1 0M715 642l0 -267M715 377l2 0M717 645l0 -277M717 633l1 0M718 643l0 -270 1 6M719 635l0 -273M719 633l1 0M720 636l0 -267M720 377l2 0M722 634l0 -275M722 633l1 0M723 643l0 -270M723 377l2 0"/>
<path stroke="red" d="M725 645l0 -277M725 377l1 0M726 640l0 -274M726 633l2 0M728 647l0 -277M728 633l1 0M729 643l0 -270M729 377l2 0M731 645l0 -277M731 377l1 0M732 640l0 -274M732 633l2 0M734 637l0 -268M734 377l1 0M735 645l0 -277M735 634l1 -1 1 0"/>
<path stroke="red" d="M737 643l0 -281M737 633l2 0M739 636l0 -267M739 377l1 0M740 644l0 -290M740 633l2 0M742 644l0 -268M742 377l1 0M743 639l0 -275M743 377l2 0M745 633l0 -274M745 633l1 0M746 637l0 -268M746 377l2 0M748 639l0 -275M748 633l1 0M749 644l0 -268"/>
<path stroke="red" d="M749 377l1 0M750 643l0 -289M750 633l1 0M751 644l0 -272M751 377l1 0M752 638l0 -275M752 633l1 0M753 644l0 -267 1 0M754 639l0 -275M754 633l1 0M755 644l0 -268M755 377l1 0M756 643l0 -289M756 633l1 0M757 644l0 -272M757 377l2 0"/>
<path stroke="red" d="M759 636l0 -280M759 633l1 0M760 644l0 -268M760 377l2 0M762 639l0 -275M762 377l1 0M763 633l0 -274M763 633l2 0M765 639l0 -268M765 377l1 0M766 645l0 -277M766 633l2 0M768 643l0 -281M768 633l1 0M769 636l0 -267M769 377l2 0M771 634l0 -275"/>
<path stroke="red" d="M771 633l1 0M772 643l0 -270M772 377l2 0M774 645l0 -277M774 377l1 0M775 640l0 -274M775 637l1 -7M776 635l0 -5M776 633l1 0M777 647l0 -277M777 633l2 0M779 643l0 -270M779 377l1 0M780 645l0 -277M780 377l2 0M782 640l0 -274M782 633l1 0"/>
<path stroke="red" d="M783 637l0 -268M783 377l2 0M785 645l0 -277M785 633l1 0M786 643l0 -270M786 377l1 0M787 636l0 -274M787 633l1 0M788 636l0 -267M788 377l1 0M789 637l0 -274M789 633l1 0M790 643l0 -266 1 0M791 645l0 -277M791 633l1 0M792 643l0 -270"/>
<path stroke="red" d="M792 377l1 0M793 635l0 -273M793 633l1 0M794 636l0 -267M794 377l1 0M795 634l0 -275M795 632l1 2 0 -2M796 633l1 0M797 643l0 -270M797 377l2 0M799 645l0 -277M799 377l1 0M800 640l0 -274M800 633l2 0M802 647l0 -277M802 633l1 0M803 643l0 -270"/>
<path stroke="red" d="M803 377l2 0M805 645l0 -277M805 377l1 0M806 640l0 -274M806 633l2 0M808 637l0 -268M808 377l1 0M809 645l0 -277M809 633l2 0M811 643l0 -281M811 633l1 0M812 636l0 -267M812 377l2 0M814 639l0 -284M814 633l1 0M815 644l0 -11M815 644l1 -159"/>
<path stroke="red" d="M816 485l0 -109M816 377l1 0M817 639l0 -275M817 377l2 0M819 633l0 -274M819 633l1 0M820 637l0 -268M820 377l2 0M822 639l0 -275M822 633l1 0M823 644l0 -290M823 643l1 -18M824 638l0 -13M824 633l1 0M825 644l0 -272M825 377l1 0M826 638l0 -275"/>
<path stroke="red" d="M826 633l1 0M827 644l0 -267 1 0M828 639l0 -275M828 633l1 0M829 644l0 -268M829 377l1 0M830 643l0 -289M830 633l1 0M831 644l0 -272M831 377l1 0M832 636l0 -280M832 632l1 1 1 0M834 644l0 -268M834 377l2 0M836 639l0 -275M836 377l1 0"/>
<path stroke="red" d="M837 633l0 -274M837 633l3 0M840 644l0 -268M840 377l2 0M842 639l0 -275M842 377l1 0M843 633l0 -274M843 633l2 0M845 637l0 -268M845 377l1 0M846 639l0 -275M846 633l2 0M848 644l0 -290M848 633l1 0M849 644l0 -272M849 377l2 0M851 644l0 -281"/>
<path stroke="red" d="M851 377l1 0M852 639l0 -275M852 631l1 4 0 -3M853 633l1 0M854 644l0 -290M854 633l2 0M856 644l0 -272M856 377l1 0M857 636l0 -280M857 633l2 0M859 644l0 -268M859 377l1 0M860 639l0 -275M860 377l2 0M862 633l0 -274M862 633l1 0M863 639l0 -268"/>
<path stroke="red" d="M863 377l2 0M865 645l0 -277M865 633l1 0M866 643l0 -270M866 377l1 0M867 635l0 -273M867 633l1 0M868 636l0 -267M868 377l1 0M869 634l0 -275M869 633l2 0M871 643l0 -270M871 377l1 0M872 645l0 -277M872 645l1 -21M873 640l0 -269M873 377l1 0"/>
<path stroke="red" d="M874 640l0 -274M874 633l2 0M876 647l0 -277M876 633l1 0M877 643l0 -270M877 377l2 0M879 645l0 -277M879 377l1 0M880 640l0 -274M880 633l2 0M882 637l0 -268M882 377l1 0M883 645l0 -277M883 633l2 0M885 643l0 -281M885 633l1 0M886 636l0 -267"/>
<path stroke="red" d="M886 377l2 0M888 643l0 -280M888 377l1 0M889 645l0 -277M889 634l1 -1 1 0M891 643l0 -281M891 633l2 0M893 636l0 -267M893 377l1 0M894 634l0 -275M894 633l2 0M896 643l0 -270M896 377l1 0M897 645l0 -277M897 377l2 0M899 640l0 -274"/>
<path stroke="red" d="M899 633l1 0M900 647l0 -277M900 647l1 -25M901 641l0 -19M901 633l1 0M902 643l0 -270M902 377l1 0M903 645l0 -277M903 633l1 0M904 639l0 -268M904 377l1 0M905 640l0 -274M905 633l1 0M906 637l0 -268M906 377l2 0M908 645l0 -277M908 633l1 0"/>
<path stroke="red" d="M909 643l0 -270M909 377l1 0M910 636l0 -274M910 633l1 0M911 636l0 -267M911 377l1 0 1 1M913 639l0 -284M913 633l1 0M914 644l0 -268M914 377l2 0M916 639l0 -275M916 377l1 0M917 633l0 -274M917 633l2 0M919 637l0 -268M919 377l1 0"/>
<path stroke="red" d="M920 639l0 -275M920 633l2 0M922 644l0 -290M922 633l1 0M923 644l0 -272M923 377l2 0M925 644l0 -281M925 377l1 0M926 639l0 -275M926 633l2 0M928 644l0 -290M928 633l1 0M929 644l0 -272M929 378l1 -1M930 378l0 -1 1 0M931 636l0 -280"/>
<path stroke="red" d="M931 633l2 0M933 644l0 -268M933 377l1 0M934 639l0 -275M934 377l2 0M936 633l0 -274M936 633l1 0M937 644l0 -270M937 377l2 0M939 645l0 -277M939 633l1 0M940 643l0 -270M940 377l1 0M941 635l0 -273M941 633l1 0M942 636l0 -267M942 377l1 0"/>
<path stroke="red" d="M943 634l0 -275M943 633l2 0M945 643l0 -270M945 377l1 0M946 645l0 -277M946 633l1 0M947 639l0 -268M947 377l1 0M948 640l0 -274M948 633l1 0M949 643l0 -271M949 379l1 -2M950 647l0 -277M950 633l1 0M951 643l0 -270M951 377l2 0M953 645l0 -277"/>
<path stroke="red" d="M953 377l1 0M954 640l0 -274M954 633l2 0M956 637l0 -268M956 377l1 0M957 645l0 -277M957 633l2 0M959 643l0 -281M959 633l1 0M960 636l0 -267M960 377l2 0M962 637l0 -275M962 633l1 0M963 644l0 -268M963 377l2 0M965 639l0 -275M965 377l1 0"/>
<path stroke="red" d="M966 633l0 -274M966 633l2 0M968 637l0 -268M968 377l1 0M969 378l0 -1M969 378l1 -14M970 639l0 -275M970 633l1 0M971 644l0 -290M971 633l2 0M973 644l0 -272M973 377l1 0"/>
<path stroke="blue" d="M50 23l46 0"/>
<text stroke="none" fill="black" font-size="16" x="106" y="32">
ideal_parity
</text>
<path stroke="blue" d="M50 633l0 -307M50 531l2 0M52 595l0 -437M52 480l1 0M53 618l0 -420M53 480l2 0M55 618l0 -420M55 429l1 0M56 618l0 -471M56 480l2 0M58 618l0 -420M58 429l1 0M59 567l0 -420M59 377l1 0M60 567l0 -420M60 429l1 0M61 567l0 -420M61 377l1 0"/>
<path stroke="blue" d="M62 607l0 -419M62 326l1 0M63 480l0 -347M63 480l1 0M64 618l0 -420M64 429l1 0M65 567l0 -420M65 377l1 0M66 567l0 -420M66 429l1 0M67 567l0 -420M67 377l2 0M69 607l0 -419M69 429l1 0M70 567l0 -420M70 377l2 0M72 607l0 -419M72 377l1 0"/>
<path stroke="blue" d="M73 607l0 -419M73 326l2 0M75 556l0 -419M75 480l1 0M76 618l0 -420M76 429l2 0M78 567l0 -420M78 429l1 0M79 567l0 -420M79 377l2 0M81 607l0 -419M81 429l1 0M82 567l0 -420M82 377l2 0M84 607l0 -419M84 377l1 0M85 607l0 -419M85 326l2 0"/>
<path stroke="blue" d="M87 607l0 -483M87 429l2 0M89 567l0 -420M89 377l1 0M90 607l0 -419M90 377l2 0M92 607l0 -419M92 326l1 0M93 556l0 -419M93 377l2 0M95 607l0 -419M95 326l1 0M96 556l0 -419M96 275l1 0M97 556l0 -419M97 326l1 0M98 556l0 -419M98 275l1 0"/>
<path stroke="blue" d="M99 597l0 -442M99 224l1 0M100 607l0 -460M100 480l1 0M101 618l0 -420M101 429l1 0M102 567l0 -420M102 377l1 0M103 567l0 -420M103 429l1 0M104 567l0 -420M104 377l1 0M105 607l0 -419M105 257l1 69M106 567l0 -374M106 429l1 0M107 567l0 -420"/>
<path stroke="blue" d="M107 377l2 0M109 607l0 -419M109 377l1 0M110 607l0 -419M110 326l2 0M112 607l0 -483M112 429l1 0M113 567l0 -420M113 377l2 0M115 607l0 -419M115 377l1 0M116 607l0 -419M116 326l2 0M118 556l0 -419M118 377l1 0M119 607l0 -419M119 326l2 0"/>
<path stroke="blue" d="M121 556l0 -419M121 326l1 0M122 556l0 -419M122 275l2 0M124 625l0 -470M124 429l1 0M125 493l0 -64M125 493l1 74 0 -420M126 377l1 0M127 607l0 -419M127 377l2 0M129 607l0 -419M129 326l1 0M130 556l0 -419M130 377l2 0M132 607l0 -419"/>
<path stroke="blue" d="M132 326l1 0M133 556l0 -419M133 326l2 0M135 556l0 -419M135 275l1 0M136 597l0 -442M136 224l1 0M137 584l0 -443M137 377l1 0M138 607l0 -419M138 326l1 0M139 556l0 -419M139 275l1 0M140 556l0 -419M140 326l1 0M141 556l0 -419M141 275l1 0"/>
<path stroke="blue" d="M142 597l0 -442M142 224l1 0M143 606l0 -437M143 326l1 0M144 556l0 -419M144 275l2 0M146 597l0 -442M146 275l1 0M147 597l0 -442M147 224l2 0M149 629l0 -456M149 480l1 0M150 618l0 -420M150 429l2 0M152 567l0 -420M152 429l1 0M153 567l0 -420"/>
<path stroke="blue" d="M153 377l2 0M155 607l0 -419M155 429l1 0M156 567l0 -420M156 377l2 0M158 607l0 -419M158 377l1 0M159 607l0 -419M159 326l2 0M161 607l0 -483M161 429l1 0M162 567l0 -420M162 377l2 0M164 607l0 -419M164 377l2 0M166 607l0 -419M166 326l1 0"/>
<path stroke="blue" d="M167 556l0 -419M167 377l2 0M169 607l0 -419M169 326l1 0M170 556l0 -419M170 326l2 0M172 556l0 -419M172 275l1 0M173 597l0 -442M173 224l1 0M174 625l0 -442M174 429l1 0M175 567l0 -420M175 377l1 0M176 607l0 -419M176 326l1 0M177 607l0 -419"/>
<path stroke="blue" d="M177 377l1 0M178 607l0 -419M178 326l1 0M179 556l0 -419M179 275l1 0M180 515l0 -373M180 377l1 0M181 607l0 -419M181 326l1 0M182 556l0 -419M182 206l1 69M183 556l0 -419M183 326l1 0M184 556l0 -419M184 275l2 0M186 597l0 -456M186 377l1 0"/>
<path stroke="blue" d="M187 607l0 -419M187 326l2 0M189 556l0 -419M189 326l1 0M190 556l0 -419M190 275l2 0M192 606l0 -451M192 326l1 0M193 556l0 -419M193 275l2 0M195 597l0 -442M195 275l1 0M196 597l0 -442M196 224l2 0M198 615l0 -488M198 429l1 0M199 567l0 -420"/>
<path stroke="blue" d="M199 377l2 0M201 607l0 -419M201 377l1 0M202 442l0 -65M202 442l1 73M203 607l0 -419M203 326l1 0M204 556l0 -419M204 377l2 0M206 607l0 -419M206 326l1 0M207 556l0 -419M207 326l2 0M209 556l0 -419M209 275l1 0M210 597l0 -456M210 377l2 0"/>
<path stroke="blue" d="M212 607l0 -419M212 326l1 0M213 556l0 -419M213 275l1 0M214 556l0 -419M214 326l1 0M215 556l0 -419M215 275l1 0M216 597l0 -442M216 224l1 0M217 606l0 -437M217 326l1 0M218 556l0 -419M218 275l1 0M219 597l0 -442M219 224l1 0M220 597l0 -437"/>
<path stroke="blue" d="M220 275l1 0M221 597l0 -442M221 224l2 0M223 615l0 -483M223 377l1 0M224 607l0 -419M224 326l2 0M226 556l0 -419M226 326l1 0M227 556l0 -419M227 275l2 0M229 606l0 -451M229 326l1 0M230 556l0 -419M230 275l2 0M232 597l0 -442M232 275l1 0"/>
<path stroke="blue" d="M233 597l0 -442M233 224l2 0M235 615l0 -470M235 326l1 0M236 556l0 -419M236 275l2 0M238 597l0 -442M238 275l1 0M239 597l0 -442M239 224l2 0M241 629l0 -474M241 275l2 0M243 597l0 -442M243 224l1 0M244 620l0 -475M244 224l2 0M246 615l0 -442"/>
<path stroke="blue" d="M246 173l1 0M247 633l0 -460M247 480l2 0M249 618l0 -420M249 429l1 0M250 567l0 -420M250 377l1 0M251 567l0 -420M251 429l1 0M252 567l0 -420M252 377l1 0M253 607l0 -419M253 326l1 0M254 567l0 -374M254 429l1 0M255 567l0 -420M255 377l1 0"/>
<path stroke="blue" d="M256 607l0 -419M256 326l1 0M257 607l0 -419M257 377l1 0M258 607l0 -419M258 326l1 0M259 556l0 -419M259 206l1 69M260 607l0 -483M260 429l1 0M261 567l0 -420M261 377l2 0M263 607l0 -419M263 377l1 0M264 607l0 -419M264 326l2 0M266 556l0 -419"/>
<path stroke="blue" d="M266 377l1 0M267 607l0 -419M267 326l2 0M269 556l0 -419M269 326l1 0M270 556l0 -419M270 275l2 0M272 625l0 -470M272 429l1 0M273 567l0 -420M273 377l2 0M275 607l0 -419M275 377l1 0M276 607l0 -419M276 326l2 0M278 556l0 -419M278 377l1 0"/>
<path stroke="blue" d="M279 442l0 -65M279 442l1 73M280 607l0 -419M280 326l1 0M281 556l0 -419M281 326l2 0M283 556l0 -419M283 275l1 0M284 597l0 -456M284 377l2 0M286 607l0 -419M286 326l1 0M287 556l0 -419M287 326l2 0M289 556l0 -419M289 275l1 0M290 597l0 -442"/>
<path stroke="blue" d="M290 224l1 0M291 606l0 -437M291 326l1 0M292 556l0 -419M292 275l1 0M293 597l0 -442M293 224l1 0M294 597l0 -437M294 275l1 0M295 597l0 -442M295 224l1 0M296 615l0 -442 1 0M297 607l0 -480M297 429l1 0M298 567l0 -420M298 377l2 0"/>
<path stroke="blue" d="M300 607l0 -419M300 377l1 0M301 607l0 -419M301 326l2 0M303 556l0 -419M303 377l1 0M304 607l0 -419M304 326l2 0M306 556l0 -419M306 326l1 0M307 556l0 -419M307 275l2 0M309 597l0 -456M309 377l1 0M310 607l0 -419M310 326l2 0M312 556l0 -419"/>
<path stroke="blue" d="M312 326l1 0M313 556l0 -419M313 275l2 0M315 606l0 -451M315 326l1 0M316 556l0 -419M316 275l2 0M318 597l0 -442M318 275l2 0M320 597l0 -442M320 224l1 0M321 615l0 -483M321 377l2 0M323 607l0 -419M323 326l1 0M324 556l0 -419M324 326l2 0"/>
<path stroke="blue" d="M326 556l0 -419M326 275l1 0M327 597l0 -442M327 224l1 0M328 606l0 -437M328 326l1 0M329 556l0 -419M329 275l1 0M330 597l0 -442M330 224l1 0M331 597l0 -437M331 275l1 0M332 597l0 -442M332 224l1 0M333 615l0 -442 1 0M334 601l0 -456"/>
<path stroke="blue" d="M334 326l1 0M335 556l0 -419M335 275l1 0M336 597l0 -442 1 69M337 597l0 -437M337 275l1 0M338 597l0 -442M338 224l2 0M340 629l0 -474M340 275l1 0M341 597l0 -442M341 224l2 0M343 620l0 -475M343 224l1 0M344 615l0 -442 2 0M346 633l0 -460"/>
<path stroke="blue" d="M346 429l1 0M347 567l0 -420M347 377l2 0M349 607l0 -419M349 377l1 0M350 607l0 -419M350 326l2 0M352 556l0 -419M352 377l1 0M353 607l0 -419M353 326l2 0M355 556l0 -419M355 326l1 0M356 391l0 -65M356 391l1 73M357 556l0 -419M357 275l1 0"/>
<path stroke="blue" d="M358 597l0 -456M358 377l2 0M360 607l0 -419M360 326l1 0M361 556l0 -419M361 326l2 0M363 556l0 -419M363 275l1 0M364 606l0 -451M364 326l2 0M366 556l0 -419M366 275l1 0M367 597l0 -442M367 224l1 0M368 597l0 -437M368 275l1 0M369 597l0 -442"/>
<path stroke="blue" d="M369 224l1 0M370 615l0 -442 1 0M371 574l0 -442M371 377l1 0M372 607l0 -419M372 326l1 0M373 556l0 -419M373 275l1 0M374 556l0 -419M374 326l1 0M375 556l0 -419M375 275l2 0M377 606l0 -451M377 326l1 0M378 556l0 -419M378 275l2 0"/>
<path stroke="blue" d="M380 597l0 -442M380 275l1 0M381 597l0 -442M381 224l2 0M383 615l0 -470M383 326l1 0M384 556l0 -419M384 275l2 0M386 597l0 -442M386 275l1 0M387 597l0 -442M387 224l2 0M389 629l0 -474M389 275l1 0M390 597l0 -442M390 224l2 0M392 620l0 -475"/>
<path stroke="blue" d="M392 224l1 0M393 615l0 -442 2 0M395 633l0 -460M395 377l2 0M397 607l0 -419M397 326l1 0M398 556l0 -419M398 326l2 0M400 556l0 -419M400 275l1 0M401 606l0 -451M401 326l2 0M403 556l0 -419M403 275l1 0M404 597l0 -442M404 224l1 0"/>
<path stroke="blue" d="M405 597l0 -437M405 275l1 0M406 597l0 -442M406 224l1 0M407 615l0 -442 1 0M408 601l0 -456M408 326l1 0M409 556l0 -419M409 275l1 0M410 597l0 -442M410 224l1 0M411 597l0 -437M411 275l1 0M412 597l0 -442M412 224l1 0M413 615l0 -391"/>
<path stroke="blue" d="M413 615l1 -442M414 629l0 -474M414 275l1 0M415 597l0 -442M415 224l2 0M417 620l0 -475M417 224l1 0M418 615l0 -442 2 0M420 633l0 -460M420 326l1 0M421 556l0 -419M421 275l2 0M423 597l0 -442M423 275l1 0M424 597l0 -442M424 224l2 0"/>
<path stroke="blue" d="M426 629l0 -474M426 275l1 0M427 597l0 -442M427 224l2 0M429 620l0 -475M429 224l1 0M430 615l0 -442 2 0M432 633l0 -460M432 275l1 0M433 340l0 -65M433 340l1 73M434 597l0 -442M434 224l1 0M435 620l0 -475M435 224l2 0M437 615l0 -442"/>
<path stroke="blue" d="M437 173l1 0M438 633l0 -460M438 224l2 0M440 615l0 -442 1 0M441 633l0 -460 2 0M443 633l0 -460M443 633l2 0 0 -307M445 531l1 0M446 595l0 -437M446 480l1 0M447 618l0 -420M447 429l1 0M448 618l0 -420M448 480l1 0M449 618l0 -420"/>
<path stroke="blue" d="M449 429l1 0M450 567l0 -420M450 377l1 0M451 618l0 -374M451 480l1 0M452 618l0 -420M452 429l2 0M454 567l0 -420M454 429l1 0M455 567l0 -420M455 377l2 0M457 607l0 -474M457 480l1 0M458 618l0 -420M458 429l2 0M460 567l0 -420M460 429l1 0"/>
<path stroke="blue" d="M461 567l0 -420M461 377l2 0M463 607l0 -419M463 429l1 0M464 567l0 -420M464 377l2 0M466 607l0 -419M466 377l1 0M467 607l0 -419M467 326l2 0M469 556l0 -419M469 480l1 0M470 618l0 -420M470 429l2 0M472 567l0 -420M472 429l2 0M474 567l0 -420"/>
<path stroke="blue" d="M474 377l1 0M475 607l0 -419M475 429l2 0M477 567l0 -420M477 377l1 0M478 607l0 -419M478 377l2 0M480 607l0 -419M480 326l1 0M481 556l0 -419M481 275l1 0M482 607l0 -483M482 429l1 0M483 567l0 -420M483 377l1 0M484 607l0 -419M484 326l1 0"/>
<path stroke="blue" d="M485 607l0 -419M485 377l1 0M486 607l0 -419M486 326l1 0M487 556l0 -419M487 275l1 0M488 515l0 -373M488 377l1 0M489 607l0 -419M489 326l1 0M490 556l0 -419M490 206l1 69M491 556l0 -419M491 326l1 0M492 556l0 -419M492 275l2 0M494 607l0 -460"/>
<path stroke="blue" d="M494 480l1 0M495 618l0 -420M495 429l2 0M497 567l0 -420M497 429l1 0M498 567l0 -420M498 377l2 0M500 607l0 -419M500 429l1 0M501 567l0 -420M501 377l2 0M503 607l0 -419M503 377l1 0M504 607l0 -419M504 326l2 0M506 607l0 -483M506 429l1 0"/>
<path stroke="blue" d="M507 567l0 -420M507 377l2 0M509 607l0 -419M509 377l1 0M510 442l0 -65M510 442l1 73M511 607l0 -419M511 326l1 0M512 556l0 -419M512 377l2 0M514 607l0 -419M514 326l1 0M515 556l0 -419M515 326l2 0M517 556l0 -419M517 275l1 0M518 625l0 -470"/>
<path stroke="blue" d="M518 429l2 0M520 567l0 -420M520 377l1 0M521 607l0 -419M521 326l1 0M522 607l0 -419M522 377l1 0M523 607l0 -419M523 326l1 0M524 556l0 -419M524 275l1 0M525 515l0 -373M525 377l1 0M526 607l0 -419M526 326l1 0M527 556l0 -419M527 275l1 0"/>
<path stroke="blue" d="M528 556l0 -419M528 326l1 0M529 556l0 -419M529 275l2 0M531 597l0 -456M531 377l1 0M532 607l0 -419M532 326l2 0M534 556l0 -419M534 326l1 0M535 556l0 -419M535 275l2 0M537 606l0 -451M537 326l1 0M538 556l0 -419M538 275l2 0M540 597l0 -442"/>
<path stroke="blue" d="M540 275l1 0M541 597l0 -442M541 224l2 0M543 629l0 -456M543 480l1 0M544 618l0 -420M544 429l2 0M546 567l0 -420M546 429l1 0M547 567l0 -420M547 377l2 0M549 607l0 -419M549 429l2 0M551 567l0 -420M551 377l1 0M552 607l0 -419M552 377l2 0"/>
<path stroke="blue" d="M554 607l0 -419M554 326l1 0M555 607l0 -483M555 429l2 0M557 567l0 -420M557 377l1 0M558 607l0 -419M558 326l1 0M559 607l0 -419M559 377l1 0M560 607l0 -419M560 326l1 0M561 556l0 -419M561 275l1 0M562 515l0 -373M562 377l1 0M563 607l0 -419"/>
<path stroke="blue" d="M563 326l1 0M564 556l0 -419M564 275l1 0M565 556l0 -419M565 326l1 0M566 556l0 -419M566 275l1 0M567 597l0 -442 1 69M568 625l0 -442M568 429l1 0M569 567l0 -420M569 377l2 0M571 607l0 -419M571 377l1 0M572 607l0 -419M572 326l2 0"/>
<path stroke="blue" d="M574 556l0 -419M574 377l1 0M575 607l0 -419M575 326l2 0M577 556l0 -419M577 326l1 0M578 556l0 -419M578 275l2 0M580 597l0 -456M580 377l1 0M581 607l0 -419M581 326l2 0M583 556l0 -419M583 326l1 0M584 556l0 -419M584 275l2 0M586 606l0 -451"/>
<path stroke="blue" d="M586 326l1 0M587 391l0 -65M587 391l1 73M588 556l0 -419M588 275l1 0M589 597l0 -442M589 275l2 0M591 597l0 -442M591 224l1 0M592 615l0 -488M592 429l2 0M594 567l0 -420M594 377l1 0M595 607l0 -419M595 377l2 0M597 607l0 -419M597 326l1 0"/>
<path stroke="blue" d="M598 556l0 -419M598 275l1 0M599 515l0 -373M599 377l1 0M600 607l0 -419M600 326l1 0M601 556l0 -419M601 275l1 0M602 556l0 -419M602 326l1 0M603 556l0 -419M603 275l1 0M604 597l0 -442M604 224l1 0M605 584l0 -443M605 377l1 0M606 607l0 -419"/>
<path stroke="blue" d="M606 326l2 0M608 556l0 -419M608 326l1 0M609 556l0 -419M609 275l2 0M611 606l0 -451M611 326l1 0M612 556l0 -419M612 275l2 0M614 597l0 -442M614 275l1 0M615 597l0 -442M615 224l2 0M617 615l0 -483M617 377l1 0M618 607l0 -419M618 326l2 0"/>
<path stroke="blue" d="M620 556l0 -419M620 326l1 0M621 556l0 -419M621 275l2 0M623 606l0 -451M623 326l1 0M624 556l0 -419M624 275l2 0M626 597l0 -442M626 275l2 0M628 597l0 -442M628 224l1 0M629 615l0 -470M629 326l2 0M631 556l0 -419M631 275l1 0M632 597l0 -442"/>
<path stroke="blue" d="M632 275l2 0M634 597l0 -442M634 224l1 0M635 615l0 -442 1 0M636 629l0 -474M636 275l1 0M637 597l0 -442M637 224l1 0M638 615l0 -442 1 0M639 620l0 -475M639 224l1 0M640 615l0 -442 1 0M641 633l0 -460M641 633l1 0 0 -455M642 480l1 0"/>
<path stroke="blue" d="M643 618l0 -420M643 429l1 0M644 567l0 -420M644 308l1 69M645 567l0 -420M645 429l1 0M646 567l0 -420M646 377l2 0M648 607l0 -419M648 429l1 0M649 567l0 -420M649 377l2 0M651 607l0 -419M651 377l1 0M652 607l0 -419M652 326l2 0M654 607l0 -483"/>
<path stroke="blue" d="M654 429l1 0M655 567l0 -420M655 377l2 0M657 607l0 -419M657 377l1 0M658 607l0 -419M658 326l2 0M660 556l0 -419M660 377l1 0M661 607l0 -419M661 326l2 0M663 556l0 -419M663 326l1 0M664 391l0 -65M664 391l1 73M665 556l0 -419M665 275l1 0"/>
<path stroke="blue" d="M666 625l0 -470M666 429l2 0M668 567l0 -420M668 377l1 0M669 607l0 -419M669 377l2 0M671 607l0 -419M671 326l1 0M672 556l0 -419M672 377l2 0M674 607l0 -419M674 326l1 0M675 556l0 -419M675 275l1 0M676 556l0 -419M676 326l1 0M677 556l0 -419"/>
<path stroke="blue" d="M677 275l1 0M678 597l0 -442M678 224l1 0M679 584l0 -443M679 377l1 0M680 607l0 -419M680 326l1 0M681 556l0 -419M681 275l1 0M682 556l0 -419M682 326l1 0M683 556l0 -419M683 275l2 0M685 606l0 -451M685 326l1 0M686 556l0 -419M686 275l2 0"/>
<path stroke="blue" d="M688 597l0 -442M688 275l1 0M689 597l0 -442M689 224l2 0M691 615l0 -488M691 429l1 0M692 567l0 -420M692 377l2 0M694 607l0 -419M694 377l1 0M695 607l0 -419M695 326l2 0M697 556l0 -419M697 377l1 0M698 607l0 -419M698 326l2 0M700 556l0 -419"/>
<path stroke="blue" d="M700 326l1 0M701 556l0 -419M701 275l2 0M703 597l0 -456M703 377l2 0M705 607l0 -419M705 326l1 0M706 556l0 -419M706 326l2 0M708 556l0 -419M708 275l1 0M709 606l0 -451M709 326l2 0M711 556l0 -419M711 275l1 0M712 597l0 -442M712 224l1 0"/>
<path stroke="blue" d="M713 597l0 -437M713 275l1 0M714 597l0 -442M714 224l1 0M715 615l0 -442 1 0M716 574l0 -442M716 377l1 0M717 607l0 -419M717 326l1 0M718 556l0 -419M718 275l1 0M719 556l0 -419M719 326l1 0M720 556l0 -419M720 275l1 0M721 597l0 -442"/>
<path stroke="blue" d="M721 155l1 69M722 606l0 -437M722 326l1 0M723 556l0 -419M723 275l2 0M725 597l0 -442M725 275l1 0M726 597l0 -442M726 224l2 0M728 615l0 -470M728 326l1 0M729 556l0 -419M729 275l2 0M731 597l0 -442M731 275l1 0M732 597l0 -442M732 224l2 0"/>
<path stroke="blue" d="M734 629l0 -474M734 275l1 0M735 597l0 -442M735 224l2 0M737 620l0 -475M737 224l1 0M738 615l0 -442 2 0M740 633l0 -460M740 429l1 0M741 493l0 -64M741 493l1 74 0 -420M742 377l1 0M743 607l0 -419M743 377l2 0M745 607l0 -419M745 326l1 0"/>
<path stroke="blue" d="M746 556l0 -419M746 377l2 0M748 607l0 -419M748 326l1 0M749 556l0 -419M749 326l2 0M751 556l0 -419M751 275l1 0M752 597l0 -442M752 224l1 0M753 584l0 -443M753 377l1 0M754 607l0 -419M754 326l1 0M755 556l0 -419M755 275l1 0M756 556l0 -419"/>
<path stroke="blue" d="M756 326l1 0M757 556l0 -419M757 275l1 0M758 597l0 -442M758 224l1 0M759 606l0 -437M759 326l1 0M760 556l0 -419M760 275l2 0M762 597l0 -442M762 275l1 0M763 597l0 -442M763 224l2 0M765 615l0 -483M765 377l1 0M766 607l0 -419M766 326l2 0"/>
<path stroke="blue" d="M768 556l0 -419M768 326l1 0M769 556l0 -419M769 275l2 0M771 606l0 -451M771 326l1 0M772 556l0 -419M772 275l2 0M774 597l0 -442M774 275l1 0M775 597l0 -442M775 224l2 0M777 615l0 -470M777 326l1 0M778 556l0 -419M778 275l2 0M780 597l0 -442"/>
<path stroke="blue" d="M780 275l2 0M782 597l0 -442M782 224l1 0M783 629l0 -474M783 275l2 0M785 597l0 -442M785 224l1 0M786 620l0 -475M786 224l2 0M788 615l0 -442 1 0M789 633l0 -460M789 633l1 0 0 -422M790 377l1 0M791 607l0 -419M791 326l1 0M792 556l0 -419"/>
<path stroke="blue" d="M792 275l1 0M793 556l0 -419M793 326l1 0M794 556l0 -419M794 275l1 0M795 597l0 -442M795 224l1 0M796 606l0 -437M796 326l1 0M797 556l0 -419M797 275l1 0M798 597l0 -442 1 69M799 597l0 -437M799 275l1 0M800 597l0 -442M800 224l2 0"/>
<path stroke="blue" d="M802 615l0 -470M802 326l1 0M803 556l0 -419M803 275l2 0M805 597l0 -442M805 275l1 0M806 597l0 -442M806 224l2 0M808 629l0 -474M808 275l1 0M809 597l0 -442M809 224l2 0M811 620l0 -475M811 224l1 0M812 615l0 -442 2 0M814 633l0 -460"/>
<path stroke="blue" d="M814 326l1 0M815 556l0 -419M815 275l2 0M817 597l0 -442M817 275l1 0M818 340l0 -65M818 340l1 73M819 597l0 -442M819 224l1 0M820 629l0 -474M820 275l2 0M822 597l0 -442M822 224l1 0M823 620l0 -475M823 224l2 0M825 615l0 -442 1 0"/>
<path stroke="blue" d="M826 633l0 -460M826 275l2 0M828 597l0 -442M828 224l1 0M829 615l0 -442 1 0M830 620l0 -475M830 224l1 0M831 615l0 -442 1 0M832 633l0 -460M832 633l1 0 0 -460M833 224l1 0M834 615l0 -442 1 0M835 633l0 -460M835 633l1 0 0 -460"/>
<path stroke="blue" d="M836 173l1 0M837 633l0 -460M837 633l2 0 0 -307M839 531l1 0M840 595l0 -437M840 480l2 0M842 618l0 -420M842 480l1 0M843 618l0 -420M843 429l2 0M845 618l0 -471M845 480l1 0M846 618l0 -420M846 429l2 0M848 567l0 -420M848 429l1 0"/>
<path stroke="blue" d="M849 567l0 -420M849 377l2 0M851 607l0 -474M851 480l1 0M852 618l0 -420M852 429l2 0M854 567l0 -420M854 429l1 0M855 567l0 -420M855 377l2 0M857 607l0 -419M857 429l2 0M859 567l0 -420M859 377l1 0M860 607l0 -419M860 377l2 0M862 607l0 -419"/>
<path stroke="blue" d="M862 326l1 0M863 556l0 -419M863 480l2 0M865 618l0 -420M865 429l1 0M866 567l0 -420M866 377l1 0M867 567l0 -420M867 429l1 0M868 567l0 -420M868 377l1 0M869 607l0 -419M869 326l1 0M870 567l0 -374M870 429l1 0M871 567l0 -420M871 377l1 0"/>
<path stroke="blue" d="M872 607l0 -419M872 326l1 0M873 607l0 -419M873 377l1 0M874 607l0 -419M874 326l1 0M875 556l0 -419M875 206l1 69M876 607l0 -483M876 429l1 0M877 567l0 -420M877 377l2 0M879 607l0 -419M879 377l1 0M880 607l0 -419M880 326l2 0M882 556l0 -419"/>
<path stroke="blue" d="M882 377l1 0M883 607l0 -419M883 326l2 0M885 556l0 -419M885 326l1 0M886 556l0 -419M886 275l2 0M888 607l0 -460M888 480l1 0M889 618l0 -420M889 429l2 0M891 567l0 -420M891 429l1 0M892 567l0 -420M892 377l2 0M894 607l0 -419M894 429l1 0"/>
<path stroke="blue" d="M895 493l0 -64M895 493l1 74 0 -420M896 377l1 0M897 607l0 -419M897 377l2 0M899 607l0 -419M899 326l1 0M900 607l0 -483M900 429l2 0M902 567l0 -420M902 377l1 0M903 607l0 -419M903 377l2 0M905 607l0 -419M905 326l1 0M906 556l0 -419"/>
<path stroke="blue" d="M906 275l1 0M907 515l0 -373M907 377l1 0M908 607l0 -419M908 326l1 0M909 556l0 -419M909 275l1 0M910 556l0 -419M910 326l1 0M911 556l0 -419M911 275l1 0M912 597l0 -442M912 224l1 0M913 625l0 -442M913 429l1 0M914 567l0 -420M914 377l2 0"/>
<path stroke="blue" d="M916 607l0 -419M916 377l1 0M917 607l0 -419M917 326l2 0M919 556l0 -419M919 377l1 0M920 607l0 -419M920 326l2 0M922 556l0 -419M922 326l1 0M923 556l0 -419M923 275l2 0M925 597l0 -456M925 377l1 0M926 607l0 -419M926 326l2 0M928 556l0 -419"/>
<path stroke="blue" d="M928 326l1 0M929 556l0 -419M929 275l2 0M931 606l0 -451M931 326l1 0M932 556l0 -419M932 275l2 0M934 597l0 -442M934 275l2 0M936 597l0 -442M936 224l1 0M937 629l0 -456M937 480l2 0M939 618l0 -420M939 429l1 0M940 567l0 -420M940 429l2 0"/>
<path stroke="blue" d="M942 567l0 -420M942 377l1 0M943 607l0 -419M943 326l1 0M944 567l0 -374M944 429l1 0M945 567l0 -420M945 377l1 0M946 607l0 -419M946 326l1 0M947 607l0 -419M947 377l1 0M948 607l0 -419M948 326l1 0M949 556l0 -419M949 275l1 0M950 607l0 -483"/>
<path stroke="blue" d="M950 429l1 0M951 567l0 -420M951 377l1 0M952 607l0 -419M952 257l1 69M953 607l0 -419M953 377l1 0M954 607l0 -419M954 326l2 0M956 556l0 -419M956 377l1 0M957 607l0 -419M957 326l2 0M959 556l0 -419M959 326l1 0M960 556l0 -419M960 275l2 0"/>
<path stroke="blue" d="M962 625l0 -470M962 429l1 0M963 567l0 -420M963 377l2 0M965 607l0 -419M965 377l1 0M966 607l0 -419M966 326l2 0M968 556l0 -419M968 377l1 0M969 607l0 -419M969 326l2 0M971 556l0 -419M971 326l1 0M972 391l0 -65M972 391l1 73M973 556l0 -419"/>
<path stroke="blue" d="M973 275l1 0"/>
</svg>
