<?xml version="1.0" standalone="yes"?>
<!DOCTYPE svg PUBLIC "-//W3C//DTD SVG 1.1//EN"
 "http://www.w3.org/Graphics/SVG/1.1/DTD/svg11.dtd">
<svg xmlns="http://www.w3.org/2000/svg" version="1.1"
  width="100%" height="100%" viewBox="0 0 1024 768"
  style="fill: none; stroke-width: 3; font-family: Helvetica;
 font: Helvetica;
">

<!-- Creator: NGspice -->

<rect x="0" y="0" width="1024" height="768" fill="white" stroke="none"/>
<text stroke="none" fill="black" font-size="16" x="358" y="752">
time
</text>
<text stroke="none" fill="black" font-size="16" x="10" y="16">
tran1: Total Supply Current
</text>
<path stroke="black" stroke-width="3" d="M70 704l0 -637"/>
<text stroke="none" fill="black" font-size="16" x="55" y="728">
0.0
</text>
<path stroke="black" stroke-width="3" stroke-dasharray="1,2" d="M217 704l0 -637"/>
<text stroke="none" fill="black" font-size="16" x="202" y="728">
0.5
</text>
<path stroke="black" stroke-width="3" stroke-dasharray="1,2" d="M364 704l0 -637"/>
<text stroke="none" fill="black" font-size="16" x="349" y="728">
1.0
</text>
<path stroke="black" stroke-width="3" stroke-dasharray="1,2" d="M511 704l0 -637"/>
<text stroke="none" fill="black" font-size="16" x="496" y="728">
1.5
</text>
<path stroke="black" stroke-width="3" stroke-dasharray="1,2" d="M658 704l0 -637"/>
<text stroke="none" fill="black" font-size="16" x="643" y="728">
2.0
</text>
<path stroke="black" stroke-width="3" stroke-dasharray="1,2" d="M805 704l0 -637"/>
<text stroke="none" fill="black" font-size="16" x="790" y="728">
2.5
</text>
<path stroke="black" stroke-width="3" stroke-dasharray="1,2" d="M952 704l0 -637"/>
<text stroke="none" fill="black" font-size="16" x="937" y="728">
3.0
</text>
<text stroke="none" fill="black" font-size="16" x="614" y="752">
us
</text>
<path stroke="black" stroke-width="3" stroke-dasharray="1,2" d="M70 704l882 0"/>
<text stroke="none" fill="black" font-size="16" x="8" y="712">
-800.0
</text>
<path stroke="black" stroke-width="3" stroke-dasharray="1,2" d="M70 613l882 0"/>
<text stroke="none" fill="black" font-size="16" x="8" y="621">
-600.0
</text>
<path stroke="black" stroke-width="3" stroke-dasharray="1,2" d="M70 522l882 0"/>
<text stroke="none" fill="black" font-size="16" x="8" y="530">
-400.0
</text>
<path stroke="black" stroke-width="3" stroke-dasharray="1,2" d="M70 431l882 0"/>
<text stroke="none" fill="black" font-size="16" x="8" y="439">
-200.0
</text>
<path stroke="black" stroke-width="3" d="M70 340l882 0"/>
<text stroke="none" fill="black" font-size="16" x="38" y="348">
0.0
</text>
<path stroke="black" stroke-width="3" stroke-dasharray="1,2" d="M70 249l882 0"/>
<text stroke="none" fill="black" font-size="16" x="18" y="257">
200.0
</text>
<path stroke="black" stroke-width="3" stroke-dasharray="1,2" d="M70 158l882 0"/>
<text stroke="none" fill="black" font-size="16" x="18" y="166">
400.0
</text>
<path stroke="black" stroke-width="3" stroke-dasharray="1,2" d="M70 67l882 0"/>
<text stroke="none" fill="black" font-size="16" x="18" y="75">
600.0
</text>
<text stroke="none" fill="black" font-size="16" x="10" y="32">
uA
</text>
<path stroke="red" d="M441 23l44 0"/>
<text stroke="none" fill="black" font-size="16" x="495" y="32">
-i(v_supply)
</text>
<path stroke="red" d="M70 699l0 -582M70 339l1 2 0 -31 1 1M72 351l0 -155M72 338l1 4M73 461l0 -290M73 345l1 -10M74 347l0 -171M74 239l1 30M75 352l0 -131M75 347l1 -14M76 429l0 -255M76 340l1 0M77 350l0 -157M77 350l1 -22M78 355l0 -30M78 345l1 -10M79 458l0 -278"/>
<path stroke="red" d="M79 362l1 -44M80 362l0 -187M80 339l1 2 0 -2 1 2M82 465l0 -270M82 339l1 2M83 355l0 -162M83 354l1 -28M84 354l0 -28M84 344l1 -8M85 458l0 -278M85 361l1 -42M86 361l0 -186M86 339l1 2 0 -2 1 2M88 430l0 -257M88 340l1 0M89 351l0 -155"/>
<path stroke="red" d="M89 348l1 -16M90 348l0 -16M90 340l1 0M91 461l0 -290M91 334l1 12M92 352l0 -176M92 350l1 -20M93 350l0 -20M93 346l1 -12M94 520l0 -324M94 340l1 0M95 384l0 -212M95 322l1 36 0 -66 1 10M97 461l0 -282M97 340l1 0M98 349l0 -173M98 335l1 10"/>
<path stroke="red" d="M99 345l0 -134 1 -14M100 429l0 -232M100 340l1 0M101 346l0 -153M101 342l1 -4M102 366l0 -175M102 354l1 -26M103 458l0 -256M103 328l1 24M104 359l0 -184M104 331l1 18M105 350l0 -146M105 331l1 17M106 466l0 -278M106 327l1 26 0 -160"/>
<path stroke="red" d="M107 339l1 2M108 366l0 -175M108 334l1 12M109 458l0 -256M109 351l1 -22M110 359l0 -184M110 349l1 -18M111 430l0 -257M111 338l1 1M112 340l0 -1M112 340l1 0M113 384l0 -212M113 355l1 -30M114 461l0 -281M114 341l1 -6M115 342l0 -7"/>
<path stroke="red" d="M115 341l1 -2M116 349l0 -173M116 342l1 -4M117 555l0 -378M117 328l1 24 0 -24M118 332l1 16M119 384l0 -212M119 354l1 -28M120 461l0 -282M120 339l1 2 0 -85 1 -32M122 349l0 -173M122 338l1 4M123 429l0 -232M123 340l1 0 0 -147M124 309l1 -39"/>
<path stroke="red" d="M125 346l0 -109M125 339l1 2M126 458l0 -267M126 325l1 30M127 359l0 -184M127 329l1 21 0 -20 1 20M129 466l0 -278M129 326l1 28 0 -161M130 345l1 -10M131 345l0 -10M131 339l1 2M132 458l0 -267M132 326l1 28M133 359l0 -184M133 333l1 14"/>
<path stroke="red" d="M134 350l0 -20 1 20M135 430l0 -257M135 340l1 0M136 384l0 -212M136 360l1 -40M137 360l0 -40M137 352l1 -24M138 461l0 -281M138 340l1 0M139 349l0 -173M139 347l1 -13M140 346l0 -12M140 340l1 0M141 520l0 -344M141 340l1 0M142 351l0 -155"/>
<path stroke="red" d="M142 347l1 -14M143 347l0 -14M143 340l1 0M144 461l0 -290M144 334l1 12M145 352l0 -176M145 331l1 18 0 -73M146 296l1 -6M147 429l0 -255M147 340l1 0M148 355l0 -162M148 350l1 -20M149 350l0 -170M149 240l1 -9M150 458l0 -253M150 359l1 -38"/>
<path stroke="red" d="M151 359l0 -184M151 341l1 -2M152 352l0 -148M152 352l1 -24M153 465l0 -270M153 340l1 0M154 355l0 -162M154 332l1 16 0 -168M155 334l1 12M156 458l0 -253M156 322l1 36 0 -183M157 341l1 -2M158 425l0 -252M158 425l1 5 0 -146M159 340l1 0"/>
<path stroke="red" d="M160 351l0 -155M160 337l1 6M161 461l0 -279M161 227l1 -56M162 346l0 -175M162 346l1 -12M163 352l0 -176M163 347l1 -14M164 608l0 -433M164 339l1 2 0 -2M165 340l1 0M166 384l0 -212M166 354l1 -28M167 461l0 -282M167 339l1 2 0 -2"/>
<path stroke="red" d="M168 341l1 -2M169 349l0 -173M169 342l1 -4M170 429l0 -232M170 340l1 0 0 -99 1 -48M172 346l0 -153M172 341l1 -2M173 458l0 -267M173 355l1 -30M174 355l0 -180M174 235l1 48M175 359l0 -76M175 350l1 -20M176 466l0 -278M176 354l1 -28"/>
<path stroke="red" d="M177 354l0 -161M177 334l1 12 0 -12M178 341l1 -2M179 458l0 -267M179 354l1 -28M180 359l0 -184M180 333l1 14M181 350l0 -20 1 20M182 430l0 -257M182 340l1 0M183 384l0 -212M183 320l1 40 0 -40M184 328l1 24M185 461l0 -281M185 340l1 0"/>
<path stroke="red" d="M186 349l0 -173M186 333l1 14 0 -14M187 340l1 0M188 520l0 -327M188 340l1 0M189 351l0 -155M189 333l1 14 0 -14M190 340l1 0M191 461l0 -290M191 346l1 -12M192 352l0 -176M192 349l1 -18M193 349l0 -18M193 345l1 -10M194 429l0 -255"/>
<path stroke="red" d="M194 340l1 0M195 355l0 -162M195 350l1 -20M196 350l0 -129M196 320l1 -67M197 458l0 -278M197 359l1 -38M198 359l0 -184M198 339l1 2M199 343l0 -139M199 333l1 15M200 465l0 -270M200 340l1 0M201 355l0 -162M201 349l1 -18M202 349l0 -169"/>
<path stroke="red" d="M202 346l1 -12M203 458l0 -253M203 358l1 -36M204 358l0 -183M204 339l1 2M205 363l0 -190M205 357l1 -33M206 430l0 -146M206 340l1 0M207 351l0 -155M207 343l1 -6M208 393l0 -169M208 393l1 68 0 -290M209 334l1 12M210 352l0 -176M210 348l1 -16"/>
<path stroke="red" d="M211 555l0 -354M211 255l1 -30M212 383l0 -158M212 350l1 -20M213 351l0 -155M213 337l1 6M214 461l0 -290M214 344l1 -9M215 347l0 -14M215 347l1 -14M216 352l0 -176M216 347l1 -14M217 429l0 -255M217 340l1 0 0 -30 1 1M219 355l0 -162"/>
<path stroke="red" d="M219 334l1 12M220 458l0 -278M220 317l1 46 0 -188M221 306l1 -53M222 341l0 -166M222 341l1 -2M223 465l0 -270M223 341l1 -2M224 350l0 -157M224 350l1 -22M225 355l0 -30M225 345l1 -10M226 458l0 -278M226 362l1 -44M227 362l0 -187"/>
<path stroke="red" d="M227 339l1 2 0 -2 1 2M229 430l0 -257M229 340l1 0M230 351l0 -155M230 349l1 -18M231 349l0 -18M231 340l1 0M232 461l0 -290M232 334l1 12M233 352l0 -176M233 329l1 22 0 -22M234 334l1 12M235 520l0 -345M235 340l1 0M236 384l0 -212"/>
<path stroke="red" d="M236 359l1 -38M237 359l0 -38M237 352l1 -24M238 461l0 -282M238 340l1 0M239 349l0 -173M239 334l1 12 0 -12M240 340l1 0M241 429l0 -232M241 340l1 0M242 346l0 -153M242 343l1 -6M243 343l0 -50 1 9M244 458l0 -267M244 328l1 24M245 359l0 -184"/>
<path stroke="red" d="M245 332l1 16M246 350l0 -146M246 283l1 28M247 466l0 -278M247 327l1 26 0 -160M248 342l1 -4M249 366l0 -175M249 354l1 -26M250 458l0 -256M250 328l1 24M251 359l0 -184M251 331l1 18M252 350l0 -177M252 339l1 2M253 430l0 -146M253 340l1 0"/>
<path stroke="red" d="M254 384l0 -212M254 356l1 -32M255 355l0 -131M255 328l1 24M256 461l0 -281M256 340l1 0M257 349l0 -173M257 343l1 -6M258 645l0 -442M258 283l1 43M259 341l0 -127M259 339l1 2M260 384l0 -212M260 355l1 -30M261 461l0 -282M261 341l1 -6"/>
<path stroke="red" d="M262 342l0 -7M262 341l1 -2M263 349l0 -173M263 342l1 -4M264 429l0 -232M264 340l2 0M266 346l0 -153M266 340l1 0M267 458l0 -267M267 355l1 -30M268 355l0 -99 1 -32M269 359l0 -184M269 330l1 20M270 466l0 -278M270 326l1 28 0 -161"/>
<path stroke="red" d="M271 309l1 -39M272 346l0 -109M272 339l1 2M273 458l0 -267M273 325l1 30M274 359l0 -184M274 329l1 21 0 -20 1 20M276 430l0 -257M276 340l1 0M277 384l0 -212M277 319l1 42 0 -42M278 328l1 24M279 461l0 -281M279 340l1 0M280 349l0 -173"/>
<path stroke="red" d="M280 332l1 16 0 -16M281 340l1 0M282 520l0 -327M282 340l1 0M283 351l0 -155M283 348l1 -16M284 348l0 -16M284 340l1 0M285 461l0 -290M285 334l1 12M286 352l0 -176M286 330l1 20 0 -20M287 334l1 12M288 429l0 -255M288 340l1 0M289 355l0 -162"/>
<path stroke="red" d="M289 351l1 -22M290 351l0 -22M290 343l1 -6M291 458l0 -278M291 360l1 -40M292 359l0 -184M292 339l1 2 0 -137M293 231l1 21M294 465l0 -270M294 340l1 0M295 355l0 -162M295 350l1 -20M296 350l0 -170M296 240l1 -9M297 458l0 -253M297 359l1 -38"/>
<path stroke="red" d="M298 359l0 -184M298 341l1 -2M299 363l0 -190M299 322l1 36M300 430l0 -146M300 340l1 0M301 351l0 -155M301 336l1 8M302 346l0 -122M302 334l1 12M303 461l0 -290M303 346l1 -12M304 352l0 -176M304 348l1 -16M305 545l0 -344M305 545l1 10"/>
<path stroke="red" d="M306 555l0 -353M306 350l1 -20M307 351l0 -155M307 337l1 6M308 461l0 -280M308 227l1 -56M309 346l0 -175M309 346l1 -12M310 352l0 -176M310 347l1 -14M311 429l0 -255M311 340l2 0M313 355l0 -162M313 346l1 -12M314 458l0 -278M314 364l1 -48"/>
<path stroke="red" d="M315 363l0 -47M315 357l1 -34M316 357l0 -182M316 339l1 2M317 465l0 -270M317 339l1 2 0 -101 1 -47M319 355l0 -162M319 345l1 -10M320 458l0 -278M320 362l1 -44M321 362l0 -187M321 248l1 86M322 341l0 -10M322 339l1 2M323 430l0 -257"/>
<path stroke="red" d="M323 340l1 0M324 351l0 -155M324 351l1 -22M325 350l0 -21M325 341l1 -2M326 461l0 -290M326 335l1 10M327 352l0 -176M327 351l1 -22M328 351l0 -22M328 346l1 -12M329 520l0 -345M329 340l1 0M330 384l0 -212M330 320l1 40 0 -40M331 328l1 24"/>
<path stroke="red" d="M332 461l0 -282M332 340l1 0M333 349l0 -173M333 333l1 14 0 -14M334 340l1 0M335 429l0 -232M335 340l1 0M336 346l0 -153M336 343l1 -6M337 343l0 -6M337 338l1 4M338 458l0 -267M338 327l1 26M339 359l0 -184M339 332l1 16M340 350l0 -20"/>
<path stroke="red" d="M340 330l1 20M341 466l0 -278M341 327l1 26 0 -160M342 338l1 4 0 -121M343 319l1 -62M344 458l0 -267M344 352l1 -24M345 359l0 -184M345 349l1 -18M346 350l0 -177M346 336l1 -3M347 430l0 -146M347 340l1 0M348 384l0 -212M348 356l1 -32"/>
<path stroke="red" d="M349 356l0 -132M349 326l1 28M350 461l0 -281M350 340l1 0M351 349l0 -173M351 344l1 -8M352 377l0 -205M352 319l1 42M353 610l0 -438M353 340l1 0M354 351l0 -155M354 344l1 -8M355 393l0 -169M355 393l1 68 0 -290M356 334l1 12M357 352l0 -176"/>
<path stroke="red" d="M357 348l1 -15M358 429l0 -255M358 340l2 0M360 355l0 -162M360 333l1 14M361 458l0 -278M361 313l1 53 0 -51M362 323l1 34 0 -182M363 341l1 -2M364 465l0 -270M364 341l1 -2M365 341l0 -31 1 1M366 355l0 -162M366 334l1 12M367 458l0 -278"/>
<path stroke="red" d="M367 317l1 46 0 -188M368 306l1 -53M369 341l0 -166M369 341l1 -2M370 430l0 -257M370 340l1 0M371 351l0 -155M371 351l1 -22M372 351l0 -22M372 341l1 -2M373 461l0 -290M373 335l1 10M374 352l0 -176M374 328l1 24 0 -23M375 334l1 12"/>
<path stroke="red" d="M376 520l0 -324M376 340l1 0M377 384l0 -212M377 361l1 -42M378 361l0 -42M378 352l1 -24M379 461l0 -282M379 340l1 0M380 349l0 -173M380 348l1 -15M381 347l0 -14M381 340l1 0M382 429l0 -232M382 340l1 0M383 346l0 -153M383 336l1 8"/>
<path stroke="red" d="M384 344l0 -8M384 342l1 -4M385 458l0 -267M385 353l1 -26M386 359l0 -184M386 332l1 16M387 350l0 -20 1 20M388 466l0 -278M388 327l1 26 0 -160M389 343l1 -6M390 343l0 -50 1 9M391 458l0 -267M391 328l1 24M392 359l0 -184M392 332l1 16"/>
<path stroke="red" d="M393 350l0 -177M393 244l1 55M394 430l0 -212M394 340l1 0M395 384l0 -212M395 323l1 34 0 -133M396 353l1 -28M397 461l0 -281M397 340l1 0M398 349l0 -173M398 336l1 8M399 347l0 -123M399 347l1 -14M400 555l0 -377M400 349l1 -18M401 384l0 -212"/>
<path stroke="red" d="M401 356l1 -32M402 356l0 -132M402 328l1 24M403 461l0 -282M403 340l1 0M404 349l0 -173M404 343l1 -6M405 429l0 -232M405 338l1 0M406 340l0 -2M406 340l1 0M407 346l0 -153M407 340l1 0M408 458l0 -267M408 321l1 -8M409 356l0 -43M409 351l1 -22"/>
<path stroke="red" d="M410 359l0 -184M410 349l1 -18M411 466l0 -278M411 357l1 -33M412 356l0 -32M412 352l1 -24M413 352l0 -159M413 340l1 0M414 458l0 -267M414 356l1 -32M415 355l0 -99 1 -32M416 359l0 -184M416 330l1 20M417 430l0 -257M417 340l1 0 0 -168"/>
<path stroke="red" d="M418 229l1 21M419 384l0 -138M419 327l1 26M420 461l0 -281M420 341l1 -2M421 348l0 -172M421 330l1 19 0 -18M422 339l1 2M423 520l0 -344M423 340l1 0M424 351l0 -155M424 330l1 20 0 -20M425 339l1 2M426 461l0 -290M426 345l1 -10M427 352l0 -176"/>
<path stroke="red" d="M427 351l1 -22M428 351l0 -22M428 346l1 -12M429 429l0 -255M429 340l1 0M430 355l0 -162M430 353l1 -26M431 353l0 -26M431 343l1 -6M432 458l0 -278M432 360l1 -40M433 360l0 -185M433 339l1 2 0 -2 1 2M435 465l0 -270M435 340l1 0M436 355l0 -162"/>
<path stroke="red" d="M436 351l1 -22M437 351l0 -22M437 343l1 -6M438 458l0 -278M438 360l1 -39M439 359l0 -184M439 339l1 2 0 -168M440 197l1 -4M441 430l0 -237M441 340l1 0M442 351l0 -155M442 345l1 -10M443 345l0 -121M443 257l1 -32M444 461l0 -290M444 334l1 12"/>
<path stroke="red" d="M445 352l0 -176M445 349l1 -18M446 349l0 -18M446 345l1 -10M447 699l0 -582M447 340l1 0M448 351l0 -155M448 336l1 8M449 346l0 -122M449 334l1 12M450 461l0 -290M450 346l1 -12M451 352l0 -176M451 348l1 -16M452 424l0 -250M452 424l1 5"/>
<path stroke="red" d="M453 429l0 -143M453 340l1 0M454 355l0 -162M454 333l1 14M455 458l0 -278M455 263l1 7M456 377l0 -167M456 322l1 36 0 -183M457 341l1 -2M458 465l0 -270M458 340l1 -2M459 341l0 -3M459 340l1 0M460 355l0 -162M460 346l1 -12M461 458l0 -278"/>
<path stroke="red" d="M461 364l1 -48M462 363l0 -47M462 357l1 -34M463 357l0 -182M463 339l1 2M464 430l0 -257M464 340l1 0 0 -144 1 38M466 351l0 -153M466 341l1 -2M467 461l0 -290M467 335l1 10M468 347l0 -171M468 220l1 114M469 352l0 -27M469 333l1 14"/>
<path stroke="red" d="M470 520l0 -324M470 340l1 0M471 384l0 -212M471 363l1 -46M472 363l0 -46M472 353l1 -26M473 461l0 -282M473 339l1 1M474 349l0 -173M474 332l1 16 0 -16M475 339l1 2M476 429l0 -232M476 340l1 0M477 346l0 -153M477 345l1 -10M478 344l0 -9"/>
<path stroke="red" d="M478 339l1 3M479 458l0 -267M479 327l1 26M480 359l0 -184M480 332l1 16M481 350l0 -20 1 20M482 466l0 -278M482 326l1 28 0 -161M483 343l1 -6M484 343l0 -6M484 338l1 4M485 458l0 -267M485 327l1 26M486 359l0 -184M486 332l1 16M487 350l0 -20"/>
<path stroke="red" d="M487 330l1 20M488 430l0 -257M488 340l1 0M489 384l0 -212M489 357l1 -34M490 357l0 -133M490 251l1 1M491 461l0 -281M491 340l1 0M492 349l0 -173M492 345l1 -10M493 345l0 -121M493 337l1 7M494 555l0 -378M494 331l1 18M495 384l0 -212"/>
<path stroke="red" d="M495 356l1 -32M496 356l0 -132M496 326l1 28M497 461l0 -282M497 340l1 0M498 349l0 -173M498 344l1 -8M499 347l0 -150M499 344l1 -8M500 429l0 -143M500 340l1 0M501 346l0 -153M501 339l1 2M502 392l0 -201M502 392l1 66 0 -256M503 351l1 -22"/>
<path stroke="red" d="M504 359l0 -184M504 331l1 18M505 466l0 -278M505 241l1 -1M506 380l0 -141M506 327l1 25 0 -159M507 340l1 0M508 458l0 -267M508 323l1 33 0 -32M509 329l1 22M510 359l0 -184M510 330l1 20M511 430l0 -257M511 340l1 0 0 -30 1 1M513 384l0 -212"/>
<path stroke="red" d="M513 327l1 26M514 461l0 -281M514 341l1 -2M515 341l0 -165M515 238l1 28M516 349l0 -118M516 339l1 2M517 520l0 -344M517 340l1 0M518 351l0 -155M518 351l1 -23M519 351l0 -23M519 341l1 -2M520 461l0 -290M520 335l1 10M521 352l0 -176"/>
<path stroke="red" d="M521 328l1 23 0 -22M522 334l1 12M523 429l0 -255M523 340l1 0M524 355l0 -162M524 354l1 -28M525 354l0 -28M525 344l1 -8M526 458l0 -278M526 361l1 -42M527 361l0 -186M527 339l1 2 0 -2 1 2M529 465l0 -270M529 339l1 2M530 355l0 -162"/>
<path stroke="red" d="M530 352l1 -24M531 352l0 -24M531 343l1 -6M532 458l0 -278M532 360l1 -40M533 360l0 -185M533 341l1 -2M534 341l0 -2M534 341l1 -2M535 430l0 -257M535 340l1 0M536 351l0 -155M536 334l1 12 0 -54 1 9M538 461l0 -290M538 346l1 -12M539 352l0 -176"/>
<path stroke="red" d="M539 349l1 -18M540 349l0 -111M540 270l1 39M541 608l0 -433M541 340l1 0M542 384l0 -212M542 323l1 34 0 -133M543 353l1 -28M544 461l0 -282M544 340l1 0M545 349l0 -173M545 336l1 8M546 347l0 -150M546 335l1 10M547 429l0 -143M547 340l1 0"/>
<path stroke="red" d="M548 346l0 -153M548 339l1 2M549 367l0 -176M549 334l1 12M550 458l0 -256M550 351l1 -22M551 359l0 -184M551 349l1 -18M552 466l0 -262M552 285l1 40M553 380l0 -192M553 353l1 -26M554 353l0 -160M554 340l1 0M555 458l0 -267M555 321l1 -8"/>
<path stroke="red" d="M556 356l0 -43M556 351l1 -22M557 359l0 -184M557 349l1 -18M558 430l0 -257M558 340l2 0M560 384l0 -212M560 354l1 -28M561 461l0 -281M561 339l1 2 0 -85 1 -32M563 349l0 -173M563 338l1 4M564 520l0 -327M564 340l1 0 0 -144M565 222l1 28"/>
<path stroke="red" d="M566 351l0 -101M566 339l1 2M567 461l0 -290M567 345l1 -10M568 352l0 -176M568 352l1 -24M569 352l0 -24M569 346l1 -12M570 429l0 -255M570 340l1 0M571 355l0 -162M571 325l1 30 0 -30M572 336l1 8M573 458l0 -278M573 319l1 42 0 -186"/>
<path stroke="red" d="M574 341l1 -2M575 341l0 -2M575 341l1 -2M576 465l0 -270M576 341l1 -2M577 355l0 -162M577 353l1 -26M578 353l0 -26M578 343l1 -6M579 458l0 -278M579 360l1 -40M580 360l0 -185M580 339l1 2 0 -2 1 2M582 430l0 -257M582 340l1 0M583 351l0 -155"/>
<path stroke="red" d="M583 347l1 -14M584 347l0 -14M584 339l1 2M585 461l0 -290M585 334l1 12M586 352l0 -176M586 331l1 18 0 -128M587 248l1 20M588 555l0 -354M588 328l1 24 0 -156M589 345l1 -10M590 345l0 -121M590 257l1 -32M591 461l0 -290M591 334l1 12"/>
<path stroke="red" d="M592 352l0 -176M592 349l1 -17M593 348l0 -174M593 341l1 -2M594 429l0 -143M594 340l1 0M595 355l0 -162M595 332l1 16 0 -168M596 334l1 12M597 458l0 -253M597 322l1 36 0 -183M598 341l1 -2M599 460l0 -256M599 460l1 5 0 -270M600 340l1 0"/>
<path stroke="red" d="M601 355l0 -162M601 333l1 14M602 458l0 -278M602 263l1 7M603 377l0 -167M603 322l1 36 0 -183M604 341l1 -2M605 430l0 -257M605 340l2 0M607 351l0 -155M607 342l1 -4M608 461l0 -290M608 335l1 10M609 347l0 -14 1 14M610 352l0 -176"/>
<path stroke="red" d="M610 333l1 14M611 520l0 -345M611 340l1 0 0 -144 1 34M613 384l0 -212M613 353l1 -26M614 461l0 -282M614 339l1 2 0 -165M615 231l1 23M616 349l0 -95M616 341l1 -2M617 429l0 -232M617 340l1 0M618 346l0 -153M618 334l1 12 0 -12M619 341l1 -2"/>
<path stroke="red" d="M620 458l0 -267M620 354l1 -28M621 359l0 -184M621 333l1 14M622 350l0 -20 1 20M623 466l0 -278M623 326l1 28 0 -161M624 345l1 -9M625 344l0 -8M625 338l1 4M626 458l0 -267M626 327l1 26M627 359l0 -184M627 332l1 16M628 350l0 -20"/>
<path stroke="red" d="M628 330l1 20M629 430l0 -257M629 340l1 0M630 384l0 -212M630 321l1 38 0 -38M631 329l1 22M632 461l0 -281M632 340l1 0M633 349l0 -173M633 334l1 12 0 -12M634 340l1 0M635 645l0 -442M635 341l1 -2M636 384l0 -212M636 357l1 -34M637 357l0 -133"/>
<path stroke="red" d="M637 252l1 0M638 461l0 -282M638 340l1 0M639 349l0 -173M639 345l1 -10M640 347l0 -150M640 347l1 -15M641 429l0 -143M641 340l1 0M642 346l0 -153M642 338l1 4M643 367l0 -176M643 333l1 14M644 458l0 -256M644 352l1 -24M645 359l0 -184"/>
<path stroke="red" d="M645 349l1 -18M646 350l0 -146M646 348l1 -16M647 466l0 -278M647 353l1 -26M648 353l0 -160M648 339l1 2M649 392l0 -201M649 392l1 66 0 -256M650 351l1 -22M651 359l0 -184M651 331l1 18M652 430l0 -257M652 340l2 0M654 384l0 -212M654 326l1 28"/>
<path stroke="red" d="M655 461l0 -281M655 340l1 -1M656 341l0 -2 1 2M657 349l0 -173M657 338l1 4M658 520l0 -327M658 340l1 0 0 -30 1 1M660 351l0 -155M660 338l1 4M661 461l0 -290M661 345l1 -10M662 347l0 -171M662 239l1 30M663 352l0 -131M663 347l1 -14"/>
<path stroke="red" d="M664 429l0 -255M664 340l1 0M665 350l0 -157M665 350l1 -22M666 355l0 -30M666 345l1 -10M667 458l0 -278M667 362l1 -44M668 362l0 -187M668 339l1 2 0 -2 1 2M670 465l0 -270M670 339l1 2M671 355l0 -162M671 354l1 -28M672 354l0 -28"/>
<path stroke="red" d="M672 344l1 -8M673 458l0 -278M673 361l1 -42M674 361l0 -186M674 339l1 2 0 -2 1 2M676 430l0 -257M676 340l1 0M677 351l0 -155M677 348l1 -16M678 348l0 -16M678 340l1 0M679 461l0 -290M679 334l1 12M680 352l0 -176M680 350l1 -20M681 350l0 -20"/>
<path stroke="red" d="M681 346l1 -12M682 555l0 -354M682 352l1 -24M683 352l0 -156M683 334l1 12 0 -53 1 8M685 461l0 -290M685 346l1 -12M686 352l0 -176M686 349l1 -18M687 349l0 -175 1 84M688 429l0 -214M688 340l1 0M689 355l0 -162M689 331l1 18 0 -169"/>
<path stroke="red" d="M690 333l1 13M691 458l0 -253M691 321l1 38 0 -184M692 341l1 -2M693 352l0 -148M693 352l1 -24M694 465l0 -270M694 340l1 0M695 355l0 -162M695 348l1 -16M696 348l0 -168M696 346l1 -12M697 458l0 -253M697 358l1 -36M698 358l0 -183"/>
<path stroke="red" d="M698 339l1 2M699 430l0 -257M699 338l1 1M700 340l0 -1M700 340l1 0M701 351l0 -155M701 343l1 -6M702 461l0 -290M702 331l1 9M703 347l0 -14 1 14M704 352l0 -176M704 333l1 14M705 520l0 -345M705 340l2 0M707 384l0 -212M707 354l1 -28"/>
<path stroke="red" d="M708 461l0 -282M708 339l1 2 0 -85 1 -32M710 349l0 -173M710 338l1 4M711 429l0 -232M711 340l1 0 0 -147M712 309l1 -39M713 346l0 -109M713 339l1 2M714 458l0 -267M714 325l1 30M715 359l0 -184M715 329l1 21 0 -20 1 20M717 466l0 -278"/>
<path stroke="red" d="M717 326l1 28 0 -161M718 345l1 -10M719 345l0 -10M719 339l1 2M720 458l0 -267M720 326l1 28M721 359l0 -184M721 333l1 14M722 350l0 -20 1 20M723 430l0 -257M723 340l1 0M724 384l0 -212M724 360l1 -40M725 360l0 -40M725 352l1 -24"/>
<path stroke="red" d="M726 461l0 -281M726 340l1 0M727 349l0 -173M727 347l1 -13M728 346l0 -12M728 340l1 0M729 610l0 -438M729 340l1 0M730 351l0 -155M730 347l1 -14M731 347l0 -14M731 340l1 0M732 461l0 -290M732 334l1 12M733 352l0 -176M733 331l1 18"/>
<path stroke="red" d="M734 349l0 -73M734 296l1 -6M735 429l0 -255M735 340l1 0M736 355l0 -162M736 350l1 -20M737 350l0 -170M737 240l1 -9M738 458l0 -253M738 359l1 -38M739 359l0 -184M739 341l1 -2M740 352l0 -148M740 352l1 -24M741 465l0 -270M741 340l1 0"/>
<path stroke="red" d="M742 355l0 -162M742 332l1 16 0 -168M743 334l1 12M744 458l0 -253M744 322l1 36 0 -183M745 341l1 -2M746 425l0 -252M746 425l1 5 0 -146M747 340l1 0M748 351l0 -155M748 337l1 6M749 461l0 -279M749 227l1 -56M750 346l0 -175M750 346l1 -12"/>
<path stroke="red" d="M751 352l0 -176M751 347l1 -14M752 520l0 -324M752 339l1 2 0 -2M753 340l1 0M754 384l0 -212M754 354l1 -28M755 461l0 -282M755 339l1 2 0 -2M756 341l1 -2M757 349l0 -173M757 342l1 -4M758 429l0 -232M758 340l1 0 0 -99 1 -48M760 346l0 -153"/>
<path stroke="red" d="M760 341l1 -2M761 458l0 -267M761 355l1 -30M762 355l0 -180M762 235l1 48M763 359l0 -76M763 350l1 -20M764 466l0 -278M764 354l1 -28M765 354l0 -161M765 334l1 12 0 -12M766 341l1 -2M767 458l0 -267M767 354l1 -28M768 359l0 -184M768 333l1 14"/>
<path stroke="red" d="M769 350l0 -20 1 20M770 430l0 -257M770 340l1 0M771 384l0 -212M771 320l1 40 0 -40M772 328l1 24M773 461l0 -281M773 340l1 0M774 349l0 -173M774 333l1 14 0 -14M775 340l1 0M776 555l0 -377M776 350l1 -20M777 384l0 -212M777 321l1 38"/>
<path stroke="red" d="M778 359l0 -38M778 329l1 22M779 461l0 -282M779 340l1 0M780 349l0 -173M780 334l1 12 0 -12M781 340l1 0M782 429l0 -232M782 340l1 0M783 346l0 -153M783 338l1 4 0 -121M784 319l1 -62M785 458l0 -267M785 352l1 -24M786 359l0 -184"/>
<path stroke="red" d="M786 349l1 -18M787 350l0 -146M787 345l1 -17M788 466l0 -278M788 353l1 -26M789 353l0 -160M789 338l1 4M790 366l0 -175M790 333l1 14M791 458l0 -256M791 352l1 -24M792 359l0 -184M792 349l1 -18M793 350l0 -177M793 341l1 -2M794 430l0 -146"/>
<path stroke="red" d="M794 340l1 0M795 384l0 -212M795 355l1 -30M796 394l0 -170M796 394l1 67 0 -281M797 340l1 0M798 349l0 -173M798 337l1 6M799 520l0 -344M799 339l1 2 0 -2M800 340l1 0M801 351l0 -155M801 337l1 6M802 461l0 -290M802 344l1 -9M803 347l0 -13"/>
<path stroke="red" d="M803 347l1 -14M804 352l0 -176M804 347l1 -14M805 429l0 -255M805 340l1 0 0 -30 1 1M807 355l0 -162M807 334l1 12M808 458l0 -278M808 317l1 46 0 -188M809 306l1 -53M810 341l0 -166M810 341l1 -2M811 465l0 -270M811 341l1 -2M812 350l0 -157"/>
<path stroke="red" d="M812 350l1 -22M813 355l0 -30M813 345l1 -10M814 458l0 -278M814 362l1 -44M815 362l0 -187M815 339l1 2 0 -2 1 2M817 430l0 -257M817 340l1 0M818 351l0 -155M818 349l1 -18M819 349l0 -18M819 340l1 0M820 461l0 -290M820 334l1 12M821 352l0 -176"/>
<path stroke="red" d="M821 329l1 22 0 -22M822 334l1 12M823 699l0 -582M823 340l1 0M824 351l0 -155M824 348l1 -16M825 348l0 -16M825 340l1 0M826 461l0 -290M826 334l1 12M827 352l0 -176M827 350l1 -20M828 350l0 -20M828 345l1 -10M829 429l0 -255M829 340l1 0"/>
<path stroke="red" d="M830 355l0 -162M830 329l1 22 0 -58 1 9M832 458l0 -278M832 321l1 38 0 -184M833 341l1 -2M834 341l0 -137M834 248l1 -7M835 465l0 -270M835 340l1 0M836 355l0 -162M836 331l1 18 0 -169M837 333l1 13M838 458l0 -253M838 321l1 38 0 -184"/>
<path stroke="red" d="M839 341l1 -2M840 363l0 -190M840 323l1 34M841 430l0 -146M841 340l1 0M842 351l0 -155M842 344l1 -8M843 346l0 -122M843 346l1 -12M844 461l0 -290M844 334l1 12M845 352l0 -176M845 332l1 16M846 520l0 -324M846 337l1 1M847 341l0 -3"/>
<path stroke="red" d="M847 340l1 0M848 384l0 -212M848 355l1 -30M849 461l0 -282M849 341l1 -6M850 342l0 -7M850 341l1 -2M851 349l0 -173M851 342l1 -4M852 429l0 -232M852 340l2 0M854 346l0 -153M854 340l1 0M855 458l0 -267M855 356l1 -32M856 355l0 -99"/>
<path stroke="red" d="M856 256l1 -32M857 359l0 -184M857 330l1 20M858 466l0 -278M858 326l1 28 0 -161M859 309l1 -39M860 346l0 -109M860 339l1 2M861 458l0 -267M861 325l1 30M862 359l0 -184M862 329l1 21 0 -20 1 20M864 430l0 -257M864 340l1 0M865 384l0 -212"/>
<path stroke="red" d="M865 319l1 42 0 -42M866 328l1 24M867 461l0 -281M867 340l1 0M868 349l0 -173M868 332l1 16 0 -16M869 339l1 2M870 555l0 -378M870 350l1 -20M871 384l0 -212M871 360l1 -40M872 360l0 -40M872 352l1 -24M873 461l0 -282M873 340l1 0M874 349l0 -173"/>
<path stroke="red" d="M874 347l1 -14M875 347l0 -14M875 340l1 0M876 429l0 -232M876 340l1 0M877 346l0 -153M877 337l1 6 0 -6M878 342l1 -4M879 458l0 -267M879 353l1 -25M880 359l0 -184M880 348l1 -16M881 350l0 -146M881 231l1 21M882 466l0 -278M882 353l1 -26"/>
<path stroke="red" d="M883 353l0 -160M883 338l1 4 0 -151M884 246l1 -15M885 458l0 -256M885 352l1 -24M886 359l0 -184M886 331l1 18M887 350l0 -177M887 338l1 3M888 430l0 -146M888 340l1 0M889 384l0 -212M889 324l1 32 0 -132M890 353l1 -26M891 461l0 -281"/>
<path stroke="red" d="M891 340l1 0M892 349l0 -173M892 337l1 6M893 511l0 -335M893 511l1 9 0 -292M894 340l1 0M895 351l0 -155M895 337l1 6M896 461l0 -280M896 227l1 -56M897 346l0 -175M897 346l1 -12M898 352l0 -176M898 347l1 -14M899 429l0 -255M899 340l2 0"/>
<path stroke="red" d="M901 355l0 -162M901 346l1 -12M902 458l0 -278M902 364l1 -48M903 363l0 -47M903 357l1 -34M904 357l0 -182M904 339l1 2M905 465l0 -270M905 339l1 2 0 -101 1 -47M907 355l0 -162M907 345l1 -10M908 458l0 -278M908 362l1 -44M909 362l0 -187"/>
<path stroke="red" d="M909 248l1 86M910 341l0 -10M910 339l1 2M911 430l0 -257M911 340l1 0M912 351l0 -155M912 351l1 -22M913 350l0 -21M913 341l1 -2M914 461l0 -290M914 335l1 10M915 352l0 -176M915 351l1 -22M916 351l0 -22M916 346l1 -12M917 608l0 -433"/>
<path stroke="red" d="M917 340l1 0M918 384l0 -212M918 320l1 40 0 -40M919 328l1 24M920 461l0 -282M920 340l1 0M921 349l0 -173M921 333l1 14 0 -14M922 340l1 0M923 429l0 -232M923 340l1 0M924 346l0 -153M924 343l1 -6M925 343l0 -6M925 338l1 4M926 458l0 -267"/>
<path stroke="red" d="M926 327l1 26M927 359l0 -184M927 332l1 16M928 350l0 -20 1 20M929 466l0 -278M929 327l1 26 0 -160M930 338l1 4 0 -121M931 319l1 -62M932 458l0 -267M932 352l1 -24M933 359l0 -184M933 349l1 -18M934 350l0 -177M934 336l1 -3M935 430l0 -146"/>
<path stroke="red" d="M935 340l1 0M936 384l0 -212M936 356l1 -32M937 356l0 -132M937 326l1 28M938 461l0 -281M938 340l1 0M939 349l0 -173M939 344l1 -8M940 344l0 -151M940 339l1 2M941 520l0 -292M941 340l1 0M942 351l0 -155M942 344l1 -8M943 393l0 -169"/>
<path stroke="red" d="M943 393l1 68 0 -290M944 334l1 12M945 352l0 -176M945 348l1 -15M946 429l0 -255M946 340l2 0M948 355l0 -162M948 333l1 13M949 458l0 -278M949 313l1 53 0 -52M950 323l1 34 0 -182M951 341l1 -2M952 341l0 -2"/>
</svg>
