<?xml version="1.0" standalone="yes"?>
<!DOCTYPE svg PUBLIC "-//W3C//DTD SVG 1.1//EN"
 "http://www.w3.org/Graphics/SVG/1.1/DTD/svg11.dtd">
<svg xmlns="http://www.w3.org/2000/svg" version="1.1"
  width="100%" height="100%" viewBox="0 0 1024 768"
  style="fill: none; stroke-width: 3; font-family: Helvetica;
 font: Helvetica;
">

<!-- Creator: NGspice -->

<rect x="0" y="0" width="1024" height="768" fill="white" stroke="none"/>
<text stroke="none" fill="black" font-size="16" x="358" y="752">
time
</text>
<text stroke="none" fill="black" font-size="16" x="10" y="16">
tran1: Even Parity Output
</text>
<path stroke="black" stroke-width="3" d="M50 704l0 -638"/>
<text stroke="none" fill="black" font-size="16" x="35" y="728">
0.0
</text>
<path stroke="black" stroke-width="3" stroke-dasharray="1,2" d="M204 704l0 -638"/>
<text stroke="none" fill="black" font-size="16" x="189" y="728">
0.5
</text>
<path stroke="black" stroke-width="3" stroke-dasharray="1,2" d="M358 704l0 -638"/>
<text stroke="none" fill="black" font-size="16" x="343" y="728">
1.0
</text>
<path stroke="black" stroke-width="3" stroke-dasharray="1,2" d="M512 704l0 -638"/>
<text stroke="none" fill="black" font-size="16" x="497" y="728">
1.5
</text>
<path stroke="black" stroke-width="3" stroke-dasharray="1,2" d="M666 704l0 -638"/>
<text stroke="none" fill="black" font-size="16" x="651" y="728">
2.0
</text>
<path stroke="black" stroke-width="3" stroke-dasharray="1,2" d="M820 704l0 -638"/>
<text stroke="none" fill="black" font-size="16" x="805" y="728">
2.5
</text>
<path stroke="black" stroke-width="3" stroke-dasharray="1,2" d="M974 704l0 -638"/>
<text stroke="none" fill="black" font-size="16" x="959" y="728">
3.0
</text>
<text stroke="none" fill="black" font-size="16" x="614" y="752">
us
</text>
<path stroke="black" stroke-width="3" stroke-dasharray="1,2" d="M50 704l924 0"/>
<text stroke="none" fill="black" font-size="16" x="8" y="712">
-0.2
</text>
<path stroke="black" stroke-width="3" d="M50 646l924 0"/>
<text stroke="none" fill="black" font-size="16" x="18" y="654">
0.0
</text>
<path stroke="black" stroke-width="3" stroke-dasharray="1,2" d="M50 588l924 0"/>
<text stroke="none" fill="black" font-size="16" x="18" y="596">
0.2
</text>
<path stroke="black" stroke-width="3" stroke-dasharray="1,2" d="M50 530l924 0"/>
<text stroke="none" fill="black" font-size="16" x="18" y="538">
0.4
</text>
<path stroke="black" stroke-width="3" stroke-dasharray="1,2" d="M50 472l924 0"/>
<text stroke="none" fill="black" font-size="16" x="18" y="480">
0.6
</text>
<path stroke="black" stroke-width="3" stroke-dasharray="1,2" d="M50 414l924 0"/>
<text stroke="none" fill="black" font-size="16" x="18" y="422">
0.8
</text>
<path stroke="black" stroke-width="3" stroke-dasharray="1,2" d="M50 356l924 0"/>
<text stroke="none" fill="black" font-size="16" x="18" y="364">
1.0
</text>
<path stroke="black" stroke-width="3" stroke-dasharray="1,2" d="M50 298l924 0"/>
<text stroke="none" fill="black" font-size="16" x="18" y="306">
1.2
</text>
<path stroke="black" stroke-width="3" stroke-dasharray="1,2" d="M50 240l924 0"/>
<text stroke="none" fill="black" font-size="16" x="18" y="248">
1.4
</text>
<path stroke="black" stroke-width="3" stroke-dasharray="1,2" d="M50 182l924 0"/>
<text stroke="none" fill="black" font-size="16" x="18" y="190">
1.6
</text>
<path stroke="black" stroke-width="3" stroke-dasharray="1,2" d="M50 124l924 0"/>
<text stroke="none" fill="black" font-size="16" x="18" y="132">
1.8
</text>
<path stroke="black" stroke-width="3" stroke-dasharray="1,2" d="M50 66l924 0"/>
<text stroke="none" fill="black" font-size="16" x="18" y="74">
2.0
</text>
<text stroke="none" fill="black" font-size="16" x="10" y="32">
V
</text>
<path stroke="red" d="M462 23l46 0"/>
<text stroke="none" fill="black" font-size="16" x="518" y="32">
v(out_parity)
</text>
<path stroke="red" d="M50 646l2 0M52 669l0 -547M52 124l1 0M53 659l0 -562M53 132l1 -11M54 126l0 -5M54 124l1 0M55 646l0 -560M55 646l1 0M56 655l0 -548M56 124l2 0M58 657l0 -561M58 646l1 0M59 669l0 -548M59 124l1 0M60 666l0 -591M60 646l1 0M61 668l0 -556"/>
<path stroke="red" d="M61 124l1 0M62 656l0 -561M62 645l1 2M63 668l0 -546M63 124l1 0M64 657l0 -561M64 646l2 0M66 669l0 -594M66 646l1 0M67 668l0 -556M67 124l2 0M69 653l0 -573M69 646l1 0M70 669l0 -547M70 124l2 0M72 659l0 -562M72 124l1 0M73 646l0 -560"/>
<path stroke="red" d="M73 646l2 0M75 658l0 -547M75 124l1 0M76 670l0 -564M76 646l2 0M78 666l0 -573M78 646l1 0M79 652l0 -544M79 124l2 0M81 648l0 -562M81 646l1 0M82 666l0 -551M82 125l1 -1 1 0M84 670l0 -564M84 124l2 0M86 661l0 -561M86 646l1 0M87 675l0 -566"/>
<path stroke="red" d="M87 646l2 0M89 666l0 -551M89 124l1 0M90 670l0 -564M90 124l2 0M92 661l0 -561M92 646l1 0M93 654l0 -547M93 124l2 0M95 670l0 -564M95 646l1 0M96 666l0 -550M96 124l1 0M97 651l0 -558M97 646l1 0M98 652l0 -544M98 124l1 0M99 654l0 -560"/>
<path stroke="red" d="M99 646l1 0M100 667l0 -544M100 124l1 0M101 670l0 -564M101 646l1 0M102 666l0 -550 1 11M103 651l0 -558M103 646l1 0M104 652l0 -544M104 124l2 0M106 648l0 -562M106 646l1 0M107 666l0 -551M107 124l2 0M109 670l0 -564M109 124l1 0"/>
<path stroke="red" d="M110 661l0 -561M110 646l2 0M112 675l0 -566M112 646l1 0M113 666l0 -551M113 124l2 0M115 670l0 -564M115 124l1 0M116 661l0 -561M116 646l2 0M118 654l0 -547M118 124l1 0M119 670l0 -564M119 647l1 -2M120 647l0 -2M120 646l1 0M121 666l0 -573"/>
<path stroke="red" d="M121 646l1 0 0 -1 1 1M123 652l0 -544M123 124l1 0M124 658l0 -581M124 646l2 0M126 669l0 -547M126 124l1 0M127 659l0 -562M127 124l2 0M129 646l0 -560M129 646l1 0M130 655l0 -548M130 124l2 0M132 657l0 -561M132 646l1 0M133 669l0 -548"/>
<path stroke="red" d="M133 124l1 0M134 666l0 -591M134 646l1 0M135 668l0 -556M135 124l1 0M136 656l0 -561M136 646l1 0M137 668l0 -546M137 124l1 0M138 657l0 -561M138 646l1 0M139 669l0 -548M139 124l1 0M140 666l0 -591M140 646l1 0M141 668l0 -556M141 124l2 0"/>
<path stroke="red" d="M143 653l0 -573M143 646l1 0M144 669l0 -547M144 124l2 0M146 659l0 -562M146 124l1 0M147 646l0 -560M147 646l2 0M149 668l0 -550M149 124l1 0M150 670l0 -564M150 646l2 0M152 666l0 -573M152 646l1 0M153 652l0 -544M153 124l2 0M155 648l0 -562"/>
<path stroke="red" d="M155 646l1 0M156 666l0 -551M156 124l2 0M158 670l0 -564M158 124l1 0M159 661l0 -561M159 654l1 -14M160 651l0 -11M160 646l1 0M161 675l0 -566M161 646l2 0M163 666l0 -551M163 124l1 0M164 670l0 -564M164 124l2 0M166 661l0 -561M166 646l1 0"/>
<path stroke="red" d="M167 654l0 -547M167 124l2 0M169 670l0 -564M169 646l1 0M170 666l0 -550M170 124l1 0M171 651l0 -558M171 646l1 0M172 652l0 -544M172 124l1 0M173 653l0 -560M173 646l2 0M175 669l0 -547M175 124l1 0M176 659l0 -562M176 646l1 0M177 653l0 -547"/>
<path stroke="red" d="M177 124l1 0M178 646l0 -560M178 646l1 0M179 655l0 -548M179 131l1 -10M180 126l0 -5M180 124l1 0M181 657l0 -561M181 646l2 0M183 669l0 -594M183 646l1 0M184 668l0 -556M184 124l2 0M186 668l0 -573M186 124l1 0M187 657l0 -561M187 646l2 0"/>
<path stroke="red" d="M189 669l0 -594M189 646l1 0M190 668l0 -556M190 124l2 0M192 653l0 -573M192 646l1 0M193 669l0 -547M193 124l2 0M195 659l0 -562M195 124l1 0M196 646l0 -560M196 646l2 0M198 676l0 -591M198 646l1 0M199 669l0 -24M199 669l1 -325 0 -222"/>
<path stroke="red" d="M200 124l1 0M201 659l0 -562M201 124l2 0M203 646l0 -560M203 646l1 0M204 655l0 -548M204 124l2 0M206 657l0 -561M206 646l1 0M207 669l0 -594M207 666l1 -36M208 657l0 -27M208 646l1 0M209 668l0 -556M209 124l1 0M210 656l0 -561M210 646l1 0"/>
<path stroke="red" d="M211 668l0 -546M211 124l1 0M212 657l0 -561M212 646l1 0M213 669l0 -548M213 124l1 0M214 666l0 -591M214 646l1 0M215 668l0 -556M215 124l1 0M216 653l0 -573M216 645l1 2 0 -2M217 646l1 0M218 669l0 -547M218 124l2 0M220 659l0 -562"/>
<path stroke="red" d="M220 124l1 0M221 646l0 -560M221 646l2 0M223 665l0 -546M223 124l1 0M224 670l0 -564M224 646l2 0M226 666l0 -573M226 646l1 0M227 652l0 -544M227 124l2 0M229 648l0 -562M229 646l1 0M230 666l0 -551M230 124l2 0M232 670l0 -564M232 124l1 0"/>
<path stroke="red" d="M233 661l0 -561M233 646l2 0M235 675l0 -566M235 646l1 0M236 666l0 -551M236 125l1 -1 1 0M238 670l0 -564M238 124l2 0M240 661l0 -561M240 646l1 0M241 654l0 -547M241 124l2 0M243 670l0 -564M243 646l1 0M244 666l0 -573M244 645l1 2"/>
<path stroke="red" d="M245 647l0 -1 1 0M246 652l0 -544M246 124l1 0M247 651l0 -560M247 646l1 -1M248 656l0 -548M248 124l1 0M249 670l0 -564M249 646l1 0M250 666l0 -550M250 124l1 0M251 651l0 -558M251 646l1 0M252 652l0 -544M252 124l1 0M253 648l0 -562"/>
<path stroke="red" d="M253 646l2 0M255 666l0 -551M255 124l1 0M256 670l0 -564M256 670l1 -43M257 659l0 -547M257 124l1 0M258 661l0 -561M258 646l2 0M260 675l0 -566M260 646l1 0M261 666l0 -551M261 124l2 0M263 670l0 -564M263 124l1 0M264 661l0 -561M264 646l2 0"/>
<path stroke="red" d="M266 654l0 -547M266 124l1 0M267 670l0 -564M267 646l2 0M269 666l0 -573M269 646l1 0M270 652l0 -544M270 124l2 0M272 653l0 -560M272 646l1 0M273 669l0 -547M273 124l2 0M275 659l0 -562M275 124l1 0M276 125l0 -1M276 125l1 -2M277 646l0 -560"/>
<path stroke="red" d="M277 646l1 0M278 655l0 -548M278 124l2 0M280 657l0 -561M280 646l1 0M281 669l0 -594M281 646l2 0M283 668l0 -556M283 124l1 0M284 668l0 -573M284 122l1 3 0 -1 1 0M286 657l0 -561M286 646l1 0M287 669l0 -548M287 124l1 0M288 666l0 -591"/>
<path stroke="red" d="M288 646l1 0M289 668l0 -556M289 124l1 0M290 653l0 -573M290 646l2 0M292 669l0 -547M292 124l1 0M293 659l0 -562M293 648l1 -4M294 653l0 -547M294 124l1 0M295 646l0 -560M295 646l2 0M297 676l0 -591M297 646l1 0M298 669l0 -547M298 124l2 0"/>
<path stroke="red" d="M300 659l0 -562M300 124l1 0M301 646l0 -560M301 646l2 0M303 655l0 -548M303 124l1 0M304 657l0 -561M304 646l2 0M306 669l0 -594M306 646l1 0M307 668l0 -556M307 124l2 0M309 668l0 -573M309 124l1 0M310 657l0 -561M310 646l2 0M312 669l0 -594"/>
<path stroke="red" d="M312 646l1 0M313 668l0 -556M313 125l1 -1 1 0M315 653l0 -573M315 646l2 0M317 669l0 -547M317 124l1 0M318 659l0 -562M318 124l2 0M320 646l0 -560M320 646l1 0M321 665l0 -546M321 124l2 0M323 670l0 -564M323 646l1 0M324 666l0 -550"/>
<path stroke="red" d="M324 124l1 0M325 651l0 -558M325 646l1 0M326 652l0 -544M326 124l1 0M327 648l0 -562M327 646l2 0M329 666l0 -551M329 124l1 0M330 670l0 -564M330 645l1 1M331 659l0 -547M331 124l1 0M332 661l0 -561M332 646l1 0M333 665l0 -552M333 128l1 -6"/>
<path stroke="red" d="M334 675l0 -566M334 646l1 0M335 666l0 -551M335 124l2 0M337 670l0 -564M337 124l1 0M338 661l0 -561M338 646l2 0M340 654l0 -547M340 124l1 0M341 670l0 -564M341 646l2 0M343 666l0 -573M343 646l1 0M344 652l0 -544M344 124l2 0M346 668l0 -592"/>
<path stroke="red" d="M346 646l1 0M347 669l0 -547M347 124l2 0M349 659l0 -562M349 124l1 0M350 646l0 -560M350 646l2 0M352 655l0 -548M352 124l1 0M353 125l0 -1M353 125l1 -29M354 657l0 -561M354 646l1 0M355 669l0 -594M355 646l2 0M357 668l0 -556M357 124l1 0"/>
<path stroke="red" d="M358 668l0 -573M358 124l2 0M360 657l0 -561M360 646l1 0M361 669l0 -594M361 666l1 -36M362 657l0 -27M362 646l1 0M363 668l0 -556M363 124l1 0M364 653l0 -573M364 646l2 0M366 669l0 -547M366 124l1 0M367 659l0 -562M367 646l1 0M368 653l0 -547"/>
<path stroke="red" d="M368 124l1 0M369 646l0 -560M369 646l1 0M370 658l0 -547M370 124l2 0M372 670l0 -564M372 646l2 0M374 666l0 -573M374 646l1 0M375 652l0 -544M375 124l2 0M377 648l0 -562M377 646l1 0M378 666l0 -551M378 124l2 0M380 670l0 -564M380 124l1 0"/>
<path stroke="red" d="M381 661l0 -561M381 646l2 0M383 675l0 -566M383 646l1 0M384 666l0 -551M384 124l2 0M386 670l0 -564M386 124l1 0M387 661l0 -561M387 646l2 0M389 654l0 -547M389 124l1 0M390 670l0 -564M390 653l1 -13M391 650l0 -10M391 646l1 0M392 666l0 -573"/>
<path stroke="red" d="M392 646l2 0M394 652l0 -544M394 124l1 0M395 667l0 -573M395 124l2 0M397 670l0 -564M397 646l1 0M398 666l0 -573M398 645l1 2 0 -1 1 0M400 652l0 -544M400 124l1 0M401 648l0 -562M401 646l2 0M403 666l0 -551M403 124l1 0M404 670l0 -564"/>
<path stroke="red" d="M404 646l1 0M405 659l0 -547M405 124l1 0M406 661l0 -561M406 646l1 0M407 665l0 -552M407 124l1 0M408 675l0 -566M408 646l1 0M409 666l0 -551M409 124l1 0M410 670l0 -564M410 670l1 -43M411 659l0 -547M411 124l1 0M412 661l0 -561M412 646l2 0"/>
<path stroke="red" d="M414 654l0 -547M414 124l1 0M415 670l0 -564M415 646l2 0M417 666l0 -573M417 646l1 0M418 652l0 -544M418 124l2 0M420 658l0 -581M420 646l1 0M421 669l0 -547M421 124l2 0M423 659l0 -562M423 124l1 0M424 646l0 -560M424 646l2 0M426 655l0 -548"/>
<path stroke="red" d="M426 124l1 0M427 657l0 -561M427 645l1 2 0 -1 1 0M429 669l0 -594M429 646l1 0 0 -1 1 6M431 668l0 -556M431 124l1 0M432 668l0 -573M432 124l2 0M434 657l0 -561M434 646l1 0M435 669l0 -594M435 646l2 0M437 668l0 -556M437 124l1 0"/>
<path stroke="red" d="M438 653l0 -573M438 646l2 0M440 669l0 -547M440 124l1 0M441 659l0 -562M441 646l1 0M442 653l0 -547M442 124l1 0M443 646l0 -560M443 646l3 0M446 669l0 -547M446 124l1 0M447 659l0 -562M447 648l1 -4M448 653l0 -547M448 124l1 0M449 646l0 -560"/>
<path stroke="red" d="M449 646l1 0 1 -1M451 655l0 -548M451 124l1 0M452 657l0 -561M452 646l2 0M454 669l0 -594M454 646l1 0M455 668l0 -556M455 124l2 0M457 668l0 -573M457 124l1 0M458 657l0 -561M458 646l2 0M460 669l0 -594M460 646l1 0M461 668l0 -556"/>
<path stroke="red" d="M461 124l2 0M463 653l0 -573M463 646l1 0M464 669l0 -547M464 124l2 0M466 659l0 -562M466 124l1 0M467 646l0 -560M467 646l2 0M469 658l0 -547M469 124l2 0M471 670l0 -564M471 646l1 0M472 666l0 -573M472 646l2 0M474 652l0 -544M474 124l1 0"/>
<path stroke="red" d="M475 648l0 -562M475 646l2 0M477 666l0 -551M477 124l1 0M478 670l0 -564M478 646l1 0M479 659l0 -547M479 124l1 0M480 661l0 -561M480 646l1 0M481 665l0 -552M481 124l1 0M482 675l0 -566M482 646l1 0M483 666l0 -551M483 124l1 0M484 670l0 -564"/>
<path stroke="red" d="M484 645l1 1M485 659l0 -547M485 124l1 0M486 661l0 -561M486 646l1 0M487 654l0 -547 1 24 0 -10M488 124l1 0M489 670l0 -564M489 646l2 0M491 666l0 -573M491 646l1 0M492 652l0 -544M492 124l2 0M494 667l0 -573M494 124l1 0M495 670l0 -564"/>
<path stroke="red" d="M495 646l2 0M497 666l0 -573M497 646l1 0M498 652l0 -544M498 124l2 0M500 648l0 -562M500 646l1 0M501 666l0 -551M501 124l2 0M503 670l0 -564M503 124l1 0M504 661l0 -561M504 647l1 -2M505 647l0 -2M505 646l1 0M506 675l0 -566M506 646l1 0"/>
<path stroke="red" d="M507 646l1 4M508 666l0 -551M508 124l1 0M509 670l0 -564M509 124l2 0M511 661l0 -561M511 646l1 0M512 654l0 -547M512 124l2 0M514 670l0 -564M514 646l1 0M515 666l0 -573M515 651l1 -9M516 649l0 -7M516 646l1 0M517 652l0 -544M517 124l1 0"/>
<path stroke="red" d="M518 658l0 -581M518 646l2 0M520 669l0 -547M520 124l1 0M521 659l0 -562M521 646l1 0M522 653l0 -547M522 124l1 0M523 646l0 -560M523 646l1 0M524 655l0 -548M524 124l2 0M526 657l0 -561M526 646l2 0M528 669l0 -594M528 646l1 0M529 668l0 -556"/>
<path stroke="red" d="M529 124l2 0M531 668l0 -573M531 124l1 0M532 657l0 -561M532 646l2 0M534 669l0 -594M534 646l1 0M535 668l0 -556M535 124l2 0M537 653l0 -573M537 646l1 0M538 669l0 -547M538 124l2 0M540 659l0 -562M540 124l1 0M541 646l0 -560M541 646l2 0"/>
<path stroke="red" d="M543 668l0 -550M543 124l1 0M544 670l0 -564M544 653l1 -13M545 650l0 -10M545 646l1 0M546 666l0 -573M546 646l2 0M548 652l0 -544M548 124l1 0M549 648l0 -562M549 646l2 0M551 666l0 -551M551 124l1 0M552 670l0 -564M552 124l2 0M554 661l0 -561"/>
<path stroke="red" d="M554 646l1 0M555 665l0 -552M555 124l1 0M556 675l0 -566M556 646l1 0M557 666l0 -551M557 124l1 0M558 670l0 -564M558 646l1 0M559 659l0 -547M559 124l1 0M560 661l0 -561M560 646l1 0M561 654l0 -547M561 124l2 0M563 670l0 -564M563 646l1 0"/>
<path stroke="red" d="M564 666l0 -550 1 11M565 651l0 -558M565 646l1 0M566 652l0 -544M566 124l2 0M568 653l0 -560M568 646l1 0M569 669l0 -547M569 124l2 0M571 659l0 -562M571 124l1 0M572 646l0 -560M572 646l2 0M574 655l0 -548M574 124l1 0M575 657l0 -561"/>
<path stroke="red" d="M575 646l2 0M577 669l0 -594M577 646l1 0M578 668l0 -556M578 124l2 0M580 668l0 -573M580 124l1 0M581 657l0 -561M581 645l1 2 0 -1 1 0M583 669l0 -594M583 646l1 0 0 -1 1 6M585 668l0 -556M585 124l1 0M586 653l0 -573M586 646l2 0"/>
<path stroke="red" d="M588 669l0 -547M588 124l1 0M589 659l0 -562M589 124l2 0M591 646l0 -560M591 646l1 0M592 676l0 -591M592 623l1 39 0 -28M593 646l1 0M594 669l0 -547M594 124l1 0M595 659l0 -562M595 646l1 0M596 653l0 -547M596 124l1 0M597 646l0 -560"/>
<path stroke="red" d="M597 646l1 0M598 655l0 -548M598 124l2 0M600 657l0 -561M600 646l1 0M601 669l0 -548M601 124l1 0M602 666l0 -591M602 646l1 0M603 668l0 -556M603 124l1 0 1 1M605 668l0 -573M605 124l1 0M606 657l0 -561M606 646l2 0M608 669l0 -594"/>
<path stroke="red" d="M608 646l1 0M609 668l0 -556M609 124l2 0M611 653l0 -573M611 646l1 0M612 669l0 -547M612 124l2 0M614 659l0 -562M614 124l1 0M615 646l0 -560M615 646l2 0M617 665l0 -546M617 124l1 0M618 670l0 -564M618 646l2 0M620 666l0 -573M620 646l1 0"/>
<path stroke="red" d="M621 652l0 -544M621 121l1 5 0 -3M622 124l1 0M623 648l0 -562M623 646l2 0M625 666l0 -551M625 124l1 0M626 670l0 -564M626 124l2 0M628 661l0 -561M628 646l1 0M629 675l0 -566M629 642l1 7 0 -5M630 646l1 0M631 666l0 -551M631 124l1 0"/>
<path stroke="red" d="M632 670l0 -564M632 646l1 0M633 659l0 -547M633 124l1 0M634 661l0 -561M634 646l1 0M635 654l0 -547M635 124l2 0M637 670l0 -564M637 646l1 0M638 666l0 -550M638 124l1 0M639 651l0 -558M639 646l1 0M640 652l0 -544M640 124l1 0M641 651l0 -560"/>
<path stroke="red" d="M641 649l1 -5M642 656l0 -548M642 124l1 0M643 670l0 -564M643 646l2 0M645 666l0 -573M645 646l1 0M646 652l0 -544M646 124l2 0M648 648l0 -562M648 646l1 0M649 666l0 -551M649 124l2 0M651 670l0 -564M651 124l1 0M652 661l0 -561M652 646l2 0"/>
<path stroke="red" d="M654 675l0 -566M654 646l1 0M655 666l0 -551M655 124l2 0M657 670l0 -564M657 124l1 0M658 661l0 -561M658 647l1 -2M659 647l0 -2M659 646l1 0M660 654l0 -547M660 124l1 0 0 -18 1 39M662 670l0 -525M662 646l1 0M663 666l0 -573M663 646l2 0"/>
<path stroke="red" d="M665 652l0 -544M665 124l1 0M666 653l0 -560M666 646l2 0M668 669l0 -547M668 124l1 0M669 659l0 -562M669 132l1 -11M670 126l0 -5M670 124l1 0M671 646l0 -560M671 646l1 0M672 655l0 -548M672 124l2 0M674 657l0 -561M674 646l1 0M675 669l0 -548"/>
<path stroke="red" d="M675 124l1 0M676 666l0 -591M676 646l1 0M677 668l0 -556M677 124l1 0M678 656l0 -561M678 645l1 2M679 668l0 -546M679 124l1 0M680 657l0 -561M680 646l2 0M682 669l0 -594M682 646l1 0M683 668l0 -556M683 124l2 0M685 653l0 -573M685 646l1 0"/>
<path stroke="red" d="M686 669l0 -547M686 124l2 0M688 659l0 -562M688 124l1 0M689 646l0 -560M689 646l2 0M691 676l0 -591M691 646l1 0M692 669l0 -547M692 124l2 0M694 659l0 -562M694 124l1 0M695 646l0 -560M695 646l2 0M697 655l0 -548M697 124l1 0M698 657l0 -561"/>
<path stroke="red" d="M698 641l1 9 0 -7M699 646l1 0M700 669l0 -594M700 646l2 0M702 668l0 -556M702 124l1 0M703 668l0 -573M703 124l2 0M705 657l0 -561M705 646l1 0M706 669l0 -594M706 643l1 5 0 -4M707 646l1 0M708 668l0 -556M708 124l1 0M709 653l0 -573"/>
<path stroke="red" d="M709 646l2 0M711 669l0 -547M711 124l1 0M712 659l0 -562M712 646l1 0M713 653l0 -547M713 124l1 0M714 646l0 -560M714 646l1 0M715 665l0 -546M715 124l2 0M717 670l0 -564M717 646l1 0M718 666l0 -550 1 11M719 651l0 -558M719 646l1 0"/>
<path stroke="red" d="M720 652l0 -544M720 124l2 0M722 648l0 -562M722 646l1 0M723 666l0 -551M723 124l2 0M725 670l0 -564M725 124l1 0M726 661l0 -561M726 646l2 0M728 675l0 -566M728 646l1 0M729 666l0 -551M729 124l2 0M731 670l0 -564M731 124l1 0M732 661l0 -561"/>
<path stroke="red" d="M732 646l2 0M734 654l0 -547M734 124l1 0M735 670l0 -564M735 647l1 -2M736 647l0 -2M736 646l1 0M737 666l0 -573M737 646l1 0 0 -1 1 1M739 652l0 -544M739 124l1 0M740 668l0 -592M740 646l2 0M742 669l0 -547M742 124l1 0M743 659l0 -562"/>
<path stroke="red" d="M743 124l2 0M745 646l0 -560M745 646l1 0M746 655l0 -548M746 124l2 0M748 657l0 -561M748 646l1 0M749 669l0 -548M749 124l1 0M750 666l0 -591M750 646l1 0M751 668l0 -556M751 124l1 0M752 656l0 -561M752 646l1 0M753 668l0 -546M753 124l1 0"/>
<path stroke="red" d="M754 657l0 -561M754 646l1 0M755 669l0 -548M755 124l1 0M756 666l0 -591M756 646l1 0M757 668l0 -556M757 124l2 0M759 653l0 -573M759 646l1 0M760 669l0 -547M760 124l2 0M762 659l0 -562M762 124l1 0M763 646l0 -560M763 646l2 0M765 658l0 -547"/>
<path stroke="red" d="M765 124l1 0M766 670l0 -564M766 646l2 0M768 666l0 -573M768 646l1 0M769 652l0 -544M769 124l2 0M771 648l0 -562M771 646l1 0M772 666l0 -551M772 124l2 0M774 670l0 -564M774 124l1 0M775 661l0 -561M775 654l1 -14M776 651l0 -11M776 646l1 0"/>
<path stroke="red" d="M777 675l0 -566M777 646l2 0M779 666l0 -551M779 124l1 0M780 670l0 -564M780 124l2 0M782 661l0 -561M782 646l1 0M783 654l0 -547M783 124l2 0M785 670l0 -564M785 646l1 0M786 666l0 -550M786 124l1 0M787 651l0 -558M787 646l1 0M788 652l0 -544"/>
<path stroke="red" d="M788 124l1 0M789 654l0 -560M789 646l1 0M790 667l0 -544M790 124l1 0M791 670l0 -564M791 646l1 0M792 666l0 -550M792 124l1 0M793 651l0 -558M793 646l1 0M794 652l0 -544M794 124l1 0M795 648l0 -562M795 643l1 5 0 -4M796 646l1 0M797 666l0 -551"/>
<path stroke="red" d="M797 124l2 0M799 670l0 -564M799 124l1 0M800 661l0 -561M800 646l2 0M802 675l0 -566M802 646l1 0M803 666l0 -551M803 124l2 0M805 670l0 -564M805 124l1 0M806 661l0 -561M806 646l2 0M808 654l0 -547M808 124l1 0M809 670l0 -564M809 646l2 0"/>
<path stroke="red" d="M811 666l0 -573M811 646l1 0M812 652l0 -544M812 124l2 0M814 658l0 -581M814 646l1 0M815 669l0 -24M815 669l1 -325 0 -222M816 124l1 0M817 659l0 -562M817 124l2 0M819 646l0 -560M819 646l1 0M820 655l0 -548M820 124l2 0M822 657l0 -561"/>
<path stroke="red" d="M822 646l1 0M823 669l0 -594M823 666l1 -36M824 657l0 -27M824 646l1 0M825 668l0 -556M825 124l1 0M826 656l0 -561M826 646l1 0M827 668l0 -546M827 124l1 0M828 657l0 -561M828 646l1 0M829 669l0 -548M829 124l1 0M830 666l0 -591M830 646l1 0"/>
<path stroke="red" d="M831 668l0 -556M831 124l1 0M832 653l0 -573M832 645l1 2 0 -2M833 646l1 0M834 669l0 -547M834 124l2 0M836 659l0 -562M836 124l1 0M837 646l0 -560M837 646l3 0M840 669l0 -547M840 124l2 0M842 659l0 -562M842 124l1 0M843 646l0 -560"/>
<path stroke="red" d="M843 646l2 0M845 655l0 -548M845 124l1 0M846 657l0 -561M846 646l2 0M848 669l0 -594M848 646l1 0M849 668l0 -556M849 124l2 0M851 668l0 -573M851 124l1 0M852 657l0 -561M852 641l1 9 0 -7M853 646l1 0M854 669l0 -594M854 646l2 0M856 668l0 -556"/>
<path stroke="red" d="M856 124l1 0M857 653l0 -573M857 646l2 0M859 669l0 -547M859 124l1 0M860 659l0 -562M860 124l2 0M862 646l0 -560M862 646l1 0M863 658l0 -547M863 124l2 0M865 670l0 -564M865 646l1 0M866 666l0 -550M866 124l1 0M867 651l0 -558M867 646l1 0"/>
<path stroke="red" d="M868 652l0 -544M868 124l1 0M869 648l0 -562M869 646l2 0M871 666l0 -551M871 124l1 0M872 670l0 -564M872 670l1 -43M873 659l0 -547M873 124l1 0M874 661l0 -561M874 646l2 0M876 675l0 -566M876 646l1 0M877 666l0 -551M877 124l2 0M879 670l0 -564"/>
<path stroke="red" d="M879 124l1 0M880 661l0 -561M880 646l2 0M882 654l0 -547M882 124l1 0M883 670l0 -564M883 646l2 0M885 666l0 -573M885 646l1 0M886 652l0 -544M886 124l2 0M888 667l0 -573M888 124l1 0M889 670l0 -564M889 647l1 -2M890 647l0 -2M890 646l1 0"/>
<path stroke="red" d="M891 666l0 -573M891 646l1 0 0 -1 1 1M893 652l0 -544M893 124l1 0M894 648l0 -562M894 646l2 0M896 666l0 -551M896 124l1 0M897 670l0 -564M897 124l2 0M899 661l0 -561M899 646l1 0M900 675l0 -566M900 675l1 -52M901 662l0 -39M901 646l1 0"/>
<path stroke="red" d="M902 666l0 -551M902 124l1 0M903 670l0 -564M903 646l1 0M904 659l0 -547M904 124l1 0M905 661l0 -561M905 646l1 0M906 654l0 -547M906 124l2 0M908 670l0 -564M908 646l1 0M909 666l0 -550M909 124l1 0M910 651l0 -558M910 646l1 0M911 652l0 -544"/>
<path stroke="red" d="M911 124l2 0M913 658l0 -581M913 646l1 0M914 669l0 -547M914 124l2 0M916 659l0 -562M916 124l1 0M917 646l0 -560M917 646l2 0M919 655l0 -548M919 124l1 0M920 657l0 -561M920 646l2 0M922 669l0 -594M922 646l1 0M923 668l0 -556M923 124l2 0"/>
<path stroke="red" d="M925 668l0 -573M925 124l1 0M926 657l0 -561M926 646l2 0M928 669l0 -594M928 646l1 0M929 668l0 -556M929 125l1 -1 1 0M931 653l0 -573M931 646l2 0M933 669l0 -547M933 124l1 0M934 659l0 -562M934 124l2 0M936 646l0 -560M936 646l1 0"/>
<path stroke="red" d="M937 668l0 -550M937 124l2 0M939 670l0 -564M939 646l1 0M940 666l0 -550M940 124l1 0M941 651l0 -558M941 646l1 0M942 652l0 -544M942 124l1 0M943 648l0 -562M943 646l2 0M945 666l0 -551M945 124l1 0M946 670l0 -564M946 645l1 1M947 659l0 -547"/>
<path stroke="red" d="M947 124l1 0M948 661l0 -561M948 646l1 0M949 665l0 -552M949 128l1 -6M950 675l0 -566M950 646l1 0M951 666l0 -551M951 124l2 0M953 670l0 -564M953 124l1 0M954 661l0 -561M954 646l2 0M956 654l0 -547M956 124l1 0M957 670l0 -564M957 646l2 0"/>
<path stroke="red" d="M959 666l0 -573M959 646l1 0M960 652l0 -544M960 124l2 0M962 653l0 -560M962 646l1 0M963 669l0 -547M963 124l2 0M965 659l0 -562M965 124l1 0M966 646l0 -560M966 646l2 0M968 655l0 -548M968 124l1 0M969 125l0 -1M969 125l1 -29M970 657l0 -561"/>
<path stroke="red" d="M970 646l1 0M971 669l0 -594M971 646l2 0M973 668l0 -556M973 124l1 0"/>
</svg>
