<svg xmlns="http://www.w3.org/2000/svg" xmlns:xlink="http://www.w3.org/1999/xlink" width="2880" height="1577" version="1.1">
<style type="text/css">
.l0{
  fill: #ffffff;
  stroke: #ffffff;
  stroke-linecap:round;
  stroke-linejoin:round;
  stroke-width: 5.25527;
}
.l1{
  fill: #0099cc;
  stroke: #0099cc;
  stroke-linecap:round;
  stroke-linejoin:round;
  stroke-width: 5.25527;
}
.l2{
  fill: #aaaaaa; fill-opacity: 0.2;
  stroke: #aaaaaa;
  stroke-linecap:round;
  stroke-linejoin:round;
  stroke-width: 5.25527;
}
.l3{
  fill: #222222; fill-opacity: 0.5;
  stroke: #222222;
  stroke-linecap:round;
  stroke-linejoin:round;
  stroke-width: 5.25527;
}
.l4{
  fill: #229900;
  stroke: #229900;
  stroke-linecap:round;
  stroke-linejoin:round;
  stroke-width: 5.25527;
}
.l5{
  fill: #bb2200;
  stroke: #bb2200;
  stroke-linecap:round;
  stroke-linejoin:round;
  stroke-width: 5.25527;
}
.l6{
  fill: #0066cc; fill-opacity: 0.5;
  stroke: #0066cc;
  stroke-linecap:round;
  stroke-linejoin:round;
  stroke-width: 5.25527;
}
.l7{
  fill: #ff0000; fill-opacity: 0.5;
  stroke: #ff0000;
  stroke-linecap:round;
  stroke-linejoin:round;
  stroke-width: 5.25527;
}
.l8{
  fill: #888800; fill-opacity: 0.5;
  stroke: #888800;
  stroke-linecap:round;
  stroke-linejoin:round;
  stroke-width: 5.25527;
}
.l9{
  fill: #00aaaa; fill-opacity: 0.5;
  stroke: #00aaaa;
  stroke-linecap:round;
  stroke-linejoin:round;
  stroke-width: 5.25527;
}
.l10{
  fill: #880088;
  stroke: #880088;
  stroke-linecap:round;
  stroke-linejoin:round;
  stroke-width: 5.25527;
}
.l11{
  fill: #00ff00; fill-opacity: 0.5;
  stroke: #00ff00;
  stroke-linecap:round;
  stroke-linejoin:round;
  stroke-width: 5.25527;
}
.l12{
  fill: #0000cc; fill-opacity: 0.5;
  stroke: #0000cc;
  stroke-linecap:round;
  stroke-linejoin:round;
  stroke-width: 5.25527;
}
.l13{
  fill: #666600; fill-opacity: 0.5;
  stroke: #666600;
  stroke-linecap:round;
  stroke-linejoin:round;
  stroke-width: 5.25527;
}
.l14{
  fill: #557755; fill-opacity: 0.2;
  stroke: #557755;
  stroke-linecap:round;
  stroke-linejoin:round;
  stroke-width: 5.25527;
}
.l15{
  fill: #aa2222; fill-opacity: 0.5;
  stroke: #aa2222;
  stroke-linecap:round;
  stroke-linejoin:round;
  stroke-width: 5.25527;
}
.l16{
  fill: #7ccc40; fill-opacity: 0.5;
  stroke: #7ccc40;
  stroke-linecap:round;
  stroke-linejoin:round;
  stroke-width: 5.25527;
}
.l17{
  fill: #00ffcc; fill-opacity: 0.2;
  stroke: #00ffcc;
  stroke-linecap:round;
  stroke-linejoin:round;
  stroke-width: 5.25527;
}
.l18{
  fill: #ce0097; fill-opacity: 0.5;
  stroke: #ce0097;
  stroke-linecap:round;
  stroke-linejoin:round;
  stroke-width: 5.25527;
}
.l19{
  fill: #d2d46b; fill-opacity: 0.2;
  stroke: #d2d46b;
  stroke-linecap:round;
  stroke-linejoin:round;
  stroke-width: 5.25527;
}
.l20{
  fill: #ef6158; fill-opacity: 0.2;
  stroke: #ef6158;
  stroke-linecap:round;
  stroke-linejoin:round;
  stroke-width: 5.25527;
}
.l21{
  fill: #fdb200; fill-opacity: 0.2;
  stroke: #fdb200;
  stroke-linecap:round;
  stroke-linejoin:round;
  stroke-width: 5.25527;
}
text {font-family: Sans-Serif;}
</style>
<rect class="l0" x="0" y="0" width="2880" height="1577"/>
<path class="l4" d="M642.767 248.818L678.156 248.818"/>
<path class="l4" d="M890.49 266.512L925.879 266.512"/>
<path class="l4" d="M642.767 284.207L678.156 284.207"/>
<path class="l4" style="fill:none;" d="M890.49 178.04L678.156 178.04L678.156 354.985L890.49 354.985L890.49 178.04"/>
<path class="l4" d="M642.767 620.402L678.156 620.402"/>
<path class="l4" d="M890.49 638.097L925.879 638.097"/>
<path class="l4" d="M642.767 655.791L678.156 655.791"/>
<path class="l4" style="fill:none;" d="M890.49 549.624L678.156 549.624L678.156 726.569L890.49 726.569L890.49 549.624"/>
<path class="l4" d="M642.767 991.987L678.156 991.987"/>
<path class="l4" d="M890.49 1009.68L925.879 1009.68"/>
<path class="l4" d="M642.767 1027.38L678.156 1027.38"/>
<path class="l4" style="fill:none;" d="M890.49 921.209L678.156 921.209L678.156 1098.15L890.49 1098.15L890.49 921.209"/>
<path class="l4" d="M642.767 1363.57L678.156 1363.57"/>
<path class="l4" d="M890.49 1381.27L925.879 1381.27"/>
<path class="l4" d="M642.767 1398.96L678.156 1398.96"/>
<path class="l4" style="fill:none;" d="M890.49 1292.79L678.156 1292.79L678.156 1469.74L890.49 1469.74L890.49 1292.79"/>
<path class="l4" d="M1049.74 443.457L1085.13 443.457"/>
<path class="l4" d="M1297.46 461.152L1332.85 461.152"/>
<path class="l4" d="M1049.74 478.846L1085.13 478.846"/>
<path class="l4" style="fill:none;" d="M1297.46 372.679L1085.13 372.679L1085.13 549.624L1297.46 549.624L1297.46 372.679"/>
<path class="l4" d="M1049.74 1186.63L1085.13 1186.63"/>
<path class="l4" d="M1297.46 1204.32L1332.85 1204.32"/>
<path class="l4" d="M1049.74 1222.02L1085.13 1222.02"/>
<path class="l4" style="fill:none;" d="M1297.46 1115.85L1085.13 1115.85L1085.13 1292.79L1297.46 1292.79L1297.46 1115.85"/>
<path class="l4" d="M1456.71 815.042L1492.1 815.042"/>
<path class="l4" d="M1704.44 832.736L1739.83 832.736"/>
<path class="l4" d="M1456.71 850.431L1492.1 850.431"/>
<path class="l4" style="fill:none;" d="M1704.44 744.264L1492.1 744.264L1492.1 921.209L1704.44 921.209L1704.44 744.264"/>
<path class="l4" d="M1775.22 832.736L1810.6 832.736"/>
<path class="l4" d="M1987.55 832.736L2022.94 832.736"/>
<path class="l4" style="fill:none;" d="M1810.6 921.209L1810.6 744.264L1987.55 744.264L1987.55 921.209L1810.6 921.209"/>
<path class="l5" d="M779.9 138.227L788.747 138.227L788.747 147.074L779.9 147.074L779.9 138.227z"/>
<path class="l5" d="M638.344 244.394L647.191 244.394L647.191 253.241L638.344 253.241L638.344 244.394z"/>
<path class="l5" d="M921.456 262.088L930.303 262.088L930.303 270.936L921.456 270.936L921.456 262.088z"/>
<path class="l5" d="M638.344 279.783L647.191 279.783L647.191 288.63L638.344 288.63L638.344 279.783z"/>
<path class="l5" d="M779.9 385.95L788.747 385.95L788.747 394.797L779.9 394.797L779.9 385.95z"/>
<path class="l5" d="M1628.13 231.123L1633.66 231.123"/>
<path class="l5" d="M1609.33 239.97L1602.69 231.123L1609.33 222.276L1621.49 222.276L1628.13 231.123L1621.49 239.97L1609.33 239.97"/>
<path class="l5" d="M1631.45 228.911L1635.87 228.911L1635.87 233.335L1631.45 233.335L1631.45 228.911z"/>
<path class="l5" d="M1628.13 284.207L1633.66 284.207"/>
<path class="l5" d="M1609.33 293.054L1602.69 284.207L1609.33 275.359L1621.49 275.359L1628.13 284.207L1621.49 293.054L1609.33 293.054"/>
<path class="l5" d="M1631.45 281.995L1635.87 281.995L1635.87 286.418L1631.45 286.418L1631.45 281.995z"/>
<path class="l5" d="M782.112 122.744L786.535 122.744L786.535 127.168L782.112 127.168L782.112 122.744z"/>
<path class="l5" d="M1649.14 228.911L1653.57 228.911L1653.57 233.335L1649.14 233.335L1649.14 228.911z"/>
<path class="l5" d="M1649.14 281.995L1653.57 281.995L1653.57 286.418L1649.14 286.418L1649.14 281.995z"/>
<path class="l5" d="M782.112 405.856L786.535 405.856L786.535 410.28L782.112 410.28L782.112 405.856z"/>
<path class="l5" d="M779.9 509.812L788.747 509.812L788.747 518.659L779.9 518.659L779.9 509.812z"/>
<path class="l5" d="M638.344 615.979L647.191 615.979L647.191 624.826L638.344 624.826L638.344 615.979z"/>
<path class="l5" d="M921.456 633.673L930.303 633.673L930.303 642.52L921.456 642.52L921.456 633.673z"/>
<path class="l5" d="M638.344 651.368L647.191 651.368L647.191 660.215L638.344 660.215L638.344 651.368z"/>
<path class="l5" d="M779.9 757.535L788.747 757.535L788.747 766.382L779.9 766.382L779.9 757.535z"/>
<path class="l5" d="M782.112 494.329L786.535 494.329L786.535 498.752L782.112 498.752L782.112 494.329z"/>
<path class="l5" d="M782.112 777.441L786.535 777.441L786.535 781.865L782.112 781.865L782.112 777.441z"/>
<path class="l5" d="M779.9 881.396L788.747 881.396L788.747 890.243L779.9 890.243L779.9 881.396z"/>
<path class="l5" d="M638.344 987.563L647.191 987.563L647.191 996.41L638.344 996.41L638.344 987.563z"/>
<path class="l5" d="M921.456 1005.26L930.303 1005.26L930.303 1014.1L921.456 1014.1L921.456 1005.26z"/>
<path class="l5" d="M638.344 1022.95L647.191 1022.95L647.191 1031.8L638.344 1031.8L638.344 1022.95z"/>
<path class="l5" d="M779.9 1129.12L788.747 1129.12L788.747 1137.97L779.9 1137.97L779.9 1129.12z"/>
<path class="l5" d="M782.112 865.913L786.535 865.913L786.535 870.337L782.112 870.337L782.112 865.913z"/>
<path class="l5" d="M782.112 1149.03L786.535 1149.03L786.535 1153.45L782.112 1153.45L782.112 1149.03z"/>
<path class="l5" d="M779.9 1252.98L788.747 1252.98L788.747 1261.83L779.9 1261.83L779.9 1252.98z"/>
<path class="l5" d="M638.344 1359.15L647.191 1359.15L647.191 1368L638.344 1368L638.344 1359.15z"/>
<path class="l5" d="M921.456 1376.84L930.303 1376.84L930.303 1385.69L921.456 1385.69L921.456 1376.84z"/>
<path class="l5" d="M638.344 1394.54L647.191 1394.54L647.191 1403.38L638.344 1403.38L638.344 1394.54z"/>
<path class="l5" d="M779.9 1500.7L788.747 1500.7L788.747 1509.55L779.9 1509.55L779.9 1500.7z"/>
<path class="l5" d="M782.112 1237.5L786.535 1237.5L786.535 1241.92L782.112 1241.92L782.112 1237.5z"/>
<path class="l5" d="M782.112 1520.61L786.535 1520.61L786.535 1525.03L782.112 1525.03L782.112 1520.61z"/>
<path class="l5" d="M1186.87 332.866L1195.72 332.866L1195.72 341.714L1186.87 341.714L1186.87 332.866z"/>
<path class="l5" d="M1045.32 439.034L1054.16 439.034L1054.16 447.881L1045.32 447.881L1045.32 439.034z"/>
<path class="l5" d="M1328.43 456.728L1337.28 456.728L1337.28 465.575L1328.43 465.575L1328.43 456.728z"/>
<path class="l5" d="M1045.32 474.423L1054.16 474.423L1054.16 483.27L1045.32 483.27L1045.32 474.423z"/>
<path class="l5" d="M1186.87 580.59L1195.72 580.59L1195.72 589.437L1186.87 589.437L1186.87 580.59z"/>
<path class="l5" d="M1189.09 317.384L1193.51 317.384L1193.51 321.807L1189.09 321.807L1189.09 317.384z"/>
<path class="l5" d="M1189.09 600.496L1193.51 600.496L1193.51 604.92L1189.09 604.92L1189.09 600.496z"/>
<path class="l5" d="M1186.87 1076.04L1195.72 1076.04L1195.72 1084.88L1186.87 1084.88L1186.87 1076.04z"/>
<path class="l5" d="M1045.32 1182.2L1054.16 1182.2L1054.16 1191.05L1045.32 1191.05L1045.32 1182.2z"/>
<path class="l5" d="M1328.43 1199.9L1337.28 1199.9L1337.28 1208.74L1328.43 1208.74L1328.43 1199.9z"/>
<path class="l5" d="M1045.32 1217.59L1054.16 1217.59L1054.16 1226.44L1045.32 1226.44L1045.32 1217.59z"/>
<path class="l5" d="M1186.87 1323.76L1195.72 1323.76L1195.72 1332.61L1186.87 1332.61L1186.87 1323.76z"/>
<path class="l5" d="M1189.09 1060.55L1193.51 1060.55L1193.51 1064.98L1189.09 1064.98L1189.09 1060.55z"/>
<path class="l5" d="M1189.09 1343.67L1193.51 1343.67L1193.51 1348.09L1189.09 1348.09L1189.09 1343.67z"/>
<path class="l5" d="M1593.85 704.451L1602.69 704.451L1602.69 713.298L1593.85 713.298L1593.85 704.451z"/>
<path class="l5" d="M1452.29 810.618L1461.14 810.618L1461.14 819.465L1452.29 819.465L1452.29 810.618z"/>
<path class="l5" d="M1735.4 828.313L1744.25 828.313L1744.25 837.16L1735.4 837.16L1735.4 828.313z"/>
<path class="l5" d="M1452.29 846.007L1461.14 846.007L1461.14 854.854L1452.29 854.854L1452.29 846.007z"/>
<path class="l5" d="M1593.85 952.174L1602.69 952.174L1602.69 961.021L1593.85 961.021L1593.85 952.174z"/>
<path class="l5" d="M1596.06 688.968L1600.48 688.968L1600.48 693.392L1596.06 693.392L1596.06 688.968z"/>
<path class="l5" d="M1596.06 972.08L1600.48 972.08L1600.48 976.504L1596.06 976.504L1596.06 972.08z"/>
<path class="l5" d="M598.531 248.818L607.378 248.818"/>
<path class="l5" d="M598.531 248.818L591.896 239.97L576.413 239.97L583.048 248.818L576.413 257.665L591.896 257.665L598.531 248.818"/>
<path class="l5" d="M605.167 246.606L609.59 246.606L609.59 251.029L605.167 251.029L605.167 246.606z"/>
<path class="l5" d="M598.531 284.207L607.378 284.207"/>
<path class="l5" d="M598.531 284.207L591.896 275.359L576.413 275.359L583.048 284.207L576.413 293.054L591.896 293.054L598.531 284.207"/>
<path class="l5" d="M605.167 281.995L609.59 281.995L609.59 286.418L605.167 286.418L605.167 281.995z"/>
<path class="l5" d="M598.531 620.402L607.378 620.402"/>
<path class="l5" d="M598.531 620.402L591.896 611.555L576.413 611.555L583.048 620.402L576.413 629.249L591.896 629.249L598.531 620.402"/>
<path class="l5" d="M605.167 618.19L609.59 618.19L609.59 622.614L605.167 622.614L605.167 618.19z"/>
<path class="l5" d="M598.531 655.791L607.378 655.791"/>
<path class="l5" d="M598.531 655.791L591.896 646.944L576.413 646.944L583.048 655.791L576.413 664.638L591.896 664.638L598.531 655.791"/>
<path class="l5" d="M605.167 653.579L609.59 653.579L609.59 658.003L605.167 658.003L605.167 653.579z"/>
<path class="l5" d="M598.531 991.987L607.378 991.987"/>
<path class="l5" d="M598.531 991.987L591.896 983.14L576.413 983.14L583.048 991.987L576.413 1000.83L591.896 1000.83L598.531 991.987"/>
<path class="l5" d="M605.167 989.775L609.59 989.775L609.59 994.199L605.167 994.199L605.167 989.775z"/>
<path class="l5" d="M598.531 1027.38L607.378 1027.38"/>
<path class="l5" d="M598.531 1027.38L591.896 1018.53L576.413 1018.53L583.048 1027.38L576.413 1036.22L591.896 1036.22L598.531 1027.38"/>
<path class="l5" d="M605.167 1025.16L609.59 1025.16L609.59 1029.59L605.167 1029.59L605.167 1025.16z"/>
<path class="l5" d="M598.531 1363.57L607.378 1363.57"/>
<path class="l5" d="M598.531 1363.57L591.896 1354.72L576.413 1354.72L583.048 1363.57L576.413 1372.42L591.896 1372.42L598.531 1363.57"/>
<path class="l5" d="M605.167 1361.36L609.59 1361.36L609.59 1365.78L605.167 1365.78L605.167 1361.36z"/>
<path class="l5" d="M598.531 1398.96L607.378 1398.96"/>
<path class="l5" d="M598.531 1398.96L591.896 1390.11L576.413 1390.11L583.048 1398.96L576.413 1407.81L591.896 1407.81L598.531 1398.96"/>
<path class="l5" d="M605.167 1396.75L609.59 1396.75L609.59 1401.17L605.167 1401.17L605.167 1396.75z"/>
<path class="l5" d="M1894.65 704.451L1903.5 704.451L1903.5 713.298L1894.65 713.298L1894.65 704.451z"/>
<path class="l5" d="M1770.79 828.313L1779.64 828.313L1779.64 837.16L1770.79 837.16L1770.79 828.313z"/>
<path class="l5" d="M2018.52 828.313L2027.36 828.313L2027.36 837.16L2018.52 837.16L2018.52 828.313z"/>
<path class="l5" d="M1894.65 952.174L1903.5 952.174L1903.5 961.021L1894.65 961.021L1894.65 952.174z"/>
<path class="l5" d="M1896.87 688.968L1901.29 688.968L1901.29 693.392L1896.87 693.392L1896.87 688.968z"/>
<path class="l5" d="M1896.87 972.08L1901.29 972.08L1901.29 976.504L1896.87 976.504L1896.87 972.08z"/>
<path class="l5" d="M2058.33 832.736L2073.81 832.736"/>
<path class="l5" d="M2089.29 832.736L2082.66 823.889L2067.18 823.889L2073.81 832.736L2067.18 841.584L2082.66 841.584L2089.29 832.736"/>
<path class="l5" d="M2056.12 830.524L2060.54 830.524L2060.54 834.948L2056.12 834.948L2056.12 830.524z"/>
<path class="l7" d="M784.323 142.651L784.323 178.04"/>
<path class="l7" d="M784.323 354.985L784.323 390.374"/>
<path class="l7" d="M784.323 514.235L784.323 549.624"/>
<path class="l7" d="M784.323 726.569L784.323 761.958"/>
<path class="l7" d="M784.323 885.82L784.323 921.209"/>
<path class="l7" d="M784.323 1098.15L784.323 1133.54"/>
<path class="l7" d="M784.323 1257.4L784.323 1292.79"/>
<path class="l7" d="M784.323 1469.74L784.323 1505.13"/>
<path class="l7" d="M1191.3 337.29L1191.3 372.679"/>
<path class="l7" d="M1191.3 549.624L1191.3 585.013"/>
<path class="l7" d="M1191.3 1080.46L1191.3 1115.85"/>
<path class="l7" d="M1191.3 1292.79L1191.3 1328.18"/>
<path class="l7" d="M1598.27 708.875L1598.27 744.264"/>
<path class="l7" d="M1598.27 921.209L1598.27 956.598"/>
<path class="l7" d="M1899.08 708.875L1899.08 744.264"/>
<path class="l7" d="M1899.08 921.209L1899.08 956.598"/>
<text fill="#222222"  xml:space="preserve" font-size="27.6034" transform="translate(806.442, 387.126)" >xnor_6t_buf</text>
<text fill="#222222"  xml:space="preserve" font-size="18.4023" transform="translate(810.865, 155.821)" >x1</text>
<text fill="#222222"  xml:space="preserve" font-size="18.4023" transform="translate(793.955, 227.887) rotate(270)" >VDD</text>
<text fill="#222222"  xml:space="preserve" font-size="18.4023" transform="translate(687.004, 258.449)" >A</text>
<text fill="#222222"  xml:space="preserve" font-size="18.4023" transform="translate(868.643, 276.144)" >Y</text>
<text fill="#222222"  xml:space="preserve" font-size="18.4023" transform="translate(687.004, 293.838)" >B</text>
<text fill="#222222"  xml:space="preserve" font-size="18.4023" transform="translate(793.955, 346.137) rotate(270)" >GND</text>
<text fill="#222222"  xml:space="preserve" font-size="36.8046" transform="translate(731.24, 282.236)" >XNOR</text>
<text fill="#0099cc"  xml:space="preserve" font-size="30.3638" transform="translate(1531.55, 242.105)" >VDD</text>
<text fill="#0099cc"  xml:space="preserve" font-size="30.3638" transform="translate(1528.55, 295.188)" >GND</text>
<text fill="#0099cc"  xml:space="preserve" font-size="24.8431" transform="translate(724.9, 116.807)" >VDD</text>
<text fill="#0099cc"  xml:space="preserve" font-size="24.8431" transform="translate(1655.78, 222.974)" >VDD</text>
<text fill="#0099cc"  xml:space="preserve" font-size="24.8431" transform="translate(1655.78, 276.057)" >GND</text>
<text fill="#0099cc"  xml:space="preserve" font-size="24.8431" transform="translate(722.9, 432.837)" >GND</text>
<text fill="#222222"  xml:space="preserve" font-size="27.6034" transform="translate(806.442, 758.711)" >xnor_6t_buf</text>
<text fill="#222222"  xml:space="preserve" font-size="18.4023" transform="translate(810.865, 527.406)" >x2</text>
<text fill="#222222"  xml:space="preserve" font-size="18.4023" transform="translate(793.955, 599.471) rotate(270)" >VDD</text>
<text fill="#222222"  xml:space="preserve" font-size="18.4023" transform="translate(687.004, 630.034)" >A</text>
<text fill="#222222"  xml:space="preserve" font-size="18.4023" transform="translate(868.643, 647.728)" >Y</text>
<text fill="#222222"  xml:space="preserve" font-size="18.4023" transform="translate(687.004, 665.423)" >B</text>
<text fill="#222222"  xml:space="preserve" font-size="18.4023" transform="translate(793.955, 717.722) rotate(270)" >GND</text>
<text fill="#222222"  xml:space="preserve" font-size="36.8046" transform="translate(731.24, 653.821)" >XNOR</text>
<text fill="#0099cc"  xml:space="preserve" font-size="24.8431" transform="translate(724.9, 488.391)" >VDD</text>
<text fill="#0099cc"  xml:space="preserve" font-size="24.8431" transform="translate(722.9, 804.422)" >GND</text>
<text fill="#222222"  xml:space="preserve" font-size="27.6034" transform="translate(806.442, 1130.3)" >xnor_6t_buf</text>
<text fill="#222222"  xml:space="preserve" font-size="18.4023" transform="translate(810.865, 898.99)" >x3</text>
<text fill="#222222"  xml:space="preserve" font-size="18.4023" transform="translate(793.955, 971.056) rotate(270)" >VDD</text>
<text fill="#222222"  xml:space="preserve" font-size="18.4023" transform="translate(687.004, 1001.62)" >A</text>
<text fill="#222222"  xml:space="preserve" font-size="18.4023" transform="translate(868.643, 1019.31)" >Y</text>
<text fill="#222222"  xml:space="preserve" font-size="18.4023" transform="translate(687.004, 1037.01)" >B</text>
<text fill="#222222"  xml:space="preserve" font-size="18.4023" transform="translate(793.955, 1089.31) rotate(270)" >GND</text>
<text fill="#222222"  xml:space="preserve" font-size="36.8046" transform="translate(731.24, 1025.41)" >XNOR</text>
<text fill="#0099cc"  xml:space="preserve" font-size="24.8431" transform="translate(724.9, 859.976)" >VDD</text>
<text fill="#0099cc"  xml:space="preserve" font-size="24.8431" transform="translate(722.9, 1176.01)" >GND</text>
<text fill="#222222"  xml:space="preserve" font-size="27.6034" transform="translate(806.442, 1501.88)" >xnor_6t_buf</text>
<text fill="#222222"  xml:space="preserve" font-size="18.4023" transform="translate(810.865, 1270.57)" >x4</text>
<text fill="#222222"  xml:space="preserve" font-size="18.4023" transform="translate(793.955, 1342.64) rotate(270)" >VDD</text>
<text fill="#222222"  xml:space="preserve" font-size="18.4023" transform="translate(687.004, 1373.2)" >A</text>
<text fill="#222222"  xml:space="preserve" font-size="18.4023" transform="translate(868.643, 1390.9)" >Y</text>
<text fill="#222222"  xml:space="preserve" font-size="18.4023" transform="translate(687.004, 1408.59)" >B</text>
<text fill="#222222"  xml:space="preserve" font-size="18.4023" transform="translate(793.955, 1460.89) rotate(270)" >GND</text>
<text fill="#222222"  xml:space="preserve" font-size="36.8046" transform="translate(731.24, 1396.99)" >XNOR</text>
<text fill="#0099cc"  xml:space="preserve" font-size="24.8431" transform="translate(724.9, 1231.56)" >VDD</text>
<text fill="#0099cc"  xml:space="preserve" font-size="24.8431" transform="translate(722.9, 1547.59)" >GND</text>
<text fill="#222222"  xml:space="preserve" font-size="27.6034" transform="translate(1213.42, 581.766)" >xnor_6t_buf</text>
<text fill="#222222"  xml:space="preserve" font-size="18.4023" transform="translate(1217.84, 350.46)" >x5</text>
<text fill="#222222"  xml:space="preserve" font-size="18.4023" transform="translate(1200.93, 422.526) rotate(270)" >VDD</text>
<text fill="#222222"  xml:space="preserve" font-size="18.4023" transform="translate(1093.98, 453.089)" >A</text>
<text fill="#222222"  xml:space="preserve" font-size="18.4023" transform="translate(1275.62, 470.783)" >Y</text>
<text fill="#222222"  xml:space="preserve" font-size="18.4023" transform="translate(1093.98, 488.478)" >B</text>
<text fill="#222222"  xml:space="preserve" font-size="18.4023" transform="translate(1200.93, 540.777) rotate(270)" >GND</text>
<text fill="#222222"  xml:space="preserve" font-size="36.8046" transform="translate(1138.21, 476.876)" >XNOR</text>
<text fill="#0099cc"  xml:space="preserve" font-size="24.8431" transform="translate(1131.87, 311.446)" >VDD</text>
<text fill="#0099cc"  xml:space="preserve" font-size="24.8431" transform="translate(1129.87, 627.477)" >GND</text>
<text fill="#222222"  xml:space="preserve" font-size="27.6034" transform="translate(1213.42, 1324.94)" >xnor_6t_buf</text>
<text fill="#222222"  xml:space="preserve" font-size="18.4023" transform="translate(1217.84, 1093.63)" >x6</text>
<text fill="#222222"  xml:space="preserve" font-size="18.4023" transform="translate(1200.93, 1165.7) rotate(270)" >VDD</text>
<text fill="#222222"  xml:space="preserve" font-size="18.4023" transform="translate(1093.98, 1196.26)" >A</text>
<text fill="#222222"  xml:space="preserve" font-size="18.4023" transform="translate(1275.62, 1213.95)" >Y</text>
<text fill="#222222"  xml:space="preserve" font-size="18.4023" transform="translate(1093.98, 1231.65)" >B</text>
<text fill="#222222"  xml:space="preserve" font-size="18.4023" transform="translate(1200.93, 1283.95) rotate(270)" >GND</text>
<text fill="#222222"  xml:space="preserve" font-size="36.8046" transform="translate(1138.21, 1220.04)" >XNOR</text>
<text fill="#0099cc"  xml:space="preserve" font-size="24.8431" transform="translate(1131.87, 1054.62)" >VDD</text>
<text fill="#0099cc"  xml:space="preserve" font-size="24.8431" transform="translate(1129.87, 1370.65)" >GND</text>
<text fill="#222222"  xml:space="preserve" font-size="27.6034" transform="translate(1620.39, 953.351)" >xnor_6t_buf</text>
<text fill="#222222"  xml:space="preserve" font-size="18.4023" transform="translate(1624.81, 722.045)" >x7</text>
<text fill="#222222"  xml:space="preserve" font-size="18.4023" transform="translate(1607.9, 794.111) rotate(270)" >VDD</text>
<text fill="#222222"  xml:space="preserve" font-size="18.4023" transform="translate(1500.95, 824.673)" >A</text>
<text fill="#222222"  xml:space="preserve" font-size="18.4023" transform="translate(1682.59, 842.368)" >Y</text>
<text fill="#222222"  xml:space="preserve" font-size="18.4023" transform="translate(1500.95, 860.062)" >B</text>
<text fill="#222222"  xml:space="preserve" font-size="18.4023" transform="translate(1607.9, 912.362) rotate(270)" >GND</text>
<text fill="#222222"  xml:space="preserve" font-size="36.8046" transform="translate(1545.19, 848.46)" >XNOR</text>
<text fill="#0099cc"  xml:space="preserve" font-size="24.8431" transform="translate(1538.85, 683.031)" >VDD</text>
<text fill="#0099cc"  xml:space="preserve" font-size="24.8431" transform="translate(1536.85, 999.062)" >GND</text>
<text fill="#0099cc"  xml:space="preserve" font-size="30.3638" transform="translate(546.201, 260.905)" >I0</text>
<text fill="#0099cc"  xml:space="preserve" font-size="30.3638" transform="translate(546.201, 296.294)" >I1</text>
<text fill="#0099cc"  xml:space="preserve" font-size="30.3638" transform="translate(546.201, 632.49)" >I2</text>
<text fill="#0099cc"  xml:space="preserve" font-size="30.3638" transform="translate(546.201, 667.879)" >I3</text>
<text fill="#0099cc"  xml:space="preserve" font-size="30.3638" transform="translate(546.201, 1004.07)" >I4</text>
<text fill="#0099cc"  xml:space="preserve" font-size="30.3638" transform="translate(546.201, 1039.46)" >I5</text>
<text fill="#0099cc"  xml:space="preserve" font-size="30.3638" transform="translate(546.201, 1375.66)" >I6</text>
<text fill="#0099cc"  xml:space="preserve" font-size="30.3638" transform="translate(546.201, 1411.05)" >I7</text>
<text fill="#222222"  xml:space="preserve" font-size="27.6034" transform="translate(1917.66, 953.351)" >not_std</text>
<text fill="#222222"  xml:space="preserve" font-size="18.4023" transform="translate(1925.62, 722.045)" >x8</text>
<text fill="#222222"  xml:space="preserve" font-size="18.4023" transform="translate(1908.71, 794.111) rotate(270)" >VDD</text>
<text fill="#222222"  xml:space="preserve" font-size="18.4023" transform="translate(1819.45, 842.368)" >A</text>
<text fill="#222222"  xml:space="preserve" font-size="18.4023" transform="translate(1965.7, 842.368)" >Y</text>
<text fill="#222222"  xml:space="preserve" font-size="18.4023" transform="translate(1908.71, 912.362) rotate(270)" >GND</text>
<text fill="#222222"  xml:space="preserve" font-size="36.8046" transform="translate(1863.69, 848.46)" >NOT</text>
<text fill="#0099cc"  xml:space="preserve" font-size="24.8431" transform="translate(1839.65, 683.031)" >VDD</text>
<text fill="#0099cc"  xml:space="preserve" font-size="24.8431" transform="translate(1837.65, 999.062)" >GND</text>
<text fill="#0099cc"  xml:space="preserve" font-size="30.3638" transform="translate(2093.72, 844.824)" >O0</text>
<path class="l1" d="M784.323 124.956L784.323 142.651"/>
<path class="l1" d="M1633.66 231.123L1651.35 231.123"/>
<path class="l1" d="M1633.66 284.207L1651.35 284.207"/>
<path class="l1" d="M784.323 390.374L784.323 408.068"/>
<path class="l1" d="M784.323 496.541L784.323 514.235"/>
<path class="l1" d="M784.323 761.958L784.323 779.653"/>
<path class="l1" d="M784.323 868.125L784.323 885.82"/>
<path class="l1" d="M784.323 1133.54L784.323 1151.24"/>
<path class="l1" d="M784.323 1239.71L784.323 1257.4"/>
<path class="l1" d="M784.323 1505.13L784.323 1522.82"/>
<path class="l1" d="M1191.3 319.596L1191.3 337.29"/>
<path class="l1" d="M1191.3 585.013L1191.3 602.708"/>
<path class="l1" d="M1191.3 1062.76L1191.3 1080.46"/>
<path class="l1" d="M1191.3 1328.18L1191.3 1345.88"/>
<path class="l1" d="M1014.35 443.457L1049.74 443.457"/>
<path class="l1" d="M1014.35 266.512L1014.35 443.457"/>
<path class="l1" d="M925.879 266.512L1014.35 266.512"/>
<path class="l1" d="M1014.35 478.846L1049.74 478.846"/>
<path class="l1" d="M1014.35 478.846L1014.35 638.097"/>
<path class="l1" d="M925.879 638.097L1014.35 638.097"/>
<path class="l1" d="M1598.27 691.18L1598.27 708.875"/>
<path class="l1" d="M1598.27 956.598L1598.27 974.292"/>
<path class="l1" d="M1014.35 1186.63L1049.74 1186.63"/>
<path class="l1" d="M1014.35 1009.68L1014.35 1186.63"/>
<path class="l1" d="M925.879 1009.68L1014.35 1009.68"/>
<path class="l1" d="M1014.35 1222.02L1049.74 1222.02"/>
<path class="l1" d="M1014.35 1222.02L1014.35 1381.27"/>
<path class="l1" d="M925.879 1381.27L1014.35 1381.27"/>
<path class="l1" d="M1421.33 850.431L1456.71 850.431"/>
<path class="l1" d="M1421.33 850.431L1421.33 1204.32"/>
<path class="l1" d="M1332.85 1204.32L1421.33 1204.32"/>
<path class="l1" d="M1421.33 815.042L1456.71 815.042"/>
<path class="l1" d="M1421.33 461.152L1421.33 815.042"/>
<path class="l1" d="M1332.85 461.152L1421.33 461.152"/>
<path class="l1" d="M607.378 1363.57L642.767 1363.57"/>
<path class="l1" d="M607.378 1398.96L642.767 1398.96"/>
<path class="l1" d="M607.378 991.987L642.767 991.987"/>
<path class="l1" d="M607.378 1027.38L642.767 1027.38"/>
<path class="l1" d="M607.378 620.402L642.767 620.402"/>
<path class="l1" d="M607.378 655.791L642.767 655.791"/>
<path class="l1" d="M607.378 248.818L642.767 248.818"/>
<path class="l1" d="M607.378 284.207L642.767 284.207"/>
<path class="l1" d="M1739.83 832.736L1775.22 832.736"/>
<path class="l1" d="M1899.08 956.598L1899.08 974.292"/>
<path class="l1" d="M1899.08 691.18L1899.08 708.875"/>
<path class="l1" d="M2022.94 832.736L2058.33 832.736"/>
</svg>
