<?xml version="1.0" standalone="yes"?>
<!DOCTYPE svg PUBLIC "-//W3C//DTD SVG 1.1//EN"
 "http://www.w3.org/Graphics/SVG/1.1/DTD/svg11.dtd">
<svg xmlns="http://www.w3.org/2000/svg" version="1.1"
  width="100%" height="100%" viewBox="0 0 1024 768"
  style="fill: none; stroke-width: 3; font-family: Helvetica;
 font: Helvetica;
">

<!-- Creator: NGspice -->

<rect x="0" y="0" width="1024" height="768" fill="white" stroke="none"/>
<text stroke="none" fill="black" font-size="16" x="358" y="752">
time
</text>
<text stroke="none" fill="black" font-size="16" x="10" y="16">
tran1: Total Supply Current
</text>
<path stroke="black" stroke-width="3" d="M70 704l0 -640"/>
<text stroke="none" fill="black" font-size="16" x="55" y="728">
0.0
</text>
<path stroke="black" stroke-width="3" stroke-dasharray="1,2" d="M217 704l0 -640"/>
<text stroke="none" fill="black" font-size="16" x="202" y="728">
0.5
</text>
<path stroke="black" stroke-width="3" stroke-dasharray="1,2" d="M364 704l0 -640"/>
<text stroke="none" fill="black" font-size="16" x="349" y="728">
1.0
</text>
<path stroke="black" stroke-width="3" stroke-dasharray="1,2" d="M511 704l0 -640"/>
<text stroke="none" fill="black" font-size="16" x="496" y="728">
1.5
</text>
<path stroke="black" stroke-width="3" stroke-dasharray="1,2" d="M658 704l0 -640"/>
<text stroke="none" fill="black" font-size="16" x="643" y="728">
2.0
</text>
<path stroke="black" stroke-width="3" stroke-dasharray="1,2" d="M805 704l0 -640"/>
<text stroke="none" fill="black" font-size="16" x="790" y="728">
2.5
</text>
<path stroke="black" stroke-width="3" stroke-dasharray="1,2" d="M952 704l0 -640"/>
<text stroke="none" fill="black" font-size="16" x="937" y="728">
3.0
</text>
<text stroke="none" fill="black" font-size="16" x="614" y="752">
us
</text>
<path stroke="black" stroke-width="3" stroke-dasharray="1,2" d="M70 704l882 0"/>
<text stroke="none" fill="black" font-size="16" x="8" y="712">
-300.0
</text>
<path stroke="black" stroke-width="3" stroke-dasharray="1,2" d="M70 640l882 0"/>
<text stroke="none" fill="black" font-size="16" x="8" y="648">
-200.0
</text>
<path stroke="black" stroke-width="3" stroke-dasharray="1,2" d="M70 576l882 0"/>
<text stroke="none" fill="black" font-size="16" x="8" y="584">
-100.0
</text>
<path stroke="black" stroke-width="3" d="M70 512l882 0"/>
<text stroke="none" fill="black" font-size="16" x="38" y="520">
0.0
</text>
<path stroke="black" stroke-width="3" stroke-dasharray="1,2" d="M70 448l882 0"/>
<text stroke="none" fill="black" font-size="16" x="18" y="456">
100.0
</text>
<path stroke="black" stroke-width="3" stroke-dasharray="1,2" d="M70 384l882 0"/>
<text stroke="none" fill="black" font-size="16" x="18" y="392">
200.0
</text>
<path stroke="black" stroke-width="3" stroke-dasharray="1,2" d="M70 320l882 0"/>
<text stroke="none" fill="black" font-size="16" x="18" y="328">
300.0
</text>
<path stroke="black" stroke-width="3" stroke-dasharray="1,2" d="M70 256l882 0"/>
<text stroke="none" fill="black" font-size="16" x="18" y="264">
400.0
</text>
<path stroke="black" stroke-width="3" stroke-dasharray="1,2" d="M70 192l882 0"/>
<text stroke="none" fill="black" font-size="16" x="18" y="200">
500.0
</text>
<path stroke="black" stroke-width="3" stroke-dasharray="1,2" d="M70 128l882 0"/>
<text stroke="none" fill="black" font-size="16" x="18" y="136">
600.0
</text>
<path stroke="black" stroke-width="3" stroke-dasharray="1,2" d="M70 64l882 0"/>
<text stroke="none" fill="black" font-size="16" x="18" y="72">
700.0
</text>
<text stroke="none" fill="black" font-size="16" x="10" y="32">
uA
</text>
<path stroke="red" d="M441 23l44 0"/>
<text stroke="none" fill="black" font-size="16" x="495" y="32">
-i(v_supply)
</text>
<path stroke="red" d="M70 682l0 -408M70 519l1 -14M71 682l0 -378M71 568l1 -46M72 680l0 -479M72 497l1 30M73 556l0 -239M73 518l1 -12M74 518l0 -237M74 369l1 43M75 529l0 -185M75 521l1 -18M76 682l0 -408M76 353l1 26M77 526l0 -231M77 526l1 -30M78 533l0 -42"/>
<path stroke="red" d="M78 519l1 -14M79 556l0 -207M79 502l1 20 0 -242M80 510l1 4 0 -4M81 511l1 2M82 678l0 -388M82 519l1 -14M83 556l0 -251M83 532l1 -40M84 532l0 -40M84 518l1 -12M85 556l0 -207M85 503l1 18 0 -241M86 510l1 4 0 -4M87 511l1 2M88 678l0 -478"/>
<path stroke="red" d="M88 509l1 6M89 527l0 -217M89 523l1 -22M90 523l0 -22M90 512l1 0M91 556l0 -239M91 507l1 10M92 529l0 -248M92 526l1 -28M93 526l0 -28M93 520l1 -16M94 682l0 -408M94 500l1 -4M95 574l0 -401M95 487l1 50 0 -50M96 497l1 30M97 556l0 -240"/>
<path stroke="red" d="M97 517l1 -10M98 525l0 -244M98 505l1 14 0 -14M99 513l1 -2M100 682l0 -396M100 517l1 -10M101 520l0 -215M101 515l1 -6M102 515l0 -6 1 6M103 555l0 -206M103 520l1 -16M104 538l0 -258M104 500l1 24M105 527l0 -30 1 30M106 678l0 -377"/>
<path stroke="red" d="M106 507l1 10M107 520l0 -215M107 510l1 3M108 516l0 -8M108 516l1 -8M109 555l0 -206M109 504l1 16M110 538l0 -258M110 525l1 -26M111 678l0 -356 1 22M112 535l0 -333M112 509l1 6M113 574l0 -299M113 533l1 -42M114 556l0 -240M114 504l1 12"/>
<path stroke="red" d="M115 518l0 -12M115 507l1 10M116 525l0 -244M116 515l1 -6M117 682l0 -395M117 511l1 2M118 680l0 -383M118 522l1 -20M119 569l0 -461M119 526l1 -28M120 556l0 -240M120 506l1 12 0 -125 1 -44M122 525l0 -244M122 509l1 5M123 682l0 -396"/>
<path stroke="red" d="M123 513l1 -2M124 529l0 -235M124 468l1 -54M125 520l0 -153M125 511l1 2M126 555l0 -206M126 522l1 -20M127 538l0 -258M127 497l1 29 0 -28 1 28M129 678l0 -377M129 552l1 -82M130 556l0 -251M130 520l1 -16M131 519l0 -15M131 510l1 4"/>
<path stroke="red" d="M132 555l0 -206M132 521l1 -18M133 538l0 -258M133 502l1 20M134 526l0 -28 1 28M135 678l0 -476M135 514l1 -4M136 574l0 -299M136 540l1 -56M137 539l0 -55M137 528l1 -32M138 556l0 -240M138 506l1 12M139 525l0 -244M139 521l1 -18M140 521l0 -18"/>
<path stroke="red" d="M140 512l1 0M141 682l0 -395M141 406l1 -26M142 565l0 -377M142 521l1 -18M143 521l0 -18M143 511l1 2M144 556l0 -239M144 507l1 10M145 529l0 -248M145 499l1 26 0 -26M146 505l1 14M147 682l0 -408M147 507l1 10M148 533l0 -228M148 526l1 -28"/>
<path stroke="red" d="M149 526l0 -28M149 515l1 -6M150 556l0 -207M150 504l1 16 0 -240M151 514l1 -4M152 514l0 -4M152 513l1 -2M153 678l0 -388M153 507l1 10M154 533l0 -228M154 500l1 24 0 -24M155 510l1 4M156 556l0 -207M156 520l1 -16M157 520l0 -240"/>
<path stroke="red" d="M157 514l1 -4M158 560l0 -50M158 560l1 2M159 678l0 -478M159 515l1 -6M160 527l0 -217M160 508l1 8M161 556l0 -175 1 -64M162 518l0 -201M162 517l1 -10M163 529l0 -248M163 523l1 -21M164 682l0 -408M164 516l1 -11M165 681l0 -377M165 529l1 -34"/>
<path stroke="red" d="M166 682l0 -480M166 505l1 14M167 555l0 -239M167 506l1 12 0 -12M168 507l1 10M169 525l0 -244M169 515l1 -6M170 682l0 -396M170 511l1 2M171 529l0 -235M171 372l1 -67M172 520l0 -215M172 513l1 -2M173 555l0 -206M173 502l1 20 0 -242"/>
<path stroke="red" d="M174 364l1 67M175 538l0 -107M175 526l1 -28M176 678l0 -359M176 385l1 -33M177 556l0 -255M177 504l1 16 0 -16M178 514l1 -4M179 555l0 -206M179 503l1 18M180 538l0 -258M180 502l1 20M181 526l0 -28 1 28M182 678l0 -476M182 514l1 -4"/>
<path stroke="red" d="M183 574l0 -299M183 484l1 56 0 -56M184 495l1 34M185 556l0 -240M185 518l1 -12M186 525l0 -244M186 502l1 20 0 -20M187 512l1 0M188 682l0 -395M188 550l1 -18M189 680l0 -459M189 502l1 20 0 -20M190 512l1 0M191 556l0 -239M191 517l1 -10"/>
<path stroke="red" d="M192 529l0 -248M192 525l1 -26M193 525l0 -26M193 520l1 -16M194 682l0 -408M194 518l1 -11M195 533l0 -228M195 526l1 -28M196 526l0 -28M196 515l1 -6M197 556l0 -207M197 504l1 16 0 -240M198 510l1 4 0 -4M199 511l1 2M200 678l0 -388"/>
<path stroke="red" d="M200 517l1 -10M201 533l0 -228M201 525l1 -25M202 524l0 -24M202 515l1 -6M203 556l0 -207M203 504l1 16 0 -240M204 510l1 4 0 -4M205 511l1 2M206 678l0 -478M206 509l1 6M207 527l0 -217M207 517l1 -10M208 556l0 -67 1 -45M209 518l0 -201"/>
<path stroke="red" d="M209 507l1 10M210 529l0 -248M210 523l1 -22M211 682l0 -408M211 345l1 61M212 681l0 -378M212 530l1 -36M213 555l0 -409M213 516l1 -8M214 556l0 -239M214 517l1 -11M215 518l0 -12M215 517l1 -10M216 529l0 -248M216 522l1 -20M217 682l0 -408"/>
<path stroke="red" d="M217 519l1 -14M218 529l0 -234M218 470l1 1M219 533l0 -228M219 504l1 16M220 556l0 -207M220 522l1 -20M221 522l0 -242M221 465l1 -76M222 514l0 -234M222 513l1 -2M223 678l0 -356M223 393l1 20M224 556l0 -266M224 526l1 -30M225 533l0 -42"/>
<path stroke="red" d="M225 519l1 -14M226 556l0 -207M226 502l1 20 0 -242M227 510l1 4 0 -4M228 511l1 2M229 678l0 -478M229 509l1 6M230 527l0 -217M230 525l1 -26M231 525l0 -26M231 513l1 -1M232 556l0 -239M232 507l1 10M233 529l0 -248M233 497l1 30 0 -30"/>
<path stroke="red" d="M234 504l1 16M235 682l0 -408M235 520l1 -16M236 681l0 -486M236 539l1 -54M237 539l0 -54M237 528l1 -32M238 556l0 -240M238 506l1 12M239 525l0 -244M239 503l1 18 0 -18M240 512l1 0M241 682l0 -396M241 517l1 -10M242 520l0 -215M242 516l1 -8"/>
<path stroke="red" d="M243 516l0 -8M243 509l1 6M244 555l0 -206M244 520l1 -16M245 538l0 -258M245 500l1 24M246 527l0 -30 1 30M247 678l0 -377M247 506l1 12M248 520l0 -215M248 515l1 -6M249 516l0 -8 1 8M250 555l0 -206M250 520l1 -16M251 538l0 -258M251 500l1 24"/>
<path stroke="red" d="M252 527l0 -30 1 30M253 678l0 -476M253 515l1 -6M254 574l0 -299M254 534l1 -44M255 534l0 -44M255 526l1 -28M256 556l0 -240M256 507l1 10M257 525l0 -244M257 516l1 -8M258 682l0 -395 1 140M259 680l0 -383M259 523l1 -22M260 678l0 -510"/>
<path stroke="red" d="M260 510l1 4M261 555l0 -239M261 504l1 12M262 518l0 -12M262 507l1 10M263 525l0 -244M263 515l1 -6M264 682l0 -396M264 511l1 2M265 529l0 -235M265 507l1 10M266 520l0 -215M266 512l1 0M267 555l0 -206M267 502l1 20 0 -129 1 -44M269 538l0 -258"/>
<path stroke="red" d="M269 498l1 28M270 678l0 -359M270 491l1 42M271 556l0 -255M271 468l1 -54M272 520l0 -153M272 511l1 2M273 555l0 -206M273 522l1 -20M274 538l0 -258M274 497l1 29 0 -28 1 28M276 678l0 -476M276 510l1 -2M277 574l0 -299M277 482l1 60"/>
<path stroke="red" d="M278 542l0 -60M278 495l1 34M279 556l0 -240M279 518l1 -12M280 525l0 -244M280 501l1 22 0 -22M281 511l1 2M282 682l0 -395M282 531l1 -38M283 680l0 -459M283 524l1 -23M284 523l0 -22M284 512l1 0M285 556l0 -239M285 507l1 10M286 529l0 -248"/>
<path stroke="red" d="M286 498l1 28 0 -28M287 504l1 16M288 682l0 -408M288 506l1 12M289 533l0 -228M289 528l1 -32M290 528l0 -32M290 516l1 -8M291 556l0 -207M291 503l1 18 0 -241M292 510l1 4 0 -4M293 511l1 2M294 678l0 -388M294 518l1 -12M295 533l0 -228"/>
<path stroke="red" d="M295 526l1 -28M296 526l0 -28M296 515l1 -6M297 556l0 -207M297 504l1 16 0 -240M298 514l1 -4M299 514l0 -4M299 513l1 -2M300 678l0 -478M300 515l1 -6M301 527l0 -217M301 506l1 12 0 -12M302 514l1 -4M303 556l0 -239M303 517l1 -10"/>
<path stroke="red" d="M304 529l0 -248M304 523l1 -22M305 560l0 -59M305 560l1 2M306 682l0 -408M306 525l1 -27M307 555l0 -409M307 516l1 -8M308 556l0 -175 1 -64M309 518l0 -201M309 517l1 -10M310 529l0 -248M310 522l1 -20M311 682l0 -408M311 516l1 -11"/>
<path stroke="red" d="M312 529l0 -234M312 517l1 -10M313 533l0 -228M313 521l1 -18M314 556l0 -207M314 501l1 21 0 -20M315 504l1 15 0 -239M316 511l1 2M317 678l0 -356M317 544l1 -64M318 556l0 -266M318 372l1 -67M319 533l0 -228M319 519l1 -14M320 556l0 -207"/>
<path stroke="red" d="M320 502l1 20 0 -242M321 382l1 121M322 514l0 -14M322 511l1 2M323 678l0 -478M323 323l1 53M324 527l0 -217M324 527l1 -30M325 527l0 -30M325 513l1 -2M326 556l0 -239M326 507l1 10M327 529l0 -248M327 528l1 -32M328 528l0 -32M328 521l1 -18"/>
<path stroke="red" d="M329 682l0 -408M329 504l1 16M330 681l0 -486M330 484l1 56 0 -56M331 495l1 34M332 556l0 -240M332 518l1 -12M333 525l0 -244M333 502l1 20 0 -20M334 512l1 0M335 682l0 -396M335 517l1 -10M336 520l0 -215M336 517l1 -10M337 517l0 -10"/>
<path stroke="red" d="M337 509l1 6M338 555l0 -206M338 521l1 -18M339 538l0 -258M339 501l1 22M340 527l0 -30 1 30M341 678l0 -377M341 505l1 13M342 520l0 -215M342 509l1 6 0 -6M343 515l1 -6M344 555l0 -206M344 504l1 16M345 538l0 -258M345 524l1 -24M346 527l0 -30"/>
<path stroke="red" d="M346 527l1 -30M347 678l0 -476M347 509l1 6M348 574l0 -299M348 535l1 -46M349 535l0 -46M349 526l1 -28M350 556l0 -240M350 507l1 10M351 525l0 -244M351 517l1 -10M352 517l0 -10M352 510l1 4M353 682l0 -395M353 470l1 -61M354 678l0 -510"/>
<path stroke="red" d="M354 509l1 6M355 555l0 -66 1 -45M356 518l0 -201M356 507l1 10M357 529l0 -248M357 523l1 -22M358 682l0 -408M358 345l1 61M359 529l0 -234M359 517l1 -10M360 533l0 -228M360 503l1 18M361 556l0 -207M361 523l1 -22M362 523l0 -22M362 520l1 -16"/>
<path stroke="red" d="M363 520l0 -240M363 513l1 -2M364 678l0 -356M364 479l1 66M365 556l0 -266M365 470l1 1M366 533l0 -228M366 504l1 16M367 556l0 -207M367 522l1 -20M368 522l0 -242M368 465l1 -76M369 514l0 -234M369 513l1 -2M370 678l0 -356M370 327l1 12"/>
<path stroke="red" d="M371 527l0 -327M371 527l1 -31M372 527l0 -31M372 513l1 -2M373 556l0 -239M373 507l1 10M374 529l0 -248M374 496l1 32 0 -32M375 503l1 18M376 682l0 -408M376 518l1 -13M377 681l0 -508M377 541l1 -58M378 541l0 -58M378 529l1 -34M379 556l0 -240"/>
<path stroke="red" d="M379 506l1 12M380 525l0 -244M380 523l1 -22M381 522l0 -21M381 513l1 -2M382 682l0 -396M382 507l1 10M383 520l0 -215M383 507l1 10 0 -10M384 514l1 -4M385 555l0 -206M385 503l1 18M386 538l0 -258M386 501l1 22M387 526l0 -28 1 28"/>
<path stroke="red" d="M388 678l0 -377M388 486l1 24M389 520l0 -215M389 516l1 -8M390 516l0 -8M390 509l1 6M391 555l0 -206M391 520l1 -16M392 538l0 -258M392 500l1 24M393 527l0 -30 1 30M394 678l0 -476M394 515l1 -6M395 574l0 -299M395 489l1 46 0 -46"/>
<path stroke="red" d="M396 497l1 30M397 556l0 -240M397 517l1 -10M398 525l0 -244M398 506l1 12 0 -12M399 513l1 -2M400 682l0 -395M400 412l1 -17M401 569l0 -460M401 529l1 -34M402 529l0 -34M402 521l1 -18M403 556l0 -240M403 507l1 10M404 525l0 -244M404 517l1 -10"/>
<path stroke="red" d="M405 682l0 -396 1 141M406 529l0 -235M406 507l1 10M407 520l0 -215M407 511l1 2M408 555l0 -206M408 499l1 25 0 -24M409 504l1 16M410 538l0 -258M410 525l1 -26M411 678l0 -360M411 535l1 -46M412 556l0 -255M412 515l1 -6M413 520l0 -215"/>
<path stroke="red" d="M413 512l1 0M414 555l0 -206M414 502l1 20 0 -129 1 -44M416 538l0 -258M416 498l1 28M417 678l0 -360M417 491l1 42 0 -331M418 355l1 30M419 574l0 -194M419 494l1 36M420 556l0 -240M420 518l1 -12M421 523l0 -242M421 498l1 26M422 525l0 -26"/>
<path stroke="red" d="M422 511l1 2M423 682l0 -395M423 522l1 -45M424 680l0 -493M424 498l1 28 0 -28M425 511l1 2M426 556l0 -239M426 517l1 -11M427 529l0 -248M427 527l1 -30M428 527l0 -30M428 520l1 -16M429 682l0 -408M429 518l1 -12M430 533l0 -228M430 530l1 -36"/>
<path stroke="red" d="M431 530l0 -36M431 517l1 -10M432 556l0 -207M432 503l1 18 0 -241M433 510l1 4 0 -4M434 511l1 2M435 678l0 -388M435 471l1 -78M436 533l0 -228M436 528l1 -32M437 528l0 -32M437 516l1 -8M438 556l0 -207M438 503l1 18 0 -241M439 510l1 4"/>
<path stroke="red" d="M440 514l0 -4M440 511l1 2M441 678l0 -478M441 509l1 6M442 527l0 -217M442 520l1 -15M443 519l0 -14M443 511l1 2M444 556l0 -239M444 507l1 10M445 529l0 -248M445 524l1 -24M446 524l0 -24M446 519l1 -14M447 682l0 -408M447 526l1 -3"/>
<path stroke="red" d="M448 682l0 -481M448 537l1 -48M449 532l0 -196M449 504l1 16M450 556l0 -239M450 517l1 -10M451 529l0 -248M451 523l1 -22M452 560l0 -59M452 560l1 2M453 682l0 -408M453 517l1 -10M454 533l0 -228M454 502l1 20M455 556l0 -172M455 400l1 -51"/>
<path stroke="red" d="M456 526l0 -177M456 520l1 -16M457 520l0 -240M457 514l1 -4M458 678l0 -356M458 464l1 92 0 -266M459 509l1 6M460 533l0 -228M460 521l1 -18M461 556l0 -207M461 501l1 21 0 -20M462 504l1 16 0 -240M463 511l1 2M464 678l0 -356M464 544l1 -64"/>
<path stroke="red" d="M465 544l0 -344M465 310l1 52M466 527l0 -214M466 514l1 -4M467 556l0 -239M467 506l1 12 0 -237M468 344l1 160M469 529l0 -38M469 503l1 18M470 682l0 -408M470 430l1 -49M471 681l0 -508M471 545l1 -65M472 544l0 -64M472 530l1 -36M473 556l0 -240"/>
<path stroke="red" d="M473 506l1 12M474 525l0 -244M474 500l1 24 0 -24M475 511l1 2M476 682l0 -396M476 517l1 -10M477 520l0 -215M477 518l1 -12M478 518l0 -12M478 510l1 4M479 555l0 -206M479 521l1 -18M480 538l0 -258M480 501l1 22M481 526l0 -28 1 28"/>
<path stroke="red" d="M482 678l0 -377M482 540l1 -34M483 520l0 -215M483 517l1 -10M484 517l0 -10M484 509l1 6M485 555l0 -206M485 521l1 -18M486 538l0 -258M486 501l1 22M487 527l0 -30 1 30M488 678l0 -476M488 515l1 -6M489 574l0 -299M489 537l1 -49M490 536l0 -48"/>
<path stroke="red" d="M490 527l1 -30M491 556l0 -240M491 507l1 10M492 525l0 -244M492 519l1 -13M493 518l0 -12M493 511l1 2M494 682l0 -395M494 531l1 -38M495 569l0 -461M495 530l1 -36M496 530l0 -36M496 522l1 -20M497 556l0 -240M497 507l1 10M498 525l0 -244"/>
<path stroke="red" d="M498 517l1 -10M499 517l0 -10M499 511l1 2M500 682l0 -396M500 507l1 10M501 520l0 -215M501 511l1 2M502 555l0 -65 1 -45M503 526l0 -177M503 504l1 16M504 538l0 -258M504 499l1 26M505 678l0 -356M505 425l1 -11M506 556l0 -255M506 509l1 6"/>
<path stroke="red" d="M507 520l0 -215M507 512l1 0M508 555l0 -206M508 523l1 -22M509 523l0 -22M509 520l1 -16M510 538l0 -258M510 499l1 26M511 678l0 -360M511 490l1 44 0 -332M512 470l1 1M513 574l0 -299M513 493l1 38M514 556l0 -240M514 518l1 -12M515 518l0 -237"/>
<path stroke="red" d="M515 369l1 39M516 525l0 -167M516 510l1 4M517 682l0 -395M517 394l1 22M518 680l0 -492M518 527l1 -31M519 527l0 -31M519 514l1 -3M520 556l0 -239M520 506l1 12M521 529l0 -248M521 496l1 32 0 -32M522 503l1 18M523 682l0 -408M523 506l1 12"/>
<path stroke="red" d="M524 533l0 -228M524 532l1 -40M525 532l0 -40M525 518l1 -12M526 556l0 -207M526 503l1 18 0 -241M527 510l1 4 0 -4M528 511l1 2M529 678l0 -388M529 518l1 -12M530 556l0 -251M530 530l1 -35M531 529l0 -34M531 517l1 -10M532 556l0 -207"/>
<path stroke="red" d="M532 503l1 18 0 -241M533 514l1 -4M534 514l0 -4M534 513l1 -2M535 678l0 -478M535 515l1 -6M536 527l0 -217M536 503l1 18 0 -18M537 513l1 -2M538 556l0 -239M538 517l1 -10M539 529l0 -248M539 525l1 -26M540 525l0 -26M540 519l1 -14"/>
<path stroke="red" d="M541 682l0 -408M541 514l1 -4M542 682l0 -480M542 518l1 -12M543 519l0 -14M543 518l1 -12M544 555l0 -239M544 517l1 -10M545 525l0 -244M545 506l1 12 0 -12M546 513l1 -2M547 682l0 -396M547 517l1 -10M548 520l0 -215M548 511l1 2M549 516l0 -8"/>
<path stroke="red" d="M549 516l1 -8M550 555l0 -206M550 504l1 16M551 538l0 -258M551 525l1 -26M552 678l0 -356 1 22M553 556l0 -255M553 516l1 -8M554 520l0 -215M554 512l1 0M555 555l0 -206M555 499l1 25 0 -24M556 504l1 16M557 538l0 -258M557 525l1 -26"/>
<path stroke="red" d="M558 678l0 -359M558 534l1 -44M559 534l0 -332M559 509l1 6M560 574l0 -299M560 531l1 -38M561 556l0 -240M561 506l1 12 0 -125 1 -44M563 525l0 -244M563 510l1 4M564 682l0 -395M564 513l1 -2M565 680l0 -459M565 347l1 38M566 527l0 -142"/>
<path stroke="red" d="M566 510l1 4M567 556l0 -239M567 518l1 -12M568 529l0 -248M568 529l1 -34M569 529l0 -34M569 521l1 -18M570 682l0 -408M570 509l1 -9M571 533l0 -228M571 491l1 42 0 -42M572 506l1 12M573 556l0 -207M573 521l1 -18M574 521l0 -241M574 514l1 -4"/>
<path stroke="red" d="M575 514l0 -4M575 513l1 -2M576 678l0 -388M576 506l1 12M577 556l0 -251M577 530l1 -36M578 530l0 -36M578 517l1 -10M579 556l0 -207M579 503l1 18 0 -241M580 510l1 4 0 -4M581 511l1 2M582 678l0 -478M582 509l1 6M583 527l0 -217M583 521l1 -18"/>
<path stroke="red" d="M584 521l0 -18M584 511l1 2M585 556l0 -239M585 507l1 10M586 529l0 -248M586 499l1 26 0 -26M587 504l1 16M588 682l0 -408M588 510l1 4M589 555l0 -409M589 511l1 2M590 520l0 -16 1 16M591 556l0 -239M591 507l1 10M592 529l0 -248M592 524l1 -24"/>
<path stroke="red" d="M593 524l0 -24M593 519l1 -14M594 682l0 -408M594 517l1 -10M595 533l0 -228M595 500l1 24 0 -24M596 510l1 4M597 556l0 -207M597 520l1 -16M598 520l0 -240M598 514l1 -4M599 560l0 -50M599 560l1 2M600 678l0 -388M600 508l1 8M601 533l0 -228"/>
<path stroke="red" d="M601 502l1 20M602 556l0 -172M602 400l1 -51M603 526l0 -177M603 520l1 -16M604 520l0 -240M604 514l1 -4M605 678l0 -356M605 464l1 92 0 -356M606 515l1 -6M607 527l0 -217M607 515l1 -6M608 556l0 -239M608 506l1 12 0 -12M609 507l1 10"/>
<path stroke="red" d="M610 529l0 -248M610 502l1 20M611 682l0 -408M611 505l1 14M612 681l0 -486M612 309l1 49M613 574l0 -299M613 531l1 -38M614 556l0 -240M614 506l1 12 0 -237M615 358l1 33M616 525l0 -134M616 514l1 -4M617 682l0 -396M617 333l1 92M618 520l0 -215"/>
<path stroke="red" d="M618 504l1 16 0 -16M619 514l1 -4M620 555l0 -206M620 503l1 18M621 538l0 -258M621 502l1 20M622 526l0 -28 1 28M623 678l0 -377M623 523l1 -22M624 556l0 -251M624 518l1 -12M625 518l0 -12M625 510l1 4M626 555l0 -206M626 521l1 -18"/>
<path stroke="red" d="M627 538l0 -258M627 501l1 22M628 526l0 -28 1 28M629 678l0 -476M629 514l1 -4M630 574l0 -299M630 486l1 52 0 -52M631 496l1 32M632 556l0 -240M632 517l1 -10M633 525l0 -244M633 504l1 16 0 -16M634 512l1 0M635 682l0 -395M635 483l1 55"/>
<path stroke="red" d="M636 678l0 -510M636 522l1 -20M637 556l0 -207M637 509l1 6M638 555l0 -239M638 507l1 10M639 525l0 -244M639 519l1 -14M640 519l0 -14M640 511l1 2M641 682l0 -396M641 507l1 10M642 520l0 -215M642 510l1 4M643 516l0 -8M643 516l1 -8"/>
<path stroke="red" d="M644 555l0 -206M644 504l1 16M645 538l0 -258M645 525l1 -26M646 527l0 -30M646 527l1 -30M647 678l0 -377M647 516l1 -8M648 520l0 -215M648 511l1 2M649 555l0 -65 1 -45M650 526l0 -177M650 504l1 16M651 538l0 -258M651 499l1 26M652 678l0 -356"/>
<path stroke="red" d="M652 425l1 -11M653 534l0 -332M653 515l1 -6M654 574l0 -299M654 492l1 40M655 556l0 -240M655 518l1 -12M656 518l0 -12M656 517l1 -10M657 525l0 -244M657 509l1 6M658 682l0 -395M658 513l1 -2M659 680l0 -459M659 470l1 0M660 527l0 -218"/>
<path stroke="red" d="M660 509l1 5M661 556l0 -239M661 518l1 -12M662 518l0 -237M662 369l1 43M663 529l0 -185M663 521l1 -18M664 682l0 -408M664 353l1 26M665 526l0 -231M665 526l1 -30M666 533l0 -42M666 519l1 -14M667 556l0 -207M667 502l1 20 0 -242M668 510l1 4"/>
<path stroke="red" d="M669 514l0 -4M669 511l1 2M670 678l0 -388M670 519l1 -14M671 556l0 -251M671 532l1 -40M672 532l0 -40M672 518l1 -11M673 556l0 -207M673 503l1 18 0 -241M674 510l1 4 0 -4M675 511l1 2M676 678l0 -478M676 509l1 6M677 527l0 -217M677 523l1 -22"/>
<path stroke="red" d="M678 523l0 -22M678 512l1 0M679 556l0 -239M679 507l1 10M680 529l0 -248M680 526l1 -28M681 526l0 -28M681 520l1 -16M682 682l0 -408M682 500l1 -4M683 555l0 -409M683 512l1 0M684 520l0 -16M684 520l1 -16M685 556l0 -239M685 517l1 -10"/>
<path stroke="red" d="M686 529l0 -248M686 525l1 -26M687 525l0 -26M687 519l1 -14M688 682l0 -408M688 517l1 -10M689 533l0 -228M689 499l1 26 0 -26M690 509l1 6M691 556l0 -207M691 520l1 -16M692 520l0 -240M692 514l1 -4M693 514l0 -4M693 513l1 -2M694 678l0 -388"/>
<path stroke="red" d="M694 507l1 10M695 533l0 -228M695 523l1 -22M696 523l0 -22M696 514l1 -4M697 556l0 -207M697 504l1 16 0 -240M698 510l1 4M699 678l0 -356 1 22M700 565l0 -365M700 509l1 6M701 527l0 -217M701 516l1 -8M702 556l0 -239M702 504l1 12"/>
<path stroke="red" d="M703 518l0 -12M703 507l1 10M704 529l0 -248M704 502l1 20M705 682l0 -408M705 505l1 14M706 681l0 -486M706 480l1 64M707 574l0 -299M707 531l1 -38M708 556l0 -240M708 506l1 12 0 -125 1 -44M710 525l0 -244M710 510l1 4M711 682l0 -396"/>
<path stroke="red" d="M711 513l1 -2M712 529l0 -235M712 468l1 -54M713 520l0 -153M713 511l1 2M714 555l0 -206M714 522l1 -20M715 538l0 -258M715 497l1 29 0 -28 1 28M717 678l0 -377M717 552l1 -82M718 556l0 -251M718 520l1 -16M719 519l0 -15M719 510l1 4"/>
<path stroke="red" d="M720 555l0 -206M720 521l1 -18M721 538l0 -258M721 502l1 20M722 526l0 -28 1 28M723 678l0 -476M723 514l1 -4M724 574l0 -299M724 540l1 -56M725 539l0 -55M725 528l1 -32M726 556l0 -240M726 506l1 12M727 525l0 -244M727 521l1 -18M728 521l0 -18"/>
<path stroke="red" d="M728 512l1 0M729 682l0 -395M729 406l1 -26M730 678l0 -510M730 510l1 4M731 516l0 -8 1 8M732 555l0 -238M732 507l1 10M733 529l0 -248M733 499l1 26 0 -26M734 505l1 14M735 682l0 -408M735 507l1 10M736 533l0 -228M736 526l1 -28M737 526l0 -28"/>
<path stroke="red" d="M737 515l1 -6M738 556l0 -207M738 504l1 16 0 -240M739 514l1 -4M740 514l0 -4M740 513l1 -2M741 678l0 -388M741 507l1 10M742 533l0 -228M742 500l1 24 0 -24M743 510l1 4M744 556l0 -207M744 520l1 -16M745 520l0 -240M745 514l1 -4M746 560l0 -50"/>
<path stroke="red" d="M746 560l1 2M747 678l0 -478M747 515l1 -6M748 527l0 -217M748 508l1 8M749 556l0 -175 1 -64M750 518l0 -201M750 517l1 -10M751 529l0 -248M751 523l1 -21M752 682l0 -408M752 516l1 -11M753 681l0 -508M753 491l1 42M754 574l0 -299M754 532l1 -40"/>
<path stroke="red" d="M755 556l0 -240M755 506l1 12 0 -12M756 507l1 10M757 525l0 -244M757 515l1 -6M758 682l0 -396M758 511l1 2M759 529l0 -235M759 372l1 -67M760 520l0 -215M760 513l1 -2M761 555l0 -206M761 502l1 20 0 -242M762 364l1 68M763 538l0 -106"/>
<path stroke="red" d="M763 526l1 -28M764 678l0 -360M764 385l1 -33M765 556l0 -255M765 504l1 16 0 -16M766 513l1 -2M767 555l0 -206M767 503l1 18M768 538l0 -258M768 502l1 20M769 526l0 -28 1 28M770 678l0 -476M770 514l1 -4M771 574l0 -299M771 484l1 56"/>
<path stroke="red" d="M772 540l0 -56M772 495l1 34M773 556l0 -240M773 518l1 -12M774 525l0 -244M774 502l1 20 0 -20M775 512l1 0M776 682l0 -395M776 550l1 -18M777 680l0 -571M777 491l1 42 0 -42M778 501l1 22M779 556l0 -240M779 518l1 -12M780 525l0 -244"/>
<path stroke="red" d="M780 504l1 16 0 -16M781 512l1 0M782 682l0 -396M782 517l1 -10M783 520l0 -215M783 509l1 6 0 -6M784 515l1 -6M785 555l0 -206M785 504l1 16M786 538l0 -258M786 524l1 -24M787 527l0 -30M787 527l1 -30M788 678l0 -377M788 517l1 -10"/>
<path stroke="red" d="M789 520l0 -215M789 510l1 4M790 516l0 -8M790 516l1 -8M791 555l0 -206M791 504l1 16M792 538l0 -258M792 525l1 -26M793 527l0 -30M793 527l1 -30M794 678l0 -476M794 509l1 6M795 574l0 -299M795 533l1 -42M796 556l0 -67 1 -45M797 518l0 -202"/>
<path stroke="red" d="M797 507l1 10M798 525l0 -244M798 508l1 8M799 682l0 -395M799 377l1 -20M800 680l0 -493M800 494l1 36 0 -221M801 508l1 8M802 556l0 -239M802 517l1 -11M803 518l0 -12M803 517l1 -10M804 529l0 -248M804 522l1 -20M805 682l0 -408M805 519l1 -14"/>
<path stroke="red" d="M806 529l0 -234M806 470l1 1M807 533l0 -228M807 504l1 16M808 556l0 -207M808 522l1 -20M809 522l0 -242M809 465l1 -76M810 514l0 -234M810 513l1 -2M811 678l0 -356M811 393l1 20M812 556l0 -266M812 526l1 -30M813 533l0 -42M813 519l1 -14"/>
<path stroke="red" d="M814 556l0 -207M814 502l1 20 0 -242M815 510l1 4 0 -4M816 511l1 2M817 678l0 -478M817 509l1 6M818 527l0 -217M818 525l1 -26M819 525l0 -26M819 513l1 -2M820 556l0 -239M820 507l1 10M821 529l0 -248M821 497l1 30 0 -30M822 504l1 16"/>
<path stroke="red" d="M823 682l0 -408M823 520l1 -16M824 682l0 -481M824 327l1 181M825 680l0 -344M825 523l1 -22M826 556l0 -239M826 507l1 10M827 529l0 -248M827 526l1 -28M828 526l0 -28M828 520l1 -16M829 682l0 -408M829 518l1 -12M830 533l0 -228M830 497l1 30"/>
<path stroke="red" d="M831 527l0 -30M831 508l1 8M832 556l0 -207M832 520l1 -16M833 520l0 -240M833 514l1 -4M834 514l0 -4M834 513l1 -2M835 678l0 -388M835 506l1 12M836 533l0 -228M836 499l1 26 0 -26M837 509l1 6M838 556l0 -207M838 520l1 -16M839 520l0 -240"/>
<path stroke="red" d="M839 514l1 -4M840 514l0 -4M840 513l1 -2M841 678l0 -478M841 515l1 -6M842 527l0 -217M842 517l1 -10M843 517l0 -10M843 510l1 4M844 556l0 -239M844 507l1 10M845 529l0 -248M845 501l1 22M846 682l0 -393 1 141M847 681l0 -508M847 535l1 -46"/>
<path stroke="red" d="M848 574l0 -299M848 533l1 -42M849 556l0 -240M849 504l1 12M850 518l0 -12M850 507l1 10M851 525l0 -244M851 516l1 -7M852 682l0 -396M852 511l1 2M853 529l0 -235M853 508l1 8M854 520l0 -215M854 512l1 0M855 555l0 -206M855 502l1 20"/>
<path stroke="red" d="M856 522l0 -129 1 -44M857 538l0 -258M857 498l1 28M858 678l0 -360M858 491l1 42M859 556l0 -255M859 468l1 -54M860 520l0 -153M860 511l1 2M861 555l0 -206M861 522l1 -20M862 538l0 -258M862 497l1 29 0 -28 1 28M864 678l0 -476M864 510l1 -2"/>
<path stroke="red" d="M865 574l0 -299M865 482l1 60 0 -60M866 495l1 34M867 556l0 -240M867 518l1 -12M868 525l0 -244M868 501l1 22 0 -22M869 511l1 2M870 682l0 -395M870 531l1 -38M871 680l0 -572M871 535l1 -46M872 534l0 -45M872 523l1 -22M873 556l0 -240"/>
<path stroke="red" d="M873 506l1 12M874 525l0 -244M874 521l1 -18M875 521l0 -18M875 512l1 0M876 682l0 -396M876 507l1 10M877 520l0 -215M877 508l1 8 0 -8M878 515l1 -6M879 555l0 -206M879 503l1 17M880 538l0 -258M880 524l1 -24M881 527l0 -30M881 527l1 -30"/>
<path stroke="red" d="M882 678l0 -377M882 518l1 -12M883 520l0 -215M883 509l1 6 0 -6M884 515l1 -6M885 555l0 -206M885 504l1 16M886 538l0 -258M886 500l1 24M887 527l0 -30 1 30M888 678l0 -476M888 515l1 -6M889 574l0 -299M889 490l1 44 0 -44M890 498l1 28"/>
<path stroke="red" d="M891 556l0 -240M891 517l1 -10M892 525l0 -244M892 507l1 10M893 560l0 -53M893 560l1 2M894 682l0 -494M894 422l1 129 0 -242M895 507l1 9M896 556l0 -175 1 -64M897 518l0 -201M897 517l1 -10M898 529l0 -248M898 522l1 -20M899 682l0 -408"/>
<path stroke="red" d="M899 516l1 -11M900 529l0 -234M900 517l1 -10M901 533l0 -228M901 521l1 -18M902 556l0 -207M902 501l1 21 0 -20M903 504l1 15 0 -239M904 511l1 2M905 678l0 -356M905 544l1 -64M906 556l0 -266M906 372l1 -67M907 533l0 -228M907 519l1 -14"/>
<path stroke="red" d="M908 556l0 -207M908 502l1 20 0 -242M909 382l1 121M910 514l0 -14M910 511l1 2M911 678l0 -478M911 323l1 53M912 527l0 -217M912 527l1 -30M913 527l0 -30M913 513l1 -2M914 556l0 -239M914 507l1 10M915 529l0 -248M915 528l1 -32M916 528l0 -32"/>
<path stroke="red" d="M916 521l1 -18M917 682l0 -408M917 504l1 16M918 682l0 -480M918 519l1 -32M919 519l0 -233M919 518l1 -12M920 555l0 -239M920 518l1 -12M921 525l0 -244M921 502l1 20 0 -20M922 512l1 0M923 682l0 -396M923 517l1 -10M924 520l0 -215"/>
<path stroke="red" d="M924 517l1 -10M925 517l0 -10M925 509l1 6M926 555l0 -206M926 521l1 -18M927 538l0 -258M927 501l1 22M928 527l0 -30 1 30M929 678l0 -377M929 505l1 13M930 520l0 -215M930 509l1 6 0 -6M931 515l1 -6M932 555l0 -206M932 504l1 16M933 538l0 -258"/>
<path stroke="red" d="M933 524l1 -24M934 527l0 -30M934 527l1 -30M935 678l0 -476M935 509l1 6M936 574l0 -299M936 535l1 -46M937 535l0 -46M937 526l1 -28M938 556l0 -240M938 507l1 10M939 525l0 -244M939 517l1 -10M940 517l0 -10M940 510l1 4M941 682l0 -461"/>
<path stroke="red" d="M941 353l1 -84M942 529l0 -260M942 517l1 -10M943 556l0 -67 1 -45M944 518l0 -201M944 507l1 10M945 529l0 -248M945 523l1 -22M946 682l0 -408M946 345l1 61M947 529l0 -234M947 517l1 -10M948 533l0 -228M948 503l1 18M949 556l0 -207"/>
<path stroke="red" d="M949 523l1 -22M950 523l0 -22M950 520l1 -16M951 520l0 -240M951 514l1 -4M952 514l0 -4"/>
</svg>
