<?xml version="1.0" standalone="yes"?>
<!DOCTYPE svg PUBLIC "-//W3C//DTD SVG 1.1//EN"
 "http://www.w3.org/Graphics/SVG/1.1/DTD/svg11.dtd">
<svg xmlns="http://www.w3.org/2000/svg" version="1.1"
  width="100%" height="100%" viewBox="0 0 1024 768"
  style="fill: none; stroke-width: 3; font-family: Helvetica;
 font: Helvetica;
">

<!-- Creator: NGspice -->

<rect x="0" y="0" width="1024" height="768" fill="white" stroke="none"/>
<text stroke="none" fill="black" font-size="16" x="358" y="752">
time
</text>
<text stroke="none" fill="black" font-size="16" x="10" y="16">
tran1: Even Parity Output
</text>
<path stroke="black" stroke-width="3" d="M50 704l0 -636"/>
<text stroke="none" fill="black" font-size="16" x="35" y="728">
0.0
</text>
<path stroke="black" stroke-width="3" stroke-dasharray="1,2" d="M204 704l0 -636"/>
<text stroke="none" fill="black" font-size="16" x="189" y="728">
0.5
</text>
<path stroke="black" stroke-width="3" stroke-dasharray="1,2" d="M358 704l0 -636"/>
<text stroke="none" fill="black" font-size="16" x="343" y="728">
1.0
</text>
<path stroke="black" stroke-width="3" stroke-dasharray="1,2" d="M512 704l0 -636"/>
<text stroke="none" fill="black" font-size="16" x="497" y="728">
1.5
</text>
<path stroke="black" stroke-width="3" stroke-dasharray="1,2" d="M666 704l0 -636"/>
<text stroke="none" fill="black" font-size="16" x="651" y="728">
2.0
</text>
<path stroke="black" stroke-width="3" stroke-dasharray="1,2" d="M820 704l0 -636"/>
<text stroke="none" fill="black" font-size="16" x="805" y="728">
2.5
</text>
<path stroke="black" stroke-width="3" stroke-dasharray="1,2" d="M974 704l0 -636"/>
<text stroke="none" fill="black" font-size="16" x="959" y="728">
3.0
</text>
<text stroke="none" fill="black" font-size="16" x="614" y="752">
us
</text>
<path stroke="black" stroke-width="3" stroke-dasharray="1,2" d="M50 704l924 0"/>
<text stroke="none" fill="black" font-size="16" x="8" y="712">
-0.4
</text>
<path stroke="black" stroke-width="3" stroke-dasharray="1,2" d="M50 651l924 0"/>
<text stroke="none" fill="black" font-size="16" x="8" y="659">
-0.2
</text>
<path stroke="black" stroke-width="3" d="M50 598l924 0"/>
<text stroke="none" fill="black" font-size="16" x="18" y="606">
0.0
</text>
<path stroke="black" stroke-width="3" stroke-dasharray="1,2" d="M50 545l924 0"/>
<text stroke="none" fill="black" font-size="16" x="18" y="553">
0.2
</text>
<path stroke="black" stroke-width="3" stroke-dasharray="1,2" d="M50 492l924 0"/>
<text stroke="none" fill="black" font-size="16" x="18" y="500">
0.4
</text>
<path stroke="black" stroke-width="3" stroke-dasharray="1,2" d="M50 439l924 0"/>
<text stroke="none" fill="black" font-size="16" x="18" y="447">
0.6
</text>
<path stroke="black" stroke-width="3" stroke-dasharray="1,2" d="M50 386l924 0"/>
<text stroke="none" fill="black" font-size="16" x="18" y="394">
0.8
</text>
<path stroke="black" stroke-width="3" stroke-dasharray="1,2" d="M50 333l924 0"/>
<text stroke="none" fill="black" font-size="16" x="18" y="341">
1.0
</text>
<path stroke="black" stroke-width="3" stroke-dasharray="1,2" d="M50 280l924 0"/>
<text stroke="none" fill="black" font-size="16" x="18" y="288">
1.2
</text>
<path stroke="black" stroke-width="3" stroke-dasharray="1,2" d="M50 227l924 0"/>
<text stroke="none" fill="black" font-size="16" x="18" y="235">
1.4
</text>
<path stroke="black" stroke-width="3" stroke-dasharray="1,2" d="M50 174l924 0"/>
<text stroke="none" fill="black" font-size="16" x="18" y="182">
1.6
</text>
<path stroke="black" stroke-width="3" stroke-dasharray="1,2" d="M50 121l924 0"/>
<text stroke="none" fill="black" font-size="16" x="18" y="129">
1.8
</text>
<path stroke="black" stroke-width="3" stroke-dasharray="1,2" d="M50 68l924 0"/>
<text stroke="none" fill="black" font-size="16" x="18" y="76">
2.0
</text>
<text stroke="none" fill="black" font-size="16" x="10" y="32">
V
</text>
<path stroke="red" d="M462 23l46 0"/>
<text stroke="none" fill="black" font-size="16" x="518" y="32">
v(out_parity)
</text>
<path stroke="red" d="M50 604l0 -499M50 121l1 0M51 619l0 -525M51 598l1 0M52 621l0 -517M52 598l1 0M53 614l0 -498M53 121l2 0M55 598l0 -512M55 598l2 0M57 604l0 -499M57 121l1 0M58 608l0 -513M58 598l3 0M61 618l0 -508M61 121l2 0M63 619l0 -543M63 121l1 0"/>
<path stroke="red" d="M64 608l0 -513M64 598l3 0M67 618l0 -508M67 121l2 0M69 616l0 -540M69 598l1 0M70 619l0 -500M70 121l3 0M73 598l0 -512M73 598l2 0M75 609l0 -513M75 598l1 0M76 643l0 -548M76 598l3 0M79 604l0 -498M79 121l2 0M81 603l0 -510M81 598l1 0"/>
<path stroke="red" d="M82 617l0 -504M82 122l1 -1 3 0M86 612l0 -513M86 598l1 0M87 610l0 -500M87 121l1 0M88 621l0 -516M88 598l1 0M89 617l0 -504M89 121l3 0M92 612l0 -513M92 598l2 0M94 610l0 -500M94 121l1 0M95 620l0 -516M95 598l3 0M98 604l0 -498"/>
<path stroke="red" d="M98 121l2 0M100 624l0 -531M100 598l1 0M101 620l0 -516M101 598l3 0M104 604l0 -498M104 121l2 0M106 603l0 -510M106 598l1 0M107 617l0 -504M107 121l3 0M110 612l0 -513M110 598l2 0M112 621l0 -516M112 598l1 0M113 617l0 -504M113 121l3 0"/>
<path stroke="red" d="M116 612l0 -513M116 598l2 0M118 610l0 -500M118 121l1 0M119 620l0 -516M119 599l1 -2M120 599l0 -2M120 598l3 0M123 604l0 -498M123 121l1 0M124 603l0 -510M124 598l1 0M125 624l0 -517M125 598l1 0M126 619l0 -500M126 121l3 0M129 598l0 -512"/>
<path stroke="red" d="M129 598l1 0M130 604l0 -499M130 128l1 -10M131 123l0 -5M131 121l1 0M132 608l0 -513M132 598l3 0M135 618l0 -508M135 121l2 0M137 619l0 -543M137 121l1 0M138 608l0 -513M138 598l3 0M141 618l0 -508M141 121l2 0M143 616l0 -540M143 598l1 0"/>
<path stroke="red" d="M144 619l0 -500M144 121l3 0M147 598l0 -512M147 598l2 0M149 609l0 -513M149 598l1 0M150 619l0 -525M150 598l3 0M153 604l0 -498M153 121l2 0M155 603l0 -510M155 598l1 0M156 617l0 -504M156 121l3 0M159 612l0 -513M159 606l1 -14M160 602l0 -10"/>
<path stroke="red" d="M160 598l1 0M161 610l0 -500M161 121l1 0M162 621l0 -516M162 598l1 0M163 617l0 -504M163 121l3 0M166 612l0 -513M166 598l1 0M167 610l0 -500M167 121l2 0M169 620l0 -516M169 598l3 0M172 604l0 -498M172 121l2 0M174 624l0 -531M174 598l1 0"/>
<path stroke="red" d="M175 619l0 -500M175 121l3 0M178 598l0 -512M178 598l2 0M180 604l0 -499M180 121l1 0M181 608l0 -513M181 598l3 0M184 618l0 -508M184 121l2 0M186 619l0 -543M186 121l1 0M187 608l0 -513M187 598l3 0M190 618l0 -508M190 121l2 0M192 616l0 -540"/>
<path stroke="red" d="M192 598l1 0M193 619l0 -500M193 121l3 0M196 598l0 -512M196 598l2 0M198 604l0 -499M198 121l1 0M199 619l0 -525M199 619l1 -297 0 -203M200 121l3 0M203 598l0 -512M203 598l1 0M204 604l0 -499M204 121l2 0M206 608l0 -513M206 598l3 0"/>
<path stroke="red" d="M209 618l0 -508M209 121l2 0M211 619l0 -543M211 121l1 0M212 608l0 -513M212 598l3 0M215 618l0 -508M215 121l2 0M217 616l0 -540M217 598l1 0M218 619l0 -500M218 121l3 0M221 598l0 -512M221 598l2 0M223 619l0 -523M223 334l1 -212"/>
<path stroke="red" d="M224 620l0 -529M224 598l3 0M227 604l0 -498M227 121l2 0M229 603l0 -510M229 598l1 0M230 617l0 -504M230 121l3 0M233 612l0 -513M233 598l2 0M235 610l0 -500M235 121l1 -1M236 621l0 -516M236 122l1 -1 3 0M240 612l0 -513M240 598l1 0"/>
<path stroke="red" d="M241 610l0 -500M241 121l2 0M243 620l0 -516M243 598l3 0M246 604l0 -498M246 121l2 0M248 624l0 -531M248 121l1 0M249 656l0 -565M249 598l3 0M252 604l0 -498M252 121l2 0M254 603l0 -510M254 598l1 0M255 617l0 -504M255 121l3 0M258 612l0 -513"/>
<path stroke="red" d="M258 598l2 0M260 621l0 -516M260 598l1 0M261 617l0 -504M261 121l3 0M264 612l0 -513M264 598l2 0M266 610l0 -500M266 121l1 0M267 620l0 -516M267 598l3 0M270 604l0 -498M270 121l2 0M272 617l0 -524M272 124l1 -4M273 624l0 -517M273 121l3 0"/>
<path stroke="red" d="M276 122l0 -1M276 122l1 -1M277 598l0 -512M277 598l1 0M278 604l0 -499M278 121l2 0M280 608l0 -513M280 598l3 0M283 618l0 -508M283 121l1 0M284 616l0 -540M284 616l1 -32M285 619l0 -500M285 121l1 0M286 608l0 -513M286 598l3 0M289 618l0 -508"/>
<path stroke="red" d="M289 121l2 0M291 616l0 -540M291 598l1 0M292 619l0 -500M292 121l3 0M295 598l0 -512M295 598l2 0M297 619l0 -523M297 121l1 0M298 619l0 -525M298 121l3 0M301 598l0 -512M301 598l2 0M303 604l0 -499M303 121l1 0M304 608l0 -513M304 598l3 0"/>
<path stroke="red" d="M307 618l0 -508M307 121l2 0M309 619l0 -543M309 121l1 0M310 608l0 -513M310 598l3 0M313 618l0 -508M313 122l1 -1 1 0M315 616l0 -540M315 598l2 0M317 619l0 -500M317 121l3 0M320 598l0 -512M320 598l1 0M321 604l0 -499M321 121l1 0"/>
<path stroke="red" d="M322 619l0 -528M322 121l1 0M323 620l0 -516M323 598l3 0M326 604l0 -498M326 121l2 0M328 603l0 -510M328 598l1 0M329 617l0 -504M329 121l3 0M332 612l0 -513M332 598l2 0M334 621l0 -516M334 598l1 0M335 617l0 -504M335 121l3 0M338 612l0 -513"/>
<path stroke="red" d="M338 598l2 0M340 610l0 -500M340 121l1 0M341 620l0 -516M341 598l3 0M344 604l0 -498M344 121l2 0M346 617l0 -524M346 121l1 0M347 656l0 -565M347 121l3 0M350 598l0 -512M350 598l2 0M352 604l0 -499M352 121l1 0M353 122l0 -1M353 122l1 -27"/>
<path stroke="red" d="M354 608l0 -513M354 598l3 0M357 618l0 -508M357 121l1 0M358 616l0 -540M358 598l1 0M359 619l0 -500M359 121l1 0M360 608l0 -513M360 598l3 0M363 618l0 -508M363 121l2 0M365 616l0 -540M365 598l1 0M366 619l0 -500M366 121l3 0M369 598l0 -512"/>
<path stroke="red" d="M369 598l2 0M371 619l0 -523M371 121l1 0M372 643l0 -548M372 598l3 0M375 604l0 -498M375 121l2 0M377 603l0 -510M377 598l1 0M378 617l0 -504M378 121l3 0M381 612l0 -513M381 598l2 0M383 621l0 -516M383 598l1 0M384 617l0 -504M384 121l3 0"/>
<path stroke="red" d="M387 612l0 -513M387 598l2 0M389 610l0 -500M389 121l1 0M390 620l0 -516M390 605l1 -12M391 602l0 -9M391 598l3 0M394 604l0 -498M394 121l1 0M395 603l0 -510M395 598l1 0M396 624l0 -517M396 121l1 0M397 620l0 -516M397 598l3 0M400 604l0 -498"/>
<path stroke="red" d="M400 121l2 0M402 603l0 -510M402 598l1 0M403 617l0 -504M403 121l3 0M406 612l0 -513M406 598l2 0M408 621l0 -516M408 598l1 0M409 617l0 -504M409 121l3 0M412 612l0 -513M412 598l2 0M414 610l0 -500M414 121l1 0M415 620l0 -516M415 598l3 0"/>
<path stroke="red" d="M418 604l0 -498M418 121l2 0M420 617l0 -524M420 121l1 0M421 624l0 -517M421 121l3 0M424 598l0 -512M424 598l2 0M426 604l0 -499M426 121l1 0M427 608l0 -513M427 597l1 2 0 -1 2 0 0 -1 1 5M431 618l0 -508M431 121l1 0M432 616l0 -540"/>
<path stroke="red" d="M432 598l1 0M433 619l0 -500M433 121l1 0M434 608l0 -513M434 598l3 0M437 618l0 -508M437 121l1 0M438 616l0 -540M438 616l1 -32M439 608l0 -24M439 598l1 0M440 619l0 -500M440 121l3 0M443 598l0 -512M443 598l2 0M445 619l0 -523M445 121l1 0"/>
<path stroke="red" d="M446 621l0 -527M446 621l1 -41M447 614l0 -498M447 121l2 0M449 598l0 -512M449 598l2 0M451 604l0 -499M451 121l1 0M452 608l0 -513M452 598l3 0M455 618l0 -508M455 121l2 0M457 619l0 -543M457 121l1 0M458 608l0 -513M458 598l3 0M461 618l0 -508"/>
<path stroke="red" d="M461 121l2 0M463 616l0 -540M463 598l1 0M464 619l0 -500M464 121l3 0M467 598l0 -512M467 598l2 0M469 604l0 -499M469 121l1 0M470 643l0 -548M470 121l1 0M471 620l0 -516M471 598l3 0M474 604l0 -498M474 121l1 0M475 603l0 -510M475 597l1 1"/>
<path stroke="red" d="M476 598l1 0M477 617l0 -504M477 121l3 0M480 612l0 -513M480 598l2 0M482 621l0 -516M482 598l1 0M483 617l0 -504M483 121l3 0M486 612l0 -513M486 598l2 0M488 610l0 -500M488 121l1 0M489 620l0 -516M489 598l3 0M492 604l0 -498M492 121l2 0"/>
<path stroke="red" d="M494 617l0 -524M494 121l1 0M495 624l0 -520M495 598l3 0M498 604l0 -498M498 121l2 0M500 603l0 -510M500 598l1 0M501 617l0 -504M501 121l3 0M504 612l0 -513M504 599l1 -2M505 599l0 -2M505 598l1 0M506 610l0 -500M506 121l1 0M507 621l0 -516"/>
<path stroke="red" d="M507 598l1 4M508 617l0 -504M508 121l3 0M511 612l0 -513M511 598l1 0M512 610l0 -500M512 121l2 0M514 620l0 -516M514 598l3 0M517 604l0 -498M517 121l2 0M519 624l0 -531M519 108l1 -1M520 619l0 -512M520 121l3 0M523 598l0 -512M523 598l2 0"/>
<path stroke="red" d="M525 604l0 -499M525 121l1 0M526 608l0 -513M526 598l3 0M529 618l0 -508M529 121l2 0M531 619l0 -543M531 121l1 0M532 608l0 -513M532 598l3 0M535 618l0 -508M535 121l2 0M537 616l0 -540M537 598l1 0M538 619l0 -500M538 121l3 0M541 598l0 -512"/>
<path stroke="red" d="M541 598l2 0M543 604l0 -499M543 122l1 0M544 619l0 -525M544 598l1 0M545 599l0 -1 3 0M548 604l0 -498M548 121l1 0M549 603l0 -510M549 598l2 0M551 617l0 -504M551 121l3 0M554 612l0 -513M554 598l2 0M556 621l0 -516M556 598l1 0M557 617l0 -504"/>
<path stroke="red" d="M557 121l3 0M560 612l0 -513M560 598l2 0M562 610l0 -500M562 121l1 0M563 620l0 -516M563 598l3 0M566 604l0 -498M566 121l2 0M568 624l0 -531M568 606l1 -14M569 619l0 -500M569 121l3 0M572 598l0 -512M572 598l2 0M574 604l0 -499M574 121l1 0"/>
<path stroke="red" d="M575 608l0 -513M575 598l3 0M578 618l0 -508M578 121l2 0M580 619l0 -543M580 121l1 0M581 608l0 -513M581 597l1 2 0 -1 2 0 0 -1 1 5M585 618l0 -508M585 121l1 0M586 616l0 -540M586 598l2 0M588 619l0 -500M588 121l3 0M591 598l0 -512"/>
<path stroke="red" d="M591 598l1 0M592 604l0 -499M592 128l1 -10M593 619l0 -525M593 598l1 0M594 619l0 -500M594 121l3 0M597 598l0 -512M597 598l2 0M599 604l0 -499M599 121l1 0M600 608l0 -513M600 598l3 0M603 618l0 -508M603 121l2 0M605 619l0 -543M605 121l1 0"/>
<path stroke="red" d="M606 608l0 -513M606 598l3 0M609 618l0 -508M609 121l2 0M611 616l0 -540M611 598l1 0M612 619l0 -500M612 121l3 0M615 598l0 -512M615 598l2 0M617 609l0 -513M617 599l1 -2M618 620l0 -529M618 598l3 0M621 604l0 -498M621 118l1 4 0 -2"/>
<path stroke="red" d="M622 121l1 0M623 603l0 -510M623 598l2 0M625 617l0 -504M625 121l3 0M628 612l0 -513M628 598l1 0M629 610l0 -500M629 121l1 0M630 621l0 -516M630 598l1 0M631 617l0 -504M631 121l3 0M634 612l0 -513M634 598l2 0M636 610l0 -500M636 121l1 0"/>
<path stroke="red" d="M637 620l0 -516M637 598l3 0M640 604l0 -498M640 121l2 0M642 624l0 -531M642 598l1 0M643 656l0 -565M643 598l3 0M646 604l0 -498M646 121l2 0M648 603l0 -510M648 598l1 0M649 617l0 -504M649 121l3 0M652 612l0 -513M652 598l2 0M654 621l0 -516"/>
<path stroke="red" d="M654 598l1 0M655 617l0 -504M655 121l3 0M658 612l0 -513M658 599l1 -2M659 599l0 -2M659 598l1 0M660 610l0 -500M660 121l1 0 0 -17 1 36M662 620l0 -480M662 598l3 0M665 604l0 -498M665 121l1 0M666 603l0 -510M666 598l1 0M667 624l0 -517"/>
<path stroke="red" d="M667 598l1 0M668 619l0 -500M668 121l3 0M671 598l0 -512M671 598l2 0M673 604l0 -499M673 121l1 0M674 608l0 -513M674 598l3 0M677 618l0 -508M677 121l2 0M679 619l0 -543M679 121l1 0M680 608l0 -513M680 598l3 0M683 618l0 -508M683 121l2 0"/>
<path stroke="red" d="M685 616l0 -540M685 598l1 0M686 619l0 -500M686 121l3 0M689 598l0 -512M689 598l2 0M691 609l0 -513M691 598l1 0M692 619l0 -525M692 121l3 0M695 598l0 -512M695 598l2 0M697 604l0 -499M697 121l1 0M698 608l0 -513M698 594l1 7 0 -6"/>
<path stroke="red" d="M699 598l3 0M702 618l0 -508M702 121l1 0M703 616l0 -540M703 598l1 0M704 619l0 -500M704 121l1 0M705 608l0 -513M705 598l3 0M708 618l0 -508M708 121l2 0M710 616l0 -540M710 598l1 0M711 619l0 -500M711 121l3 0M714 598l0 -512M714 598l2 0"/>
<path stroke="red" d="M716 619l0 -523M716 121l1 0M717 620l0 -529M717 598l3 0M720 604l0 -498M720 121l2 0M722 603l0 -510M722 598l1 0M723 617l0 -504M723 121l3 0M726 612l0 -513M726 598l2 0M728 621l0 -516M728 598l1 0M729 617l0 -504M729 121l3 0M732 612l0 -513"/>
<path stroke="red" d="M732 598l2 0M734 610l0 -500M734 121l1 0M735 620l0 -516M735 599l1 -2M736 599l0 -2M736 598l3 0M739 604l0 -498M739 121l1 0M740 603l0 -510M740 598l1 0M741 624l0 -517M741 121l1 0M742 656l0 -565M742 121l3 0M745 598l0 -512M745 598l1 0"/>
<path stroke="red" d="M746 604l0 -499M746 128l1 -10M747 123l0 -5M747 121l1 0M748 608l0 -513M748 598l3 0M751 618l0 -508M751 121l2 0M753 619l0 -543M753 121l1 0M754 608l0 -513M754 598l3 0M757 618l0 -508M757 121l2 0M759 616l0 -540M759 598l1 0M760 619l0 -500"/>
<path stroke="red" d="M760 121l3 0M763 598l0 -512M763 598l2 0M765 609l0 -513M765 598l1 0M766 643l0 -548M766 598l3 0M769 604l0 -498M769 121l2 0M771 603l0 -510M771 598l1 0M772 617l0 -504M772 121l3 0M775 612l0 -513M775 606l1 -14M776 602l0 -10M776 598l1 0"/>
<path stroke="red" d="M777 610l0 -500M777 121l1 0M778 621l0 -516M778 598l1 0M779 617l0 -504M779 121l3 0M782 612l0 -513M782 598l1 0M783 610l0 -500M783 121l2 0M785 620l0 -516M785 598l3 0M788 604l0 -498M788 121l2 0M790 624l0 -531M790 598l1 0M791 620l0 -516"/>
<path stroke="red" d="M791 598l3 0M794 604l0 -498M794 121l2 0M796 603l0 -510M796 598l1 0M797 617l0 -504M797 121l3 0M800 612l0 -513M800 598l2 0M802 621l0 -516M802 598l1 0M803 617l0 -504M803 121l3 0M806 612l0 -513M806 598l2 0M808 610l0 -500M808 121l1 0"/>
<path stroke="red" d="M809 620l0 -516M809 598l3 0M812 604l0 -498M812 121l2 0M814 603l0 -510M814 598l1 0M815 624l0 -517M815 619l1 -297 0 -203M816 121l3 0M819 598l0 -512M819 598l1 0M820 604l0 -499M820 121l2 0M822 608l0 -513M822 598l3 0M825 618l0 -508"/>
<path stroke="red" d="M825 121l2 0M827 619l0 -543M827 121l1 0M828 608l0 -513M828 598l3 0M831 618l0 -508M831 121l2 0M833 616l0 -540M833 598l1 0M834 619l0 -500M834 121l3 0M837 598l0 -512M837 598l2 0M839 619l0 -523M839 334l1 -212M840 613l0 -519"/>
<path stroke="red" d="M840 121l1 0M841 621l0 -517M841 121l2 0M843 598l0 -512M843 598l2 0M845 604l0 -499M845 121l1 0M846 608l0 -513M846 598l3 0M849 618l0 -508M849 121l2 0M851 616l0 -540M851 597l1 4M852 619l0 -524M852 594l1 7 0 -6M853 598l3 0M856 618l0 -508"/>
<path stroke="red" d="M856 121l1 0M857 616l0 -540M857 598l2 0M859 619l0 -500M859 121l3 0M862 598l0 -512M862 598l1 0 0 -1 1 1M864 643l0 -548M864 121l1 0M865 620l0 -516M865 598l3 0M868 604l0 -498M868 121l2 0M870 603l0 -510M870 598l1 0M871 617l0 -504"/>
<path stroke="red" d="M871 121l3 0M874 612l0 -513M874 598l2 0M876 621l0 -516M876 598l1 0M877 617l0 -504M877 121l3 0M880 612l0 -513M880 598l2 0M882 610l0 -500M882 121l1 0M883 620l0 -516M883 598l3 0M886 604l0 -498M886 121l2 0M888 617l0 -524M888 124l1 -4"/>
<path stroke="red" d="M889 624l0 -520M889 599l1 -2M890 599l0 -2M890 598l3 0M893 604l0 -498M893 121l1 0M894 603l0 -510M894 598l2 0M896 617l0 -504M896 121l3 0M899 612l0 -513M899 598l1 0M900 610l0 -445 1 -55M901 621l0 -516M901 598l1 0M902 617l0 -504"/>
<path stroke="red" d="M902 121l3 0M905 612l0 -513M905 598l2 0M907 610l0 -500M907 121l1 0M908 620l0 -516M908 598l3 0M911 604l0 -498M911 121l2 0M913 624l0 -531M913 597l1 2M914 619l0 -512M914 121l3 0M917 598l0 -512M917 598l2 0M919 604l0 -499M919 121l1 0"/>
<path stroke="red" d="M920 608l0 -513M920 598l3 0M923 618l0 -508M923 121l2 0M925 619l0 -543M925 121l1 0M926 608l0 -513M926 598l3 0M929 618l0 -508M929 122l1 -1 1 0M931 616l0 -540M931 598l2 0M933 619l0 -500M933 121l3 0M936 598l0 -512M936 598l1 0"/>
<path stroke="red" d="M937 604l0 -499M937 121l1 0M938 619l0 -525M938 598l1 0M939 603l0 -16M939 598l3 0M942 604l0 -498M942 121l2 0M944 603l0 -510M944 598l1 0M945 617l0 -504M945 121l3 0M948 612l0 -513M948 598l2 0M950 621l0 -516M950 598l1 0M951 617l0 -504"/>
<path stroke="red" d="M951 121l3 0M954 612l0 -513M954 598l2 0M956 610l0 -500M956 121l1 0M957 620l0 -516M957 598l3 0M960 604l0 -498M960 121l2 0M962 617l0 -524M962 121l1 0M963 624l0 -517M963 121l3 0M966 598l0 -512M966 598l2 0M968 604l0 -499M968 121l1 0"/>
<path stroke="red" d="M969 122l0 -1M969 122l1 -27M970 608l0 -513M970 598l3 0M973 618l0 -508M973 121l1 0"/>
</svg>
