<?xml version="1.0" standalone="yes"?>
<!DOCTYPE svg PUBLIC "-//W3C//DTD SVG 1.1//EN"
 "http://www.w3.org/Graphics/SVG/1.1/DTD/svg11.dtd">
<svg xmlns="http://www.w3.org/2000/svg" version="1.1"
  width="100%" height="100%" viewBox="0 0 1024 768"
  style="fill: none; stroke-width: 3; font-family: Helvetica;
 font: Helvetica;
">

<!-- Creator: NGspice -->

<rect x="0" y="0" width="1024" height="768" fill="white" stroke="none"/>
<text stroke="none" fill="black" font-size="16" x="358" y="752">
time
</text>
<text stroke="none" fill="black" font-size="16" x="10" y="16">
tran1: Cumulative Energy Consumption
</text>
<path stroke="black" stroke-width="3" d="M60 704l0 -639"/>
<text stroke="none" fill="black" font-size="16" x="45" y="728">
0.0
</text>
<path stroke="black" stroke-width="3" stroke-dasharray="1,2" d="M210 704l0 -639"/>
<text stroke="none" fill="black" font-size="16" x="195" y="728">
0.5
</text>
<path stroke="black" stroke-width="3" stroke-dasharray="1,2" d="M360 704l0 -639"/>
<text stroke="none" fill="black" font-size="16" x="345" y="728">
1.0
</text>
<path stroke="black" stroke-width="3" stroke-dasharray="1,2" d="M510 704l0 -639"/>
<text stroke="none" fill="black" font-size="16" x="495" y="728">
1.5
</text>
<path stroke="black" stroke-width="3" stroke-dasharray="1,2" d="M660 704l0 -639"/>
<text stroke="none" fill="black" font-size="16" x="645" y="728">
2.0
</text>
<path stroke="black" stroke-width="3" stroke-dasharray="1,2" d="M810 704l0 -639"/>
<text stroke="none" fill="black" font-size="16" x="795" y="728">
2.5
</text>
<path stroke="black" stroke-width="3" stroke-dasharray="1,2" d="M960 704l0 -639"/>
<text stroke="none" fill="black" font-size="16" x="945" y="728">
3.0
</text>
<text stroke="none" fill="black" font-size="16" x="614" y="752">
us
</text>
<path stroke="black" stroke-width="3" stroke-dasharray="1,2" d="M60 704l900 0"/>
<text stroke="none" fill="black" font-size="16" x="8" y="712">
-10.0
</text>
<path stroke="black" stroke-width="3" d="M60 633l900 0"/>
<text stroke="none" fill="black" font-size="16" x="28" y="641">
0.0
</text>
<path stroke="black" stroke-width="3" stroke-dasharray="1,2" d="M60 562l900 0"/>
<text stroke="none" fill="black" font-size="16" x="18" y="570">
10.0
</text>
<path stroke="black" stroke-width="3" stroke-dasharray="1,2" d="M60 491l900 0"/>
<text stroke="none" fill="black" font-size="16" x="18" y="499">
20.0
</text>
<path stroke="black" stroke-width="3" stroke-dasharray="1,2" d="M60 420l900 0"/>
<text stroke="none" fill="black" font-size="16" x="18" y="428">
30.0
</text>
<path stroke="black" stroke-width="3" stroke-dasharray="1,2" d="M60 349l900 0"/>
<text stroke="none" fill="black" font-size="16" x="18" y="357">
40.0
</text>
<path stroke="black" stroke-width="3" stroke-dasharray="1,2" d="M60 278l900 0"/>
<text stroke="none" fill="black" font-size="16" x="18" y="286">
50.0
</text>
<path stroke="black" stroke-width="3" stroke-dasharray="1,2" d="M60 207l900 0"/>
<text stroke="none" fill="black" font-size="16" x="18" y="215">
60.0
</text>
<path stroke="black" stroke-width="3" stroke-dasharray="1,2" d="M60 136l900 0"/>
<text stroke="none" fill="black" font-size="16" x="18" y="144">
70.0
</text>
<path stroke="black" stroke-width="3" stroke-dasharray="1,2" d="M60 65l900 0"/>
<text stroke="none" fill="black" font-size="16" x="18" y="73">
80.0
</text>
<text stroke="none" fill="black" font-size="16" x="10" y="32">
p     
</text>
<path stroke="red" d="M450 23l45 0"/>
<text stroke="none" fill="black" font-size="16" x="505" y="32">
total_energy
</text>
<path stroke="red" d="M60 633l1 0 0 -2 1 0 0 -2 1 0 0 -1 3 0 0 -1 1 0 0 -1 2 0 0 -1 3 0 0 -1 1 0 0 -1 1 0 0 -1 3 0 0 -1 2 0 0 -1 1 0 0 -1 3 0 0 -1 2 0 0 -2 1 0 0 -1 3 0 0 -1 1 0 0 -1 1 0 0 -1 4 0 0 -1 1 0 0 -1 1 0 0 -1 1 0 0 -1 3 0 0 -1 2 0 0 -1"/>
<path stroke="red" d="M103 606l1 0 0 -1 3 0 0 -1 2 0 0 -2 1 0 0 -1 3 0 0 -1 1 0 0 -1 2 0 0 -1 3 0 0 -1 1 0 0 -1 1 0 0 -1 2 0 0 -1 2 0 0 -1 1 0M126 594l0 -1 1 0 0 -1 1 0 0 -1 1 0M129 592l0 -1 2 0 0 -1 2 0 0 -3 2 0 0 -1 3 0 0 -1 1 0 0 -1 4 0 0 -1"/>
<path stroke="red" d="M143 583l1 0 0 -1 1 0 0 -1 1 0 0 -1 3 0 0 -1 2 0 0 -1 1 0 0 -1 3 0 0 -1 2 0 0 -2 1 0 0 -1 1 0 0 -1 3 0 0 -1 1 0 0 -1 2 0 0 -1 2 0 0 -1 1 0M168 569l0 -1 1 0 0 -1 1 0 0 -1 3 0 0 -1 2 0 0 -1 1 0 0 -1 3 0 0 -1 1 0 0 -1 1 0 0 -2"/>
<path stroke="red" d="M181 559l2 0 0 -1 3 0 0 -1 1 0 0 -1 2 0 0 -1 3 0 0 -1 1 0 0 -1 1 0 0 -1 3 0 0 -1 2 0 0 -1 1 0 0 -1 3 0 0 -1 2 0 0 -2 1 0 0 -1 3 0 0 -1 1 0 0 -1 2 0 0 -1 3 0 0 -1 1 0 0 -1 1 0 0 -1 2 0 0 -1 3 0 0 -1 1 0 0 -1 2 0 0 -1 3 0"/>
<path stroke="red" d="M228 535l0 -1 1 0 0 -2 1 0 0 -1 3 0 0 -1 1 0 0 -1 2 0 0 -1 3 0 0 -1 1 0 0 -1 1 0 0 -1 1 0 0 -1 1 0M243 525l0 -1 2 0 0 -1 2 0 0 -1 1 0 0 -1 3 0 0 -1 2 0 0 -2 1 0 0 -2 3 0 0 -1 1 0 0 -1 2 0 0 -1 3 0 0 -1 1 0 0 -1 1 0 0 -1"/>
<path stroke="red" d="M265 510l2 0 0 -1 2 0 0 -1 1 0M270 509l0 -1 1 0 0 -1 2 0 0 -1 2 0 0 -1 1 0M276 506l0 -1 1 0 0 -2 1 0 0 -1 3 0 0 -1 1 0 0 -1 1 0M283 501l0 -1 1 0 0 -1 3 0 0 -1 1 0 0 -1 1 0M289 498l0 -2 2 0 0 -1 3 0 0 -1 1 0 0 -1 2 0 0 -1"/>
<path stroke="red" d="M297 492l3 0 0 -1 1 0 0 -2 1 0M302 490l0 -1 1 0 0 -1 2 0 0 -1 1 0M306 488l0 -1 1 0 0 -1 1 0 0 -1 1 0M309 486l0 -1 2 0 0 -1 2 0 0 -1 1 0 0 -1 3 0 0 -1 2 0 0 -1 1 0 0 -1 3 0 0 -1 1 0 0 -1 1 0 0 -2 1 0 0 -1 3 0 0 -1 2 0 0 -1"/>
<path stroke="red" d="M331 472l1 0 0 -1 3 0 0 -1 2 0 0 -1 1 0 0 -1 3 0 0 -1 1 0 0 -1 2 0 0 -1 3 0 0 -1 1 0 0 -1 1 0 0 -1 1 0 0 -2 1 0 0 -1 3 0 0 -1 1 0 0 -1 2 0 0 -1 3 0 0 -1 1 0 0 -1 1 0 0 -1 3 0 0 -1 2 0 0 -1 1 0 0 -1 3 0 0 -1 2 0 0 -2 1 0"/>
<path stroke="red" d="M374 447l0 -1 3 0 0 -1 1 0 0 -1 2 0 0 -1 3 0 0 -1 1 0 0 -1 1 0 0 -1 1 0 0 -1 3 0 0 -1 2 0 0 -1 1 0 0 -1 3 0 0 -1 2 0 0 -2 1 0 0 -1 3 0 0 -1 1 0 0 -1 2 0 0 -1 3 0 0 -1 1 0 0 -1 1 0 0 -1 2 0 0 -1 2 0 0 -1 1 0M414 425l0 -1"/>
<path stroke="red" d="M414 424l1 0 0 -1 2 0 0 -1 2 0 0 -1 2 0 0 -2 1 0 0 -1 3 0 0 -1 1 0 0 -1 1 0 0 -1 4 0 0 -1 1 0 0 -1 1 0 0 -1 1 0 0 -1 3 0 0 -1 2 0 0 -1 1 0 0 -1 3 0 0 -1 2 0 0 -2 1 0 0 -2 3 0 0 -1 1 0 0 -1 2 0 0 -1 3 0 0 -1 1 0 0 -1 1 0"/>
<path stroke="red" d="M457 398l0 -1 2 0 0 -1 2 0 0 -1 1 0M462 396l0 -1 1 0 0 -1 2 0 0 -1 2 0 0 -1 1 0M468 393l0 -1 1 0 0 -2 1 0 0 -1 3 0 0 -1 1 0 0 -1 2 0 0 -1 3 0 0 -1 1 0 0 -1 1 0 0 -1 2 0 0 -1 2 0 0 -1 1 0M486 382l0 -1 1 0 0 -1 2 0 0 -1 2 0"/>
<path stroke="red" d="M491 379l0 -1 1 0M492 379l0 -1 1 0 0 -2 1 0 0 -1 3 0 0 -1 2 0 0 -1 1 0 0 -1 3 0 0 -1 2 0 0 -2 4 0 0 -1 1 0 0 -1 1 0 0 -1 2 0 0 -1 3 0 0 -1 1 0 0 -2 1 0 0 -1 3 0 0 -1 1 0 0 -1 2 0 0 -1 3 0 0 -1 1 0 0 -1 1 0 0 -1 2 0 0 -1"/>
<path stroke="red" d="M531 354l3 0 0 -1 1 0 0 -1 2 0 0 -1 3 0 0 -1 1 0 0 -2 1 0M542 349l0 -2 3 0 0 -1 1 0 0 -1 2 0 0 -1 3 0 0 -1 1 0 0 -1 1 0 0 -1 1 0 0 -1 3 0 0 -1 2 0 0 -1 1 0 0 -1 3 0 0 -1 2 0 0 -2 1 0 0 -1 3 0 0 -1 1 0 0 -1 2 0 0 -1 3 0 0 -1"/>
<path stroke="red" d="M575 329l1 0 0 -1 1 0 0 -1 2 0 0 -1 2 0 0 -1 1 0M582 326l0 -1 1 0 0 -1 2 0 0 -1 2 0 0 -1 1 0M588 323l0 -1 1 0 0 -2 1 0 0 -1 3 0 0 -1 2 0 0 -1 1 0 0 -1 3 0 0 -1 2 0 0 -1 1 0 0 -1 3 0 0 -1 1 0 0 -1 2 0 0 -1 3 0 0 -1 1 0 0 -1"/>
<path stroke="red" d="M612 308l1 0 0 -2 1 0 0 -1 3 0 0 -1 2 0 0 -1 1 0 0 -1 3 0 0 -1 2 0 0 -2 4 0 0 -1 1 0 0 -1 1 0 0 -1 2 0 0 -1 3 0 0 -1 1 0 0 -2 1 0M638 293l0 -3 3 0 0 -1 2 0 0 -1 1 0 0 -1 3 0 0 -1 2 0 0 -1 1 0 0 -1 3 0 0 -1 1 0 0 -1 2 0 0 -1"/>
<path stroke="red" d="M656 281l3 0 0 -1 1 0 0 -1 1 0 0 -2 1 0 0 -1 3 0 0 -1 2 0 0 -1 1 0 0 -1 3 0 0 -1 2 0 0 -1 1 0 0 -1 3 0 0 -1 1 0 0 -1 2 0 0 -1 3 0 0 -1 1 0 0 -1 1 0 0 -1 1 0 0 -1 1 0 0 -1 3 0 0 -1 1 0 0 -1 2 0 0 -1 3 0 0 -1 1 0 0 -1 1 0"/>
<path stroke="red" d="M698 257l0 -1 3 0 0 -1 2 0 0 -1 1 0 0 -1 3 0 0 -1 2 0 0 -3 2 0 0 -1 3 0 0 -1 1 0 0 -1 2 0 0 -1 2 0 0 -1 1 0M720 245l0 -1 1 0 0 -1 1 0 0 -1 3 0 0 -1 2 0 0 -1 1 0 0 -1 3 0 0 -1 1 0 0 -1 1 0M733 238l0 -2 1 0 0 -2 3 0 0 -1 1 0"/>
<path stroke="red" d="M738 233l0 -1 2 0 0 -1 3 0 0 -1 1 0 0 -1 1 0 0 -1 2 0 0 -1 3 0 0 -1 1 0 0 -1 2 0 0 -1 2 0 0 -1 1 0M756 224l0 -1 1 0 0 -2 1 0 0 -1 3 0 0 -1 2 0 0 -1 1 0 0 -1 3 0 0 -1 1 0 0 -1 1 0M769 216l0 -2 2 0 0 -1 3 0 0 -1 1 0 0 -1 2 0"/>
<path stroke="red" d="M777 211l0 -1 2 0 0 -1 1 0M780 210l0 -1 1 0 0 -2 1 0 0 -1 3 0 0 -1 2 0 0 -1 1 0 0 -1 3 0 0 -1 2 0 0 -1 1 0 0 -1 3 0 0 -1 1 0 0 -1 2 0 0 -1 1 0 0 -1 3 0 0 -1 1 0 0 -2 1 0 0 -1 3 0 0 -1 1 0 0 -1 2 0 0 -1 3 0 0 -1 1 0 0 -1"/>
<path stroke="red" d="M816 187l1 0M817 188l0 -2 2 0 0 -1 3 0 0 -1 1 0 0 -1 2 0 0 -1 3 0 0 -1 1 0 0 -2 1 0M830 180l0 -3 3 0 0 -1 2 0 0 -1 1 0 0 -1 3 0 0 -1 2 0 0 -1 1 0 0 -1 3 0 0 -1 1 0 0 -1 2 0 0 -1 3 0 0 -1 1 0 0 -1 1 0 0 -2 1 0 0 -1 3 0 0 -1"/>
<path stroke="red" d="M857 162l2 0 0 -1 1 0 0 -1 3 0 0 -1 2 0 0 -1 1 0 0 -1 3 0 0 -1 1 0 0 -1 2 0 0 -1 3 0 0 -1 1 0 0 -1 1 0 0 -1 1 0 0 -1 1 0 0 -1 2 0 0 -1 1 0M882 149l0 -1 1 0 0 -1 2 0 0 -1 2 0 0 -1 2 0 0 -1 1 0 0 -1 3 0 0 -1 1 0 0 -1 1 0M895 142l0 -1"/>
<path stroke="red" d="M895 141l1 0 0 -1 3 0 0 -1 1 0 0 -1 1 0 0 -2 1 0 0 -1 3 0 0 -1 2 0 0 -1 1 0 0 -1 3 0 0 -1 2 0 0 -1 1 0 0 -1 3 0 0 -1 1 0 0 -1 2 0 0 -1 3 0 0 -1 1 0 0 -1 1 0 0 -1 1 0 0 -2 3 0 0 -1 2 0 0 -1 1 0 0 -1 3 0 0 -1 2 0 0 -2 2 0"/>
<path stroke="red" d="M939 115l0 -1 3 0 0 -1 1 0 0 -1 2 0 0 -1 3 0 0 -1 1 0 0 -2 1 0 0 -1 3 0 0 -1 2 0 0 -1 1 0 0 -1 3 0 0 -1 1 0"/>
</svg>
