<?xml version="1.0" standalone="yes"?>
<!DOCTYPE svg PUBLIC "-//W3C//DTD SVG 1.1//EN"
 "http://www.w3.org/Graphics/SVG/1.1/DTD/svg11.dtd">
<svg xmlns="http://www.w3.org/2000/svg" version="1.1"
  width="100%" height="100%" viewBox="0 0 1024 768"
  style="fill: none; stroke-width: 3; font-family: Helvetica;
 font: Helvetica;
">

<!-- Creator: NGspice -->

<rect x="0" y="0" width="1024" height="768" fill="white" stroke="none"/>
<text stroke="none" fill="black" font-size="16" x="358" y="752">
time
</text>
<text stroke="none" fill="black" font-size="16" x="10" y="16">
tran1: Cumulative Energy Consumption
</text>
<path stroke="black" stroke-width="3" d="M60 704l0 -639"/>
<text stroke="none" fill="black" font-size="16" x="45" y="728">
0.0
</text>
<path stroke="black" stroke-width="3" stroke-dasharray="1,2" d="M210 704l0 -639"/>
<text stroke="none" fill="black" font-size="16" x="195" y="728">
0.5
</text>
<path stroke="black" stroke-width="3" stroke-dasharray="1,2" d="M360 704l0 -639"/>
<text stroke="none" fill="black" font-size="16" x="345" y="728">
1.0
</text>
<path stroke="black" stroke-width="3" stroke-dasharray="1,2" d="M510 704l0 -639"/>
<text stroke="none" fill="black" font-size="16" x="495" y="728">
1.5
</text>
<path stroke="black" stroke-width="3" stroke-dasharray="1,2" d="M660 704l0 -639"/>
<text stroke="none" fill="black" font-size="16" x="645" y="728">
2.0
</text>
<path stroke="black" stroke-width="3" stroke-dasharray="1,2" d="M810 704l0 -639"/>
<text stroke="none" fill="black" font-size="16" x="795" y="728">
2.5
</text>
<path stroke="black" stroke-width="3" stroke-dasharray="1,2" d="M960 704l0 -639"/>
<text stroke="none" fill="black" font-size="16" x="945" y="728">
3.0
</text>
<text stroke="none" fill="black" font-size="16" x="614" y="752">
us
</text>
<path stroke="black" stroke-width="3" stroke-dasharray="1,2" d="M60 704l900 0"/>
<text stroke="none" fill="black" font-size="16" x="8" y="712">
-10.0
</text>
<path stroke="black" stroke-width="3" d="M60 633l900 0"/>
<text stroke="none" fill="black" font-size="16" x="28" y="641">
0.0
</text>
<path stroke="black" stroke-width="3" stroke-dasharray="1,2" d="M60 562l900 0"/>
<text stroke="none" fill="black" font-size="16" x="18" y="570">
10.0
</text>
<path stroke="black" stroke-width="3" stroke-dasharray="1,2" d="M60 491l900 0"/>
<text stroke="none" fill="black" font-size="16" x="18" y="499">
20.0
</text>
<path stroke="black" stroke-width="3" stroke-dasharray="1,2" d="M60 420l900 0"/>
<text stroke="none" fill="black" font-size="16" x="18" y="428">
30.0
</text>
<path stroke="black" stroke-width="3" stroke-dasharray="1,2" d="M60 349l900 0"/>
<text stroke="none" fill="black" font-size="16" x="18" y="357">
40.0
</text>
<path stroke="black" stroke-width="3" stroke-dasharray="1,2" d="M60 278l900 0"/>
<text stroke="none" fill="black" font-size="16" x="18" y="286">
50.0
</text>
<path stroke="black" stroke-width="3" stroke-dasharray="1,2" d="M60 207l900 0"/>
<text stroke="none" fill="black" font-size="16" x="18" y="215">
60.0
</text>
<path stroke="black" stroke-width="3" stroke-dasharray="1,2" d="M60 136l900 0"/>
<text stroke="none" fill="black" font-size="16" x="18" y="144">
70.0
</text>
<path stroke="black" stroke-width="3" stroke-dasharray="1,2" d="M60 65l900 0"/>
<text stroke="none" fill="black" font-size="16" x="18" y="73">
80.0
</text>
<text stroke="none" fill="black" font-size="16" x="10" y="32">
p     
</text>
<path stroke="red" d="M450 23l45 0"/>
<text stroke="none" fill="black" font-size="16" x="505" y="32">
total_energy
</text>
<path stroke="red" d="M60 634l0 -1 3 0 0 -1 2 0 0 -1 1 0 0 -1 2 0 0 -1 1 0 0 -1 2 0 0 -1 1 0 0 -1 3 0 0 -1 2 0 0 -1 1 0 0 -1 2 0 0 -1 1 0 0 -1 2 0 0 -1 3 0 0 -1 1 0 0 -1 2 0 0 -1 1 0 0 -1M90 617l2 0 0 -1 1 0 0 -1 2 0 0 -1 1 0 0 -1 2 0 0 -1 1 0"/>
<path stroke="red" d="M99 612l0 -1 2 0 0 -1 1 0 0 -1 3 0 0 -2 2 0 0 -1 3 0 0 -1 1 0 0 -1 2 0 0 -1 1 0 0 -1 3 0 0 -2 2 0 0 -1 1 0 0 -1 3 0 0 -1 2 0 0 -1 1 0 0 -1 2 0 0 -1 1 0 0 -1 2 0 0 -1 1 0 0 -1M132 592l2 0 0 -1 1 0 0 -1 2 0 0 -1 1 0 0 -1 3 0"/>
<path stroke="red" d="M141 588l0 -2 3 0 0 -1 2 0 0 -1 1 0 0 -1 2 0 0 -1 1 0 0 -1 3 0 0 -2 2 0 0 -1 4 0 0 -2 2 0 0 -1 3 0 0 -1 1 0 0 -1 2 0 0 -1 1 0 0 -1 2 0 0 -1 1 0 0 -1 2 0 0 -1 3 0 0 -1 1 0 0 -1 2 0 0 -1 1 0 0 -1 3 0 0 -1 2 0 0 -1 1 0 0 -1"/>
<path stroke="red" d="M186 561l2 0 0 -1 1 0 0 -1 2 0 0 -1 1 0 0 -1 3 0 0 -1 2 0 0 -1 1 0 0 -1 2 0 0 -1 1 0 0 -1 2 0 0 -1 1 0 0 -1 3 0 0 -2 3 0 0 -1 2 0 0 -1 1 0 0 -1 2 0 0 -1 1 0 0 -1 3 0 0 -2 3 0 0 -1 2 0 0 -1 1 0 0 -1 2 0 0 -1 1 0 0 -1M228 537l2 0"/>
<path stroke="red" d="M230 537l0 -1 1 0 0 -1 2 0 0 -1 1 0 0 -1 3 0 0 -2 3 0 0 -1 2 0 0 -1 1 0 0 -1 2 0 0 -1 1 0 0 -1 2 0 0 -1 1 0 0 -1 2 0 0 -1 3 0 0 -1 1 0 0 -1 2 0 0 -1 1 0 0 -1 3 0 0 -2 2 0 0 -1 1 0 0 -1 3 0 0 -1 2 0 0 -1 1 0 0 -1 2 0 0 -1"/>
<path stroke="red" d="M272 511l1 0 0 -1 2 0 0 -1 3 0 0 -1 1 0 0 -1 2 0 0 -1 1 0 0 -1M282 506l2 0 0 -1 1 0 0 -1 2 0 0 -1 1 0 0 -1 2 0 0 -1 1 0 0 -1 2 0 0 -1 1 0 0 -1 3 0 0 -2 3 0 0 -1 2 0 0 -1 1 0 0 -1 2 0 0 -1 1 0 0 -1 3 0 0 -1 2 0 0 -1 1 0 0 -1"/>
<path stroke="red" d="M312 488l2 0 0 -1 1 0 0 -1 2 0 0 -1 1 0 0 -1 3 0 0 -2 3 0 0 -1 2 0 0 -1 1 0 0 -1 2 0 0 -1 3 0 0 -1 1 0 0 -1 2 0 0 -1 1 0 0 -1 2 0 0 -1 1 0 0 -1 2 0 0 -1 1 0 0 -1 3 0 0 -2 3 0 0 -1 3 0 0 -2 2 0 0 -1 3 0 0 -1 1 0 0 -1 2 0"/>
<path stroke="red" d="M359 462l0 -1 1 0 0 -1 3 0 0 -2 2 0 0 -1 3 0 0 -1 1 0 0 -1 2 0 0 -1 1 0 0 -1M372 454l2 0 0 -1 1 0 0 -1 2 0 0 -1 1 0 0 -1 3 0 0 -2 3 0 0 -1 2 0 0 -1 1 0 0 -1 2 0 0 -1 1 0 0 -1 2 0 0 -1 1 0 0 -1 2 0 0 -1 1 0 0 -1 3 0 0 -2"/>
<path stroke="red" d="M399 437l3 0 0 -1 2 0 0 -1 1 0 0 -1 2 0 0 -1 1 0 0 -1 3 0 0 -2 2 0 0 -1 3 0 0 -1 1 0 0 -1 2 0 0 -1 1 0 0 -1 3 0 0 -1 2 0 0 -1 1 0 0 -1 2 0 0 -1 1 0 0 -1 2 0 0 -1 1 0 0 -1 3 0 0 -1 2 0 0 -1 1 0 0 -1 2 0 0 -1 1 0 0 -1 2 0"/>
<path stroke="red" d="M443 413l0 -1 1 0M444 413l0 -1M444 413l2 0 0 -1 1 0 0 -1 2 0 0 -1 1 0 0 -1 3 0 0 -1 2 0 0 -1 1 0 0 -1 2 0 0 -1 1 0 0 -1 2 0 0 -1 1 0 0 -1 3 0 0 -2 3 0 0 -1 2 0 0 -1 1 0 0 -1 2 0 0 -1 3 0 0 -1 1 0 0 -1 2 0 0 -1 1 0 0 -1 2 0"/>
<path stroke="red" d="M482 392l0 -1 1 0 0 -1 2 0 0 -1 1 0 0 -1M486 389l2 0 0 -1 1 0 0 -1 2 0 0 -1 1 0 0 -1 2 0 0 -1 1 0 0 -1 2 0 0 -1 1 0 0 -1M498 382l2 0 0 -1 1 0 0 -1 2 0 0 -1 1 0 0 -1 2 0 0 -1 1 0 0 -1 2 0 0 -1 1 0 0 -1 3 0 0 -2 2 0 0 -1 3 0"/>
<path stroke="red" d="M518 371l0 -1 1 0 0 -1 2 0 0 -1 3 0 0 -1 1 0 0 -1 2 0 0 -1 1 0 0 -1 2 0 0 -1 1 0 0 -1 2 0 0 -1 1 0 0 -1 3 0 0 -1 2 0 0 -1 1 0 0 -1M540 358l2 0 0 -1 1 0 0 -1 2 0 0 -1 1 0 0 -1 3 0 0 -2 2 0 0 -1 1 0 0 -1 3 0 0 -2 3 0 0 -1"/>
<path stroke="red" d="M558 347l2 0 0 -1 1 0 0 -1 2 0 0 -1 1 0 0 -1M564 344l2 0 0 -1 1 0 0 -1 2 0 0 -1 1 0 0 -1 3 0 0 -1 2 0 0 -1 1 0 0 -1 2 0 0 -1 1 0 0 -1 2 0 0 -1 1 0 0 -1 3 0 0 -2 3 0 0 -1 2 0 0 -1 1 0 0 -1 2 0 0 -1 1 0 0 -1 3 0 0 -2 3 0 0 -1"/>
<path stroke="red" d="M600 323l2 0 0 -1 1 0 0 -1 2 0 0 -1 1 0 0 -1 3 0 0 -2 2 0 0 -1 3 0 0 -1 1 0 0 -1 2 0 0 -1 1 0 0 -1M618 313l2 0 0 -1 1 0 0 -1 2 0 0 -1 1 0 0 -1 2 0 0 -1 1 0 0 -1 2 0 0 -1 1 0 0 -1 3 0 0 -2 3 0 0 -1 2 0 0 -1 1 0 0 -1 2 0 0 -1"/>
<path stroke="red" d="M641 299l1 0 0 -1M642 299l2 0 0 -1 1 0 0 -1 2 0 0 -1 1 0 0 -1 2 0 0 -1 1 0 0 -1 2 0 0 -1 1 0 0 -1 3 0 0 -2 3 0 0 -1 2 0 0 -1 1 0 0 -1 2 0 0 -1 3 0 0 -1 1 0 0 -1 2 0 0 -1 1 0 0 -1 2 0 0 -1 1 0 0 -1 2 0 0 -1 3 0 0 -1 1 0 0 -1"/>
<path stroke="red" d="M681 276l2 0 0 -1 1 0 0 -1 2 0 0 -1 1 0 0 -1 2 0 0 -1 3 0 0 -1 1 0 0 -1 2 0 0 -1 1 0 0 -1 2 0 0 -1 1 0 0 -1 2 0 0 -1 1 0 0 -1M702 264l2 0 0 -1 1 0 0 -1 2 0 0 -1 1 0 0 -1 3 0 0 -2 3 0 0 -1 2 0 0 -1 1 0 0 -1 2 0 0 -1 1 0 0 -1"/>
<path stroke="red" d="M720 253l2 0 0 -1 1 0 0 -1 2 0 0 -1 3 0 0 -1 1 0 0 -1 2 0 0 -1 1 0 0 -1 3 0 0 -1 2 0 0 -1 1 0 0 -1 3 0 0 -2 2 0 0 -1 1 0 0 -1 3 0 0 -1 2 0 0 -1 1 0 0 -1 2 0 0 -1 1 0 0 -1 2 0 0 -1 3 0 0 -1 1 0 0 -1 2 0 0 -1 1 0 0 -1M762 230l2 0"/>
<path stroke="red" d="M764 230l0 -1 1 0 0 -1 2 0 0 -1 1 0 0 -1 2 0 0 -1 1 0 0 -1 2 0 0 -1 1 0 0 -1 3 0 0 -2 3 0 0 -1 2 0 0 -1 1 0 0 -1 2 0 0 -1 1 0 0 -1 3 0 0 -2 3 0 0 -1 2 0 0 -1 1 0 0 -1 2 0 0 -1 1 0 0 -1 2 0 0 -1 1 0 0 -1 2 0 0 -1 1 0 0 -1"/>
<path stroke="red" d="M804 205l2 0 0 -1 1 0 0 -1 2 0 0 -1 1 0 0 -1 3 0 0 -1 2 0 0 -1 1 0 0 -1 2 0 0 -1 1 0 0 -1 2 0 0 -1 1 0 0 -1 3 0 0 -2 5 0 0 -1 1 0 0 -1 2 0 0 -1 3 0 0 -1 1 0 0 -1 2 0 0 -1 1 0 0 -1 2 0 0 -1 1 0 0 -1 2 0 0 -1 1 0 0 -1M846 182l2 0"/>
<path stroke="red" d="M848 182l0 -1 1 0 0 -1 2 0 0 -1 1 0 0 -1 3 0 0 -2 3 0 0 -1 2 0 0 -1 1 0 0 -1 2 0 0 -1 1 0 0 -1 3 0 0 -2 2 0 0 -1 3 0 0 -1 1 0 0 -1 2 0 0 -1 1 0 0 -1 2 0 0 -1 1 0 0 -1 2 0 0 -1 3 0 0 -1 1 0 0 -1 2 0 0 -1 1 0 0 -1 2 0 0 -1"/>
<path stroke="red" d="M890 156l1 0 0 -1 2 0 0 -1 1 0 0 -1M894 154l2 0 0 -1 1 0 0 -1 2 0 0 -1 1 0 0 -1 2 0 0 -1 1 0 0 -1 2 0 0 -1 3 0 0 -1 1 0 0 -1 2 0 0 -1 1 0 0 -1 2 0 0 -1 1 0 0 -1 2 0 0 -1 3 0 0 -1 1 0 0 -1 2 0 0 -1 1 0 0 -1M924 137l2 0 0 -1"/>
<path stroke="red" d="M926 136l1 0 0 -1 2 0 0 -1 1 0 0 -1 3 0 0 -1 2 0 0 -1 1 0 0 -1 2 0 0 -1 1 0 0 -1 2 0 0 -1 1 0 0 -1 2 0 0 -1 1 0 0 -1 2 0 0 -1 3 0 0 -1 1 0 0 -1 2 0 0 -1 3 0 0 -1 1 0 0 -1 2 0 0 -1 1 0"/>
</svg>
